%FSLAX42Y42*%
%MOMM*%
G71*
G01*
G75*
%ADD10C,0.25*%
%ADD11C,0.30*%
%ADD12R,1.05X0.40*%
%ADD13R,0.70X1.30*%
%ADD14R,0.70X1.20*%
%ADD15R,0.90X1.60*%
%ADD16R,1.30X0.90*%
%ADD17R,1.00X1.20*%
%ADD18R,0.90X1.30*%
%ADD19R,1.00X1.70*%
%ADD20R,1.30X0.70*%
%ADD21R,1.20X0.70*%
%ADD22R,0.60X0.80*%
%ADD23R,1.30X3.60*%
%ADD24R,1.30X1.30*%
%ADD25R,1.50X0.60*%
%ADD26R,0.60X0.80*%
%ADD27R,0.70X0.60*%
%ADD28R,1.20X1.00*%
%ADD29C,0.50*%
%ADD30C,1.00*%
%ADD31C,0.20*%
%ADD32C,10.00*%
%ADD33C,1.50*%
%ADD34R,1.50X1.50*%
%ADD35C,2.54*%
%ADD36C,1.60*%
%ADD37C,4.00*%
%ADD38C,1.27*%
%ADD39C,4.00*%
%ADD40C,0.13*%
%ADD41C,0.17*%
D10*
X67Y-9D02*
Y7890D01*
X10467D01*
Y-9D02*
Y7890D01*
X67Y-9D02*
X10467D01*
X67Y8490D02*
Y16390D01*
X10467D01*
Y8490D02*
Y16390D01*
X67Y8490D02*
X10467D01*
X67Y16990D02*
Y24890D01*
X10467D01*
Y16990D02*
Y24890D01*
X67Y16990D02*
X10467D01*
D11*
X267Y190D02*
Y7690D01*
X10267D01*
Y190D02*
Y7690D01*
X267Y190D02*
X10267D01*
X267Y8690D02*
Y16190D01*
X10267D01*
Y8690D02*
Y16190D01*
X267Y8690D02*
X10267D01*
X267Y17190D02*
Y24690D01*
X10267D01*
Y17190D02*
Y24690D01*
X267Y17190D02*
X10267D01*
D40*
X722Y3099D02*
X812D01*
X767Y3053D02*
Y3143D01*
X722Y2591D02*
X812D01*
X767Y2545D02*
Y2635D01*
X722Y2844D02*
X812D01*
X767Y2800D02*
Y2890D01*
X722Y3353D02*
X812D01*
X767Y3308D02*
Y3397D01*
X722Y3606D02*
X812D01*
X767Y3562D02*
Y3651D01*
X722Y3860D02*
X812D01*
X767Y3815D02*
Y3906D01*
X722Y4115D02*
X812D01*
X767Y4069D02*
Y4160D01*
X965Y5869D02*
X1118D01*
X1042Y5793D02*
Y5946D01*
X965Y6378D02*
X1118D01*
X1042Y6301D02*
Y6454D01*
X6027Y5290D02*
X6107D01*
X6067Y5251D02*
Y5331D01*
X6027Y4790D02*
X6107D01*
X6067Y4751D02*
Y4831D01*
X9215Y4187D02*
X9368D01*
X9292Y4110D02*
Y4263D01*
X9215Y3678D02*
X9368D01*
X9292Y3602D02*
Y3755D01*
X6027Y766D02*
X6107D01*
X6067Y726D02*
Y806D01*
X6027Y1265D02*
X6107D01*
X6067Y1226D02*
Y1306D01*
X2102Y5590D02*
X2182D01*
X2142Y5551D02*
Y5631D01*
X2102Y5840D02*
X2182D01*
X2142Y5801D02*
Y5881D01*
X8117Y5840D02*
X8317D01*
X8217Y5740D02*
Y5940D01*
X6867Y5840D02*
X7067D01*
X6967Y5740D02*
Y5940D01*
X8167Y2241D02*
X8367D01*
X8267Y2141D02*
Y2341D01*
X6917Y2241D02*
X7117D01*
X7017Y2141D02*
Y2341D01*
X1006Y791D02*
X1077D01*
X1042Y755D02*
Y826D01*
X1006Y1090D02*
X1077D01*
X1042Y1055D02*
Y1126D01*
X3881Y840D02*
X3952D01*
X3917Y805D02*
Y876D01*
X2306Y840D02*
X2377D01*
X2342Y805D02*
Y876D01*
X3881Y1140D02*
X3952D01*
X3917Y1105D02*
Y1176D01*
X2306Y1115D02*
X2377D01*
X2342Y1080D02*
Y1151D01*
X3431Y3440D02*
X3502D01*
X3467Y3405D02*
Y3476D01*
X2856Y4240D02*
X2927D01*
X2892Y4205D02*
Y4276D01*
X2856Y3440D02*
X2927D01*
X2892Y3405D02*
Y3476D01*
X2606Y3690D02*
X2677D01*
X2642Y3655D02*
Y3726D01*
X2456Y3890D02*
X2527D01*
X2492Y3855D02*
Y3926D01*
X9206Y5565D02*
X9277D01*
X9242Y5530D02*
Y5601D01*
X6481Y2991D02*
X6552D01*
X6517Y2955D02*
Y3026D01*
X6481Y3290D02*
X6552D01*
X6517Y3255D02*
Y3326D01*
X2281Y2991D02*
X2352D01*
X2317Y2955D02*
Y3026D01*
X2281Y3215D02*
X2352D01*
X2317Y3180D02*
Y3251D01*
X2831Y2791D02*
X2902D01*
X2867Y2755D02*
Y2826D01*
X3406Y2791D02*
X3477D01*
X3442Y2755D02*
Y2826D01*
X722Y11599D02*
X812D01*
X767Y11554D02*
Y11643D01*
X722Y11090D02*
X812D01*
X767Y11046D02*
Y11136D01*
X722Y11344D02*
X812D01*
X767Y11300D02*
Y11389D01*
X722Y11853D02*
X812D01*
X767Y11807D02*
Y11897D01*
X722Y12107D02*
X812D01*
X767Y12061D02*
Y12151D01*
X722Y12361D02*
X812D01*
X767Y12315D02*
Y12406D01*
X722Y12614D02*
X812D01*
X767Y12569D02*
Y12660D01*
X965Y14370D02*
X1118D01*
X1042Y14293D02*
Y14446D01*
X965Y14877D02*
X1118D01*
X1042Y14801D02*
Y14954D01*
X6027Y13790D02*
X6107D01*
X6067Y13751D02*
Y13830D01*
X6027Y13290D02*
X6107D01*
X6067Y13251D02*
Y13330D01*
X9215Y12686D02*
X9368D01*
X9292Y12610D02*
Y12763D01*
X9215Y12179D02*
X9368D01*
X9292Y12102D02*
Y12255D01*
X6027Y9265D02*
X6107D01*
X6067Y9225D02*
Y9306D01*
X6027Y9765D02*
X6107D01*
X6067Y9725D02*
Y9806D01*
X2102Y14090D02*
X2182D01*
X2142Y14051D02*
Y14130D01*
X2102Y14340D02*
X2182D01*
X2142Y14301D02*
Y14380D01*
X8117Y14340D02*
X8317D01*
X8217Y14240D02*
Y14440D01*
X6867Y14340D02*
X7067D01*
X6967Y14240D02*
Y14440D01*
X8167Y10740D02*
X8367D01*
X8267Y10640D02*
Y10840D01*
X6917Y10740D02*
X7117D01*
X7017Y10640D02*
Y10840D01*
X1006Y9290D02*
X1077D01*
X1042Y9255D02*
Y9326D01*
X1006Y9590D02*
X1077D01*
X1042Y9555D02*
Y9626D01*
X3881Y9340D02*
X3952D01*
X3917Y9305D02*
Y9376D01*
X2306Y9340D02*
X2377D01*
X2342Y9305D02*
Y9376D01*
X3881Y9640D02*
X3952D01*
X3917Y9605D02*
Y9676D01*
X2306Y9615D02*
X2377D01*
X2342Y9580D02*
Y9651D01*
X3431Y11940D02*
X3502D01*
X3467Y11905D02*
Y11976D01*
X2856Y12740D02*
X2927D01*
X2892Y12705D02*
Y12776D01*
X2856Y11940D02*
X2927D01*
X2892Y11905D02*
Y11976D01*
X2606Y12190D02*
X2677D01*
X2642Y12155D02*
Y12226D01*
X2456Y12390D02*
X2527D01*
X2492Y12355D02*
Y12426D01*
X9206Y14065D02*
X9277D01*
X9242Y14030D02*
Y14101D01*
X6481Y11490D02*
X6552D01*
X6517Y11455D02*
Y11526D01*
X6481Y11790D02*
X6552D01*
X6517Y11755D02*
Y11826D01*
X2281Y11490D02*
X2352D01*
X2317Y11455D02*
Y11526D01*
X2281Y11715D02*
X2352D01*
X2317Y11680D02*
Y11751D01*
X2831Y11290D02*
X2902D01*
X2867Y11255D02*
Y11326D01*
X3406Y11290D02*
X3477D01*
X3442Y11255D02*
Y11326D01*
X722Y20099D02*
X812D01*
X767Y20054D02*
Y20143D01*
X722Y19590D02*
X812D01*
X767Y19546D02*
Y19635D01*
X722Y19845D02*
X812D01*
X767Y19799D02*
Y19890D01*
X722Y20352D02*
X812D01*
X767Y20307D02*
Y20398D01*
X722Y20607D02*
X812D01*
X767Y20562D02*
Y20651D01*
X722Y20860D02*
X812D01*
X767Y20815D02*
Y20905D01*
X722Y21115D02*
X812D01*
X767Y21070D02*
Y21160D01*
X965Y22870D02*
X1118D01*
X1042Y22793D02*
Y22946D01*
X965Y23377D02*
X1118D01*
X1042Y23301D02*
Y23454D01*
X6027Y22290D02*
X6107D01*
X6067Y22251D02*
Y22330D01*
X6027Y21790D02*
X6107D01*
X6067Y21751D02*
Y21830D01*
X9215Y21187D02*
X9368D01*
X9292Y21110D02*
Y21263D01*
X9215Y20679D02*
X9368D01*
X9292Y20602D02*
Y20755D01*
X6027Y17765D02*
X6107D01*
X6067Y17726D02*
Y17805D01*
X6027Y18265D02*
X6107D01*
X6067Y18226D02*
Y18305D01*
X2102Y22590D02*
X2182D01*
X2142Y22551D02*
Y22630D01*
X2102Y22840D02*
X2182D01*
X2142Y22801D02*
Y22880D01*
X8117Y22840D02*
X8317D01*
X8217Y22740D02*
Y22940D01*
X6867Y22840D02*
X7067D01*
X6967Y22740D02*
Y22940D01*
X8167Y19240D02*
X8367D01*
X8267Y19140D02*
Y19340D01*
X6917Y19240D02*
X7117D01*
X7017Y19140D02*
Y19340D01*
X1006Y17790D02*
X1077D01*
X1042Y17755D02*
Y17826D01*
X1006Y18090D02*
X1077D01*
X1042Y18055D02*
Y18126D01*
X3881Y17840D02*
X3952D01*
X3917Y17805D02*
Y17876D01*
X2306Y17840D02*
X2377D01*
X2342Y17805D02*
Y17876D01*
X3881Y18140D02*
X3952D01*
X3917Y18105D02*
Y18176D01*
X2306Y18115D02*
X2377D01*
X2342Y18080D02*
Y18151D01*
X3431Y20440D02*
X3502D01*
X3467Y20405D02*
Y20476D01*
X2856Y21240D02*
X2927D01*
X2892Y21205D02*
Y21276D01*
X2856Y20440D02*
X2927D01*
X2892Y20405D02*
Y20476D01*
X2606Y20690D02*
X2677D01*
X2642Y20655D02*
Y20726D01*
X2456Y20890D02*
X2527D01*
X2492Y20855D02*
Y20926D01*
X9206Y22565D02*
X9277D01*
X9242Y22530D02*
Y22601D01*
X6481Y19990D02*
X6552D01*
X6517Y19955D02*
Y20026D01*
X6481Y20290D02*
X6552D01*
X6517Y20255D02*
Y20326D01*
X2281Y19990D02*
X2352D01*
X2317Y19955D02*
Y20026D01*
X2281Y20215D02*
X2352D01*
X2317Y20180D02*
Y20251D01*
X2831Y19790D02*
X2902D01*
X2867Y19755D02*
Y19826D01*
X3406Y19790D02*
X3477D01*
X3442Y19755D02*
Y19826D01*
M02*
