%FSLAX42Y42*%
%MOMM*%
G71*
G01*
G75*
G04 Layer_Physical_Order=2*
G04 Layer_Color=16711680*
%ADD10C,0.25*%
%ADD11C,0.30*%
%ADD12R,1.05X0.40*%
%ADD13R,0.70X1.30*%
%ADD14R,0.70X1.20*%
%ADD15R,0.90X1.60*%
%ADD16R,1.30X0.90*%
%ADD17R,1.00X1.20*%
%ADD18R,0.90X1.30*%
%ADD19R,1.00X1.70*%
%ADD20R,1.30X0.70*%
%ADD21R,1.20X0.70*%
%ADD22R,0.60X0.80*%
%ADD23R,1.30X3.60*%
%ADD24R,1.30X1.30*%
%ADD25R,1.50X0.60*%
%ADD26R,0.60X0.80*%
%ADD27R,0.70X0.60*%
%ADD28R,1.20X1.00*%
%ADD29C,0.50*%
%ADD30C,1.00*%
%ADD31C,0.20*%
%ADD32C,10.00*%
%ADD33C,1.50*%
%ADD34R,1.50X1.50*%
%ADD35C,2.54*%
%ADD36C,1.60*%
%ADD37C,4.00*%
%ADD38C,1.27*%
%ADD39C,4.00*%
G36*
X5267Y2416D02*
Y226D01*
X1698D01*
X302Y240D01*
Y2416D01*
X5267D01*
X5267Y2416D01*
D02*
G37*
G36*
X3792Y3365D02*
X2742D01*
Y4465D01*
X3792D01*
Y3365D01*
D02*
G37*
G36*
X5267Y10915D02*
Y8726D01*
X1698D01*
X302Y8740D01*
Y10915D01*
X5267D01*
X5267Y10915D01*
D02*
G37*
G36*
X3792Y11865D02*
X2742D01*
Y12965D01*
X3792D01*
Y11865D01*
D02*
G37*
G36*
X5267Y19415D02*
Y17226D01*
X1698D01*
X302Y17240D01*
Y19415D01*
X5267D01*
X5267Y19415D01*
D02*
G37*
G36*
X3792Y20365D02*
X2742D01*
Y21465D01*
X3792D01*
Y20365D01*
D02*
G37*
D10*
X67Y-9D02*
Y7890D01*
X10467D01*
Y-9D02*
Y7890D01*
X67Y-9D02*
X10467D01*
X67Y8490D02*
Y16390D01*
X10467D01*
Y8490D02*
Y16390D01*
X67Y8490D02*
X10467D01*
X67Y16990D02*
Y24890D01*
X10467D01*
Y16990D02*
Y24890D01*
X67Y16990D02*
X10467D01*
D11*
X267Y190D02*
Y7690D01*
X10267D01*
Y190D02*
Y7690D01*
X267Y190D02*
X10267D01*
X267Y8690D02*
Y16190D01*
X10267D01*
Y8690D02*
Y16190D01*
X267Y8690D02*
X10267D01*
X267Y17190D02*
Y24690D01*
X10267D01*
Y17190D02*
Y24690D01*
X267Y17190D02*
X10267D01*
D29*
X2492Y3865D02*
Y3890D01*
Y3865D02*
X2667Y3690D01*
X8217Y6690D02*
X9267Y5640D01*
X9192Y5565D02*
X9267Y5640D01*
X9192Y5565D02*
X9242D01*
X684Y3099D02*
X767D01*
X517Y3265D02*
X684Y3099D01*
X517Y3265D02*
Y6415D01*
X792Y6690D01*
X8217D01*
X1042Y5869D02*
X1171D01*
X2392Y3290D02*
X6517D01*
X2317Y3215D02*
X2392Y3290D01*
X767Y3099D02*
X825D01*
X9292Y3615D02*
Y3678D01*
X2317Y2991D02*
X6517D01*
X2867Y2791D02*
X3442D01*
X2492Y12365D02*
Y12390D01*
Y12365D02*
X2667Y12190D01*
X8217Y15190D02*
X9267Y14140D01*
X9192Y14065D02*
X9267Y14140D01*
X9192Y14065D02*
X9242D01*
X684Y11599D02*
X767D01*
X517Y11765D02*
X684Y11599D01*
X517Y11765D02*
Y14915D01*
X792Y15190D01*
X8217D01*
X1042Y14370D02*
X1171D01*
X2392Y11790D02*
X6517D01*
X2317Y11715D02*
X2392Y11790D01*
X767Y11599D02*
X825D01*
X9292Y12115D02*
Y12179D01*
X2317Y11490D02*
X6517D01*
X2867Y11290D02*
X3442D01*
X2492Y20865D02*
Y20890D01*
Y20865D02*
X2667Y20690D01*
X8217Y23690D02*
X9267Y22640D01*
X9192Y22565D02*
X9267Y22640D01*
X9192Y22565D02*
X9242D01*
X684Y20099D02*
X767D01*
X517Y20265D02*
X684Y20099D01*
X517Y20265D02*
Y23415D01*
X792Y23690D01*
X8217D01*
X1042Y22870D02*
X1171D01*
X2392Y20290D02*
X6517D01*
X2317Y20215D02*
X2392Y20290D01*
X767Y20099D02*
X825D01*
X9292Y20615D02*
Y20679D01*
X2317Y19990D02*
X6517D01*
X2867Y19790D02*
X3442D01*
D33*
X767Y3099D02*
D03*
Y2844D02*
D03*
Y3353D02*
D03*
Y3606D02*
D03*
Y3860D02*
D03*
Y4115D02*
D03*
Y11599D02*
D03*
Y11344D02*
D03*
Y11853D02*
D03*
Y12107D02*
D03*
Y12361D02*
D03*
Y12614D02*
D03*
Y20099D02*
D03*
Y19845D02*
D03*
Y20352D02*
D03*
Y20607D02*
D03*
Y20860D02*
D03*
Y21115D02*
D03*
D34*
Y2591D02*
D03*
Y11090D02*
D03*
Y19590D02*
D03*
D35*
X1042Y5869D02*
D03*
Y6378D02*
D03*
X9292Y4187D02*
D03*
Y3678D02*
D03*
X1042Y14370D02*
D03*
Y14877D02*
D03*
X9292Y12686D02*
D03*
Y12179D02*
D03*
X1042Y22870D02*
D03*
Y23377D02*
D03*
X9292Y21187D02*
D03*
Y20679D02*
D03*
D36*
X6067Y5290D02*
D03*
Y4790D02*
D03*
Y766D02*
D03*
Y1265D02*
D03*
X2142Y5590D02*
D03*
Y5840D02*
D03*
X6067Y13790D02*
D03*
Y13290D02*
D03*
Y9265D02*
D03*
Y9765D02*
D03*
X2142Y14090D02*
D03*
Y14340D02*
D03*
X6067Y22290D02*
D03*
Y21790D02*
D03*
Y17765D02*
D03*
Y18265D02*
D03*
X2142Y22590D02*
D03*
Y22840D02*
D03*
D37*
X8217Y5840D02*
D03*
X6967D02*
D03*
X8267Y2241D02*
D03*
X7017D02*
D03*
X8217Y14340D02*
D03*
X6967D02*
D03*
X8267Y10740D02*
D03*
X7017D02*
D03*
X8217Y22840D02*
D03*
X6967D02*
D03*
X8267Y19240D02*
D03*
X7017D02*
D03*
D38*
X1042Y791D02*
D03*
Y1090D02*
D03*
X3917Y840D02*
D03*
X2342D02*
D03*
X3917Y1140D02*
D03*
X2342Y1115D02*
D03*
X3467Y3440D02*
D03*
X2892Y4240D02*
D03*
Y3440D02*
D03*
X2642Y3690D02*
D03*
X2492Y3890D02*
D03*
X9242Y5565D02*
D03*
X6517Y2991D02*
D03*
Y3290D02*
D03*
X2317Y2991D02*
D03*
Y3215D02*
D03*
X2867Y2791D02*
D03*
X3442D02*
D03*
X1042Y9290D02*
D03*
Y9590D02*
D03*
X3917Y9340D02*
D03*
X2342D02*
D03*
X3917Y9640D02*
D03*
X2342Y9615D02*
D03*
X3467Y11940D02*
D03*
X2892Y12740D02*
D03*
Y11940D02*
D03*
X2642Y12190D02*
D03*
X2492Y12390D02*
D03*
X9242Y14065D02*
D03*
X6517Y11490D02*
D03*
Y11790D02*
D03*
X2317Y11490D02*
D03*
Y11715D02*
D03*
X2867Y11290D02*
D03*
X3442D02*
D03*
X1042Y17790D02*
D03*
Y18090D02*
D03*
X3917Y17840D02*
D03*
X2342D02*
D03*
X3917Y18140D02*
D03*
X2342Y18115D02*
D03*
X3467Y20440D02*
D03*
X2892Y21240D02*
D03*
Y20440D02*
D03*
X2642Y20690D02*
D03*
X2492Y20890D02*
D03*
X9242Y22565D02*
D03*
X6517Y19990D02*
D03*
Y20290D02*
D03*
X2317Y19990D02*
D03*
Y20215D02*
D03*
X2867Y19790D02*
D03*
X3442D02*
D03*
D39*
X6067Y1265D02*
X7267D01*
X7717Y1716D01*
Y3515D01*
X6442Y4790D02*
X7717Y3515D01*
X6067Y4790D02*
X6442D01*
X1042Y5790D02*
Y5869D01*
Y5790D02*
X2042Y4790D01*
X6067D01*
Y9765D02*
X7267D01*
X7717Y10215D01*
Y12015D01*
X6442Y13290D02*
X7717Y12015D01*
X6067Y13290D02*
X6442D01*
X1042Y14290D02*
Y14370D01*
Y14290D02*
X2042Y13290D01*
X6067D01*
Y18265D02*
X7267D01*
X7717Y18715D01*
Y20515D01*
X6442Y21790D02*
X7717Y20515D01*
X6067Y21790D02*
X6442D01*
X1042Y22790D02*
Y22870D01*
Y22790D02*
X2042Y21790D01*
X6067D01*
M02*
