%FSLAX42Y42*%
%MOMM*%
G71*
G01*
G75*
G04 Layer_Physical_Order=1*
G04 Layer_Color=255*
%ADD10C,0.25*%
%ADD11C,0.30*%
%ADD12R,1.05X0.40*%
%ADD13R,0.70X1.30*%
%ADD14R,0.70X1.20*%
%ADD15R,0.90X1.60*%
%ADD16R,1.30X0.90*%
%ADD17R,1.00X1.20*%
%ADD18R,0.90X1.30*%
%ADD19R,1.00X1.70*%
%ADD20R,1.30X0.70*%
%ADD21R,1.20X0.70*%
%ADD22R,0.60X0.80*%
%ADD23R,1.30X3.60*%
%ADD24R,1.30X1.30*%
%ADD25R,1.50X0.60*%
%ADD26R,0.60X0.80*%
%ADD27R,0.70X0.60*%
%ADD28R,1.20X1.00*%
%ADD29C,0.50*%
%ADD30C,1.00*%
%ADD31C,0.20*%
%ADD32C,10.00*%
%ADD33C,1.50*%
%ADD34R,1.50X1.50*%
%ADD35C,2.54*%
%ADD36C,1.60*%
%ADD37C,4.00*%
%ADD38C,1.27*%
G36*
X323Y247D02*
X10211D01*
Y7634D01*
X323D01*
Y247D01*
D02*
G37*
%LPC*%
G36*
X7962Y4976D02*
X8172D01*
Y4806D01*
X8067D01*
X8063Y4804D01*
X8059Y4802D01*
X8042Y4800D01*
X7862D01*
Y4785D01*
X7722D01*
Y4946D01*
X7862D01*
Y4931D01*
X7962D01*
Y4976D01*
D02*
G37*
G36*
X5952Y2895D02*
X6102D01*
Y2685D01*
X5952D01*
Y2725D01*
X5667D01*
Y2666D01*
X5517D01*
Y2866D01*
X5667D01*
Y2856D01*
X5952D01*
Y2895D01*
D02*
G37*
G36*
X1492Y7156D02*
X5292D01*
X5309Y7154D01*
X5324Y7147D01*
X5338Y7137D01*
X7530Y4945D01*
X7532Y4946D01*
Y4946D01*
X7532Y4946D01*
X7672D01*
Y4785D01*
X7667D01*
Y4706D01*
X7687D01*
Y4526D01*
X7487D01*
Y4550D01*
X7419D01*
X7367Y4498D01*
Y4421D01*
X7377D01*
Y4210D01*
X7367D01*
Y3805D01*
Y3797D01*
X7574D01*
Y3800D01*
X7759D01*
Y3797D01*
X7808D01*
X7809Y3797D01*
X7825Y3804D01*
X7840Y3806D01*
X7843Y3812D01*
X7845Y3833D01*
X7782Y3896D01*
X7759Y3886D01*
Y3876D01*
X7574D01*
Y3879D01*
X7522D01*
X7500Y3884D01*
X7482Y3896D01*
X7482Y3896D01*
X7482Y3896D01*
X7452Y3926D01*
X7440Y3944D01*
X7436Y3965D01*
X7436Y3965D01*
X7436Y3965D01*
Y3965D01*
Y3982D01*
X7435Y3983D01*
X7428Y3999D01*
X7426Y4015D01*
Y4210D01*
X7417D01*
Y4421D01*
X7567D01*
Y4210D01*
X7557D01*
Y4126D01*
X7574D01*
Y4126D01*
X7759D01*
Y4126D01*
X7772Y4126D01*
X7952Y4305D01*
Y4496D01*
X8102D01*
Y4285D01*
X8080D01*
X8079Y4279D01*
X8066Y4261D01*
X8066Y4261D01*
X8066D01*
Y4261D01*
X8066Y4261D01*
X7831Y4026D01*
X7831D01*
X7831D01*
X7829Y4007D01*
X7919Y3918D01*
X7943Y3923D01*
X7951Y3943D01*
X7968Y3964D01*
X7990Y3981D01*
X8015Y3991D01*
X8042Y3995D01*
X8069Y3991D01*
X8094Y3981D01*
X8101Y3976D01*
X8297D01*
Y3971D01*
X8317D01*
Y3971D01*
X8326Y3971D01*
Y4065D01*
X8328Y4082D01*
X8335Y4098D01*
X8345Y4112D01*
X8420Y4187D01*
X8434Y4197D01*
X8442Y4201D01*
X8450Y4204D01*
X8467Y4206D01*
X8593D01*
X8610Y4229D01*
D01*
X8610Y4229D01*
X8610Y4229D01*
X8599Y4240D01*
X8589Y4254D01*
X8584Y4265D01*
X8582Y4270D01*
X8580Y4287D01*
Y4290D01*
X8317D01*
Y4325D01*
X8292D01*
Y4285D01*
X8142D01*
Y4496D01*
X8292D01*
Y4456D01*
X8317D01*
Y4490D01*
X8326D01*
Y4590D01*
X8328Y4607D01*
X8335Y4623D01*
X8345Y4637D01*
X8359Y4647D01*
X8375Y4654D01*
X8392Y4656D01*
X8517D01*
X8534Y4654D01*
X8549Y4647D01*
X8563Y4637D01*
X8573Y4623D01*
X8580Y4607D01*
X8582Y4590D01*
Y4490D01*
X8721D01*
Y4341D01*
X9017D01*
Y4471D01*
X9167D01*
Y4331D01*
X9178Y4322D01*
X9238Y4262D01*
X9248Y4248D01*
X9250Y4246D01*
X9357D01*
Y4035D01*
X9257D01*
Y4006D01*
X9266Y3996D01*
X9342D01*
Y3956D01*
X9417D01*
X9434Y3954D01*
X9449Y3947D01*
X9456Y3942D01*
X9463Y3937D01*
X9700Y3700D01*
X9709Y3707D01*
X9737Y3719D01*
X9755Y3721D01*
Y3746D01*
X9737Y3748D01*
X9709Y3760D01*
X9685Y3778D01*
X9666Y3803D01*
X9655Y3830D01*
X9651Y3860D01*
X9655Y3891D01*
X9666Y3918D01*
X9685Y3943D01*
X9709Y3961D01*
X9737Y3973D01*
X9767Y3976D01*
X9797Y3973D01*
X9825Y3961D01*
X9849Y3943D01*
X9860Y3928D01*
X9885Y3926D01*
X9976Y4018D01*
Y4688D01*
X9794Y4871D01*
X9677D01*
Y4905D01*
X9432D01*
Y4751D01*
X9222D01*
Y4905D01*
X8822D01*
Y4865D01*
X8612D01*
Y5076D01*
D01*
Y5075D01*
X8612Y5076D01*
Y5096D01*
X8612D01*
Y5306D01*
X8651D01*
Y5525D01*
X8493D01*
X8477Y5505D01*
X8452Y5486D01*
X8432Y5477D01*
Y5290D01*
X8472D01*
Y5121D01*
X8262D01*
Y5290D01*
X8301D01*
Y5511D01*
X8291Y5525D01*
X7794D01*
X7763Y5494D01*
X7772Y5471D01*
X7882D01*
Y5260D01*
X7872D01*
Y5131D01*
X7870Y5114D01*
X7867Y5107D01*
X7863Y5098D01*
X7862Y5095D01*
Y5035D01*
X7722D01*
Y5196D01*
X7741D01*
Y5260D01*
X7732D01*
Y5430D01*
X7709Y5440D01*
X7692Y5423D01*
Y5260D01*
X7682D01*
Y5131D01*
X7680Y5114D01*
X7677Y5107D01*
X7673Y5098D01*
X7672Y5095D01*
Y5035D01*
X7532D01*
Y5196D01*
X7551D01*
Y5260D01*
X7542D01*
Y5471D01*
X7559D01*
X7560Y5473D01*
X7570Y5487D01*
X7720Y5637D01*
X7734Y5647D01*
X7742Y5651D01*
X7750Y5654D01*
X7767Y5656D01*
X8291D01*
X8306Y5676D01*
X8331Y5695D01*
X8360Y5707D01*
X8392Y5712D01*
X8423Y5707D01*
X8452Y5695D01*
X8477Y5676D01*
X8493Y5656D01*
X9186D01*
X9336Y5807D01*
X9327Y5837D01*
X9324Y5869D01*
X9327Y5902D01*
X9337Y5934D01*
X9352Y5963D01*
X9373Y5988D01*
X9398Y6009D01*
X9427Y6025D01*
X9459Y6034D01*
X9492Y6037D01*
X9524Y6034D01*
X9556Y6025D01*
X9585Y6009D01*
X9610Y5988D01*
X9631Y5963D01*
X9647Y5934D01*
X9656Y5902D01*
X9660Y5869D01*
X9656Y5837D01*
X9647Y5805D01*
X9631Y5776D01*
X9610Y5751D01*
X9585Y5730D01*
X9556Y5714D01*
X9524Y5705D01*
X9492Y5702D01*
X9459Y5705D01*
X9429Y5714D01*
X9259Y5544D01*
X9245Y5534D01*
X9240Y5531D01*
X9230Y5527D01*
X9213Y5525D01*
X8782D01*
Y5306D01*
X8822D01*
Y5096D01*
X8822Y5096D01*
X8822Y5075D01*
X8822D01*
Y5036D01*
X9222D01*
Y5190D01*
X9432D01*
Y5036D01*
X9677D01*
Y5071D01*
X9857D01*
Y4993D01*
X10088Y4762D01*
X10098Y4748D01*
X10103Y4737D01*
X10105Y4732D01*
X10107Y4715D01*
Y3990D01*
X10105Y3974D01*
X10102Y3967D01*
X10098Y3958D01*
X10088Y3944D01*
X9958Y3814D01*
X9944Y3804D01*
X9935Y3800D01*
X9929Y3797D01*
X9912Y3795D01*
X9861D01*
X9849Y3778D01*
X9825Y3760D01*
X9797Y3748D01*
X9778Y3746D01*
Y3721D01*
X9797Y3719D01*
X9825Y3707D01*
X9849Y3689D01*
X9867Y3664D01*
X9879Y3637D01*
X9883Y3606D01*
X9879Y3576D01*
X9867Y3549D01*
X9849Y3524D01*
X9825Y3506D01*
X9797Y3494D01*
X9778Y3492D01*
Y3467D01*
X9797Y3465D01*
X9825Y3453D01*
X9849Y3435D01*
X9867Y3410D01*
X9879Y3383D01*
X9883Y3353D01*
X9881Y3343D01*
X10038Y3187D01*
X10048Y3173D01*
X10053Y3162D01*
X10055Y3157D01*
X10057Y3141D01*
Y2391D01*
X10055Y2374D01*
X10052Y2367D01*
X10048Y2358D01*
X10038Y2344D01*
X9813Y2119D01*
X9799Y2109D01*
X9790Y2105D01*
X9784Y2102D01*
X9767Y2100D01*
X9347D01*
Y2091D01*
X9137D01*
Y2241D01*
X9347D01*
Y2231D01*
X9740D01*
X9926Y2418D01*
Y3113D01*
X9902Y3138D01*
X9898Y3137D01*
X9879Y3127D01*
X9883Y3099D01*
X9879Y3068D01*
X9867Y3041D01*
X9849Y3016D01*
X9825Y2998D01*
X9797Y2986D01*
X9778Y2984D01*
Y2959D01*
X9797Y2957D01*
X9825Y2945D01*
X9849Y2927D01*
X9867Y2902D01*
X9879Y2875D01*
X9883Y2844D01*
X9879Y2814D01*
X9867Y2787D01*
X9849Y2762D01*
X9825Y2744D01*
X9797Y2732D01*
X9781Y2730D01*
X9783Y2706D01*
X9882D01*
Y2475D01*
X9652D01*
Y2525D01*
X9342D01*
Y2485D01*
X9192D01*
Y2695D01*
X9201D01*
Y2760D01*
X9182D01*
Y2970D01*
X9286D01*
X9296Y2994D01*
X9279Y3010D01*
X9192D01*
Y3221D01*
X9201D01*
Y3260D01*
X9182D01*
Y3471D01*
X9269D01*
X9279Y3494D01*
X9237Y3535D01*
X9192D01*
Y3746D01*
X9342D01*
Y3616D01*
X9630Y3328D01*
X9652Y3339D01*
X9651Y3353D01*
X9655Y3383D01*
X9666Y3410D01*
X9685Y3435D01*
X9709Y3453D01*
X9737Y3465D01*
X9755Y3467D01*
Y3492D01*
X9737Y3494D01*
X9709Y3506D01*
X9685Y3524D01*
X9666Y3549D01*
X9665Y3552D01*
X9654Y3560D01*
X9390Y3825D01*
X9342D01*
Y3785D01*
X9192D01*
Y3880D01*
X9169Y3890D01*
X9152Y3873D01*
Y3785D01*
X9002D01*
Y3996D01*
X9089D01*
X9106Y4012D01*
X9096Y4035D01*
X9017D01*
Y4075D01*
X8707D01*
X8696Y4053D01*
X8702Y4044D01*
X8709Y4028D01*
X8711Y4012D01*
Y3971D01*
X8848D01*
Y3771D01*
X8847D01*
Y3721D01*
X8857D01*
Y3706D01*
X9002D01*
Y3746D01*
X9152D01*
Y3535D01*
X9002D01*
Y3575D01*
X8857D01*
Y3510D01*
X8847D01*
Y3471D01*
X8867D01*
Y3260D01*
X8717D01*
Y3371D01*
X8716Y3376D01*
Y3510D01*
X8707D01*
Y3721D01*
X8716D01*
Y3771D01*
X8584D01*
Y3767D01*
X8582Y3751D01*
X8579Y3743D01*
X8578Y3741D01*
X8590Y3724D01*
X8594Y3721D01*
X8667D01*
Y3510D01*
X8629D01*
X8563Y3444D01*
X8549Y3434D01*
D01*
D01*
Y3434D01*
X8549Y3434D01*
D01*
D01*
X8549D01*
Y3434D01*
D01*
X8549D01*
Y3434D01*
X8534Y3427D01*
X8517Y3425D01*
X8342D01*
X8325Y3427D01*
X8317Y3430D01*
X8309Y3434D01*
X8295Y3444D01*
X8272Y3467D01*
X8269Y3469D01*
X8255Y3479D01*
X8245Y3493D01*
X8238Y3509D01*
X8236Y3526D01*
Y3535D01*
X8127D01*
Y3584D01*
X8117D01*
X8095Y3589D01*
X8077Y3601D01*
X8015Y3663D01*
X7990Y3658D01*
X7982Y3638D01*
X7966Y3617D01*
X7957Y3610D01*
Y3290D01*
X7955Y3274D01*
X7952Y3266D01*
X7948Y3258D01*
X7938Y3244D01*
X7743Y3049D01*
X7729Y3039D01*
D01*
D01*
Y3039D01*
X7729Y3039D01*
D01*
D01*
X7729D01*
Y3039D01*
D01*
X7729D01*
Y3039D01*
X7714Y3032D01*
X7697Y3030D01*
X7477D01*
Y2910D01*
X7472D01*
Y2253D01*
X7597Y2127D01*
X7782D01*
Y1988D01*
Y1869D01*
X8252D01*
X8426Y2044D01*
X8428Y2057D01*
X8411Y2075D01*
X8212D01*
Y2180D01*
X8037D01*
X8020Y2182D01*
X8013Y2185D01*
X8004Y2189D01*
X7990Y2199D01*
X7944Y2246D01*
X7782D01*
Y2242D01*
X7552D01*
Y2368D01*
Y2495D01*
Y2635D01*
X7601D01*
Y2710D01*
X7593Y2717D01*
X7576Y2738D01*
X7566Y2763D01*
X7562Y2791D01*
X7566Y2818D01*
X7576Y2843D01*
X7593Y2864D01*
X7615Y2881D01*
X7640Y2891D01*
X7667Y2895D01*
X7694Y2891D01*
X7719Y2881D01*
X7741Y2864D01*
X7747Y2856D01*
X7897D01*
Y2891D01*
X8077D01*
Y2641D01*
X7897D01*
Y2725D01*
X7747D01*
X7741Y2717D01*
X7732Y2710D01*
Y2635D01*
X7782D01*
Y2508D01*
Y2504D01*
X8019D01*
X8036Y2502D01*
X8040Y2500D01*
X8051Y2495D01*
X8065Y2485D01*
X8144Y2406D01*
X8212D01*
Y2416D01*
X8251D01*
Y2641D01*
X8227D01*
Y2877D01*
X8217Y2886D01*
X8190Y2890D01*
X8165Y2900D01*
X8143Y2917D01*
X8126Y2938D01*
X8116Y2963D01*
X8112Y2991D01*
X8116Y3018D01*
X8126Y3043D01*
X8143Y3064D01*
X8165Y3081D01*
X8188Y3091D01*
Y3116D01*
X8165Y3125D01*
X8143Y3142D01*
X8126Y3163D01*
X8116Y3188D01*
X8112Y3215D01*
X8116Y3243D01*
X8126Y3268D01*
X8143Y3289D01*
X8165Y3306D01*
X8190Y3316D01*
X8217Y3320D01*
X8244Y3316D01*
X8269Y3306D01*
X8291Y3289D01*
X8307Y3268D01*
X8318Y3243D01*
X8321Y3215D01*
X8319Y3200D01*
X8336Y3181D01*
X9002D01*
Y3221D01*
X9152D01*
Y3010D01*
X9002D01*
Y3050D01*
X8883D01*
X8873Y3027D01*
X8963Y2937D01*
X8973Y2923D01*
X8977Y2914D01*
X8980Y2907D01*
X8982Y2891D01*
Y2778D01*
X9064Y2695D01*
X9152D01*
Y2485D01*
X9002D01*
Y2573D01*
X8870Y2704D01*
X8860Y2718D01*
X8856Y2727D01*
X8853Y2734D01*
X8851Y2750D01*
Y2863D01*
X8790Y2925D01*
X8305D01*
X8290Y2905D01*
X8295Y2891D01*
X8407D01*
Y2831D01*
X8467D01*
Y2870D01*
X8637D01*
Y2660D01*
X8467D01*
Y2700D01*
X8407D01*
Y2641D01*
X8382D01*
Y2606D01*
X8567D01*
X8584Y2604D01*
X8594Y2600D01*
X8599Y2597D01*
X8613Y2587D01*
X8688Y2512D01*
X8698Y2498D01*
X8702Y2490D01*
X8705Y2482D01*
X8707Y2466D01*
Y2434D01*
X8717Y2421D01*
X8728Y2414D01*
X8732Y2416D01*
X8740Y2419D01*
X8757Y2421D01*
X9137D01*
Y2431D01*
X9347D01*
Y2281D01*
X9137D01*
Y2290D01*
X9072D01*
Y2266D01*
X8862D01*
Y2290D01*
X8817D01*
Y2270D01*
X8707D01*
Y2130D01*
X8714Y2129D01*
X8736Y2120D01*
X8755Y2106D01*
X8981Y1880D01*
X8995Y1861D01*
X9004Y1839D01*
X9007Y1816D01*
Y1040D01*
X9007Y1040D01*
X9007D01*
X9004Y1017D01*
X8995Y995D01*
X8981Y976D01*
X8431Y426D01*
X8431Y426D01*
X8412Y412D01*
X8390Y403D01*
X8390Y403D01*
X8390Y403D01*
D01*
X8390Y403D01*
X8390Y403D01*
X8367Y400D01*
X5592D01*
X5568Y403D01*
X5546Y412D01*
X5528Y426D01*
X5528Y426D01*
X5528Y426D01*
X5429Y525D01*
X4769D01*
X4765Y526D01*
X4761Y526D01*
X4759Y526D01*
X4759Y526D01*
X4759D01*
X4755Y527D01*
X4753Y528D01*
X4751Y529D01*
X4750Y530D01*
X4744Y532D01*
X4744Y532D01*
X4744Y532D01*
X4739Y538D01*
X4733Y543D01*
X4733Y543D01*
X4733Y543D01*
X4731Y549D01*
X4730Y550D01*
X4729Y552D01*
X4729Y554D01*
X4727Y558D01*
Y558D01*
X4727Y558D01*
X4727Y560D01*
X4727Y564D01*
X4726Y568D01*
Y900D01*
X3144D01*
X3140Y901D01*
X3136Y901D01*
X3134Y901D01*
X3134Y901D01*
X3134D01*
X3130Y902D01*
X3128Y903D01*
X3126Y904D01*
X3125Y905D01*
X3119Y907D01*
X3119Y907D01*
X3119Y907D01*
X3114Y913D01*
X3108Y918D01*
X3108Y918D01*
X3108Y918D01*
X3106Y924D01*
X3105Y925D01*
X3104Y927D01*
X3104Y929D01*
X3102Y933D01*
Y933D01*
X3102Y933D01*
X3102Y935D01*
X3102Y939D01*
X3101Y943D01*
Y1438D01*
X3102Y1442D01*
X3102Y1446D01*
X3102Y1448D01*
X3102Y1448D01*
Y1448D01*
X3104Y1452D01*
X3104Y1454D01*
X3105Y1456D01*
X3106Y1457D01*
X3108Y1463D01*
X3108Y1463D01*
X3108Y1463D01*
X3114Y1468D01*
X3119Y1474D01*
X3119Y1474D01*
X3119Y1474D01*
X3125Y1476D01*
X3126Y1477D01*
X3128Y1478D01*
X3130Y1479D01*
X3134Y1480D01*
X3134D01*
X3134Y1480D01*
X3136Y1481D01*
X3140Y1481D01*
X3144Y1481D01*
X3211D01*
X3220Y1504D01*
X3114Y1610D01*
X3112Y1614D01*
X3109Y1616D01*
X3108Y1618D01*
X3108Y1618D01*
X3108Y1618D01*
X3108Y1618D01*
X3107Y1622D01*
X3105Y1623D01*
X3105Y1625D01*
X3104Y1627D01*
X3104Y1629D01*
X3102Y1633D01*
X3102Y1633D01*
X3102Y1633D01*
Y1633D01*
X3102Y1635D01*
X3102Y1639D01*
X3101Y1643D01*
Y2563D01*
X3102Y2567D01*
X3102Y2571D01*
X3102Y2573D01*
X3102Y2573D01*
Y2573D01*
X3104Y2577D01*
X3104Y2579D01*
X3105Y2581D01*
X3106Y2582D01*
X3108Y2588D01*
X3108Y2588D01*
X3108Y2588D01*
X3114Y2593D01*
X3119Y2599D01*
X3119Y2599D01*
X3119Y2599D01*
X3125Y2601D01*
X3126Y2602D01*
X3128Y2603D01*
X3130Y2604D01*
X3134Y2605D01*
X3134D01*
X3134Y2605D01*
X3136Y2606D01*
X3140Y2606D01*
X3144Y2606D01*
X4640D01*
X4644Y2606D01*
X4648Y2606D01*
X4649Y2605D01*
X4649Y2605D01*
X4649D01*
X4653Y2604D01*
X4655Y2603D01*
X4657Y2602D01*
X4658Y2601D01*
X4664Y2599D01*
X4664Y2599D01*
X4664Y2599D01*
X4670Y2593D01*
X4675Y2588D01*
X4675Y2588D01*
X4675Y2588D01*
X4678Y2582D01*
X4678Y2581D01*
X4679Y2579D01*
X4680Y2577D01*
X4681Y2573D01*
Y2573D01*
X4681Y2573D01*
X4682Y2571D01*
X4682D01*
X4682Y2571D01*
D01*
X4682Y2566D01*
X4682Y2563D01*
Y2556D01*
X4682Y2556D01*
X5890D01*
X5894Y2556D01*
X5898Y2556D01*
X5899Y2555D01*
X5899Y2555D01*
X5899D01*
X5903Y2554D01*
X5905Y2553D01*
X5907Y2552D01*
X5908Y2551D01*
X5914Y2549D01*
X5914Y2549D01*
X5914Y2549D01*
X5920Y2543D01*
X5925Y2538D01*
X5925Y2538D01*
X5925Y2538D01*
X5928Y2532D01*
X5928Y2531D01*
X5929Y2529D01*
X5930Y2527D01*
X5931Y2523D01*
Y2523D01*
X5931Y2523D01*
X5932Y2521D01*
X5932Y2517D01*
X5932Y2513D01*
Y2092D01*
X5994Y2031D01*
X6111D01*
X6151Y2048D01*
X6153Y2050D01*
X6151Y2066D01*
Y2685D01*
X6142D01*
Y2895D01*
X6292D01*
Y2685D01*
X6282D01*
Y2093D01*
X6628Y1747D01*
X6832D01*
Y1607D01*
Y1606D01*
X6942D01*
X6959Y1604D01*
X6969Y1600D01*
X6974Y1597D01*
X6988Y1587D01*
X7063Y1512D01*
X7073Y1498D01*
X7076Y1492D01*
X7080Y1482D01*
X7082Y1465D01*
Y1265D01*
X7122D01*
Y1095D01*
X7122Y1096D01*
X7122Y1075D01*
X7122D01*
Y906D01*
X7122Y906D01*
X7122D01*
X7121Y904D01*
X7144Y881D01*
X7515D01*
X7557Y923D01*
Y1165D01*
X7601D01*
Y1352D01*
X7552D01*
Y1480D01*
Y1607D01*
Y1733D01*
Y1738D01*
X7382D01*
Y1165D01*
X7407D01*
Y915D01*
X7227D01*
Y1165D01*
X7251D01*
Y1738D01*
X7054D01*
X7037Y1740D01*
X7029Y1743D01*
X7021Y1747D01*
X7007Y1757D01*
X6900Y1865D01*
X6832D01*
Y1860D01*
X6602D01*
Y1988D01*
Y2127D01*
X6832D01*
Y2123D01*
X6934D01*
X6951Y2121D01*
X6966Y2114D01*
X6980Y2104D01*
X6990Y2090D01*
X6997Y2074D01*
X6999Y2058D01*
Y1951D01*
X7081Y1869D01*
X7463D01*
X7472Y1892D01*
X7170Y2194D01*
X7160Y2208D01*
X7157Y2216D01*
X7153Y2224D01*
X7151Y2241D01*
Y2681D01*
X7130Y2694D01*
X7119Y2690D01*
X7092Y2686D01*
X7065Y2690D01*
X7040Y2700D01*
X7040Y2700D01*
Y2700D01*
X7027Y2685D01*
Y2685D01*
X6907D01*
Y2616D01*
X6905Y2599D01*
X6902Y2591D01*
X6898Y2583D01*
X6888Y2569D01*
X6838Y2519D01*
X6832Y2514D01*
Y2495D01*
Y2368D01*
Y2242D01*
X6602D01*
Y2246D01*
X6521D01*
X6504Y2248D01*
X6496Y2251D01*
X6488Y2255D01*
X6474Y2265D01*
X6345Y2394D01*
X6335Y2408D01*
X6332Y2416D01*
X6328Y2424D01*
X6326Y2441D01*
Y3113D01*
X6229Y3210D01*
X6142D01*
Y3421D01*
X6261D01*
X6271Y3444D01*
X5936Y3778D01*
X5913Y3769D01*
X5906Y3529D01*
X5909Y3529D01*
X5913Y3527D01*
X5924Y3522D01*
X5938Y3512D01*
X6029Y3421D01*
X6102D01*
Y3210D01*
X5952D01*
Y3313D01*
X5865Y3400D01*
X5369D01*
X5292Y3323D01*
Y3166D01*
X5142D01*
Y3365D01*
X5142D01*
Y3372D01*
X5134Y3375D01*
X4111D01*
X4100Y3352D01*
X4107Y3343D01*
X4118Y3318D01*
X4121Y3290D01*
X4118Y3263D01*
X4107Y3238D01*
X4091Y3217D01*
X4069Y3200D01*
X4044Y3190D01*
X4017Y3186D01*
X3990Y3190D01*
X3965Y3200D01*
X3943Y3217D01*
X3937Y3225D01*
X3517D01*
X3500Y3227D01*
X3493Y3230D01*
X3484Y3234D01*
X3470Y3244D01*
X2956Y3759D01*
X2932Y3749D01*
Y3056D01*
X3937D01*
X3943Y3064D01*
X3965Y3081D01*
X3990Y3091D01*
X4017Y3095D01*
X4044Y3091D01*
X4069Y3081D01*
X4091Y3064D01*
X4107Y3043D01*
X4118Y3018D01*
X4121Y2991D01*
X4118Y2963D01*
X4107Y2938D01*
X4091Y2917D01*
X4069Y2900D01*
X4044Y2890D01*
X4017Y2886D01*
X3990Y2890D01*
X3965Y2900D01*
X3943Y2917D01*
X3937Y2925D01*
X2932D01*
Y1568D01*
X2932Y1564D01*
X2932Y1560D01*
X2931Y1558D01*
X2931Y1558D01*
Y1558D01*
X2930Y1554D01*
X2929Y1552D01*
X2928Y1550D01*
X2928Y1549D01*
X2925Y1543D01*
X2925Y1543D01*
X2925Y1543D01*
X2920Y1538D01*
X2914Y1532D01*
X2914Y1532D01*
X2914Y1532D01*
X2908Y1530D01*
X2907Y1529D01*
X2905Y1528D01*
X2903Y1527D01*
X2899Y1526D01*
X2899D01*
X2899Y1526D01*
X2898Y1526D01*
X2894Y1526D01*
X2890Y1525D01*
X1394D01*
X1390Y1526D01*
X1386Y1526D01*
X1384Y1526D01*
X1384Y1526D01*
X1384D01*
X1380Y1527D01*
X1378Y1528D01*
X1376Y1529D01*
X1375Y1530D01*
X1369Y1532D01*
X1369Y1532D01*
X1369Y1532D01*
X1364Y1538D01*
X1358Y1543D01*
X1358Y1543D01*
X1358Y1543D01*
X1356Y1549D01*
X1355Y1550D01*
X1354Y1552D01*
X1354Y1554D01*
X1352Y1558D01*
Y1558D01*
X1352Y1558D01*
X1352Y1560D01*
X1352Y1564D01*
X1351Y1568D01*
Y2900D01*
X894D01*
X890Y2900D01*
X886Y2900D01*
X884Y2901D01*
X884Y2901D01*
X884D01*
X880Y2902D01*
X878Y2903D01*
X876Y2904D01*
X875Y2905D01*
X869Y2907D01*
X869Y2907D01*
X869Y2907D01*
X864Y2913D01*
X858Y2918D01*
X858Y2918D01*
X858Y2918D01*
X856Y2924D01*
X855Y2925D01*
X854Y2927D01*
X854Y2929D01*
X852Y2933D01*
Y2933D01*
X852Y2933D01*
X852Y2935D01*
X852Y2939D01*
X851Y2943D01*
Y3838D01*
X852Y3842D01*
X852Y3846D01*
X852Y3848D01*
X852Y3848D01*
Y3848D01*
X854Y3852D01*
X854Y3854D01*
X855Y3856D01*
X856Y3857D01*
X858Y3863D01*
X858Y3863D01*
X858Y3863D01*
X864Y3868D01*
X869Y3874D01*
X869Y3874D01*
X869Y3874D01*
X875Y3876D01*
X876Y3877D01*
X878Y3878D01*
X878Y3903D01*
X876Y3904D01*
X875Y3905D01*
X869Y3907D01*
X869Y3907D01*
X869Y3907D01*
X864Y3913D01*
X858Y3918D01*
X858Y3918D01*
X858Y3918D01*
X856Y3924D01*
X855Y3925D01*
X854Y3927D01*
X854Y3929D01*
X852Y3933D01*
Y3933D01*
X852Y3933D01*
X852Y3935D01*
X852Y3939D01*
X851Y3943D01*
Y4813D01*
X852Y4817D01*
X852Y4821D01*
X852Y4823D01*
X852Y4823D01*
Y4823D01*
X854Y4827D01*
X854Y4829D01*
X855Y4831D01*
X856Y4832D01*
X858Y4838D01*
X858Y4838D01*
X858Y4838D01*
X864Y4843D01*
X869Y4849D01*
X869Y4849D01*
X869Y4849D01*
X875Y4851D01*
X876Y4852D01*
X878Y4853D01*
X880Y4854D01*
X884Y4855D01*
X884D01*
X884Y4855D01*
X886Y4856D01*
X890Y4856D01*
X894Y4856D01*
X1351D01*
Y5188D01*
X1352Y5192D01*
X1352Y5196D01*
X1352Y5198D01*
X1352Y5198D01*
Y5198D01*
X1354Y5202D01*
X1354Y5204D01*
X1354Y5205D01*
X1355Y5206D01*
X1356Y5208D01*
X1358Y5213D01*
X1358Y5213D01*
X1358Y5213D01*
X1358Y5213D01*
X1358Y5218D01*
X1358Y5218D01*
X1358D01*
X1358Y5218D01*
X1358Y5218D01*
X1358D01*
X1358Y5218D01*
X1358Y5218D01*
D01*
X1357Y5222D01*
X1354Y5225D01*
X1354Y5227D01*
X1354Y5227D01*
X1354Y5229D01*
X1352Y5233D01*
Y5233D01*
X1352Y5233D01*
X1352Y5235D01*
X1352Y5239D01*
X1351Y5243D01*
Y5324D01*
X1328Y5334D01*
X1261Y5267D01*
X1254Y5262D01*
X1247Y5257D01*
X1232Y5250D01*
X1222Y5249D01*
Y5238D01*
Y5112D01*
X1022D01*
Y5121D01*
X902D01*
Y5085D01*
X732D01*
Y5296D01*
X902D01*
Y5252D01*
X1022D01*
Y5262D01*
Y5365D01*
Y5375D01*
X892D01*
Y5335D01*
X722D01*
Y5546D01*
X892D01*
Y5506D01*
X926D01*
Y6590D01*
X928Y6607D01*
X930Y6612D01*
X935Y6623D01*
X945Y6637D01*
X1445Y7137D01*
X1459Y7147D01*
X1468Y7151D01*
X1475Y7154D01*
X1492Y7156D01*
D02*
G37*
%LPD*%
G36*
X5557Y1866D02*
X5667D01*
Y1806D01*
X5952D01*
Y1845D01*
X6102D01*
Y1635D01*
X5952D01*
Y1675D01*
X5667D01*
Y1666D01*
X5557D01*
Y1481D01*
X6265D01*
X6269Y1481D01*
X6273Y1481D01*
X6274Y1480D01*
X6274Y1480D01*
X6274D01*
X6278Y1479D01*
X6280Y1478D01*
X6282Y1477D01*
X6283Y1476D01*
X6289Y1474D01*
X6289Y1474D01*
X6289Y1474D01*
X6295Y1468D01*
X6300Y1463D01*
X6300Y1463D01*
X6300Y1463D01*
X6303Y1457D01*
X6303Y1456D01*
X6304Y1454D01*
X6305Y1452D01*
X6306Y1448D01*
Y1448D01*
X6306Y1448D01*
X6307Y1446D01*
X6307Y1442D01*
X6307Y1438D01*
Y1068D01*
X6307Y1064D01*
X6307Y1060D01*
X6306Y1058D01*
X6306Y1058D01*
Y1058D01*
X6305Y1054D01*
X6304Y1052D01*
X6303Y1050D01*
X6303Y1049D01*
X6300Y1043D01*
X6300Y1043D01*
X6300Y1043D01*
X6295Y1038D01*
X6289Y1032D01*
X6289Y1032D01*
X6289Y1032D01*
X6283Y1030D01*
X6282Y1029D01*
X6280Y1028D01*
X6278Y1027D01*
X6274Y1026D01*
X6274D01*
X6274Y1026D01*
X6273Y1026D01*
X6269Y1026D01*
X6265Y1025D01*
X5557D01*
Y653D01*
X5629Y581D01*
X8329D01*
X8826Y1078D01*
Y1778D01*
X8653Y1951D01*
X8519D01*
X8462Y1894D01*
X8471Y1870D01*
X8552D01*
Y1660D01*
X8464D01*
X8448Y1644D01*
X8457Y1620D01*
X8552D01*
Y1410D01*
X8402D01*
Y1484D01*
X7782D01*
Y1480D01*
Y1352D01*
X7732D01*
Y1165D01*
X7737D01*
Y915D01*
X7712D01*
X7710Y904D01*
X7707Y897D01*
X7703Y888D01*
X7693Y874D01*
X7588Y769D01*
X7574Y759D01*
X7563Y754D01*
X7559Y752D01*
X7542Y750D01*
X7117D01*
X7100Y752D01*
X7093Y755D01*
X7084Y759D01*
X7070Y769D01*
X6970Y869D01*
X6960Y883D01*
X6957Y891D01*
X6953Y899D01*
X6952Y906D01*
X6912D01*
Y1075D01*
D01*
Y1075D01*
X6912Y1075D01*
Y1096D01*
X6912D01*
Y1265D01*
X6951D01*
Y1438D01*
X6915Y1475D01*
X6832D01*
Y1352D01*
X6602D01*
Y1357D01*
X6510D01*
X6493Y1359D01*
X6486Y1362D01*
X6477Y1366D01*
X6463Y1376D01*
X6270Y1569D01*
X6270Y1569D01*
X6204Y1635D01*
X6142D01*
Y1845D01*
X6186D01*
X6196Y1869D01*
X6165Y1900D01*
X5967D01*
X5950Y1902D01*
X5942Y1905D01*
X5934Y1909D01*
X5920Y1919D01*
X5815Y2025D01*
X5557D01*
Y1866D01*
D02*
G37*
G36*
X3144Y2566D02*
Y2566D01*
X3142Y2559D01*
Y2559D01*
D01*
X3142Y2559D01*
Y1647D01*
X3142Y1647D01*
X3142Y1643D01*
X3142Y1641D01*
X3143Y1639D01*
X3301Y1481D01*
X3313D01*
X3328Y1478D01*
X3342Y1469D01*
X3342Y1469D01*
X3350Y1461D01*
X5502D01*
X5508Y1469D01*
X5517Y1475D01*
Y1666D01*
Y1866D01*
Y2066D01*
X5892D01*
Y2092D01*
X5892Y2092D01*
X5892Y2092D01*
Y2513D01*
X5886Y2516D01*
X5886D01*
D01*
X5886Y2516D01*
X4642D01*
Y2562D01*
X4642Y2562D01*
D01*
X4636Y2566D01*
X4636Y2566D01*
X3144D01*
D01*
D02*
G37*
G36*
Y1440D02*
Y1440D01*
X3142Y1434D01*
Y1434D01*
D01*
X3142Y1434D01*
Y943D01*
X3148Y940D01*
X3148D01*
D01*
X3148Y940D01*
X4767D01*
Y900D01*
Y568D01*
X4773Y566D01*
X4773D01*
D01*
X4773Y566D01*
X5429D01*
X5429Y566D01*
X5429Y566D01*
X5517D01*
Y653D01*
X5517Y653D01*
X5517Y653D01*
Y1025D01*
Y1065D01*
X6265D01*
X6267Y1072D01*
Y1072D01*
D01*
X6267Y1072D01*
Y1438D01*
X6261Y1440D01*
X6261D01*
D01*
X6261Y1440D01*
X5538D01*
X5537Y1440D01*
X5536Y1438D01*
X5533Y1435D01*
X5531Y1432D01*
X5528Y1430D01*
X5525Y1427D01*
X5521Y1425D01*
X5518Y1423D01*
X5514Y1422D01*
X5510Y1421D01*
X5506D01*
X5502Y1420D01*
X3350D01*
X3342Y1422D01*
X3335Y1423D01*
X3335Y1423D01*
X3335D01*
X3321Y1432D01*
X3321Y1432D01*
X3316Y1438D01*
X3313Y1440D01*
X3309Y1440D01*
X3301D01*
X3301Y1440D01*
X3301Y1440D01*
X3144D01*
D01*
D02*
G37*
G36*
X894Y3840D02*
X892Y3834D01*
Y3834D01*
D01*
X892Y3834D01*
Y2943D01*
X898Y2941D01*
X898D01*
D01*
X898Y2941D01*
X1392D01*
Y2900D01*
Y1568D01*
X1398Y1565D01*
X1398D01*
D01*
X1398Y1565D01*
X2890D01*
X2892Y1572D01*
Y1572D01*
D01*
X2892Y1572D01*
Y2925D01*
Y3823D01*
X2874Y3840D01*
X894D01*
Y3840D01*
D02*
G37*
G36*
X1057Y6563D02*
Y5515D01*
X1178D01*
X1192Y5536D01*
X1191Y5538D01*
X1187Y5565D01*
X1191Y5593D01*
X1201Y5618D01*
X1218Y5639D01*
X1240Y5656D01*
X1265Y5666D01*
X1292Y5670D01*
X1319Y5666D01*
X1330Y5662D01*
X1351Y5675D01*
Y6713D01*
X1352Y6717D01*
X1352Y6721D01*
X1352Y6723D01*
X1352Y6723D01*
Y6723D01*
X1354Y6727D01*
X1354Y6729D01*
X1355Y6731D01*
X1356Y6732D01*
X1358Y6738D01*
X1358Y6738D01*
X1358Y6738D01*
X1364Y6743D01*
X1369Y6749D01*
X1369Y6749D01*
X1369Y6749D01*
X1375Y6751D01*
X1376Y6752D01*
X1378Y6753D01*
X1380Y6754D01*
X1384Y6755D01*
X1384D01*
X1384Y6755D01*
X1386Y6756D01*
X1390Y6756D01*
X1394Y6756D01*
X2890D01*
X2894Y6756D01*
X2898Y6756D01*
X2899Y6755D01*
X2899Y6755D01*
X2899D01*
X2903Y6754D01*
X2905Y6753D01*
X2907Y6752D01*
X2908Y6751D01*
X2914Y6749D01*
X2914Y6749D01*
X2914Y6749D01*
X2920Y6743D01*
X2925Y6738D01*
X2925Y6738D01*
X2925Y6738D01*
X2928Y6732D01*
X2928Y6731D01*
X2929Y6729D01*
X2930Y6727D01*
X2931Y6723D01*
Y6723D01*
X2931Y6723D01*
X2932Y6721D01*
X2932Y6717D01*
X2932Y6713D01*
Y5243D01*
X2932Y5239D01*
X2932Y5235D01*
X2931Y5233D01*
X2931Y5233D01*
Y5233D01*
X2930Y5229D01*
X2929Y5227D01*
X2929Y5226D01*
X2929Y5225D01*
X2927Y5223D01*
X2925Y5218D01*
X2925Y5218D01*
X2925Y5218D01*
X2925Y5218D01*
X2925Y5213D01*
X2925Y5213D01*
D01*
X2925Y5213D01*
X2925Y5213D01*
X2925D01*
X2925Y5213D01*
X2925Y5213D01*
D01*
X2927Y5209D01*
X2929Y5206D01*
X2929Y5204D01*
X2929Y5204D01*
X2930Y5202D01*
X2931Y5198D01*
Y5198D01*
X2931Y5198D01*
X2932Y5196D01*
X2932Y5192D01*
X2932Y5188D01*
Y3967D01*
X2953Y3947D01*
X2976Y3957D01*
Y4388D01*
X2977Y4392D01*
X2977Y4396D01*
X2977Y4398D01*
X2977Y4398D01*
Y4398D01*
X2979Y4402D01*
X2979Y4404D01*
X2980Y4406D01*
X2981Y4407D01*
X2983Y4413D01*
X2983Y4413D01*
X2983Y4413D01*
X2989Y4418D01*
X2994Y4424D01*
X2994Y4424D01*
X2994Y4424D01*
X3000Y4426D01*
X3001Y4427D01*
X3003Y4428D01*
X3005Y4429D01*
X3009Y4430D01*
X3009D01*
X3009Y4430D01*
X3011Y4431D01*
Y4431D01*
X3011Y4431D01*
X3016Y4431D01*
X3019Y4431D01*
X3026D01*
X3026D01*
Y5840D01*
X3030Y5911D01*
X3044Y5981D01*
X3067Y6048D01*
X3098Y6111D01*
X3137Y6170D01*
X3184Y6223D01*
X3237Y6270D01*
X3296Y6309D01*
X3360Y6340D01*
X3427Y6363D01*
X3496Y6377D01*
X3567Y6382D01*
X3637Y6377D01*
X3707Y6363D01*
X3774Y6340D01*
X3837Y6309D01*
X3896Y6270D01*
X3949Y6223D01*
X3996Y6170D01*
X4035Y6111D01*
X4067Y6048D01*
X4089Y5981D01*
X4103Y5911D01*
X4108Y5840D01*
Y4431D01*
X5153D01*
X5153Y4432D01*
X5156Y4439D01*
X5160Y4448D01*
X5170Y4462D01*
X5210Y4502D01*
X5201Y4525D01*
X4194D01*
X4190Y4526D01*
X4186Y4526D01*
X4184Y4526D01*
X4184Y4526D01*
X4184D01*
X4180Y4527D01*
X4178Y4528D01*
X4176Y4529D01*
X4175Y4530D01*
X4169Y4532D01*
X4169Y4532D01*
X4169Y4532D01*
X4164Y4538D01*
X4158Y4543D01*
X4158Y4543D01*
X4158Y4543D01*
X4156Y4549D01*
X4155Y4550D01*
X4154Y4552D01*
X4154Y4554D01*
X4152Y4558D01*
Y4558D01*
X4152Y4558D01*
X4152Y4560D01*
X4152Y4564D01*
X4151Y4568D01*
Y5090D01*
X4152Y5094D01*
X4152Y5098D01*
X4152Y5100D01*
X4152Y5100D01*
Y5100D01*
X4154Y5104D01*
X4154Y5106D01*
X4155Y5108D01*
X4156Y5109D01*
X4158Y5115D01*
X4158Y5115D01*
X4158Y5115D01*
X4164Y5120D01*
X4169Y5126D01*
X4169Y5126D01*
X4169Y5126D01*
X4175Y5128D01*
X4176Y5129D01*
X4178Y5130D01*
X4180Y5130D01*
X4184Y5132D01*
X4184D01*
X4184Y5132D01*
X4186Y5132D01*
X4190Y5132D01*
X4194Y5133D01*
X5118D01*
Y6038D01*
X5119Y6047D01*
X5121Y6054D01*
X5121Y6054D01*
X5121Y6054D01*
X5127Y6063D01*
X5130Y6067D01*
X5130Y6067D01*
X5130Y6067D01*
X5130Y6067D01*
X5130Y6067D01*
X5132Y6069D01*
X5132Y6069D01*
X5132Y6069D01*
X5138Y6074D01*
X5145Y6078D01*
X5145Y6078D01*
X5145Y6078D01*
X5152Y6080D01*
X5160Y6081D01*
X5160Y6081D01*
X5160Y6081D01*
X5640D01*
X5644Y6081D01*
X5648Y6081D01*
X5649Y6080D01*
X5649Y6080D01*
X5649D01*
X5653Y6079D01*
X5655Y6078D01*
X5657Y6077D01*
X5658Y6076D01*
X5664Y6074D01*
X5664Y6074D01*
X5664Y6074D01*
X5670Y6068D01*
X5675Y6063D01*
X5675Y6063D01*
X5675Y6063D01*
X5678Y6057D01*
X5678Y6056D01*
X5679Y6054D01*
X5680Y6052D01*
X5681Y6048D01*
Y6048D01*
X5681Y6048D01*
X5682Y6046D01*
X5682Y6042D01*
X5682Y6038D01*
Y4868D01*
X5682Y4866D01*
X5682Y4866D01*
X5682Y4864D01*
X5682Y4860D01*
X5681Y4858D01*
X5680Y4854D01*
X5679Y4852D01*
X5679Y4852D01*
X5679Y4850D01*
X5677Y4847D01*
X5675Y4843D01*
X5673Y4841D01*
Y4730D01*
X5675Y4728D01*
X5677Y4724D01*
X5679Y4721D01*
X5679Y4719D01*
X5679Y4719D01*
X5680Y4717D01*
X5681Y4713D01*
X5682Y4711D01*
X5682Y4707D01*
X5682Y4705D01*
X5682Y4705D01*
X5682Y4703D01*
Y4568D01*
X5740Y4556D01*
X5867D01*
X5884Y4554D01*
X5894Y4550D01*
X5899Y4547D01*
X5913Y4537D01*
X6029Y4421D01*
X6077D01*
Y4210D01*
X5927D01*
X5920Y3980D01*
X6563Y3337D01*
X6573Y3323D01*
X6576Y3317D01*
X6580Y3307D01*
X6582Y3290D01*
Y2856D01*
X6667D01*
Y2895D01*
X6776D01*
Y3163D01*
X6145Y3794D01*
X6135Y3808D01*
X6133Y3814D01*
X6128Y3824D01*
X6126Y3840D01*
Y4210D01*
X6117D01*
Y4421D01*
X6267D01*
Y4210D01*
X6257D01*
Y3868D01*
X6888Y3237D01*
X6898Y3223D01*
X6901Y3217D01*
X6905Y3207D01*
X6907Y3191D01*
Y3175D01*
X7072D01*
Y3161D01*
X7670D01*
X7826Y3318D01*
Y3610D01*
X7818Y3617D01*
X7801Y3638D01*
X7791Y3663D01*
X7788Y3684D01*
X7759D01*
Y3680D01*
Y3615D01*
X7692D01*
X7684Y3612D01*
X7667Y3610D01*
X7615D01*
X7580Y3575D01*
X7580Y3574D01*
X7575Y3562D01*
X7573Y3558D01*
X7571Y3555D01*
X7563Y3544D01*
X7563Y3544D01*
X7472Y3453D01*
Y3371D01*
X7477D01*
Y3210D01*
X7337D01*
Y3371D01*
X7341D01*
Y3481D01*
X7343Y3497D01*
X7350Y3513D01*
X7360Y3527D01*
X7470Y3637D01*
X7484Y3647D01*
X7492Y3651D01*
X7493Y3651D01*
X7503Y3674D01*
X7499Y3684D01*
X7317D01*
X7282Y3670D01*
D01*
X7280Y3657D01*
D01*
X7282Y3640D01*
Y3371D01*
X7287D01*
Y3210D01*
X7147D01*
Y3371D01*
X7151D01*
Y3613D01*
X7149Y3615D01*
X6989D01*
Y3663D01*
X6966Y3672D01*
X6942Y3648D01*
Y3485D01*
X6772D01*
Y3696D01*
X6805D01*
X6810Y3702D01*
X6846Y3737D01*
X6836Y3760D01*
X6792D01*
Y3971D01*
X6814D01*
X6820Y3984D01*
X6823Y3994D01*
X6810Y4004D01*
X6805Y4010D01*
X6772D01*
Y4221D01*
X6942D01*
Y4221D01*
X6944D01*
X6962Y4238D01*
Y4360D01*
X7172D01*
Y4190D01*
X7147D01*
Y4126D01*
X7174D01*
Y4013D01*
X7174Y4013D01*
X7174Y4013D01*
X7174Y4006D01*
Y4001D01*
Y3996D01*
X7174Y3988D01*
X7174Y3988D01*
X7174D01*
Y3876D01*
Y3862D01*
X7236D01*
Y4210D01*
X7227D01*
Y4421D01*
X7236D01*
Y4526D01*
X7238Y4542D01*
X7242Y4550D01*
X7245Y4558D01*
X7255Y4572D01*
X7345Y4662D01*
X7359Y4672D01*
X7368Y4676D01*
X7375Y4679D01*
X7392Y4681D01*
X7487D01*
Y4706D01*
X7536D01*
Y4785D01*
X7532D01*
Y4800D01*
X7517D01*
X7500Y4802D01*
X7492Y4805D01*
X7484Y4809D01*
X7470Y4819D01*
X5265Y7025D01*
X1519D01*
X1057Y6563D01*
D02*
G37*
G36*
X1394Y6715D02*
Y6715D01*
X1392Y6709D01*
Y6709D01*
D01*
X1392Y6709D01*
Y5675D01*
Y5607D01*
X1398Y5598D01*
X1405Y5582D01*
X1407Y5565D01*
X1405Y5549D01*
X1398Y5533D01*
X1392Y5524D01*
Y5324D01*
Y5243D01*
X1392Y5241D01*
D01*
X1392Y5241D01*
X1392Y5241D01*
X1392Y5240D01*
X1542D01*
Y5262D01*
X1742D01*
Y5240D01*
X2891D01*
X2891Y5241D01*
X2892Y5243D01*
Y6713D01*
X2886Y6715D01*
X2886D01*
D01*
X2886Y6715D01*
X1394D01*
D01*
D02*
G37*
G36*
X5158Y6038D02*
X5158Y6038D01*
D01*
Y5113D01*
Y5092D01*
X4194D01*
X4192Y5092D01*
X4192Y5090D01*
Y4568D01*
X4192Y4566D01*
X4194Y4565D01*
X5641D01*
X5642Y4568D01*
Y4703D01*
X5641Y4705D01*
X5640Y4707D01*
X5638Y4708D01*
X5637Y4709D01*
X5636Y4711D01*
X5635Y4713D01*
X5634Y4714D01*
X5633Y4716D01*
X5633Y4718D01*
Y4720D01*
X5632Y4722D01*
Y4849D01*
X5633Y4851D01*
Y4853D01*
X5633Y4855D01*
X5634Y4857D01*
X5635Y4858D01*
X5636Y4860D01*
X5637Y4862D01*
X5638Y4863D01*
X5640Y4864D01*
X5641Y4866D01*
X5642Y4868D01*
Y6038D01*
X5641Y6040D01*
X5640Y6040D01*
X5160D01*
X5158Y6038D01*
D02*
G37*
G36*
X1392Y5190D02*
X1392Y5188D01*
Y4836D01*
Y4815D01*
X894D01*
X892Y4815D01*
X892Y4813D01*
Y3943D01*
X892Y3941D01*
X894Y3940D01*
X2822D01*
X2822Y3940D01*
X2822Y3940D01*
X2892D01*
Y5188D01*
X2891Y5190D01*
X2891Y5190D01*
X1392D01*
X1392Y5190D01*
D02*
G37*
G36*
X3020Y4390D02*
X3017Y4384D01*
X3017Y4384D01*
Y3957D01*
X3017Y3957D01*
X3017Y3957D01*
Y3883D01*
X3484Y3415D01*
X5199D01*
X5295Y3512D01*
X5309Y3522D01*
X5317Y3526D01*
X5325Y3529D01*
X5342Y3531D01*
X5865D01*
X5867Y3599D01*
X5879Y3981D01*
D01*
X5880Y4001D01*
X5891Y4373D01*
X5874Y4390D01*
X5305D01*
X5290Y4371D01*
X5292Y4365D01*
X5292D01*
X5292Y4365D01*
Y4165D01*
X5142D01*
Y4365D01*
X5151D01*
Y4390D01*
X3020D01*
Y4390D01*
D02*
G37*
G36*
X323Y8747D02*
X10211D01*
Y16134D01*
X323D01*
Y8747D01*
D02*
G37*
%LPC*%
G36*
X7962Y13476D02*
X8172D01*
Y13305D01*
X8067D01*
X8063Y13304D01*
X8059Y13302D01*
X8042Y13300D01*
X7862D01*
Y13285D01*
X7722D01*
Y13446D01*
X7862D01*
Y13431D01*
X7962D01*
Y13476D01*
D02*
G37*
G36*
X5952Y11396D02*
X6102D01*
Y11186D01*
X5952D01*
Y11225D01*
X5667D01*
Y11165D01*
X5517D01*
Y11365D01*
X5667D01*
Y11356D01*
X5952D01*
Y11396D01*
D02*
G37*
G36*
X1492Y15656D02*
X5292D01*
X5309Y15654D01*
X5324Y15647D01*
X5338Y15637D01*
X7530Y13445D01*
X7532Y13446D01*
Y13446D01*
X7532Y13446D01*
X7672D01*
Y13285D01*
X7667D01*
Y13205D01*
X7687D01*
Y13026D01*
X7487D01*
Y13050D01*
X7419D01*
X7367Y12998D01*
Y12921D01*
X7377D01*
Y12711D01*
X7367D01*
Y12305D01*
Y12297D01*
X7574D01*
Y12300D01*
X7759D01*
Y12297D01*
X7808D01*
X7809Y12297D01*
X7825Y12304D01*
X7840Y12306D01*
X7843Y12312D01*
X7845Y12333D01*
X7782Y12396D01*
X7759Y12386D01*
Y12375D01*
X7574D01*
Y12379D01*
X7522D01*
X7500Y12384D01*
X7482Y12396D01*
X7482Y12396D01*
X7482Y12396D01*
X7452Y12426D01*
X7440Y12444D01*
X7436Y12465D01*
X7436Y12465D01*
X7436Y12465D01*
Y12465D01*
Y12482D01*
X7435Y12483D01*
X7428Y12499D01*
X7426Y12515D01*
Y12711D01*
X7417D01*
Y12921D01*
X7567D01*
Y12711D01*
X7557D01*
Y12625D01*
X7574D01*
Y12625D01*
X7759D01*
Y12625D01*
X7772Y12625D01*
X7952Y12805D01*
Y12996D01*
X8102D01*
Y12786D01*
X8080D01*
X8079Y12779D01*
X8066Y12761D01*
X8066Y12761D01*
X8066D01*
Y12761D01*
X8066Y12761D01*
X7831Y12526D01*
X7831Y12526D01*
X7831D01*
X7829Y12507D01*
X7919Y12418D01*
X7943Y12423D01*
X7951Y12443D01*
X7968Y12464D01*
X7990Y12481D01*
X8015Y12491D01*
X8042Y12495D01*
X8069Y12491D01*
X8094Y12481D01*
X8101Y12475D01*
X8297D01*
Y12471D01*
X8317D01*
Y12471D01*
X8326Y12471D01*
Y12565D01*
X8328Y12582D01*
X8335Y12598D01*
X8345Y12612D01*
X8420Y12687D01*
X8434Y12697D01*
X8442Y12701D01*
X8450Y12704D01*
X8467Y12706D01*
X8593D01*
X8610Y12729D01*
D01*
X8610Y12729D01*
X8610Y12729D01*
X8599Y12740D01*
X8589Y12754D01*
X8584Y12765D01*
X8582Y12770D01*
X8580Y12786D01*
Y12790D01*
X8317D01*
Y12825D01*
X8292D01*
Y12786D01*
X8142D01*
Y12996D01*
X8292D01*
Y12956D01*
X8317D01*
Y12990D01*
X8326D01*
Y13090D01*
X8328Y13107D01*
X8335Y13123D01*
X8345Y13137D01*
X8359Y13147D01*
X8375Y13154D01*
X8392Y13156D01*
X8517D01*
X8534Y13154D01*
X8549Y13147D01*
X8563Y13137D01*
X8573Y13123D01*
X8580Y13107D01*
X8582Y13090D01*
Y12990D01*
X8721D01*
Y12841D01*
X9017D01*
Y12971D01*
X9167D01*
Y12831D01*
X9178Y12822D01*
X9238Y12762D01*
X9248Y12748D01*
X9250Y12746D01*
X9357D01*
Y12536D01*
X9257D01*
Y12506D01*
X9266Y12496D01*
X9342D01*
Y12456D01*
X9417D01*
X9434Y12454D01*
X9449Y12447D01*
X9456Y12442D01*
X9463Y12437D01*
X9700Y12200D01*
X9709Y12207D01*
X9737Y12219D01*
X9755Y12221D01*
Y12246D01*
X9737Y12248D01*
X9709Y12260D01*
X9685Y12278D01*
X9666Y12303D01*
X9655Y12330D01*
X9651Y12361D01*
X9655Y12391D01*
X9666Y12418D01*
X9685Y12443D01*
X9709Y12461D01*
X9737Y12473D01*
X9767Y12476D01*
X9797Y12473D01*
X9825Y12461D01*
X9849Y12443D01*
X9860Y12428D01*
X9885Y12426D01*
X9976Y12518D01*
Y13188D01*
X9794Y13371D01*
X9677D01*
Y13405D01*
X9432D01*
Y13251D01*
X9222D01*
Y13405D01*
X8822D01*
Y13365D01*
X8612D01*
Y13576D01*
D01*
Y13575D01*
X8612Y13576D01*
Y13596D01*
X8612D01*
Y13805D01*
X8651D01*
Y14025D01*
X8493D01*
X8477Y14005D01*
X8452Y13986D01*
X8432Y13977D01*
Y13790D01*
X8472D01*
Y13621D01*
X8262D01*
Y13790D01*
X8301D01*
Y14011D01*
X8291Y14025D01*
X7794D01*
X7763Y13994D01*
X7772Y13971D01*
X7882D01*
Y13760D01*
X7872D01*
Y13630D01*
X7870Y13614D01*
X7867Y13607D01*
X7863Y13598D01*
X7862Y13595D01*
Y13535D01*
X7722D01*
Y13696D01*
X7741D01*
Y13760D01*
X7732D01*
Y13930D01*
X7709Y13940D01*
X7692Y13923D01*
Y13760D01*
X7682D01*
Y13630D01*
X7680Y13614D01*
X7677Y13607D01*
X7673Y13598D01*
X7672Y13595D01*
Y13535D01*
X7532D01*
Y13696D01*
X7551D01*
Y13760D01*
X7542D01*
Y13971D01*
X7559D01*
X7560Y13973D01*
X7570Y13987D01*
X7720Y14137D01*
X7734Y14147D01*
X7742Y14151D01*
X7750Y14154D01*
X7767Y14156D01*
X8291D01*
X8306Y14176D01*
X8331Y14195D01*
X8360Y14207D01*
X8392Y14212D01*
X8423Y14207D01*
X8452Y14195D01*
X8477Y14176D01*
X8493Y14156D01*
X9186D01*
X9336Y14307D01*
X9327Y14337D01*
X9324Y14370D01*
X9327Y14402D01*
X9337Y14434D01*
X9352Y14463D01*
X9373Y14488D01*
X9398Y14509D01*
X9427Y14525D01*
X9459Y14534D01*
X9492Y14537D01*
X9524Y14534D01*
X9556Y14525D01*
X9585Y14509D01*
X9610Y14488D01*
X9631Y14463D01*
X9647Y14434D01*
X9656Y14402D01*
X9660Y14370D01*
X9656Y14337D01*
X9647Y14305D01*
X9631Y14276D01*
X9610Y14251D01*
X9585Y14230D01*
X9556Y14214D01*
X9524Y14205D01*
X9492Y14202D01*
X9459Y14205D01*
X9429Y14214D01*
X9259Y14044D01*
X9245Y14034D01*
X9240Y14031D01*
X9230Y14027D01*
X9213Y14025D01*
X8782D01*
Y13805D01*
X8822D01*
Y13596D01*
X8822Y13596D01*
X8822Y13575D01*
X8822D01*
Y13536D01*
X9222D01*
Y13690D01*
X9432D01*
Y13536D01*
X9677D01*
Y13571D01*
X9857D01*
Y13493D01*
X10088Y13262D01*
X10098Y13248D01*
X10103Y13237D01*
X10105Y13232D01*
X10107Y13215D01*
Y12490D01*
X10105Y12474D01*
X10102Y12467D01*
X10098Y12458D01*
X10088Y12444D01*
X9958Y12314D01*
X9944Y12304D01*
X9935Y12300D01*
X9929Y12297D01*
X9912Y12295D01*
X9861D01*
X9849Y12278D01*
X9825Y12260D01*
X9797Y12248D01*
X9778Y12246D01*
Y12221D01*
X9797Y12219D01*
X9825Y12207D01*
X9849Y12189D01*
X9867Y12164D01*
X9879Y12137D01*
X9883Y12107D01*
X9879Y12076D01*
X9867Y12049D01*
X9849Y12024D01*
X9825Y12006D01*
X9797Y11994D01*
X9778Y11992D01*
Y11967D01*
X9797Y11965D01*
X9825Y11953D01*
X9849Y11935D01*
X9867Y11910D01*
X9879Y11883D01*
X9883Y11853D01*
X9881Y11843D01*
X10038Y11687D01*
X10048Y11673D01*
X10053Y11662D01*
X10055Y11657D01*
X10057Y11640D01*
Y10890D01*
X10055Y10874D01*
X10052Y10867D01*
X10048Y10858D01*
X10038Y10844D01*
X9813Y10619D01*
X9799Y10609D01*
X9790Y10605D01*
X9784Y10602D01*
X9767Y10600D01*
X9347D01*
Y10590D01*
X9137D01*
Y10740D01*
X9347D01*
Y10731D01*
X9740D01*
X9926Y10918D01*
Y11613D01*
X9902Y11638D01*
X9898Y11637D01*
X9879Y11627D01*
X9883Y11599D01*
X9879Y11568D01*
X9867Y11541D01*
X9849Y11516D01*
X9825Y11498D01*
X9797Y11486D01*
X9778Y11484D01*
Y11459D01*
X9797Y11457D01*
X9825Y11445D01*
X9849Y11427D01*
X9867Y11402D01*
X9879Y11375D01*
X9883Y11344D01*
X9879Y11314D01*
X9867Y11287D01*
X9849Y11262D01*
X9825Y11244D01*
X9797Y11232D01*
X9781Y11230D01*
X9783Y11206D01*
X9882D01*
Y10975D01*
X9652D01*
Y11025D01*
X9342D01*
Y10986D01*
X9192D01*
Y11196D01*
X9201D01*
Y11261D01*
X9182D01*
Y11471D01*
X9286D01*
X9296Y11494D01*
X9279Y11511D01*
X9192D01*
Y11721D01*
X9201D01*
Y11761D01*
X9182D01*
Y11971D01*
X9269D01*
X9279Y11994D01*
X9237Y12036D01*
X9192D01*
Y12246D01*
X9342D01*
Y12116D01*
X9630Y11828D01*
X9652Y11839D01*
X9651Y11853D01*
X9655Y11883D01*
X9666Y11910D01*
X9685Y11935D01*
X9709Y11953D01*
X9737Y11965D01*
X9755Y11967D01*
Y11992D01*
X9737Y11994D01*
X9709Y12006D01*
X9685Y12024D01*
X9666Y12049D01*
X9665Y12052D01*
X9654Y12060D01*
X9390Y12325D01*
X9342D01*
Y12286D01*
X9192D01*
Y12380D01*
X9169Y12390D01*
X9152Y12373D01*
Y12286D01*
X9002D01*
Y12496D01*
X9089D01*
X9106Y12512D01*
X9096Y12536D01*
X9017D01*
Y12575D01*
X8707D01*
X8696Y12553D01*
X8702Y12544D01*
X8709Y12528D01*
X8711Y12511D01*
Y12471D01*
X8848D01*
Y12271D01*
X8847D01*
Y12221D01*
X8857D01*
Y12206D01*
X9002D01*
Y12246D01*
X9152D01*
Y12036D01*
X9002D01*
Y12075D01*
X8857D01*
Y12011D01*
X8847D01*
Y11971D01*
X8867D01*
Y11761D01*
X8717D01*
Y11871D01*
X8716Y11875D01*
Y12011D01*
X8707D01*
Y12221D01*
X8716D01*
Y12271D01*
X8584D01*
Y12268D01*
X8582Y12251D01*
X8579Y12243D01*
X8578Y12241D01*
X8590Y12224D01*
X8594Y12221D01*
X8667D01*
Y12011D01*
X8629D01*
X8563Y11944D01*
X8549Y11934D01*
D01*
D01*
Y11934D01*
X8549Y11934D01*
D01*
D01*
X8549D01*
Y11934D01*
D01*
X8549D01*
Y11934D01*
X8534Y11927D01*
X8517Y11925D01*
X8342D01*
X8325Y11927D01*
X8317Y11930D01*
X8309Y11934D01*
X8295Y11944D01*
X8272Y11967D01*
X8269Y11969D01*
X8255Y11979D01*
X8245Y11993D01*
X8238Y12009D01*
X8236Y12025D01*
Y12036D01*
X8127D01*
Y12084D01*
X8117D01*
X8095Y12089D01*
X8077Y12101D01*
X8015Y12163D01*
X7990Y12158D01*
X7982Y12138D01*
X7966Y12117D01*
X7957Y12110D01*
Y11790D01*
X7955Y11774D01*
X7952Y11766D01*
X7948Y11758D01*
X7938Y11744D01*
X7743Y11549D01*
X7729Y11539D01*
D01*
D01*
Y11539D01*
X7729Y11539D01*
D01*
D01*
X7729D01*
Y11539D01*
D01*
X7729D01*
Y11539D01*
X7714Y11532D01*
X7697Y11530D01*
X7477D01*
Y11411D01*
X7472D01*
Y10753D01*
X7597Y10628D01*
X7782D01*
Y10488D01*
Y10369D01*
X8252D01*
X8426Y10544D01*
X8428Y10557D01*
X8411Y10575D01*
X8212D01*
Y10680D01*
X8037D01*
X8020Y10682D01*
X8013Y10685D01*
X8004Y10689D01*
X7990Y10699D01*
X7944Y10746D01*
X7782D01*
Y10742D01*
X7552D01*
Y10868D01*
Y10996D01*
Y11136D01*
X7601D01*
Y11210D01*
X7593Y11217D01*
X7576Y11238D01*
X7566Y11263D01*
X7562Y11290D01*
X7566Y11318D01*
X7576Y11343D01*
X7593Y11364D01*
X7615Y11381D01*
X7640Y11391D01*
X7667Y11395D01*
X7694Y11391D01*
X7719Y11381D01*
X7741Y11364D01*
X7747Y11356D01*
X7897D01*
Y11390D01*
X8077D01*
Y11140D01*
X7897D01*
Y11225D01*
X7747D01*
X7741Y11217D01*
X7732Y11210D01*
Y11136D01*
X7782D01*
Y11008D01*
Y11004D01*
X8019D01*
X8036Y11002D01*
X8040Y11000D01*
X8051Y10995D01*
X8065Y10985D01*
X8144Y10906D01*
X8212D01*
Y10915D01*
X8251D01*
Y11140D01*
X8227D01*
Y11377D01*
X8217Y11386D01*
X8190Y11390D01*
X8165Y11400D01*
X8143Y11417D01*
X8126Y11438D01*
X8116Y11463D01*
X8112Y11490D01*
X8116Y11518D01*
X8126Y11543D01*
X8143Y11564D01*
X8165Y11581D01*
X8188Y11590D01*
Y11615D01*
X8165Y11625D01*
X8143Y11642D01*
X8126Y11663D01*
X8116Y11688D01*
X8112Y11715D01*
X8116Y11743D01*
X8126Y11768D01*
X8143Y11789D01*
X8165Y11806D01*
X8190Y11816D01*
X8217Y11820D01*
X8244Y11816D01*
X8269Y11806D01*
X8291Y11789D01*
X8307Y11768D01*
X8318Y11743D01*
X8321Y11715D01*
X8319Y11700D01*
X8336Y11681D01*
X9002D01*
Y11721D01*
X9152D01*
Y11511D01*
X9002D01*
Y11550D01*
X8883D01*
X8873Y11527D01*
X8963Y11437D01*
X8973Y11423D01*
X8977Y11414D01*
X8980Y11407D01*
X8982Y11390D01*
Y11278D01*
X9064Y11196D01*
X9152D01*
Y10986D01*
X9002D01*
Y11073D01*
X8870Y11204D01*
X8860Y11218D01*
X8856Y11227D01*
X8853Y11234D01*
X8851Y11250D01*
Y11363D01*
X8790Y11425D01*
X8305D01*
X8290Y11405D01*
X8295Y11390D01*
X8407D01*
Y11331D01*
X8467D01*
Y11371D01*
X8637D01*
Y11161D01*
X8467D01*
Y11200D01*
X8407D01*
Y11140D01*
X8382D01*
Y11106D01*
X8567D01*
X8584Y11104D01*
X8594Y11100D01*
X8599Y11097D01*
X8613Y11087D01*
X8688Y11012D01*
X8698Y10998D01*
X8702Y10990D01*
X8705Y10982D01*
X8707Y10965D01*
Y10934D01*
X8717Y10921D01*
X8728Y10914D01*
X8732Y10916D01*
X8740Y10919D01*
X8757Y10921D01*
X9137D01*
Y10931D01*
X9347D01*
Y10781D01*
X9137D01*
Y10790D01*
X9072D01*
Y10765D01*
X8862D01*
Y10790D01*
X8817D01*
Y10771D01*
X8707D01*
Y10630D01*
X8714Y10629D01*
X8736Y10620D01*
X8755Y10606D01*
X8981Y10380D01*
X8995Y10361D01*
X9004Y10339D01*
X9007Y10315D01*
Y9540D01*
X9007Y9540D01*
X9007D01*
X9004Y9517D01*
X8995Y9495D01*
X8981Y9476D01*
X8431Y8926D01*
X8431Y8926D01*
X8412Y8912D01*
X8390Y8903D01*
X8390Y8903D01*
X8390Y8903D01*
D01*
X8390Y8903D01*
X8390Y8903D01*
X8367Y8900D01*
X5592D01*
X5568Y8903D01*
X5546Y8912D01*
X5528Y8926D01*
X5528Y8926D01*
X5528Y8926D01*
X5429Y9025D01*
X4769D01*
X4765Y9025D01*
X4761Y9025D01*
X4759Y9026D01*
X4759Y9026D01*
X4759D01*
X4755Y9027D01*
X4753Y9028D01*
X4751Y9029D01*
X4750Y9030D01*
X4744Y9032D01*
X4744Y9032D01*
X4744Y9032D01*
X4739Y9038D01*
X4733Y9043D01*
X4733Y9043D01*
X4733Y9043D01*
X4731Y9049D01*
X4730Y9050D01*
X4729Y9052D01*
X4729Y9054D01*
X4727Y9058D01*
Y9058D01*
X4727Y9058D01*
X4727Y9060D01*
X4727Y9064D01*
X4726Y9068D01*
Y9400D01*
X3144D01*
X3140Y9400D01*
X3136Y9400D01*
X3134Y9401D01*
X3134Y9401D01*
X3134D01*
X3130Y9402D01*
X3128Y9403D01*
X3126Y9404D01*
X3125Y9405D01*
X3119Y9407D01*
X3119Y9407D01*
X3119Y9407D01*
X3114Y9413D01*
X3108Y9418D01*
X3108Y9418D01*
X3108Y9418D01*
X3106Y9424D01*
X3105Y9425D01*
X3104Y9427D01*
X3104Y9429D01*
X3102Y9433D01*
Y9433D01*
X3102Y9433D01*
X3102Y9435D01*
X3102Y9439D01*
X3101Y9443D01*
Y9938D01*
X3102Y9942D01*
X3102Y9946D01*
X3102Y9948D01*
X3102Y9948D01*
Y9948D01*
X3104Y9952D01*
X3104Y9954D01*
X3105Y9956D01*
X3106Y9957D01*
X3108Y9963D01*
X3108Y9963D01*
X3108Y9963D01*
X3114Y9968D01*
X3119Y9974D01*
X3119Y9974D01*
X3119Y9974D01*
X3125Y9976D01*
X3126Y9977D01*
X3128Y9978D01*
X3130Y9979D01*
X3134Y9980D01*
X3134D01*
X3134Y9980D01*
X3136Y9981D01*
X3140Y9981D01*
X3144Y9981D01*
X3211D01*
X3220Y10004D01*
X3114Y10110D01*
X3112Y10114D01*
X3109Y10116D01*
X3108Y10118D01*
X3108Y10118D01*
X3108Y10118D01*
X3108Y10118D01*
X3107Y10122D01*
X3105Y10123D01*
X3105Y10125D01*
X3104Y10127D01*
X3104Y10129D01*
X3102Y10133D01*
X3102Y10133D01*
X3102Y10133D01*
Y10133D01*
X3102Y10135D01*
X3102Y10139D01*
X3101Y10143D01*
Y11063D01*
X3102Y11067D01*
X3102Y11071D01*
X3102Y11073D01*
X3102Y11073D01*
Y11073D01*
X3104Y11077D01*
X3104Y11079D01*
X3105Y11081D01*
X3106Y11082D01*
X3108Y11088D01*
X3108Y11088D01*
X3108Y11088D01*
X3114Y11093D01*
X3119Y11099D01*
X3119Y11099D01*
X3119Y11099D01*
X3125Y11101D01*
X3126Y11102D01*
X3128Y11103D01*
X3130Y11104D01*
X3134Y11105D01*
X3134D01*
X3134Y11105D01*
X3136Y11106D01*
X3140Y11106D01*
X3144Y11106D01*
X4640D01*
X4644Y11106D01*
X4648Y11106D01*
X4649Y11105D01*
X4649Y11105D01*
X4649D01*
X4653Y11104D01*
X4655Y11103D01*
X4657Y11102D01*
X4658Y11101D01*
X4664Y11099D01*
X4664Y11099D01*
X4664Y11099D01*
X4670Y11093D01*
X4675Y11088D01*
X4675Y11088D01*
X4675Y11088D01*
X4678Y11082D01*
X4678Y11081D01*
X4679Y11079D01*
X4680Y11077D01*
X4681Y11073D01*
Y11073D01*
X4681Y11073D01*
X4682Y11071D01*
X4682D01*
X4682Y11071D01*
D01*
X4682Y11066D01*
X4682Y11063D01*
Y11056D01*
X4682Y11056D01*
X5890D01*
X5894Y11056D01*
X5898Y11056D01*
X5899Y11055D01*
X5899Y11055D01*
X5899D01*
X5903Y11054D01*
X5905Y11053D01*
X5907Y11052D01*
X5908Y11051D01*
X5914Y11049D01*
X5914Y11049D01*
X5914Y11049D01*
X5920Y11043D01*
X5925Y11038D01*
X5925Y11038D01*
X5925Y11038D01*
X5928Y11032D01*
X5928Y11031D01*
X5929Y11029D01*
X5930Y11027D01*
X5931Y11023D01*
Y11023D01*
X5931Y11023D01*
X5932Y11021D01*
X5932Y11017D01*
X5932Y11013D01*
Y10592D01*
X5994Y10531D01*
X6111D01*
X6151Y10548D01*
X6153Y10550D01*
X6151Y10565D01*
Y11186D01*
X6142D01*
Y11396D01*
X6292D01*
Y11186D01*
X6282D01*
Y10593D01*
X6628Y10246D01*
X6832D01*
Y10107D01*
Y10106D01*
X6942D01*
X6959Y10104D01*
X6969Y10100D01*
X6974Y10097D01*
X6988Y10087D01*
X7063Y10012D01*
X7073Y9998D01*
X7076Y9992D01*
X7080Y9982D01*
X7082Y9965D01*
Y9765D01*
X7122D01*
Y9596D01*
X7122Y9596D01*
X7122Y9575D01*
X7122D01*
Y9406D01*
X7122Y9406D01*
X7122D01*
X7121Y9404D01*
X7144Y9381D01*
X7515D01*
X7557Y9423D01*
Y9665D01*
X7601D01*
Y9853D01*
X7552D01*
Y9979D01*
Y10107D01*
Y10233D01*
Y10238D01*
X7382D01*
Y9665D01*
X7407D01*
Y9415D01*
X7227D01*
Y9665D01*
X7251D01*
Y10238D01*
X7054D01*
X7037Y10240D01*
X7029Y10243D01*
X7021Y10247D01*
X7007Y10257D01*
X6900Y10365D01*
X6832D01*
Y10361D01*
X6602D01*
Y10488D01*
Y10628D01*
X6832D01*
Y10623D01*
X6934D01*
X6951Y10621D01*
X6966Y10614D01*
X6980Y10604D01*
X6990Y10590D01*
X6997Y10574D01*
X6999Y10557D01*
Y10451D01*
X7081Y10369D01*
X7463D01*
X7472Y10392D01*
X7170Y10694D01*
X7160Y10708D01*
X7157Y10716D01*
X7153Y10724D01*
X7151Y10740D01*
Y11181D01*
X7130Y11194D01*
X7119Y11190D01*
X7092Y11186D01*
X7065Y11190D01*
X7040Y11200D01*
X7040Y11200D01*
Y11200D01*
X7027Y11186D01*
Y11186D01*
X6907D01*
Y11115D01*
X6905Y11099D01*
X6902Y11091D01*
X6898Y11083D01*
X6888Y11069D01*
X6838Y11019D01*
X6832Y11014D01*
Y10996D01*
Y10868D01*
Y10742D01*
X6602D01*
Y10746D01*
X6521D01*
X6504Y10748D01*
X6496Y10751D01*
X6488Y10755D01*
X6474Y10765D01*
X6345Y10894D01*
X6335Y10908D01*
X6332Y10916D01*
X6328Y10924D01*
X6326Y10940D01*
Y11613D01*
X6229Y11711D01*
X6142D01*
Y11921D01*
X6261D01*
X6271Y11944D01*
X5936Y12278D01*
X5913Y12269D01*
X5906Y12029D01*
X5909Y12029D01*
X5913Y12027D01*
X5924Y12022D01*
X5938Y12012D01*
X6029Y11921D01*
X6102D01*
Y11711D01*
X5952D01*
Y11813D01*
X5865Y11900D01*
X5369D01*
X5292Y11823D01*
Y11665D01*
X5142D01*
Y11865D01*
X5142D01*
Y11872D01*
X5134Y11875D01*
X4111D01*
X4100Y11852D01*
X4107Y11843D01*
X4118Y11818D01*
X4121Y11790D01*
X4118Y11763D01*
X4107Y11738D01*
X4091Y11717D01*
X4069Y11700D01*
X4044Y11690D01*
X4017Y11686D01*
X3990Y11690D01*
X3965Y11700D01*
X3943Y11717D01*
X3937Y11725D01*
X3517D01*
X3500Y11727D01*
X3493Y11730D01*
X3484Y11734D01*
X3470Y11744D01*
X2956Y12259D01*
X2932Y12249D01*
Y11556D01*
X3937D01*
X3943Y11564D01*
X3965Y11581D01*
X3990Y11591D01*
X4017Y11595D01*
X4044Y11591D01*
X4069Y11581D01*
X4091Y11564D01*
X4107Y11543D01*
X4118Y11518D01*
X4121Y11490D01*
X4118Y11463D01*
X4107Y11438D01*
X4091Y11417D01*
X4069Y11400D01*
X4044Y11390D01*
X4017Y11386D01*
X3990Y11390D01*
X3965Y11400D01*
X3943Y11417D01*
X3937Y11425D01*
X2932D01*
Y10068D01*
X2932Y10064D01*
X2932Y10060D01*
X2931Y10058D01*
X2931Y10058D01*
Y10058D01*
X2930Y10054D01*
X2929Y10052D01*
X2928Y10050D01*
X2928Y10049D01*
X2925Y10043D01*
X2925Y10043D01*
X2925Y10043D01*
X2920Y10038D01*
X2914Y10032D01*
X2914Y10032D01*
X2914Y10032D01*
X2908Y10030D01*
X2907Y10029D01*
X2905Y10028D01*
X2903Y10027D01*
X2899Y10026D01*
X2899D01*
X2899Y10026D01*
X2898Y10025D01*
X2894Y10025D01*
X2890Y10025D01*
X1394D01*
X1390Y10025D01*
X1386Y10025D01*
X1384Y10026D01*
X1384Y10026D01*
X1384D01*
X1380Y10027D01*
X1378Y10028D01*
X1376Y10029D01*
X1375Y10030D01*
X1369Y10032D01*
X1369Y10032D01*
X1369Y10032D01*
X1364Y10038D01*
X1358Y10043D01*
X1358Y10043D01*
X1358Y10043D01*
X1356Y10049D01*
X1355Y10050D01*
X1354Y10052D01*
X1354Y10054D01*
X1352Y10058D01*
Y10058D01*
X1352Y10058D01*
X1352Y10060D01*
X1352Y10064D01*
X1351Y10068D01*
Y11400D01*
X894D01*
X890Y11400D01*
X886Y11400D01*
X884Y11401D01*
X884Y11401D01*
X884D01*
X880Y11402D01*
X878Y11403D01*
X876Y11404D01*
X875Y11405D01*
X869Y11407D01*
X869Y11407D01*
X869Y11407D01*
X864Y11413D01*
X858Y11418D01*
X858Y11418D01*
X858Y11418D01*
X856Y11424D01*
X855Y11425D01*
X854Y11427D01*
X854Y11429D01*
X852Y11433D01*
Y11433D01*
X852Y11433D01*
X852Y11435D01*
X852Y11439D01*
X851Y11443D01*
Y12338D01*
X852Y12342D01*
X852Y12346D01*
X852Y12348D01*
X852Y12348D01*
Y12348D01*
X854Y12352D01*
X854Y12354D01*
X855Y12356D01*
X856Y12357D01*
X858Y12363D01*
X858Y12363D01*
X858Y12363D01*
X864Y12368D01*
X869Y12374D01*
X869Y12374D01*
X869Y12374D01*
X875Y12376D01*
X876Y12377D01*
X878Y12378D01*
X878Y12403D01*
X876Y12404D01*
X875Y12405D01*
X869Y12407D01*
X869Y12407D01*
X869Y12407D01*
X864Y12413D01*
X858Y12418D01*
X858Y12418D01*
X858Y12418D01*
X856Y12424D01*
X855Y12425D01*
X854Y12427D01*
X854Y12429D01*
X852Y12433D01*
Y12433D01*
X852Y12433D01*
X852Y12435D01*
X852Y12439D01*
X851Y12443D01*
Y13313D01*
X852Y13317D01*
X852Y13321D01*
X852Y13323D01*
X852Y13323D01*
Y13323D01*
X854Y13327D01*
X854Y13329D01*
X855Y13331D01*
X856Y13332D01*
X858Y13338D01*
X858Y13338D01*
X858Y13338D01*
X864Y13343D01*
X869Y13349D01*
X869Y13349D01*
X869Y13349D01*
X875Y13351D01*
X876Y13352D01*
X878Y13353D01*
X880Y13354D01*
X884Y13355D01*
X884D01*
X884Y13355D01*
X886Y13355D01*
X890Y13355D01*
X894Y13356D01*
X1351D01*
Y13688D01*
X1352Y13692D01*
X1352Y13696D01*
X1352Y13698D01*
X1352Y13698D01*
Y13698D01*
X1354Y13702D01*
X1354Y13704D01*
X1354Y13705D01*
X1355Y13706D01*
X1356Y13708D01*
X1358Y13713D01*
X1358Y13713D01*
X1358Y13713D01*
X1358Y13713D01*
X1358Y13718D01*
X1358Y13718D01*
X1358D01*
X1358Y13718D01*
X1358Y13718D01*
X1358D01*
X1358Y13718D01*
X1358Y13718D01*
D01*
X1357Y13722D01*
X1354Y13725D01*
X1354Y13727D01*
X1354Y13727D01*
X1354Y13729D01*
X1352Y13733D01*
Y13733D01*
X1352Y13733D01*
X1352Y13735D01*
X1352Y13739D01*
X1351Y13743D01*
Y13824D01*
X1328Y13834D01*
X1261Y13767D01*
X1254Y13762D01*
X1247Y13757D01*
X1232Y13750D01*
X1222Y13749D01*
Y13738D01*
Y13612D01*
X1022D01*
Y13621D01*
X902D01*
Y13585D01*
X732D01*
Y13796D01*
X902D01*
Y13752D01*
X1022D01*
Y13762D01*
Y13865D01*
Y13875D01*
X892D01*
Y13835D01*
X722D01*
Y14046D01*
X892D01*
Y14006D01*
X926D01*
Y15090D01*
X928Y15107D01*
X930Y15112D01*
X935Y15123D01*
X945Y15137D01*
X1445Y15637D01*
X1459Y15647D01*
X1468Y15651D01*
X1475Y15654D01*
X1492Y15656D01*
D02*
G37*
%LPD*%
G36*
X5557Y10365D02*
X5667D01*
Y10306D01*
X5952D01*
Y10346D01*
X6102D01*
Y10136D01*
X5952D01*
Y10175D01*
X5667D01*
Y10165D01*
X5557D01*
Y9981D01*
X6265D01*
X6269Y9981D01*
X6273Y9981D01*
X6274Y9980D01*
X6274Y9980D01*
X6274D01*
X6278Y9979D01*
X6280Y9978D01*
X6282Y9977D01*
X6283Y9976D01*
X6289Y9974D01*
X6289Y9974D01*
X6289Y9974D01*
X6295Y9968D01*
X6300Y9963D01*
X6300Y9963D01*
X6300Y9963D01*
X6303Y9957D01*
X6303Y9956D01*
X6304Y9954D01*
X6305Y9952D01*
X6306Y9948D01*
Y9948D01*
X6306Y9948D01*
X6307Y9946D01*
X6307Y9942D01*
X6307Y9938D01*
Y9568D01*
X6307Y9564D01*
X6307Y9560D01*
X6306Y9558D01*
X6306Y9558D01*
Y9558D01*
X6305Y9554D01*
X6304Y9552D01*
X6303Y9550D01*
X6303Y9549D01*
X6300Y9543D01*
X6300Y9543D01*
X6300Y9543D01*
X6295Y9538D01*
X6289Y9532D01*
X6289Y9532D01*
X6289Y9532D01*
X6283Y9530D01*
X6282Y9529D01*
X6280Y9528D01*
X6278Y9527D01*
X6274Y9526D01*
X6274D01*
X6274Y9526D01*
X6273Y9525D01*
X6269Y9525D01*
X6265Y9525D01*
X5557D01*
Y9153D01*
X5629Y9081D01*
X8329D01*
X8826Y9578D01*
Y10278D01*
X8653Y10451D01*
X8519D01*
X8462Y10394D01*
X8471Y10371D01*
X8552D01*
Y10161D01*
X8464D01*
X8448Y10144D01*
X8457Y10121D01*
X8552D01*
Y9911D01*
X8402D01*
Y9984D01*
X7782D01*
Y9979D01*
Y9853D01*
X7732D01*
Y9665D01*
X7737D01*
Y9415D01*
X7712D01*
X7710Y9404D01*
X7707Y9397D01*
X7703Y9388D01*
X7693Y9374D01*
X7588Y9269D01*
X7574Y9259D01*
X7563Y9254D01*
X7559Y9252D01*
X7542Y9250D01*
X7117D01*
X7100Y9252D01*
X7093Y9255D01*
X7084Y9259D01*
X7070Y9269D01*
X6970Y9369D01*
X6960Y9383D01*
X6957Y9391D01*
X6953Y9399D01*
X6952Y9406D01*
X6912D01*
Y9575D01*
D01*
Y9575D01*
X6912Y9575D01*
Y9596D01*
X6912D01*
Y9765D01*
X6951D01*
Y9938D01*
X6915Y9975D01*
X6832D01*
Y9853D01*
X6602D01*
Y9857D01*
X6510D01*
X6493Y9859D01*
X6486Y9862D01*
X6477Y9866D01*
X6463Y9876D01*
X6270Y10069D01*
X6270Y10069D01*
X6204Y10136D01*
X6142D01*
Y10346D01*
X6186D01*
X6196Y10369D01*
X6165Y10400D01*
X5967D01*
X5950Y10402D01*
X5942Y10405D01*
X5934Y10409D01*
X5920Y10419D01*
X5815Y10525D01*
X5557D01*
Y10365D01*
D02*
G37*
G36*
X3144Y11065D02*
Y11065D01*
X3142Y11059D01*
Y11059D01*
D01*
X3142Y11059D01*
Y10147D01*
X3142Y10147D01*
X3142Y10143D01*
X3142Y10141D01*
X3143Y10139D01*
X3301Y9981D01*
X3313D01*
X3328Y9978D01*
X3342Y9969D01*
X3342Y9969D01*
X3350Y9961D01*
X5502D01*
X5508Y9969D01*
X5517Y9975D01*
Y10165D01*
Y10365D01*
Y10565D01*
X5892D01*
Y10592D01*
X5892Y10592D01*
X5892Y10592D01*
Y11013D01*
X5886Y11015D01*
X5886D01*
D01*
X5886Y11015D01*
X4642D01*
Y11062D01*
X4642Y11062D01*
D01*
X4636Y11065D01*
X4636Y11065D01*
X3144D01*
D01*
D02*
G37*
G36*
Y9940D02*
Y9940D01*
X3142Y9934D01*
Y9934D01*
D01*
X3142Y9934D01*
Y9443D01*
X3148Y9440D01*
X3148D01*
D01*
X3148Y9440D01*
X4767D01*
Y9400D01*
Y9068D01*
X4773Y9065D01*
X4773D01*
D01*
X4773Y9065D01*
X5429D01*
X5429Y9065D01*
X5429Y9065D01*
X5517D01*
Y9153D01*
X5517Y9153D01*
X5517Y9153D01*
Y9525D01*
Y9565D01*
X6265D01*
X6267Y9572D01*
Y9572D01*
D01*
X6267Y9572D01*
Y9938D01*
X6261Y9940D01*
X6261D01*
D01*
X6261Y9940D01*
X5538D01*
X5537Y9940D01*
X5536Y9938D01*
X5533Y9935D01*
X5531Y9932D01*
X5528Y9930D01*
X5525Y9927D01*
X5521Y9925D01*
X5518Y9923D01*
X5514Y9922D01*
X5510Y9921D01*
X5506D01*
X5502Y9920D01*
X3350D01*
X3342Y9922D01*
X3335Y9923D01*
X3335Y9923D01*
X3335D01*
X3321Y9932D01*
X3321Y9932D01*
X3316Y9938D01*
X3313Y9940D01*
X3309Y9940D01*
X3301D01*
X3301Y9940D01*
X3301Y9940D01*
X3144D01*
D01*
D02*
G37*
G36*
X894Y12340D02*
X892Y12334D01*
Y12334D01*
D01*
X892Y12334D01*
Y11443D01*
X898Y11440D01*
X898D01*
D01*
X898Y11440D01*
X1392D01*
Y11400D01*
Y10068D01*
X1398Y10065D01*
X1398D01*
D01*
X1398Y10065D01*
X2890D01*
X2892Y10072D01*
Y10072D01*
D01*
X2892Y10072D01*
Y11425D01*
Y12323D01*
X2874Y12340D01*
X894D01*
Y12340D01*
D02*
G37*
G36*
X1057Y15063D02*
Y14015D01*
X1178D01*
X1192Y14036D01*
X1191Y14038D01*
X1187Y14065D01*
X1191Y14093D01*
X1201Y14118D01*
X1218Y14139D01*
X1240Y14156D01*
X1265Y14166D01*
X1292Y14170D01*
X1319Y14166D01*
X1330Y14162D01*
X1351Y14175D01*
Y15213D01*
X1352Y15217D01*
X1352Y15221D01*
X1352Y15223D01*
X1352Y15223D01*
Y15223D01*
X1354Y15227D01*
X1354Y15229D01*
X1355Y15231D01*
X1356Y15232D01*
X1358Y15238D01*
X1358Y15238D01*
X1358Y15238D01*
X1364Y15243D01*
X1369Y15249D01*
X1369Y15249D01*
X1369Y15249D01*
X1375Y15251D01*
X1376Y15252D01*
X1378Y15253D01*
X1380Y15254D01*
X1384Y15255D01*
X1384D01*
X1384Y15255D01*
X1386Y15255D01*
X1390Y15255D01*
X1394Y15256D01*
X2890D01*
X2894Y15255D01*
X2898Y15255D01*
X2899Y15255D01*
X2899Y15255D01*
X2899D01*
X2903Y15254D01*
X2905Y15253D01*
X2907Y15252D01*
X2908Y15251D01*
X2914Y15249D01*
X2914Y15249D01*
X2914Y15249D01*
X2920Y15243D01*
X2925Y15238D01*
X2925Y15238D01*
X2925Y15238D01*
X2928Y15232D01*
X2928Y15231D01*
X2929Y15229D01*
X2930Y15227D01*
X2931Y15223D01*
Y15223D01*
X2931Y15223D01*
X2932Y15221D01*
X2932Y15217D01*
X2932Y15213D01*
Y13743D01*
X2932Y13739D01*
X2932Y13735D01*
X2931Y13733D01*
X2931Y13733D01*
Y13733D01*
X2930Y13729D01*
X2929Y13727D01*
X2929Y13726D01*
X2929Y13725D01*
X2927Y13723D01*
X2925Y13718D01*
X2925Y13718D01*
X2925Y13718D01*
X2925Y13718D01*
X2925Y13713D01*
X2925Y13713D01*
D01*
X2925Y13713D01*
X2925Y13713D01*
X2925D01*
X2925Y13713D01*
X2925Y13713D01*
D01*
X2927Y13709D01*
X2929Y13706D01*
X2929Y13704D01*
X2929Y13704D01*
X2930Y13702D01*
X2931Y13698D01*
Y13698D01*
X2931Y13698D01*
X2932Y13696D01*
X2932Y13692D01*
X2932Y13688D01*
Y12467D01*
X2953Y12447D01*
X2976Y12457D01*
Y12888D01*
X2977Y12892D01*
X2977Y12896D01*
X2977Y12898D01*
X2977Y12898D01*
Y12898D01*
X2979Y12902D01*
X2979Y12904D01*
X2980Y12906D01*
X2981Y12907D01*
X2983Y12913D01*
X2983Y12913D01*
X2983Y12913D01*
X2989Y12918D01*
X2994Y12924D01*
X2994Y12924D01*
X2994Y12924D01*
X3000Y12926D01*
X3001Y12927D01*
X3003Y12928D01*
X3005Y12929D01*
X3009Y12930D01*
X3009D01*
X3009Y12930D01*
X3011Y12930D01*
Y12931D01*
X3011Y12930D01*
X3016Y12931D01*
X3019Y12931D01*
X3026D01*
X3026D01*
Y14340D01*
X3030Y14411D01*
X3044Y14481D01*
X3067Y14548D01*
X3098Y14611D01*
X3137Y14670D01*
X3184Y14723D01*
X3237Y14770D01*
X3296Y14809D01*
X3360Y14840D01*
X3427Y14863D01*
X3496Y14877D01*
X3567Y14882D01*
X3637Y14877D01*
X3707Y14863D01*
X3774Y14840D01*
X3837Y14809D01*
X3896Y14770D01*
X3949Y14723D01*
X3996Y14670D01*
X4035Y14611D01*
X4067Y14548D01*
X4089Y14481D01*
X4103Y14411D01*
X4108Y14340D01*
Y12931D01*
X5153D01*
X5153Y12932D01*
X5156Y12939D01*
X5160Y12948D01*
X5170Y12962D01*
X5210Y13002D01*
X5201Y13025D01*
X4194D01*
X4190Y13026D01*
X4186Y13026D01*
X4184Y13026D01*
X4184Y13026D01*
X4184D01*
X4180Y13027D01*
X4178Y13028D01*
X4176Y13029D01*
X4175Y13030D01*
X4169Y13032D01*
X4169Y13032D01*
X4169Y13032D01*
X4164Y13038D01*
X4158Y13043D01*
X4158Y13043D01*
X4158Y13043D01*
X4156Y13049D01*
X4155Y13050D01*
X4154Y13052D01*
X4154Y13054D01*
X4152Y13058D01*
Y13058D01*
X4152Y13058D01*
X4152Y13060D01*
X4152Y13064D01*
X4151Y13068D01*
Y13590D01*
X4152Y13594D01*
X4152Y13598D01*
X4152Y13600D01*
X4152Y13600D01*
Y13600D01*
X4154Y13604D01*
X4154Y13606D01*
X4155Y13608D01*
X4156Y13609D01*
X4158Y13615D01*
X4158Y13615D01*
X4158Y13615D01*
X4164Y13620D01*
X4169Y13626D01*
X4169Y13626D01*
X4169Y13626D01*
X4175Y13628D01*
X4176Y13629D01*
X4178Y13630D01*
X4180Y13630D01*
X4184Y13632D01*
X4184D01*
X4184Y13632D01*
X4186Y13632D01*
X4190Y13632D01*
X4194Y13633D01*
X5118D01*
Y14538D01*
X5119Y14547D01*
X5121Y14554D01*
X5121Y14554D01*
X5121Y14554D01*
X5127Y14563D01*
X5130Y14567D01*
X5130Y14567D01*
X5130Y14567D01*
X5130Y14567D01*
X5130Y14567D01*
X5132Y14569D01*
X5132Y14569D01*
X5132Y14569D01*
X5138Y14574D01*
X5145Y14578D01*
X5145Y14578D01*
X5145Y14578D01*
X5152Y14580D01*
X5160Y14581D01*
X5160Y14581D01*
X5160Y14581D01*
X5640D01*
X5644Y14580D01*
X5648Y14580D01*
X5649Y14580D01*
X5649Y14580D01*
X5649D01*
X5653Y14579D01*
X5655Y14578D01*
X5657Y14577D01*
X5658Y14576D01*
X5664Y14574D01*
X5664Y14574D01*
X5664Y14574D01*
X5670Y14568D01*
X5675Y14563D01*
X5675Y14563D01*
X5675Y14563D01*
X5678Y14557D01*
X5678Y14556D01*
X5679Y14554D01*
X5680Y14552D01*
X5681Y14548D01*
Y14548D01*
X5681Y14548D01*
X5682Y14546D01*
X5682Y14542D01*
X5682Y14538D01*
Y13368D01*
X5682Y13366D01*
X5682Y13366D01*
X5682Y13364D01*
X5682Y13360D01*
X5681Y13358D01*
X5680Y13354D01*
X5679Y13352D01*
X5679Y13352D01*
X5679Y13350D01*
X5677Y13347D01*
X5675Y13343D01*
X5673Y13341D01*
Y13230D01*
X5675Y13228D01*
X5677Y13224D01*
X5679Y13221D01*
X5679Y13219D01*
X5679Y13219D01*
X5680Y13217D01*
X5681Y13213D01*
X5682Y13211D01*
X5682Y13207D01*
X5682Y13205D01*
X5682Y13205D01*
X5682Y13203D01*
Y13068D01*
X5740Y13056D01*
X5867D01*
X5884Y13054D01*
X5894Y13050D01*
X5899Y13047D01*
X5913Y13037D01*
X6029Y12921D01*
X6077D01*
Y12711D01*
X5927D01*
X5920Y12480D01*
X6563Y11837D01*
X6573Y11823D01*
X6576Y11817D01*
X6580Y11807D01*
X6582Y11790D01*
Y11356D01*
X6667D01*
Y11396D01*
X6776D01*
Y11663D01*
X6145Y12294D01*
X6135Y12308D01*
X6133Y12314D01*
X6128Y12324D01*
X6126Y12340D01*
Y12711D01*
X6117D01*
Y12921D01*
X6267D01*
Y12711D01*
X6257D01*
Y12368D01*
X6888Y11737D01*
X6898Y11723D01*
X6901Y11717D01*
X6905Y11707D01*
X6907Y11690D01*
Y11675D01*
X7072D01*
Y11661D01*
X7670D01*
X7826Y11818D01*
Y12110D01*
X7818Y12117D01*
X7801Y12138D01*
X7791Y12163D01*
X7788Y12184D01*
X7759D01*
Y12180D01*
Y12115D01*
X7692D01*
X7684Y12112D01*
X7667Y12110D01*
X7615D01*
X7580Y12075D01*
X7580Y12074D01*
X7575Y12062D01*
X7573Y12058D01*
X7571Y12055D01*
X7563Y12044D01*
X7563Y12044D01*
X7472Y11953D01*
Y11871D01*
X7477D01*
Y11711D01*
X7337D01*
Y11871D01*
X7341D01*
Y11981D01*
X7343Y11997D01*
X7350Y12013D01*
X7360Y12027D01*
X7470Y12137D01*
X7484Y12147D01*
X7492Y12151D01*
X7493Y12151D01*
X7503Y12174D01*
X7499Y12184D01*
X7317D01*
X7282Y12170D01*
D01*
X7280Y12157D01*
D01*
X7282Y12140D01*
Y11871D01*
X7287D01*
Y11711D01*
X7147D01*
Y11871D01*
X7151D01*
Y12113D01*
X7149Y12115D01*
X6989D01*
Y12163D01*
X6966Y12172D01*
X6942Y12148D01*
Y11986D01*
X6772D01*
Y12196D01*
X6805D01*
X6810Y12202D01*
X6846Y12237D01*
X6836Y12261D01*
X6792D01*
Y12471D01*
X6814D01*
X6820Y12484D01*
X6823Y12494D01*
X6810Y12504D01*
X6805Y12511D01*
X6772D01*
Y12721D01*
X6942D01*
Y12721D01*
X6944D01*
X6962Y12738D01*
Y12860D01*
X7172D01*
Y12690D01*
X7147D01*
Y12625D01*
X7174D01*
Y12513D01*
X7174Y12513D01*
X7174Y12513D01*
X7174Y12506D01*
Y12500D01*
Y12496D01*
X7174Y12488D01*
X7174Y12488D01*
X7174D01*
Y12375D01*
Y12362D01*
X7236D01*
Y12711D01*
X7227D01*
Y12921D01*
X7236D01*
Y13026D01*
X7238Y13042D01*
X7242Y13050D01*
X7245Y13058D01*
X7255Y13072D01*
X7345Y13162D01*
X7359Y13172D01*
X7368Y13176D01*
X7375Y13179D01*
X7392Y13181D01*
X7487D01*
Y13205D01*
X7536D01*
Y13285D01*
X7532D01*
Y13300D01*
X7517D01*
X7500Y13302D01*
X7492Y13305D01*
X7484Y13309D01*
X7470Y13319D01*
X5265Y15525D01*
X1519D01*
X1057Y15063D01*
D02*
G37*
G36*
X1394Y15215D02*
Y15215D01*
X1392Y15209D01*
Y15209D01*
D01*
X1392Y15209D01*
Y14175D01*
Y14107D01*
X1398Y14098D01*
X1405Y14082D01*
X1407Y14065D01*
X1405Y14049D01*
X1398Y14033D01*
X1392Y14024D01*
Y13824D01*
Y13743D01*
X1392Y13741D01*
D01*
X1392Y13741D01*
X1392Y13741D01*
X1392Y13740D01*
X1542D01*
Y13762D01*
X1742D01*
Y13740D01*
X2891D01*
X2891Y13741D01*
X2892Y13743D01*
Y15213D01*
X2886Y15215D01*
X2886D01*
D01*
X2886Y15215D01*
X1394D01*
D01*
D02*
G37*
G36*
X5158Y14538D02*
X5158Y14538D01*
D01*
Y13613D01*
Y13592D01*
X4194D01*
X4192Y13592D01*
X4192Y13590D01*
Y13068D01*
X4192Y13066D01*
X4194Y13065D01*
X5641D01*
X5642Y13068D01*
Y13203D01*
X5641Y13205D01*
X5640Y13207D01*
X5638Y13208D01*
X5637Y13209D01*
X5636Y13211D01*
X5635Y13213D01*
X5634Y13214D01*
X5633Y13216D01*
X5633Y13218D01*
Y13220D01*
X5632Y13222D01*
Y13349D01*
X5633Y13351D01*
Y13353D01*
X5633Y13355D01*
X5634Y13357D01*
X5635Y13358D01*
X5636Y13360D01*
X5637Y13362D01*
X5638Y13363D01*
X5640Y13364D01*
X5641Y13366D01*
X5642Y13368D01*
Y14538D01*
X5641Y14540D01*
X5640Y14540D01*
X5160D01*
X5158Y14538D01*
D02*
G37*
G36*
X1392Y13690D02*
X1392Y13688D01*
Y13336D01*
Y13315D01*
X894D01*
X892Y13315D01*
X892Y13313D01*
Y12443D01*
X892Y12441D01*
X894Y12440D01*
X2822D01*
X2822Y12440D01*
X2822Y12440D01*
X2892D01*
Y13688D01*
X2891Y13690D01*
X2891Y13690D01*
X1392D01*
X1392Y13690D01*
D02*
G37*
G36*
X3020Y12890D02*
X3017Y12884D01*
X3017Y12884D01*
Y12457D01*
X3017Y12457D01*
X3017Y12457D01*
Y12383D01*
X3484Y11915D01*
X5199D01*
X5295Y12012D01*
X5309Y12022D01*
X5317Y12026D01*
X5325Y12029D01*
X5342Y12031D01*
X5865D01*
X5867Y12099D01*
X5879Y12481D01*
D01*
X5880Y12501D01*
X5891Y12873D01*
X5874Y12890D01*
X5305D01*
X5290Y12871D01*
X5292Y12865D01*
X5292D01*
X5292Y12865D01*
Y12665D01*
X5142D01*
Y12865D01*
X5151D01*
Y12890D01*
X3020D01*
Y12890D01*
D02*
G37*
G36*
X323Y17247D02*
X10211D01*
Y24634D01*
X323D01*
Y17247D01*
D02*
G37*
%LPC*%
G36*
X7962Y21976D02*
X8172D01*
Y21805D01*
X8067D01*
X8063Y21804D01*
X8059Y21802D01*
X8042Y21800D01*
X7862D01*
Y21785D01*
X7722D01*
Y21946D01*
X7862D01*
Y21931D01*
X7962D01*
Y21976D01*
D02*
G37*
G36*
X5952Y19896D02*
X6102D01*
Y19685D01*
X5952D01*
Y19725D01*
X5667D01*
Y19665D01*
X5517D01*
Y19865D01*
X5667D01*
Y19856D01*
X5952D01*
Y19896D01*
D02*
G37*
G36*
X1492Y24156D02*
X5292D01*
X5309Y24154D01*
X5324Y24147D01*
X5338Y24137D01*
X7530Y21945D01*
X7532Y21946D01*
Y21946D01*
X7532Y21946D01*
X7672D01*
Y21785D01*
X7667D01*
Y21705D01*
X7687D01*
Y21526D01*
X7487D01*
Y21550D01*
X7419D01*
X7367Y21498D01*
Y21421D01*
X7377D01*
Y21210D01*
X7367D01*
Y20805D01*
Y20797D01*
X7574D01*
Y20800D01*
X7759D01*
Y20797D01*
X7808D01*
X7809Y20797D01*
X7825Y20804D01*
X7840Y20806D01*
X7843Y20812D01*
X7845Y20833D01*
X7782Y20896D01*
X7759Y20886D01*
Y20876D01*
X7574D01*
Y20879D01*
X7522D01*
X7500Y20884D01*
X7482Y20896D01*
X7482Y20896D01*
X7482Y20896D01*
X7452Y20926D01*
X7440Y20944D01*
X7436Y20965D01*
X7436Y20965D01*
X7436Y20965D01*
Y20965D01*
Y20982D01*
X7435Y20983D01*
X7428Y20999D01*
X7426Y21015D01*
Y21210D01*
X7417D01*
Y21421D01*
X7567D01*
Y21210D01*
X7557D01*
Y21126D01*
X7574D01*
Y21126D01*
X7759D01*
Y21126D01*
X7772Y21126D01*
X7952Y21305D01*
Y21496D01*
X8102D01*
Y21285D01*
X8080D01*
X8079Y21279D01*
X8066Y21261D01*
X8066Y21261D01*
X8066D01*
Y21261D01*
X8066Y21261D01*
X7831Y21026D01*
X7831D01*
X7831D01*
X7829Y21007D01*
X7919Y20918D01*
X7943Y20923D01*
X7951Y20943D01*
X7968Y20964D01*
X7990Y20981D01*
X8015Y20991D01*
X8042Y20995D01*
X8069Y20991D01*
X8094Y20981D01*
X8101Y20976D01*
X8297D01*
Y20971D01*
X8317D01*
Y20971D01*
X8326Y20971D01*
Y21065D01*
X8328Y21082D01*
X8335Y21098D01*
X8345Y21112D01*
X8420Y21187D01*
X8434Y21197D01*
X8442Y21201D01*
X8450Y21204D01*
X8467Y21206D01*
X8593D01*
X8610Y21229D01*
D01*
X8610Y21229D01*
X8610Y21229D01*
X8599Y21240D01*
X8589Y21254D01*
X8584Y21265D01*
X8582Y21270D01*
X8580Y21287D01*
Y21290D01*
X8317D01*
Y21325D01*
X8292D01*
Y21285D01*
X8142D01*
Y21496D01*
X8292D01*
Y21456D01*
X8317D01*
Y21490D01*
X8326D01*
Y21590D01*
X8328Y21607D01*
X8335Y21623D01*
X8345Y21637D01*
X8359Y21647D01*
X8375Y21654D01*
X8392Y21656D01*
X8517D01*
X8534Y21654D01*
X8549Y21647D01*
X8563Y21637D01*
X8573Y21623D01*
X8580Y21607D01*
X8582Y21590D01*
Y21490D01*
X8721D01*
Y21341D01*
X9017D01*
Y21471D01*
X9167D01*
Y21331D01*
X9178Y21322D01*
X9238Y21262D01*
X9248Y21248D01*
X9250Y21246D01*
X9357D01*
Y21035D01*
X9257D01*
Y21006D01*
X9266Y20996D01*
X9342D01*
Y20956D01*
X9417D01*
X9434Y20954D01*
X9449Y20947D01*
X9456Y20942D01*
X9463Y20937D01*
X9700Y20700D01*
X9709Y20707D01*
X9737Y20719D01*
X9755Y20721D01*
Y20746D01*
X9737Y20748D01*
X9709Y20760D01*
X9685Y20778D01*
X9666Y20803D01*
X9655Y20830D01*
X9651Y20860D01*
X9655Y20891D01*
X9666Y20918D01*
X9685Y20943D01*
X9709Y20961D01*
X9737Y20973D01*
X9767Y20976D01*
X9797Y20973D01*
X9825Y20961D01*
X9849Y20943D01*
X9860Y20928D01*
X9885Y20926D01*
X9976Y21018D01*
Y21688D01*
X9794Y21871D01*
X9677D01*
Y21905D01*
X9432D01*
Y21751D01*
X9222D01*
Y21905D01*
X8822D01*
Y21865D01*
X8612D01*
Y22076D01*
D01*
Y22075D01*
X8612Y22076D01*
Y22096D01*
X8612D01*
Y22305D01*
X8651D01*
Y22525D01*
X8493D01*
X8477Y22505D01*
X8452Y22486D01*
X8432Y22477D01*
Y22290D01*
X8472D01*
Y22121D01*
X8262D01*
Y22290D01*
X8301D01*
Y22511D01*
X8291Y22525D01*
X7794D01*
X7763Y22494D01*
X7772Y22471D01*
X7882D01*
Y22260D01*
X7872D01*
Y22130D01*
X7870Y22114D01*
X7867Y22107D01*
X7863Y22098D01*
X7862Y22095D01*
Y22035D01*
X7722D01*
Y22196D01*
X7741D01*
Y22260D01*
X7732D01*
Y22430D01*
X7709Y22440D01*
X7692Y22423D01*
Y22260D01*
X7682D01*
Y22130D01*
X7680Y22114D01*
X7677Y22107D01*
X7673Y22098D01*
X7672Y22095D01*
Y22035D01*
X7532D01*
Y22196D01*
X7551D01*
Y22260D01*
X7542D01*
Y22471D01*
X7559D01*
X7560Y22473D01*
X7570Y22487D01*
X7720Y22637D01*
X7734Y22647D01*
X7742Y22651D01*
X7750Y22654D01*
X7767Y22656D01*
X8291D01*
X8306Y22676D01*
X8331Y22695D01*
X8360Y22707D01*
X8392Y22712D01*
X8423Y22707D01*
X8452Y22695D01*
X8477Y22676D01*
X8493Y22656D01*
X9186D01*
X9336Y22807D01*
X9327Y22837D01*
X9324Y22870D01*
X9327Y22902D01*
X9337Y22934D01*
X9352Y22963D01*
X9373Y22988D01*
X9398Y23009D01*
X9427Y23025D01*
X9459Y23034D01*
X9492Y23037D01*
X9524Y23034D01*
X9556Y23025D01*
X9585Y23009D01*
X9610Y22988D01*
X9631Y22963D01*
X9647Y22934D01*
X9656Y22902D01*
X9660Y22870D01*
X9656Y22837D01*
X9647Y22805D01*
X9631Y22776D01*
X9610Y22751D01*
X9585Y22730D01*
X9556Y22714D01*
X9524Y22705D01*
X9492Y22702D01*
X9459Y22705D01*
X9429Y22714D01*
X9259Y22544D01*
X9245Y22534D01*
X9240Y22531D01*
X9230Y22527D01*
X9213Y22525D01*
X8782D01*
Y22305D01*
X8822D01*
Y22096D01*
X8822Y22096D01*
X8822Y22075D01*
X8822D01*
Y22036D01*
X9222D01*
Y22190D01*
X9432D01*
Y22036D01*
X9677D01*
Y22071D01*
X9857D01*
Y21993D01*
X10088Y21762D01*
X10098Y21748D01*
X10103Y21737D01*
X10105Y21732D01*
X10107Y21715D01*
Y20990D01*
X10105Y20974D01*
X10102Y20967D01*
X10098Y20958D01*
X10088Y20944D01*
X9958Y20814D01*
X9944Y20804D01*
X9935Y20800D01*
X9929Y20797D01*
X9912Y20795D01*
X9861D01*
X9849Y20778D01*
X9825Y20760D01*
X9797Y20748D01*
X9778Y20746D01*
Y20721D01*
X9797Y20719D01*
X9825Y20707D01*
X9849Y20689D01*
X9867Y20664D01*
X9879Y20637D01*
X9883Y20607D01*
X9879Y20576D01*
X9867Y20549D01*
X9849Y20524D01*
X9825Y20506D01*
X9797Y20494D01*
X9778Y20492D01*
Y20467D01*
X9797Y20465D01*
X9825Y20453D01*
X9849Y20435D01*
X9867Y20410D01*
X9879Y20383D01*
X9883Y20352D01*
X9881Y20343D01*
X10038Y20187D01*
X10048Y20173D01*
X10053Y20162D01*
X10055Y20157D01*
X10057Y20140D01*
Y19390D01*
X10055Y19374D01*
X10052Y19367D01*
X10048Y19358D01*
X10038Y19344D01*
X9813Y19119D01*
X9799Y19109D01*
X9790Y19105D01*
X9784Y19102D01*
X9767Y19100D01*
X9347D01*
Y19090D01*
X9137D01*
Y19240D01*
X9347D01*
Y19231D01*
X9740D01*
X9926Y19418D01*
Y20113D01*
X9902Y20138D01*
X9898Y20137D01*
X9879Y20127D01*
X9883Y20099D01*
X9879Y20068D01*
X9867Y20041D01*
X9849Y20016D01*
X9825Y19998D01*
X9797Y19986D01*
X9778Y19984D01*
Y19959D01*
X9797Y19957D01*
X9825Y19945D01*
X9849Y19927D01*
X9867Y19902D01*
X9879Y19875D01*
X9883Y19845D01*
X9879Y19814D01*
X9867Y19787D01*
X9849Y19762D01*
X9825Y19744D01*
X9797Y19732D01*
X9781Y19730D01*
X9783Y19705D01*
X9882D01*
Y19476D01*
X9652D01*
Y19525D01*
X9342D01*
Y19485D01*
X9192D01*
Y19696D01*
X9201D01*
Y19760D01*
X9182D01*
Y19971D01*
X9286D01*
X9296Y19994D01*
X9279Y20010D01*
X9192D01*
Y20221D01*
X9201D01*
Y20260D01*
X9182D01*
Y20471D01*
X9269D01*
X9279Y20494D01*
X9237Y20535D01*
X9192D01*
Y20746D01*
X9342D01*
Y20616D01*
X9630Y20328D01*
X9652Y20339D01*
X9651Y20352D01*
X9655Y20383D01*
X9666Y20410D01*
X9685Y20435D01*
X9709Y20453D01*
X9737Y20465D01*
X9755Y20467D01*
Y20492D01*
X9737Y20494D01*
X9709Y20506D01*
X9685Y20524D01*
X9666Y20549D01*
X9665Y20552D01*
X9654Y20560D01*
X9390Y20825D01*
X9342D01*
Y20785D01*
X9192D01*
Y20880D01*
X9169Y20890D01*
X9152Y20873D01*
Y20785D01*
X9002D01*
Y20996D01*
X9089D01*
X9106Y21012D01*
X9096Y21035D01*
X9017D01*
Y21075D01*
X8707D01*
X8696Y21053D01*
X8702Y21044D01*
X8709Y21028D01*
X8711Y21012D01*
Y20971D01*
X8848D01*
Y20771D01*
X8847D01*
Y20721D01*
X8857D01*
Y20706D01*
X9002D01*
Y20746D01*
X9152D01*
Y20535D01*
X9002D01*
Y20575D01*
X8857D01*
Y20510D01*
X8847D01*
Y20471D01*
X8867D01*
Y20260D01*
X8717D01*
Y20371D01*
X8716Y20376D01*
Y20510D01*
X8707D01*
Y20721D01*
X8716D01*
Y20771D01*
X8584D01*
Y20768D01*
X8582Y20751D01*
X8579Y20743D01*
X8578Y20741D01*
X8590Y20724D01*
X8594Y20721D01*
X8667D01*
Y20510D01*
X8629D01*
X8563Y20444D01*
X8549Y20434D01*
D01*
D01*
Y20434D01*
X8549Y20434D01*
D01*
D01*
X8549D01*
Y20434D01*
D01*
X8549D01*
Y20434D01*
X8534Y20427D01*
X8517Y20425D01*
X8342D01*
X8325Y20427D01*
X8317Y20430D01*
X8309Y20434D01*
X8295Y20444D01*
X8272Y20467D01*
X8269Y20469D01*
X8255Y20479D01*
X8245Y20493D01*
X8238Y20509D01*
X8236Y20526D01*
Y20535D01*
X8127D01*
Y20584D01*
X8117D01*
X8095Y20589D01*
X8077Y20601D01*
X8015Y20663D01*
X7990Y20658D01*
X7982Y20638D01*
X7966Y20617D01*
X7957Y20610D01*
Y20290D01*
X7955Y20274D01*
X7952Y20266D01*
X7948Y20258D01*
X7938Y20244D01*
X7743Y20049D01*
X7729Y20039D01*
D01*
D01*
Y20039D01*
X7729Y20039D01*
D01*
D01*
X7729D01*
Y20039D01*
D01*
X7729D01*
Y20039D01*
X7714Y20032D01*
X7697Y20030D01*
X7477D01*
Y19910D01*
X7472D01*
Y19253D01*
X7597Y19127D01*
X7782D01*
Y18988D01*
Y18869D01*
X8252D01*
X8426Y19044D01*
X8428Y19057D01*
X8411Y19076D01*
X8212D01*
Y19180D01*
X8037D01*
X8020Y19182D01*
X8013Y19185D01*
X8004Y19189D01*
X7990Y19199D01*
X7944Y19246D01*
X7782D01*
Y19241D01*
X7552D01*
Y19368D01*
Y19496D01*
Y19635D01*
X7601D01*
Y19710D01*
X7593Y19717D01*
X7576Y19738D01*
X7566Y19763D01*
X7562Y19790D01*
X7566Y19818D01*
X7576Y19843D01*
X7593Y19864D01*
X7615Y19881D01*
X7640Y19891D01*
X7667Y19895D01*
X7694Y19891D01*
X7719Y19881D01*
X7741Y19864D01*
X7747Y19856D01*
X7897D01*
Y19890D01*
X8077D01*
Y19640D01*
X7897D01*
Y19725D01*
X7747D01*
X7741Y19717D01*
X7732Y19710D01*
Y19635D01*
X7782D01*
Y19509D01*
Y19504D01*
X8019D01*
X8036Y19502D01*
X8040Y19500D01*
X8051Y19495D01*
X8065Y19485D01*
X8144Y19406D01*
X8212D01*
Y19415D01*
X8251D01*
Y19640D01*
X8227D01*
Y19877D01*
X8217Y19886D01*
X8190Y19890D01*
X8165Y19900D01*
X8143Y19917D01*
X8126Y19938D01*
X8116Y19963D01*
X8112Y19990D01*
X8116Y20018D01*
X8126Y20043D01*
X8143Y20064D01*
X8165Y20081D01*
X8188Y20090D01*
Y20115D01*
X8165Y20125D01*
X8143Y20142D01*
X8126Y20163D01*
X8116Y20188D01*
X8112Y20215D01*
X8116Y20243D01*
X8126Y20268D01*
X8143Y20289D01*
X8165Y20306D01*
X8190Y20316D01*
X8217Y20320D01*
X8244Y20316D01*
X8269Y20306D01*
X8291Y20289D01*
X8307Y20268D01*
X8318Y20243D01*
X8321Y20215D01*
X8319Y20200D01*
X8336Y20181D01*
X9002D01*
Y20221D01*
X9152D01*
Y20010D01*
X9002D01*
Y20050D01*
X8883D01*
X8873Y20027D01*
X8963Y19937D01*
X8973Y19923D01*
X8977Y19914D01*
X8980Y19907D01*
X8982Y19890D01*
Y19778D01*
X9064Y19696D01*
X9152D01*
Y19485D01*
X9002D01*
Y19573D01*
X8870Y19704D01*
X8860Y19718D01*
X8856Y19727D01*
X8853Y19734D01*
X8851Y19751D01*
Y19863D01*
X8790Y19925D01*
X8305D01*
X8290Y19905D01*
X8295Y19890D01*
X8407D01*
Y19831D01*
X8467D01*
Y19871D01*
X8637D01*
Y19660D01*
X8467D01*
Y19700D01*
X8407D01*
Y19640D01*
X8382D01*
Y19606D01*
X8567D01*
X8584Y19604D01*
X8594Y19600D01*
X8599Y19597D01*
X8613Y19587D01*
X8688Y19512D01*
X8698Y19498D01*
X8702Y19490D01*
X8705Y19482D01*
X8707Y19465D01*
Y19434D01*
X8717Y19421D01*
X8728Y19414D01*
X8732Y19416D01*
X8740Y19419D01*
X8757Y19421D01*
X9137D01*
Y19430D01*
X9347D01*
Y19280D01*
X9137D01*
Y19290D01*
X9072D01*
Y19265D01*
X8862D01*
Y19290D01*
X8817D01*
Y19271D01*
X8707D01*
Y19130D01*
X8714Y19129D01*
X8736Y19120D01*
X8755Y19106D01*
X8981Y18880D01*
X8995Y18861D01*
X9004Y18839D01*
X9007Y18815D01*
Y18040D01*
X9007Y18040D01*
X9007D01*
X9004Y18017D01*
X8995Y17995D01*
X8981Y17976D01*
X8431Y17426D01*
X8431Y17426D01*
X8412Y17412D01*
X8390Y17403D01*
X8390Y17403D01*
X8390Y17403D01*
D01*
X8390Y17403D01*
X8390Y17403D01*
X8367Y17400D01*
X5592D01*
X5568Y17403D01*
X5546Y17412D01*
X5528Y17426D01*
X5528Y17426D01*
X5528Y17426D01*
X5429Y17525D01*
X4769D01*
X4765Y17526D01*
X4761Y17526D01*
X4759Y17526D01*
X4759Y17526D01*
X4759D01*
X4755Y17527D01*
X4753Y17528D01*
X4751Y17529D01*
X4750Y17530D01*
X4744Y17532D01*
X4744Y17532D01*
X4744Y17532D01*
X4739Y17538D01*
X4733Y17543D01*
X4733Y17543D01*
X4733Y17543D01*
X4731Y17549D01*
X4730Y17550D01*
X4729Y17552D01*
X4729Y17554D01*
X4727Y17558D01*
Y17558D01*
X4727Y17558D01*
X4727Y17560D01*
X4727Y17564D01*
X4726Y17568D01*
Y17900D01*
X3144D01*
X3140Y17901D01*
X3136Y17901D01*
X3134Y17901D01*
X3134Y17901D01*
X3134D01*
X3130Y17902D01*
X3128Y17903D01*
X3126Y17904D01*
X3125Y17905D01*
X3119Y17907D01*
X3119Y17907D01*
X3119Y17907D01*
X3114Y17913D01*
X3108Y17918D01*
X3108Y17918D01*
X3108Y17918D01*
X3106Y17924D01*
X3105Y17925D01*
X3104Y17927D01*
X3104Y17929D01*
X3102Y17933D01*
Y17933D01*
X3102Y17933D01*
X3102Y17935D01*
X3102Y17939D01*
X3101Y17943D01*
Y18438D01*
X3102Y18442D01*
X3102Y18446D01*
X3102Y18448D01*
X3102Y18448D01*
Y18448D01*
X3104Y18452D01*
X3104Y18454D01*
X3105Y18456D01*
X3106Y18457D01*
X3108Y18463D01*
X3108Y18463D01*
X3108Y18463D01*
X3114Y18468D01*
X3119Y18474D01*
X3119Y18474D01*
X3119Y18474D01*
X3125Y18476D01*
X3126Y18477D01*
X3128Y18478D01*
X3130Y18479D01*
X3134Y18480D01*
X3134D01*
X3134Y18480D01*
X3136Y18481D01*
X3140Y18480D01*
X3144Y18481D01*
X3211D01*
X3220Y18504D01*
X3114Y18610D01*
X3112Y18614D01*
X3109Y18616D01*
X3108Y18618D01*
X3108Y18618D01*
X3108Y18618D01*
X3108Y18618D01*
X3107Y18622D01*
X3105Y18623D01*
X3105Y18625D01*
X3104Y18627D01*
X3104Y18629D01*
X3102Y18633D01*
X3102Y18633D01*
X3102Y18633D01*
Y18633D01*
X3102Y18635D01*
X3102Y18639D01*
X3101Y18643D01*
Y19563D01*
X3102Y19567D01*
X3102Y19571D01*
X3102Y19573D01*
X3102Y19573D01*
Y19573D01*
X3104Y19577D01*
X3104Y19579D01*
X3105Y19581D01*
X3106Y19582D01*
X3108Y19588D01*
X3108Y19588D01*
X3108Y19588D01*
X3114Y19593D01*
X3119Y19599D01*
X3119Y19599D01*
X3119Y19599D01*
X3125Y19601D01*
X3126Y19602D01*
X3128Y19603D01*
X3130Y19604D01*
X3134Y19605D01*
X3134D01*
X3134Y19605D01*
X3136Y19606D01*
X3140Y19605D01*
X3144Y19606D01*
X4640D01*
X4644Y19605D01*
X4648Y19605D01*
X4649Y19605D01*
X4649Y19605D01*
X4649D01*
X4653Y19604D01*
X4655Y19603D01*
X4657Y19602D01*
X4658Y19601D01*
X4664Y19599D01*
X4664Y19599D01*
X4664Y19599D01*
X4670Y19593D01*
X4675Y19588D01*
X4675Y19588D01*
X4675Y19588D01*
X4678Y19582D01*
X4678Y19581D01*
X4679Y19579D01*
X4680Y19577D01*
X4681Y19573D01*
Y19573D01*
X4681Y19573D01*
X4682Y19571D01*
X4682D01*
X4682Y19571D01*
D01*
X4682Y19566D01*
X4682Y19563D01*
Y19556D01*
X4682Y19556D01*
X5890D01*
X5894Y19555D01*
X5898Y19555D01*
X5899Y19555D01*
X5899Y19555D01*
X5899D01*
X5903Y19554D01*
X5905Y19553D01*
X5907Y19552D01*
X5908Y19551D01*
X5914Y19549D01*
X5914Y19549D01*
X5914Y19549D01*
X5920Y19543D01*
X5925Y19538D01*
X5925Y19538D01*
X5925Y19538D01*
X5928Y19532D01*
X5928Y19531D01*
X5929Y19529D01*
X5930Y19527D01*
X5931Y19523D01*
Y19523D01*
X5931Y19523D01*
X5932Y19521D01*
X5932Y19517D01*
X5932Y19513D01*
Y19092D01*
X5994Y19031D01*
X6111D01*
X6151Y19048D01*
X6153Y19050D01*
X6151Y19065D01*
Y19685D01*
X6142D01*
Y19896D01*
X6292D01*
Y19685D01*
X6282D01*
Y19093D01*
X6628Y18746D01*
X6832D01*
Y18607D01*
Y18606D01*
X6942D01*
X6959Y18604D01*
X6969Y18600D01*
X6974Y18597D01*
X6988Y18587D01*
X7063Y18512D01*
X7073Y18498D01*
X7076Y18492D01*
X7080Y18482D01*
X7082Y18465D01*
Y18265D01*
X7122D01*
Y18096D01*
X7122Y18096D01*
X7122Y18075D01*
X7122D01*
Y17906D01*
X7122Y17905D01*
X7122D01*
X7121Y17904D01*
X7144Y17881D01*
X7515D01*
X7557Y17923D01*
Y18165D01*
X7601D01*
Y18352D01*
X7552D01*
Y18479D01*
Y18607D01*
Y18734D01*
Y18738D01*
X7382D01*
Y18165D01*
X7407D01*
Y17915D01*
X7227D01*
Y18165D01*
X7251D01*
Y18738D01*
X7054D01*
X7037Y18740D01*
X7029Y18743D01*
X7021Y18747D01*
X7007Y18757D01*
X6900Y18865D01*
X6832D01*
Y18860D01*
X6602D01*
Y18988D01*
Y19127D01*
X6832D01*
Y19123D01*
X6934D01*
X6951Y19121D01*
X6966Y19114D01*
X6980Y19104D01*
X6990Y19090D01*
X6997Y19074D01*
X6999Y19057D01*
Y18951D01*
X7081Y18869D01*
X7463D01*
X7472Y18892D01*
X7170Y19194D01*
X7160Y19208D01*
X7157Y19216D01*
X7153Y19224D01*
X7151Y19240D01*
Y19681D01*
X7130Y19694D01*
X7119Y19690D01*
X7092Y19686D01*
X7065Y19690D01*
X7040Y19700D01*
X7040Y19700D01*
Y19700D01*
X7027Y19685D01*
Y19685D01*
X6907D01*
Y19615D01*
X6905Y19599D01*
X6902Y19591D01*
X6898Y19583D01*
X6888Y19569D01*
X6838Y19519D01*
X6832Y19514D01*
Y19496D01*
Y19368D01*
Y19241D01*
X6602D01*
Y19246D01*
X6521D01*
X6504Y19248D01*
X6496Y19251D01*
X6488Y19255D01*
X6474Y19265D01*
X6345Y19394D01*
X6335Y19408D01*
X6332Y19416D01*
X6328Y19424D01*
X6326Y19440D01*
Y20113D01*
X6229Y20210D01*
X6142D01*
Y20421D01*
X6261D01*
X6271Y20444D01*
X5936Y20778D01*
X5913Y20769D01*
X5906Y20529D01*
X5909Y20529D01*
X5913Y20527D01*
X5924Y20522D01*
X5938Y20512D01*
X6029Y20421D01*
X6102D01*
Y20210D01*
X5952D01*
Y20313D01*
X5865Y20400D01*
X5369D01*
X5292Y20323D01*
Y20165D01*
X5142D01*
Y20365D01*
X5142D01*
Y20372D01*
X5134Y20375D01*
X4111D01*
X4100Y20352D01*
X4107Y20343D01*
X4118Y20318D01*
X4121Y20290D01*
X4118Y20263D01*
X4107Y20238D01*
X4091Y20217D01*
X4069Y20200D01*
X4044Y20190D01*
X4017Y20186D01*
X3990Y20190D01*
X3965Y20200D01*
X3943Y20217D01*
X3937Y20225D01*
X3517D01*
X3500Y20227D01*
X3493Y20230D01*
X3484Y20234D01*
X3470Y20244D01*
X2956Y20759D01*
X2932Y20749D01*
Y20056D01*
X3937D01*
X3943Y20064D01*
X3965Y20081D01*
X3990Y20091D01*
X4017Y20095D01*
X4044Y20091D01*
X4069Y20081D01*
X4091Y20064D01*
X4107Y20043D01*
X4118Y20018D01*
X4121Y19990D01*
X4118Y19963D01*
X4107Y19938D01*
X4091Y19917D01*
X4069Y19900D01*
X4044Y19890D01*
X4017Y19886D01*
X3990Y19890D01*
X3965Y19900D01*
X3943Y19917D01*
X3937Y19925D01*
X2932D01*
Y18568D01*
X2932Y18564D01*
X2932Y18560D01*
X2931Y18558D01*
X2931Y18558D01*
Y18558D01*
X2930Y18554D01*
X2929Y18552D01*
X2928Y18550D01*
X2928Y18549D01*
X2925Y18543D01*
X2925Y18543D01*
X2925Y18543D01*
X2920Y18538D01*
X2914Y18532D01*
X2914Y18532D01*
X2914Y18532D01*
X2908Y18530D01*
X2907Y18529D01*
X2905Y18528D01*
X2903Y18527D01*
X2899Y18526D01*
X2899D01*
X2899Y18526D01*
X2898Y18526D01*
X2894Y18526D01*
X2890Y18525D01*
X1394D01*
X1390Y18526D01*
X1386Y18526D01*
X1384Y18526D01*
X1384Y18526D01*
X1384D01*
X1380Y18527D01*
X1378Y18528D01*
X1376Y18529D01*
X1375Y18530D01*
X1369Y18532D01*
X1369Y18532D01*
X1369Y18532D01*
X1364Y18538D01*
X1358Y18543D01*
X1358Y18543D01*
X1358Y18543D01*
X1356Y18549D01*
X1355Y18550D01*
X1354Y18552D01*
X1354Y18554D01*
X1352Y18558D01*
Y18558D01*
X1352Y18558D01*
X1352Y18560D01*
X1352Y18564D01*
X1351Y18568D01*
Y19900D01*
X894D01*
X890Y19901D01*
X886Y19901D01*
X884Y19901D01*
X884Y19901D01*
X884D01*
X880Y19902D01*
X878Y19903D01*
X876Y19904D01*
X875Y19905D01*
X869Y19907D01*
X869Y19907D01*
X869Y19907D01*
X864Y19913D01*
X858Y19918D01*
X858Y19918D01*
X858Y19918D01*
X856Y19924D01*
X855Y19925D01*
X854Y19927D01*
X854Y19929D01*
X852Y19933D01*
Y19933D01*
X852Y19933D01*
X852Y19935D01*
X852Y19939D01*
X851Y19943D01*
Y20838D01*
X852Y20842D01*
X852Y20846D01*
X852Y20848D01*
X852Y20848D01*
Y20848D01*
X854Y20852D01*
X854Y20854D01*
X855Y20856D01*
X856Y20857D01*
X858Y20863D01*
X858Y20863D01*
X858Y20863D01*
X864Y20868D01*
X869Y20874D01*
X869Y20874D01*
X869Y20874D01*
X875Y20876D01*
X876Y20877D01*
X878Y20878D01*
X878Y20903D01*
X876Y20904D01*
X875Y20905D01*
X869Y20907D01*
X869Y20907D01*
X869Y20907D01*
X864Y20913D01*
X858Y20918D01*
X858Y20918D01*
X858Y20918D01*
X856Y20924D01*
X855Y20925D01*
X854Y20927D01*
X854Y20929D01*
X852Y20933D01*
Y20933D01*
X852Y20933D01*
X852Y20935D01*
X852Y20939D01*
X851Y20943D01*
Y21813D01*
X852Y21817D01*
X852Y21821D01*
X852Y21823D01*
X852Y21823D01*
Y21823D01*
X854Y21827D01*
X854Y21829D01*
X855Y21831D01*
X856Y21832D01*
X858Y21838D01*
X858Y21838D01*
X858Y21838D01*
X864Y21843D01*
X869Y21849D01*
X869Y21849D01*
X869Y21849D01*
X875Y21851D01*
X876Y21852D01*
X878Y21853D01*
X880Y21854D01*
X884Y21855D01*
X884D01*
X884Y21855D01*
X886Y21855D01*
X890Y21855D01*
X894Y21856D01*
X1351D01*
Y22188D01*
X1352Y22192D01*
X1352Y22196D01*
X1352Y22198D01*
X1352Y22198D01*
Y22198D01*
X1354Y22202D01*
X1354Y22204D01*
X1354Y22205D01*
X1355Y22206D01*
X1356Y22208D01*
X1358Y22213D01*
X1358Y22213D01*
X1358Y22213D01*
X1358Y22213D01*
X1358Y22218D01*
X1358Y22218D01*
X1358D01*
X1358Y22218D01*
X1358Y22218D01*
X1358D01*
X1358Y22218D01*
X1358Y22218D01*
D01*
X1357Y22222D01*
X1354Y22225D01*
X1354Y22227D01*
X1354Y22227D01*
X1354Y22229D01*
X1352Y22233D01*
Y22233D01*
X1352Y22233D01*
X1352Y22235D01*
X1352Y22239D01*
X1351Y22243D01*
Y22324D01*
X1328Y22334D01*
X1261Y22267D01*
X1254Y22262D01*
X1247Y22257D01*
X1232Y22250D01*
X1222Y22249D01*
Y22238D01*
Y22112D01*
X1022D01*
Y22121D01*
X902D01*
Y22085D01*
X732D01*
Y22296D01*
X902D01*
Y22252D01*
X1022D01*
Y22262D01*
Y22365D01*
Y22375D01*
X892D01*
Y22335D01*
X722D01*
Y22546D01*
X892D01*
Y22506D01*
X926D01*
Y23590D01*
X928Y23607D01*
X930Y23612D01*
X935Y23623D01*
X945Y23637D01*
X1445Y24137D01*
X1459Y24147D01*
X1468Y24151D01*
X1475Y24154D01*
X1492Y24156D01*
D02*
G37*
%LPD*%
G36*
X5557Y18865D02*
X5667D01*
Y18806D01*
X5952D01*
Y18846D01*
X6102D01*
Y18635D01*
X5952D01*
Y18675D01*
X5667D01*
Y18665D01*
X5557D01*
Y18481D01*
X6265D01*
X6269Y18480D01*
X6273Y18480D01*
X6274Y18480D01*
X6274Y18480D01*
X6274D01*
X6278Y18479D01*
X6280Y18478D01*
X6282Y18477D01*
X6283Y18476D01*
X6289Y18474D01*
X6289Y18474D01*
X6289Y18474D01*
X6295Y18468D01*
X6300Y18463D01*
X6300Y18463D01*
X6300Y18463D01*
X6303Y18457D01*
X6303Y18456D01*
X6304Y18454D01*
X6305Y18452D01*
X6306Y18448D01*
Y18448D01*
X6306Y18448D01*
X6307Y18446D01*
X6307Y18442D01*
X6307Y18438D01*
Y18068D01*
X6307Y18064D01*
X6307Y18060D01*
X6306Y18058D01*
X6306Y18058D01*
Y18058D01*
X6305Y18054D01*
X6304Y18052D01*
X6303Y18050D01*
X6303Y18049D01*
X6300Y18043D01*
X6300Y18043D01*
X6300Y18043D01*
X6295Y18038D01*
X6289Y18032D01*
X6289Y18032D01*
X6289Y18032D01*
X6283Y18030D01*
X6282Y18029D01*
X6280Y18028D01*
X6278Y18027D01*
X6274Y18026D01*
X6274D01*
X6274Y18026D01*
X6273Y18026D01*
X6269Y18026D01*
X6265Y18025D01*
X5557D01*
Y17653D01*
X5629Y17581D01*
X8329D01*
X8826Y18078D01*
Y18778D01*
X8653Y18951D01*
X8519D01*
X8462Y18894D01*
X8471Y18871D01*
X8552D01*
Y18660D01*
X8464D01*
X8448Y18644D01*
X8457Y18621D01*
X8552D01*
Y18410D01*
X8402D01*
Y18484D01*
X7782D01*
Y18479D01*
Y18352D01*
X7732D01*
Y18165D01*
X7737D01*
Y17915D01*
X7712D01*
X7710Y17904D01*
X7707Y17897D01*
X7703Y17888D01*
X7693Y17874D01*
X7588Y17769D01*
X7574Y17759D01*
X7563Y17754D01*
X7559Y17752D01*
X7542Y17750D01*
X7117D01*
X7100Y17752D01*
X7093Y17755D01*
X7084Y17759D01*
X7070Y17769D01*
X6970Y17869D01*
X6960Y17883D01*
X6957Y17891D01*
X6953Y17899D01*
X6952Y17905D01*
X6912D01*
Y18076D01*
D01*
Y18075D01*
X6912Y18076D01*
Y18096D01*
X6912D01*
Y18265D01*
X6951D01*
Y18438D01*
X6915Y18475D01*
X6832D01*
Y18352D01*
X6602D01*
Y18357D01*
X6510D01*
X6493Y18359D01*
X6486Y18362D01*
X6477Y18366D01*
X6463Y18376D01*
X6270Y18569D01*
X6270Y18569D01*
X6204Y18635D01*
X6142D01*
Y18846D01*
X6186D01*
X6196Y18869D01*
X6165Y18900D01*
X5967D01*
X5950Y18902D01*
X5942Y18905D01*
X5934Y18909D01*
X5920Y18919D01*
X5815Y19025D01*
X5557D01*
Y18865D01*
D02*
G37*
G36*
X3144Y19565D02*
Y19565D01*
X3142Y19559D01*
Y19559D01*
D01*
X3142Y19559D01*
Y18647D01*
X3142Y18647D01*
X3142Y18643D01*
X3142Y18641D01*
X3143Y18639D01*
X3301Y18481D01*
X3313D01*
X3328Y18478D01*
X3342Y18469D01*
X3342Y18469D01*
X3350Y18461D01*
X5502D01*
X5508Y18469D01*
X5517Y18475D01*
Y18665D01*
Y18865D01*
Y19065D01*
X5892D01*
Y19092D01*
X5892Y19092D01*
X5892Y19092D01*
Y19513D01*
X5886Y19515D01*
X5886D01*
D01*
X5886Y19515D01*
X4642D01*
Y19562D01*
X4642Y19562D01*
D01*
X4636Y19565D01*
X4636Y19565D01*
X3144D01*
D01*
D02*
G37*
G36*
Y18440D02*
Y18440D01*
X3142Y18434D01*
Y18434D01*
D01*
X3142Y18434D01*
Y17943D01*
X3148Y17940D01*
X3148D01*
D01*
X3148Y17940D01*
X4767D01*
Y17900D01*
Y17568D01*
X4773Y17565D01*
X4773D01*
D01*
X4773Y17565D01*
X5429D01*
X5429Y17565D01*
X5429Y17565D01*
X5517D01*
Y17653D01*
X5517Y17653D01*
X5517Y17653D01*
Y18025D01*
Y18065D01*
X6265D01*
X6267Y18072D01*
Y18072D01*
D01*
X6267Y18072D01*
Y18438D01*
X6261Y18440D01*
X6261D01*
D01*
X6261Y18440D01*
X5538D01*
X5537Y18440D01*
X5536Y18438D01*
X5533Y18435D01*
X5531Y18432D01*
X5528Y18430D01*
X5525Y18427D01*
X5521Y18425D01*
X5518Y18423D01*
X5514Y18422D01*
X5510Y18421D01*
X5506D01*
X5502Y18420D01*
X3350D01*
X3342Y18422D01*
X3335Y18423D01*
X3335Y18423D01*
X3335D01*
X3321Y18432D01*
X3321Y18432D01*
X3316Y18438D01*
X3313Y18440D01*
X3309Y18440D01*
X3301D01*
X3301Y18440D01*
X3301Y18440D01*
X3144D01*
D01*
D02*
G37*
G36*
X894Y20840D02*
X892Y20834D01*
Y20834D01*
D01*
X892Y20834D01*
Y19943D01*
X898Y19940D01*
X898D01*
D01*
X898Y19940D01*
X1392D01*
Y19900D01*
Y18568D01*
X1398Y18565D01*
X1398D01*
D01*
X1398Y18565D01*
X2890D01*
X2892Y18572D01*
Y18572D01*
D01*
X2892Y18572D01*
Y19925D01*
Y20823D01*
X2874Y20840D01*
X894D01*
Y20840D01*
D02*
G37*
G36*
X1057Y23563D02*
Y22515D01*
X1178D01*
X1192Y22536D01*
X1191Y22538D01*
X1187Y22565D01*
X1191Y22593D01*
X1201Y22618D01*
X1218Y22639D01*
X1240Y22656D01*
X1265Y22666D01*
X1292Y22670D01*
X1319Y22666D01*
X1330Y22662D01*
X1351Y22675D01*
Y23713D01*
X1352Y23717D01*
X1352Y23721D01*
X1352Y23723D01*
X1352Y23723D01*
Y23723D01*
X1354Y23727D01*
X1354Y23729D01*
X1355Y23731D01*
X1356Y23732D01*
X1358Y23738D01*
X1358Y23738D01*
X1358Y23738D01*
X1364Y23743D01*
X1369Y23749D01*
X1369Y23749D01*
X1369Y23749D01*
X1375Y23751D01*
X1376Y23752D01*
X1378Y23753D01*
X1380Y23754D01*
X1384Y23755D01*
X1384D01*
X1384Y23755D01*
X1386Y23755D01*
X1390Y23755D01*
X1394Y23756D01*
X2890D01*
X2894Y23755D01*
X2898Y23755D01*
X2899Y23755D01*
X2899Y23755D01*
X2899D01*
X2903Y23754D01*
X2905Y23753D01*
X2907Y23752D01*
X2908Y23751D01*
X2914Y23749D01*
X2914Y23749D01*
X2914Y23749D01*
X2920Y23743D01*
X2925Y23738D01*
X2925Y23738D01*
X2925Y23738D01*
X2928Y23732D01*
X2928Y23731D01*
X2929Y23729D01*
X2930Y23727D01*
X2931Y23723D01*
Y23723D01*
X2931Y23723D01*
X2932Y23721D01*
X2932Y23717D01*
X2932Y23713D01*
Y22243D01*
X2932Y22239D01*
X2932Y22235D01*
X2931Y22233D01*
X2931Y22233D01*
Y22233D01*
X2930Y22229D01*
X2929Y22227D01*
X2929Y22226D01*
X2929Y22225D01*
X2927Y22223D01*
X2925Y22218D01*
X2925Y22218D01*
X2925Y22218D01*
X2925Y22218D01*
X2925Y22213D01*
X2925Y22213D01*
D01*
X2925Y22213D01*
X2925Y22213D01*
X2925D01*
X2925Y22213D01*
X2925Y22213D01*
D01*
X2927Y22209D01*
X2929Y22206D01*
X2929Y22204D01*
X2929Y22204D01*
X2930Y22202D01*
X2931Y22198D01*
Y22198D01*
X2931Y22198D01*
X2932Y22196D01*
X2932Y22192D01*
X2932Y22188D01*
Y20967D01*
X2953Y20947D01*
X2976Y20957D01*
Y21388D01*
X2977Y21392D01*
X2977Y21396D01*
X2977Y21398D01*
X2977Y21398D01*
Y21398D01*
X2979Y21402D01*
X2979Y21404D01*
X2980Y21406D01*
X2981Y21407D01*
X2983Y21413D01*
X2983Y21413D01*
X2983Y21413D01*
X2989Y21418D01*
X2994Y21424D01*
X2994Y21424D01*
X2994Y21424D01*
X3000Y21426D01*
X3001Y21427D01*
X3003Y21428D01*
X3005Y21429D01*
X3009Y21430D01*
X3009D01*
X3009Y21430D01*
X3011Y21430D01*
Y21431D01*
X3011Y21430D01*
X3016Y21431D01*
X3019Y21431D01*
X3026D01*
X3026D01*
Y22840D01*
X3030Y22911D01*
X3044Y22981D01*
X3067Y23048D01*
X3098Y23111D01*
X3137Y23170D01*
X3184Y23223D01*
X3237Y23270D01*
X3296Y23309D01*
X3360Y23340D01*
X3427Y23363D01*
X3496Y23377D01*
X3567Y23382D01*
X3637Y23377D01*
X3707Y23363D01*
X3774Y23340D01*
X3837Y23309D01*
X3896Y23270D01*
X3949Y23223D01*
X3996Y23170D01*
X4035Y23111D01*
X4067Y23048D01*
X4089Y22981D01*
X4103Y22911D01*
X4108Y22840D01*
Y21431D01*
X5153D01*
X5153Y21432D01*
X5156Y21439D01*
X5160Y21448D01*
X5170Y21462D01*
X5210Y21502D01*
X5201Y21525D01*
X4194D01*
X4190Y21526D01*
X4186Y21526D01*
X4184Y21526D01*
X4184Y21526D01*
X4184D01*
X4180Y21527D01*
X4178Y21528D01*
X4176Y21529D01*
X4175Y21530D01*
X4169Y21532D01*
X4169Y21532D01*
X4169Y21532D01*
X4164Y21538D01*
X4158Y21543D01*
X4158Y21543D01*
X4158Y21543D01*
X4156Y21549D01*
X4155Y21550D01*
X4154Y21552D01*
X4154Y21554D01*
X4152Y21558D01*
Y21558D01*
X4152Y21558D01*
X4152Y21560D01*
X4152Y21564D01*
X4151Y21568D01*
Y22090D01*
X4152Y22094D01*
X4152Y22098D01*
X4152Y22100D01*
X4152Y22100D01*
Y22100D01*
X4154Y22104D01*
X4154Y22106D01*
X4155Y22108D01*
X4156Y22109D01*
X4158Y22115D01*
X4158Y22115D01*
X4158Y22115D01*
X4164Y22120D01*
X4169Y22126D01*
X4169Y22126D01*
X4169Y22126D01*
X4175Y22128D01*
X4176Y22129D01*
X4178Y22130D01*
X4180Y22130D01*
X4184Y22132D01*
X4184D01*
X4184Y22132D01*
X4186Y22132D01*
X4190Y22132D01*
X4194Y22133D01*
X5118D01*
Y23038D01*
X5119Y23047D01*
X5121Y23054D01*
X5121Y23054D01*
X5121Y23054D01*
X5127Y23063D01*
X5130Y23067D01*
X5130Y23067D01*
X5130Y23067D01*
X5130Y23067D01*
X5130Y23067D01*
X5132Y23069D01*
X5132Y23069D01*
X5132Y23069D01*
X5138Y23074D01*
X5145Y23078D01*
X5145Y23078D01*
X5145Y23078D01*
X5152Y23080D01*
X5160Y23081D01*
X5160Y23081D01*
X5160Y23081D01*
X5640D01*
X5644Y23080D01*
X5648Y23080D01*
X5649Y23080D01*
X5649Y23080D01*
X5649D01*
X5653Y23079D01*
X5655Y23078D01*
X5657Y23077D01*
X5658Y23076D01*
X5664Y23074D01*
X5664Y23074D01*
X5664Y23074D01*
X5670Y23068D01*
X5675Y23063D01*
X5675Y23063D01*
X5675Y23063D01*
X5678Y23057D01*
X5678Y23056D01*
X5679Y23054D01*
X5680Y23052D01*
X5681Y23048D01*
Y23048D01*
X5681Y23048D01*
X5682Y23046D01*
X5682Y23042D01*
X5682Y23038D01*
Y21868D01*
X5682Y21866D01*
X5682Y21866D01*
X5682Y21864D01*
X5682Y21860D01*
X5681Y21858D01*
X5680Y21854D01*
X5679Y21852D01*
X5679Y21852D01*
X5679Y21850D01*
X5677Y21847D01*
X5675Y21843D01*
X5673Y21841D01*
Y21730D01*
X5675Y21728D01*
X5677Y21724D01*
X5679Y21721D01*
X5679Y21719D01*
X5679Y21719D01*
X5680Y21717D01*
X5681Y21713D01*
X5682Y21711D01*
X5682Y21707D01*
X5682Y21705D01*
X5682Y21705D01*
X5682Y21703D01*
Y21568D01*
X5740Y21556D01*
X5867D01*
X5884Y21554D01*
X5894Y21550D01*
X5899Y21547D01*
X5913Y21537D01*
X6029Y21421D01*
X6077D01*
Y21210D01*
X5927D01*
X5920Y20980D01*
X6563Y20337D01*
X6573Y20323D01*
X6576Y20317D01*
X6580Y20307D01*
X6582Y20290D01*
Y19856D01*
X6667D01*
Y19896D01*
X6776D01*
Y20163D01*
X6145Y20794D01*
X6135Y20808D01*
X6133Y20814D01*
X6128Y20824D01*
X6126Y20840D01*
Y21210D01*
X6117D01*
Y21421D01*
X6267D01*
Y21210D01*
X6257D01*
Y20868D01*
X6888Y20237D01*
X6898Y20223D01*
X6901Y20217D01*
X6905Y20207D01*
X6907Y20190D01*
Y20176D01*
X7072D01*
Y20161D01*
X7670D01*
X7826Y20318D01*
Y20610D01*
X7818Y20617D01*
X7801Y20638D01*
X7791Y20663D01*
X7788Y20684D01*
X7759D01*
Y20680D01*
Y20615D01*
X7692D01*
X7684Y20612D01*
X7667Y20610D01*
X7615D01*
X7580Y20575D01*
X7580Y20574D01*
X7575Y20562D01*
X7573Y20558D01*
X7571Y20555D01*
X7563Y20544D01*
X7563Y20544D01*
X7472Y20453D01*
Y20371D01*
X7477D01*
Y20210D01*
X7337D01*
Y20371D01*
X7341D01*
Y20480D01*
X7343Y20497D01*
X7350Y20513D01*
X7360Y20527D01*
X7470Y20637D01*
X7484Y20647D01*
X7492Y20651D01*
X7493Y20651D01*
X7503Y20674D01*
X7499Y20684D01*
X7317D01*
X7282Y20670D01*
D01*
X7280Y20657D01*
D01*
X7282Y20640D01*
Y20371D01*
X7287D01*
Y20210D01*
X7147D01*
Y20371D01*
X7151D01*
Y20613D01*
X7149Y20615D01*
X6989D01*
Y20663D01*
X6966Y20672D01*
X6942Y20648D01*
Y20485D01*
X6772D01*
Y20696D01*
X6805D01*
X6810Y20702D01*
X6846Y20737D01*
X6836Y20760D01*
X6792D01*
Y20971D01*
X6814D01*
X6820Y20984D01*
X6823Y20994D01*
X6810Y21004D01*
X6805Y21010D01*
X6772D01*
Y21221D01*
X6942D01*
Y21221D01*
X6944D01*
X6962Y21238D01*
Y21360D01*
X7172D01*
Y21190D01*
X7147D01*
Y21126D01*
X7174D01*
Y21013D01*
X7174Y21013D01*
X7174Y21013D01*
X7174Y21005D01*
Y21001D01*
Y20996D01*
X7174Y20988D01*
X7174Y20988D01*
X7174D01*
Y20876D01*
Y20862D01*
X7236D01*
Y21210D01*
X7227D01*
Y21421D01*
X7236D01*
Y21526D01*
X7238Y21542D01*
X7242Y21550D01*
X7245Y21558D01*
X7255Y21572D01*
X7345Y21662D01*
X7359Y21672D01*
X7368Y21676D01*
X7375Y21679D01*
X7392Y21681D01*
X7487D01*
Y21705D01*
X7536D01*
Y21785D01*
X7532D01*
Y21800D01*
X7517D01*
X7500Y21802D01*
X7492Y21805D01*
X7484Y21809D01*
X7470Y21819D01*
X5265Y24025D01*
X1519D01*
X1057Y23563D01*
D02*
G37*
G36*
X1394Y23715D02*
Y23715D01*
X1392Y23709D01*
Y23709D01*
D01*
X1392Y23709D01*
Y22675D01*
Y22607D01*
X1398Y22598D01*
X1405Y22582D01*
X1407Y22565D01*
X1405Y22549D01*
X1398Y22533D01*
X1392Y22524D01*
Y22324D01*
Y22243D01*
X1392Y22241D01*
D01*
X1392Y22241D01*
X1392Y22241D01*
X1392Y22240D01*
X1542D01*
Y22262D01*
X1742D01*
Y22240D01*
X2891D01*
X2891Y22241D01*
X2892Y22243D01*
Y23713D01*
X2886Y23715D01*
X2886D01*
D01*
X2886Y23715D01*
X1394D01*
D01*
D02*
G37*
G36*
X5158Y23038D02*
X5158Y23038D01*
D01*
Y22113D01*
Y22092D01*
X4194D01*
X4192Y22092D01*
X4192Y22090D01*
Y21568D01*
X4192Y21566D01*
X4194Y21565D01*
X5641D01*
X5642Y21568D01*
Y21703D01*
X5641Y21705D01*
X5640Y21707D01*
X5638Y21708D01*
X5637Y21709D01*
X5636Y21711D01*
X5635Y21713D01*
X5634Y21714D01*
X5633Y21716D01*
X5633Y21718D01*
Y21720D01*
X5632Y21722D01*
Y21849D01*
X5633Y21851D01*
Y21853D01*
X5633Y21855D01*
X5634Y21857D01*
X5635Y21858D01*
X5636Y21860D01*
X5637Y21862D01*
X5638Y21863D01*
X5640Y21864D01*
X5641Y21866D01*
X5642Y21868D01*
Y23038D01*
X5641Y23040D01*
X5640Y23040D01*
X5160D01*
X5158Y23038D01*
D02*
G37*
G36*
X1392Y22190D02*
X1392Y22188D01*
Y21836D01*
Y21815D01*
X894D01*
X892Y21815D01*
X892Y21813D01*
Y20943D01*
X892Y20941D01*
X894Y20940D01*
X2822D01*
X2822Y20940D01*
X2822Y20940D01*
X2892D01*
Y22188D01*
X2891Y22190D01*
X2891Y22190D01*
X1392D01*
X1392Y22190D01*
D02*
G37*
G36*
X3020Y21390D02*
X3017Y21384D01*
X3017Y21384D01*
Y20957D01*
X3017Y20957D01*
X3017Y20957D01*
Y20883D01*
X3484Y20415D01*
X5199D01*
X5295Y20512D01*
X5309Y20522D01*
X5317Y20526D01*
X5325Y20529D01*
X5342Y20531D01*
X5865D01*
X5867Y20599D01*
X5879Y20981D01*
D01*
X5880Y21001D01*
X5891Y21373D01*
X5874Y21390D01*
X5305D01*
X5290Y21371D01*
X5292Y21365D01*
X5292D01*
X5292Y21365D01*
Y21165D01*
X5142D01*
Y21365D01*
X5151D01*
Y21390D01*
X3020D01*
Y21390D01*
D02*
G37*
D10*
X10467Y-9D02*
Y7890D01*
X67D01*
Y-9D02*
Y7890D01*
X10467Y-9D02*
X67D01*
X10467Y8490D02*
Y16390D01*
X67D01*
Y8490D02*
Y16390D01*
X10467Y8490D02*
X67D01*
X10467Y16990D02*
Y24890D01*
X67D01*
Y16990D02*
Y24890D01*
X10467Y16990D02*
X67D01*
D11*
X10267Y190D02*
Y7690D01*
X267D01*
Y190D02*
Y7690D01*
X10267Y190D02*
X267D01*
X10267Y8690D02*
Y16190D01*
X267D01*
Y8690D02*
Y16190D01*
X10267Y8690D02*
X267D01*
X10267Y17190D02*
Y24690D01*
X267D01*
Y17190D02*
Y24690D01*
X10267Y17190D02*
X267D01*
X6972Y4190D02*
X6942Y4221D01*
X6972Y4046D02*
Y4190D01*
X7017Y4001D02*
X6972Y4046D01*
X7082Y4001D02*
X7017D01*
X7757D02*
X7667D01*
X8117Y3640D02*
X7757Y4001D01*
X8202Y3640D02*
X8117D01*
X7492Y3965D02*
Y4015D01*
X7522Y3935D02*
X7492Y3965D01*
X7667Y3935D02*
X7522D01*
X7792Y4065D02*
X7667D01*
X8027Y4301D02*
X7792Y4065D01*
X8027Y4301D02*
Y4390D01*
X7842Y3740D02*
X7667D01*
X7182Y3675D02*
X7082D01*
X7602D02*
X7517Y3590D01*
X7082Y3740D02*
X6942D01*
X6972Y3935D02*
X6857Y4051D01*
X7082Y3935D02*
X6972D01*
X7082Y3870D02*
X6872D01*
X7667Y3740D02*
X7082D01*
X7302Y3805D02*
X7082D01*
X6972Y12690D02*
X6942Y12721D01*
X6972Y12546D02*
Y12690D01*
X7017Y12500D02*
X6972Y12546D01*
X7082Y12500D02*
X7017D01*
X7757D02*
X7667D01*
X8117Y12140D02*
X7757Y12500D01*
X8202Y12140D02*
X8117D01*
X7492Y12465D02*
Y12515D01*
X7522Y12436D02*
X7492Y12465D01*
X7667Y12436D02*
X7522D01*
X7792Y12565D02*
X7667D01*
X8027Y12801D02*
X7792Y12565D01*
X8027Y12801D02*
Y12890D01*
X7842Y12240D02*
X7667D01*
X7182Y12175D02*
X7082D01*
X7602D02*
X7517Y12090D01*
X7082Y12240D02*
X6942D01*
X6972Y12436D02*
X6857Y12550D01*
X7082Y12436D02*
X6972D01*
X7082Y12371D02*
X6872D01*
X7667Y12240D02*
X7082D01*
X7302Y12305D02*
X7082D01*
X6972Y21190D02*
X6942Y21221D01*
X6972Y21046D02*
Y21190D01*
X7017Y21001D02*
X6972Y21046D01*
X7082Y21001D02*
X7017D01*
X7757D02*
X7667D01*
X8117Y20640D02*
X7757Y21001D01*
X8202Y20640D02*
X8117D01*
X7492Y20965D02*
Y21015D01*
X7522Y20935D02*
X7492Y20965D01*
X7667Y20935D02*
X7522D01*
X7792Y21065D02*
X7667D01*
X8027Y21301D02*
X7792Y21065D01*
X8027Y21301D02*
Y21390D01*
X7842Y20740D02*
X7667D01*
X7182Y20675D02*
X7082D01*
X7602D02*
X7517Y20590D01*
X7082Y20740D02*
X6942D01*
X6972Y20935D02*
X6857Y21051D01*
X7082Y20935D02*
X6972D01*
X7082Y20871D02*
X6872D01*
X7667Y20740D02*
X7082D01*
X7302Y20805D02*
X7082D01*
D12*
X7667Y4065D02*
D03*
Y4001D02*
D03*
Y3935D02*
D03*
Y3870D02*
D03*
Y3805D02*
D03*
Y3740D02*
D03*
Y3675D02*
D03*
Y3610D02*
D03*
X7082Y4065D02*
D03*
Y4001D02*
D03*
Y3935D02*
D03*
Y3870D02*
D03*
Y3805D02*
D03*
Y3740D02*
D03*
Y3675D02*
D03*
Y3610D02*
D03*
X7667Y12565D02*
D03*
Y12500D02*
D03*
Y12436D02*
D03*
Y12371D02*
D03*
Y12305D02*
D03*
Y12240D02*
D03*
Y12175D02*
D03*
Y12110D02*
D03*
X7082Y12565D02*
D03*
Y12500D02*
D03*
Y12436D02*
D03*
Y12371D02*
D03*
Y12305D02*
D03*
Y12240D02*
D03*
Y12175D02*
D03*
Y12110D02*
D03*
X7667Y21065D02*
D03*
Y21001D02*
D03*
Y20935D02*
D03*
Y20871D02*
D03*
Y20805D02*
D03*
Y20740D02*
D03*
Y20675D02*
D03*
Y20610D02*
D03*
X7082Y21065D02*
D03*
Y21001D02*
D03*
Y20935D02*
D03*
Y20871D02*
D03*
Y20805D02*
D03*
Y20740D02*
D03*
Y20675D02*
D03*
Y20610D02*
D03*
D13*
X7302Y4315D02*
D03*
X7492D02*
D03*
X9282Y4140D02*
D03*
X9092D02*
D03*
X9077Y3890D02*
D03*
X9267D02*
D03*
X8027Y4390D02*
D03*
X8217D02*
D03*
X9282Y4365D02*
D03*
X9092D02*
D03*
X8202Y3640D02*
D03*
X8392D02*
D03*
X8782Y3615D02*
D03*
X8592D02*
D03*
X9077Y3640D02*
D03*
X9267D02*
D03*
X8602Y3365D02*
D03*
X8792D02*
D03*
X7807Y5365D02*
D03*
X7617D02*
D03*
X6677Y3865D02*
D03*
X6867D02*
D03*
X9077Y2591D02*
D03*
X9267D02*
D03*
X9077Y3116D02*
D03*
X9267D02*
D03*
X6002Y4315D02*
D03*
X6192D02*
D03*
X6027Y3315D02*
D03*
X6217D02*
D03*
X8477Y1766D02*
D03*
X8667D02*
D03*
X8477Y1515D02*
D03*
X8667D02*
D03*
X6027Y1741D02*
D03*
X6217D02*
D03*
X6027Y2791D02*
D03*
X6217D02*
D03*
X7302Y12815D02*
D03*
X7492D02*
D03*
X9282Y12640D02*
D03*
X9092D02*
D03*
X9077Y12390D02*
D03*
X9267D02*
D03*
X8027Y12890D02*
D03*
X8217D02*
D03*
X9282Y12865D02*
D03*
X9092D02*
D03*
X8202Y12140D02*
D03*
X8392D02*
D03*
X8782Y12115D02*
D03*
X8592D02*
D03*
X9077Y12140D02*
D03*
X9267D02*
D03*
X8602Y11865D02*
D03*
X8792D02*
D03*
X7807Y13865D02*
D03*
X7617D02*
D03*
X6677Y12365D02*
D03*
X6867D02*
D03*
X9077Y11090D02*
D03*
X9267D02*
D03*
X9077Y11615D02*
D03*
X9267D02*
D03*
X6002Y12815D02*
D03*
X6192D02*
D03*
X6027Y11815D02*
D03*
X6217D02*
D03*
X8477Y10265D02*
D03*
X8667D02*
D03*
X8477Y10015D02*
D03*
X8667D02*
D03*
X6027Y10240D02*
D03*
X6217D02*
D03*
X6027Y11290D02*
D03*
X6217D02*
D03*
X7302Y21315D02*
D03*
X7492D02*
D03*
X9282Y21140D02*
D03*
X9092D02*
D03*
X9077Y20890D02*
D03*
X9267D02*
D03*
X8027Y21390D02*
D03*
X8217D02*
D03*
X9282Y21365D02*
D03*
X9092D02*
D03*
X8202Y20640D02*
D03*
X8392D02*
D03*
X8782Y20615D02*
D03*
X8592D02*
D03*
X9077Y20640D02*
D03*
X9267D02*
D03*
X8602Y20365D02*
D03*
X8792D02*
D03*
X7807Y22365D02*
D03*
X7617D02*
D03*
X6677Y20865D02*
D03*
X6867D02*
D03*
X9077Y19590D02*
D03*
X9267D02*
D03*
X9077Y20115D02*
D03*
X9267D02*
D03*
X6002Y21315D02*
D03*
X6192D02*
D03*
X6027Y20315D02*
D03*
X6217D02*
D03*
X8477Y18765D02*
D03*
X8667D02*
D03*
X8477Y18515D02*
D03*
X8667D02*
D03*
X6027Y18740D02*
D03*
X6217D02*
D03*
X6027Y19790D02*
D03*
X6217D02*
D03*
D14*
X5211Y1766D02*
D03*
X5338D02*
D03*
X5465D02*
D03*
X5592D02*
D03*
X5211Y1245D02*
D03*
X5338D02*
D03*
X5465D02*
D03*
X5592D02*
D03*
X5211Y2766D02*
D03*
X5338D02*
D03*
X5465D02*
D03*
X5592D02*
D03*
X5211Y2245D02*
D03*
X5338D02*
D03*
X5465D02*
D03*
X5592D02*
D03*
X5598Y3265D02*
D03*
X5471D02*
D03*
X5344D02*
D03*
X5217D02*
D03*
X5598Y3785D02*
D03*
X5471D02*
D03*
X5344D02*
D03*
X5217D02*
D03*
X5598Y4265D02*
D03*
X5471D02*
D03*
X5344D02*
D03*
X5217D02*
D03*
X5598Y4785D02*
D03*
X5471D02*
D03*
X5344D02*
D03*
X5217D02*
D03*
X8392Y4390D02*
D03*
X8519D02*
D03*
X8646D02*
D03*
X8773D02*
D03*
X8392Y3871D02*
D03*
X8519D02*
D03*
X8646D02*
D03*
X8773D02*
D03*
X5211Y10265D02*
D03*
X5338D02*
D03*
X5465D02*
D03*
X5592D02*
D03*
X5211Y9746D02*
D03*
X5338D02*
D03*
X5465D02*
D03*
X5592D02*
D03*
X5211Y11265D02*
D03*
X5338D02*
D03*
X5465D02*
D03*
X5592D02*
D03*
X5211Y10746D02*
D03*
X5338D02*
D03*
X5465D02*
D03*
X5592D02*
D03*
X5598Y11765D02*
D03*
X5471D02*
D03*
X5344D02*
D03*
X5217D02*
D03*
X5598Y12286D02*
D03*
X5471D02*
D03*
X5344D02*
D03*
X5217D02*
D03*
X5598Y12765D02*
D03*
X5471D02*
D03*
X5344D02*
D03*
X5217D02*
D03*
X5598Y13285D02*
D03*
X5471D02*
D03*
X5344D02*
D03*
X5217D02*
D03*
X8392Y12890D02*
D03*
X8519D02*
D03*
X8646D02*
D03*
X8773D02*
D03*
X8392Y12371D02*
D03*
X8519D02*
D03*
X8646D02*
D03*
X8773D02*
D03*
X5211Y18765D02*
D03*
X5338D02*
D03*
X5465D02*
D03*
X5592D02*
D03*
X5211Y18246D02*
D03*
X5338D02*
D03*
X5465D02*
D03*
X5592D02*
D03*
X5211Y19765D02*
D03*
X5338D02*
D03*
X5465D02*
D03*
X5592D02*
D03*
X5211Y19246D02*
D03*
X5338D02*
D03*
X5465D02*
D03*
X5592D02*
D03*
X5598Y20265D02*
D03*
X5471D02*
D03*
X5344D02*
D03*
X5217D02*
D03*
X5598Y20785D02*
D03*
X5471D02*
D03*
X5344D02*
D03*
X5217D02*
D03*
X5598Y21265D02*
D03*
X5471D02*
D03*
X5344D02*
D03*
X5217D02*
D03*
X5598Y21785D02*
D03*
X5471D02*
D03*
X5344D02*
D03*
X5217D02*
D03*
X8392Y21390D02*
D03*
X8519D02*
D03*
X8646D02*
D03*
X8773D02*
D03*
X8392Y20871D02*
D03*
X8519D02*
D03*
X8646D02*
D03*
X8773D02*
D03*
D15*
X5417Y815D02*
D03*
X5727D02*
D03*
X5442Y5215D02*
D03*
X5752D02*
D03*
X1267Y5815D02*
D03*
X1577D02*
D03*
X1267Y6190D02*
D03*
X1577D02*
D03*
X1567Y2241D02*
D03*
X1257D02*
D03*
X1567Y2641D02*
D03*
X1257D02*
D03*
X5417Y9315D02*
D03*
X5727D02*
D03*
X5442Y13715D02*
D03*
X5752D02*
D03*
X1267Y14315D02*
D03*
X1577D02*
D03*
X1267Y14690D02*
D03*
X1577D02*
D03*
X1567Y10740D02*
D03*
X1257D02*
D03*
X1567Y11140D02*
D03*
X1257D02*
D03*
X5417Y17815D02*
D03*
X5727D02*
D03*
X5442Y22215D02*
D03*
X5752D02*
D03*
X1267Y22815D02*
D03*
X1577D02*
D03*
X1267Y23190D02*
D03*
X1577D02*
D03*
X1567Y19240D02*
D03*
X1257D02*
D03*
X1567Y19640D02*
D03*
X1257D02*
D03*
D16*
X8367Y5206D02*
D03*
Y5015D02*
D03*
X7067Y4276D02*
D03*
Y4465D02*
D03*
X8067Y5081D02*
D03*
Y4890D02*
D03*
X8192Y4081D02*
D03*
Y3890D02*
D03*
X7017Y1181D02*
D03*
Y990D02*
D03*
X6967Y3281D02*
D03*
Y3091D02*
D03*
X8367Y13705D02*
D03*
Y13515D02*
D03*
X7067Y12775D02*
D03*
Y12965D02*
D03*
X8067Y13580D02*
D03*
Y13390D02*
D03*
X8192Y12581D02*
D03*
Y12390D02*
D03*
X7017Y9681D02*
D03*
Y9490D02*
D03*
X6967Y11781D02*
D03*
Y11590D02*
D03*
X8367Y22205D02*
D03*
Y22015D02*
D03*
X7067Y21276D02*
D03*
Y21465D02*
D03*
X8067Y22080D02*
D03*
Y21890D02*
D03*
X8192Y21080D02*
D03*
Y20890D02*
D03*
X7017Y18180D02*
D03*
Y17990D02*
D03*
X6967Y20280D02*
D03*
Y20090D02*
D03*
D17*
X9767Y4971D02*
D03*
Y4690D02*
D03*
Y13471D02*
D03*
Y13190D02*
D03*
Y21971D02*
D03*
Y21690D02*
D03*
D18*
X6857Y3590D02*
D03*
X6667D02*
D03*
X6857Y4115D02*
D03*
X6667D02*
D03*
X8552Y2766D02*
D03*
X8742D02*
D03*
X6752Y2791D02*
D03*
X6942D02*
D03*
X9077Y2866D02*
D03*
X9267D02*
D03*
X627Y5190D02*
D03*
X817D02*
D03*
X9077Y3365D02*
D03*
X9267D02*
D03*
X807Y5440D02*
D03*
X617D02*
D03*
X6857Y12090D02*
D03*
X6667D02*
D03*
X6857Y12615D02*
D03*
X6667D02*
D03*
X8552Y11265D02*
D03*
X8742D02*
D03*
X6752Y11290D02*
D03*
X6942D02*
D03*
X9077Y11365D02*
D03*
X9267D02*
D03*
X627Y13690D02*
D03*
X817D02*
D03*
X9077Y11865D02*
D03*
X9267D02*
D03*
X807Y13940D02*
D03*
X617D02*
D03*
X6857Y20590D02*
D03*
X6667D02*
D03*
X6857Y21115D02*
D03*
X6667D02*
D03*
X8552Y19765D02*
D03*
X8742D02*
D03*
X6752Y19790D02*
D03*
X6942D02*
D03*
X9077Y19865D02*
D03*
X9267D02*
D03*
X627Y22190D02*
D03*
X817D02*
D03*
X9077Y20365D02*
D03*
X9267D02*
D03*
X807Y22440D02*
D03*
X617D02*
D03*
D19*
X7987Y2766D02*
D03*
X8317D02*
D03*
X7647Y1040D02*
D03*
X7317D02*
D03*
X7987Y11265D02*
D03*
X8317D02*
D03*
X7647Y9540D02*
D03*
X7317D02*
D03*
X7987Y19765D02*
D03*
X8317D02*
D03*
X7647Y18040D02*
D03*
X7317D02*
D03*
D20*
X8317Y2150D02*
D03*
Y2341D02*
D03*
X9242Y2356D02*
D03*
Y2166D02*
D03*
X8967Y2150D02*
D03*
Y2341D02*
D03*
X8317Y10650D02*
D03*
Y10840D02*
D03*
X9242Y10856D02*
D03*
Y10665D02*
D03*
X8967Y10650D02*
D03*
Y10840D02*
D03*
X8317Y19151D02*
D03*
Y19340D02*
D03*
X9242Y19355D02*
D03*
Y19165D02*
D03*
X8967Y19151D02*
D03*
Y19340D02*
D03*
D21*
X1642Y5440D02*
D03*
Y5313D02*
D03*
Y5187D02*
D03*
Y5060D02*
D03*
X1122Y5440D02*
D03*
Y5313D02*
D03*
Y5187D02*
D03*
Y5060D02*
D03*
X1642Y13940D02*
D03*
Y13813D02*
D03*
Y13687D02*
D03*
Y13560D02*
D03*
X1122Y13940D02*
D03*
Y13813D02*
D03*
Y13687D02*
D03*
Y13560D02*
D03*
X1642Y22440D02*
D03*
Y22313D02*
D03*
Y22187D02*
D03*
Y22060D02*
D03*
X1122Y22440D02*
D03*
Y22313D02*
D03*
Y22187D02*
D03*
Y22060D02*
D03*
D22*
X7697Y5115D02*
D03*
X7792Y4865D02*
D03*
X7602D02*
D03*
X7792Y5115D02*
D03*
X7602D02*
D03*
X7697Y13615D02*
D03*
X7792Y13365D02*
D03*
X7602D02*
D03*
X7792Y13615D02*
D03*
X7602D02*
D03*
X7697Y22115D02*
D03*
X7792Y21865D02*
D03*
X7602D02*
D03*
X7792Y22115D02*
D03*
X7602D02*
D03*
D23*
X9327Y4971D02*
D03*
Y13471D02*
D03*
Y21971D02*
D03*
D24*
X8717Y5201D02*
D03*
Y4971D02*
D03*
Y4740D02*
D03*
Y13701D02*
D03*
Y13471D02*
D03*
Y13240D02*
D03*
Y22201D02*
D03*
Y21971D02*
D03*
Y21740D02*
D03*
D25*
X6717Y1423D02*
D03*
Y1549D02*
D03*
Y1676D02*
D03*
Y1803D02*
D03*
Y1931D02*
D03*
Y2058D02*
D03*
Y2184D02*
D03*
Y2311D02*
D03*
Y2439D02*
D03*
Y2566D02*
D03*
X7667Y1423D02*
D03*
Y1549D02*
D03*
Y1676D02*
D03*
Y1803D02*
D03*
Y1931D02*
D03*
Y2058D02*
D03*
Y2184D02*
D03*
Y2311D02*
D03*
Y2439D02*
D03*
Y2566D02*
D03*
X6717Y9922D02*
D03*
Y10050D02*
D03*
Y10176D02*
D03*
Y10304D02*
D03*
Y10431D02*
D03*
Y10557D02*
D03*
Y10685D02*
D03*
Y10811D02*
D03*
Y10939D02*
D03*
Y11065D02*
D03*
X7667Y9922D02*
D03*
Y10050D02*
D03*
Y10176D02*
D03*
Y10304D02*
D03*
Y10431D02*
D03*
Y10557D02*
D03*
Y10685D02*
D03*
Y10811D02*
D03*
Y10939D02*
D03*
Y11065D02*
D03*
X6717Y18423D02*
D03*
Y18549D02*
D03*
Y18676D02*
D03*
Y18804D02*
D03*
Y18930D02*
D03*
Y19057D02*
D03*
Y19185D02*
D03*
Y19312D02*
D03*
Y19438D02*
D03*
Y19565D02*
D03*
X7667Y18423D02*
D03*
Y18549D02*
D03*
Y18676D02*
D03*
Y18804D02*
D03*
Y18930D02*
D03*
Y19057D02*
D03*
Y19185D02*
D03*
Y19312D02*
D03*
Y19438D02*
D03*
Y19565D02*
D03*
D26*
X7407Y2991D02*
D03*
X7312D02*
D03*
X7217D02*
D03*
X7407Y3290D02*
D03*
X7312D02*
D03*
X7217D02*
D03*
X7407Y11490D02*
D03*
X7312D02*
D03*
X7217D02*
D03*
X7407Y11790D02*
D03*
X7312D02*
D03*
X7217D02*
D03*
X7407Y19990D02*
D03*
X7312D02*
D03*
X7217D02*
D03*
X7407Y20290D02*
D03*
X7312D02*
D03*
X7217D02*
D03*
D27*
X8742Y2150D02*
D03*
Y2341D02*
D03*
X8542Y2245D02*
D03*
X8742Y10650D02*
D03*
Y10840D02*
D03*
X8542Y10746D02*
D03*
X8742Y19151D02*
D03*
Y19340D02*
D03*
X8542Y19246D02*
D03*
D28*
X7587Y4615D02*
D03*
X7867D02*
D03*
X7587Y13115D02*
D03*
X7867D02*
D03*
X7587Y21615D02*
D03*
X7867D02*
D03*
D29*
X8292Y3116D02*
X8192Y3215D01*
X9077Y3116D02*
X8292D01*
X8517Y2042D02*
X8279Y1803D01*
X7667D01*
X7302Y4315D02*
Y4526D01*
X7392Y4615D02*
X7302Y4526D01*
X7587Y4615D02*
X7392D01*
X9282Y4140D02*
X9192D01*
Y4215D01*
Y4006D02*
Y4140D01*
X8192Y3890D02*
X8042D01*
X8392Y4390D02*
X8217D01*
X8567Y2541D02*
X8317D01*
X8642Y2466D02*
X8567Y2541D01*
X8552Y2766D02*
X8317D01*
Y2341D02*
Y2766D01*
X6517Y3290D02*
X5867Y3940D01*
X3517Y3290D02*
X2779Y4028D01*
X4017Y3290D02*
X3517D01*
X5217Y3265D02*
Y3340D01*
X5342Y3465D02*
X5217Y3340D01*
X5892Y3465D02*
X5342D01*
X6027Y3331D02*
X5892Y3465D01*
X5967Y1966D02*
X5842Y2091D01*
X1292Y5390D02*
Y5565D01*
X1342D02*
X1292D01*
X5211Y1245D02*
X4467D01*
X1592Y2991D02*
X1567Y3016D01*
X4017Y2991D02*
X1592D01*
X1567Y3016D02*
Y3353D01*
Y2641D02*
Y3016D01*
X1292Y5390D02*
X1215Y5313D01*
X1122D01*
X8817Y2991D02*
X8217D01*
X8917Y2891D02*
X8817Y2991D01*
X8917Y2750D02*
Y2891D01*
X9077Y2591D02*
X8917Y2750D01*
X5598Y4785D02*
X5593Y4790D01*
X992Y5440D02*
Y6590D01*
X1492Y7090D02*
X992Y6590D01*
X5292Y7090D02*
X1492D01*
X7517Y4865D02*
X5292Y7090D01*
X7602Y4865D02*
X7517D01*
X992Y5440D02*
X807D01*
X1122D02*
X992D01*
X821Y5187D02*
X817Y5190D01*
X1122Y5187D02*
X821D01*
X1642Y5840D02*
X1602D01*
X2317D02*
X1642D01*
Y5865D01*
Y5440D02*
Y5840D01*
Y5313D02*
Y5440D01*
Y5060D02*
Y5187D01*
Y4587D02*
Y5060D01*
Y4587D02*
X1242Y4187D01*
X1567Y3353D02*
X1242Y3678D01*
X1567Y2241D02*
Y2641D01*
X2267Y2241D02*
X1567D01*
X1577Y5815D02*
Y6190D01*
X1602Y5840D02*
X1577Y5815D01*
X5417Y1240D02*
X5412Y1245D01*
X5338D01*
X5465D02*
X5412D01*
X5417Y815D02*
Y1240D01*
X5338Y1245D02*
X5211D01*
X5592D02*
X5465D01*
X5338Y1766D02*
X5211D01*
X5465D02*
X5338D01*
X5592Y2245D02*
X5567Y2220D01*
X3522Y2245D02*
X3517Y2241D01*
X6842Y3191D02*
X6192Y3840D01*
X6842Y2616D02*
Y3191D01*
Y2616D02*
X6792Y2566D01*
X6517Y2791D02*
Y3290D01*
X6752Y2791D02*
X6517D01*
Y2516D02*
Y2791D01*
X6792Y2566D02*
X6717D01*
X6192Y3840D02*
Y4315D01*
X6717Y2439D02*
X6594D01*
X6517Y2516D01*
X5217Y4290D02*
Y4415D01*
X5292Y4490D02*
X5217Y4415D01*
X5867Y4490D02*
X5292D01*
X6002Y4356D02*
X5867Y4490D01*
X6002Y4315D02*
Y4356D01*
X6717Y2311D02*
X6521D01*
X6392Y2441D01*
Y3141D01*
X6217Y3315D01*
X6027D02*
Y3331D01*
X6717Y1549D02*
X6608D01*
X6217Y2066D02*
Y2791D01*
X6606Y1676D02*
X6217Y2066D01*
X6027Y2791D02*
X5617D01*
X6192Y1966D02*
X5967D01*
X6608Y1549D02*
X6192Y1966D01*
X6317Y1616D02*
X6217Y1716D01*
X6717Y1676D02*
X6606D01*
X6027Y1741D02*
X5592D01*
X6510Y1423D02*
X6317Y1616D01*
X6717Y1423D02*
X6510D01*
X6726Y1540D02*
X6717Y1549D01*
X6942Y1540D02*
X6726D01*
X7017Y1465D02*
X6942Y1540D01*
X7017Y1181D02*
Y1465D01*
Y915D02*
Y990D01*
X7117Y815D02*
X7017Y915D01*
X7542Y815D02*
X7117D01*
X7647Y920D02*
X7542Y815D01*
X7647Y920D02*
Y1040D01*
X7667Y1060D02*
X7647Y1040D01*
X7667Y1060D02*
Y1423D01*
X7317Y1040D02*
Y1803D01*
X7054D01*
X7667D02*
X7317D01*
X8443Y1549D02*
X7667D01*
X8477Y1515D02*
X8443Y1549D01*
X8388Y1676D02*
X7667D01*
X8477Y1766D02*
X8388Y1676D01*
X8642Y2042D02*
Y2466D01*
X7667Y2566D02*
Y2791D01*
X7962D02*
X7667D01*
X7092D02*
X6942D01*
X7602Y4631D02*
X7587Y4615D01*
X7602Y4631D02*
Y4865D01*
X7302Y3805D02*
Y4315D01*
Y3750D02*
Y3805D01*
X7697Y3095D02*
X7312D01*
X7892Y3290D02*
X7697Y3095D01*
X7892Y3290D02*
Y3690D01*
X7842Y3740D01*
X6972Y3095D02*
X6967Y3091D01*
X7312Y3095D02*
X6972D01*
X7312Y2991D02*
Y3095D01*
X6927Y1931D02*
Y1938D01*
X6934Y1944D02*
X6927Y1938D01*
X6934Y1944D02*
Y2058D01*
X6717D01*
X6927Y1931D02*
X6717D01*
X7054Y1803D02*
X6927Y1931D01*
X8019Y2439D02*
X7667D01*
X8117Y2341D02*
X8019Y2439D01*
X8317Y2341D02*
X8117D01*
X8317Y2150D02*
Y2245D01*
X8037D01*
X8542D02*
X8317D01*
X7971Y2311D02*
X7667D01*
X8037Y2245D02*
X7971Y2311D01*
X9242Y2356D02*
X8757D01*
X8742Y2341D01*
X9767Y2166D02*
X9242D01*
X9992Y2391D02*
X9767Y2166D01*
X9992Y2391D02*
Y3141D01*
X9780Y3353D01*
X9767D01*
X7667Y1931D02*
X7527D01*
X7217Y2241D01*
Y2991D01*
X7667Y2058D02*
X7575D01*
X7407Y2225D01*
Y2991D01*
Y3290D02*
Y3481D01*
X7517Y3590D02*
X7407Y3481D01*
X7217Y3290D02*
Y3640D01*
X7182Y3675D01*
X7517Y3590D02*
Y3590D01*
X7667Y3675D02*
X7602D01*
X9767Y4115D02*
Y4140D01*
X9912Y3860D02*
X9767D01*
X10042Y3990D02*
X9912Y3860D01*
X10042Y3990D02*
Y4715D01*
X9787Y4971D01*
X9767D01*
X9327Y4971D02*
X8717D01*
X9767D02*
X9327D01*
X9767Y4971D02*
X9767Y4971D01*
X8067Y4890D02*
X8042Y4865D01*
X7792D01*
X7807Y5131D02*
X7792Y5115D01*
X7807Y5131D02*
Y5365D01*
X7617D02*
Y5440D01*
Y5131D02*
Y5365D01*
Y5131D02*
X7602Y5115D01*
X7767Y5590D02*
X7617Y5440D01*
X8392Y5590D02*
X7767D01*
X8392D02*
X8367Y5565D01*
Y5206D02*
Y5565D01*
X8717Y5201D02*
Y5590D01*
X8392D01*
X9213D02*
X8717D01*
X9492Y5869D02*
X9213Y5590D01*
X6857Y3590D02*
Y3656D01*
X6942Y3740D02*
X6857Y3656D01*
X7082Y4260D02*
X7067Y4276D01*
X7082Y4065D02*
Y4260D01*
X6857Y4051D02*
Y4115D01*
X7492Y4015D02*
Y4315D01*
X8592Y3565D02*
Y3615D01*
Y3565D02*
X8517Y3490D01*
X8342D01*
X8307Y3526D01*
X8302D01*
Y3871D01*
X8212D01*
X8392D02*
X8302D01*
X8212D02*
X8192Y3890D01*
X8519Y3767D02*
X8392Y3640D01*
X8519Y3767D02*
Y3871D01*
X8792Y3365D02*
X8782Y3376D01*
Y3615D01*
X8521Y3872D02*
X8519Y3871D01*
X8521Y3872D02*
Y4012D01*
X8646D02*
X8521D01*
X8646Y3871D02*
Y4012D01*
X8782Y3862D02*
X8773Y3871D01*
X8782Y3615D02*
Y3862D01*
X8807Y3640D02*
X8782Y3615D01*
X9077Y3640D02*
X8807D01*
X8392Y3871D02*
Y4065D01*
X8467Y4140D02*
X8392Y4065D01*
X9092Y4140D02*
X8467D01*
X8392Y4390D02*
Y4590D01*
X8517D02*
X8392D01*
X8517Y4392D02*
Y4590D01*
X8519Y4390D02*
X8517Y4392D01*
X9132Y4276D02*
X9092D01*
X9192Y4215D02*
X9132Y4276D01*
X8657D02*
X8646Y4287D01*
X9092Y4276D02*
X8657D01*
X9092D02*
Y4365D01*
X8646Y4287D02*
Y4390D01*
X9192Y4006D02*
X9077Y3890D01*
X9417D02*
X9267D01*
X9701Y3606D02*
X9417Y3890D01*
X9767Y3606D02*
X9701D01*
X9267Y3599D02*
Y3640D01*
X9767Y3099D02*
X9267Y3599D01*
Y3116D02*
Y3365D01*
X9538Y2844D02*
X9267Y3116D01*
X9767Y2844D02*
X9538D01*
X9267Y2591D02*
Y2866D01*
X9767Y2591D02*
X9267D01*
X8292Y11615D02*
X8192Y11715D01*
X9077Y11615D02*
X8292D01*
X8517Y10542D02*
X8279Y10304D01*
X7667D01*
X7302Y12815D02*
Y13026D01*
X7392Y13115D02*
X7302Y13026D01*
X7587Y13115D02*
X7392D01*
X9282Y12640D02*
X9192D01*
Y12715D01*
Y12506D02*
Y12640D01*
X8192Y12390D02*
X8042D01*
X8392Y12890D02*
X8217D01*
X8567Y11040D02*
X8317D01*
X8642Y10965D02*
X8567Y11040D01*
X8552Y11265D02*
X8317D01*
Y10840D02*
Y11265D01*
X6517Y11790D02*
X5867Y12440D01*
X3517Y11790D02*
X2779Y12528D01*
X4017Y11790D02*
X3517D01*
X5217Y11765D02*
Y11840D01*
X5342Y11965D02*
X5217Y11840D01*
X5892Y11965D02*
X5342D01*
X6027Y11831D02*
X5892Y11965D01*
X5967Y10465D02*
X5842Y10590D01*
X1292Y13890D02*
Y14065D01*
X1342D02*
X1292D01*
X5211Y9746D02*
X4467D01*
X1592Y11490D02*
X1567Y11515D01*
X4017Y11490D02*
X1592D01*
X1567Y11515D02*
Y11854D01*
Y11140D02*
Y11515D01*
X1292Y13890D02*
X1215Y13813D01*
X1122D01*
X8817Y11490D02*
X8217D01*
X8917Y11390D02*
X8817Y11490D01*
X8917Y11250D02*
Y11390D01*
X9077Y11090D02*
X8917Y11250D01*
X5598Y13285D02*
X5593Y13290D01*
X992Y13940D02*
Y15090D01*
X1492Y15590D02*
X992Y15090D01*
X5292Y15590D02*
X1492D01*
X7517Y13365D02*
X5292Y15590D01*
X7602Y13365D02*
X7517D01*
X992Y13940D02*
X807D01*
X1122D02*
X992D01*
X821Y13687D02*
X817Y13690D01*
X1122Y13687D02*
X821D01*
X1642Y14340D02*
X1602D01*
X2317D02*
X1642D01*
Y14365D01*
Y13940D02*
Y14340D01*
Y13813D02*
Y13940D01*
Y13560D02*
Y13687D01*
Y13087D02*
Y13560D01*
Y13087D02*
X1242Y12686D01*
X1567Y11854D02*
X1242Y12179D01*
X1567Y10740D02*
Y11140D01*
X2267Y10740D02*
X1567D01*
X1577Y14315D02*
Y14690D01*
X1602Y14340D02*
X1577Y14315D01*
X5417Y9740D02*
X5412Y9746D01*
X5338D01*
X5465D02*
X5412D01*
X5417Y9315D02*
Y9740D01*
X5338Y9746D02*
X5211D01*
X5592D02*
X5465D01*
X5338Y10265D02*
X5211D01*
X5465D02*
X5338D01*
X5592Y10746D02*
X5567Y10721D01*
X3522Y10746D02*
X3517Y10740D01*
X6842Y11690D02*
X6192Y12340D01*
X6842Y11115D02*
Y11690D01*
Y11115D02*
X6792Y11065D01*
X6517Y11290D02*
Y11790D01*
X6752Y11290D02*
X6517D01*
Y11015D02*
Y11290D01*
X6792Y11065D02*
X6717D01*
X6192Y12340D02*
Y12815D01*
X6717Y10939D02*
X6594D01*
X6517Y11015D01*
X5217Y12790D02*
Y12915D01*
X5292Y12990D02*
X5217Y12915D01*
X5867Y12990D02*
X5292D01*
X6002Y12855D02*
X5867Y12990D01*
X6002Y12815D02*
Y12855D01*
X6717Y10811D02*
X6521D01*
X6392Y10940D01*
Y11640D01*
X6217Y11815D01*
X6027D02*
Y11831D01*
X6717Y10050D02*
X6608D01*
X6217Y10565D02*
Y11290D01*
X6606Y10176D02*
X6217Y10565D01*
X6027Y11290D02*
X5617D01*
X6192Y10465D02*
X5967D01*
X6608Y10050D02*
X6192Y10465D01*
X6317Y10115D02*
X6217Y10215D01*
X6717Y10176D02*
X6606D01*
X6027Y10240D02*
X5592D01*
X6510Y9922D02*
X6317Y10115D01*
X6717Y9922D02*
X6510D01*
X6726Y10040D02*
X6717Y10050D01*
X6942Y10040D02*
X6726D01*
X7017Y9965D02*
X6942Y10040D01*
X7017Y9681D02*
Y9965D01*
Y9415D02*
Y9490D01*
X7117Y9315D02*
X7017Y9415D01*
X7542Y9315D02*
X7117D01*
X7647Y9421D02*
X7542Y9315D01*
X7647Y9421D02*
Y9540D01*
X7667Y9561D02*
X7647Y9540D01*
X7667Y9561D02*
Y9922D01*
X7317Y9540D02*
Y10304D01*
X7054D01*
X7667D02*
X7317D01*
X8443Y10050D02*
X7667D01*
X8477Y10015D02*
X8443Y10050D01*
X8388Y10176D02*
X7667D01*
X8477Y10265D02*
X8388Y10176D01*
X8642Y10542D02*
Y10965D01*
X7667Y11065D02*
Y11290D01*
X7962D02*
X7667D01*
X7092D02*
X6942D01*
X7602Y13130D02*
X7587Y13115D01*
X7602Y13130D02*
Y13365D01*
X7302Y12305D02*
Y12815D01*
Y12250D02*
Y12305D01*
X7697Y11596D02*
X7312D01*
X7892Y11790D02*
X7697Y11596D01*
X7892Y11790D02*
Y12190D01*
X7842Y12240D01*
X6972Y11596D02*
X6967Y11590D01*
X7312Y11596D02*
X6972D01*
X7312Y11490D02*
Y11596D01*
X6927Y10431D02*
Y10438D01*
X6934Y10444D02*
X6927Y10438D01*
X6934Y10444D02*
Y10557D01*
X6717D01*
X6927Y10431D02*
X6717D01*
X7054Y10304D02*
X6927Y10431D01*
X8019Y10939D02*
X7667D01*
X8117Y10840D02*
X8019Y10939D01*
X8317Y10840D02*
X8117D01*
X8317Y10650D02*
Y10746D01*
X8037D01*
X8542D02*
X8317D01*
X7971Y10811D02*
X7667D01*
X8037Y10746D02*
X7971Y10811D01*
X9242Y10856D02*
X8757D01*
X8742Y10840D01*
X9767Y10665D02*
X9242D01*
X9992Y10890D02*
X9767Y10665D01*
X9992Y10890D02*
Y11640D01*
X9780Y11853D01*
X9767D01*
X7667Y10431D02*
X7527D01*
X7217Y10740D01*
Y11490D01*
X7667Y10557D02*
X7575D01*
X7407Y10725D01*
Y11490D01*
Y11790D02*
Y11981D01*
X7517Y12090D02*
X7407Y11981D01*
X7217Y11790D02*
Y12140D01*
X7182Y12175D01*
X7517Y12090D02*
Y12090D01*
X7667Y12175D02*
X7602D01*
X9767Y12614D02*
Y12640D01*
X9912Y12361D02*
X9767D01*
X10042Y12490D02*
X9912Y12361D01*
X10042Y12490D02*
Y13215D01*
X9787Y13471D01*
X9767D01*
X9327Y13471D02*
X8717D01*
X9767D02*
X9327D01*
X9767Y13471D02*
X9767Y13471D01*
X8067Y13390D02*
X8042Y13365D01*
X7792D01*
X7807Y13630D02*
X7792Y13615D01*
X7807Y13630D02*
Y13865D01*
X7617D02*
Y13940D01*
Y13630D02*
Y13865D01*
Y13630D02*
X7602Y13615D01*
X7767Y14090D02*
X7617Y13940D01*
X8392Y14090D02*
X7767D01*
X8392D02*
X8367Y14065D01*
Y13705D02*
Y14065D01*
X8717Y13701D02*
Y14090D01*
X8392D01*
X9213D02*
X8717D01*
X9492Y14370D02*
X9213Y14090D01*
X6857Y12090D02*
Y12156D01*
X6942Y12240D02*
X6857Y12156D01*
X7082Y12761D02*
X7067Y12775D01*
X7082Y12565D02*
Y12761D01*
X6857Y12550D02*
Y12615D01*
X7492Y12515D02*
Y12815D01*
X8592Y12065D02*
Y12115D01*
Y12065D02*
X8517Y11990D01*
X8342D01*
X8307Y12025D01*
X8302D01*
Y12371D01*
X8212D01*
X8392D02*
X8302D01*
X8212D02*
X8192Y12390D01*
X8519Y12268D02*
X8392Y12140D01*
X8519Y12268D02*
Y12371D01*
X8792Y11865D02*
X8782Y11875D01*
Y12115D01*
X8521Y12372D02*
X8519Y12371D01*
X8521Y12372D02*
Y12511D01*
X8646D02*
X8521D01*
X8646Y12371D02*
Y12511D01*
X8782Y12361D02*
X8773Y12371D01*
X8782Y12115D02*
Y12361D01*
X8807Y12140D02*
X8782Y12115D01*
X9077Y12140D02*
X8807D01*
X8392Y12371D02*
Y12565D01*
X8467Y12640D02*
X8392Y12565D01*
X9092Y12640D02*
X8467D01*
X8392Y12890D02*
Y13090D01*
X8517D02*
X8392D01*
X8517Y12893D02*
Y13090D01*
X8519Y12890D02*
X8517Y12893D01*
X9132Y12775D02*
X9092D01*
X9192Y12715D02*
X9132Y12775D01*
X8657D02*
X8646Y12786D01*
X9092Y12775D02*
X8657D01*
X9092D02*
Y12865D01*
X8646Y12786D02*
Y12890D01*
X9192Y12506D02*
X9077Y12390D01*
X9417D02*
X9267D01*
X9701Y12107D02*
X9417Y12390D01*
X9767Y12107D02*
X9701D01*
X9267Y12099D02*
Y12140D01*
X9767Y11599D02*
X9267Y12099D01*
Y11615D02*
Y11865D01*
X9538Y11344D02*
X9267Y11615D01*
X9767Y11344D02*
X9538D01*
X9267Y11090D02*
Y11365D01*
X9767Y11090D02*
X9267D01*
X8292Y20115D02*
X8192Y20215D01*
X9077Y20115D02*
X8292D01*
X8517Y19041D02*
X8279Y18804D01*
X7667D01*
X7302Y21315D02*
Y21526D01*
X7392Y21615D02*
X7302Y21526D01*
X7587Y21615D02*
X7392D01*
X9282Y21140D02*
X9192D01*
Y21215D01*
Y21005D02*
Y21140D01*
X8192Y20890D02*
X8042D01*
X8392Y21390D02*
X8217D01*
X8567Y19540D02*
X8317D01*
X8642Y19465D02*
X8567Y19540D01*
X8552Y19765D02*
X8317D01*
Y19340D02*
Y19765D01*
X6517Y20290D02*
X5867Y20940D01*
X3517Y20290D02*
X2779Y21028D01*
X4017Y20290D02*
X3517D01*
X5217Y20265D02*
Y20340D01*
X5342Y20465D02*
X5217Y20340D01*
X5892Y20465D02*
X5342D01*
X6027Y20330D02*
X5892Y20465D01*
X5967Y18965D02*
X5842Y19090D01*
X1292Y22390D02*
Y22565D01*
X1342D02*
X1292D01*
X5211Y18246D02*
X4467D01*
X1592Y19990D02*
X1567Y20015D01*
X4017Y19990D02*
X1592D01*
X1567Y20015D02*
Y20354D01*
Y19640D02*
Y20015D01*
X1292Y22390D02*
X1215Y22313D01*
X1122D01*
X8817Y19990D02*
X8217D01*
X8917Y19890D02*
X8817Y19990D01*
X8917Y19751D02*
Y19890D01*
X9077Y19590D02*
X8917Y19751D01*
X5598Y21785D02*
X5593Y21790D01*
X992Y22440D02*
Y23590D01*
X1492Y24090D02*
X992Y23590D01*
X5292Y24090D02*
X1492D01*
X7517Y21865D02*
X5292Y24090D01*
X7602Y21865D02*
X7517D01*
X992Y22440D02*
X807D01*
X1122D02*
X992D01*
X821Y22187D02*
X817Y22190D01*
X1122Y22187D02*
X821D01*
X1642Y22840D02*
X1602D01*
X2317D02*
X1642D01*
Y22865D01*
Y22440D02*
Y22840D01*
Y22313D02*
Y22440D01*
Y22060D02*
Y22187D01*
Y21587D02*
Y22060D01*
Y21587D02*
X1242Y21187D01*
X1567Y20354D02*
X1242Y20679D01*
X1567Y19240D02*
Y19640D01*
X2267Y19240D02*
X1567D01*
X1577Y22815D02*
Y23190D01*
X1602Y22840D02*
X1577Y22815D01*
X5417Y18240D02*
X5412Y18246D01*
X5338D01*
X5465D02*
X5412D01*
X5417Y17815D02*
Y18240D01*
X5338Y18246D02*
X5211D01*
X5592D02*
X5465D01*
X5338Y18765D02*
X5211D01*
X5465D02*
X5338D01*
X5592Y19246D02*
X5567Y19221D01*
X3522Y19246D02*
X3517Y19240D01*
X6842Y20190D02*
X6192Y20840D01*
X6842Y19615D02*
Y20190D01*
Y19615D02*
X6792Y19565D01*
X6517Y19790D02*
Y20290D01*
X6752Y19790D02*
X6517D01*
Y19515D02*
Y19790D01*
X6792Y19565D02*
X6717D01*
X6192Y20840D02*
Y21315D01*
X6717Y19438D02*
X6594D01*
X6517Y19515D01*
X5217Y21290D02*
Y21415D01*
X5292Y21490D02*
X5217Y21415D01*
X5867Y21490D02*
X5292D01*
X6002Y21355D02*
X5867Y21490D01*
X6002Y21315D02*
Y21355D01*
X6717Y19312D02*
X6521D01*
X6392Y19440D01*
Y20140D01*
X6217Y20315D01*
X6027D02*
Y20330D01*
X6717Y18549D02*
X6608D01*
X6217Y19065D02*
Y19790D01*
X6606Y18676D02*
X6217Y19065D01*
X6027Y19790D02*
X5617D01*
X6192Y18965D02*
X5967D01*
X6608Y18549D02*
X6192Y18965D01*
X6317Y18615D02*
X6217Y18715D01*
X6717Y18676D02*
X6606D01*
X6027Y18740D02*
X5592D01*
X6510Y18423D02*
X6317Y18615D01*
X6717Y18423D02*
X6510D01*
X6726Y18540D02*
X6717Y18549D01*
X6942Y18540D02*
X6726D01*
X7017Y18465D02*
X6942Y18540D01*
X7017Y18180D02*
Y18465D01*
Y17915D02*
Y17990D01*
X7117Y17815D02*
X7017Y17915D01*
X7542Y17815D02*
X7117D01*
X7647Y17921D02*
X7542Y17815D01*
X7647Y17921D02*
Y18040D01*
X7667Y18060D02*
X7647Y18040D01*
X7667Y18060D02*
Y18423D01*
X7317Y18040D02*
Y18804D01*
X7054D01*
X7667D02*
X7317D01*
X8443Y18549D02*
X7667D01*
X8477Y18515D02*
X8443Y18549D01*
X8388Y18676D02*
X7667D01*
X8477Y18765D02*
X8388Y18676D01*
X8642Y19041D02*
Y19465D01*
X7667Y19565D02*
Y19790D01*
X7962D02*
X7667D01*
X7092D02*
X6942D01*
X7602Y21630D02*
X7587Y21615D01*
X7602Y21630D02*
Y21865D01*
X7302Y20805D02*
Y21315D01*
Y20750D02*
Y20805D01*
X7697Y20096D02*
X7312D01*
X7892Y20290D02*
X7697Y20096D01*
X7892Y20290D02*
Y20690D01*
X7842Y20740D01*
X6972Y20096D02*
X6967Y20090D01*
X7312Y20096D02*
X6972D01*
X7312Y19990D02*
Y20096D01*
X6927Y18930D02*
Y18938D01*
X6934Y18945D02*
X6927Y18938D01*
X6934Y18945D02*
Y19057D01*
X6717D01*
X6927Y18930D02*
X6717D01*
X7054Y18804D02*
X6927Y18930D01*
X8019Y19438D02*
X7667D01*
X8117Y19340D02*
X8019Y19438D01*
X8317Y19340D02*
X8117D01*
X8317Y19151D02*
Y19246D01*
X8037D01*
X8542D02*
X8317D01*
X7971Y19312D02*
X7667D01*
X8037Y19246D02*
X7971Y19312D01*
X9242Y19355D02*
X8757D01*
X8742Y19340D01*
X9767Y19165D02*
X9242D01*
X9992Y19390D02*
X9767Y19165D01*
X9992Y19390D02*
Y20140D01*
X9780Y20352D01*
X9767D01*
X7667Y18930D02*
X7527D01*
X7217Y19240D01*
Y19990D01*
X7667Y19057D02*
X7575D01*
X7407Y19226D01*
Y19990D01*
Y20290D02*
Y20480D01*
X7517Y20590D02*
X7407Y20480D01*
X7217Y20290D02*
Y20640D01*
X7182Y20675D01*
X7517Y20590D02*
Y20590D01*
X7667Y20675D02*
X7602D01*
X9767Y21115D02*
Y21140D01*
X9912Y20860D02*
X9767D01*
X10042Y20990D02*
X9912Y20860D01*
X10042Y20990D02*
Y21715D01*
X9787Y21971D01*
X9767D01*
X9327Y21971D02*
X8717D01*
X9767D02*
X9327D01*
X9767Y21971D02*
X9767Y21971D01*
X8067Y21890D02*
X8042Y21865D01*
X7792D01*
X7807Y22130D02*
X7792Y22115D01*
X7807Y22130D02*
Y22365D01*
X7617D02*
Y22440D01*
Y22130D02*
Y22365D01*
Y22130D02*
X7602Y22115D01*
X7767Y22590D02*
X7617Y22440D01*
X8392Y22590D02*
X7767D01*
X8392D02*
X8367Y22565D01*
Y22205D02*
Y22565D01*
X8717Y22201D02*
Y22590D01*
X8392D01*
X9213D02*
X8717D01*
X9492Y22870D02*
X9213Y22590D01*
X6857Y20590D02*
Y20655D01*
X6942Y20740D02*
X6857Y20655D01*
X7082Y21260D02*
X7067Y21276D01*
X7082Y21065D02*
Y21260D01*
X6857Y21051D02*
Y21115D01*
X7492Y21015D02*
Y21315D01*
X8592Y20565D02*
Y20615D01*
Y20565D02*
X8517Y20490D01*
X8342D01*
X8307Y20526D01*
X8302D01*
Y20871D01*
X8212D01*
X8392D02*
X8302D01*
X8212D02*
X8192Y20890D01*
X8519Y20768D02*
X8392Y20640D01*
X8519Y20768D02*
Y20871D01*
X8792Y20365D02*
X8782Y20376D01*
Y20615D01*
X8521Y20873D02*
X8519Y20871D01*
X8521Y20873D02*
Y21012D01*
X8646D02*
X8521D01*
X8646Y20871D02*
Y21012D01*
X8782Y20862D02*
X8773Y20871D01*
X8782Y20615D02*
Y20862D01*
X8807Y20640D02*
X8782Y20615D01*
X9077Y20640D02*
X8807D01*
X8392Y20871D02*
Y21065D01*
X8467Y21140D02*
X8392Y21065D01*
X9092Y21140D02*
X8467D01*
X8392Y21390D02*
Y21590D01*
X8517D02*
X8392D01*
X8517Y21393D02*
Y21590D01*
X8519Y21390D02*
X8517Y21393D01*
X9132Y21276D02*
X9092D01*
X9192Y21215D02*
X9132Y21276D01*
X8657D02*
X8646Y21287D01*
X9092Y21276D02*
X8657D01*
X9092D02*
Y21365D01*
X8646Y21287D02*
Y21390D01*
X9192Y21005D02*
X9077Y20890D01*
X9417D02*
X9267D01*
X9701Y20607D02*
X9417Y20890D01*
X9767Y20607D02*
X9701D01*
X9267Y20599D02*
Y20640D01*
X9767Y20099D02*
X9267Y20599D01*
Y20115D02*
Y20365D01*
X9538Y19845D02*
X9267Y20115D01*
X9767Y19845D02*
X9538D01*
X9267Y19590D02*
Y19865D01*
X9767Y19590D02*
X9267D01*
D30*
X5592Y491D02*
X5442Y641D01*
X8367Y491D02*
X5592D01*
X8917Y1040D02*
X8367Y491D01*
X8691Y2042D02*
X8517D01*
X8917Y1040D02*
Y1816D01*
X8691Y2042D01*
X5592Y8990D02*
X5442Y9140D01*
X8367Y8990D02*
X5592D01*
X8917Y9540D02*
X8367Y8990D01*
X8691Y10542D02*
X8517D01*
X8917Y9540D02*
Y10315D01*
X8691Y10542D01*
X5592Y17490D02*
X5442Y17640D01*
X8367Y17490D02*
X5592D01*
X8917Y18040D02*
X8367Y17490D01*
X8691Y19041D02*
X8517D01*
X8917Y18040D02*
Y18815D01*
X8691Y19041D01*
D31*
X3567Y4365D02*
X3542Y4340D01*
X3567Y12865D02*
X3542Y12840D01*
X3567Y21365D02*
X3542Y21340D01*
D32*
X3567Y4365D02*
Y5840D01*
Y12865D02*
Y14340D01*
Y21365D02*
Y22840D01*
D33*
X9767Y3099D02*
D03*
Y2844D02*
D03*
Y3353D02*
D03*
Y3606D02*
D03*
Y3860D02*
D03*
Y4115D02*
D03*
Y11599D02*
D03*
Y11344D02*
D03*
Y11853D02*
D03*
Y12107D02*
D03*
Y12361D02*
D03*
Y12614D02*
D03*
Y20099D02*
D03*
Y19845D02*
D03*
Y20352D02*
D03*
Y20607D02*
D03*
Y20860D02*
D03*
Y21115D02*
D03*
D34*
Y2591D02*
D03*
Y11090D02*
D03*
Y19590D02*
D03*
D35*
X9492Y5869D02*
D03*
Y6378D02*
D03*
X1242Y4187D02*
D03*
Y3678D02*
D03*
X9492Y14370D02*
D03*
Y14877D02*
D03*
X1242Y12686D02*
D03*
Y12179D02*
D03*
X9492Y22870D02*
D03*
Y23377D02*
D03*
X1242Y21187D02*
D03*
Y20679D02*
D03*
D36*
X4467Y5290D02*
D03*
Y4790D02*
D03*
Y766D02*
D03*
Y1265D02*
D03*
X8392Y5590D02*
D03*
Y5840D02*
D03*
X4467Y13790D02*
D03*
Y13290D02*
D03*
Y9265D02*
D03*
Y9765D02*
D03*
X8392Y14090D02*
D03*
Y14340D02*
D03*
X4467Y22290D02*
D03*
Y21790D02*
D03*
Y17765D02*
D03*
Y18265D02*
D03*
X8392Y22590D02*
D03*
Y22840D02*
D03*
D37*
X2317Y5840D02*
D03*
X3567D02*
D03*
X2267Y2241D02*
D03*
X3517D02*
D03*
X2317Y14340D02*
D03*
X3567D02*
D03*
X2267Y10740D02*
D03*
X3517D02*
D03*
X2317Y22840D02*
D03*
X3567D02*
D03*
X2267Y19240D02*
D03*
X3517D02*
D03*
D38*
X9492Y791D02*
D03*
Y1090D02*
D03*
X6617Y840D02*
D03*
X8192D02*
D03*
X6617Y1140D02*
D03*
X8192Y1115D02*
D03*
X7067Y3440D02*
D03*
X7642Y4240D02*
D03*
Y3440D02*
D03*
X7892Y3690D02*
D03*
X8042Y3890D02*
D03*
X1292Y5565D02*
D03*
X4017Y2991D02*
D03*
Y3290D02*
D03*
X8217Y2991D02*
D03*
Y3215D02*
D03*
X7667Y2791D02*
D03*
X7092D02*
D03*
X9492Y9290D02*
D03*
Y9590D02*
D03*
X6617Y9340D02*
D03*
X8192D02*
D03*
X6617Y9640D02*
D03*
X8192Y9615D02*
D03*
X7067Y11940D02*
D03*
X7642Y12740D02*
D03*
Y11940D02*
D03*
X7892Y12190D02*
D03*
X8042Y12390D02*
D03*
X1292Y14065D02*
D03*
X4017Y11490D02*
D03*
Y11790D02*
D03*
X8217Y11490D02*
D03*
Y11715D02*
D03*
X7667Y11290D02*
D03*
X7092D02*
D03*
X9492Y17790D02*
D03*
Y18090D02*
D03*
X6617Y17840D02*
D03*
X8192D02*
D03*
X6617Y18140D02*
D03*
X8192Y18115D02*
D03*
X7067Y20440D02*
D03*
X7642Y21240D02*
D03*
Y20440D02*
D03*
X7892Y20690D02*
D03*
X8042Y20890D02*
D03*
X1292Y22565D02*
D03*
X4017Y19990D02*
D03*
Y20290D02*
D03*
X8217Y19990D02*
D03*
Y20215D02*
D03*
X7667Y19790D02*
D03*
X7092D02*
D03*
M02*
