%FSLAX42Y42*%
%MOMM*%
G71*
G01*
G75*
G04 Layer_Physical_Order=2*
G04 Layer_Color=16711680*
%ADD10C,0.30*%
%ADD11R,0.70X1.30*%
%ADD12R,1.30X0.90*%
%ADD13R,1.20X1.00*%
%ADD14R,0.90X1.60*%
%ADD15R,0.60X0.80*%
%ADD16R,1.30X0.70*%
%ADD17R,0.90X1.30*%
%ADD18R,0.80X0.60*%
%ADD19R,0.70X1.20*%
%ADD20R,1.00X1.70*%
%ADD21R,1.60X0.90*%
%ADD22R,1.30X1.30*%
%ADD23R,3.60X1.30*%
%ADD24R,1.50X0.60*%
%ADD25R,1.00X0.40*%
%ADD26R,1.00X1.20*%
%ADD27R,1.20X0.70*%
%ADD28C,0.50*%
%ADD29C,2.00*%
%ADD30C,1.00*%
%ADD31C,0.25*%
%ADD32C,3.00*%
%ADD33C,5.00*%
%ADD34C,1.50*%
%ADD35C,1.30*%
%ADD36C,2.54*%
%ADD37C,1.60*%
%ADD38C,3.00*%
%ADD39C,1.50*%
%ADD40R,1.50X1.50*%
%ADD41C,1.27*%
%ADD42C,4.00*%
G36*
X13782Y2746D02*
X3864D01*
Y10664D01*
X13782D01*
Y2746D01*
D02*
G37*
%LPC*%
G36*
X4331Y5346D02*
X4304Y5343D01*
X4280Y5333D01*
X4259Y5317D01*
X4243Y5296D01*
X4233Y5271D01*
X4229Y5245D01*
X4233Y5219D01*
X4243Y5194D01*
X4259Y5173D01*
X4280Y5157D01*
X4304Y5147D01*
X4331Y5144D01*
X4357Y5147D01*
X4381Y5157D01*
X4402Y5173D01*
X4418Y5194D01*
X4429Y5219D01*
X4432Y5245D01*
X4429Y5271D01*
X4418Y5296D01*
X4402Y5317D01*
X4381Y5333D01*
X4357Y5343D01*
X4331Y5346D01*
D02*
G37*
G36*
X12207Y5521D02*
X9207D01*
X9164Y5518D01*
X9122Y5508D01*
X9082Y5491D01*
X9045Y5469D01*
X9012Y5440D01*
X8984Y5407D01*
X8961Y5371D01*
X8945Y5330D01*
X8935Y5288D01*
X8931Y5245D01*
X8935Y5202D01*
X8945Y5160D01*
X8961Y5120D01*
X8984Y5083D01*
X9012Y5050D01*
X9045Y5022D01*
X9082Y4999D01*
X9122Y4982D01*
X9164Y4972D01*
X9207Y4969D01*
X12207D01*
X12251Y4972D01*
X12293Y4982D01*
X12333Y4999D01*
X12370Y5022D01*
X12403Y5050D01*
X12431Y5083D01*
X12454Y5120D01*
X12470Y5160D01*
X12480Y5202D01*
X12484Y5245D01*
X12480Y5288D01*
X12470Y5330D01*
X12454Y5371D01*
X12431Y5407D01*
X12403Y5440D01*
X12370Y5469D01*
X12333Y5491D01*
X12293Y5508D01*
X12251Y5518D01*
X12207Y5521D01*
D02*
G37*
G36*
X4331Y5092D02*
X4304Y5089D01*
X4280Y5079D01*
X4259Y5063D01*
X4243Y5042D01*
X4233Y5017D01*
X4229Y4991D01*
X4233Y4965D01*
X4243Y4940D01*
X4259Y4919D01*
X4280Y4903D01*
X4304Y4893D01*
X4331Y4890D01*
X4357Y4893D01*
X4381Y4903D01*
X4402Y4919D01*
X4418Y4940D01*
X4429Y4965D01*
X4432Y4991D01*
X4429Y5017D01*
X4418Y5042D01*
X4402Y5063D01*
X4381Y5079D01*
X4357Y5089D01*
X4331Y5092D01*
D02*
G37*
G36*
X7264Y8434D02*
X7241Y8431D01*
X7220Y8422D01*
X7201Y8407D01*
X7187Y8389D01*
X7178Y8367D01*
X7175Y8344D01*
X7178Y8321D01*
X7187Y8299D01*
X7201Y8280D01*
X7220Y8266D01*
X7241Y8257D01*
X7264Y8254D01*
X7288Y8257D01*
X7309Y8266D01*
X8175Y7400D01*
X8188Y7391D01*
X8188Y7391D01*
X8188Y7391D01*
D01*
X8188Y7391D01*
X8188Y7391D01*
X8204Y7388D01*
X13411D01*
X13426Y7391D01*
X13440Y7400D01*
X13511Y7471D01*
X13514Y7470D01*
X13538Y7467D01*
X13561Y7470D01*
X13582Y7479D01*
X13601Y7493D01*
X13615Y7512D01*
X13624Y7533D01*
X13627Y7557D01*
X13624Y7580D01*
X13615Y7601D01*
X13601Y7620D01*
X13582Y7634D01*
X13561Y7643D01*
X13538Y7646D01*
X13514Y7643D01*
X13493Y7634D01*
X13474Y7620D01*
X13460Y7601D01*
X13451Y7580D01*
X13448Y7557D01*
X13451Y7533D01*
X13452Y7530D01*
X13393Y7471D01*
X8221D01*
X7353Y8339D01*
X7354Y8344D01*
X7351Y8367D01*
X7342Y8389D01*
X7328Y8407D01*
X7309Y8422D01*
X7288Y8431D01*
X7264Y8434D01*
D02*
G37*
G36*
X13322Y6590D02*
X13288Y6586D01*
X13255Y6576D01*
X13224Y6560D01*
X13198Y6538D01*
X13176Y6511D01*
X13159Y6481D01*
X13149Y6448D01*
X13146Y6414D01*
X13149Y6379D01*
X13159Y6346D01*
X13176Y6316D01*
X13198Y6289D01*
X13224Y6267D01*
X13255Y6251D01*
X13288Y6241D01*
X13322Y6237D01*
X13357Y6241D01*
X13390Y6251D01*
X13420Y6267D01*
X13447Y6289D01*
X13469Y6316D01*
X13485Y6346D01*
X13495Y6379D01*
X13499Y6414D01*
X13495Y6448D01*
X13485Y6481D01*
X13469Y6511D01*
X13447Y6538D01*
X13420Y6560D01*
X13390Y6576D01*
X13357Y6586D01*
X13322Y6590D01*
D02*
G37*
G36*
Y6082D02*
X13288Y6078D01*
X13255Y6068D01*
X13224Y6052D01*
X13198Y6030D01*
X13176Y6003D01*
X13159Y5973D01*
X13149Y5940D01*
X13146Y5906D01*
X13149Y5871D01*
X13159Y5838D01*
X13176Y5808D01*
X13198Y5781D01*
X13224Y5759D01*
X13255Y5743D01*
X13288Y5733D01*
X13322Y5729D01*
X13357Y5733D01*
X13390Y5743D01*
X13420Y5759D01*
X13447Y5781D01*
X13469Y5808D01*
X13485Y5838D01*
X13495Y5871D01*
X13499Y5906D01*
X13495Y5940D01*
X13485Y5973D01*
X13469Y6003D01*
X13447Y6030D01*
X13420Y6052D01*
X13390Y6068D01*
X13357Y6078D01*
X13322Y6082D01*
D02*
G37*
G36*
X4431Y4076D02*
X4230D01*
Y3875D01*
X4431D01*
Y4076D01*
D02*
G37*
G36*
X8090Y4073D02*
X8062Y4070D01*
X8037Y4059D01*
X8015Y4042D01*
X7998Y4020D01*
X7987Y3995D01*
X7984Y3967D01*
X7987Y3940D01*
X7998Y3914D01*
X8015Y3892D01*
X8037Y3875D01*
X8062Y3864D01*
X8090Y3861D01*
X8117Y3864D01*
X8143Y3875D01*
X8165Y3892D01*
X8182Y3914D01*
X8193Y3940D01*
X8196Y3967D01*
X8193Y3995D01*
X8182Y4020D01*
X8165Y4042D01*
X8143Y4059D01*
X8117Y4070D01*
X8090Y4073D01*
D02*
G37*
G36*
X4267Y8038D02*
X4233Y8034D01*
X4200Y8024D01*
X4169Y8008D01*
X4143Y7986D01*
X4121Y7959D01*
X4104Y7929D01*
X4094Y7896D01*
X4091Y7861D01*
Y6426D01*
X4094Y6392D01*
X4104Y6359D01*
X4121Y6328D01*
X4143Y6302D01*
X4143Y6302D01*
X4143D01*
Y6302D01*
X4143Y6302D01*
X6517Y3927D01*
X6544Y3905D01*
X6575Y3888D01*
X6608Y3878D01*
X6611Y3878D01*
X6642Y3875D01*
X6642Y3875D01*
X7379D01*
X7380Y3874D01*
X7384Y3839D01*
X7394Y3806D01*
X7410Y3776D01*
X7432Y3749D01*
X7459Y3727D01*
X7489Y3711D01*
X7522Y3701D01*
X7557Y3697D01*
X7772D01*
X7807Y3701D01*
X7840Y3711D01*
X7870Y3727D01*
X7897Y3749D01*
X7919Y3776D01*
X7935Y3806D01*
X7945Y3839D01*
X7949Y3874D01*
X7945Y3908D01*
X7935Y3941D01*
X7919Y3971D01*
X7897Y3998D01*
X7870Y4020D01*
X7840Y4036D01*
X7807Y4046D01*
X7772Y4050D01*
X7734D01*
X7733Y4051D01*
X7729Y4086D01*
X7719Y4119D01*
X7703Y4149D01*
X7681Y4176D01*
X7654Y4198D01*
X7624Y4214D01*
X7591Y4224D01*
X7557Y4228D01*
X6715D01*
X4443Y6499D01*
Y7861D01*
X4440Y7896D01*
X4430Y7929D01*
X4414Y7959D01*
X4392Y7986D01*
X4365Y8008D01*
X4335Y8024D01*
X4302Y8034D01*
X4267Y8038D01*
D02*
G37*
G36*
X4331Y4838D02*
X4304Y4835D01*
X4280Y4825D01*
X4259Y4809D01*
X4243Y4788D01*
X4233Y4763D01*
X4229Y4737D01*
X4233Y4711D01*
X4243Y4686D01*
X4259Y4665D01*
X4280Y4649D01*
X4304Y4639D01*
X4331Y4636D01*
X4357Y4639D01*
X4381Y4649D01*
X4402Y4665D01*
X4418Y4686D01*
X4429Y4711D01*
X4432Y4737D01*
X4429Y4763D01*
X4418Y4788D01*
X4402Y4809D01*
X4381Y4825D01*
X4357Y4835D01*
X4331Y4838D01*
D02*
G37*
G36*
Y4584D02*
X4304Y4581D01*
X4280Y4571D01*
X4259Y4555D01*
X4243Y4534D01*
X4233Y4509D01*
X4229Y4483D01*
X4233Y4457D01*
X4243Y4432D01*
X4259Y4411D01*
X4280Y4395D01*
X4304Y4385D01*
X4331Y4382D01*
X4357Y4385D01*
X4381Y4395D01*
X4402Y4411D01*
X4418Y4432D01*
X4429Y4457D01*
X4432Y4483D01*
X4429Y4509D01*
X4418Y4534D01*
X4402Y4555D01*
X4381Y4571D01*
X4357Y4581D01*
X4331Y4584D01*
D02*
G37*
G36*
Y4330D02*
X4304Y4327D01*
X4280Y4317D01*
X4259Y4301D01*
X4243Y4280D01*
X4233Y4255D01*
X4229Y4229D01*
X4233Y4203D01*
X4243Y4178D01*
X4259Y4157D01*
X4280Y4141D01*
X4304Y4131D01*
X4331Y4128D01*
X4357Y4131D01*
X4381Y4141D01*
X4402Y4157D01*
X4418Y4178D01*
X4429Y4203D01*
X4432Y4229D01*
X4429Y4255D01*
X4418Y4280D01*
X4402Y4301D01*
X4381Y4317D01*
X4357Y4327D01*
X4331Y4330D01*
D02*
G37*
G36*
X4648Y8827D02*
X4140D01*
X4130Y8825D01*
X4122Y8819D01*
X4116Y8811D01*
X4114Y8801D01*
Y8357D01*
X4116Y8347D01*
X4122Y8338D01*
X4130Y8333D01*
X4140Y8331D01*
X5093D01*
X5103Y8333D01*
X5111Y8338D01*
X5117Y8347D01*
X5119Y8357D01*
Y8405D01*
X5118Y8406D01*
X5119Y8407D01*
X5117Y8411D01*
X5117Y8415D01*
X5116Y8416D01*
X5116Y8417D01*
X5113Y8420D01*
X5111Y8423D01*
X5110Y8424D01*
X5110Y8425D01*
X5106Y8427D01*
X5103Y8429D01*
X5102Y8429D01*
X5101Y8430D01*
X5089Y8434D01*
X5088Y8434D01*
X5087Y8434D01*
X5083Y8434D01*
X5079Y8435D01*
X5078Y8435D01*
X5077Y8435D01*
X5067Y8464D01*
Y8471D01*
Y8478D01*
X5077Y8507D01*
X5078Y8507D01*
X5079Y8507D01*
X5083Y8507D01*
X5087Y8508D01*
X5088Y8508D01*
X5089Y8508D01*
X5101Y8512D01*
X5102Y8513D01*
X5103Y8513D01*
X5106Y8515D01*
X5110Y8517D01*
X5110Y8518D01*
X5111Y8518D01*
X5113Y8522D01*
X5116Y8525D01*
X5116Y8526D01*
X5117Y8527D01*
X5117Y8531D01*
X5119Y8535D01*
X5118Y8536D01*
X5119Y8537D01*
Y8674D01*
X5117Y8684D01*
X5111Y8692D01*
X5103Y8698D01*
X5093Y8700D01*
X4674D01*
Y8801D01*
X4672Y8811D01*
X4667Y8819D01*
X4658Y8825D01*
X4648Y8827D01*
D02*
G37*
G36*
X6007Y9043D02*
X5984Y9040D01*
X5962Y9031D01*
X5944Y9017D01*
X5929Y8998D01*
X5920Y8977D01*
X5917Y8954D01*
X5920Y8930D01*
X5922Y8927D01*
X5292Y8297D01*
X5283Y8283D01*
X5280Y8268D01*
Y8093D01*
X5276Y8091D01*
X5258Y8077D01*
X5244Y8059D01*
X5235Y8037D01*
X5232Y8014D01*
X5235Y7990D01*
X5244Y7969D01*
X5258Y7950D01*
X5276Y7936D01*
X5298Y7927D01*
X5321Y7924D01*
X5345Y7927D01*
X5366Y7936D01*
X5385Y7950D01*
X5399Y7969D01*
X5408Y7990D01*
X5411Y8014D01*
X5408Y8037D01*
X5399Y8059D01*
X5385Y8077D01*
X5366Y8091D01*
X5362Y8093D01*
Y8251D01*
X5980Y8868D01*
X5984Y8867D01*
X6007Y8864D01*
X6030Y8867D01*
X6052Y8876D01*
X6071Y8890D01*
X6085Y8909D01*
X6094Y8930D01*
X6097Y8954D01*
X6094Y8977D01*
X6085Y8998D01*
X6071Y9017D01*
X6052Y9031D01*
X6030Y9040D01*
X6007Y9043D01*
D02*
G37*
G36*
X8141Y9220D02*
X8113Y9217D01*
X8088Y9206D01*
X8066Y9189D01*
X8049Y9167D01*
X8038Y9141D01*
X8034Y9114D01*
X8038Y9086D01*
X8049Y9061D01*
X8066Y9039D01*
X8088Y9022D01*
X8113Y9011D01*
X8141Y9008D01*
X8168Y9011D01*
X8194Y9022D01*
X8216Y9039D01*
X8233Y9061D01*
X8243Y9086D01*
X8247Y9114D01*
X8243Y9141D01*
X8233Y9167D01*
X8216Y9189D01*
X8194Y9206D01*
X8168Y9217D01*
X8141Y9220D01*
D02*
G37*
G36*
X6033Y8522D02*
X6009Y8519D01*
X5988Y8510D01*
X5969Y8496D01*
X5955Y8478D01*
X5946Y8456D01*
X5943Y8433D01*
X5946Y8410D01*
X5955Y8388D01*
X5969Y8369D01*
X5988Y8355D01*
X6009Y8346D01*
X6033Y8343D01*
X6056Y8346D01*
X6059Y8348D01*
X6131Y8276D01*
Y7910D01*
X6119Y7906D01*
X6112Y7916D01*
X5915Y8113D01*
X5917Y8117D01*
X5920Y8140D01*
X5917Y8163D01*
X5908Y8185D01*
X5893Y8204D01*
X5875Y8218D01*
X5853Y8227D01*
X5830Y8230D01*
X5807Y8227D01*
X5785Y8218D01*
X5766Y8204D01*
X5752Y8185D01*
X5743Y8163D01*
X5740Y8140D01*
X5743Y8117D01*
X5752Y8095D01*
X5766Y8077D01*
X5785Y8062D01*
X5807Y8053D01*
X5830Y8050D01*
X5853Y8053D01*
X5857Y8055D01*
X6042Y7870D01*
Y6725D01*
Y6375D01*
X6042Y6375D01*
X6042D01*
X6045Y6360D01*
X6054Y6346D01*
X6239Y6161D01*
X6238Y6157D01*
X6235Y6134D01*
X6238Y6111D01*
X6247Y6089D01*
X6261Y6071D01*
X6280Y6056D01*
X6301Y6047D01*
X6325Y6044D01*
X6348Y6047D01*
X6369Y6056D01*
X6388Y6071D01*
X6398Y6084D01*
X6410Y6080D01*
Y5375D01*
X6407Y5374D01*
X6388Y5359D01*
X6374Y5341D01*
X6365Y5319D01*
X6362Y5296D01*
X6365Y5273D01*
X6374Y5251D01*
X6388Y5232D01*
X6407Y5218D01*
X6428Y5209D01*
X6452Y5206D01*
X6475Y5209D01*
X6496Y5218D01*
X6515Y5232D01*
X6529Y5251D01*
X6538Y5273D01*
X6541Y5296D01*
X6538Y5319D01*
X6529Y5341D01*
X6515Y5359D01*
X6496Y5374D01*
X6493Y5375D01*
Y6680D01*
X6490Y6696D01*
X6481Y6709D01*
X6372Y6818D01*
X6373Y6822D01*
X6376Y6845D01*
X6373Y6869D01*
X6364Y6890D01*
X6350Y6909D01*
X6331Y6923D01*
X6328Y6924D01*
Y7972D01*
X6340Y7977D01*
X6347Y7967D01*
Y7264D01*
X6347Y7264D01*
X6347D01*
X6350Y7249D01*
X6359Y7235D01*
X6430Y7164D01*
X6428Y7161D01*
X6425Y7137D01*
X6428Y7114D01*
X6437Y7093D01*
X6452Y7074D01*
X6470Y7060D01*
X6492Y7051D01*
X6515Y7048D01*
X6538Y7051D01*
X6560Y7060D01*
X6579Y7074D01*
X6593Y7093D01*
X6602Y7114D01*
X6605Y7137D01*
X6602Y7161D01*
X6593Y7182D01*
X6579Y7201D01*
X6560Y7215D01*
X6538Y7224D01*
X6515Y7227D01*
X6492Y7224D01*
X6488Y7223D01*
X6429Y7281D01*
Y7939D01*
X6437Y7940D01*
X6458Y7949D01*
X6477Y7963D01*
X6491Y7982D01*
X6500Y8003D01*
X6503Y8026D01*
X6500Y8050D01*
X6491Y8071D01*
X6477Y8090D01*
X6458Y8104D01*
X6437Y8113D01*
X6414Y8116D01*
X6390Y8113D01*
X6369Y8104D01*
X6350Y8090D01*
X6340Y8076D01*
X6328Y8080D01*
Y8109D01*
X6326Y8118D01*
Y8189D01*
X6328Y8198D01*
Y8303D01*
X6638D01*
X6702Y8238D01*
X6701Y8235D01*
X6698Y8211D01*
X6701Y8188D01*
X6710Y8166D01*
X6724Y8148D01*
X6743Y8134D01*
X6764Y8125D01*
X6787Y8122D01*
X6811Y8125D01*
X6832Y8134D01*
X6851Y8148D01*
X6865Y8166D01*
X6874Y8188D01*
X6877Y8211D01*
X6874Y8235D01*
X6865Y8256D01*
X6851Y8275D01*
X6832Y8289D01*
X6811Y8298D01*
X6787Y8301D01*
X6764Y8298D01*
X6761Y8296D01*
X6684Y8373D01*
X6671Y8382D01*
X6655Y8385D01*
X6287D01*
X6271Y8382D01*
X6257Y8373D01*
X6248Y8360D01*
X6245Y8344D01*
Y8206D01*
X6243Y8196D01*
Y8111D01*
X6243Y8111D01*
X6243D01*
X6245Y8101D01*
Y6924D01*
X6242Y6923D01*
X6225Y6910D01*
X6213Y6916D01*
Y8293D01*
X6210Y8309D01*
X6201Y8322D01*
X6118Y8406D01*
X6119Y8410D01*
X6122Y8433D01*
X6119Y8456D01*
X6110Y8478D01*
X6096Y8496D01*
X6077Y8510D01*
X6056Y8519D01*
X6033Y8522D01*
D02*
G37*
G36*
X12207Y8061D02*
X9207D01*
X9164Y8058D01*
X9122Y8048D01*
X9082Y8031D01*
X9045Y8009D01*
X9012Y7980D01*
X8984Y7947D01*
X8961Y7911D01*
X8945Y7870D01*
X8935Y7828D01*
X8931Y7785D01*
X8935Y7742D01*
X8945Y7700D01*
X8961Y7660D01*
X8984Y7623D01*
X9012Y7590D01*
X9045Y7562D01*
X9082Y7539D01*
X9122Y7522D01*
X9164Y7512D01*
X9207Y7509D01*
X12207D01*
X12251Y7512D01*
X12293Y7522D01*
X12333Y7539D01*
X12370Y7562D01*
X12403Y7590D01*
X12431Y7623D01*
X12454Y7660D01*
X12470Y7700D01*
X12480Y7742D01*
X12484Y7785D01*
X12480Y7828D01*
X12470Y7870D01*
X12454Y7911D01*
X12431Y7947D01*
X12403Y7980D01*
X12370Y8009D01*
X12333Y8031D01*
X12293Y8048D01*
X12251Y8058D01*
X12207Y8061D01*
D02*
G37*
%LPD*%
G36*
X4648Y8674D02*
X5093D01*
Y8537D01*
X5081Y8533D01*
X5080Y8534D01*
X5061Y8548D01*
X5042Y8556D01*
Y8471D01*
Y8385D01*
X5061Y8394D01*
X5080Y8408D01*
X5081Y8409D01*
X5093Y8405D01*
Y8357D01*
X4140D01*
Y8801D01*
X4648D01*
Y8674D01*
D02*
G37*
%LPC*%
G36*
X4356Y8697D02*
Y8572D01*
X4481D01*
X4481Y8577D01*
X4472Y8606D01*
X4458Y8632D01*
X4439Y8655D01*
X4416Y8674D01*
X4389Y8688D01*
X4360Y8697D01*
X4356Y8697D01*
D02*
G37*
G36*
X4481Y8522D02*
X4356D01*
Y8397D01*
X4360Y8397D01*
X4389Y8406D01*
X4416Y8420D01*
X4439Y8439D01*
X4458Y8462D01*
X4472Y8489D01*
X4481Y8517D01*
X4481Y8522D01*
D02*
G37*
G36*
X4306D02*
X4180D01*
X4181Y8517D01*
X4190Y8489D01*
X4204Y8462D01*
X4223Y8439D01*
X4246Y8420D01*
X4272Y8406D01*
X4301Y8397D01*
X4306Y8397D01*
Y8522D01*
D02*
G37*
G36*
Y8697D02*
X4301Y8697D01*
X4272Y8688D01*
X4246Y8674D01*
X4223Y8655D01*
X4204Y8632D01*
X4190Y8606D01*
X4181Y8577D01*
X4180Y8572D01*
X4306D01*
Y8697D01*
D02*
G37*
G36*
X4852Y8446D02*
X4791D01*
X4799Y8426D01*
X4814Y8408D01*
X4832Y8394D01*
X4852Y8385D01*
Y8446D01*
D02*
G37*
G36*
Y8556D02*
X4832Y8548D01*
X4814Y8534D01*
X4799Y8516D01*
X4791Y8496D01*
X4852D01*
Y8556D01*
D02*
G37*
G36*
X4992D02*
X4972Y8548D01*
X4953Y8534D01*
X4953Y8534D01*
X4940D01*
X4940Y8534D01*
X4921Y8548D01*
X4902Y8556D01*
Y8471D01*
Y8385D01*
X4921Y8394D01*
X4940Y8408D01*
X4940Y8408D01*
X4953D01*
X4953Y8408D01*
X4972Y8394D01*
X4992Y8385D01*
Y8471D01*
Y8556D01*
D02*
G37*
%LPD*%
G36*
X13782Y11246D02*
X3864D01*
Y19164D01*
X13782D01*
Y11246D01*
D02*
G37*
%LPC*%
G36*
X4331Y13846D02*
X4304Y13843D01*
X4280Y13833D01*
X4259Y13817D01*
X4243Y13796D01*
X4233Y13771D01*
X4229Y13745D01*
X4233Y13719D01*
X4243Y13694D01*
X4259Y13673D01*
X4280Y13657D01*
X4304Y13647D01*
X4331Y13644D01*
X4357Y13647D01*
X4381Y13657D01*
X4402Y13673D01*
X4418Y13694D01*
X4429Y13719D01*
X4432Y13745D01*
X4429Y13771D01*
X4418Y13796D01*
X4402Y13817D01*
X4381Y13833D01*
X4357Y13843D01*
X4331Y13846D01*
D02*
G37*
G36*
X12207Y14021D02*
X9207D01*
X9164Y14018D01*
X9122Y14008D01*
X9082Y13991D01*
X9045Y13969D01*
X9012Y13940D01*
X8984Y13907D01*
X8961Y13871D01*
X8945Y13830D01*
X8935Y13788D01*
X8931Y13745D01*
X8935Y13702D01*
X8945Y13660D01*
X8961Y13620D01*
X8984Y13583D01*
X9012Y13550D01*
X9045Y13522D01*
X9082Y13499D01*
X9122Y13482D01*
X9164Y13472D01*
X9207Y13469D01*
X12207D01*
X12251Y13472D01*
X12293Y13482D01*
X12333Y13499D01*
X12370Y13522D01*
X12403Y13550D01*
X12431Y13583D01*
X12454Y13620D01*
X12470Y13660D01*
X12480Y13702D01*
X12484Y13745D01*
X12480Y13788D01*
X12470Y13830D01*
X12454Y13871D01*
X12431Y13907D01*
X12403Y13940D01*
X12370Y13969D01*
X12333Y13991D01*
X12293Y14008D01*
X12251Y14018D01*
X12207Y14021D01*
D02*
G37*
G36*
X4331Y13592D02*
X4304Y13589D01*
X4280Y13579D01*
X4259Y13563D01*
X4243Y13542D01*
X4233Y13517D01*
X4229Y13491D01*
X4233Y13465D01*
X4243Y13440D01*
X4259Y13419D01*
X4280Y13403D01*
X4304Y13393D01*
X4331Y13390D01*
X4357Y13393D01*
X4381Y13403D01*
X4402Y13419D01*
X4418Y13440D01*
X4429Y13465D01*
X4432Y13491D01*
X4429Y13517D01*
X4418Y13542D01*
X4402Y13563D01*
X4381Y13579D01*
X4357Y13589D01*
X4331Y13592D01*
D02*
G37*
G36*
X7264Y16934D02*
X7241Y16931D01*
X7220Y16922D01*
X7201Y16907D01*
X7187Y16889D01*
X7178Y16867D01*
X7175Y16844D01*
X7178Y16821D01*
X7187Y16799D01*
X7201Y16780D01*
X7220Y16766D01*
X7241Y16757D01*
X7264Y16754D01*
X7288Y16757D01*
X7309Y16766D01*
X8175Y15900D01*
X8188Y15891D01*
X8188Y15891D01*
X8188Y15891D01*
D01*
X8188Y15891D01*
X8188Y15891D01*
X8204Y15888D01*
X13411D01*
X13426Y15891D01*
X13440Y15900D01*
X13511Y15971D01*
X13514Y15970D01*
X13538Y15967D01*
X13561Y15970D01*
X13582Y15979D01*
X13601Y15993D01*
X13615Y16012D01*
X13624Y16033D01*
X13627Y16057D01*
X13624Y16080D01*
X13615Y16101D01*
X13601Y16120D01*
X13582Y16134D01*
X13561Y16143D01*
X13538Y16146D01*
X13514Y16143D01*
X13493Y16134D01*
X13474Y16120D01*
X13460Y16101D01*
X13451Y16080D01*
X13448Y16057D01*
X13451Y16033D01*
X13452Y16030D01*
X13393Y15971D01*
X8221D01*
X7353Y16839D01*
X7354Y16844D01*
X7351Y16867D01*
X7342Y16889D01*
X7328Y16907D01*
X7309Y16922D01*
X7288Y16931D01*
X7264Y16934D01*
D02*
G37*
G36*
X13322Y15090D02*
X13288Y15086D01*
X13255Y15076D01*
X13224Y15060D01*
X13198Y15038D01*
X13176Y15011D01*
X13159Y14981D01*
X13149Y14948D01*
X13146Y14913D01*
X13149Y14879D01*
X13159Y14846D01*
X13176Y14816D01*
X13198Y14789D01*
X13224Y14767D01*
X13255Y14751D01*
X13288Y14741D01*
X13322Y14737D01*
X13357Y14741D01*
X13390Y14751D01*
X13420Y14767D01*
X13447Y14789D01*
X13469Y14816D01*
X13485Y14846D01*
X13495Y14879D01*
X13499Y14913D01*
X13495Y14948D01*
X13485Y14981D01*
X13469Y15011D01*
X13447Y15038D01*
X13420Y15060D01*
X13390Y15076D01*
X13357Y15086D01*
X13322Y15090D01*
D02*
G37*
G36*
Y14582D02*
X13288Y14578D01*
X13255Y14568D01*
X13224Y14552D01*
X13198Y14530D01*
X13176Y14503D01*
X13159Y14473D01*
X13149Y14440D01*
X13146Y14405D01*
X13149Y14371D01*
X13159Y14338D01*
X13176Y14308D01*
X13198Y14281D01*
X13224Y14259D01*
X13255Y14243D01*
X13288Y14233D01*
X13322Y14229D01*
X13357Y14233D01*
X13390Y14243D01*
X13420Y14259D01*
X13447Y14281D01*
X13469Y14308D01*
X13485Y14338D01*
X13495Y14371D01*
X13499Y14405D01*
X13495Y14440D01*
X13485Y14473D01*
X13469Y14503D01*
X13447Y14530D01*
X13420Y14552D01*
X13390Y14568D01*
X13357Y14578D01*
X13322Y14582D01*
D02*
G37*
G36*
X4431Y12575D02*
X4230D01*
Y12375D01*
X4431D01*
Y12575D01*
D02*
G37*
G36*
X8090Y12573D02*
X8062Y12570D01*
X8037Y12559D01*
X8015Y12542D01*
X7998Y12520D01*
X7987Y12495D01*
X7984Y12467D01*
X7987Y12440D01*
X7998Y12414D01*
X8015Y12392D01*
X8037Y12375D01*
X8062Y12364D01*
X8090Y12361D01*
X8117Y12364D01*
X8143Y12375D01*
X8165Y12392D01*
X8182Y12414D01*
X8193Y12440D01*
X8196Y12467D01*
X8193Y12495D01*
X8182Y12520D01*
X8165Y12542D01*
X8143Y12559D01*
X8117Y12570D01*
X8090Y12573D01*
D02*
G37*
G36*
X4267Y16538D02*
X4233Y16534D01*
X4200Y16524D01*
X4169Y16508D01*
X4143Y16486D01*
X4121Y16459D01*
X4104Y16429D01*
X4094Y16396D01*
X4091Y16361D01*
Y14926D01*
X4094Y14892D01*
X4104Y14859D01*
X4121Y14828D01*
X4143Y14802D01*
X4143Y14802D01*
X4143D01*
Y14802D01*
X4143Y14802D01*
X6517Y12427D01*
X6544Y12405D01*
X6575Y12388D01*
X6608Y12378D01*
X6611Y12378D01*
X6642Y12375D01*
X6642Y12375D01*
X7379D01*
X7380Y12374D01*
X7384Y12339D01*
X7394Y12306D01*
X7410Y12276D01*
X7432Y12249D01*
X7459Y12227D01*
X7489Y12211D01*
X7522Y12201D01*
X7557Y12197D01*
X7772D01*
X7807Y12201D01*
X7840Y12211D01*
X7870Y12227D01*
X7897Y12249D01*
X7919Y12276D01*
X7935Y12306D01*
X7945Y12339D01*
X7949Y12374D01*
X7945Y12408D01*
X7935Y12441D01*
X7919Y12471D01*
X7897Y12498D01*
X7870Y12520D01*
X7840Y12536D01*
X7807Y12546D01*
X7772Y12550D01*
X7734D01*
X7733Y12551D01*
X7729Y12586D01*
X7719Y12619D01*
X7703Y12649D01*
X7681Y12676D01*
X7654Y12698D01*
X7624Y12714D01*
X7591Y12724D01*
X7557Y12728D01*
X6715D01*
X4443Y14999D01*
Y16361D01*
X4440Y16396D01*
X4430Y16429D01*
X4414Y16459D01*
X4392Y16486D01*
X4365Y16508D01*
X4335Y16524D01*
X4302Y16534D01*
X4267Y16538D01*
D02*
G37*
G36*
X4331Y13338D02*
X4304Y13335D01*
X4280Y13325D01*
X4259Y13309D01*
X4243Y13288D01*
X4233Y13263D01*
X4229Y13237D01*
X4233Y13211D01*
X4243Y13186D01*
X4259Y13165D01*
X4280Y13149D01*
X4304Y13139D01*
X4331Y13136D01*
X4357Y13139D01*
X4381Y13149D01*
X4402Y13165D01*
X4418Y13186D01*
X4429Y13211D01*
X4432Y13237D01*
X4429Y13263D01*
X4418Y13288D01*
X4402Y13309D01*
X4381Y13325D01*
X4357Y13335D01*
X4331Y13338D01*
D02*
G37*
G36*
Y13084D02*
X4304Y13081D01*
X4280Y13071D01*
X4259Y13055D01*
X4243Y13034D01*
X4233Y13009D01*
X4229Y12983D01*
X4233Y12957D01*
X4243Y12932D01*
X4259Y12911D01*
X4280Y12895D01*
X4304Y12885D01*
X4331Y12882D01*
X4357Y12885D01*
X4381Y12895D01*
X4402Y12911D01*
X4418Y12932D01*
X4429Y12957D01*
X4432Y12983D01*
X4429Y13009D01*
X4418Y13034D01*
X4402Y13055D01*
X4381Y13071D01*
X4357Y13081D01*
X4331Y13084D01*
D02*
G37*
G36*
Y12830D02*
X4304Y12827D01*
X4280Y12817D01*
X4259Y12801D01*
X4243Y12780D01*
X4233Y12755D01*
X4229Y12729D01*
X4233Y12703D01*
X4243Y12678D01*
X4259Y12657D01*
X4280Y12641D01*
X4304Y12631D01*
X4331Y12628D01*
X4357Y12631D01*
X4381Y12641D01*
X4402Y12657D01*
X4418Y12678D01*
X4429Y12703D01*
X4432Y12729D01*
X4429Y12755D01*
X4418Y12780D01*
X4402Y12801D01*
X4381Y12817D01*
X4357Y12827D01*
X4331Y12830D01*
D02*
G37*
G36*
X4648Y17327D02*
X4140D01*
X4130Y17325D01*
X4122Y17319D01*
X4116Y17311D01*
X4114Y17301D01*
Y16857D01*
X4116Y16847D01*
X4122Y16838D01*
X4130Y16833D01*
X4140Y16831D01*
X5093D01*
X5103Y16833D01*
X5111Y16838D01*
X5117Y16847D01*
X5119Y16857D01*
Y16905D01*
X5118Y16906D01*
X5119Y16907D01*
X5117Y16911D01*
X5117Y16915D01*
X5116Y16916D01*
X5116Y16917D01*
X5113Y16920D01*
X5111Y16923D01*
X5110Y16924D01*
X5110Y16925D01*
X5106Y16927D01*
X5103Y16929D01*
X5102Y16929D01*
X5101Y16930D01*
X5089Y16934D01*
X5088Y16934D01*
X5087Y16934D01*
X5083Y16934D01*
X5079Y16935D01*
X5078Y16935D01*
X5077Y16935D01*
X5067Y16964D01*
Y16971D01*
Y16978D01*
X5077Y17007D01*
X5078Y17007D01*
X5079Y17007D01*
X5083Y17007D01*
X5087Y17008D01*
X5088Y17008D01*
X5089Y17008D01*
X5101Y17012D01*
X5102Y17013D01*
X5103Y17013D01*
X5106Y17015D01*
X5110Y17017D01*
X5110Y17018D01*
X5111Y17018D01*
X5113Y17022D01*
X5116Y17025D01*
X5116Y17026D01*
X5117Y17027D01*
X5117Y17031D01*
X5119Y17035D01*
X5118Y17036D01*
X5119Y17037D01*
Y17174D01*
X5117Y17184D01*
X5111Y17192D01*
X5103Y17198D01*
X5093Y17200D01*
X4674D01*
Y17301D01*
X4672Y17311D01*
X4667Y17319D01*
X4658Y17325D01*
X4648Y17327D01*
D02*
G37*
G36*
X6007Y17543D02*
X5984Y17540D01*
X5962Y17531D01*
X5944Y17517D01*
X5929Y17498D01*
X5920Y17477D01*
X5917Y17454D01*
X5920Y17430D01*
X5922Y17427D01*
X5292Y16797D01*
X5283Y16783D01*
X5280Y16768D01*
Y16593D01*
X5276Y16591D01*
X5258Y16577D01*
X5244Y16559D01*
X5235Y16537D01*
X5232Y16514D01*
X5235Y16490D01*
X5244Y16469D01*
X5258Y16450D01*
X5276Y16436D01*
X5298Y16427D01*
X5321Y16424D01*
X5345Y16427D01*
X5366Y16436D01*
X5385Y16450D01*
X5399Y16469D01*
X5408Y16490D01*
X5411Y16514D01*
X5408Y16537D01*
X5399Y16559D01*
X5385Y16577D01*
X5366Y16591D01*
X5362Y16593D01*
Y16751D01*
X5980Y17368D01*
X5984Y17367D01*
X6007Y17364D01*
X6030Y17367D01*
X6052Y17376D01*
X6071Y17390D01*
X6085Y17409D01*
X6094Y17430D01*
X6097Y17454D01*
X6094Y17477D01*
X6085Y17498D01*
X6071Y17517D01*
X6052Y17531D01*
X6030Y17540D01*
X6007Y17543D01*
D02*
G37*
G36*
X8141Y17720D02*
X8113Y17717D01*
X8088Y17706D01*
X8066Y17689D01*
X8049Y17667D01*
X8038Y17641D01*
X8034Y17614D01*
X8038Y17586D01*
X8049Y17561D01*
X8066Y17539D01*
X8088Y17522D01*
X8113Y17511D01*
X8141Y17508D01*
X8168Y17511D01*
X8194Y17522D01*
X8216Y17539D01*
X8233Y17561D01*
X8243Y17586D01*
X8247Y17614D01*
X8243Y17641D01*
X8233Y17667D01*
X8216Y17689D01*
X8194Y17706D01*
X8168Y17717D01*
X8141Y17720D01*
D02*
G37*
G36*
X6033Y17022D02*
X6009Y17019D01*
X5988Y17010D01*
X5969Y16996D01*
X5955Y16978D01*
X5946Y16956D01*
X5943Y16933D01*
X5946Y16910D01*
X5955Y16888D01*
X5969Y16869D01*
X5988Y16855D01*
X6009Y16846D01*
X6033Y16843D01*
X6056Y16846D01*
X6059Y16848D01*
X6131Y16776D01*
Y16410D01*
X6119Y16406D01*
X6112Y16416D01*
X5915Y16613D01*
X5917Y16617D01*
X5920Y16640D01*
X5917Y16663D01*
X5908Y16685D01*
X5893Y16704D01*
X5875Y16718D01*
X5853Y16727D01*
X5830Y16730D01*
X5807Y16727D01*
X5785Y16718D01*
X5766Y16704D01*
X5752Y16685D01*
X5743Y16663D01*
X5740Y16640D01*
X5743Y16617D01*
X5752Y16595D01*
X5766Y16577D01*
X5785Y16562D01*
X5807Y16553D01*
X5830Y16550D01*
X5853Y16553D01*
X5857Y16555D01*
X6042Y16370D01*
Y15225D01*
Y14875D01*
X6042Y14875D01*
X6042D01*
X6045Y14860D01*
X6054Y14846D01*
X6239Y14661D01*
X6238Y14657D01*
X6235Y14634D01*
X6238Y14611D01*
X6247Y14589D01*
X6261Y14571D01*
X6280Y14556D01*
X6301Y14547D01*
X6325Y14544D01*
X6348Y14547D01*
X6369Y14556D01*
X6388Y14571D01*
X6398Y14584D01*
X6410Y14580D01*
Y13875D01*
X6407Y13874D01*
X6388Y13859D01*
X6374Y13841D01*
X6365Y13819D01*
X6362Y13796D01*
X6365Y13773D01*
X6374Y13751D01*
X6388Y13732D01*
X6407Y13718D01*
X6428Y13709D01*
X6452Y13706D01*
X6475Y13709D01*
X6496Y13718D01*
X6515Y13732D01*
X6529Y13751D01*
X6538Y13773D01*
X6541Y13796D01*
X6538Y13819D01*
X6529Y13841D01*
X6515Y13859D01*
X6496Y13874D01*
X6493Y13875D01*
Y15180D01*
X6490Y15196D01*
X6481Y15209D01*
X6372Y15318D01*
X6373Y15322D01*
X6376Y15345D01*
X6373Y15369D01*
X6364Y15390D01*
X6350Y15409D01*
X6331Y15423D01*
X6328Y15424D01*
Y16472D01*
X6340Y16477D01*
X6347Y16467D01*
Y15764D01*
X6347Y15764D01*
X6347D01*
X6350Y15749D01*
X6359Y15735D01*
X6430Y15664D01*
X6428Y15661D01*
X6425Y15637D01*
X6428Y15614D01*
X6437Y15593D01*
X6452Y15574D01*
X6470Y15560D01*
X6492Y15551D01*
X6515Y15548D01*
X6538Y15551D01*
X6560Y15560D01*
X6579Y15574D01*
X6593Y15593D01*
X6602Y15614D01*
X6605Y15637D01*
X6602Y15661D01*
X6593Y15682D01*
X6579Y15701D01*
X6560Y15715D01*
X6538Y15724D01*
X6515Y15727D01*
X6492Y15724D01*
X6488Y15723D01*
X6429Y15781D01*
Y16439D01*
X6437Y16440D01*
X6458Y16449D01*
X6477Y16463D01*
X6491Y16482D01*
X6500Y16503D01*
X6503Y16526D01*
X6500Y16550D01*
X6491Y16571D01*
X6477Y16590D01*
X6458Y16604D01*
X6437Y16613D01*
X6414Y16616D01*
X6390Y16613D01*
X6369Y16604D01*
X6350Y16590D01*
X6340Y16576D01*
X6328Y16580D01*
Y16609D01*
X6326Y16618D01*
Y16689D01*
X6328Y16698D01*
Y16803D01*
X6638D01*
X6702Y16738D01*
X6701Y16735D01*
X6698Y16711D01*
X6701Y16688D01*
X6710Y16666D01*
X6724Y16648D01*
X6743Y16634D01*
X6764Y16625D01*
X6787Y16622D01*
X6811Y16625D01*
X6832Y16634D01*
X6851Y16648D01*
X6865Y16666D01*
X6874Y16688D01*
X6877Y16711D01*
X6874Y16735D01*
X6865Y16756D01*
X6851Y16775D01*
X6832Y16789D01*
X6811Y16798D01*
X6787Y16801D01*
X6764Y16798D01*
X6761Y16796D01*
X6684Y16873D01*
X6671Y16882D01*
X6655Y16885D01*
X6287D01*
X6271Y16882D01*
X6257Y16873D01*
X6248Y16860D01*
X6245Y16844D01*
Y16706D01*
X6243Y16696D01*
Y16611D01*
X6243Y16611D01*
X6243D01*
X6245Y16601D01*
Y15424D01*
X6242Y15423D01*
X6225Y15410D01*
X6213Y15416D01*
Y16793D01*
X6210Y16809D01*
X6201Y16822D01*
X6118Y16906D01*
X6119Y16910D01*
X6122Y16933D01*
X6119Y16956D01*
X6110Y16978D01*
X6096Y16996D01*
X6077Y17010D01*
X6056Y17019D01*
X6033Y17022D01*
D02*
G37*
G36*
X12207Y16561D02*
X9207D01*
X9164Y16558D01*
X9122Y16548D01*
X9082Y16531D01*
X9045Y16509D01*
X9012Y16480D01*
X8984Y16447D01*
X8961Y16411D01*
X8945Y16370D01*
X8935Y16328D01*
X8931Y16285D01*
X8935Y16242D01*
X8945Y16200D01*
X8961Y16160D01*
X8984Y16123D01*
X9012Y16090D01*
X9045Y16062D01*
X9082Y16039D01*
X9122Y16022D01*
X9164Y16012D01*
X9207Y16009D01*
X12207D01*
X12251Y16012D01*
X12293Y16022D01*
X12333Y16039D01*
X12370Y16062D01*
X12403Y16090D01*
X12431Y16123D01*
X12454Y16160D01*
X12470Y16200D01*
X12480Y16242D01*
X12484Y16285D01*
X12480Y16328D01*
X12470Y16370D01*
X12454Y16411D01*
X12431Y16447D01*
X12403Y16480D01*
X12370Y16509D01*
X12333Y16531D01*
X12293Y16548D01*
X12251Y16558D01*
X12207Y16561D01*
D02*
G37*
%LPD*%
G36*
X4648Y17174D02*
X5093D01*
Y17037D01*
X5081Y17033D01*
X5080Y17034D01*
X5061Y17048D01*
X5042Y17056D01*
Y16971D01*
Y16885D01*
X5061Y16894D01*
X5080Y16908D01*
X5081Y16909D01*
X5093Y16905D01*
Y16857D01*
X4140D01*
Y17301D01*
X4648D01*
Y17174D01*
D02*
G37*
%LPC*%
G36*
X4356Y17197D02*
Y17072D01*
X4481D01*
X4481Y17077D01*
X4472Y17106D01*
X4458Y17132D01*
X4439Y17155D01*
X4416Y17174D01*
X4389Y17188D01*
X4360Y17197D01*
X4356Y17197D01*
D02*
G37*
G36*
X4481Y17022D02*
X4356D01*
Y16897D01*
X4360Y16897D01*
X4389Y16906D01*
X4416Y16920D01*
X4439Y16939D01*
X4458Y16962D01*
X4472Y16989D01*
X4481Y17017D01*
X4481Y17022D01*
D02*
G37*
G36*
X4306D02*
X4180D01*
X4181Y17017D01*
X4190Y16989D01*
X4204Y16962D01*
X4223Y16939D01*
X4246Y16920D01*
X4272Y16906D01*
X4301Y16897D01*
X4306Y16897D01*
Y17022D01*
D02*
G37*
G36*
Y17197D02*
X4301Y17197D01*
X4272Y17188D01*
X4246Y17174D01*
X4223Y17155D01*
X4204Y17132D01*
X4190Y17106D01*
X4181Y17077D01*
X4180Y17072D01*
X4306D01*
Y17197D01*
D02*
G37*
G36*
X4852Y16946D02*
X4791D01*
X4799Y16926D01*
X4814Y16908D01*
X4832Y16894D01*
X4852Y16885D01*
Y16946D01*
D02*
G37*
G36*
Y17056D02*
X4832Y17048D01*
X4814Y17034D01*
X4799Y17016D01*
X4791Y16996D01*
X4852D01*
Y17056D01*
D02*
G37*
G36*
X4992D02*
X4972Y17048D01*
X4953Y17034D01*
X4953Y17034D01*
X4940D01*
X4940Y17034D01*
X4921Y17048D01*
X4902Y17056D01*
Y16971D01*
Y16885D01*
X4921Y16894D01*
X4940Y16908D01*
X4940Y16908D01*
X4953D01*
X4953Y16908D01*
X4972Y16894D01*
X4992Y16885D01*
Y16971D01*
Y17056D01*
D02*
G37*
%LPD*%
G36*
X13782Y19746D02*
X3864D01*
Y27664D01*
X13782D01*
Y19746D01*
D02*
G37*
%LPC*%
G36*
X4331Y22346D02*
X4304Y22343D01*
X4280Y22333D01*
X4259Y22317D01*
X4243Y22296D01*
X4233Y22271D01*
X4229Y22245D01*
X4233Y22219D01*
X4243Y22194D01*
X4259Y22173D01*
X4280Y22157D01*
X4304Y22147D01*
X4331Y22144D01*
X4357Y22147D01*
X4381Y22157D01*
X4402Y22173D01*
X4418Y22194D01*
X4429Y22219D01*
X4432Y22245D01*
X4429Y22271D01*
X4418Y22296D01*
X4402Y22317D01*
X4381Y22333D01*
X4357Y22343D01*
X4331Y22346D01*
D02*
G37*
G36*
X12207Y22521D02*
X9207D01*
X9164Y22518D01*
X9122Y22508D01*
X9082Y22491D01*
X9045Y22469D01*
X9012Y22440D01*
X8984Y22407D01*
X8961Y22371D01*
X8945Y22330D01*
X8935Y22288D01*
X8931Y22245D01*
X8935Y22202D01*
X8945Y22160D01*
X8961Y22120D01*
X8984Y22083D01*
X9012Y22050D01*
X9045Y22022D01*
X9082Y21999D01*
X9122Y21982D01*
X9164Y21972D01*
X9207Y21969D01*
X12207D01*
X12251Y21972D01*
X12293Y21982D01*
X12333Y21999D01*
X12370Y22022D01*
X12403Y22050D01*
X12431Y22083D01*
X12454Y22120D01*
X12470Y22160D01*
X12480Y22202D01*
X12484Y22245D01*
X12480Y22288D01*
X12470Y22330D01*
X12454Y22371D01*
X12431Y22407D01*
X12403Y22440D01*
X12370Y22469D01*
X12333Y22491D01*
X12293Y22508D01*
X12251Y22518D01*
X12207Y22521D01*
D02*
G37*
G36*
X4331Y22092D02*
X4304Y22089D01*
X4280Y22079D01*
X4259Y22063D01*
X4243Y22042D01*
X4233Y22017D01*
X4229Y21991D01*
X4233Y21965D01*
X4243Y21940D01*
X4259Y21919D01*
X4280Y21903D01*
X4304Y21893D01*
X4331Y21890D01*
X4357Y21893D01*
X4381Y21903D01*
X4402Y21919D01*
X4418Y21940D01*
X4429Y21965D01*
X4432Y21991D01*
X4429Y22017D01*
X4418Y22042D01*
X4402Y22063D01*
X4381Y22079D01*
X4357Y22089D01*
X4331Y22092D01*
D02*
G37*
G36*
X7264Y25434D02*
X7241Y25431D01*
X7220Y25422D01*
X7201Y25407D01*
X7187Y25389D01*
X7178Y25367D01*
X7175Y25344D01*
X7178Y25321D01*
X7187Y25299D01*
X7201Y25280D01*
X7220Y25266D01*
X7241Y25257D01*
X7264Y25254D01*
X7288Y25257D01*
X7309Y25266D01*
X8175Y24400D01*
X8188Y24391D01*
X8188Y24391D01*
X8188Y24391D01*
D01*
X8188Y24391D01*
X8188Y24391D01*
X8204Y24388D01*
X13411D01*
X13426Y24391D01*
X13440Y24400D01*
X13511Y24471D01*
X13514Y24470D01*
X13538Y24467D01*
X13561Y24470D01*
X13582Y24479D01*
X13601Y24493D01*
X13615Y24512D01*
X13624Y24533D01*
X13627Y24557D01*
X13624Y24580D01*
X13615Y24601D01*
X13601Y24620D01*
X13582Y24634D01*
X13561Y24643D01*
X13538Y24646D01*
X13514Y24643D01*
X13493Y24634D01*
X13474Y24620D01*
X13460Y24601D01*
X13451Y24580D01*
X13448Y24557D01*
X13451Y24533D01*
X13452Y24530D01*
X13393Y24471D01*
X8221D01*
X7353Y25339D01*
X7354Y25344D01*
X7351Y25367D01*
X7342Y25389D01*
X7328Y25407D01*
X7309Y25422D01*
X7288Y25431D01*
X7264Y25434D01*
D02*
G37*
G36*
X13322Y23590D02*
X13288Y23586D01*
X13255Y23576D01*
X13224Y23560D01*
X13198Y23538D01*
X13176Y23511D01*
X13159Y23481D01*
X13149Y23448D01*
X13146Y23413D01*
X13149Y23379D01*
X13159Y23346D01*
X13176Y23316D01*
X13198Y23289D01*
X13224Y23267D01*
X13255Y23251D01*
X13288Y23241D01*
X13322Y23237D01*
X13357Y23241D01*
X13390Y23251D01*
X13420Y23267D01*
X13447Y23289D01*
X13469Y23316D01*
X13485Y23346D01*
X13495Y23379D01*
X13499Y23413D01*
X13495Y23448D01*
X13485Y23481D01*
X13469Y23511D01*
X13447Y23538D01*
X13420Y23560D01*
X13390Y23576D01*
X13357Y23586D01*
X13322Y23590D01*
D02*
G37*
G36*
Y23082D02*
X13288Y23078D01*
X13255Y23068D01*
X13224Y23052D01*
X13198Y23030D01*
X13176Y23003D01*
X13159Y22973D01*
X13149Y22940D01*
X13146Y22905D01*
X13149Y22871D01*
X13159Y22838D01*
X13176Y22808D01*
X13198Y22781D01*
X13224Y22759D01*
X13255Y22743D01*
X13288Y22733D01*
X13322Y22729D01*
X13357Y22733D01*
X13390Y22743D01*
X13420Y22759D01*
X13447Y22781D01*
X13469Y22808D01*
X13485Y22838D01*
X13495Y22871D01*
X13499Y22905D01*
X13495Y22940D01*
X13485Y22973D01*
X13469Y23003D01*
X13447Y23030D01*
X13420Y23052D01*
X13390Y23068D01*
X13357Y23078D01*
X13322Y23082D01*
D02*
G37*
G36*
X4431Y21076D02*
X4230D01*
Y20875D01*
X4431D01*
Y21076D01*
D02*
G37*
G36*
X8090Y21073D02*
X8062Y21070D01*
X8037Y21059D01*
X8015Y21042D01*
X7998Y21020D01*
X7987Y20995D01*
X7984Y20967D01*
X7987Y20940D01*
X7998Y20914D01*
X8015Y20892D01*
X8037Y20875D01*
X8062Y20864D01*
X8090Y20861D01*
X8117Y20864D01*
X8143Y20875D01*
X8165Y20892D01*
X8182Y20914D01*
X8193Y20940D01*
X8196Y20967D01*
X8193Y20995D01*
X8182Y21020D01*
X8165Y21042D01*
X8143Y21059D01*
X8117Y21070D01*
X8090Y21073D01*
D02*
G37*
G36*
X4267Y25038D02*
X4233Y25034D01*
X4200Y25024D01*
X4169Y25008D01*
X4143Y24986D01*
X4121Y24959D01*
X4104Y24929D01*
X4094Y24896D01*
X4091Y24861D01*
Y23426D01*
X4094Y23392D01*
X4104Y23359D01*
X4121Y23328D01*
X4143Y23302D01*
X4143Y23302D01*
X4143D01*
Y23302D01*
X4143Y23302D01*
X6517Y20927D01*
X6544Y20905D01*
X6575Y20888D01*
X6608Y20878D01*
X6611Y20878D01*
X6642Y20875D01*
X6642Y20875D01*
X7379D01*
X7380Y20874D01*
X7384Y20839D01*
X7394Y20806D01*
X7410Y20776D01*
X7432Y20749D01*
X7459Y20727D01*
X7489Y20711D01*
X7522Y20701D01*
X7557Y20697D01*
X7772D01*
X7807Y20701D01*
X7840Y20711D01*
X7870Y20727D01*
X7897Y20749D01*
X7919Y20776D01*
X7935Y20806D01*
X7945Y20839D01*
X7949Y20874D01*
X7945Y20908D01*
X7935Y20941D01*
X7919Y20971D01*
X7897Y20998D01*
X7870Y21020D01*
X7840Y21036D01*
X7807Y21046D01*
X7772Y21050D01*
X7734D01*
X7733Y21051D01*
X7729Y21086D01*
X7719Y21119D01*
X7703Y21149D01*
X7681Y21176D01*
X7654Y21198D01*
X7624Y21214D01*
X7591Y21224D01*
X7557Y21228D01*
X6715D01*
X4443Y23499D01*
Y24861D01*
X4440Y24896D01*
X4430Y24929D01*
X4414Y24959D01*
X4392Y24986D01*
X4365Y25008D01*
X4335Y25024D01*
X4302Y25034D01*
X4267Y25038D01*
D02*
G37*
G36*
X4331Y21838D02*
X4304Y21835D01*
X4280Y21825D01*
X4259Y21809D01*
X4243Y21788D01*
X4233Y21763D01*
X4229Y21737D01*
X4233Y21711D01*
X4243Y21686D01*
X4259Y21665D01*
X4280Y21649D01*
X4304Y21639D01*
X4331Y21636D01*
X4357Y21639D01*
X4381Y21649D01*
X4402Y21665D01*
X4418Y21686D01*
X4429Y21711D01*
X4432Y21737D01*
X4429Y21763D01*
X4418Y21788D01*
X4402Y21809D01*
X4381Y21825D01*
X4357Y21835D01*
X4331Y21838D01*
D02*
G37*
G36*
Y21584D02*
X4304Y21581D01*
X4280Y21571D01*
X4259Y21555D01*
X4243Y21534D01*
X4233Y21509D01*
X4229Y21483D01*
X4233Y21457D01*
X4243Y21432D01*
X4259Y21411D01*
X4280Y21395D01*
X4304Y21385D01*
X4331Y21382D01*
X4357Y21385D01*
X4381Y21395D01*
X4402Y21411D01*
X4418Y21432D01*
X4429Y21457D01*
X4432Y21483D01*
X4429Y21509D01*
X4418Y21534D01*
X4402Y21555D01*
X4381Y21571D01*
X4357Y21581D01*
X4331Y21584D01*
D02*
G37*
G36*
Y21330D02*
X4304Y21327D01*
X4280Y21317D01*
X4259Y21301D01*
X4243Y21280D01*
X4233Y21255D01*
X4229Y21229D01*
X4233Y21203D01*
X4243Y21178D01*
X4259Y21157D01*
X4280Y21141D01*
X4304Y21131D01*
X4331Y21128D01*
X4357Y21131D01*
X4381Y21141D01*
X4402Y21157D01*
X4418Y21178D01*
X4429Y21203D01*
X4432Y21229D01*
X4429Y21255D01*
X4418Y21280D01*
X4402Y21301D01*
X4381Y21317D01*
X4357Y21327D01*
X4331Y21330D01*
D02*
G37*
G36*
X4648Y25827D02*
X4140D01*
X4130Y25825D01*
X4122Y25819D01*
X4116Y25811D01*
X4114Y25801D01*
Y25357D01*
X4116Y25347D01*
X4122Y25338D01*
X4130Y25333D01*
X4140Y25331D01*
X5093D01*
X5103Y25333D01*
X5111Y25338D01*
X5117Y25347D01*
X5119Y25357D01*
Y25405D01*
X5118Y25406D01*
X5119Y25407D01*
X5117Y25411D01*
X5117Y25415D01*
X5116Y25416D01*
X5116Y25417D01*
X5113Y25420D01*
X5111Y25423D01*
X5110Y25424D01*
X5110Y25425D01*
X5106Y25427D01*
X5103Y25429D01*
X5102Y25429D01*
X5101Y25430D01*
X5089Y25434D01*
X5088Y25434D01*
X5087Y25434D01*
X5083Y25434D01*
X5079Y25435D01*
X5078Y25435D01*
X5077Y25435D01*
X5067Y25464D01*
Y25471D01*
Y25478D01*
X5077Y25507D01*
X5078Y25507D01*
X5079Y25507D01*
X5083Y25507D01*
X5087Y25508D01*
X5088Y25508D01*
X5089Y25508D01*
X5101Y25512D01*
X5102Y25513D01*
X5103Y25513D01*
X5106Y25515D01*
X5110Y25517D01*
X5110Y25518D01*
X5111Y25518D01*
X5113Y25522D01*
X5116Y25525D01*
X5116Y25526D01*
X5117Y25527D01*
X5117Y25531D01*
X5119Y25535D01*
X5118Y25536D01*
X5119Y25537D01*
Y25674D01*
X5117Y25684D01*
X5111Y25692D01*
X5103Y25698D01*
X5093Y25700D01*
X4674D01*
Y25801D01*
X4672Y25811D01*
X4667Y25819D01*
X4658Y25825D01*
X4648Y25827D01*
D02*
G37*
G36*
X6007Y26043D02*
X5984Y26040D01*
X5962Y26031D01*
X5944Y26017D01*
X5929Y25998D01*
X5920Y25977D01*
X5917Y25954D01*
X5920Y25930D01*
X5922Y25927D01*
X5292Y25297D01*
X5283Y25283D01*
X5280Y25268D01*
Y25093D01*
X5276Y25091D01*
X5258Y25077D01*
X5244Y25059D01*
X5235Y25037D01*
X5232Y25014D01*
X5235Y24990D01*
X5244Y24969D01*
X5258Y24950D01*
X5276Y24936D01*
X5298Y24927D01*
X5321Y24924D01*
X5345Y24927D01*
X5366Y24936D01*
X5385Y24950D01*
X5399Y24969D01*
X5408Y24990D01*
X5411Y25014D01*
X5408Y25037D01*
X5399Y25059D01*
X5385Y25077D01*
X5366Y25091D01*
X5362Y25093D01*
Y25251D01*
X5980Y25868D01*
X5984Y25867D01*
X6007Y25864D01*
X6030Y25867D01*
X6052Y25876D01*
X6071Y25890D01*
X6085Y25909D01*
X6094Y25930D01*
X6097Y25954D01*
X6094Y25977D01*
X6085Y25998D01*
X6071Y26017D01*
X6052Y26031D01*
X6030Y26040D01*
X6007Y26043D01*
D02*
G37*
G36*
X8141Y26220D02*
X8113Y26217D01*
X8088Y26206D01*
X8066Y26189D01*
X8049Y26167D01*
X8038Y26141D01*
X8034Y26114D01*
X8038Y26086D01*
X8049Y26061D01*
X8066Y26039D01*
X8088Y26022D01*
X8113Y26011D01*
X8141Y26008D01*
X8168Y26011D01*
X8194Y26022D01*
X8216Y26039D01*
X8233Y26061D01*
X8243Y26086D01*
X8247Y26114D01*
X8243Y26141D01*
X8233Y26167D01*
X8216Y26189D01*
X8194Y26206D01*
X8168Y26217D01*
X8141Y26220D01*
D02*
G37*
G36*
X6033Y25522D02*
X6009Y25519D01*
X5988Y25510D01*
X5969Y25496D01*
X5955Y25478D01*
X5946Y25456D01*
X5943Y25433D01*
X5946Y25410D01*
X5955Y25388D01*
X5969Y25369D01*
X5988Y25355D01*
X6009Y25346D01*
X6033Y25343D01*
X6056Y25346D01*
X6059Y25348D01*
X6131Y25276D01*
Y24910D01*
X6119Y24906D01*
X6112Y24916D01*
X5915Y25113D01*
X5917Y25117D01*
X5920Y25140D01*
X5917Y25163D01*
X5908Y25185D01*
X5893Y25204D01*
X5875Y25218D01*
X5853Y25227D01*
X5830Y25230D01*
X5807Y25227D01*
X5785Y25218D01*
X5766Y25204D01*
X5752Y25185D01*
X5743Y25163D01*
X5740Y25140D01*
X5743Y25117D01*
X5752Y25095D01*
X5766Y25077D01*
X5785Y25062D01*
X5807Y25053D01*
X5830Y25050D01*
X5853Y25053D01*
X5857Y25055D01*
X6042Y24870D01*
Y23725D01*
Y23375D01*
X6042Y23375D01*
X6042D01*
X6045Y23360D01*
X6054Y23346D01*
X6239Y23161D01*
X6238Y23157D01*
X6235Y23134D01*
X6238Y23111D01*
X6247Y23089D01*
X6261Y23071D01*
X6280Y23056D01*
X6301Y23047D01*
X6325Y23044D01*
X6348Y23047D01*
X6369Y23056D01*
X6388Y23071D01*
X6398Y23084D01*
X6410Y23080D01*
Y22375D01*
X6407Y22374D01*
X6388Y22359D01*
X6374Y22341D01*
X6365Y22319D01*
X6362Y22296D01*
X6365Y22273D01*
X6374Y22251D01*
X6388Y22232D01*
X6407Y22218D01*
X6428Y22209D01*
X6452Y22206D01*
X6475Y22209D01*
X6496Y22218D01*
X6515Y22232D01*
X6529Y22251D01*
X6538Y22273D01*
X6541Y22296D01*
X6538Y22319D01*
X6529Y22341D01*
X6515Y22359D01*
X6496Y22374D01*
X6493Y22375D01*
Y23680D01*
X6490Y23696D01*
X6481Y23709D01*
X6372Y23818D01*
X6373Y23822D01*
X6376Y23845D01*
X6373Y23869D01*
X6364Y23890D01*
X6350Y23909D01*
X6331Y23923D01*
X6328Y23924D01*
Y24972D01*
X6340Y24977D01*
X6347Y24967D01*
Y24264D01*
X6347Y24264D01*
X6347D01*
X6350Y24249D01*
X6359Y24235D01*
X6430Y24164D01*
X6428Y24161D01*
X6425Y24137D01*
X6428Y24114D01*
X6437Y24093D01*
X6452Y24074D01*
X6470Y24060D01*
X6492Y24051D01*
X6515Y24048D01*
X6538Y24051D01*
X6560Y24060D01*
X6579Y24074D01*
X6593Y24093D01*
X6602Y24114D01*
X6605Y24137D01*
X6602Y24161D01*
X6593Y24182D01*
X6579Y24201D01*
X6560Y24215D01*
X6538Y24224D01*
X6515Y24227D01*
X6492Y24224D01*
X6488Y24223D01*
X6429Y24281D01*
Y24939D01*
X6437Y24940D01*
X6458Y24949D01*
X6477Y24963D01*
X6491Y24982D01*
X6500Y25003D01*
X6503Y25026D01*
X6500Y25050D01*
X6491Y25071D01*
X6477Y25090D01*
X6458Y25104D01*
X6437Y25113D01*
X6414Y25116D01*
X6390Y25113D01*
X6369Y25104D01*
X6350Y25090D01*
X6340Y25076D01*
X6328Y25080D01*
Y25109D01*
X6326Y25118D01*
Y25189D01*
X6328Y25198D01*
Y25303D01*
X6638D01*
X6702Y25238D01*
X6701Y25235D01*
X6698Y25211D01*
X6701Y25188D01*
X6710Y25166D01*
X6724Y25148D01*
X6743Y25134D01*
X6764Y25125D01*
X6787Y25122D01*
X6811Y25125D01*
X6832Y25134D01*
X6851Y25148D01*
X6865Y25166D01*
X6874Y25188D01*
X6877Y25211D01*
X6874Y25235D01*
X6865Y25256D01*
X6851Y25275D01*
X6832Y25289D01*
X6811Y25298D01*
X6787Y25301D01*
X6764Y25298D01*
X6761Y25296D01*
X6684Y25373D01*
X6671Y25382D01*
X6655Y25385D01*
X6287D01*
X6271Y25382D01*
X6257Y25373D01*
X6248Y25360D01*
X6245Y25344D01*
Y25206D01*
X6243Y25196D01*
Y25111D01*
X6243Y25111D01*
X6243D01*
X6245Y25101D01*
Y23924D01*
X6242Y23923D01*
X6225Y23910D01*
X6213Y23916D01*
Y25293D01*
X6210Y25309D01*
X6201Y25322D01*
X6118Y25406D01*
X6119Y25410D01*
X6122Y25433D01*
X6119Y25456D01*
X6110Y25478D01*
X6096Y25496D01*
X6077Y25510D01*
X6056Y25519D01*
X6033Y25522D01*
D02*
G37*
G36*
X12207Y25061D02*
X9207D01*
X9164Y25058D01*
X9122Y25048D01*
X9082Y25031D01*
X9045Y25009D01*
X9012Y24980D01*
X8984Y24947D01*
X8961Y24911D01*
X8945Y24870D01*
X8935Y24828D01*
X8931Y24785D01*
X8935Y24742D01*
X8945Y24700D01*
X8961Y24660D01*
X8984Y24623D01*
X9012Y24590D01*
X9045Y24562D01*
X9082Y24539D01*
X9122Y24522D01*
X9164Y24512D01*
X9207Y24509D01*
X12207D01*
X12251Y24512D01*
X12293Y24522D01*
X12333Y24539D01*
X12370Y24562D01*
X12403Y24590D01*
X12431Y24623D01*
X12454Y24660D01*
X12470Y24700D01*
X12480Y24742D01*
X12484Y24785D01*
X12480Y24828D01*
X12470Y24870D01*
X12454Y24911D01*
X12431Y24947D01*
X12403Y24980D01*
X12370Y25009D01*
X12333Y25031D01*
X12293Y25048D01*
X12251Y25058D01*
X12207Y25061D01*
D02*
G37*
%LPD*%
G36*
X4648Y25674D02*
X5093D01*
Y25537D01*
X5081Y25533D01*
X5080Y25534D01*
X5061Y25548D01*
X5042Y25556D01*
Y25471D01*
Y25385D01*
X5061Y25394D01*
X5080Y25408D01*
X5081Y25409D01*
X5093Y25405D01*
Y25357D01*
X4140D01*
Y25801D01*
X4648D01*
Y25674D01*
D02*
G37*
%LPC*%
G36*
X4356Y25697D02*
Y25572D01*
X4481D01*
X4481Y25577D01*
X4472Y25606D01*
X4458Y25632D01*
X4439Y25655D01*
X4416Y25674D01*
X4389Y25688D01*
X4360Y25697D01*
X4356Y25697D01*
D02*
G37*
G36*
X4481Y25522D02*
X4356D01*
Y25397D01*
X4360Y25397D01*
X4389Y25406D01*
X4416Y25420D01*
X4439Y25439D01*
X4458Y25462D01*
X4472Y25489D01*
X4481Y25517D01*
X4481Y25522D01*
D02*
G37*
G36*
X4306D02*
X4180D01*
X4181Y25517D01*
X4190Y25489D01*
X4204Y25462D01*
X4223Y25439D01*
X4246Y25420D01*
X4272Y25406D01*
X4301Y25397D01*
X4306Y25397D01*
Y25522D01*
D02*
G37*
G36*
Y25697D02*
X4301Y25697D01*
X4272Y25688D01*
X4246Y25674D01*
X4223Y25655D01*
X4204Y25632D01*
X4190Y25606D01*
X4181Y25577D01*
X4180Y25572D01*
X4306D01*
Y25697D01*
D02*
G37*
G36*
X4852Y25446D02*
X4791D01*
X4799Y25426D01*
X4814Y25408D01*
X4832Y25394D01*
X4852Y25385D01*
Y25446D01*
D02*
G37*
G36*
Y25556D02*
X4832Y25548D01*
X4814Y25534D01*
X4799Y25516D01*
X4791Y25496D01*
X4852D01*
Y25556D01*
D02*
G37*
G36*
X4992D02*
X4972Y25548D01*
X4953Y25534D01*
X4953Y25534D01*
X4940D01*
X4940Y25534D01*
X4921Y25548D01*
X4902Y25556D01*
Y25471D01*
Y25385D01*
X4921Y25394D01*
X4940Y25408D01*
X4940Y25408D01*
X4953D01*
X4953Y25408D01*
X4972Y25394D01*
X4992Y25385D01*
Y25471D01*
Y25556D01*
D02*
G37*
%LPD*%
D10*
X3823Y10705D02*
X13823D01*
Y2705D02*
Y10705D01*
X3823Y2705D02*
X13823D01*
X3823D02*
Y10705D01*
Y19205D02*
X13823D01*
Y11205D02*
Y19205D01*
X3823Y11205D02*
X13823D01*
X3823D02*
Y19205D01*
Y27705D02*
X13823D01*
Y19705D02*
Y27705D01*
X3823Y19705D02*
X13823D01*
X3823D02*
Y27705D01*
X13411Y7429D02*
X13538Y7557D01*
X8204Y7429D02*
X13411D01*
X7277Y8357D02*
X8204Y7429D01*
X6655Y8344D02*
X6787Y8211D01*
X6287Y8344D02*
X6655D01*
X6033Y8433D02*
X6172Y8293D01*
Y6693D02*
Y8293D01*
Y6693D02*
X6325Y6540D01*
Y6350D02*
Y6540D01*
X6388Y7264D02*
X6515Y7137D01*
X6388Y7264D02*
Y8001D01*
X5830Y8140D02*
X6083Y7887D01*
Y6725D02*
Y7887D01*
Y6375D02*
Y6725D01*
Y6375D02*
X6325Y6134D01*
X6287Y8198D02*
Y8344D01*
X6285Y8196D02*
X6287Y8198D01*
X6285Y8111D02*
Y8196D01*
Y8111D02*
X6287Y8109D01*
Y6845D02*
Y8109D01*
X5321Y8268D02*
X6007Y8954D01*
X5321Y8014D02*
Y8268D01*
X6452Y5296D02*
Y6680D01*
X6287Y6845D02*
X6452Y6680D01*
X6287Y6833D02*
Y6845D01*
X13411Y15929D02*
X13538Y16057D01*
X8204Y15929D02*
X13411D01*
X7277Y16857D02*
X8204Y15929D01*
X6655Y16844D02*
X6787Y16711D01*
X6287Y16844D02*
X6655D01*
X6033Y16933D02*
X6172Y16793D01*
Y15193D02*
Y16793D01*
Y15193D02*
X6325Y15040D01*
Y14850D02*
Y15040D01*
X6388Y15764D02*
X6515Y15637D01*
X6388Y15764D02*
Y16501D01*
X5830Y16640D02*
X6083Y16387D01*
Y15225D02*
Y16387D01*
Y14875D02*
Y15225D01*
Y14875D02*
X6325Y14634D01*
X6287Y16698D02*
Y16844D01*
X6285Y16696D02*
X6287Y16698D01*
X6285Y16611D02*
Y16696D01*
Y16611D02*
X6287Y16609D01*
Y15345D02*
Y16609D01*
X5321Y16768D02*
X6007Y17454D01*
X5321Y16514D02*
Y16768D01*
X6452Y13796D02*
Y15180D01*
X6287Y15345D02*
X6452Y15180D01*
X6287Y15333D02*
Y15345D01*
X13411Y24429D02*
X13538Y24557D01*
X8204Y24429D02*
X13411D01*
X7277Y25357D02*
X8204Y24429D01*
X6655Y25344D02*
X6787Y25211D01*
X6287Y25344D02*
X6655D01*
X6033Y25433D02*
X6172Y25293D01*
Y23693D02*
Y25293D01*
Y23693D02*
X6325Y23540D01*
Y23350D02*
Y23540D01*
X6388Y24264D02*
X6515Y24137D01*
X6388Y24264D02*
Y25001D01*
X5830Y25140D02*
X6083Y24887D01*
Y23725D02*
Y24887D01*
Y23375D02*
Y23725D01*
Y23375D02*
X6325Y23134D01*
X6287Y25198D02*
Y25344D01*
X6285Y25196D02*
X6287Y25198D01*
X6285Y25111D02*
Y25196D01*
Y25111D02*
X6287Y25109D01*
Y23845D02*
Y25109D01*
X5321Y25268D02*
X6007Y25954D01*
X5321Y25014D02*
Y25268D01*
X6452Y22296D02*
Y23680D01*
X6287Y23845D02*
X6452Y23680D01*
X6287Y23833D02*
Y23845D01*
D32*
X4267Y6426D02*
Y7861D01*
X7557Y3874D02*
X7772D01*
X4267Y6426D02*
X6642Y4051D01*
X7557D01*
X4267Y14926D02*
Y16361D01*
X7557Y12374D02*
X7772D01*
X4267Y14926D02*
X6642Y12551D01*
X7557D01*
X4267Y23426D02*
Y24861D01*
X7557Y20874D02*
X7772D01*
X4267Y23426D02*
X6642Y21051D01*
X7557D01*
D33*
X11707Y5245D02*
X12207D01*
X11207D02*
X11707D01*
X10707D02*
X11207D01*
X10224D02*
X10707D01*
X9715D02*
X10224D01*
X9207D02*
X9715D01*
X11747Y7785D02*
X12207D01*
X11207D02*
X11747D01*
X10707D02*
X11207D01*
X10224D02*
X10707D01*
X9715D02*
X10224D01*
X9207D02*
X9715D01*
X11707Y13745D02*
X12207D01*
X11207D02*
X11707D01*
X10707D02*
X11207D01*
X10224D02*
X10707D01*
X9715D02*
X10224D01*
X9207D02*
X9715D01*
X11747Y16285D02*
X12207D01*
X11207D02*
X11747D01*
X10707D02*
X11207D01*
X10224D02*
X10707D01*
X9715D02*
X10224D01*
X9207D02*
X9715D01*
X11707Y22245D02*
X12207D01*
X11207D02*
X11707D01*
X10707D02*
X11207D01*
X10224D02*
X10707D01*
X9715D02*
X10224D01*
X9207D02*
X9715D01*
X11747Y24785D02*
X12207D01*
X11207D02*
X11747D01*
X10707D02*
X11207D01*
X10224D02*
X10707D01*
X9715D02*
X10224D01*
X9207D02*
X9715D01*
D36*
X4331Y8547D02*
D03*
Y9055D02*
D03*
Y17047D02*
D03*
Y17555D02*
D03*
Y25547D02*
D03*
Y26055D02*
D03*
D37*
X8141Y9114D02*
D03*
Y9614D02*
D03*
X8090Y3967D02*
D03*
Y3467D02*
D03*
X4534Y7836D02*
D03*
X4284D02*
D03*
X8141Y17614D02*
D03*
Y18114D02*
D03*
X8090Y12467D02*
D03*
Y11967D02*
D03*
X4534Y16336D02*
D03*
X4284D02*
D03*
X8141Y26114D02*
D03*
Y26614D02*
D03*
X8090Y20967D02*
D03*
Y20467D02*
D03*
X4534Y24836D02*
D03*
X4284D02*
D03*
D38*
X13322Y6414D02*
D03*
Y5906D02*
D03*
X9207Y7785D02*
D03*
X9715D02*
D03*
X10224D02*
D03*
X10707D02*
D03*
X11207D02*
D03*
X11747D02*
D03*
X12207D02*
D03*
Y5245D02*
D03*
X11707D02*
D03*
X11207D02*
D03*
X10707D02*
D03*
X10224D02*
D03*
X9715D02*
D03*
X9207D02*
D03*
X13322Y14913D02*
D03*
Y14405D02*
D03*
X9207Y16285D02*
D03*
X9715D02*
D03*
X10224D02*
D03*
X10707D02*
D03*
X11207D02*
D03*
X11747D02*
D03*
X12207D02*
D03*
Y13745D02*
D03*
X11707D02*
D03*
X11207D02*
D03*
X10707D02*
D03*
X10224D02*
D03*
X9715D02*
D03*
X9207D02*
D03*
X13322Y23413D02*
D03*
Y22905D02*
D03*
X9207Y24785D02*
D03*
X9715D02*
D03*
X10224D02*
D03*
X10707D02*
D03*
X11207D02*
D03*
X11747D02*
D03*
X12207D02*
D03*
Y22245D02*
D03*
X11707D02*
D03*
X11207D02*
D03*
X10707D02*
D03*
X10224D02*
D03*
X9715D02*
D03*
X9207D02*
D03*
D39*
X4331Y4483D02*
D03*
Y4229D02*
D03*
Y4737D02*
D03*
Y4991D02*
D03*
Y5245D02*
D03*
Y5499D02*
D03*
Y12983D02*
D03*
Y12729D02*
D03*
Y13237D02*
D03*
Y13491D02*
D03*
Y13745D02*
D03*
Y13999D02*
D03*
Y21483D02*
D03*
Y21229D02*
D03*
Y21737D02*
D03*
Y21991D02*
D03*
Y22245D02*
D03*
Y22499D02*
D03*
D40*
Y3975D02*
D03*
Y12475D02*
D03*
Y20975D02*
D03*
D41*
X5029Y9119D02*
D03*
X5728D02*
D03*
X8395Y3213D02*
D03*
X8103D02*
D03*
X7823D02*
D03*
X7582Y3467D02*
D03*
X8649D02*
D03*
X8382D02*
D03*
X7823D02*
D03*
X13538Y6896D02*
D03*
X7760Y6299D02*
D03*
X7747Y6604D02*
D03*
X7925Y6515D02*
D03*
X8128D02*
D03*
X8331D02*
D03*
X7734Y6845D02*
D03*
X6998Y8674D02*
D03*
Y8928D02*
D03*
X7252D02*
D03*
Y9182D02*
D03*
X6998D02*
D03*
X6744D02*
D03*
X5728Y8357D02*
D03*
Y6515D02*
D03*
X7544Y4102D02*
D03*
X6401Y8230D02*
D03*
X6515Y7709D02*
D03*
X6871Y7582D02*
D03*
X5461Y5271D02*
D03*
X4572Y8674D02*
D03*
X4699Y8471D02*
D03*
X7772Y3874D02*
D03*
X6787Y8211D02*
D03*
X7557Y3874D02*
D03*
X7264Y8344D02*
D03*
X13538Y7557D02*
D03*
X6007Y8954D02*
D03*
X5321Y8014D02*
D03*
X6452Y5296D02*
D03*
X6325Y6134D02*
D03*
Y6350D02*
D03*
X5830Y8140D02*
D03*
X6033Y8433D02*
D03*
X6287Y6845D02*
D03*
X6515Y7137D02*
D03*
X6414Y8026D02*
D03*
X5029Y17619D02*
D03*
X5728D02*
D03*
X8395Y11713D02*
D03*
X8103D02*
D03*
X7823D02*
D03*
X7582Y11967D02*
D03*
X8649D02*
D03*
X8382D02*
D03*
X7823D02*
D03*
X13538Y15396D02*
D03*
X7760Y14799D02*
D03*
X7747Y15104D02*
D03*
X7925Y15015D02*
D03*
X8128D02*
D03*
X8331D02*
D03*
X7734Y15345D02*
D03*
X6998Y17174D02*
D03*
Y17428D02*
D03*
X7252D02*
D03*
Y17682D02*
D03*
X6998D02*
D03*
X6744D02*
D03*
X5728Y16857D02*
D03*
Y15015D02*
D03*
X7544Y12602D02*
D03*
X6401Y16730D02*
D03*
X6515Y16209D02*
D03*
X6871Y16082D02*
D03*
X5461Y13771D02*
D03*
X4572Y17174D02*
D03*
X4699Y16971D02*
D03*
X7772Y12374D02*
D03*
X6787Y16711D02*
D03*
X7557Y12374D02*
D03*
X7264Y16844D02*
D03*
X13538Y16057D02*
D03*
X6007Y17454D02*
D03*
X5321Y16514D02*
D03*
X6452Y13796D02*
D03*
X6325Y14634D02*
D03*
Y14850D02*
D03*
X5830Y16640D02*
D03*
X6033Y16933D02*
D03*
X6287Y15345D02*
D03*
X6515Y15637D02*
D03*
X6414Y16526D02*
D03*
X5029Y26119D02*
D03*
X5728D02*
D03*
X8395Y20213D02*
D03*
X8103D02*
D03*
X7823D02*
D03*
X7582Y20467D02*
D03*
X8649D02*
D03*
X8382D02*
D03*
X7823D02*
D03*
X13538Y23896D02*
D03*
X7760Y23299D02*
D03*
X7747Y23604D02*
D03*
X7925Y23515D02*
D03*
X8128D02*
D03*
X8331D02*
D03*
X7734Y23845D02*
D03*
X6998Y25674D02*
D03*
Y25928D02*
D03*
X7252D02*
D03*
Y26182D02*
D03*
X6998D02*
D03*
X6744D02*
D03*
X5728Y25357D02*
D03*
Y23515D02*
D03*
X7544Y21102D02*
D03*
X6401Y25230D02*
D03*
X6515Y24709D02*
D03*
X6871Y24582D02*
D03*
X5461Y22271D02*
D03*
X4572Y25674D02*
D03*
X4699Y25471D02*
D03*
X7772Y20874D02*
D03*
X6787Y25211D02*
D03*
X7557Y20874D02*
D03*
X7264Y25344D02*
D03*
X13538Y24557D02*
D03*
X6007Y25954D02*
D03*
X5321Y25014D02*
D03*
X6452Y22296D02*
D03*
X6325Y23134D02*
D03*
Y23350D02*
D03*
X5830Y25140D02*
D03*
X6033Y25433D02*
D03*
X6287Y23845D02*
D03*
X6515Y24137D02*
D03*
X6414Y25026D02*
D03*
D42*
X4323Y3205D02*
D03*
Y10205D02*
D03*
X13323D02*
D03*
Y3205D02*
D03*
X4323Y11705D02*
D03*
Y18705D02*
D03*
X13323D02*
D03*
Y11705D02*
D03*
X4323Y20205D02*
D03*
Y27205D02*
D03*
X13323D02*
D03*
Y20205D02*
D03*
M02*
