%FSLAX42Y42*%
%MOMM*%
G71*
G01*
G75*
G04 Layer_Physical_Order=1*
G04 Layer_Color=255*
%ADD10C,0.30*%
%ADD11R,0.70X1.30*%
%ADD12R,1.30X0.90*%
%ADD13R,1.20X1.00*%
%ADD14R,0.90X1.60*%
%ADD15R,0.60X0.80*%
%ADD16R,1.30X0.70*%
%ADD17R,0.90X1.30*%
%ADD18R,0.80X0.60*%
%ADD19R,0.70X1.20*%
%ADD20R,1.00X1.70*%
%ADD21R,1.60X0.90*%
%ADD22R,1.30X1.30*%
%ADD23R,3.60X1.30*%
%ADD24R,1.50X0.60*%
%ADD25R,1.00X0.40*%
%ADD26R,1.00X1.20*%
%ADD27R,1.20X0.70*%
%ADD28C,0.50*%
%ADD29C,2.00*%
%ADD30C,1.00*%
%ADD31C,0.25*%
%ADD32C,3.00*%
%ADD33C,5.00*%
%ADD34C,1.50*%
%ADD35C,1.30*%
%ADD36C,2.54*%
%ADD37C,1.60*%
%ADD38C,3.00*%
%ADD39C,1.50*%
%ADD40R,1.50X1.50*%
%ADD41C,1.27*%
%ADD42C,4.00*%
G36*
X3879Y2761D02*
X13767D01*
Y10649D01*
X3879D01*
Y2761D01*
D02*
G37*
%LPC*%
G36*
X5538Y8855D02*
X8723D01*
X8730Y8853D01*
X8736Y8852D01*
X8737Y8852D01*
X8739Y8851D01*
X8744Y8848D01*
X8750Y8844D01*
X8762Y8834D01*
X8762Y8834D01*
X8909Y8705D01*
X8910Y8704D01*
X8911Y8703D01*
X8915Y8697D01*
X8919Y8692D01*
X8919Y8691D01*
X8920Y8690D01*
X8921Y8683D01*
X8923Y8677D01*
X8923Y8675D01*
X8923Y8674D01*
Y8169D01*
Y7868D01*
X8923Y7867D01*
X8923Y7865D01*
X8921Y7859D01*
X8920Y7853D01*
X8919Y7851D01*
X8919Y7850D01*
X8915Y7845D01*
X8911Y7839D01*
X8910Y7839D01*
X8909Y7837D01*
X8885Y7816D01*
D01*
X8695Y7649D01*
X8673Y7614D01*
X8644Y7579D01*
X8609Y7550D01*
X8570Y7526D01*
X8540Y7513D01*
X7598Y6688D01*
X7593Y6684D01*
X7587Y6681D01*
X7586Y6680D01*
X7585Y6680D01*
X7578Y6679D01*
X7571Y6678D01*
X4916D01*
X4915Y6673D01*
X4905Y6628D01*
X4887Y6586D01*
X4863Y6547D01*
X4834Y6513D01*
X4529Y6208D01*
X4494Y6178D01*
X4455Y6154D01*
X4413Y6137D01*
X4369Y6126D01*
X4323Y6123D01*
X4278Y6126D01*
X4233Y6137D01*
X4191Y6154D01*
X4152Y6178D01*
X4117Y6208D01*
X4088Y6243D01*
X4064Y6281D01*
X4046Y6324D01*
X4036Y6368D01*
X4032Y6414D01*
X4036Y6459D01*
X4046Y6503D01*
X4064Y6546D01*
X4088Y6584D01*
X4117Y6619D01*
X4422Y6924D01*
X4457Y6954D01*
X4487Y6972D01*
Y7099D01*
X4492Y7136D01*
X4506Y7170D01*
X4528Y7199D01*
Y7227D01*
X4528D01*
Y7270D01*
X4526Y7275D01*
X4522Y7302D01*
X4526Y7330D01*
X4528Y7335D01*
Y7371D01*
X4527Y7372D01*
X4516Y7399D01*
X4512Y7429D01*
X4516Y7460D01*
X4527Y7487D01*
X4528Y7488D01*
Y7504D01*
X4540D01*
X4546Y7512D01*
X4570Y7530D01*
X4598Y7542D01*
X4628Y7545D01*
X4688D01*
Y7592D01*
X4682Y7599D01*
X4679Y7599D01*
X4679Y7599D01*
Y7599D01*
X4597D01*
X4341Y7343D01*
Y7252D01*
X4337Y7230D01*
X4325Y7212D01*
X4248Y7136D01*
X4230Y7124D01*
X4209Y7119D01*
X4208D01*
Y7100D01*
X4011D01*
Y4710D01*
X4435Y4285D01*
X8019D01*
X8040Y4281D01*
X8058Y4269D01*
X9210Y3117D01*
X9862D01*
X10748Y4002D01*
X10766Y4014D01*
X10787Y4018D01*
X13200D01*
Y4090D01*
X13430D01*
Y3860D01*
X13200D01*
Y3906D01*
X10811D01*
X9925Y3021D01*
X9925Y3021D01*
X9925D01*
X9925Y3021D01*
X9925D01*
X9925Y3021D01*
Y3021D01*
Y3021D01*
D01*
D01*
X9925D01*
Y3021D01*
X9907Y3009D01*
X9886Y3005D01*
X9187D01*
X9166Y3009D01*
X9148Y3021D01*
X9148Y3021D01*
X9148Y3021D01*
X7996Y4173D01*
X4412D01*
X4391Y4177D01*
X4372Y4189D01*
X4372Y4189D01*
X4372Y4189D01*
X3915Y4647D01*
X3903Y4665D01*
X3899Y4686D01*
X3899Y4686D01*
X3899Y4686D01*
Y4686D01*
Y7252D01*
X3903Y7273D01*
X3915Y7291D01*
X3966Y7342D01*
X3984Y7354D01*
X4006Y7359D01*
X4008D01*
Y7504D01*
X4008D01*
X4014Y7513D01*
X4007Y7529D01*
X4004Y7557D01*
X4007Y7584D01*
X4017Y7609D01*
X4034Y7630D01*
X4056Y7647D01*
X4081Y7657D01*
X4106Y7661D01*
X4117Y7671D01*
Y7782D01*
X4326D01*
Y7612D01*
X4216D01*
X4203Y7598D01*
X4209Y7584D01*
X4212Y7557D01*
X4209Y7529D01*
X4202Y7513D01*
X4208Y7504D01*
X4208D01*
Y7377D01*
X4208D01*
Y7270D01*
X4220Y7266D01*
X4229Y7275D01*
Y7366D01*
X4233Y7388D01*
X4246Y7406D01*
X4472Y7632D01*
Y7768D01*
X4682D01*
Y7732D01*
X4695Y7730D01*
X4696Y7732D01*
X4697Y7734D01*
X4697Y7735D01*
X4701Y7740D01*
X4705Y7745D01*
X4706Y7746D01*
X4707Y7748D01*
X4713Y7751D01*
X4718Y7754D01*
X4720Y7754D01*
X4721Y7755D01*
X4727Y7756D01*
X4734Y7757D01*
X4735Y7757D01*
X4737Y7757D01*
X4975Y7734D01*
X5007Y7765D01*
Y8384D01*
X5007Y8385D01*
X5007Y8387D01*
X5009Y8393D01*
X5010Y8400D01*
X5011Y8401D01*
X5011Y8402D01*
X5015Y8407D01*
X5019Y8413D01*
X5020Y8414D01*
X5021Y8415D01*
X5297Y8657D01*
Y8697D01*
X5302Y8733D01*
X5316Y8767D01*
X5321Y8774D01*
Y8785D01*
X5329D01*
X5338Y8797D01*
X5340Y8798D01*
X5341Y8799D01*
X5370Y8822D01*
X5404Y8836D01*
X5441Y8841D01*
X5506D01*
X5511Y8844D01*
X5517Y8848D01*
X5522Y8851D01*
X5523Y8852D01*
X5525Y8852D01*
X5531Y8853D01*
X5538Y8855D01*
D02*
G37*
G36*
X13315Y4345D02*
X13345Y4341D01*
X13373Y4330D01*
X13397Y4311D01*
X13415Y4287D01*
X13427Y4259D01*
X13431Y4229D01*
X13427Y4199D01*
X13415Y4171D01*
X13397Y4147D01*
X13373Y4129D01*
X13345Y4117D01*
X13315Y4113D01*
X13285Y4117D01*
X13257Y4129D01*
X13233Y4147D01*
X13214Y4171D01*
X13213Y4173D01*
X13034D01*
Y4124D01*
X12884D01*
Y4334D01*
X13034D01*
Y4285D01*
X13213D01*
X13214Y4287D01*
X13233Y4311D01*
X13257Y4330D01*
X13285Y4341D01*
X13315Y4345D01*
D02*
G37*
G36*
X9911Y9665D02*
X12718D01*
X12755Y9661D01*
X12791Y9651D01*
X12824Y9633D01*
X12853Y9609D01*
X13120Y9343D01*
X13143Y9314D01*
X13161Y9281D01*
X13172Y9245D01*
X13175Y9207D01*
Y8842D01*
X13501D01*
X13505Y8841D01*
X13509Y8841D01*
X13512Y8840D01*
X13516Y8839D01*
X13517Y8839D01*
X13517Y8838D01*
X13522Y8836D01*
X13527Y8834D01*
X13527Y8834D01*
X13527Y8834D01*
X13534Y8828D01*
X13538Y8823D01*
X13538Y8823D01*
X13538Y8823D01*
X13543Y8813D01*
X13543Y8813D01*
X13543Y8812D01*
X13545Y8808D01*
X13545Y8808D01*
X13545Y8808D01*
Y8808D01*
X13545Y8805D01*
X13545Y8801D01*
X13546Y8797D01*
Y8361D01*
X13545Y8357D01*
X13545Y8353D01*
X13545Y8349D01*
X13543Y8346D01*
X13543Y8345D01*
X13543Y8345D01*
X13540Y8339D01*
X13538Y8335D01*
X13538Y8335D01*
X13538Y8335D01*
X13532Y8328D01*
X13527Y8323D01*
X13527Y8323D01*
X13527Y8323D01*
X13517Y8319D01*
X13517Y8319D01*
X13516Y8319D01*
X13512Y8317D01*
X13512Y8317D01*
X13512Y8317D01*
X13512D01*
X13509Y8317D01*
X13505Y8317D01*
X13501Y8316D01*
X13405D01*
Y7948D01*
X13422Y7941D01*
X13447Y7921D01*
X13466Y7896D01*
X13478Y7867D01*
X13483Y7836D01*
X13478Y7805D01*
X13466Y7775D01*
X13452Y7757D01*
Y7169D01*
X13449Y7145D01*
X13440Y7123D01*
X13426Y7105D01*
X13422Y7102D01*
Y7026D01*
X13450D01*
X13454Y7025D01*
X13458Y7025D01*
X13462Y7024D01*
X13465Y7023D01*
X13466Y7023D01*
X13466Y7022D01*
X13472Y7020D01*
X13476Y7018D01*
X13476Y7018D01*
X13476Y7018D01*
X13483Y7011D01*
X13488Y7007D01*
X13488Y7007D01*
X13488Y7007D01*
X13492Y6997D01*
X13492Y6997D01*
X13492Y6996D01*
X13494Y6992D01*
X13494Y6992D01*
X13494Y6992D01*
Y6992D01*
X13494Y6989D01*
X13494Y6985D01*
X13495Y6981D01*
Y6180D01*
X13495Y6178D01*
Y6178D01*
X13494Y6176D01*
X13495Y6175D01*
X13494Y6174D01*
Y6172D01*
X13494Y6170D01*
Y6170D01*
X13494Y6169D01*
X13494Y6169D01*
Y6169D01*
X13492Y6165D01*
X13492Y6162D01*
X13491Y6161D01*
X13490Y6160D01*
X13490Y6160D01*
X13489Y6158D01*
X13488Y6154D01*
X13488Y6154D01*
X13488Y6154D01*
X13483Y6149D01*
X13483Y6149D01*
X13483Y6149D01*
X13480Y6146D01*
X13480Y6146D01*
X13479Y6145D01*
X13476Y6143D01*
X13476Y6143D01*
X13476Y6143D01*
X13473Y6141D01*
X13470Y6139D01*
X13466Y6137D01*
X13462Y6135D01*
X13458Y6134D01*
X13458Y6134D01*
X13458Y6134D01*
X13454Y6133D01*
X13450Y6132D01*
X13450D01*
X13449Y6132D01*
X13447Y6132D01*
X13445Y6131D01*
X13444Y6131D01*
X13443Y6131D01*
X13440Y6131D01*
X13228D01*
Y5870D01*
X13227Y5866D01*
X13227Y5862D01*
X13224Y5847D01*
X13222Y5843D01*
X13221Y5839D01*
X13219Y5836D01*
X13218Y5832D01*
X13215Y5829D01*
X13213Y5826D01*
X13209Y5824D01*
X13206Y5821D01*
X13203Y5819D01*
X13199Y5817D01*
X13195Y5816D01*
X13192Y5815D01*
X13188Y5815D01*
X13184Y5814D01*
X13151D01*
Y5311D01*
X13220D01*
X13233Y5327D01*
X13257Y5346D01*
X13285Y5357D01*
X13315Y5361D01*
X13345Y5357D01*
X13373Y5346D01*
X13397Y5327D01*
X13415Y5303D01*
X13427Y5275D01*
X13431Y5245D01*
X13427Y5215D01*
X13415Y5187D01*
X13397Y5163D01*
X13373Y5145D01*
X13345Y5133D01*
X13315Y5129D01*
X13285Y5133D01*
X13257Y5145D01*
X13233Y5163D01*
X13220Y5180D01*
X13159D01*
X13154Y5168D01*
X13242Y5080D01*
X13257Y5092D01*
X13285Y5103D01*
X13315Y5107D01*
X13345Y5103D01*
X13373Y5092D01*
X13397Y5073D01*
X13415Y5049D01*
X13427Y5021D01*
X13431Y4991D01*
X13427Y4961D01*
X13415Y4933D01*
X13397Y4909D01*
X13373Y4891D01*
X13345Y4879D01*
X13315Y4875D01*
X13285Y4879D01*
X13259Y4890D01*
X13252Y4879D01*
X13283Y4848D01*
X13285Y4849D01*
X13315Y4853D01*
X13345Y4849D01*
X13373Y4838D01*
X13397Y4819D01*
X13415Y4795D01*
X13427Y4767D01*
X13431Y4737D01*
X13427Y4707D01*
X13415Y4679D01*
X13397Y4655D01*
X13373Y4637D01*
X13345Y4625D01*
X13315Y4621D01*
X13285Y4625D01*
X13259Y4636D01*
X13252Y4625D01*
X13283Y4594D01*
X13285Y4595D01*
X13315Y4599D01*
X13345Y4595D01*
X13373Y4584D01*
X13397Y4565D01*
X13415Y4541D01*
X13427Y4513D01*
X13431Y4483D01*
X13427Y4453D01*
X13415Y4425D01*
X13397Y4401D01*
X13373Y4383D01*
X13345Y4371D01*
X13315Y4367D01*
X13285Y4371D01*
X13257Y4383D01*
X13233Y4401D01*
X13214Y4425D01*
X13203Y4453D01*
X13199Y4483D01*
X13203Y4513D01*
X13203Y4515D01*
X12221Y5498D01*
X12209Y5516D01*
X12205Y5537D01*
Y6187D01*
X12148Y6243D01*
X11930D01*
Y6054D01*
X11829D01*
X11818Y6044D01*
X11800Y6031D01*
X11778Y6027D01*
X11652D01*
Y6013D01*
Y6012D01*
X11753D01*
X11775Y6008D01*
X11793Y5996D01*
X11829Y5960D01*
X11930D01*
Y5750D01*
X11780D01*
Y5850D01*
X11730Y5900D01*
X11652D01*
Y5886D01*
Y5759D01*
X11593D01*
Y5573D01*
X11754D01*
Y5323D01*
X11574D01*
Y5392D01*
X11258D01*
X11254Y5380D01*
X11268Y5370D01*
X11284Y5348D01*
X11295Y5323D01*
X11298Y5296D01*
X11295Y5274D01*
X12284Y4285D01*
X12694D01*
Y4334D01*
X12844D01*
Y4124D01*
X12694D01*
Y4173D01*
X12261D01*
X12239Y4177D01*
X12221Y4189D01*
X12221Y4189D01*
X12221Y4189D01*
X11216Y5194D01*
X11194Y5192D01*
X11167Y5195D01*
X11142Y5205D01*
X11120Y5222D01*
X11103Y5244D01*
X11093Y5269D01*
X11089Y5296D01*
X11093Y5323D01*
X11103Y5348D01*
X11120Y5370D01*
X11142Y5386D01*
X11140Y5392D01*
X11063D01*
Y5343D01*
X10893D01*
Y5553D01*
X11063D01*
Y5504D01*
X11481D01*
Y5759D01*
X11422D01*
Y5886D01*
Y6013D01*
Y6076D01*
X11410Y6080D01*
X11395Y6060D01*
X11373Y6044D01*
X11348Y6033D01*
X11321Y6030D01*
X11294Y6033D01*
X11269Y6044D01*
X11247Y6060D01*
X11230Y6082D01*
X11220Y6107D01*
X11216Y6134D01*
X11220Y6161D01*
X11230Y6186D01*
X11247Y6208D01*
X11269Y6225D01*
X11294Y6235D01*
X11321Y6238D01*
X11331Y6237D01*
X11339Y6247D01*
X11338Y6248D01*
X11321Y6246D01*
X11294Y6249D01*
X11269Y6260D01*
X11247Y6276D01*
X11230Y6298D01*
X11220Y6323D01*
X11216Y6350D01*
X11220Y6377D01*
X11230Y6402D01*
X11247Y6424D01*
X11269Y6440D01*
X11282Y6446D01*
X11285Y6458D01*
X11084Y6659D01*
X11074Y6673D01*
X11069Y6684D01*
X11067Y6689D01*
X11065Y6706D01*
Y7057D01*
X11056Y7064D01*
X11040Y7085D01*
X11029Y7110D01*
X11026Y7137D01*
X11029Y7164D01*
X11024Y7172D01*
X10948D01*
Y6687D01*
X10946Y6670D01*
X10944Y6663D01*
X10940Y6654D01*
X10929Y6640D01*
X10702Y6413D01*
Y6407D01*
X10702D01*
Y6267D01*
X10472D01*
Y6348D01*
X10339D01*
Y6308D01*
X10168D01*
Y6518D01*
X10339D01*
Y6479D01*
X10472D01*
Y6534D01*
X10638D01*
X10817Y6714D01*
Y6855D01*
X10806Y6860D01*
X10745Y6799D01*
X10731Y6789D01*
X10722Y6785D01*
X10715Y6782D01*
X10702Y6780D01*
Y6775D01*
Y6648D01*
X10472D01*
Y6653D01*
X10267D01*
X10250Y6655D01*
X10243Y6658D01*
X10234Y6662D01*
X10220Y6672D01*
X10198Y6694D01*
X10111D01*
Y6844D01*
X10321D01*
Y6784D01*
X10472D01*
Y6788D01*
Y6802D01*
X10333Y6941D01*
X10321Y6936D01*
Y6884D01*
X10111D01*
Y6921D01*
X10100Y6938D01*
X10096Y6959D01*
X10100Y6981D01*
X10101Y6982D01*
X10087Y6995D01*
D01*
X9461Y6997D01*
X9381Y6917D01*
X9386Y6905D01*
X9378D01*
Y6893D01*
X9351Y6866D01*
Y6735D01*
X9343D01*
Y6735D01*
X9343D01*
X9343Y6735D01*
X9336Y6735D01*
Y6735D01*
X9216D01*
Y6873D01*
X9204Y6878D01*
X9142Y6815D01*
X9142Y6815D01*
X8997Y6670D01*
Y6649D01*
X8932Y6584D01*
Y6526D01*
X8941Y6517D01*
X8997Y6517D01*
Y6511D01*
X9006Y6502D01*
X9154Y6502D01*
X9154Y6502D01*
X9154Y6502D01*
X9159Y6502D01*
X9164Y6501D01*
X9164Y6501D01*
X9164Y6501D01*
X9168Y6498D01*
X9172Y6495D01*
X9172Y6495D01*
X9172Y6495D01*
X9181Y6486D01*
X9181Y6486D01*
X9181Y6486D01*
X9184Y6482D01*
X9187Y6478D01*
X9187Y6478D01*
X9187Y6478D01*
X9188Y6473D01*
X9188Y6468D01*
X9188Y6468D01*
X9188Y6468D01*
Y5893D01*
X9204D01*
Y5772D01*
X9216Y5768D01*
X9219Y5772D01*
X9226Y5778D01*
Y5790D01*
X9243D01*
X9244Y5791D01*
X9271Y5802D01*
X9301Y5806D01*
X9332Y5802D01*
X9359Y5791D01*
X9360Y5790D01*
X9370D01*
X9371Y5791D01*
X9398Y5802D01*
X9429Y5806D01*
X9459Y5802D01*
X9486Y5791D01*
X9487Y5790D01*
X9497D01*
X9498Y5791D01*
X9525Y5802D01*
X9556Y5806D01*
X9683D01*
X9713Y5802D01*
X9740Y5791D01*
X9741Y5790D01*
X9758D01*
Y5778D01*
X9765Y5772D01*
X9783Y5748D01*
X9795Y5720D01*
X9798Y5692D01*
X10060D01*
Y5708D01*
X10056Y5710D01*
X10042Y5720D01*
X9869Y5893D01*
X9873D01*
X9878Y5905D01*
X9657Y6125D01*
X9623D01*
X9623Y6125D01*
Y6125D01*
X9623D01*
X9615Y6125D01*
X9614Y6125D01*
X9614Y6125D01*
Y6125D01*
X9608D01*
Y6295D01*
X9614D01*
X9614Y6295D01*
Y6295D01*
X9615Y6295D01*
X9619D01*
X9623Y6295D01*
X9624Y6295D01*
X9624Y6295D01*
Y6295D01*
X9743D01*
Y6184D01*
X10034Y5893D01*
X10075D01*
Y5896D01*
X10075D01*
Y6016D01*
X10089D01*
Y6031D01*
X10147D01*
X10246Y6130D01*
X10259Y6140D01*
X10269Y6144D01*
X10275Y6147D01*
X10292Y6149D01*
X10472D01*
Y6153D01*
X10702D01*
Y6026D01*
Y6022D01*
X10749D01*
X10766Y6020D01*
X10782Y6013D01*
X10789Y6008D01*
X10796Y6003D01*
X10834Y5964D01*
X10845Y5950D01*
X10849Y5939D01*
X10851Y5935D01*
X10853Y5918D01*
Y5553D01*
X10873D01*
Y5343D01*
X10703D01*
Y5553D01*
X10722D01*
Y5891D01*
X10722Y5891D01*
X10702D01*
Y5886D01*
Y5759D01*
X10652D01*
Y5616D01*
X10650Y5599D01*
X10647Y5592D01*
X10643Y5583D01*
X10633Y5570D01*
X10270Y5207D01*
Y5119D01*
X10060D01*
Y5269D01*
X10147D01*
X10521Y5643D01*
Y5759D01*
X10472D01*
Y5715D01*
X10470Y5698D01*
X10466Y5690D01*
X10463Y5682D01*
X10453Y5669D01*
X10364Y5580D01*
X10350Y5569D01*
X10339Y5565D01*
X10334Y5563D01*
X10318Y5561D01*
X9671D01*
Y5304D01*
X9680Y5294D01*
X9758D01*
Y5212D01*
X9900Y5070D01*
X10060D01*
Y5079D01*
X10270D01*
Y4929D01*
X10060D01*
Y4939D01*
X9873D01*
X9856Y4941D01*
X9849Y4944D01*
X9840Y4948D01*
X9826Y4958D01*
X9690Y5094D01*
X9631D01*
Y5094D01*
X9525D01*
X9525Y5094D01*
X9497Y5082D01*
X9467Y5078D01*
X9448Y5081D01*
X9429Y5078D01*
X9403Y5082D01*
X9399Y5072D01*
X9375Y5033D01*
X9345Y4998D01*
X9212Y4866D01*
X9217Y4854D01*
X10267D01*
X10282Y4851D01*
X10296Y4842D01*
X10304Y4829D01*
X10307Y4813D01*
Y3721D01*
X10304Y3705D01*
X10296Y3692D01*
X10282Y3683D01*
X10267Y3680D01*
X9191D01*
X9185Y3682D01*
X9175Y3683D01*
X9175Y3683D01*
X9175D01*
X9171Y3686D01*
X9162Y3692D01*
X9162Y3692D01*
X9162Y3692D01*
X9153Y3705D01*
X9153Y3705D01*
X9149Y3717D01*
Y3717D01*
X9149Y3717D01*
X9147Y3725D01*
X9145Y3733D01*
Y3733D01*
Y3733D01*
X9147Y3739D01*
X9149Y3748D01*
X9149Y3748D01*
Y3748D01*
X9150Y3751D01*
X9157Y3762D01*
X9157Y3762D01*
X9159Y3763D01*
Y4796D01*
X9147Y4801D01*
X8789Y4443D01*
X8789Y4443D01*
X8754Y4413D01*
D01*
D01*
Y4413D01*
X8754Y4413D01*
D01*
D01*
X8754D01*
X8754Y4413D01*
Y4413D01*
X8754Y4413D01*
Y4413D01*
X8716Y4389D01*
X8673Y4372D01*
X8629Y4361D01*
X8583Y4357D01*
X8583Y4357D01*
X4806D01*
X4806Y4357D01*
X4760Y4361D01*
X4716Y4372D01*
X4674Y4389D01*
X4635Y4413D01*
X4600Y4443D01*
X4117Y4925D01*
X4117Y4925D01*
X4088Y4960D01*
X4064Y4999D01*
X4046Y5041D01*
X4036Y5085D01*
X4036Y5085D01*
X4036Y5085D01*
Y5085D01*
X4032Y5131D01*
X4032Y5131D01*
Y5829D01*
X4036Y5875D01*
X4046Y5919D01*
X4064Y5961D01*
X4088Y6000D01*
X4117Y6035D01*
X4152Y6065D01*
X4191Y6088D01*
X4233Y6106D01*
X4278Y6117D01*
X4323Y6120D01*
X4369Y6117D01*
X4413Y6106D01*
X4455Y6088D01*
X4494Y6065D01*
X4529Y6035D01*
X4558Y6000D01*
X4582Y5961D01*
X4600Y5919D01*
X4610Y5875D01*
X4614Y5829D01*
Y5251D01*
X4842Y5023D01*
X4854Y5028D01*
Y6205D01*
X4855Y6209D01*
X4855Y6213D01*
X4856Y6217D01*
X4857Y6221D01*
X4859Y6224D01*
X4861Y6228D01*
X4863Y6231D01*
X4866Y6234D01*
X4869Y6236D01*
X4872Y6239D01*
X5251Y6495D01*
X5255Y6497D01*
X5259Y6499D01*
X5262Y6500D01*
X5266Y6501D01*
X5270Y6501D01*
X5274Y6502D01*
X8350Y6515D01*
Y6705D01*
X8350Y6705D01*
X8354Y6750D01*
X8364Y6795D01*
X8382Y6837D01*
X8406Y6876D01*
X8435Y6911D01*
X8435Y6911D01*
X8741Y7216D01*
X8741Y7216D01*
X8959Y7434D01*
X8994Y7464D01*
X9032Y7488D01*
X9075Y7505D01*
X9119Y7516D01*
X9165Y7519D01*
X9165Y7519D01*
X9189D01*
X9197Y7540D01*
Y7540D01*
X9197D01*
X9198Y7548D01*
X9199Y7551D01*
Y7551D01*
X9200Y7555D01*
X9200Y7555D01*
X9201Y7556D01*
X9203Y7561D01*
X9205Y7566D01*
X9205Y7566D01*
X9205Y7566D01*
X9212Y7573D01*
X9216Y7577D01*
X9216Y7577D01*
X9216Y7577D01*
X9226Y7581D01*
X9226Y7581D01*
X9227Y7582D01*
X9231Y7583D01*
X9231Y7583D01*
X9231Y7583D01*
X9231D01*
X9234Y7584D01*
X9238Y7584D01*
X9242Y7585D01*
X9283D01*
X9286Y7585D01*
X9287Y7589D01*
Y7724D01*
Y7726D01*
X9287Y7729D01*
X9287Y7730D01*
X9287Y7732D01*
X9287Y7733D01*
X9287Y7736D01*
X9201D01*
Y7936D01*
X9211D01*
Y7950D01*
X9213Y7967D01*
X9215Y7972D01*
X9219Y7983D01*
X9230Y7997D01*
X9331Y8098D01*
X9345Y8109D01*
X9353Y8112D01*
X9361Y8115D01*
X9378Y8117D01*
X9370Y8125D01*
X9047D01*
X9032Y8128D01*
X9018Y8137D01*
X9010Y8150D01*
X9006Y8166D01*
Y9406D01*
X9005Y9412D01*
X9005Y9412D01*
X9005Y9412D01*
X9007Y9420D01*
X9009Y9428D01*
X9014Y9439D01*
X9018Y9446D01*
X9022Y9452D01*
X9022Y9452D01*
X9022Y9452D01*
X9029Y9457D01*
X9035Y9461D01*
X9036Y9461D01*
X9036Y9461D01*
X9043Y9463D01*
X9051Y9464D01*
X9631D01*
X9776Y9609D01*
X9805Y9633D01*
X9838Y9651D01*
X9874Y9661D01*
X9911Y9665D01*
D02*
G37*
G36*
X11904Y5573D02*
X12084D01*
Y5487D01*
X12197Y5373D01*
X12211Y5371D01*
X12237Y5361D01*
X12258Y5344D01*
X12275Y5323D01*
X12285Y5298D01*
X12289Y5271D01*
X12285Y5243D01*
X12275Y5218D01*
X12258Y5197D01*
X12237Y5180D01*
X12211Y5170D01*
X12184Y5166D01*
X12157Y5170D01*
X12132Y5180D01*
X12111Y5197D01*
X12094Y5218D01*
X12093Y5221D01*
X11991Y5323D01*
X11904D01*
Y5442D01*
X11903Y5448D01*
X11904Y5454D01*
Y5573D01*
D02*
G37*
%LPD*%
G36*
X11315Y8716D02*
Y8620D01*
X11286D01*
Y8550D01*
X11307D01*
Y8340D01*
X11157D01*
Y8417D01*
X11083D01*
Y8282D01*
X11003D01*
X10999Y8279D01*
X10978Y8275D01*
X10956Y8279D01*
X10956D01*
X10948Y8282D01*
D01*
X10943Y8271D01*
X10948Y8263D01*
X10959Y8238D01*
X10962Y8211D01*
X10962Y8210D01*
X10971Y8200D01*
X11113D01*
Y8194D01*
X11182D01*
X11202Y8190D01*
X11220Y8178D01*
X11270Y8128D01*
X11275Y8121D01*
X11284Y8117D01*
X11306Y8100D01*
X11322Y8079D01*
X11332Y8056D01*
X11344Y8053D01*
X11354Y8062D01*
Y8340D01*
X11347D01*
Y8550D01*
X11354D01*
Y8675D01*
X11358Y8696D01*
X11365Y8707D01*
Y8733D01*
X11332D01*
X11315Y8716D01*
D02*
G37*
G36*
X9200Y3747D02*
X9186Y3733D01*
X9191Y3721D01*
X10267D01*
Y4813D01*
X9200D01*
Y3747D01*
D02*
G37*
G36*
X11497Y8424D02*
Y8340D01*
X11466D01*
Y8039D01*
X11462Y8018D01*
X11449Y7999D01*
X11225Y7775D01*
X11225D01*
X11225Y7775D01*
X11225Y7775D01*
Y7775D01*
X11207Y7763D01*
X11186Y7759D01*
X11113D01*
Y7755D01*
X11015D01*
X10996Y7737D01*
Y7687D01*
X11025D01*
Y7482D01*
X11503D01*
Y7687D01*
X11562D01*
Y7755D01*
X11528D01*
Y7820D01*
Y7885D01*
Y7950D01*
Y8015D01*
Y8080D01*
Y8145D01*
Y8265D01*
X11562D01*
Y8342D01*
X11561Y8342D01*
X11539Y8359D01*
X11522Y8381D01*
X11512Y8406D01*
X11510Y8425D01*
X11497Y8424D01*
D02*
G37*
G36*
X11505Y8620D02*
X11466D01*
Y8550D01*
X11497D01*
Y8442D01*
X11510Y8441D01*
X11512Y8460D01*
X11522Y8485D01*
X11539Y8507D01*
X11561Y8523D01*
X11586Y8534D01*
X11613Y8537D01*
X11640Y8534D01*
X11665Y8523D01*
X11687Y8507D01*
X11703Y8485D01*
X11714Y8460D01*
X11717Y8433D01*
X11714Y8406D01*
X11703Y8381D01*
X11687Y8359D01*
X11674Y8349D01*
Y8265D01*
X11708D01*
Y8196D01*
X11728D01*
X11742Y8214D01*
X11763Y8231D01*
X11788Y8241D01*
X11815Y8244D01*
X11843Y8241D01*
X11868Y8231D01*
X11889Y8214D01*
X11898Y8203D01*
X12052D01*
Y8669D01*
X11943D01*
X11922Y8673D01*
X11903Y8685D01*
X11891Y8703D01*
X11887Y8725D01*
X11887Y8725D01*
X11887Y8725D01*
Y8725D01*
Y8733D01*
X11505D01*
Y8620D01*
D02*
G37*
G36*
X5274Y6461D02*
X4895Y6205D01*
Y4949D01*
X4920Y4924D01*
X8469D01*
X8696Y5151D01*
X8701Y5170D01*
X8717Y5210D01*
X8740Y5246D01*
X8768Y5279D01*
X8768Y5279D01*
X8891Y5402D01*
X8923Y5430D01*
X8960Y5453D01*
X9000Y5469D01*
X9042Y5479D01*
X9086Y5483D01*
X9086Y5483D01*
X9163D01*
Y6468D01*
X9154Y6477D01*
X5274Y6461D01*
D02*
G37*
G36*
X12744Y6984D02*
X12743Y6981D01*
Y5859D01*
X12744Y5855D01*
X12747Y5855D01*
X13184D01*
X13187Y5870D01*
Y6172D01*
X13441D01*
X13441Y6172D01*
X13442Y6172D01*
X13442D01*
X13442Y6172D01*
X13446Y6173D01*
X13451Y6175D01*
X13454Y6177D01*
X13454Y6178D01*
X13454Y6178D01*
Y6178D01*
X13454Y6180D01*
Y6981D01*
X13454Y6984D01*
X13450Y6985D01*
X12747D01*
X12744Y6984D01*
D02*
G37*
G36*
X10282Y8405D02*
X10294Y8401D01*
X10307Y8418D01*
X10329Y8434D01*
X10354Y8445D01*
X10381Y8448D01*
X10408Y8445D01*
X10433Y8434D01*
X10434Y8433D01*
X10446Y8439D01*
Y8449D01*
X10550D01*
X10610Y8509D01*
X10627Y8521D01*
X10648Y8525D01*
X10778D01*
X10784Y8536D01*
X10774Y8551D01*
X10769Y8572D01*
Y8814D01*
X10774Y8835D01*
X10786Y8853D01*
X10830Y8897D01*
X10848Y8909D01*
X10869Y8914D01*
X10894D01*
X10906Y8911D01*
X11127D01*
X11175Y8960D01*
Y9030D01*
X11315D01*
Y8870D01*
X11244D01*
X11192Y8818D01*
X11197Y8806D01*
X11247D01*
X11269Y8828D01*
X11287Y8841D01*
X11308Y8845D01*
X11598D01*
X11600Y8857D01*
X11586Y8863D01*
X11564Y8880D01*
X11551Y8897D01*
X11505D01*
Y8870D01*
X11365D01*
Y9030D01*
X11379D01*
Y9103D01*
X11347D01*
Y9283D01*
X10282D01*
Y8405D01*
D02*
G37*
G36*
X9336Y7751D02*
X9336D01*
X9327Y7742D01*
X9328Y7736D01*
X9329Y7729D01*
X9328Y7728D01*
X9328Y7726D01*
X9328Y7724D01*
Y7585D01*
X9325Y7569D01*
X9316Y7556D01*
X9303Y7547D01*
X9287Y7544D01*
X9242D01*
X9239Y7543D01*
X9238Y7540D01*
Y7527D01*
Y7156D01*
X10014D01*
X10014Y7156D01*
X10014D01*
X10024Y7159D01*
Y7879D01*
X10004Y7899D01*
X9336D01*
Y7751D01*
D02*
G37*
G36*
X11497Y9103D02*
X11491D01*
Y9030D01*
X11505D01*
Y9010D01*
X11551D01*
X11564Y9027D01*
X11586Y9044D01*
X11611Y9054D01*
X11638Y9058D01*
X11665Y9054D01*
X11690Y9044D01*
X11712Y9027D01*
X11729Y9006D01*
X11739Y8981D01*
X11743Y8954D01*
X11739Y8926D01*
X11729Y8901D01*
X11712Y8880D01*
X11690Y8863D01*
X11676Y8857D01*
X11679Y8845D01*
X11853D01*
Y8978D01*
X12033D01*
Y8781D01*
X12127D01*
Y8931D01*
X12141D01*
Y9001D01*
X12112D01*
Y9211D01*
X12282D01*
Y9001D01*
X12253D01*
Y8931D01*
X12267D01*
Y8827D01*
X12279Y8822D01*
X12317Y8860D01*
Y8931D01*
X12457D01*
Y8771D01*
X12386D01*
X12301Y8685D01*
X12282Y8673D01*
X12267Y8670D01*
Y8521D01*
X12253D01*
Y8449D01*
X12285D01*
Y8239D01*
X12164D01*
Y8052D01*
X12160Y8030D01*
X12148Y8012D01*
X12099Y7963D01*
Y7862D01*
X12024D01*
X11937Y7775D01*
X11918Y7763D01*
X11897Y7759D01*
X11708D01*
Y7755D01*
X11674D01*
Y7612D01*
X11672Y7605D01*
Y7482D01*
X11918D01*
X11935Y7480D01*
X11943Y7477D01*
X11950Y7474D01*
X11964Y7463D01*
X12025Y7402D01*
X12084D01*
Y7152D01*
X11974D01*
X11948Y7127D01*
Y6996D01*
X11997D01*
Y6883D01*
X12020D01*
Y6992D01*
X12180D01*
Y6992D01*
X12183D01*
X12192Y7000D01*
Y7114D01*
X12143D01*
Y7264D01*
X12353D01*
Y7114D01*
X12304D01*
Y6978D01*
X12320D01*
Y6992D01*
X12480D01*
Y6851D01*
Y6757D01*
Y6661D01*
X12456D01*
Y6569D01*
X12475D01*
Y6359D01*
X12456D01*
Y5675D01*
X13203Y4928D01*
X13213Y4935D01*
X13203Y4960D01*
X12627Y5536D01*
X12615Y5554D01*
X12611Y5575D01*
Y7648D01*
X12346Y7912D01*
X12324Y7909D01*
X12297Y7913D01*
X12272Y7923D01*
X12250Y7940D01*
X12234Y7962D01*
X12223Y7987D01*
X12220Y8014D01*
X12223Y8041D01*
X12234Y8066D01*
X12250Y8088D01*
X12272Y8104D01*
X12297Y8115D01*
X12324Y8118D01*
X12351Y8115D01*
X12376Y8104D01*
X12398Y8088D01*
X12415Y8066D01*
X12425Y8041D01*
X12428Y8014D01*
X12426Y7992D01*
X12707Y7710D01*
X12719Y7692D01*
X12723Y7671D01*
Y7069D01*
X12726Y7054D01*
X12736Y7024D01*
X12736D01*
X12739Y7025D01*
X12743Y7025D01*
X12747Y7026D01*
X12982D01*
Y7230D01*
X13192D01*
Y7026D01*
X13212D01*
Y7230D01*
X13271D01*
Y7757D01*
X13257Y7775D01*
X13245Y7805D01*
X13241Y7831D01*
X13236Y7837D01*
X13227Y7859D01*
X13224Y7883D01*
Y8316D01*
X12519D01*
X12515Y8317D01*
X12511D01*
X12507Y8317D01*
X12507Y8317D01*
X12507D01*
X12503Y8319D01*
X12503Y8319D01*
X12503Y8319D01*
X12503Y8319D01*
X12499Y8320D01*
X12496Y8322D01*
X12492Y8323D01*
X12492Y8323D01*
X12492Y8323D01*
X12492Y8324D01*
X12489Y8326D01*
X12486Y8328D01*
X12479Y8324D01*
X12475Y8322D01*
Y8239D01*
X12325D01*
Y8449D01*
X12331D01*
Y8521D01*
X12317D01*
Y8681D01*
X12457D01*
Y8667D01*
X12474D01*
Y8797D01*
X12474Y8797D01*
X12475Y8801D01*
X12475Y8805D01*
X12475Y8808D01*
X12477Y8812D01*
X12477Y8813D01*
X12477Y8813D01*
X12480Y8819D01*
X12481Y8823D01*
X12481Y8823D01*
X12481Y8823D01*
X12488Y8830D01*
X12493Y8834D01*
X12493Y8834D01*
X12493Y8834D01*
X12501Y8838D01*
X12503Y8838D01*
X12503Y8839D01*
X12504Y8839D01*
X12507Y8840D01*
X12507Y8840D01*
X12507D01*
X12507D01*
X12511Y8841D01*
X12515Y8841D01*
X12519Y8842D01*
X12615D01*
X12631Y8839D01*
X12644Y8830D01*
X12653Y8817D01*
X12656Y8801D01*
Y8772D01*
X12754D01*
Y8801D01*
X12757Y8817D01*
X12766Y8830D01*
X12779Y8839D01*
X12794Y8842D01*
Y9128D01*
X12639Y9283D01*
X11497D01*
Y9103D01*
D02*
G37*
G36*
X11205Y7210D02*
X11221Y7190D01*
X11231Y7164D01*
X11235Y7137D01*
X11231Y7110D01*
X11221Y7085D01*
X11204Y7064D01*
X11196Y7057D01*
Y6733D01*
X11399Y6530D01*
X11422D01*
Y6534D01*
X11652D01*
Y6394D01*
Y6307D01*
X11663Y6302D01*
X11700Y6339D01*
X11718Y6351D01*
X11740Y6355D01*
X12172D01*
X12193Y6351D01*
X12211Y6339D01*
X12300Y6250D01*
X12312Y6232D01*
X12317Y6210D01*
Y5560D01*
X13203Y4674D01*
X13213Y4681D01*
X13203Y4707D01*
X13199Y4737D01*
X13203Y4767D01*
X13203Y4769D01*
X12361Y5612D01*
X12361Y5612D01*
X12361Y5612D01*
X12348Y5630D01*
X12344Y5651D01*
Y6359D01*
X12325D01*
Y6569D01*
X12344D01*
Y6661D01*
X12320D01*
Y6757D01*
Y6770D01*
X12180D01*
Y6757D01*
X12020D01*
Y6764D01*
X12009Y6768D01*
X11997Y6757D01*
Y6657D01*
X11787D01*
Y6675D01*
X11652D01*
Y6648D01*
X11422D01*
Y6750D01*
X11411Y6755D01*
X11386Y6744D01*
X11359Y6741D01*
X11332Y6744D01*
X11307Y6755D01*
X11285Y6771D01*
X11268Y6793D01*
X11258Y6818D01*
X11255Y6845D01*
X11258Y6872D01*
X11268Y6897D01*
X11285Y6919D01*
X11307Y6936D01*
X11332Y6946D01*
X11359Y6950D01*
X11386Y6946D01*
X11411Y6936D01*
X11422Y6941D01*
Y7042D01*
X11481D01*
Y7221D01*
X11211D01*
X11205Y7210D01*
D02*
G37*
G36*
X12515Y8800D02*
X12515Y8797D01*
X12515Y8797D01*
X12515D01*
Y8667D01*
Y8358D01*
X12515Y8357D01*
X12519Y8357D01*
X13501D01*
X13505Y8357D01*
X13505Y8361D01*
Y8797D01*
X13505Y8800D01*
X13501Y8801D01*
X12795D01*
Y8731D01*
X12615D01*
Y8801D01*
X12519D01*
X12515Y8800D01*
D02*
G37*
G36*
X9046Y9412D02*
X9047Y9411D01*
Y8166D01*
X10192D01*
X10254Y8230D01*
X10242Y8243D01*
Y9423D01*
X9051D01*
X9046Y9412D01*
D02*
G37*
G36*
X5513Y8792D02*
X5501Y8781D01*
X5505Y8769D01*
X5546D01*
Y8725D01*
X5441D01*
Y8700D01*
X5416D01*
Y8629D01*
X5336D01*
X5336Y8629D01*
Y8629D01*
X5330Y8632D01*
X5048Y8384D01*
Y7685D01*
X4733Y7716D01*
X4729Y7707D01*
X4729D01*
X4729Y7707D01*
Y7173D01*
X4737Y7162D01*
X4750Y7132D01*
X4754Y7099D01*
Y6964D01*
X4790Y6941D01*
X4823Y6913D01*
X4851Y6880D01*
X4874Y6844D01*
X4890Y6804D01*
X4900Y6761D01*
X4904Y6718D01*
X7571D01*
X8858Y7847D01*
X8882Y7868D01*
Y8169D01*
Y8674D01*
X8735Y8803D01*
X8723Y8814D01*
X5538D01*
X5513Y8792D01*
D02*
G37*
G36*
X10434Y7825D02*
X10592Y7666D01*
X10592Y7666D01*
X10801Y7458D01*
X10850D01*
X10855Y7463D01*
X10869Y7474D01*
X10877Y7477D01*
D01*
X10877D01*
X10877Y7477D01*
X10855D01*
Y7653D01*
X10800D01*
X10779Y7657D01*
X10760Y7669D01*
X10583Y7847D01*
X10570Y7865D01*
X10566Y7887D01*
Y7925D01*
X10555D01*
Y7925D01*
X10434D01*
Y7825D01*
D02*
G37*
%LPC*%
G36*
X6963Y5418D02*
X6972Y5418D01*
X7005Y5408D01*
X7036Y5391D01*
X7062Y5369D01*
X7084Y5343D01*
X7100Y5312D01*
X7110Y5279D01*
X7111Y5270D01*
X6963D01*
Y5418D01*
D02*
G37*
G36*
X6463D02*
X6472Y5418D01*
X6505Y5408D01*
X6536Y5391D01*
X6562Y5369D01*
X6584Y5343D01*
X6600Y5312D01*
X6610Y5279D01*
X6611Y5270D01*
X6463D01*
Y5418D01*
D02*
G37*
G36*
X6913D02*
Y5270D01*
X6765D01*
X6765Y5279D01*
X6775Y5312D01*
X6792Y5343D01*
X6814Y5369D01*
X6840Y5391D01*
X6871Y5408D01*
X6904Y5418D01*
X6913Y5418D01*
D02*
G37*
G36*
X7955D02*
X7964Y5418D01*
X7997Y5408D01*
X8028Y5391D01*
X8054Y5369D01*
X8076Y5343D01*
X8092Y5312D01*
X8102Y5279D01*
X8103Y5270D01*
X7955D01*
Y5418D01*
D02*
G37*
G36*
X8413D02*
Y5270D01*
X8265D01*
X8265Y5279D01*
X8275Y5312D01*
X8292Y5343D01*
X8314Y5369D01*
X8340Y5391D01*
X8371Y5408D01*
X8404Y5418D01*
X8413Y5418D01*
D02*
G37*
G36*
X7905D02*
Y5270D01*
X7757D01*
X7757Y5279D01*
X7767Y5312D01*
X7784Y5343D01*
X7806Y5369D01*
X7832Y5391D01*
X7863Y5408D01*
X7896Y5418D01*
X7905Y5418D01*
D02*
G37*
G36*
X7397D02*
Y5270D01*
X7249D01*
X7249Y5279D01*
X7259Y5312D01*
X7276Y5343D01*
X7298Y5369D01*
X7324Y5391D01*
X7355Y5408D01*
X7388Y5418D01*
X7397Y5418D01*
D02*
G37*
G36*
X7447D02*
X7456Y5418D01*
X7489Y5408D01*
X7520Y5391D01*
X7546Y5369D01*
X7568Y5343D01*
X7584Y5312D01*
X7594Y5279D01*
X7595Y5270D01*
X7447D01*
Y5418D01*
D02*
G37*
G36*
X13112Y6490D02*
X13292D01*
Y6425D01*
X13112D01*
Y6490D01*
D02*
G37*
G36*
X13001Y6031D02*
X13060D01*
Y5981D01*
X13001D01*
Y6031D01*
D02*
G37*
G36*
X13110D02*
X13170D01*
Y5981D01*
X13110D01*
Y6031D01*
D02*
G37*
G36*
X12882Y6605D02*
X13062D01*
Y6540D01*
X12882D01*
Y6605D01*
D02*
G37*
G36*
X13112D02*
X13292D01*
Y6540D01*
X13112D01*
Y6605D01*
D02*
G37*
G36*
X12882Y6490D02*
X13062D01*
Y6425D01*
X12882D01*
Y6490D01*
D02*
G37*
G36*
X13001Y5931D02*
X13060D01*
Y5881D01*
X13001D01*
Y5931D01*
D02*
G37*
G36*
X5913Y5418D02*
Y5270D01*
X5765D01*
X5765Y5279D01*
X5775Y5312D01*
X5792Y5343D01*
X5814Y5369D01*
X5840Y5391D01*
X5871Y5408D01*
X5904Y5418D01*
X5913Y5418D01*
D02*
G37*
G36*
X5963D02*
X5972Y5418D01*
X6005Y5408D01*
X6036Y5391D01*
X6062Y5369D01*
X6084Y5343D01*
X6100Y5312D01*
X6110Y5279D01*
X6111Y5270D01*
X5963D01*
Y5418D01*
D02*
G37*
G36*
X6413D02*
Y5270D01*
X6265D01*
X6265Y5279D01*
X6275Y5312D01*
X6292Y5343D01*
X6314Y5369D01*
X6340Y5391D01*
X6371Y5408D01*
X6404Y5418D01*
X6413Y5418D01*
D02*
G37*
G36*
X13110Y5931D02*
X13170D01*
Y5881D01*
X13110D01*
Y5931D01*
D02*
G37*
G36*
X5413Y5418D02*
Y5270D01*
X5265D01*
X5265Y5279D01*
X5275Y5312D01*
X5292Y5343D01*
X5314Y5369D01*
X5340Y5391D01*
X5371Y5408D01*
X5404Y5418D01*
X5413Y5418D01*
D02*
G37*
G36*
X5463D02*
X5472Y5418D01*
X5505Y5408D01*
X5536Y5391D01*
X5562Y5369D01*
X5584Y5343D01*
X5600Y5312D01*
X5610Y5279D01*
X5611Y5270D01*
X5463D01*
Y5418D01*
D02*
G37*
G36*
X9242Y4649D02*
X9276D01*
Y4589D01*
X9242D01*
Y4649D01*
D02*
G37*
G36*
X9708D02*
X9743D01*
Y4589D01*
X9708D01*
Y4649D01*
D02*
G37*
G36*
X9370Y4759D02*
Y4759D01*
X9404D01*
Y4674D01*
Y4589D01*
X9369D01*
X9369Y4589D01*
Y4589D01*
X9368D01*
X9361Y4589D01*
X9360Y4589D01*
X9360Y4589D01*
Y4589D01*
X9326D01*
Y4674D01*
Y4759D01*
X9360D01*
X9360Y4759D01*
Y4759D01*
X9361Y4759D01*
X9365Y4759D01*
X9369Y4759D01*
X9370Y4759D01*
X9370Y4759D01*
D02*
G37*
G36*
X9708Y4759D02*
X9743D01*
Y4699D01*
X9708D01*
Y4759D01*
D02*
G37*
G36*
X9614Y4759D02*
Y4759D01*
X9615Y4759D01*
X9619Y4759D01*
X9623Y4759D01*
X9624Y4759D01*
X9624Y4759D01*
Y4759D01*
X9658D01*
Y4674D01*
Y4589D01*
X9623D01*
Y4589D01*
X9615Y4589D01*
X9614Y4589D01*
X9614Y4589D01*
Y4589D01*
X9581D01*
Y4674D01*
Y4759D01*
X9614D01*
X9614Y4759D01*
D02*
G37*
G36*
X9487D02*
Y4759D01*
X9489Y4759D01*
X9492D01*
X9496D01*
X9497Y4759D01*
X9497Y4759D01*
Y4759D01*
X9531D01*
Y4674D01*
Y4589D01*
X9496D01*
Y4589D01*
X9489D01*
X9487Y4589D01*
X9487Y4589D01*
Y4589D01*
X9454D01*
Y4674D01*
Y4759D01*
X9487D01*
X9487Y4759D01*
D02*
G37*
G36*
X9242Y4759D02*
X9276D01*
Y4699D01*
X9242D01*
Y4759D01*
D02*
G37*
G36*
X10044Y4588D02*
X10089D01*
Y4508D01*
X10044D01*
Y4588D01*
D02*
G37*
G36*
X9581Y4070D02*
X9583Y4069D01*
X9608Y4059D01*
X9630Y4042D01*
X9647Y4020D01*
X9658Y3995D01*
X9658Y3992D01*
X9581D01*
Y4070D01*
D02*
G37*
G36*
X9453Y3942D02*
X9531D01*
Y3864D01*
X9528Y3865D01*
X9503Y3875D01*
X9481Y3892D01*
X9464Y3914D01*
X9453Y3940D01*
X9453Y3942D01*
D02*
G37*
G36*
X9581D02*
X9658D01*
X9658Y3940D01*
X9647Y3914D01*
X9630Y3892D01*
X9608Y3875D01*
X9583Y3865D01*
X9581Y3864D01*
Y3942D01*
D02*
G37*
G36*
X9531Y4070D02*
Y3992D01*
X9453D01*
X9453Y3995D01*
X9464Y4020D01*
X9481Y4042D01*
X9503Y4059D01*
X9528Y4069D01*
X9531Y4070D01*
D02*
G37*
G36*
X10139Y4588D02*
X10184D01*
Y4508D01*
X10139D01*
Y4588D01*
D02*
G37*
G36*
X10044Y4458D02*
X10089D01*
Y4378D01*
X10044D01*
Y4458D01*
D02*
G37*
G36*
X10139D02*
X10184D01*
Y4378D01*
X10139D01*
Y4458D01*
D02*
G37*
G36*
X5963Y5220D02*
X6111D01*
X6110Y5211D01*
X6100Y5178D01*
X6084Y5147D01*
X6062Y5121D01*
X6036Y5099D01*
X6005Y5083D01*
X5972Y5073D01*
X5963Y5072D01*
Y5220D01*
D02*
G37*
G36*
X6265D02*
X6413D01*
Y5072D01*
X6404Y5073D01*
X6371Y5083D01*
X6340Y5099D01*
X6314Y5121D01*
X6292Y5147D01*
X6275Y5178D01*
X6265Y5211D01*
X6265Y5220D01*
D02*
G37*
G36*
X6463D02*
X6611D01*
X6610Y5211D01*
X6600Y5178D01*
X6584Y5147D01*
X6562Y5121D01*
X6536Y5099D01*
X6505Y5083D01*
X6472Y5073D01*
X6463Y5072D01*
Y5220D01*
D02*
G37*
G36*
X5765D02*
X5913D01*
Y5072D01*
X5904Y5073D01*
X5871Y5083D01*
X5840Y5099D01*
X5814Y5121D01*
X5792Y5147D01*
X5775Y5178D01*
X5765Y5211D01*
X5765Y5220D01*
D02*
G37*
G36*
X8463Y5418D02*
X8472Y5418D01*
X8505Y5408D01*
X8536Y5391D01*
X8562Y5369D01*
X8584Y5343D01*
X8600Y5312D01*
X8610Y5279D01*
X8611Y5270D01*
X8463D01*
Y5418D01*
D02*
G37*
G36*
X5265Y5220D02*
X5413D01*
Y5072D01*
X5404Y5073D01*
X5371Y5083D01*
X5340Y5099D01*
X5314Y5121D01*
X5292Y5147D01*
X5275Y5178D01*
X5265Y5211D01*
X5265Y5220D01*
D02*
G37*
G36*
X5463D02*
X5611D01*
X5610Y5211D01*
X5600Y5178D01*
X5584Y5147D01*
X5562Y5121D01*
X5536Y5099D01*
X5505Y5083D01*
X5472Y5073D01*
X5463Y5072D01*
Y5220D01*
D02*
G37*
G36*
X6765D02*
X6913D01*
Y5072D01*
X6904Y5073D01*
X6871Y5083D01*
X6840Y5099D01*
X6814Y5121D01*
X6792Y5147D01*
X6775Y5178D01*
X6765Y5211D01*
X6765Y5220D01*
D02*
G37*
G36*
X7955D02*
X8103D01*
X8102Y5211D01*
X8092Y5178D01*
X8076Y5147D01*
X8054Y5121D01*
X8028Y5099D01*
X7997Y5083D01*
X7964Y5073D01*
X7955Y5072D01*
Y5220D01*
D02*
G37*
G36*
X8265D02*
X8413D01*
Y5072D01*
X8404Y5073D01*
X8371Y5083D01*
X8340Y5099D01*
X8314Y5121D01*
X8292Y5147D01*
X8275Y5178D01*
X8265Y5211D01*
X8265Y5220D01*
D02*
G37*
G36*
X8463D02*
X8611D01*
X8610Y5211D01*
X8600Y5178D01*
X8584Y5147D01*
X8562Y5121D01*
X8536Y5099D01*
X8505Y5083D01*
X8472Y5073D01*
X8463Y5072D01*
Y5220D01*
D02*
G37*
G36*
X7757D02*
X7905D01*
Y5072D01*
X7896Y5073D01*
X7863Y5083D01*
X7832Y5099D01*
X7806Y5121D01*
X7784Y5147D01*
X7767Y5178D01*
X7757Y5211D01*
X7757Y5220D01*
D02*
G37*
G36*
X6963D02*
X7111D01*
X7110Y5211D01*
X7100Y5178D01*
X7084Y5147D01*
X7062Y5121D01*
X7036Y5099D01*
X7005Y5083D01*
X6972Y5073D01*
X6963Y5072D01*
Y5220D01*
D02*
G37*
G36*
X7249D02*
X7397D01*
Y5072D01*
X7388Y5073D01*
X7355Y5083D01*
X7324Y5099D01*
X7298Y5121D01*
X7276Y5147D01*
X7259Y5178D01*
X7249Y5211D01*
X7249Y5220D01*
D02*
G37*
G36*
X7447D02*
X7595D01*
X7594Y5211D01*
X7584Y5178D01*
X7568Y5147D01*
X7546Y5121D01*
X7520Y5099D01*
X7489Y5083D01*
X7456Y5073D01*
X7447Y5072D01*
Y5220D01*
D02*
G37*
G36*
X12615Y8586D02*
X12680D01*
Y8541D01*
X12615D01*
Y8586D01*
D02*
G37*
G36*
X13340Y8697D02*
X13344Y8697D01*
X13373Y8688D01*
X13400Y8674D01*
X13423Y8655D01*
X13442Y8632D01*
X13456Y8606D01*
X13465Y8577D01*
X13465Y8572D01*
X13340D01*
Y8697D01*
D02*
G37*
G36*
X12921Y8556D02*
Y8496D01*
X12861D01*
X12869Y8516D01*
X12883Y8534D01*
X12902Y8548D01*
X12921Y8556D01*
D02*
G37*
G36*
X12730Y8586D02*
X12795D01*
Y8541D01*
X12730D01*
Y8586D01*
D02*
G37*
G36*
X12988Y8649D02*
X13048D01*
Y8589D01*
X13029Y8597D01*
X13010Y8611D01*
X12996Y8629D01*
X12988Y8649D01*
D02*
G37*
G36*
X10139Y8675D02*
X10184D01*
Y8594D01*
X10139D01*
Y8675D01*
D02*
G37*
G36*
X13290Y8697D02*
Y8572D01*
X13164D01*
X13165Y8577D01*
X13174Y8606D01*
X13188Y8632D01*
X13207Y8655D01*
X13230Y8674D01*
X13256Y8688D01*
X13285Y8697D01*
X13290Y8697D01*
D02*
G37*
G36*
X13098Y8649D02*
X13159D01*
X13151Y8629D01*
X13137Y8611D01*
X13118Y8597D01*
X13098Y8589D01*
Y8649D01*
D02*
G37*
G36*
X12861Y8446D02*
X12921D01*
Y8385D01*
X12902Y8394D01*
X12883Y8408D01*
X12869Y8426D01*
X12861Y8446D01*
D02*
G37*
G36*
X13340Y8522D02*
X13465D01*
X13465Y8517D01*
X13456Y8489D01*
X13442Y8462D01*
X13423Y8439D01*
X13400Y8420D01*
X13373Y8406D01*
X13344Y8397D01*
X13340Y8397D01*
Y8522D01*
D02*
G37*
G36*
X9216Y8441D02*
X9251D01*
Y8381D01*
X9216D01*
Y8441D01*
D02*
G37*
G36*
X12971Y8446D02*
X13032D01*
X13024Y8426D01*
X13010Y8408D01*
X12991Y8394D01*
X12971Y8385D01*
Y8446D01*
D02*
G37*
G36*
X9334Y8441D02*
Y8441D01*
X9336Y8441D01*
X9340Y8441D01*
X9343Y8441D01*
X9345Y8441D01*
X9345Y8441D01*
Y8441D01*
X9378D01*
Y8356D01*
Y8271D01*
X9343D01*
Y8271D01*
X9336Y8271D01*
X9334Y8271D01*
X9334Y8271D01*
Y8271D01*
X9301D01*
Y8356D01*
Y8441D01*
X9334D01*
X9334Y8441D01*
D02*
G37*
G36*
X12971Y8556D02*
X12991Y8548D01*
X13010Y8534D01*
X13024Y8516D01*
X13032Y8496D01*
X12971D01*
Y8556D01*
D02*
G37*
G36*
X13164Y8522D02*
X13290D01*
Y8397D01*
X13285Y8397D01*
X13256Y8406D01*
X13230Y8420D01*
X13207Y8439D01*
X13188Y8462D01*
X13174Y8489D01*
X13165Y8517D01*
X13164Y8522D01*
D02*
G37*
G36*
X9461Y8441D02*
Y8441D01*
X9463Y8441D01*
X9467D01*
X9470D01*
X9472Y8441D01*
X9472Y8441D01*
Y8441D01*
X9505D01*
Y8356D01*
Y8271D01*
X9470D01*
Y8271D01*
X9463D01*
X9461Y8271D01*
X9461Y8271D01*
Y8271D01*
X9428D01*
Y8356D01*
Y8441D01*
X9461D01*
X9461Y8441D01*
D02*
G37*
G36*
X6482Y8769D02*
X6562D01*
Y8725D01*
X6482D01*
Y8769D01*
D02*
G37*
G36*
X6352D02*
X6432D01*
Y8725D01*
X6352D01*
Y8769D01*
D02*
G37*
G36*
X10139Y8804D02*
X10184D01*
Y8725D01*
X10139D01*
Y8804D01*
D02*
G37*
G36*
X10044D02*
X10089D01*
Y8725D01*
X10044D01*
Y8804D01*
D02*
G37*
G36*
X9530Y9217D02*
X9532Y9216D01*
X9558Y9206D01*
X9580Y9189D01*
X9596Y9167D01*
X9607Y9141D01*
X9607Y9139D01*
X9530D01*
Y9217D01*
D02*
G37*
G36*
X9480D02*
Y9139D01*
X9402D01*
X9402Y9141D01*
X9413Y9167D01*
X9430Y9189D01*
X9452Y9206D01*
X9477Y9216D01*
X9480Y9217D01*
D02*
G37*
G36*
X9530Y9089D02*
X9607D01*
X9607Y9086D01*
X9596Y9061D01*
X9580Y9039D01*
X9558Y9022D01*
X9532Y9012D01*
X9530Y9011D01*
Y9089D01*
D02*
G37*
G36*
X9402D02*
X9480D01*
Y9011D01*
X9477Y9012D01*
X9452Y9022D01*
X9430Y9039D01*
X9413Y9061D01*
X9402Y9086D01*
X9402Y9089D01*
D02*
G37*
G36*
X6352Y8675D02*
X6432D01*
Y8629D01*
X6352D01*
Y8675D01*
D02*
G37*
G36*
X5466D02*
X5546D01*
Y8629D01*
X5466D01*
Y8675D01*
D02*
G37*
G36*
X10044D02*
X10089D01*
Y8594D01*
X10044D01*
Y8675D01*
D02*
G37*
G36*
X6482D02*
X6562D01*
Y8629D01*
X6482D01*
Y8675D01*
D02*
G37*
G36*
X13098Y8760D02*
X13118Y8751D01*
X13137Y8737D01*
X13151Y8719D01*
X13159Y8699D01*
X13098D01*
Y8760D01*
D02*
G37*
G36*
X13048D02*
Y8699D01*
X12988D01*
X12996Y8719D01*
X13010Y8737D01*
X13029Y8751D01*
X13048Y8760D01*
D02*
G37*
G36*
X12730Y8681D02*
X12795D01*
Y8636D01*
X12730D01*
Y8681D01*
D02*
G37*
G36*
X12615D02*
X12680D01*
Y8636D01*
X12615D01*
Y8681D01*
D02*
G37*
G36*
X5923Y7760D02*
X6071D01*
X6070Y7751D01*
X6060Y7718D01*
X6044Y7687D01*
X6022Y7661D01*
X5996Y7639D01*
X5965Y7623D01*
X5932Y7613D01*
X5923Y7612D01*
Y7760D01*
D02*
G37*
G36*
X5725D02*
X5873D01*
Y7612D01*
X5864Y7613D01*
X5831Y7623D01*
X5800Y7639D01*
X5774Y7661D01*
X5752Y7687D01*
X5735Y7718D01*
X5725Y7751D01*
X5725Y7760D01*
D02*
G37*
G36*
X6463D02*
X6611D01*
X6610Y7751D01*
X6600Y7718D01*
X6584Y7687D01*
X6562Y7661D01*
X6536Y7639D01*
X6505Y7623D01*
X6472Y7613D01*
X6463Y7612D01*
Y7760D01*
D02*
G37*
G36*
X6265D02*
X6413D01*
Y7612D01*
X6404Y7613D01*
X6371Y7623D01*
X6340Y7639D01*
X6314Y7661D01*
X6292Y7687D01*
X6275Y7718D01*
X6265Y7751D01*
X6265Y7760D01*
D02*
G37*
G36*
X8463Y7958D02*
X8472Y7958D01*
X8505Y7948D01*
X8536Y7931D01*
X8562Y7909D01*
X8584Y7883D01*
X8600Y7852D01*
X8610Y7819D01*
X8611Y7810D01*
X8463D01*
Y7958D01*
D02*
G37*
G36*
X8413D02*
Y7810D01*
X8265D01*
X8265Y7819D01*
X8275Y7852D01*
X8292Y7883D01*
X8314Y7909D01*
X8340Y7931D01*
X8371Y7948D01*
X8404Y7958D01*
X8413Y7958D01*
D02*
G37*
G36*
X5463Y7760D02*
X5611D01*
X5610Y7751D01*
X5600Y7718D01*
X5584Y7687D01*
X5562Y7661D01*
X5536Y7639D01*
X5505Y7623D01*
X5472Y7613D01*
X5463Y7612D01*
Y7760D01*
D02*
G37*
G36*
X5265D02*
X5413D01*
Y7612D01*
X5404Y7613D01*
X5371Y7623D01*
X5340Y7639D01*
X5314Y7661D01*
X5292Y7687D01*
X5275Y7718D01*
X5265Y7751D01*
X5265Y7760D01*
D02*
G37*
G36*
X7955D02*
X8103D01*
X8102Y7751D01*
X8092Y7718D01*
X8076Y7687D01*
X8054Y7661D01*
X8028Y7639D01*
X7997Y7623D01*
X7964Y7613D01*
X7955Y7612D01*
Y7760D01*
D02*
G37*
G36*
X7757D02*
X7905D01*
Y7612D01*
X7896Y7613D01*
X7863Y7623D01*
X7832Y7639D01*
X7806Y7661D01*
X7784Y7687D01*
X7767Y7718D01*
X7757Y7751D01*
X7757Y7760D01*
D02*
G37*
G36*
X8463D02*
X8611D01*
X8610Y7751D01*
X8600Y7718D01*
X8584Y7687D01*
X8562Y7661D01*
X8536Y7639D01*
X8505Y7623D01*
X8472Y7613D01*
X8463Y7612D01*
Y7760D01*
D02*
G37*
G36*
X8265D02*
X8413D01*
Y7612D01*
X8404Y7613D01*
X8371Y7623D01*
X8340Y7639D01*
X8314Y7661D01*
X8292Y7687D01*
X8275Y7718D01*
X8265Y7751D01*
X8265Y7760D01*
D02*
G37*
G36*
X6963D02*
X7111D01*
X7110Y7751D01*
X7100Y7718D01*
X7084Y7687D01*
X7062Y7661D01*
X7036Y7639D01*
X7005Y7623D01*
X6972Y7613D01*
X6963Y7612D01*
Y7760D01*
D02*
G37*
G36*
X6765D02*
X6913D01*
Y7612D01*
X6904Y7613D01*
X6871Y7623D01*
X6840Y7639D01*
X6814Y7661D01*
X6792Y7687D01*
X6775Y7718D01*
X6765Y7751D01*
X6765Y7760D01*
D02*
G37*
G36*
X7447D02*
X7595D01*
X7594Y7751D01*
X7584Y7718D01*
X7568Y7687D01*
X7546Y7661D01*
X7520Y7639D01*
X7489Y7623D01*
X7456Y7613D01*
X7447Y7612D01*
Y7760D01*
D02*
G37*
G36*
X7249D02*
X7397D01*
Y7612D01*
X7388Y7613D01*
X7355Y7623D01*
X7324Y7639D01*
X7298Y7661D01*
X7276Y7687D01*
X7259Y7718D01*
X7249Y7751D01*
X7249Y7760D01*
D02*
G37*
G36*
X5463Y7958D02*
X5472Y7958D01*
X5505Y7948D01*
X5536Y7931D01*
X5562Y7909D01*
X5584Y7883D01*
X5600Y7852D01*
X5610Y7819D01*
X5611Y7810D01*
X5463D01*
Y7958D01*
D02*
G37*
G36*
X5413D02*
Y7810D01*
X5265D01*
X5265Y7819D01*
X5275Y7852D01*
X5292Y7883D01*
X5314Y7909D01*
X5340Y7931D01*
X5371Y7948D01*
X5404Y7958D01*
X5413Y7958D01*
D02*
G37*
G36*
X5923D02*
X5932Y7958D01*
X5965Y7948D01*
X5996Y7931D01*
X6022Y7909D01*
X6044Y7883D01*
X6060Y7852D01*
X6070Y7819D01*
X6071Y7810D01*
X5923D01*
Y7958D01*
D02*
G37*
G36*
X5873D02*
Y7810D01*
X5725D01*
X5725Y7819D01*
X5735Y7852D01*
X5752Y7883D01*
X5774Y7909D01*
X5800Y7931D01*
X5831Y7948D01*
X5864Y7958D01*
X5873Y7958D01*
D02*
G37*
G36*
X9216Y8331D02*
X9251D01*
Y8271D01*
X9216D01*
Y8331D01*
D02*
G37*
G36*
X9682Y8441D02*
X9717D01*
Y8381D01*
X9682D01*
Y8441D01*
D02*
G37*
G36*
X9599Y8441D02*
Y8441D01*
X9632D01*
Y8356D01*
Y8271D01*
X9597D01*
X9597Y8271D01*
Y8271D01*
X9597D01*
X9590Y8271D01*
X9588Y8271D01*
X9588Y8271D01*
Y8271D01*
X9555D01*
Y8356D01*
Y8441D01*
X9588D01*
X9588Y8441D01*
Y8441D01*
X9590Y8441D01*
X9594Y8441D01*
X9597Y8441D01*
X9599Y8441D01*
X9599Y8441D01*
D02*
G37*
G36*
X9682Y8331D02*
X9717D01*
Y8271D01*
X9682D01*
Y8331D01*
D02*
G37*
G36*
X7447Y7958D02*
X7456Y7958D01*
X7489Y7948D01*
X7520Y7931D01*
X7546Y7909D01*
X7568Y7883D01*
X7584Y7852D01*
X7594Y7819D01*
X7595Y7810D01*
X7447D01*
Y7958D01*
D02*
G37*
G36*
X7397D02*
Y7810D01*
X7249D01*
X7249Y7819D01*
X7259Y7852D01*
X7276Y7883D01*
X7298Y7909D01*
X7324Y7931D01*
X7355Y7948D01*
X7388Y7958D01*
X7397Y7958D01*
D02*
G37*
G36*
X7955D02*
X7964Y7958D01*
X7997Y7948D01*
X8028Y7931D01*
X8054Y7909D01*
X8076Y7883D01*
X8092Y7852D01*
X8102Y7819D01*
X8103Y7810D01*
X7955D01*
Y7958D01*
D02*
G37*
G36*
X7905D02*
Y7810D01*
X7757D01*
X7757Y7819D01*
X7767Y7852D01*
X7784Y7883D01*
X7806Y7909D01*
X7832Y7931D01*
X7863Y7948D01*
X7896Y7958D01*
X7905Y7958D01*
D02*
G37*
G36*
X6463D02*
X6472Y7958D01*
X6505Y7948D01*
X6536Y7931D01*
X6562Y7909D01*
X6584Y7883D01*
X6600Y7852D01*
X6610Y7819D01*
X6611Y7810D01*
X6463D01*
Y7958D01*
D02*
G37*
G36*
X6413D02*
Y7810D01*
X6265D01*
X6265Y7819D01*
X6275Y7852D01*
X6292Y7883D01*
X6314Y7909D01*
X6340Y7931D01*
X6371Y7948D01*
X6404Y7958D01*
X6413Y7958D01*
D02*
G37*
G36*
X6963D02*
X6972Y7958D01*
X7005Y7948D01*
X7036Y7931D01*
X7062Y7909D01*
X7084Y7883D01*
X7100Y7852D01*
X7110Y7819D01*
X7111Y7810D01*
X6963D01*
Y7958D01*
D02*
G37*
G36*
X6913D02*
Y7810D01*
X6765D01*
X6765Y7819D01*
X6775Y7852D01*
X6792Y7883D01*
X6814Y7909D01*
X6840Y7931D01*
X6871Y7948D01*
X6904Y7958D01*
X6913Y7958D01*
D02*
G37*
%LPD*%
G36*
X3879Y11261D02*
X13767D01*
Y19149D01*
X3879D01*
Y11261D01*
D02*
G37*
%LPC*%
G36*
X5538Y17355D02*
X8723D01*
X8730Y17353D01*
X8736Y17352D01*
X8737Y17352D01*
X8739Y17351D01*
X8744Y17348D01*
X8750Y17344D01*
X8762Y17334D01*
X8762Y17334D01*
X8909Y17205D01*
X8910Y17204D01*
X8911Y17203D01*
X8915Y17197D01*
X8919Y17192D01*
X8919Y17191D01*
X8920Y17190D01*
X8921Y17183D01*
X8923Y17177D01*
X8923Y17175D01*
X8923Y17174D01*
Y16669D01*
Y16368D01*
X8923Y16367D01*
X8923Y16365D01*
X8921Y16359D01*
X8920Y16353D01*
X8919Y16351D01*
X8919Y16350D01*
X8915Y16345D01*
X8911Y16339D01*
X8910Y16339D01*
X8909Y16337D01*
X8885Y16316D01*
D01*
X8695Y16149D01*
X8673Y16114D01*
X8644Y16079D01*
X8609Y16050D01*
X8570Y16026D01*
X8540Y16013D01*
X7598Y15188D01*
X7593Y15184D01*
X7587Y15181D01*
X7586Y15180D01*
X7585Y15180D01*
X7578Y15179D01*
X7571Y15178D01*
X4916D01*
X4915Y15173D01*
X4905Y15128D01*
X4887Y15086D01*
X4863Y15047D01*
X4834Y15013D01*
X4529Y14708D01*
X4494Y14678D01*
X4455Y14654D01*
X4413Y14637D01*
X4369Y14626D01*
X4323Y14623D01*
X4278Y14626D01*
X4233Y14637D01*
X4191Y14654D01*
X4152Y14678D01*
X4117Y14708D01*
X4088Y14743D01*
X4064Y14781D01*
X4046Y14824D01*
X4036Y14868D01*
X4032Y14913D01*
X4036Y14959D01*
X4046Y15003D01*
X4064Y15046D01*
X4088Y15084D01*
X4117Y15119D01*
X4422Y15424D01*
X4457Y15454D01*
X4487Y15472D01*
Y15599D01*
X4492Y15636D01*
X4506Y15670D01*
X4528Y15699D01*
Y15727D01*
X4528D01*
Y15770D01*
X4526Y15775D01*
X4522Y15802D01*
X4526Y15830D01*
X4528Y15835D01*
Y15871D01*
X4527Y15872D01*
X4516Y15899D01*
X4512Y15929D01*
X4516Y15960D01*
X4527Y15987D01*
X4528Y15988D01*
Y16004D01*
X4540D01*
X4546Y16012D01*
X4570Y16030D01*
X4598Y16042D01*
X4628Y16045D01*
X4688D01*
Y16092D01*
X4682Y16099D01*
X4679Y16099D01*
X4679Y16099D01*
Y16099D01*
X4597D01*
X4341Y15843D01*
Y15752D01*
X4337Y15730D01*
X4325Y15712D01*
X4248Y15636D01*
X4230Y15624D01*
X4209Y15619D01*
X4208D01*
Y15601D01*
X4011D01*
Y13210D01*
X4435Y12785D01*
X8019D01*
X8040Y12781D01*
X8058Y12769D01*
X9210Y11617D01*
X9862D01*
X10748Y12502D01*
X10766Y12514D01*
X10787Y12518D01*
X13200D01*
Y12590D01*
X13430D01*
Y12360D01*
X13200D01*
Y12406D01*
X10811D01*
X9925Y11521D01*
X9925Y11521D01*
X9925D01*
X9925Y11521D01*
X9925D01*
X9925Y11521D01*
Y11521D01*
Y11521D01*
D01*
D01*
X9925D01*
Y11521D01*
X9907Y11509D01*
X9886Y11505D01*
X9187D01*
X9166Y11509D01*
X9148Y11521D01*
X9148Y11521D01*
X9148Y11521D01*
X7996Y12673D01*
X4412D01*
X4391Y12677D01*
X4372Y12689D01*
X4372Y12689D01*
X4372Y12689D01*
X3915Y13147D01*
X3903Y13165D01*
X3899Y13186D01*
X3899Y13186D01*
X3899Y13186D01*
Y13186D01*
Y15752D01*
X3903Y15773D01*
X3915Y15791D01*
X3966Y15842D01*
X3984Y15854D01*
X4006Y15859D01*
X4008D01*
Y16004D01*
X4008D01*
X4014Y16013D01*
X4007Y16029D01*
X4004Y16057D01*
X4007Y16084D01*
X4017Y16109D01*
X4034Y16130D01*
X4056Y16147D01*
X4081Y16157D01*
X4106Y16161D01*
X4117Y16171D01*
Y16282D01*
X4326D01*
Y16112D01*
X4216D01*
X4203Y16098D01*
X4209Y16084D01*
X4212Y16057D01*
X4209Y16029D01*
X4202Y16013D01*
X4208Y16004D01*
X4208D01*
Y15877D01*
X4208D01*
Y15770D01*
X4220Y15766D01*
X4229Y15775D01*
Y15866D01*
X4233Y15888D01*
X4246Y15906D01*
X4472Y16132D01*
Y16268D01*
X4682D01*
Y16232D01*
X4695Y16230D01*
X4696Y16232D01*
X4697Y16234D01*
X4697Y16235D01*
X4701Y16240D01*
X4705Y16245D01*
X4706Y16246D01*
X4707Y16248D01*
X4713Y16251D01*
X4718Y16254D01*
X4720Y16254D01*
X4721Y16255D01*
X4727Y16256D01*
X4734Y16257D01*
X4735Y16257D01*
X4737Y16257D01*
X4975Y16234D01*
X5007Y16265D01*
Y16884D01*
X5007Y16885D01*
X5007Y16887D01*
X5009Y16893D01*
X5010Y16900D01*
X5011Y16901D01*
X5011Y16902D01*
X5015Y16907D01*
X5019Y16913D01*
X5020Y16914D01*
X5021Y16915D01*
X5297Y17157D01*
Y17197D01*
X5302Y17233D01*
X5316Y17267D01*
X5321Y17274D01*
Y17285D01*
X5329D01*
X5338Y17297D01*
X5340Y17298D01*
X5341Y17299D01*
X5370Y17322D01*
X5404Y17336D01*
X5441Y17341D01*
X5506D01*
X5511Y17344D01*
X5517Y17348D01*
X5522Y17351D01*
X5523Y17352D01*
X5525Y17352D01*
X5531Y17353D01*
X5538Y17355D01*
D02*
G37*
G36*
X13315Y12845D02*
X13345Y12841D01*
X13373Y12830D01*
X13397Y12811D01*
X13415Y12787D01*
X13427Y12759D01*
X13431Y12729D01*
X13427Y12699D01*
X13415Y12671D01*
X13397Y12647D01*
X13373Y12629D01*
X13345Y12617D01*
X13315Y12613D01*
X13285Y12617D01*
X13257Y12629D01*
X13233Y12647D01*
X13214Y12671D01*
X13213Y12673D01*
X13034D01*
Y12624D01*
X12884D01*
Y12834D01*
X13034D01*
Y12785D01*
X13213D01*
X13214Y12787D01*
X13233Y12811D01*
X13257Y12830D01*
X13285Y12841D01*
X13315Y12845D01*
D02*
G37*
G36*
X9911Y18165D02*
X12718D01*
X12755Y18161D01*
X12791Y18151D01*
X12824Y18133D01*
X12853Y18109D01*
X13120Y17843D01*
X13143Y17814D01*
X13161Y17781D01*
X13172Y17745D01*
X13175Y17707D01*
Y17342D01*
X13501D01*
X13505Y17341D01*
X13509Y17341D01*
X13512Y17340D01*
X13516Y17339D01*
X13517Y17339D01*
X13517Y17338D01*
X13522Y17336D01*
X13527Y17334D01*
X13527Y17334D01*
X13527Y17334D01*
X13534Y17328D01*
X13538Y17323D01*
X13538Y17323D01*
X13538Y17323D01*
X13543Y17313D01*
X13543Y17313D01*
X13543Y17312D01*
X13545Y17308D01*
X13545Y17308D01*
X13545Y17308D01*
Y17308D01*
X13545Y17305D01*
X13545Y17301D01*
X13546Y17297D01*
Y16861D01*
X13545Y16857D01*
X13545Y16853D01*
X13545Y16849D01*
X13543Y16846D01*
X13543Y16845D01*
X13543Y16845D01*
X13540Y16839D01*
X13538Y16835D01*
X13538Y16835D01*
X13538Y16835D01*
X13532Y16828D01*
X13527Y16823D01*
X13527Y16823D01*
X13527Y16823D01*
X13517Y16819D01*
X13517Y16819D01*
X13516Y16819D01*
X13512Y16817D01*
X13512Y16817D01*
X13512Y16817D01*
X13512D01*
X13509Y16817D01*
X13505Y16817D01*
X13501Y16816D01*
X13405D01*
Y16448D01*
X13422Y16441D01*
X13447Y16421D01*
X13466Y16396D01*
X13478Y16367D01*
X13483Y16336D01*
X13478Y16305D01*
X13466Y16275D01*
X13452Y16257D01*
Y15669D01*
X13449Y15645D01*
X13440Y15623D01*
X13426Y15605D01*
X13422Y15602D01*
Y15526D01*
X13450D01*
X13454Y15525D01*
X13458Y15525D01*
X13462Y15524D01*
X13465Y15523D01*
X13466Y15523D01*
X13466Y15522D01*
X13472Y15520D01*
X13476Y15518D01*
X13476Y15518D01*
X13476Y15518D01*
X13483Y15511D01*
X13488Y15507D01*
X13488Y15507D01*
X13488Y15507D01*
X13492Y15497D01*
X13492Y15497D01*
X13492Y15496D01*
X13494Y15492D01*
X13494Y15492D01*
X13494Y15492D01*
Y15492D01*
X13494Y15489D01*
X13494Y15485D01*
X13495Y15481D01*
Y14680D01*
X13495Y14678D01*
Y14678D01*
X13494Y14676D01*
X13495Y14675D01*
X13494Y14674D01*
Y14672D01*
X13494Y14670D01*
Y14670D01*
X13494Y14669D01*
X13494Y14669D01*
Y14669D01*
X13492Y14665D01*
X13492Y14662D01*
X13491Y14661D01*
X13490Y14660D01*
X13490Y14660D01*
X13489Y14658D01*
X13488Y14654D01*
X13488Y14654D01*
X13488Y14654D01*
X13483Y14649D01*
X13483Y14649D01*
X13483Y14649D01*
X13480Y14646D01*
X13480Y14646D01*
X13479Y14645D01*
X13476Y14643D01*
X13476Y14643D01*
X13476Y14643D01*
X13473Y14641D01*
X13470Y14639D01*
X13466Y14637D01*
X13462Y14635D01*
X13458Y14634D01*
X13458Y14634D01*
X13458Y14634D01*
X13454Y14633D01*
X13450Y14632D01*
X13450D01*
X13449Y14632D01*
X13447Y14632D01*
X13445Y14631D01*
X13444Y14631D01*
X13443Y14631D01*
X13440Y14631D01*
X13228D01*
Y14370D01*
X13227Y14366D01*
X13227Y14362D01*
X13224Y14347D01*
X13222Y14343D01*
X13221Y14339D01*
X13219Y14336D01*
X13218Y14332D01*
X13215Y14329D01*
X13213Y14326D01*
X13209Y14324D01*
X13206Y14321D01*
X13203Y14319D01*
X13199Y14317D01*
X13195Y14316D01*
X13192Y14315D01*
X13188Y14315D01*
X13184Y14314D01*
X13151D01*
Y13811D01*
X13220D01*
X13233Y13827D01*
X13257Y13846D01*
X13285Y13857D01*
X13315Y13861D01*
X13345Y13857D01*
X13373Y13846D01*
X13397Y13827D01*
X13415Y13803D01*
X13427Y13775D01*
X13431Y13745D01*
X13427Y13715D01*
X13415Y13687D01*
X13397Y13663D01*
X13373Y13645D01*
X13345Y13633D01*
X13315Y13629D01*
X13285Y13633D01*
X13257Y13645D01*
X13233Y13663D01*
X13220Y13680D01*
X13159D01*
X13154Y13668D01*
X13242Y13580D01*
X13257Y13592D01*
X13285Y13603D01*
X13315Y13607D01*
X13345Y13603D01*
X13373Y13592D01*
X13397Y13573D01*
X13415Y13549D01*
X13427Y13521D01*
X13431Y13491D01*
X13427Y13461D01*
X13415Y13433D01*
X13397Y13409D01*
X13373Y13391D01*
X13345Y13379D01*
X13315Y13375D01*
X13285Y13379D01*
X13259Y13390D01*
X13252Y13379D01*
X13283Y13348D01*
X13285Y13349D01*
X13315Y13353D01*
X13345Y13349D01*
X13373Y13338D01*
X13397Y13319D01*
X13415Y13295D01*
X13427Y13267D01*
X13431Y13237D01*
X13427Y13207D01*
X13415Y13179D01*
X13397Y13155D01*
X13373Y13137D01*
X13345Y13125D01*
X13315Y13121D01*
X13285Y13125D01*
X13259Y13136D01*
X13252Y13125D01*
X13283Y13094D01*
X13285Y13095D01*
X13315Y13099D01*
X13345Y13095D01*
X13373Y13084D01*
X13397Y13065D01*
X13415Y13041D01*
X13427Y13013D01*
X13431Y12983D01*
X13427Y12953D01*
X13415Y12925D01*
X13397Y12901D01*
X13373Y12883D01*
X13345Y12871D01*
X13315Y12867D01*
X13285Y12871D01*
X13257Y12883D01*
X13233Y12901D01*
X13214Y12925D01*
X13203Y12953D01*
X13199Y12983D01*
X13203Y13013D01*
X13203Y13015D01*
X12221Y13998D01*
X12209Y14016D01*
X12205Y14037D01*
Y14687D01*
X12148Y14743D01*
X11930D01*
Y14554D01*
X11829D01*
X11818Y14544D01*
X11800Y14531D01*
X11778Y14527D01*
X11652D01*
Y14513D01*
Y14512D01*
X11753D01*
X11775Y14508D01*
X11793Y14496D01*
X11829Y14460D01*
X11930D01*
Y14250D01*
X11780D01*
Y14350D01*
X11730Y14400D01*
X11652D01*
Y14386D01*
Y14259D01*
X11593D01*
Y14073D01*
X11754D01*
Y13823D01*
X11574D01*
Y13892D01*
X11258D01*
X11254Y13880D01*
X11268Y13870D01*
X11284Y13848D01*
X11295Y13823D01*
X11298Y13796D01*
X11295Y13774D01*
X12284Y12785D01*
X12694D01*
Y12834D01*
X12844D01*
Y12624D01*
X12694D01*
Y12673D01*
X12261D01*
X12239Y12677D01*
X12221Y12689D01*
X12221Y12689D01*
X12221Y12689D01*
X11216Y13694D01*
X11194Y13692D01*
X11167Y13695D01*
X11142Y13705D01*
X11120Y13722D01*
X11103Y13744D01*
X11093Y13769D01*
X11089Y13796D01*
X11093Y13823D01*
X11103Y13848D01*
X11120Y13870D01*
X11142Y13886D01*
X11140Y13892D01*
X11063D01*
Y13843D01*
X10893D01*
Y14053D01*
X11063D01*
Y14004D01*
X11481D01*
Y14259D01*
X11422D01*
Y14386D01*
Y14513D01*
Y14576D01*
X11410Y14580D01*
X11395Y14560D01*
X11373Y14544D01*
X11348Y14533D01*
X11321Y14530D01*
X11294Y14533D01*
X11269Y14544D01*
X11247Y14560D01*
X11230Y14582D01*
X11220Y14607D01*
X11216Y14634D01*
X11220Y14661D01*
X11230Y14686D01*
X11247Y14708D01*
X11269Y14725D01*
X11294Y14735D01*
X11321Y14738D01*
X11331Y14737D01*
X11339Y14747D01*
X11338Y14748D01*
X11321Y14746D01*
X11294Y14749D01*
X11269Y14760D01*
X11247Y14776D01*
X11230Y14798D01*
X11220Y14823D01*
X11216Y14850D01*
X11220Y14877D01*
X11230Y14902D01*
X11247Y14924D01*
X11269Y14940D01*
X11282Y14946D01*
X11285Y14958D01*
X11084Y15159D01*
X11074Y15173D01*
X11069Y15184D01*
X11067Y15189D01*
X11065Y15206D01*
Y15557D01*
X11056Y15564D01*
X11040Y15585D01*
X11029Y15610D01*
X11026Y15637D01*
X11029Y15664D01*
X11024Y15672D01*
X10948D01*
Y15187D01*
X10946Y15170D01*
X10944Y15163D01*
X10940Y15154D01*
X10929Y15140D01*
X10702Y14913D01*
Y14907D01*
X10702D01*
Y14767D01*
X10472D01*
Y14848D01*
X10339D01*
Y14809D01*
X10168D01*
Y15018D01*
X10339D01*
Y14979D01*
X10472D01*
Y15034D01*
X10638D01*
X10817Y15214D01*
Y15355D01*
X10806Y15360D01*
X10745Y15299D01*
X10731Y15289D01*
X10722Y15285D01*
X10715Y15282D01*
X10702Y15280D01*
Y15275D01*
Y15148D01*
X10472D01*
Y15153D01*
X10267D01*
X10250Y15155D01*
X10243Y15158D01*
X10234Y15162D01*
X10220Y15172D01*
X10198Y15194D01*
X10111D01*
Y15344D01*
X10321D01*
Y15284D01*
X10472D01*
Y15288D01*
Y15302D01*
X10333Y15441D01*
X10321Y15436D01*
Y15384D01*
X10111D01*
Y15421D01*
X10100Y15438D01*
X10096Y15459D01*
X10100Y15481D01*
X10101Y15482D01*
X10087Y15495D01*
D01*
X9461Y15497D01*
X9381Y15417D01*
X9386Y15405D01*
X9378D01*
Y15393D01*
X9351Y15366D01*
Y15235D01*
X9343D01*
Y15235D01*
X9343D01*
X9343Y15235D01*
X9336Y15235D01*
Y15235D01*
X9216D01*
Y15373D01*
X9204Y15378D01*
X9142Y15315D01*
X9142Y15315D01*
X8997Y15170D01*
Y15149D01*
X8932Y15084D01*
Y15026D01*
X8941Y15017D01*
X8997Y15017D01*
Y15011D01*
X9006Y15002D01*
X9154Y15002D01*
X9154Y15002D01*
X9154Y15002D01*
X9159Y15002D01*
X9164Y15001D01*
X9164Y15001D01*
X9164Y15001D01*
X9168Y14998D01*
X9172Y14995D01*
X9172Y14995D01*
X9172Y14995D01*
X9181Y14986D01*
X9181Y14986D01*
X9181Y14986D01*
X9184Y14982D01*
X9187Y14978D01*
X9187Y14978D01*
X9187Y14978D01*
X9188Y14973D01*
X9188Y14968D01*
X9188Y14968D01*
X9188Y14968D01*
Y14393D01*
X9204D01*
Y14272D01*
X9216Y14268D01*
X9219Y14272D01*
X9226Y14278D01*
Y14290D01*
X9243D01*
X9244Y14291D01*
X9271Y14302D01*
X9301Y14306D01*
X9332Y14302D01*
X9359Y14291D01*
X9360Y14290D01*
X9370D01*
X9371Y14291D01*
X9398Y14302D01*
X9429Y14306D01*
X9459Y14302D01*
X9486Y14291D01*
X9487Y14290D01*
X9497D01*
X9498Y14291D01*
X9525Y14302D01*
X9556Y14306D01*
X9683D01*
X9713Y14302D01*
X9740Y14291D01*
X9741Y14290D01*
X9758D01*
Y14278D01*
X9765Y14272D01*
X9783Y14248D01*
X9795Y14220D01*
X9798Y14192D01*
X10060D01*
Y14208D01*
X10056Y14210D01*
X10042Y14220D01*
X9869Y14393D01*
X9873D01*
X9878Y14405D01*
X9657Y14625D01*
X9623D01*
X9623Y14625D01*
Y14625D01*
X9623D01*
X9615Y14625D01*
X9614Y14625D01*
X9614Y14625D01*
Y14625D01*
X9608D01*
Y14795D01*
X9614D01*
X9614Y14795D01*
Y14795D01*
X9615Y14795D01*
X9619D01*
X9623Y14795D01*
X9624Y14795D01*
X9624Y14795D01*
Y14795D01*
X9743D01*
Y14684D01*
X10034Y14393D01*
X10075D01*
Y14396D01*
X10075D01*
Y14516D01*
X10089D01*
Y14531D01*
X10147D01*
X10246Y14630D01*
X10259Y14640D01*
X10269Y14644D01*
X10275Y14647D01*
X10292Y14649D01*
X10472D01*
Y14653D01*
X10702D01*
Y14526D01*
Y14522D01*
X10749D01*
X10766Y14520D01*
X10782Y14513D01*
X10789Y14508D01*
X10796Y14503D01*
X10834Y14464D01*
X10845Y14450D01*
X10849Y14439D01*
X10851Y14435D01*
X10853Y14418D01*
Y14053D01*
X10873D01*
Y13843D01*
X10703D01*
Y14053D01*
X10722D01*
Y14391D01*
X10722Y14391D01*
X10702D01*
Y14386D01*
Y14259D01*
X10652D01*
Y14116D01*
X10650Y14099D01*
X10647Y14092D01*
X10643Y14083D01*
X10633Y14070D01*
X10270Y13707D01*
Y13619D01*
X10060D01*
Y13769D01*
X10147D01*
X10521Y14143D01*
Y14259D01*
X10472D01*
Y14215D01*
X10470Y14198D01*
X10466Y14190D01*
X10463Y14182D01*
X10453Y14169D01*
X10364Y14080D01*
X10350Y14069D01*
X10339Y14065D01*
X10334Y14063D01*
X10318Y14061D01*
X9671D01*
Y13804D01*
X9680Y13794D01*
X9758D01*
Y13712D01*
X9900Y13570D01*
X10060D01*
Y13579D01*
X10270D01*
Y13429D01*
X10060D01*
Y13439D01*
X9873D01*
X9856Y13441D01*
X9849Y13444D01*
X9840Y13448D01*
X9826Y13458D01*
X9690Y13594D01*
X9631D01*
Y13594D01*
X9525D01*
X9525Y13594D01*
X9497Y13582D01*
X9467Y13578D01*
X9448Y13581D01*
X9429Y13578D01*
X9403Y13582D01*
X9399Y13572D01*
X9375Y13533D01*
X9345Y13498D01*
X9212Y13366D01*
X9217Y13354D01*
X10267D01*
X10282Y13351D01*
X10296Y13342D01*
X10304Y13329D01*
X10307Y13313D01*
Y12221D01*
X10304Y12205D01*
X10296Y12192D01*
X10282Y12183D01*
X10267Y12180D01*
X9191D01*
X9185Y12182D01*
X9175Y12183D01*
X9175Y12183D01*
X9175D01*
X9171Y12186D01*
X9162Y12192D01*
X9162Y12192D01*
X9162Y12192D01*
X9153Y12205D01*
X9153Y12205D01*
X9149Y12217D01*
Y12217D01*
X9149Y12217D01*
X9147Y12225D01*
X9145Y12233D01*
Y12233D01*
Y12233D01*
X9147Y12239D01*
X9149Y12248D01*
X9149Y12248D01*
Y12248D01*
X9150Y12251D01*
X9157Y12262D01*
X9157Y12262D01*
X9159Y12263D01*
Y13296D01*
X9147Y13301D01*
X8789Y12943D01*
X8789Y12943D01*
X8754Y12913D01*
D01*
D01*
Y12913D01*
X8754Y12913D01*
D01*
D01*
X8754D01*
X8754Y12913D01*
Y12913D01*
X8754Y12913D01*
Y12913D01*
X8716Y12889D01*
X8673Y12872D01*
X8629Y12861D01*
X8583Y12857D01*
X8583Y12857D01*
X4806D01*
X4806Y12857D01*
X4760Y12861D01*
X4716Y12872D01*
X4674Y12889D01*
X4635Y12913D01*
X4600Y12943D01*
X4117Y13425D01*
X4117Y13425D01*
X4088Y13460D01*
X4064Y13499D01*
X4046Y13541D01*
X4036Y13585D01*
X4036Y13585D01*
X4036Y13585D01*
Y13585D01*
X4032Y13631D01*
X4032Y13631D01*
Y14329D01*
X4036Y14375D01*
X4046Y14419D01*
X4064Y14461D01*
X4088Y14500D01*
X4117Y14535D01*
X4152Y14565D01*
X4191Y14588D01*
X4233Y14606D01*
X4278Y14617D01*
X4323Y14620D01*
X4369Y14617D01*
X4413Y14606D01*
X4455Y14588D01*
X4494Y14565D01*
X4529Y14535D01*
X4558Y14500D01*
X4582Y14461D01*
X4600Y14419D01*
X4610Y14375D01*
X4614Y14329D01*
Y13751D01*
X4842Y13523D01*
X4854Y13528D01*
Y14705D01*
X4855Y14709D01*
X4855Y14713D01*
X4856Y14717D01*
X4857Y14721D01*
X4859Y14724D01*
X4861Y14728D01*
X4863Y14731D01*
X4866Y14734D01*
X4869Y14736D01*
X4872Y14739D01*
X5251Y14995D01*
X5255Y14997D01*
X5259Y14999D01*
X5262Y15000D01*
X5266Y15001D01*
X5270Y15001D01*
X5274Y15002D01*
X8350Y15015D01*
Y15205D01*
X8350Y15205D01*
X8354Y15250D01*
X8364Y15295D01*
X8382Y15337D01*
X8406Y15376D01*
X8435Y15411D01*
X8435Y15411D01*
X8741Y15716D01*
X8741Y15716D01*
X8959Y15934D01*
X8994Y15964D01*
X9032Y15988D01*
X9075Y16005D01*
X9119Y16016D01*
X9165Y16019D01*
X9165Y16019D01*
X9189D01*
X9197Y16040D01*
Y16040D01*
X9197D01*
X9198Y16048D01*
X9199Y16051D01*
Y16051D01*
X9200Y16055D01*
X9200Y16055D01*
X9201Y16056D01*
X9203Y16061D01*
X9205Y16066D01*
X9205Y16066D01*
X9205Y16066D01*
X9212Y16073D01*
X9216Y16077D01*
X9216Y16077D01*
X9216Y16077D01*
X9226Y16081D01*
X9226Y16081D01*
X9227Y16082D01*
X9231Y16083D01*
X9231Y16083D01*
X9231Y16083D01*
X9231D01*
X9234Y16084D01*
X9238Y16084D01*
X9242Y16085D01*
X9283D01*
X9286Y16085D01*
X9287Y16089D01*
Y16224D01*
Y16226D01*
X9287Y16229D01*
X9287Y16230D01*
X9287Y16232D01*
X9287Y16233D01*
X9287Y16236D01*
X9201D01*
Y16436D01*
X9211D01*
Y16450D01*
X9213Y16467D01*
X9215Y16472D01*
X9219Y16483D01*
X9230Y16497D01*
X9331Y16598D01*
X9345Y16609D01*
X9353Y16612D01*
X9361Y16615D01*
X9378Y16617D01*
X9370Y16625D01*
X9047D01*
X9032Y16628D01*
X9018Y16637D01*
X9010Y16650D01*
X9006Y16666D01*
Y17906D01*
X9005Y17912D01*
X9005Y17912D01*
X9005Y17912D01*
X9007Y17920D01*
X9009Y17928D01*
X9014Y17939D01*
X9018Y17946D01*
X9022Y17952D01*
X9022Y17952D01*
X9022Y17952D01*
X9029Y17957D01*
X9035Y17961D01*
X9036Y17961D01*
X9036Y17961D01*
X9043Y17963D01*
X9051Y17964D01*
X9631D01*
X9776Y18109D01*
X9805Y18133D01*
X9838Y18151D01*
X9874Y18161D01*
X9911Y18165D01*
D02*
G37*
G36*
X11904Y14073D02*
X12084D01*
Y13987D01*
X12197Y13873D01*
X12211Y13871D01*
X12237Y13861D01*
X12258Y13844D01*
X12275Y13823D01*
X12285Y13798D01*
X12289Y13771D01*
X12285Y13743D01*
X12275Y13718D01*
X12258Y13697D01*
X12237Y13680D01*
X12211Y13670D01*
X12184Y13666D01*
X12157Y13670D01*
X12132Y13680D01*
X12111Y13697D01*
X12094Y13718D01*
X12093Y13721D01*
X11991Y13823D01*
X11904D01*
Y13942D01*
X11903Y13948D01*
X11904Y13954D01*
Y14073D01*
D02*
G37*
%LPD*%
G36*
X11315Y17216D02*
Y17120D01*
X11286D01*
Y17051D01*
X11307D01*
Y16840D01*
X11157D01*
Y16917D01*
X11083D01*
Y16782D01*
X11003D01*
X10999Y16779D01*
X10978Y16775D01*
X10956Y16779D01*
X10956D01*
X10948Y16782D01*
D01*
X10943Y16771D01*
X10948Y16763D01*
X10959Y16738D01*
X10962Y16711D01*
X10962Y16710D01*
X10971Y16700D01*
X11113D01*
Y16694D01*
X11182D01*
X11202Y16690D01*
X11220Y16678D01*
X11270Y16628D01*
X11275Y16621D01*
X11284Y16617D01*
X11306Y16600D01*
X11322Y16579D01*
X11332Y16556D01*
X11344Y16553D01*
X11354Y16562D01*
Y16840D01*
X11347D01*
Y17051D01*
X11354D01*
Y17175D01*
X11358Y17196D01*
X11365Y17207D01*
Y17233D01*
X11332D01*
X11315Y17216D01*
D02*
G37*
G36*
X9200Y12246D02*
X9186Y12233D01*
X9191Y12221D01*
X10267D01*
Y13313D01*
X9200D01*
Y12246D01*
D02*
G37*
G36*
X11497Y16924D02*
Y16840D01*
X11466D01*
Y16539D01*
X11462Y16518D01*
X11449Y16499D01*
X11225Y16275D01*
X11225Y16275D01*
X11225Y16275D01*
X11225Y16275D01*
Y16275D01*
X11207Y16263D01*
X11186Y16259D01*
X11113D01*
Y16255D01*
X11015D01*
X10996Y16237D01*
Y16187D01*
X11025D01*
Y15982D01*
X11503D01*
Y16187D01*
X11562D01*
Y16255D01*
X11528D01*
Y16320D01*
Y16385D01*
Y16450D01*
Y16515D01*
Y16580D01*
Y16645D01*
Y16765D01*
X11562D01*
Y16842D01*
X11561Y16842D01*
X11539Y16859D01*
X11522Y16881D01*
X11512Y16906D01*
X11510Y16925D01*
X11497Y16924D01*
D02*
G37*
G36*
X11505Y17120D02*
X11466D01*
Y17051D01*
X11497D01*
Y16942D01*
X11510Y16941D01*
X11512Y16960D01*
X11522Y16985D01*
X11539Y17007D01*
X11561Y17023D01*
X11586Y17034D01*
X11613Y17037D01*
X11640Y17034D01*
X11665Y17023D01*
X11687Y17007D01*
X11703Y16985D01*
X11714Y16960D01*
X11717Y16933D01*
X11714Y16906D01*
X11703Y16881D01*
X11687Y16859D01*
X11674Y16849D01*
Y16765D01*
X11708D01*
Y16696D01*
X11728D01*
X11742Y16714D01*
X11763Y16731D01*
X11788Y16741D01*
X11815Y16744D01*
X11843Y16741D01*
X11868Y16731D01*
X11889Y16714D01*
X11898Y16702D01*
X12052D01*
Y17169D01*
X11943D01*
X11922Y17173D01*
X11903Y17185D01*
X11891Y17203D01*
X11887Y17225D01*
X11887Y17225D01*
X11887Y17225D01*
Y17225D01*
Y17233D01*
X11505D01*
Y17120D01*
D02*
G37*
G36*
X5274Y14961D02*
X4895Y14705D01*
Y13449D01*
X4920Y13424D01*
X8469D01*
X8696Y13651D01*
X8701Y13670D01*
X8717Y13710D01*
X8740Y13746D01*
X8768Y13779D01*
X8768Y13779D01*
X8891Y13902D01*
X8923Y13930D01*
X8960Y13953D01*
X9000Y13969D01*
X9042Y13979D01*
X9086Y13983D01*
X9086Y13983D01*
X9163D01*
Y14968D01*
X9154Y14977D01*
X5274Y14961D01*
D02*
G37*
G36*
X12744Y15484D02*
X12743Y15481D01*
Y14359D01*
X12744Y14355D01*
X12747Y14355D01*
X13184D01*
X13187Y14370D01*
Y14672D01*
X13441D01*
X13441Y14672D01*
X13442Y14672D01*
X13442D01*
X13442Y14672D01*
X13446Y14673D01*
X13451Y14675D01*
X13454Y14677D01*
X13454Y14678D01*
X13454Y14678D01*
Y14678D01*
X13454Y14680D01*
Y15481D01*
X13454Y15484D01*
X13450Y15485D01*
X12747D01*
X12744Y15484D01*
D02*
G37*
G36*
X10282Y16905D02*
X10294Y16901D01*
X10307Y16918D01*
X10329Y16934D01*
X10354Y16945D01*
X10381Y16948D01*
X10408Y16945D01*
X10433Y16934D01*
X10434Y16933D01*
X10446Y16939D01*
Y16949D01*
X10550D01*
X10610Y17009D01*
X10627Y17021D01*
X10648Y17025D01*
X10778D01*
X10784Y17036D01*
X10774Y17051D01*
X10769Y17073D01*
Y17314D01*
X10774Y17335D01*
X10786Y17353D01*
X10830Y17397D01*
X10848Y17409D01*
X10869Y17414D01*
X10894D01*
X10906Y17411D01*
X11127D01*
X11175Y17460D01*
Y17530D01*
X11315D01*
Y17370D01*
X11244D01*
X11192Y17318D01*
X11197Y17306D01*
X11247D01*
X11269Y17328D01*
X11287Y17341D01*
X11308Y17345D01*
X11598D01*
X11600Y17357D01*
X11586Y17363D01*
X11564Y17380D01*
X11551Y17397D01*
X11505D01*
Y17370D01*
X11365D01*
Y17530D01*
X11379D01*
Y17602D01*
X11347D01*
Y17783D01*
X10282D01*
Y16905D01*
D02*
G37*
G36*
X9336Y16251D02*
X9336D01*
X9327Y16242D01*
X9328Y16236D01*
X9329Y16229D01*
X9328Y16228D01*
X9328Y16226D01*
X9328Y16224D01*
Y16085D01*
X9325Y16069D01*
X9316Y16056D01*
X9303Y16047D01*
X9287Y16044D01*
X9242D01*
X9239Y16043D01*
X9238Y16040D01*
Y16027D01*
Y15656D01*
X10014D01*
X10014Y15656D01*
X10014D01*
X10024Y15659D01*
Y16379D01*
X10004Y16399D01*
X9336D01*
Y16251D01*
D02*
G37*
G36*
X11497Y17602D02*
X11491D01*
Y17530D01*
X11505D01*
Y17510D01*
X11551D01*
X11564Y17527D01*
X11586Y17544D01*
X11611Y17554D01*
X11638Y17558D01*
X11665Y17554D01*
X11690Y17544D01*
X11712Y17527D01*
X11729Y17506D01*
X11739Y17481D01*
X11743Y17454D01*
X11739Y17426D01*
X11729Y17401D01*
X11712Y17380D01*
X11690Y17363D01*
X11676Y17357D01*
X11679Y17345D01*
X11853D01*
Y17478D01*
X12033D01*
Y17281D01*
X12127D01*
Y17431D01*
X12141D01*
Y17501D01*
X12112D01*
Y17711D01*
X12282D01*
Y17501D01*
X12253D01*
Y17431D01*
X12267D01*
Y17327D01*
X12279Y17322D01*
X12317Y17360D01*
Y17431D01*
X12457D01*
Y17271D01*
X12386D01*
X12301Y17185D01*
X12282Y17173D01*
X12267Y17170D01*
Y17021D01*
X12253D01*
Y16949D01*
X12285D01*
Y16739D01*
X12164D01*
Y16552D01*
X12160Y16530D01*
X12148Y16512D01*
X12099Y16463D01*
Y16362D01*
X12024D01*
X11937Y16275D01*
X11918Y16263D01*
X11897Y16259D01*
X11708D01*
Y16255D01*
X11674D01*
Y16112D01*
X11672Y16105D01*
Y15982D01*
X11918D01*
X11935Y15980D01*
X11943Y15977D01*
X11950Y15974D01*
X11964Y15963D01*
X12025Y15902D01*
X12084D01*
Y15652D01*
X11974D01*
X11948Y15627D01*
Y15496D01*
X11997D01*
Y15383D01*
X12020D01*
Y15491D01*
X12180D01*
Y15491D01*
X12183D01*
X12192Y15500D01*
Y15614D01*
X12143D01*
Y15764D01*
X12353D01*
Y15614D01*
X12304D01*
Y15478D01*
X12320D01*
Y15491D01*
X12480D01*
Y15351D01*
Y15257D01*
Y15162D01*
X12456D01*
Y15069D01*
X12475D01*
Y14859D01*
X12456D01*
Y14175D01*
X13203Y13428D01*
X13213Y13435D01*
X13203Y13460D01*
X12627Y14036D01*
X12615Y14054D01*
X12611Y14075D01*
Y16148D01*
X12346Y16412D01*
X12324Y16409D01*
X12297Y16413D01*
X12272Y16423D01*
X12250Y16440D01*
X12234Y16462D01*
X12223Y16487D01*
X12220Y16514D01*
X12223Y16541D01*
X12234Y16566D01*
X12250Y16588D01*
X12272Y16604D01*
X12297Y16615D01*
X12324Y16618D01*
X12351Y16615D01*
X12376Y16604D01*
X12398Y16588D01*
X12415Y16566D01*
X12425Y16541D01*
X12428Y16514D01*
X12426Y16492D01*
X12707Y16210D01*
X12719Y16192D01*
X12723Y16171D01*
Y15569D01*
X12726Y15554D01*
X12736Y15524D01*
X12736D01*
X12739Y15525D01*
X12743Y15525D01*
X12747Y15526D01*
X12982D01*
Y15730D01*
X13192D01*
Y15526D01*
X13212D01*
Y15730D01*
X13271D01*
Y16257D01*
X13257Y16275D01*
X13245Y16305D01*
X13241Y16331D01*
X13236Y16337D01*
X13227Y16359D01*
X13224Y16383D01*
Y16816D01*
X12519D01*
X12515Y16817D01*
X12511D01*
X12507Y16817D01*
X12507Y16817D01*
X12507D01*
X12503Y16819D01*
X12503Y16819D01*
X12503Y16819D01*
X12503Y16819D01*
X12499Y16820D01*
X12496Y16822D01*
X12492Y16823D01*
X12492Y16823D01*
X12492Y16823D01*
X12492Y16824D01*
X12489Y16826D01*
X12486Y16828D01*
X12479Y16824D01*
X12475Y16822D01*
Y16739D01*
X12325D01*
Y16949D01*
X12331D01*
Y17021D01*
X12317D01*
Y17181D01*
X12457D01*
Y17167D01*
X12474D01*
Y17297D01*
X12474Y17297D01*
X12475Y17301D01*
X12475Y17305D01*
X12475Y17308D01*
X12477Y17312D01*
X12477Y17313D01*
X12477Y17313D01*
X12480Y17319D01*
X12481Y17323D01*
X12481Y17323D01*
X12481Y17323D01*
X12488Y17330D01*
X12493Y17334D01*
X12493Y17334D01*
X12493Y17334D01*
X12501Y17338D01*
X12503Y17338D01*
X12503Y17339D01*
X12504Y17339D01*
X12507Y17340D01*
X12507Y17340D01*
X12507D01*
X12507D01*
X12511Y17341D01*
X12515Y17341D01*
X12519Y17342D01*
X12615D01*
X12631Y17339D01*
X12644Y17330D01*
X12653Y17317D01*
X12656Y17301D01*
Y17272D01*
X12754D01*
Y17301D01*
X12757Y17317D01*
X12766Y17330D01*
X12779Y17339D01*
X12794Y17342D01*
Y17628D01*
X12639Y17783D01*
X11497D01*
Y17602D01*
D02*
G37*
G36*
X11205Y15710D02*
X11221Y15690D01*
X11231Y15664D01*
X11235Y15637D01*
X11231Y15610D01*
X11221Y15585D01*
X11204Y15564D01*
X11196Y15557D01*
Y15233D01*
X11399Y15030D01*
X11422D01*
Y15034D01*
X11652D01*
Y14894D01*
Y14807D01*
X11663Y14802D01*
X11700Y14839D01*
X11718Y14851D01*
X11740Y14855D01*
X12172D01*
X12193Y14851D01*
X12211Y14839D01*
X12300Y14750D01*
X12312Y14732D01*
X12317Y14710D01*
Y14060D01*
X13203Y13174D01*
X13213Y13181D01*
X13203Y13207D01*
X13199Y13237D01*
X13203Y13267D01*
X13203Y13269D01*
X12361Y14112D01*
X12361Y14112D01*
X12361Y14112D01*
X12348Y14130D01*
X12344Y14151D01*
Y14859D01*
X12325D01*
Y15069D01*
X12344D01*
Y15162D01*
X12320D01*
Y15257D01*
Y15270D01*
X12180D01*
Y15257D01*
X12020D01*
Y15264D01*
X12009Y15268D01*
X11997Y15257D01*
Y15157D01*
X11787D01*
Y15175D01*
X11652D01*
Y15148D01*
X11422D01*
Y15250D01*
X11411Y15255D01*
X11386Y15244D01*
X11359Y15241D01*
X11332Y15244D01*
X11307Y15255D01*
X11285Y15271D01*
X11268Y15293D01*
X11258Y15318D01*
X11255Y15345D01*
X11258Y15372D01*
X11268Y15397D01*
X11285Y15419D01*
X11307Y15436D01*
X11332Y15446D01*
X11359Y15450D01*
X11386Y15446D01*
X11411Y15436D01*
X11422Y15441D01*
Y15542D01*
X11481D01*
Y15721D01*
X11211D01*
X11205Y15710D01*
D02*
G37*
G36*
X12515Y17300D02*
X12515Y17297D01*
X12515Y17297D01*
X12515D01*
Y17167D01*
Y16858D01*
X12515Y16857D01*
X12519Y16857D01*
X13501D01*
X13505Y16857D01*
X13505Y16861D01*
Y17297D01*
X13505Y17300D01*
X13501Y17301D01*
X12795D01*
Y17231D01*
X12615D01*
Y17301D01*
X12519D01*
X12515Y17300D01*
D02*
G37*
G36*
X9046Y17912D02*
X9047Y17911D01*
Y16666D01*
X10192D01*
X10254Y16730D01*
X10242Y16743D01*
Y17923D01*
X9051D01*
X9046Y17912D01*
D02*
G37*
G36*
X5513Y17292D02*
X5501Y17281D01*
X5505Y17270D01*
X5546D01*
Y17224D01*
X5441D01*
Y17200D01*
X5416D01*
Y17129D01*
X5336D01*
X5336Y17129D01*
Y17129D01*
X5330Y17132D01*
X5048Y16884D01*
Y16185D01*
X4733Y16216D01*
X4729Y16207D01*
X4729D01*
X4729Y16207D01*
Y15673D01*
X4737Y15662D01*
X4750Y15632D01*
X4754Y15599D01*
Y15464D01*
X4790Y15441D01*
X4823Y15413D01*
X4851Y15380D01*
X4874Y15344D01*
X4890Y15304D01*
X4900Y15261D01*
X4904Y15218D01*
X7571D01*
X8858Y16347D01*
X8882Y16368D01*
Y16669D01*
Y17174D01*
X8735Y17303D01*
X8723Y17314D01*
X5538D01*
X5513Y17292D01*
D02*
G37*
G36*
X10434Y16325D02*
X10592Y16166D01*
X10592Y16166D01*
X10801Y15958D01*
X10850D01*
X10855Y15963D01*
X10869Y15974D01*
X10877Y15977D01*
D01*
X10877D01*
X10877Y15977D01*
X10855D01*
Y16153D01*
X10800D01*
X10779Y16157D01*
X10760Y16169D01*
X10583Y16347D01*
X10570Y16365D01*
X10566Y16387D01*
Y16425D01*
X10555D01*
Y16425D01*
X10434D01*
Y16325D01*
D02*
G37*
%LPC*%
G36*
X6963Y13918D02*
X6972Y13918D01*
X7005Y13908D01*
X7036Y13891D01*
X7062Y13869D01*
X7084Y13843D01*
X7100Y13812D01*
X7110Y13779D01*
X7111Y13770D01*
X6963D01*
Y13918D01*
D02*
G37*
G36*
X6463D02*
X6472Y13918D01*
X6505Y13908D01*
X6536Y13891D01*
X6562Y13869D01*
X6584Y13843D01*
X6600Y13812D01*
X6610Y13779D01*
X6611Y13770D01*
X6463D01*
Y13918D01*
D02*
G37*
G36*
X6913D02*
Y13770D01*
X6765D01*
X6765Y13779D01*
X6775Y13812D01*
X6792Y13843D01*
X6814Y13869D01*
X6840Y13891D01*
X6871Y13908D01*
X6904Y13918D01*
X6913Y13918D01*
D02*
G37*
G36*
X7955D02*
X7964Y13918D01*
X7997Y13908D01*
X8028Y13891D01*
X8054Y13869D01*
X8076Y13843D01*
X8092Y13812D01*
X8102Y13779D01*
X8103Y13770D01*
X7955D01*
Y13918D01*
D02*
G37*
G36*
X8413D02*
Y13770D01*
X8265D01*
X8265Y13779D01*
X8275Y13812D01*
X8292Y13843D01*
X8314Y13869D01*
X8340Y13891D01*
X8371Y13908D01*
X8404Y13918D01*
X8413Y13918D01*
D02*
G37*
G36*
X7905D02*
Y13770D01*
X7757D01*
X7757Y13779D01*
X7767Y13812D01*
X7784Y13843D01*
X7806Y13869D01*
X7832Y13891D01*
X7863Y13908D01*
X7896Y13918D01*
X7905Y13918D01*
D02*
G37*
G36*
X7397D02*
Y13770D01*
X7249D01*
X7249Y13779D01*
X7259Y13812D01*
X7276Y13843D01*
X7298Y13869D01*
X7324Y13891D01*
X7355Y13908D01*
X7388Y13918D01*
X7397Y13918D01*
D02*
G37*
G36*
X7447D02*
X7456Y13918D01*
X7489Y13908D01*
X7520Y13891D01*
X7546Y13869D01*
X7568Y13843D01*
X7584Y13812D01*
X7594Y13779D01*
X7595Y13770D01*
X7447D01*
Y13918D01*
D02*
G37*
G36*
X13112Y14990D02*
X13292D01*
Y14925D01*
X13112D01*
Y14990D01*
D02*
G37*
G36*
X13001Y14531D02*
X13060D01*
Y14481D01*
X13001D01*
Y14531D01*
D02*
G37*
G36*
X13110D02*
X13170D01*
Y14481D01*
X13110D01*
Y14531D01*
D02*
G37*
G36*
X12882Y15105D02*
X13062D01*
Y15040D01*
X12882D01*
Y15105D01*
D02*
G37*
G36*
X13112D02*
X13292D01*
Y15040D01*
X13112D01*
Y15105D01*
D02*
G37*
G36*
X12882Y14990D02*
X13062D01*
Y14925D01*
X12882D01*
Y14990D01*
D02*
G37*
G36*
X13001Y14431D02*
X13060D01*
Y14381D01*
X13001D01*
Y14431D01*
D02*
G37*
G36*
X5913Y13918D02*
Y13770D01*
X5765D01*
X5765Y13779D01*
X5775Y13812D01*
X5792Y13843D01*
X5814Y13869D01*
X5840Y13891D01*
X5871Y13908D01*
X5904Y13918D01*
X5913Y13918D01*
D02*
G37*
G36*
X5963D02*
X5972Y13918D01*
X6005Y13908D01*
X6036Y13891D01*
X6062Y13869D01*
X6084Y13843D01*
X6100Y13812D01*
X6110Y13779D01*
X6111Y13770D01*
X5963D01*
Y13918D01*
D02*
G37*
G36*
X6413D02*
Y13770D01*
X6265D01*
X6265Y13779D01*
X6275Y13812D01*
X6292Y13843D01*
X6314Y13869D01*
X6340Y13891D01*
X6371Y13908D01*
X6404Y13918D01*
X6413Y13918D01*
D02*
G37*
G36*
X13110Y14431D02*
X13170D01*
Y14381D01*
X13110D01*
Y14431D01*
D02*
G37*
G36*
X5413Y13918D02*
Y13770D01*
X5265D01*
X5265Y13779D01*
X5275Y13812D01*
X5292Y13843D01*
X5314Y13869D01*
X5340Y13891D01*
X5371Y13908D01*
X5404Y13918D01*
X5413Y13918D01*
D02*
G37*
G36*
X5463D02*
X5472Y13918D01*
X5505Y13908D01*
X5536Y13891D01*
X5562Y13869D01*
X5584Y13843D01*
X5600Y13812D01*
X5610Y13779D01*
X5611Y13770D01*
X5463D01*
Y13918D01*
D02*
G37*
G36*
X9242Y13149D02*
X9276D01*
Y13089D01*
X9242D01*
Y13149D01*
D02*
G37*
G36*
X9708D02*
X9743D01*
Y13089D01*
X9708D01*
Y13149D01*
D02*
G37*
G36*
X9370Y13259D02*
Y13259D01*
X9404D01*
Y13174D01*
Y13089D01*
X9369D01*
X9369Y13089D01*
Y13089D01*
X9368D01*
X9361Y13089D01*
X9360Y13089D01*
X9360Y13089D01*
Y13089D01*
X9326D01*
Y13174D01*
Y13259D01*
X9360D01*
X9360Y13259D01*
Y13259D01*
X9361Y13259D01*
X9365Y13259D01*
X9369Y13259D01*
X9370Y13259D01*
X9370Y13259D01*
D02*
G37*
G36*
X9708Y13259D02*
X9743D01*
Y13199D01*
X9708D01*
Y13259D01*
D02*
G37*
G36*
X9614Y13259D02*
Y13259D01*
X9615Y13259D01*
X9619Y13259D01*
X9623Y13259D01*
X9624Y13259D01*
X9624Y13259D01*
Y13259D01*
X9658D01*
Y13174D01*
Y13089D01*
X9623D01*
Y13089D01*
X9615Y13089D01*
X9614Y13089D01*
X9614Y13089D01*
Y13089D01*
X9581D01*
Y13174D01*
Y13259D01*
X9614D01*
X9614Y13259D01*
D02*
G37*
G36*
X9487D02*
Y13259D01*
X9489Y13259D01*
X9492D01*
X9496D01*
X9497Y13259D01*
X9497Y13259D01*
Y13259D01*
X9531D01*
Y13174D01*
Y13089D01*
X9496D01*
Y13089D01*
X9489D01*
X9487Y13089D01*
X9487Y13089D01*
Y13089D01*
X9454D01*
Y13174D01*
Y13259D01*
X9487D01*
X9487Y13259D01*
D02*
G37*
G36*
X9242Y13259D02*
X9276D01*
Y13199D01*
X9242D01*
Y13259D01*
D02*
G37*
G36*
X10044Y13088D02*
X10089D01*
Y13008D01*
X10044D01*
Y13088D01*
D02*
G37*
G36*
X9581Y12570D02*
X9583Y12569D01*
X9608Y12559D01*
X9630Y12542D01*
X9647Y12520D01*
X9658Y12495D01*
X9658Y12492D01*
X9581D01*
Y12570D01*
D02*
G37*
G36*
X9453Y12442D02*
X9531D01*
Y12364D01*
X9528Y12365D01*
X9503Y12375D01*
X9481Y12392D01*
X9464Y12414D01*
X9453Y12440D01*
X9453Y12442D01*
D02*
G37*
G36*
X9581D02*
X9658D01*
X9658Y12440D01*
X9647Y12414D01*
X9630Y12392D01*
X9608Y12375D01*
X9583Y12365D01*
X9581Y12364D01*
Y12442D01*
D02*
G37*
G36*
X9531Y12570D02*
Y12492D01*
X9453D01*
X9453Y12495D01*
X9464Y12520D01*
X9481Y12542D01*
X9503Y12559D01*
X9528Y12569D01*
X9531Y12570D01*
D02*
G37*
G36*
X10139Y13088D02*
X10184D01*
Y13008D01*
X10139D01*
Y13088D01*
D02*
G37*
G36*
X10044Y12958D02*
X10089D01*
Y12878D01*
X10044D01*
Y12958D01*
D02*
G37*
G36*
X10139D02*
X10184D01*
Y12878D01*
X10139D01*
Y12958D01*
D02*
G37*
G36*
X5963Y13720D02*
X6111D01*
X6110Y13711D01*
X6100Y13678D01*
X6084Y13647D01*
X6062Y13621D01*
X6036Y13599D01*
X6005Y13583D01*
X5972Y13573D01*
X5963Y13572D01*
Y13720D01*
D02*
G37*
G36*
X6265D02*
X6413D01*
Y13572D01*
X6404Y13573D01*
X6371Y13583D01*
X6340Y13599D01*
X6314Y13621D01*
X6292Y13647D01*
X6275Y13678D01*
X6265Y13711D01*
X6265Y13720D01*
D02*
G37*
G36*
X6463D02*
X6611D01*
X6610Y13711D01*
X6600Y13678D01*
X6584Y13647D01*
X6562Y13621D01*
X6536Y13599D01*
X6505Y13583D01*
X6472Y13573D01*
X6463Y13572D01*
Y13720D01*
D02*
G37*
G36*
X5765D02*
X5913D01*
Y13572D01*
X5904Y13573D01*
X5871Y13583D01*
X5840Y13599D01*
X5814Y13621D01*
X5792Y13647D01*
X5775Y13678D01*
X5765Y13711D01*
X5765Y13720D01*
D02*
G37*
G36*
X8463Y13918D02*
X8472Y13918D01*
X8505Y13908D01*
X8536Y13891D01*
X8562Y13869D01*
X8584Y13843D01*
X8600Y13812D01*
X8610Y13779D01*
X8611Y13770D01*
X8463D01*
Y13918D01*
D02*
G37*
G36*
X5265Y13720D02*
X5413D01*
Y13572D01*
X5404Y13573D01*
X5371Y13583D01*
X5340Y13599D01*
X5314Y13621D01*
X5292Y13647D01*
X5275Y13678D01*
X5265Y13711D01*
X5265Y13720D01*
D02*
G37*
G36*
X5463D02*
X5611D01*
X5610Y13711D01*
X5600Y13678D01*
X5584Y13647D01*
X5562Y13621D01*
X5536Y13599D01*
X5505Y13583D01*
X5472Y13573D01*
X5463Y13572D01*
Y13720D01*
D02*
G37*
G36*
X6765D02*
X6913D01*
Y13572D01*
X6904Y13573D01*
X6871Y13583D01*
X6840Y13599D01*
X6814Y13621D01*
X6792Y13647D01*
X6775Y13678D01*
X6765Y13711D01*
X6765Y13720D01*
D02*
G37*
G36*
X7955D02*
X8103D01*
X8102Y13711D01*
X8092Y13678D01*
X8076Y13647D01*
X8054Y13621D01*
X8028Y13599D01*
X7997Y13583D01*
X7964Y13573D01*
X7955Y13572D01*
Y13720D01*
D02*
G37*
G36*
X8265D02*
X8413D01*
Y13572D01*
X8404Y13573D01*
X8371Y13583D01*
X8340Y13599D01*
X8314Y13621D01*
X8292Y13647D01*
X8275Y13678D01*
X8265Y13711D01*
X8265Y13720D01*
D02*
G37*
G36*
X8463D02*
X8611D01*
X8610Y13711D01*
X8600Y13678D01*
X8584Y13647D01*
X8562Y13621D01*
X8536Y13599D01*
X8505Y13583D01*
X8472Y13573D01*
X8463Y13572D01*
Y13720D01*
D02*
G37*
G36*
X7757D02*
X7905D01*
Y13572D01*
X7896Y13573D01*
X7863Y13583D01*
X7832Y13599D01*
X7806Y13621D01*
X7784Y13647D01*
X7767Y13678D01*
X7757Y13711D01*
X7757Y13720D01*
D02*
G37*
G36*
X6963D02*
X7111D01*
X7110Y13711D01*
X7100Y13678D01*
X7084Y13647D01*
X7062Y13621D01*
X7036Y13599D01*
X7005Y13583D01*
X6972Y13573D01*
X6963Y13572D01*
Y13720D01*
D02*
G37*
G36*
X7249D02*
X7397D01*
Y13572D01*
X7388Y13573D01*
X7355Y13583D01*
X7324Y13599D01*
X7298Y13621D01*
X7276Y13647D01*
X7259Y13678D01*
X7249Y13711D01*
X7249Y13720D01*
D02*
G37*
G36*
X7447D02*
X7595D01*
X7594Y13711D01*
X7584Y13678D01*
X7568Y13647D01*
X7546Y13621D01*
X7520Y13599D01*
X7489Y13583D01*
X7456Y13573D01*
X7447Y13572D01*
Y13720D01*
D02*
G37*
G36*
X12615Y17086D02*
X12680D01*
Y17041D01*
X12615D01*
Y17086D01*
D02*
G37*
G36*
X13340Y17197D02*
X13344Y17197D01*
X13373Y17188D01*
X13400Y17174D01*
X13423Y17155D01*
X13442Y17132D01*
X13456Y17106D01*
X13465Y17077D01*
X13465Y17072D01*
X13340D01*
Y17197D01*
D02*
G37*
G36*
X12921Y17056D02*
Y16996D01*
X12861D01*
X12869Y17016D01*
X12883Y17034D01*
X12902Y17048D01*
X12921Y17056D01*
D02*
G37*
G36*
X12730Y17086D02*
X12795D01*
Y17041D01*
X12730D01*
Y17086D01*
D02*
G37*
G36*
X12988Y17149D02*
X13048D01*
Y17089D01*
X13029Y17097D01*
X13010Y17111D01*
X12996Y17129D01*
X12988Y17149D01*
D02*
G37*
G36*
X10139Y17174D02*
X10184D01*
Y17095D01*
X10139D01*
Y17174D01*
D02*
G37*
G36*
X13290Y17197D02*
Y17072D01*
X13164D01*
X13165Y17077D01*
X13174Y17106D01*
X13188Y17132D01*
X13207Y17155D01*
X13230Y17174D01*
X13256Y17188D01*
X13285Y17197D01*
X13290Y17197D01*
D02*
G37*
G36*
X13098Y17149D02*
X13159D01*
X13151Y17129D01*
X13137Y17111D01*
X13118Y17097D01*
X13098Y17089D01*
Y17149D01*
D02*
G37*
G36*
X12861Y16946D02*
X12921D01*
Y16885D01*
X12902Y16894D01*
X12883Y16908D01*
X12869Y16926D01*
X12861Y16946D01*
D02*
G37*
G36*
X13340Y17022D02*
X13465D01*
X13465Y17017D01*
X13456Y16989D01*
X13442Y16962D01*
X13423Y16939D01*
X13400Y16920D01*
X13373Y16906D01*
X13344Y16897D01*
X13340Y16897D01*
Y17022D01*
D02*
G37*
G36*
X9216Y16941D02*
X9251D01*
Y16881D01*
X9216D01*
Y16941D01*
D02*
G37*
G36*
X12971Y16946D02*
X13032D01*
X13024Y16926D01*
X13010Y16908D01*
X12991Y16894D01*
X12971Y16885D01*
Y16946D01*
D02*
G37*
G36*
X9334Y16941D02*
Y16941D01*
X9336Y16941D01*
X9340Y16941D01*
X9343Y16941D01*
X9345Y16941D01*
X9345Y16941D01*
Y16941D01*
X9378D01*
Y16856D01*
Y16771D01*
X9343D01*
Y16771D01*
X9336Y16771D01*
X9334Y16771D01*
X9334Y16771D01*
Y16771D01*
X9301D01*
Y16856D01*
Y16941D01*
X9334D01*
X9334Y16941D01*
D02*
G37*
G36*
X12971Y17056D02*
X12991Y17048D01*
X13010Y17034D01*
X13024Y17016D01*
X13032Y16996D01*
X12971D01*
Y17056D01*
D02*
G37*
G36*
X13164Y17022D02*
X13290D01*
Y16897D01*
X13285Y16897D01*
X13256Y16906D01*
X13230Y16920D01*
X13207Y16939D01*
X13188Y16962D01*
X13174Y16989D01*
X13165Y17017D01*
X13164Y17022D01*
D02*
G37*
G36*
X9461Y16941D02*
Y16941D01*
X9463Y16941D01*
X9467D01*
X9470D01*
X9472Y16941D01*
X9472Y16941D01*
Y16941D01*
X9505D01*
Y16856D01*
Y16771D01*
X9470D01*
Y16771D01*
X9463D01*
X9461Y16771D01*
X9461Y16771D01*
Y16771D01*
X9428D01*
Y16856D01*
Y16941D01*
X9461D01*
X9461Y16941D01*
D02*
G37*
G36*
X6482Y17270D02*
X6562D01*
Y17224D01*
X6482D01*
Y17270D01*
D02*
G37*
G36*
X6352D02*
X6432D01*
Y17224D01*
X6352D01*
Y17270D01*
D02*
G37*
G36*
X10139Y17304D02*
X10184D01*
Y17224D01*
X10139D01*
Y17304D01*
D02*
G37*
G36*
X10044D02*
X10089D01*
Y17224D01*
X10044D01*
Y17304D01*
D02*
G37*
G36*
X9530Y17717D02*
X9532Y17716D01*
X9558Y17706D01*
X9580Y17689D01*
X9596Y17667D01*
X9607Y17641D01*
X9607Y17639D01*
X9530D01*
Y17717D01*
D02*
G37*
G36*
X9480D02*
Y17639D01*
X9402D01*
X9402Y17641D01*
X9413Y17667D01*
X9430Y17689D01*
X9452Y17706D01*
X9477Y17716D01*
X9480Y17717D01*
D02*
G37*
G36*
X9530Y17589D02*
X9607D01*
X9607Y17586D01*
X9596Y17561D01*
X9580Y17539D01*
X9558Y17522D01*
X9532Y17512D01*
X9530Y17511D01*
Y17589D01*
D02*
G37*
G36*
X9402D02*
X9480D01*
Y17511D01*
X9477Y17512D01*
X9452Y17522D01*
X9430Y17539D01*
X9413Y17561D01*
X9402Y17586D01*
X9402Y17589D01*
D02*
G37*
G36*
X6352Y17174D02*
X6432D01*
Y17129D01*
X6352D01*
Y17174D01*
D02*
G37*
G36*
X5466D02*
X5546D01*
Y17129D01*
X5466D01*
Y17174D01*
D02*
G37*
G36*
X10044D02*
X10089D01*
Y17095D01*
X10044D01*
Y17174D01*
D02*
G37*
G36*
X6482D02*
X6562D01*
Y17129D01*
X6482D01*
Y17174D01*
D02*
G37*
G36*
X13098Y17260D02*
X13118Y17251D01*
X13137Y17237D01*
X13151Y17219D01*
X13159Y17199D01*
X13098D01*
Y17260D01*
D02*
G37*
G36*
X13048D02*
Y17199D01*
X12988D01*
X12996Y17219D01*
X13010Y17237D01*
X13029Y17251D01*
X13048Y17260D01*
D02*
G37*
G36*
X12730Y17181D02*
X12795D01*
Y17136D01*
X12730D01*
Y17181D01*
D02*
G37*
G36*
X12615D02*
X12680D01*
Y17136D01*
X12615D01*
Y17181D01*
D02*
G37*
G36*
X5923Y16260D02*
X6071D01*
X6070Y16251D01*
X6060Y16218D01*
X6044Y16187D01*
X6022Y16161D01*
X5996Y16139D01*
X5965Y16123D01*
X5932Y16113D01*
X5923Y16112D01*
Y16260D01*
D02*
G37*
G36*
X5725D02*
X5873D01*
Y16112D01*
X5864Y16113D01*
X5831Y16123D01*
X5800Y16139D01*
X5774Y16161D01*
X5752Y16187D01*
X5735Y16218D01*
X5725Y16251D01*
X5725Y16260D01*
D02*
G37*
G36*
X6463D02*
X6611D01*
X6610Y16251D01*
X6600Y16218D01*
X6584Y16187D01*
X6562Y16161D01*
X6536Y16139D01*
X6505Y16123D01*
X6472Y16113D01*
X6463Y16112D01*
Y16260D01*
D02*
G37*
G36*
X6265D02*
X6413D01*
Y16112D01*
X6404Y16113D01*
X6371Y16123D01*
X6340Y16139D01*
X6314Y16161D01*
X6292Y16187D01*
X6275Y16218D01*
X6265Y16251D01*
X6265Y16260D01*
D02*
G37*
G36*
X8463Y16458D02*
X8472Y16458D01*
X8505Y16448D01*
X8536Y16431D01*
X8562Y16409D01*
X8584Y16383D01*
X8600Y16352D01*
X8610Y16319D01*
X8611Y16310D01*
X8463D01*
Y16458D01*
D02*
G37*
G36*
X8413D02*
Y16310D01*
X8265D01*
X8265Y16319D01*
X8275Y16352D01*
X8292Y16383D01*
X8314Y16409D01*
X8340Y16431D01*
X8371Y16448D01*
X8404Y16458D01*
X8413Y16458D01*
D02*
G37*
G36*
X5463Y16260D02*
X5611D01*
X5610Y16251D01*
X5600Y16218D01*
X5584Y16187D01*
X5562Y16161D01*
X5536Y16139D01*
X5505Y16123D01*
X5472Y16113D01*
X5463Y16112D01*
Y16260D01*
D02*
G37*
G36*
X5265D02*
X5413D01*
Y16112D01*
X5404Y16113D01*
X5371Y16123D01*
X5340Y16139D01*
X5314Y16161D01*
X5292Y16187D01*
X5275Y16218D01*
X5265Y16251D01*
X5265Y16260D01*
D02*
G37*
G36*
X7955D02*
X8103D01*
X8102Y16251D01*
X8092Y16218D01*
X8076Y16187D01*
X8054Y16161D01*
X8028Y16139D01*
X7997Y16123D01*
X7964Y16113D01*
X7955Y16112D01*
Y16260D01*
D02*
G37*
G36*
X7757D02*
X7905D01*
Y16112D01*
X7896Y16113D01*
X7863Y16123D01*
X7832Y16139D01*
X7806Y16161D01*
X7784Y16187D01*
X7767Y16218D01*
X7757Y16251D01*
X7757Y16260D01*
D02*
G37*
G36*
X8463D02*
X8611D01*
X8610Y16251D01*
X8600Y16218D01*
X8584Y16187D01*
X8562Y16161D01*
X8536Y16139D01*
X8505Y16123D01*
X8472Y16113D01*
X8463Y16112D01*
Y16260D01*
D02*
G37*
G36*
X8265D02*
X8413D01*
Y16112D01*
X8404Y16113D01*
X8371Y16123D01*
X8340Y16139D01*
X8314Y16161D01*
X8292Y16187D01*
X8275Y16218D01*
X8265Y16251D01*
X8265Y16260D01*
D02*
G37*
G36*
X6963D02*
X7111D01*
X7110Y16251D01*
X7100Y16218D01*
X7084Y16187D01*
X7062Y16161D01*
X7036Y16139D01*
X7005Y16123D01*
X6972Y16113D01*
X6963Y16112D01*
Y16260D01*
D02*
G37*
G36*
X6765D02*
X6913D01*
Y16112D01*
X6904Y16113D01*
X6871Y16123D01*
X6840Y16139D01*
X6814Y16161D01*
X6792Y16187D01*
X6775Y16218D01*
X6765Y16251D01*
X6765Y16260D01*
D02*
G37*
G36*
X7447D02*
X7595D01*
X7594Y16251D01*
X7584Y16218D01*
X7568Y16187D01*
X7546Y16161D01*
X7520Y16139D01*
X7489Y16123D01*
X7456Y16113D01*
X7447Y16112D01*
Y16260D01*
D02*
G37*
G36*
X7249D02*
X7397D01*
Y16112D01*
X7388Y16113D01*
X7355Y16123D01*
X7324Y16139D01*
X7298Y16161D01*
X7276Y16187D01*
X7259Y16218D01*
X7249Y16251D01*
X7249Y16260D01*
D02*
G37*
G36*
X5463Y16458D02*
X5472Y16458D01*
X5505Y16448D01*
X5536Y16431D01*
X5562Y16409D01*
X5584Y16383D01*
X5600Y16352D01*
X5610Y16319D01*
X5611Y16310D01*
X5463D01*
Y16458D01*
D02*
G37*
G36*
X5413D02*
Y16310D01*
X5265D01*
X5265Y16319D01*
X5275Y16352D01*
X5292Y16383D01*
X5314Y16409D01*
X5340Y16431D01*
X5371Y16448D01*
X5404Y16458D01*
X5413Y16458D01*
D02*
G37*
G36*
X5923D02*
X5932Y16458D01*
X5965Y16448D01*
X5996Y16431D01*
X6022Y16409D01*
X6044Y16383D01*
X6060Y16352D01*
X6070Y16319D01*
X6071Y16310D01*
X5923D01*
Y16458D01*
D02*
G37*
G36*
X5873D02*
Y16310D01*
X5725D01*
X5725Y16319D01*
X5735Y16352D01*
X5752Y16383D01*
X5774Y16409D01*
X5800Y16431D01*
X5831Y16448D01*
X5864Y16458D01*
X5873Y16458D01*
D02*
G37*
G36*
X9216Y16831D02*
X9251D01*
Y16771D01*
X9216D01*
Y16831D01*
D02*
G37*
G36*
X9682Y16941D02*
X9717D01*
Y16881D01*
X9682D01*
Y16941D01*
D02*
G37*
G36*
X9599Y16941D02*
Y16941D01*
X9632D01*
Y16856D01*
Y16771D01*
X9597D01*
X9597Y16771D01*
Y16771D01*
X9597D01*
X9590Y16771D01*
X9588Y16771D01*
X9588Y16771D01*
Y16771D01*
X9555D01*
Y16856D01*
Y16941D01*
X9588D01*
X9588Y16941D01*
Y16941D01*
X9590Y16941D01*
X9594Y16941D01*
X9597Y16941D01*
X9599Y16941D01*
X9599Y16941D01*
D02*
G37*
G36*
X9682Y16831D02*
X9717D01*
Y16771D01*
X9682D01*
Y16831D01*
D02*
G37*
G36*
X7447Y16458D02*
X7456Y16458D01*
X7489Y16448D01*
X7520Y16431D01*
X7546Y16409D01*
X7568Y16383D01*
X7584Y16352D01*
X7594Y16319D01*
X7595Y16310D01*
X7447D01*
Y16458D01*
D02*
G37*
G36*
X7397D02*
Y16310D01*
X7249D01*
X7249Y16319D01*
X7259Y16352D01*
X7276Y16383D01*
X7298Y16409D01*
X7324Y16431D01*
X7355Y16448D01*
X7388Y16458D01*
X7397Y16458D01*
D02*
G37*
G36*
X7955D02*
X7964Y16458D01*
X7997Y16448D01*
X8028Y16431D01*
X8054Y16409D01*
X8076Y16383D01*
X8092Y16352D01*
X8102Y16319D01*
X8103Y16310D01*
X7955D01*
Y16458D01*
D02*
G37*
G36*
X7905D02*
Y16310D01*
X7757D01*
X7757Y16319D01*
X7767Y16352D01*
X7784Y16383D01*
X7806Y16409D01*
X7832Y16431D01*
X7863Y16448D01*
X7896Y16458D01*
X7905Y16458D01*
D02*
G37*
G36*
X6463D02*
X6472Y16458D01*
X6505Y16448D01*
X6536Y16431D01*
X6562Y16409D01*
X6584Y16383D01*
X6600Y16352D01*
X6610Y16319D01*
X6611Y16310D01*
X6463D01*
Y16458D01*
D02*
G37*
G36*
X6413D02*
Y16310D01*
X6265D01*
X6265Y16319D01*
X6275Y16352D01*
X6292Y16383D01*
X6314Y16409D01*
X6340Y16431D01*
X6371Y16448D01*
X6404Y16458D01*
X6413Y16458D01*
D02*
G37*
G36*
X6963D02*
X6972Y16458D01*
X7005Y16448D01*
X7036Y16431D01*
X7062Y16409D01*
X7084Y16383D01*
X7100Y16352D01*
X7110Y16319D01*
X7111Y16310D01*
X6963D01*
Y16458D01*
D02*
G37*
G36*
X6913D02*
Y16310D01*
X6765D01*
X6765Y16319D01*
X6775Y16352D01*
X6792Y16383D01*
X6814Y16409D01*
X6840Y16431D01*
X6871Y16448D01*
X6904Y16458D01*
X6913Y16458D01*
D02*
G37*
%LPD*%
G36*
X3879Y19761D02*
X13767D01*
Y27649D01*
X3879D01*
Y19761D01*
D02*
G37*
%LPC*%
G36*
X5538Y25855D02*
X8723D01*
X8730Y25853D01*
X8736Y25852D01*
X8737Y25852D01*
X8739Y25851D01*
X8744Y25848D01*
X8750Y25844D01*
X8762Y25834D01*
X8762Y25834D01*
X8909Y25705D01*
X8910Y25704D01*
X8911Y25703D01*
X8915Y25697D01*
X8919Y25692D01*
X8919Y25691D01*
X8920Y25690D01*
X8921Y25683D01*
X8923Y25677D01*
X8923Y25675D01*
X8923Y25674D01*
Y25169D01*
Y24868D01*
X8923Y24867D01*
X8923Y24865D01*
X8921Y24859D01*
X8920Y24853D01*
X8919Y24851D01*
X8919Y24850D01*
X8915Y24845D01*
X8911Y24839D01*
X8910Y24839D01*
X8909Y24837D01*
X8885Y24816D01*
D01*
X8695Y24649D01*
X8673Y24614D01*
X8644Y24579D01*
X8609Y24550D01*
X8570Y24526D01*
X8540Y24513D01*
X7598Y23688D01*
X7593Y23684D01*
X7587Y23681D01*
X7586Y23680D01*
X7585Y23680D01*
X7578Y23679D01*
X7571Y23678D01*
X4916D01*
X4915Y23673D01*
X4905Y23628D01*
X4887Y23586D01*
X4863Y23547D01*
X4834Y23513D01*
X4529Y23208D01*
X4494Y23178D01*
X4455Y23154D01*
X4413Y23137D01*
X4369Y23126D01*
X4323Y23123D01*
X4278Y23126D01*
X4233Y23137D01*
X4191Y23154D01*
X4152Y23178D01*
X4117Y23208D01*
X4088Y23243D01*
X4064Y23281D01*
X4046Y23324D01*
X4036Y23368D01*
X4032Y23413D01*
X4036Y23459D01*
X4046Y23503D01*
X4064Y23546D01*
X4088Y23584D01*
X4117Y23619D01*
X4422Y23924D01*
X4457Y23954D01*
X4487Y23972D01*
Y24099D01*
X4492Y24136D01*
X4506Y24170D01*
X4528Y24199D01*
Y24227D01*
X4528D01*
Y24270D01*
X4526Y24275D01*
X4522Y24302D01*
X4526Y24330D01*
X4528Y24335D01*
Y24371D01*
X4527Y24372D01*
X4516Y24399D01*
X4512Y24429D01*
X4516Y24460D01*
X4527Y24487D01*
X4528Y24488D01*
Y24504D01*
X4540D01*
X4546Y24512D01*
X4570Y24530D01*
X4598Y24542D01*
X4628Y24545D01*
X4688D01*
Y24592D01*
X4682Y24599D01*
X4679Y24599D01*
X4679Y24599D01*
Y24599D01*
X4597D01*
X4341Y24343D01*
Y24252D01*
X4337Y24230D01*
X4325Y24212D01*
X4248Y24136D01*
X4230Y24124D01*
X4209Y24119D01*
X4208D01*
Y24101D01*
X4011D01*
Y21710D01*
X4435Y21285D01*
X8019D01*
X8040Y21281D01*
X8058Y21269D01*
X9210Y20117D01*
X9862D01*
X10748Y21002D01*
X10766Y21014D01*
X10787Y21018D01*
X13200D01*
Y21090D01*
X13430D01*
Y20860D01*
X13200D01*
Y20906D01*
X10811D01*
X9925Y20021D01*
X9925Y20021D01*
X9925D01*
X9925Y20021D01*
X9925D01*
X9925Y20021D01*
Y20021D01*
Y20021D01*
D01*
D01*
X9925D01*
Y20021D01*
X9907Y20009D01*
X9886Y20005D01*
X9187D01*
X9166Y20009D01*
X9148Y20021D01*
X9148Y20021D01*
X9148Y20021D01*
X7996Y21173D01*
X4412D01*
X4391Y21177D01*
X4372Y21189D01*
X4372Y21189D01*
X4372Y21189D01*
X3915Y21647D01*
X3903Y21665D01*
X3899Y21686D01*
X3899Y21686D01*
X3899Y21686D01*
Y21686D01*
Y24252D01*
X3903Y24273D01*
X3915Y24291D01*
X3966Y24342D01*
X3984Y24354D01*
X4006Y24359D01*
X4008D01*
Y24504D01*
X4008D01*
X4014Y24513D01*
X4007Y24529D01*
X4004Y24557D01*
X4007Y24584D01*
X4017Y24609D01*
X4034Y24630D01*
X4056Y24647D01*
X4081Y24657D01*
X4106Y24661D01*
X4117Y24671D01*
Y24782D01*
X4326D01*
Y24612D01*
X4216D01*
X4203Y24598D01*
X4209Y24584D01*
X4212Y24557D01*
X4209Y24529D01*
X4202Y24513D01*
X4208Y24504D01*
X4208D01*
Y24377D01*
X4208D01*
Y24270D01*
X4220Y24266D01*
X4229Y24275D01*
Y24366D01*
X4233Y24388D01*
X4246Y24406D01*
X4472Y24632D01*
Y24768D01*
X4682D01*
Y24732D01*
X4695Y24730D01*
X4696Y24732D01*
X4697Y24734D01*
X4697Y24735D01*
X4701Y24740D01*
X4705Y24745D01*
X4706Y24746D01*
X4707Y24748D01*
X4713Y24751D01*
X4718Y24754D01*
X4720Y24754D01*
X4721Y24755D01*
X4727Y24756D01*
X4734Y24757D01*
X4735Y24757D01*
X4737Y24757D01*
X4975Y24734D01*
X5007Y24765D01*
Y25384D01*
X5007Y25385D01*
X5007Y25387D01*
X5009Y25393D01*
X5010Y25400D01*
X5011Y25401D01*
X5011Y25402D01*
X5015Y25407D01*
X5019Y25413D01*
X5020Y25414D01*
X5021Y25415D01*
X5297Y25657D01*
Y25697D01*
X5302Y25733D01*
X5316Y25767D01*
X5321Y25774D01*
Y25785D01*
X5329D01*
X5338Y25797D01*
X5340Y25798D01*
X5341Y25799D01*
X5370Y25822D01*
X5404Y25836D01*
X5441Y25841D01*
X5506D01*
X5511Y25844D01*
X5517Y25848D01*
X5522Y25851D01*
X5523Y25852D01*
X5525Y25852D01*
X5531Y25853D01*
X5538Y25855D01*
D02*
G37*
G36*
X13315Y21345D02*
X13345Y21341D01*
X13373Y21330D01*
X13397Y21311D01*
X13415Y21287D01*
X13427Y21259D01*
X13431Y21229D01*
X13427Y21199D01*
X13415Y21171D01*
X13397Y21147D01*
X13373Y21129D01*
X13345Y21117D01*
X13315Y21113D01*
X13285Y21117D01*
X13257Y21129D01*
X13233Y21147D01*
X13214Y21171D01*
X13213Y21173D01*
X13034D01*
Y21124D01*
X12884D01*
Y21334D01*
X13034D01*
Y21285D01*
X13213D01*
X13214Y21287D01*
X13233Y21311D01*
X13257Y21330D01*
X13285Y21341D01*
X13315Y21345D01*
D02*
G37*
G36*
X9911Y26665D02*
X12718D01*
X12755Y26661D01*
X12791Y26651D01*
X12824Y26633D01*
X12853Y26609D01*
X13120Y26342D01*
X13143Y26314D01*
X13161Y26281D01*
X13172Y26245D01*
X13175Y26208D01*
Y25842D01*
X13501D01*
X13505Y25841D01*
X13509Y25841D01*
X13512Y25840D01*
X13516Y25839D01*
X13517Y25839D01*
X13517Y25838D01*
X13522Y25836D01*
X13527Y25834D01*
X13527Y25834D01*
X13527Y25834D01*
X13534Y25828D01*
X13538Y25823D01*
X13538Y25823D01*
X13538Y25823D01*
X13543Y25813D01*
X13543Y25813D01*
X13543Y25812D01*
X13545Y25808D01*
X13545Y25808D01*
X13545Y25808D01*
Y25808D01*
X13545Y25805D01*
X13545Y25801D01*
X13546Y25797D01*
Y25361D01*
X13545Y25357D01*
X13545Y25353D01*
X13545Y25349D01*
X13543Y25346D01*
X13543Y25345D01*
X13543Y25345D01*
X13540Y25339D01*
X13538Y25335D01*
X13538Y25335D01*
X13538Y25335D01*
X13532Y25328D01*
X13527Y25323D01*
X13527Y25323D01*
X13527Y25323D01*
X13517Y25319D01*
X13517Y25319D01*
X13516Y25319D01*
X13512Y25317D01*
X13512Y25317D01*
X13512Y25317D01*
X13512D01*
X13509Y25317D01*
X13505Y25317D01*
X13501Y25316D01*
X13405D01*
Y24948D01*
X13422Y24941D01*
X13447Y24921D01*
X13466Y24896D01*
X13478Y24867D01*
X13483Y24836D01*
X13478Y24805D01*
X13466Y24775D01*
X13452Y24757D01*
Y24169D01*
X13449Y24145D01*
X13440Y24123D01*
X13426Y24105D01*
X13422Y24102D01*
Y24026D01*
X13450D01*
X13454Y24025D01*
X13458Y24025D01*
X13462Y24024D01*
X13465Y24023D01*
X13466Y24023D01*
X13466Y24022D01*
X13472Y24020D01*
X13476Y24018D01*
X13476Y24018D01*
X13476Y24018D01*
X13483Y24011D01*
X13488Y24007D01*
X13488Y24007D01*
X13488Y24007D01*
X13492Y23997D01*
X13492Y23997D01*
X13492Y23996D01*
X13494Y23992D01*
X13494Y23992D01*
X13494Y23992D01*
Y23992D01*
X13494Y23989D01*
X13494Y23985D01*
X13495Y23981D01*
Y23180D01*
X13495Y23178D01*
Y23178D01*
X13494Y23176D01*
X13495Y23175D01*
X13494Y23174D01*
Y23172D01*
X13494Y23170D01*
Y23170D01*
X13494Y23169D01*
X13494Y23169D01*
Y23169D01*
X13492Y23165D01*
X13492Y23162D01*
X13491Y23161D01*
X13490Y23160D01*
X13490Y23160D01*
X13489Y23158D01*
X13488Y23154D01*
X13488Y23154D01*
X13488Y23154D01*
X13483Y23149D01*
X13483Y23149D01*
X13483Y23149D01*
X13480Y23146D01*
X13480Y23146D01*
X13479Y23145D01*
X13476Y23143D01*
X13476Y23143D01*
X13476Y23143D01*
X13473Y23141D01*
X13470Y23139D01*
X13466Y23137D01*
X13462Y23135D01*
X13458Y23134D01*
X13458Y23134D01*
X13458Y23134D01*
X13454Y23133D01*
X13450Y23132D01*
X13450D01*
X13449Y23132D01*
X13447Y23132D01*
X13445Y23131D01*
X13444Y23131D01*
X13443Y23131D01*
X13440Y23131D01*
X13228D01*
Y22870D01*
X13227Y22866D01*
X13227Y22862D01*
X13224Y22847D01*
X13222Y22843D01*
X13221Y22839D01*
X13219Y22836D01*
X13218Y22832D01*
X13215Y22829D01*
X13213Y22826D01*
X13209Y22824D01*
X13206Y22821D01*
X13203Y22819D01*
X13199Y22817D01*
X13195Y22816D01*
X13192Y22815D01*
X13188Y22815D01*
X13184Y22814D01*
X13151D01*
Y22311D01*
X13220D01*
X13233Y22327D01*
X13257Y22346D01*
X13285Y22357D01*
X13315Y22361D01*
X13345Y22357D01*
X13373Y22346D01*
X13397Y22327D01*
X13415Y22303D01*
X13427Y22275D01*
X13431Y22245D01*
X13427Y22215D01*
X13415Y22187D01*
X13397Y22163D01*
X13373Y22145D01*
X13345Y22133D01*
X13315Y22129D01*
X13285Y22133D01*
X13257Y22145D01*
X13233Y22163D01*
X13220Y22180D01*
X13159D01*
X13154Y22168D01*
X13242Y22080D01*
X13257Y22092D01*
X13285Y22103D01*
X13315Y22107D01*
X13345Y22103D01*
X13373Y22092D01*
X13397Y22073D01*
X13415Y22049D01*
X13427Y22021D01*
X13431Y21991D01*
X13427Y21961D01*
X13415Y21933D01*
X13397Y21909D01*
X13373Y21891D01*
X13345Y21879D01*
X13315Y21875D01*
X13285Y21879D01*
X13259Y21890D01*
X13252Y21879D01*
X13283Y21848D01*
X13285Y21849D01*
X13315Y21853D01*
X13345Y21849D01*
X13373Y21838D01*
X13397Y21819D01*
X13415Y21795D01*
X13427Y21767D01*
X13431Y21737D01*
X13427Y21707D01*
X13415Y21679D01*
X13397Y21655D01*
X13373Y21637D01*
X13345Y21625D01*
X13315Y21621D01*
X13285Y21625D01*
X13259Y21636D01*
X13252Y21625D01*
X13283Y21594D01*
X13285Y21595D01*
X13315Y21599D01*
X13345Y21595D01*
X13373Y21584D01*
X13397Y21565D01*
X13415Y21541D01*
X13427Y21513D01*
X13431Y21483D01*
X13427Y21453D01*
X13415Y21425D01*
X13397Y21401D01*
X13373Y21383D01*
X13345Y21371D01*
X13315Y21367D01*
X13285Y21371D01*
X13257Y21383D01*
X13233Y21401D01*
X13214Y21425D01*
X13203Y21453D01*
X13199Y21483D01*
X13203Y21513D01*
X13203Y21515D01*
X12221Y22498D01*
X12209Y22516D01*
X12205Y22537D01*
Y23187D01*
X12148Y23243D01*
X11930D01*
Y23055D01*
X11829D01*
X11818Y23044D01*
X11800Y23031D01*
X11778Y23027D01*
X11652D01*
Y23013D01*
Y23012D01*
X11753D01*
X11775Y23008D01*
X11793Y22996D01*
X11829Y22960D01*
X11930D01*
Y22750D01*
X11780D01*
Y22850D01*
X11730Y22900D01*
X11652D01*
Y22886D01*
Y22759D01*
X11593D01*
Y22573D01*
X11754D01*
Y22323D01*
X11574D01*
Y22392D01*
X11258D01*
X11254Y22380D01*
X11268Y22370D01*
X11284Y22348D01*
X11295Y22323D01*
X11298Y22296D01*
X11295Y22274D01*
X12284Y21285D01*
X12694D01*
Y21334D01*
X12844D01*
Y21124D01*
X12694D01*
Y21173D01*
X12261D01*
X12239Y21177D01*
X12221Y21189D01*
X12221Y21189D01*
X12221Y21189D01*
X11216Y22194D01*
X11194Y22192D01*
X11167Y22195D01*
X11142Y22205D01*
X11120Y22222D01*
X11103Y22244D01*
X11093Y22269D01*
X11089Y22296D01*
X11093Y22323D01*
X11103Y22348D01*
X11120Y22370D01*
X11142Y22386D01*
X11140Y22392D01*
X11063D01*
Y22343D01*
X10893D01*
Y22553D01*
X11063D01*
Y22504D01*
X11481D01*
Y22759D01*
X11422D01*
Y22886D01*
Y23013D01*
Y23076D01*
X11410Y23080D01*
X11395Y23060D01*
X11373Y23044D01*
X11348Y23033D01*
X11321Y23030D01*
X11294Y23033D01*
X11269Y23044D01*
X11247Y23060D01*
X11230Y23082D01*
X11220Y23107D01*
X11216Y23134D01*
X11220Y23161D01*
X11230Y23186D01*
X11247Y23208D01*
X11269Y23225D01*
X11294Y23235D01*
X11321Y23238D01*
X11331Y23237D01*
X11339Y23247D01*
X11338Y23248D01*
X11321Y23246D01*
X11294Y23249D01*
X11269Y23260D01*
X11247Y23276D01*
X11230Y23298D01*
X11220Y23323D01*
X11216Y23350D01*
X11220Y23377D01*
X11230Y23402D01*
X11247Y23424D01*
X11269Y23440D01*
X11282Y23446D01*
X11285Y23458D01*
X11084Y23659D01*
X11074Y23673D01*
X11069Y23684D01*
X11067Y23689D01*
X11065Y23706D01*
Y24057D01*
X11056Y24064D01*
X11040Y24085D01*
X11029Y24110D01*
X11026Y24137D01*
X11029Y24164D01*
X11024Y24172D01*
X10948D01*
Y23687D01*
X10946Y23670D01*
X10944Y23663D01*
X10940Y23654D01*
X10929Y23640D01*
X10702Y23413D01*
Y23407D01*
X10702D01*
Y23267D01*
X10472D01*
Y23348D01*
X10339D01*
Y23309D01*
X10168D01*
Y23518D01*
X10339D01*
Y23479D01*
X10472D01*
Y23534D01*
X10638D01*
X10817Y23714D01*
Y23855D01*
X10806Y23860D01*
X10745Y23799D01*
X10731Y23789D01*
X10722Y23785D01*
X10715Y23782D01*
X10702Y23780D01*
Y23775D01*
Y23648D01*
X10472D01*
Y23653D01*
X10267D01*
X10250Y23655D01*
X10243Y23658D01*
X10234Y23662D01*
X10220Y23672D01*
X10198Y23694D01*
X10111D01*
Y23844D01*
X10321D01*
Y23784D01*
X10472D01*
Y23788D01*
Y23802D01*
X10333Y23941D01*
X10321Y23936D01*
Y23884D01*
X10111D01*
Y23921D01*
X10100Y23938D01*
X10096Y23959D01*
X10100Y23981D01*
X10101Y23982D01*
X10087Y23995D01*
D01*
X9461Y23997D01*
X9381Y23917D01*
X9386Y23905D01*
X9378D01*
Y23893D01*
X9351Y23866D01*
Y23735D01*
X9343D01*
Y23735D01*
X9343D01*
X9343Y23735D01*
X9336Y23735D01*
Y23735D01*
X9216D01*
Y23873D01*
X9204Y23878D01*
X9142Y23815D01*
X9142Y23815D01*
X8997Y23670D01*
Y23649D01*
X8932Y23584D01*
Y23526D01*
X8941Y23517D01*
X8997Y23517D01*
Y23511D01*
X9006Y23502D01*
X9154Y23502D01*
X9154Y23502D01*
X9154Y23502D01*
X9159Y23502D01*
X9164Y23501D01*
X9164Y23501D01*
X9164Y23501D01*
X9168Y23498D01*
X9172Y23495D01*
X9172Y23495D01*
X9172Y23495D01*
X9181Y23486D01*
X9181Y23486D01*
X9181Y23486D01*
X9184Y23482D01*
X9187Y23478D01*
X9187Y23478D01*
X9187Y23478D01*
X9188Y23473D01*
X9188Y23468D01*
X9188Y23468D01*
X9188Y23468D01*
Y22893D01*
X9204D01*
Y22772D01*
X9216Y22768D01*
X9219Y22772D01*
X9226Y22778D01*
Y22790D01*
X9243D01*
X9244Y22791D01*
X9271Y22802D01*
X9301Y22806D01*
X9332Y22802D01*
X9359Y22791D01*
X9360Y22790D01*
X9370D01*
X9371Y22791D01*
X9398Y22802D01*
X9429Y22806D01*
X9459Y22802D01*
X9486Y22791D01*
X9487Y22790D01*
X9497D01*
X9498Y22791D01*
X9525Y22802D01*
X9556Y22806D01*
X9683D01*
X9713Y22802D01*
X9740Y22791D01*
X9741Y22790D01*
X9758D01*
Y22778D01*
X9765Y22772D01*
X9783Y22748D01*
X9795Y22720D01*
X9798Y22692D01*
X10060D01*
Y22708D01*
X10056Y22710D01*
X10042Y22720D01*
X9869Y22893D01*
X9873D01*
X9878Y22905D01*
X9657Y23125D01*
X9623D01*
X9623Y23125D01*
Y23125D01*
X9623D01*
X9615Y23125D01*
X9614Y23125D01*
X9614Y23125D01*
Y23125D01*
X9608D01*
Y23295D01*
X9614D01*
X9614Y23295D01*
Y23295D01*
X9615Y23295D01*
X9619D01*
X9623Y23295D01*
X9624Y23295D01*
X9624Y23295D01*
Y23295D01*
X9743D01*
Y23184D01*
X10034Y22893D01*
X10075D01*
Y22896D01*
X10075D01*
Y23016D01*
X10089D01*
Y23031D01*
X10147D01*
X10246Y23130D01*
X10259Y23140D01*
X10269Y23144D01*
X10275Y23147D01*
X10292Y23149D01*
X10472D01*
Y23153D01*
X10702D01*
Y23026D01*
Y23022D01*
X10749D01*
X10766Y23020D01*
X10782Y23013D01*
X10789Y23008D01*
X10796Y23003D01*
X10834Y22964D01*
X10845Y22950D01*
X10849Y22939D01*
X10851Y22935D01*
X10853Y22918D01*
Y22553D01*
X10873D01*
Y22343D01*
X10703D01*
Y22553D01*
X10722D01*
Y22891D01*
X10722Y22891D01*
X10702D01*
Y22886D01*
Y22759D01*
X10652D01*
Y22616D01*
X10650Y22599D01*
X10647Y22592D01*
X10643Y22583D01*
X10633Y22570D01*
X10270Y22207D01*
Y22119D01*
X10060D01*
Y22269D01*
X10147D01*
X10521Y22643D01*
Y22759D01*
X10472D01*
Y22715D01*
X10470Y22698D01*
X10466Y22690D01*
X10463Y22682D01*
X10453Y22669D01*
X10364Y22580D01*
X10350Y22569D01*
X10339Y22565D01*
X10334Y22563D01*
X10318Y22561D01*
X9671D01*
Y22304D01*
X9680Y22294D01*
X9758D01*
Y22212D01*
X9900Y22070D01*
X10060D01*
Y22079D01*
X10270D01*
Y21929D01*
X10060D01*
Y21939D01*
X9873D01*
X9856Y21941D01*
X9849Y21944D01*
X9840Y21948D01*
X9826Y21958D01*
X9690Y22094D01*
X9631D01*
Y22094D01*
X9525D01*
X9525Y22094D01*
X9497Y22082D01*
X9467Y22078D01*
X9448Y22081D01*
X9429Y22078D01*
X9403Y22082D01*
X9399Y22072D01*
X9375Y22033D01*
X9345Y21998D01*
X9212Y21866D01*
X9217Y21854D01*
X10267D01*
X10282Y21851D01*
X10296Y21842D01*
X10304Y21829D01*
X10307Y21813D01*
Y20721D01*
X10304Y20705D01*
X10296Y20692D01*
X10282Y20683D01*
X10267Y20680D01*
X9191D01*
X9185Y20682D01*
X9175Y20683D01*
X9175Y20683D01*
X9175D01*
X9171Y20686D01*
X9162Y20692D01*
X9162Y20692D01*
X9162Y20692D01*
X9153Y20705D01*
X9153Y20705D01*
X9149Y20717D01*
Y20717D01*
X9149Y20717D01*
X9147Y20725D01*
X9145Y20733D01*
Y20733D01*
Y20733D01*
X9147Y20739D01*
X9149Y20748D01*
X9149Y20748D01*
Y20748D01*
X9150Y20751D01*
X9157Y20762D01*
X9157Y20762D01*
X9159Y20763D01*
Y21796D01*
X9147Y21801D01*
X8789Y21443D01*
X8789Y21443D01*
X8754Y21413D01*
D01*
D01*
Y21413D01*
X8754Y21413D01*
D01*
D01*
X8754D01*
X8754Y21413D01*
Y21413D01*
X8754Y21413D01*
Y21413D01*
X8716Y21389D01*
X8673Y21372D01*
X8629Y21361D01*
X8583Y21357D01*
X8583Y21357D01*
X4806D01*
X4806Y21357D01*
X4760Y21361D01*
X4716Y21372D01*
X4674Y21389D01*
X4635Y21413D01*
X4600Y21443D01*
X4117Y21925D01*
X4117Y21925D01*
X4088Y21960D01*
X4064Y21999D01*
X4046Y22041D01*
X4036Y22085D01*
X4036Y22085D01*
X4036Y22085D01*
Y22085D01*
X4032Y22131D01*
X4032Y22131D01*
Y22829D01*
X4036Y22875D01*
X4046Y22919D01*
X4064Y22961D01*
X4088Y23000D01*
X4117Y23035D01*
X4152Y23065D01*
X4191Y23088D01*
X4233Y23106D01*
X4278Y23117D01*
X4323Y23120D01*
X4369Y23117D01*
X4413Y23106D01*
X4455Y23088D01*
X4494Y23065D01*
X4529Y23035D01*
X4558Y23000D01*
X4582Y22961D01*
X4600Y22919D01*
X4610Y22875D01*
X4614Y22829D01*
Y22251D01*
X4842Y22023D01*
X4854Y22028D01*
Y23205D01*
X4855Y23209D01*
X4855Y23213D01*
X4856Y23217D01*
X4857Y23221D01*
X4859Y23224D01*
X4861Y23228D01*
X4863Y23231D01*
X4866Y23234D01*
X4869Y23236D01*
X4872Y23239D01*
X5251Y23495D01*
X5255Y23497D01*
X5259Y23499D01*
X5262Y23500D01*
X5266Y23501D01*
X5270Y23501D01*
X5274Y23502D01*
X8350Y23515D01*
Y23705D01*
X8350Y23705D01*
X8354Y23750D01*
X8364Y23795D01*
X8382Y23837D01*
X8406Y23876D01*
X8435Y23911D01*
X8435Y23911D01*
X8741Y24216D01*
X8741Y24216D01*
X8959Y24434D01*
X8994Y24464D01*
X9032Y24488D01*
X9075Y24505D01*
X9119Y24516D01*
X9165Y24519D01*
X9165Y24519D01*
X9189D01*
X9197Y24540D01*
Y24540D01*
X9197D01*
X9198Y24548D01*
X9199Y24551D01*
Y24551D01*
X9200Y24555D01*
X9200Y24555D01*
X9201Y24556D01*
X9203Y24561D01*
X9205Y24566D01*
X9205Y24566D01*
X9205Y24566D01*
X9212Y24573D01*
X9216Y24577D01*
X9216Y24577D01*
X9216Y24577D01*
X9226Y24581D01*
X9226Y24581D01*
X9227Y24582D01*
X9231Y24583D01*
X9231Y24583D01*
X9231Y24583D01*
X9231D01*
X9234Y24584D01*
X9238Y24584D01*
X9242Y24585D01*
X9283D01*
X9286Y24585D01*
X9287Y24589D01*
Y24724D01*
Y24726D01*
X9287Y24729D01*
X9287Y24730D01*
X9287Y24732D01*
X9287Y24733D01*
X9287Y24736D01*
X9201D01*
Y24936D01*
X9211D01*
Y24950D01*
X9213Y24967D01*
X9215Y24972D01*
X9219Y24983D01*
X9230Y24997D01*
X9331Y25098D01*
X9345Y25109D01*
X9353Y25112D01*
X9361Y25115D01*
X9378Y25117D01*
X9370Y25125D01*
X9047D01*
X9032Y25128D01*
X9018Y25137D01*
X9010Y25150D01*
X9006Y25166D01*
Y26406D01*
X9005Y26412D01*
X9005Y26412D01*
X9005Y26412D01*
X9007Y26420D01*
X9009Y26428D01*
X9014Y26439D01*
X9018Y26446D01*
X9022Y26452D01*
X9022Y26452D01*
X9022Y26452D01*
X9029Y26457D01*
X9035Y26461D01*
X9036Y26461D01*
X9036Y26461D01*
X9043Y26463D01*
X9051Y26464D01*
X9631D01*
X9776Y26609D01*
X9805Y26633D01*
X9838Y26651D01*
X9874Y26661D01*
X9911Y26665D01*
D02*
G37*
G36*
X11904Y22573D02*
X12084D01*
Y22487D01*
X12197Y22373D01*
X12211Y22371D01*
X12237Y22361D01*
X12258Y22344D01*
X12275Y22323D01*
X12285Y22298D01*
X12289Y22271D01*
X12285Y22243D01*
X12275Y22218D01*
X12258Y22197D01*
X12237Y22180D01*
X12211Y22170D01*
X12184Y22166D01*
X12157Y22170D01*
X12132Y22180D01*
X12111Y22197D01*
X12094Y22218D01*
X12093Y22221D01*
X11991Y22323D01*
X11904D01*
Y22442D01*
X11903Y22448D01*
X11904Y22454D01*
Y22573D01*
D02*
G37*
%LPD*%
G36*
X11315Y25716D02*
Y25620D01*
X11286D01*
Y25551D01*
X11307D01*
Y25340D01*
X11157D01*
Y25417D01*
X11083D01*
Y25282D01*
X11003D01*
X10999Y25279D01*
X10978Y25275D01*
X10956Y25279D01*
X10956D01*
X10948Y25282D01*
D01*
X10943Y25271D01*
X10948Y25263D01*
X10959Y25238D01*
X10962Y25211D01*
X10962Y25210D01*
X10971Y25200D01*
X11113D01*
Y25194D01*
X11182D01*
X11202Y25190D01*
X11220Y25178D01*
X11270Y25128D01*
X11275Y25121D01*
X11284Y25117D01*
X11306Y25100D01*
X11322Y25079D01*
X11332Y25056D01*
X11344Y25053D01*
X11354Y25062D01*
Y25340D01*
X11347D01*
Y25551D01*
X11354D01*
Y25675D01*
X11358Y25696D01*
X11365Y25707D01*
Y25733D01*
X11332D01*
X11315Y25716D01*
D02*
G37*
G36*
X9200Y20746D02*
X9186Y20733D01*
X9191Y20721D01*
X10267D01*
Y21813D01*
X9200D01*
Y20746D01*
D02*
G37*
G36*
X11497Y25424D02*
Y25340D01*
X11466D01*
Y25039D01*
X11462Y25018D01*
X11449Y24999D01*
X11225Y24775D01*
X11225D01*
X11225Y24775D01*
X11225Y24775D01*
Y24775D01*
X11207Y24763D01*
X11186Y24759D01*
X11113D01*
Y24755D01*
X11015D01*
X10996Y24737D01*
Y24687D01*
X11025D01*
Y24482D01*
X11503D01*
Y24687D01*
X11562D01*
Y24755D01*
X11528D01*
Y24820D01*
Y24885D01*
Y24950D01*
Y25015D01*
Y25080D01*
Y25145D01*
Y25265D01*
X11562D01*
Y25342D01*
X11561Y25342D01*
X11539Y25359D01*
X11522Y25381D01*
X11512Y25406D01*
X11510Y25425D01*
X11497Y25424D01*
D02*
G37*
G36*
X11505Y25620D02*
X11466D01*
Y25551D01*
X11497D01*
Y25442D01*
X11510Y25441D01*
X11512Y25460D01*
X11522Y25485D01*
X11539Y25507D01*
X11561Y25523D01*
X11586Y25534D01*
X11613Y25537D01*
X11640Y25534D01*
X11665Y25523D01*
X11687Y25507D01*
X11703Y25485D01*
X11714Y25460D01*
X11717Y25433D01*
X11714Y25406D01*
X11703Y25381D01*
X11687Y25359D01*
X11674Y25349D01*
Y25265D01*
X11708D01*
Y25196D01*
X11728D01*
X11742Y25214D01*
X11763Y25231D01*
X11788Y25241D01*
X11815Y25244D01*
X11843Y25241D01*
X11868Y25231D01*
X11889Y25214D01*
X11898Y25202D01*
X12052D01*
Y25669D01*
X11943D01*
X11922Y25673D01*
X11903Y25685D01*
X11891Y25703D01*
X11887Y25725D01*
X11887Y25725D01*
X11887Y25725D01*
Y25725D01*
Y25733D01*
X11505D01*
Y25620D01*
D02*
G37*
G36*
X5274Y23461D02*
X4895Y23205D01*
Y21949D01*
X4920Y21924D01*
X8469D01*
X8696Y22151D01*
X8701Y22170D01*
X8717Y22210D01*
X8740Y22246D01*
X8768Y22279D01*
X8768Y22279D01*
X8891Y22402D01*
X8923Y22430D01*
X8960Y22453D01*
X9000Y22469D01*
X9042Y22479D01*
X9086Y22483D01*
X9086Y22483D01*
X9163D01*
Y23468D01*
X9154Y23477D01*
X5274Y23461D01*
D02*
G37*
G36*
X12744Y23984D02*
X12743Y23981D01*
Y22859D01*
X12744Y22855D01*
X12747Y22855D01*
X13184D01*
X13187Y22870D01*
Y23172D01*
X13441D01*
X13441Y23172D01*
X13442Y23172D01*
X13442D01*
X13442Y23172D01*
X13446Y23173D01*
X13451Y23175D01*
X13454Y23177D01*
X13454Y23178D01*
X13454Y23178D01*
Y23178D01*
X13454Y23180D01*
Y23981D01*
X13454Y23984D01*
X13450Y23985D01*
X12747D01*
X12744Y23984D01*
D02*
G37*
G36*
X10282Y25405D02*
X10294Y25401D01*
X10307Y25418D01*
X10329Y25434D01*
X10354Y25445D01*
X10381Y25448D01*
X10408Y25445D01*
X10433Y25434D01*
X10434Y25433D01*
X10446Y25439D01*
Y25449D01*
X10550D01*
X10610Y25509D01*
X10627Y25521D01*
X10648Y25525D01*
X10778D01*
X10784Y25536D01*
X10774Y25551D01*
X10769Y25573D01*
Y25814D01*
X10774Y25835D01*
X10786Y25853D01*
X10830Y25897D01*
X10848Y25909D01*
X10869Y25914D01*
X10894D01*
X10906Y25911D01*
X11127D01*
X11175Y25960D01*
Y26030D01*
X11315D01*
Y25870D01*
X11244D01*
X11192Y25818D01*
X11197Y25806D01*
X11247D01*
X11269Y25828D01*
X11287Y25841D01*
X11308Y25845D01*
X11598D01*
X11600Y25857D01*
X11586Y25863D01*
X11564Y25880D01*
X11551Y25897D01*
X11505D01*
Y25870D01*
X11365D01*
Y26030D01*
X11379D01*
Y26102D01*
X11347D01*
Y26283D01*
X10282D01*
Y25405D01*
D02*
G37*
G36*
X9336Y24751D02*
X9336D01*
X9327Y24742D01*
X9328Y24736D01*
X9329Y24729D01*
X9328Y24728D01*
X9328Y24726D01*
X9328Y24724D01*
Y24585D01*
X9325Y24569D01*
X9316Y24556D01*
X9303Y24547D01*
X9287Y24544D01*
X9242D01*
X9239Y24543D01*
X9238Y24540D01*
Y24527D01*
Y24156D01*
X10014D01*
X10014Y24156D01*
X10014D01*
X10024Y24159D01*
Y24879D01*
X10004Y24899D01*
X9336D01*
Y24751D01*
D02*
G37*
G36*
X11497Y26102D02*
X11491D01*
Y26030D01*
X11505D01*
Y26010D01*
X11551D01*
X11564Y26027D01*
X11586Y26044D01*
X11611Y26054D01*
X11638Y26058D01*
X11665Y26054D01*
X11690Y26044D01*
X11712Y26027D01*
X11729Y26006D01*
X11739Y25981D01*
X11743Y25954D01*
X11739Y25926D01*
X11729Y25901D01*
X11712Y25880D01*
X11690Y25863D01*
X11676Y25857D01*
X11679Y25845D01*
X11853D01*
Y25978D01*
X12033D01*
Y25781D01*
X12127D01*
Y25931D01*
X12141D01*
Y26001D01*
X12112D01*
Y26211D01*
X12282D01*
Y26001D01*
X12253D01*
Y25931D01*
X12267D01*
Y25827D01*
X12279Y25822D01*
X12317Y25860D01*
Y25931D01*
X12457D01*
Y25771D01*
X12386D01*
X12301Y25685D01*
X12282Y25673D01*
X12267Y25670D01*
Y25521D01*
X12253D01*
Y25449D01*
X12285D01*
Y25239D01*
X12164D01*
Y25052D01*
X12160Y25030D01*
X12148Y25012D01*
X12099Y24963D01*
Y24862D01*
X12024D01*
X11937Y24775D01*
X11918Y24763D01*
X11897Y24759D01*
X11708D01*
Y24755D01*
X11674D01*
Y24612D01*
X11672Y24605D01*
Y24482D01*
X11918D01*
X11935Y24480D01*
X11943Y24477D01*
X11950Y24474D01*
X11964Y24463D01*
X12025Y24402D01*
X12084D01*
Y24152D01*
X11974D01*
X11948Y24127D01*
Y23996D01*
X11997D01*
Y23883D01*
X12020D01*
Y23991D01*
X12180D01*
Y23991D01*
X12183D01*
X12192Y24000D01*
Y24114D01*
X12143D01*
Y24264D01*
X12353D01*
Y24114D01*
X12304D01*
Y23978D01*
X12320D01*
Y23991D01*
X12480D01*
Y23851D01*
Y23757D01*
Y23662D01*
X12456D01*
Y23569D01*
X12475D01*
Y23359D01*
X12456D01*
Y22675D01*
X13203Y21928D01*
X13213Y21935D01*
X13203Y21960D01*
X12627Y22536D01*
X12615Y22554D01*
X12611Y22575D01*
Y24648D01*
X12346Y24912D01*
X12324Y24909D01*
X12297Y24913D01*
X12272Y24923D01*
X12250Y24940D01*
X12234Y24962D01*
X12223Y24987D01*
X12220Y25014D01*
X12223Y25041D01*
X12234Y25066D01*
X12250Y25088D01*
X12272Y25104D01*
X12297Y25115D01*
X12324Y25118D01*
X12351Y25115D01*
X12376Y25104D01*
X12398Y25088D01*
X12415Y25066D01*
X12425Y25041D01*
X12428Y25014D01*
X12426Y24992D01*
X12707Y24710D01*
X12719Y24692D01*
X12723Y24671D01*
Y24069D01*
X12726Y24054D01*
X12736Y24024D01*
X12736D01*
X12739Y24025D01*
X12743Y24025D01*
X12747Y24026D01*
X12982D01*
Y24230D01*
X13192D01*
Y24026D01*
X13212D01*
Y24230D01*
X13271D01*
Y24757D01*
X13257Y24775D01*
X13245Y24805D01*
X13241Y24831D01*
X13236Y24837D01*
X13227Y24859D01*
X13224Y24883D01*
Y25316D01*
X12519D01*
X12515Y25317D01*
X12511D01*
X12507Y25317D01*
X12507Y25317D01*
X12507D01*
X12503Y25319D01*
X12503Y25319D01*
X12503Y25319D01*
X12503Y25319D01*
X12499Y25320D01*
X12496Y25322D01*
X12492Y25323D01*
X12492Y25323D01*
X12492Y25323D01*
X12492Y25324D01*
X12489Y25326D01*
X12486Y25328D01*
X12479Y25324D01*
X12475Y25322D01*
Y25239D01*
X12325D01*
Y25449D01*
X12331D01*
Y25521D01*
X12317D01*
Y25681D01*
X12457D01*
Y25667D01*
X12474D01*
Y25797D01*
X12474Y25797D01*
X12475Y25801D01*
X12475Y25805D01*
X12475Y25808D01*
X12477Y25812D01*
X12477Y25813D01*
X12477Y25813D01*
X12480Y25819D01*
X12481Y25823D01*
X12481Y25823D01*
X12481Y25823D01*
X12488Y25830D01*
X12493Y25834D01*
X12493Y25834D01*
X12493Y25834D01*
X12501Y25838D01*
X12503Y25838D01*
X12503Y25839D01*
X12504Y25839D01*
X12507Y25840D01*
X12507Y25840D01*
X12507D01*
X12507D01*
X12511Y25841D01*
X12515Y25841D01*
X12519Y25842D01*
X12615D01*
X12631Y25839D01*
X12644Y25830D01*
X12653Y25817D01*
X12656Y25801D01*
Y25772D01*
X12754D01*
Y25801D01*
X12757Y25817D01*
X12766Y25830D01*
X12779Y25839D01*
X12794Y25842D01*
Y26128D01*
X12639Y26283D01*
X11497D01*
Y26102D01*
D02*
G37*
G36*
X11205Y24210D02*
X11221Y24190D01*
X11231Y24164D01*
X11235Y24137D01*
X11231Y24110D01*
X11221Y24085D01*
X11204Y24064D01*
X11196Y24057D01*
Y23733D01*
X11399Y23530D01*
X11422D01*
Y23534D01*
X11652D01*
Y23394D01*
Y23307D01*
X11663Y23302D01*
X11700Y23339D01*
X11718Y23351D01*
X11740Y23355D01*
X12172D01*
X12193Y23351D01*
X12211Y23339D01*
X12300Y23250D01*
X12312Y23232D01*
X12317Y23210D01*
Y22560D01*
X13203Y21674D01*
X13213Y21681D01*
X13203Y21707D01*
X13199Y21737D01*
X13203Y21767D01*
X13203Y21769D01*
X12361Y22612D01*
X12361Y22612D01*
X12361Y22612D01*
X12348Y22630D01*
X12344Y22651D01*
Y23359D01*
X12325D01*
Y23569D01*
X12344D01*
Y23662D01*
X12320D01*
Y23757D01*
Y23770D01*
X12180D01*
Y23757D01*
X12020D01*
Y23764D01*
X12009Y23768D01*
X11997Y23757D01*
Y23657D01*
X11787D01*
Y23675D01*
X11652D01*
Y23648D01*
X11422D01*
Y23750D01*
X11411Y23755D01*
X11386Y23744D01*
X11359Y23741D01*
X11332Y23744D01*
X11307Y23755D01*
X11285Y23771D01*
X11268Y23793D01*
X11258Y23818D01*
X11255Y23845D01*
X11258Y23872D01*
X11268Y23897D01*
X11285Y23919D01*
X11307Y23936D01*
X11332Y23946D01*
X11359Y23950D01*
X11386Y23946D01*
X11411Y23936D01*
X11422Y23941D01*
Y24042D01*
X11481D01*
Y24221D01*
X11211D01*
X11205Y24210D01*
D02*
G37*
G36*
X12515Y25800D02*
X12515Y25797D01*
X12515Y25797D01*
X12515D01*
Y25667D01*
Y25358D01*
X12515Y25357D01*
X12519Y25357D01*
X13501D01*
X13505Y25357D01*
X13505Y25361D01*
Y25797D01*
X13505Y25800D01*
X13501Y25801D01*
X12795D01*
Y25731D01*
X12615D01*
Y25801D01*
X12519D01*
X12515Y25800D01*
D02*
G37*
G36*
X9046Y26412D02*
X9047Y26411D01*
Y25166D01*
X10192D01*
X10254Y25230D01*
X10242Y25243D01*
Y26423D01*
X9051D01*
X9046Y26412D01*
D02*
G37*
G36*
X5513Y25792D02*
X5501Y25781D01*
X5505Y25770D01*
X5546D01*
Y25724D01*
X5441D01*
Y25700D01*
X5416D01*
Y25630D01*
X5336D01*
X5336Y25630D01*
Y25630D01*
X5330Y25632D01*
X5048Y25384D01*
Y24685D01*
X4733Y24716D01*
X4729Y24707D01*
X4729D01*
X4729Y24707D01*
Y24173D01*
X4737Y24162D01*
X4750Y24132D01*
X4754Y24099D01*
Y23964D01*
X4790Y23941D01*
X4823Y23913D01*
X4851Y23880D01*
X4874Y23844D01*
X4890Y23804D01*
X4900Y23761D01*
X4904Y23718D01*
X7571D01*
X8858Y24847D01*
X8882Y24868D01*
Y25169D01*
Y25674D01*
X8735Y25803D01*
X8723Y25814D01*
X5538D01*
X5513Y25792D01*
D02*
G37*
G36*
X10434Y24825D02*
X10592Y24666D01*
X10592Y24666D01*
X10801Y24458D01*
X10850D01*
X10855Y24463D01*
X10869Y24474D01*
X10877Y24477D01*
D01*
X10877D01*
X10877Y24477D01*
X10855D01*
Y24653D01*
X10800D01*
X10779Y24657D01*
X10760Y24669D01*
X10583Y24847D01*
X10570Y24865D01*
X10566Y24887D01*
Y24925D01*
X10555D01*
Y24925D01*
X10434D01*
Y24825D01*
D02*
G37*
%LPC*%
G36*
X6963Y22418D02*
X6972Y22418D01*
X7005Y22408D01*
X7036Y22391D01*
X7062Y22369D01*
X7084Y22343D01*
X7100Y22312D01*
X7110Y22279D01*
X7111Y22270D01*
X6963D01*
Y22418D01*
D02*
G37*
G36*
X6463D02*
X6472Y22418D01*
X6505Y22408D01*
X6536Y22391D01*
X6562Y22369D01*
X6584Y22343D01*
X6600Y22312D01*
X6610Y22279D01*
X6611Y22270D01*
X6463D01*
Y22418D01*
D02*
G37*
G36*
X6913D02*
Y22270D01*
X6765D01*
X6765Y22279D01*
X6775Y22312D01*
X6792Y22343D01*
X6814Y22369D01*
X6840Y22391D01*
X6871Y22408D01*
X6904Y22418D01*
X6913Y22418D01*
D02*
G37*
G36*
X7955D02*
X7964Y22418D01*
X7997Y22408D01*
X8028Y22391D01*
X8054Y22369D01*
X8076Y22343D01*
X8092Y22312D01*
X8102Y22279D01*
X8103Y22270D01*
X7955D01*
Y22418D01*
D02*
G37*
G36*
X8413D02*
Y22270D01*
X8265D01*
X8265Y22279D01*
X8275Y22312D01*
X8292Y22343D01*
X8314Y22369D01*
X8340Y22391D01*
X8371Y22408D01*
X8404Y22418D01*
X8413Y22418D01*
D02*
G37*
G36*
X7905D02*
Y22270D01*
X7757D01*
X7757Y22279D01*
X7767Y22312D01*
X7784Y22343D01*
X7806Y22369D01*
X7832Y22391D01*
X7863Y22408D01*
X7896Y22418D01*
X7905Y22418D01*
D02*
G37*
G36*
X7397D02*
Y22270D01*
X7249D01*
X7249Y22279D01*
X7259Y22312D01*
X7276Y22343D01*
X7298Y22369D01*
X7324Y22391D01*
X7355Y22408D01*
X7388Y22418D01*
X7397Y22418D01*
D02*
G37*
G36*
X7447D02*
X7456Y22418D01*
X7489Y22408D01*
X7520Y22391D01*
X7546Y22369D01*
X7568Y22343D01*
X7584Y22312D01*
X7594Y22279D01*
X7595Y22270D01*
X7447D01*
Y22418D01*
D02*
G37*
G36*
X13112Y23490D02*
X13292D01*
Y23425D01*
X13112D01*
Y23490D01*
D02*
G37*
G36*
X13001Y23031D02*
X13060D01*
Y22981D01*
X13001D01*
Y23031D01*
D02*
G37*
G36*
X13110D02*
X13170D01*
Y22981D01*
X13110D01*
Y23031D01*
D02*
G37*
G36*
X12882Y23605D02*
X13062D01*
Y23540D01*
X12882D01*
Y23605D01*
D02*
G37*
G36*
X13112D02*
X13292D01*
Y23540D01*
X13112D01*
Y23605D01*
D02*
G37*
G36*
X12882Y23490D02*
X13062D01*
Y23425D01*
X12882D01*
Y23490D01*
D02*
G37*
G36*
X13001Y22931D02*
X13060D01*
Y22881D01*
X13001D01*
Y22931D01*
D02*
G37*
G36*
X5913Y22418D02*
Y22270D01*
X5765D01*
X5765Y22279D01*
X5775Y22312D01*
X5792Y22343D01*
X5814Y22369D01*
X5840Y22391D01*
X5871Y22408D01*
X5904Y22418D01*
X5913Y22418D01*
D02*
G37*
G36*
X5963D02*
X5972Y22418D01*
X6005Y22408D01*
X6036Y22391D01*
X6062Y22369D01*
X6084Y22343D01*
X6100Y22312D01*
X6110Y22279D01*
X6111Y22270D01*
X5963D01*
Y22418D01*
D02*
G37*
G36*
X6413D02*
Y22270D01*
X6265D01*
X6265Y22279D01*
X6275Y22312D01*
X6292Y22343D01*
X6314Y22369D01*
X6340Y22391D01*
X6371Y22408D01*
X6404Y22418D01*
X6413Y22418D01*
D02*
G37*
G36*
X13110Y22931D02*
X13170D01*
Y22881D01*
X13110D01*
Y22931D01*
D02*
G37*
G36*
X5413Y22418D02*
Y22270D01*
X5265D01*
X5265Y22279D01*
X5275Y22312D01*
X5292Y22343D01*
X5314Y22369D01*
X5340Y22391D01*
X5371Y22408D01*
X5404Y22418D01*
X5413Y22418D01*
D02*
G37*
G36*
X5463D02*
X5472Y22418D01*
X5505Y22408D01*
X5536Y22391D01*
X5562Y22369D01*
X5584Y22343D01*
X5600Y22312D01*
X5610Y22279D01*
X5611Y22270D01*
X5463D01*
Y22418D01*
D02*
G37*
G36*
X9242Y21649D02*
X9276D01*
Y21589D01*
X9242D01*
Y21649D01*
D02*
G37*
G36*
X9708D02*
X9743D01*
Y21589D01*
X9708D01*
Y21649D01*
D02*
G37*
G36*
X9370Y21759D02*
Y21759D01*
X9404D01*
Y21674D01*
Y21589D01*
X9369D01*
X9369Y21589D01*
Y21589D01*
X9368D01*
X9361Y21589D01*
X9360Y21589D01*
X9360Y21589D01*
Y21589D01*
X9326D01*
Y21674D01*
Y21759D01*
X9360D01*
X9360Y21759D01*
Y21759D01*
X9361Y21759D01*
X9365Y21759D01*
X9369Y21759D01*
X9370Y21759D01*
X9370Y21759D01*
D02*
G37*
G36*
X9708Y21759D02*
X9743D01*
Y21699D01*
X9708D01*
Y21759D01*
D02*
G37*
G36*
X9614Y21759D02*
Y21759D01*
X9615Y21759D01*
X9619Y21759D01*
X9623Y21759D01*
X9624Y21759D01*
X9624Y21759D01*
Y21759D01*
X9658D01*
Y21674D01*
Y21589D01*
X9623D01*
Y21589D01*
X9615Y21589D01*
X9614Y21589D01*
X9614Y21589D01*
Y21589D01*
X9581D01*
Y21674D01*
Y21759D01*
X9614D01*
X9614Y21759D01*
D02*
G37*
G36*
X9487D02*
Y21759D01*
X9489Y21759D01*
X9492D01*
X9496D01*
X9497Y21759D01*
X9497Y21759D01*
Y21759D01*
X9531D01*
Y21674D01*
Y21589D01*
X9496D01*
Y21589D01*
X9489D01*
X9487Y21589D01*
X9487Y21589D01*
Y21589D01*
X9454D01*
Y21674D01*
Y21759D01*
X9487D01*
X9487Y21759D01*
D02*
G37*
G36*
X9242Y21759D02*
X9276D01*
Y21699D01*
X9242D01*
Y21759D01*
D02*
G37*
G36*
X10044Y21588D02*
X10089D01*
Y21508D01*
X10044D01*
Y21588D01*
D02*
G37*
G36*
X9581Y21070D02*
X9583Y21069D01*
X9608Y21059D01*
X9630Y21042D01*
X9647Y21020D01*
X9658Y20995D01*
X9658Y20992D01*
X9581D01*
Y21070D01*
D02*
G37*
G36*
X9453Y20942D02*
X9531D01*
Y20864D01*
X9528Y20865D01*
X9503Y20875D01*
X9481Y20892D01*
X9464Y20914D01*
X9453Y20940D01*
X9453Y20942D01*
D02*
G37*
G36*
X9581D02*
X9658D01*
X9658Y20940D01*
X9647Y20914D01*
X9630Y20892D01*
X9608Y20875D01*
X9583Y20865D01*
X9581Y20864D01*
Y20942D01*
D02*
G37*
G36*
X9531Y21070D02*
Y20992D01*
X9453D01*
X9453Y20995D01*
X9464Y21020D01*
X9481Y21042D01*
X9503Y21059D01*
X9528Y21069D01*
X9531Y21070D01*
D02*
G37*
G36*
X10139Y21588D02*
X10184D01*
Y21508D01*
X10139D01*
Y21588D01*
D02*
G37*
G36*
X10044Y21458D02*
X10089D01*
Y21378D01*
X10044D01*
Y21458D01*
D02*
G37*
G36*
X10139D02*
X10184D01*
Y21378D01*
X10139D01*
Y21458D01*
D02*
G37*
G36*
X5963Y22220D02*
X6111D01*
X6110Y22211D01*
X6100Y22178D01*
X6084Y22147D01*
X6062Y22121D01*
X6036Y22099D01*
X6005Y22083D01*
X5972Y22073D01*
X5963Y22072D01*
Y22220D01*
D02*
G37*
G36*
X6265D02*
X6413D01*
Y22072D01*
X6404Y22073D01*
X6371Y22083D01*
X6340Y22099D01*
X6314Y22121D01*
X6292Y22147D01*
X6275Y22178D01*
X6265Y22211D01*
X6265Y22220D01*
D02*
G37*
G36*
X6463D02*
X6611D01*
X6610Y22211D01*
X6600Y22178D01*
X6584Y22147D01*
X6562Y22121D01*
X6536Y22099D01*
X6505Y22083D01*
X6472Y22073D01*
X6463Y22072D01*
Y22220D01*
D02*
G37*
G36*
X5765D02*
X5913D01*
Y22072D01*
X5904Y22073D01*
X5871Y22083D01*
X5840Y22099D01*
X5814Y22121D01*
X5792Y22147D01*
X5775Y22178D01*
X5765Y22211D01*
X5765Y22220D01*
D02*
G37*
G36*
X8463Y22418D02*
X8472Y22418D01*
X8505Y22408D01*
X8536Y22391D01*
X8562Y22369D01*
X8584Y22343D01*
X8600Y22312D01*
X8610Y22279D01*
X8611Y22270D01*
X8463D01*
Y22418D01*
D02*
G37*
G36*
X5265Y22220D02*
X5413D01*
Y22072D01*
X5404Y22073D01*
X5371Y22083D01*
X5340Y22099D01*
X5314Y22121D01*
X5292Y22147D01*
X5275Y22178D01*
X5265Y22211D01*
X5265Y22220D01*
D02*
G37*
G36*
X5463D02*
X5611D01*
X5610Y22211D01*
X5600Y22178D01*
X5584Y22147D01*
X5562Y22121D01*
X5536Y22099D01*
X5505Y22083D01*
X5472Y22073D01*
X5463Y22072D01*
Y22220D01*
D02*
G37*
G36*
X6765D02*
X6913D01*
Y22072D01*
X6904Y22073D01*
X6871Y22083D01*
X6840Y22099D01*
X6814Y22121D01*
X6792Y22147D01*
X6775Y22178D01*
X6765Y22211D01*
X6765Y22220D01*
D02*
G37*
G36*
X7955D02*
X8103D01*
X8102Y22211D01*
X8092Y22178D01*
X8076Y22147D01*
X8054Y22121D01*
X8028Y22099D01*
X7997Y22083D01*
X7964Y22073D01*
X7955Y22072D01*
Y22220D01*
D02*
G37*
G36*
X8265D02*
X8413D01*
Y22072D01*
X8404Y22073D01*
X8371Y22083D01*
X8340Y22099D01*
X8314Y22121D01*
X8292Y22147D01*
X8275Y22178D01*
X8265Y22211D01*
X8265Y22220D01*
D02*
G37*
G36*
X8463D02*
X8611D01*
X8610Y22211D01*
X8600Y22178D01*
X8584Y22147D01*
X8562Y22121D01*
X8536Y22099D01*
X8505Y22083D01*
X8472Y22073D01*
X8463Y22072D01*
Y22220D01*
D02*
G37*
G36*
X7757D02*
X7905D01*
Y22072D01*
X7896Y22073D01*
X7863Y22083D01*
X7832Y22099D01*
X7806Y22121D01*
X7784Y22147D01*
X7767Y22178D01*
X7757Y22211D01*
X7757Y22220D01*
D02*
G37*
G36*
X6963D02*
X7111D01*
X7110Y22211D01*
X7100Y22178D01*
X7084Y22147D01*
X7062Y22121D01*
X7036Y22099D01*
X7005Y22083D01*
X6972Y22073D01*
X6963Y22072D01*
Y22220D01*
D02*
G37*
G36*
X7249D02*
X7397D01*
Y22072D01*
X7388Y22073D01*
X7355Y22083D01*
X7324Y22099D01*
X7298Y22121D01*
X7276Y22147D01*
X7259Y22178D01*
X7249Y22211D01*
X7249Y22220D01*
D02*
G37*
G36*
X7447D02*
X7595D01*
X7594Y22211D01*
X7584Y22178D01*
X7568Y22147D01*
X7546Y22121D01*
X7520Y22099D01*
X7489Y22083D01*
X7456Y22073D01*
X7447Y22072D01*
Y22220D01*
D02*
G37*
G36*
X12615Y25586D02*
X12680D01*
Y25541D01*
X12615D01*
Y25586D01*
D02*
G37*
G36*
X13340Y25697D02*
X13344Y25697D01*
X13373Y25688D01*
X13400Y25674D01*
X13423Y25655D01*
X13442Y25632D01*
X13456Y25606D01*
X13465Y25577D01*
X13465Y25572D01*
X13340D01*
Y25697D01*
D02*
G37*
G36*
X12921Y25556D02*
Y25496D01*
X12861D01*
X12869Y25516D01*
X12883Y25534D01*
X12902Y25548D01*
X12921Y25556D01*
D02*
G37*
G36*
X12730Y25586D02*
X12795D01*
Y25541D01*
X12730D01*
Y25586D01*
D02*
G37*
G36*
X12988Y25649D02*
X13048D01*
Y25589D01*
X13029Y25597D01*
X13010Y25611D01*
X12996Y25629D01*
X12988Y25649D01*
D02*
G37*
G36*
X10139Y25674D02*
X10184D01*
Y25595D01*
X10139D01*
Y25674D01*
D02*
G37*
G36*
X13290Y25697D02*
Y25572D01*
X13164D01*
X13165Y25577D01*
X13174Y25606D01*
X13188Y25632D01*
X13207Y25655D01*
X13230Y25674D01*
X13256Y25688D01*
X13285Y25697D01*
X13290Y25697D01*
D02*
G37*
G36*
X13098Y25649D02*
X13159D01*
X13151Y25629D01*
X13137Y25611D01*
X13118Y25597D01*
X13098Y25589D01*
Y25649D01*
D02*
G37*
G36*
X12861Y25446D02*
X12921D01*
Y25385D01*
X12902Y25394D01*
X12883Y25408D01*
X12869Y25426D01*
X12861Y25446D01*
D02*
G37*
G36*
X13340Y25522D02*
X13465D01*
X13465Y25517D01*
X13456Y25489D01*
X13442Y25462D01*
X13423Y25439D01*
X13400Y25420D01*
X13373Y25406D01*
X13344Y25397D01*
X13340Y25397D01*
Y25522D01*
D02*
G37*
G36*
X9216Y25441D02*
X9251D01*
Y25381D01*
X9216D01*
Y25441D01*
D02*
G37*
G36*
X12971Y25446D02*
X13032D01*
X13024Y25426D01*
X13010Y25408D01*
X12991Y25394D01*
X12971Y25385D01*
Y25446D01*
D02*
G37*
G36*
X9334Y25441D02*
Y25441D01*
X9336Y25441D01*
X9340Y25441D01*
X9343Y25441D01*
X9345Y25441D01*
X9345Y25441D01*
Y25441D01*
X9378D01*
Y25356D01*
Y25271D01*
X9343D01*
Y25271D01*
X9336Y25271D01*
X9334Y25271D01*
X9334Y25271D01*
Y25271D01*
X9301D01*
Y25356D01*
Y25441D01*
X9334D01*
X9334Y25441D01*
D02*
G37*
G36*
X12971Y25556D02*
X12991Y25548D01*
X13010Y25534D01*
X13024Y25516D01*
X13032Y25496D01*
X12971D01*
Y25556D01*
D02*
G37*
G36*
X13164Y25522D02*
X13290D01*
Y25397D01*
X13285Y25397D01*
X13256Y25406D01*
X13230Y25420D01*
X13207Y25439D01*
X13188Y25462D01*
X13174Y25489D01*
X13165Y25517D01*
X13164Y25522D01*
D02*
G37*
G36*
X9461Y25441D02*
Y25441D01*
X9463Y25441D01*
X9467D01*
X9470D01*
X9472Y25441D01*
X9472Y25441D01*
Y25441D01*
X9505D01*
Y25356D01*
Y25271D01*
X9470D01*
Y25271D01*
X9463D01*
X9461Y25271D01*
X9461Y25271D01*
Y25271D01*
X9428D01*
Y25356D01*
Y25441D01*
X9461D01*
X9461Y25441D01*
D02*
G37*
G36*
X6482Y25770D02*
X6562D01*
Y25724D01*
X6482D01*
Y25770D01*
D02*
G37*
G36*
X6352D02*
X6432D01*
Y25724D01*
X6352D01*
Y25770D01*
D02*
G37*
G36*
X10139Y25805D02*
X10184D01*
Y25724D01*
X10139D01*
Y25805D01*
D02*
G37*
G36*
X10044D02*
X10089D01*
Y25724D01*
X10044D01*
Y25805D01*
D02*
G37*
G36*
X9530Y26217D02*
X9532Y26216D01*
X9558Y26206D01*
X9580Y26189D01*
X9596Y26167D01*
X9607Y26141D01*
X9607Y26139D01*
X9530D01*
Y26217D01*
D02*
G37*
G36*
X9480D02*
Y26139D01*
X9402D01*
X9402Y26141D01*
X9413Y26167D01*
X9430Y26189D01*
X9452Y26206D01*
X9477Y26216D01*
X9480Y26217D01*
D02*
G37*
G36*
X9530Y26089D02*
X9607D01*
X9607Y26086D01*
X9596Y26061D01*
X9580Y26039D01*
X9558Y26022D01*
X9532Y26012D01*
X9530Y26011D01*
Y26089D01*
D02*
G37*
G36*
X9402D02*
X9480D01*
Y26011D01*
X9477Y26012D01*
X9452Y26022D01*
X9430Y26039D01*
X9413Y26061D01*
X9402Y26086D01*
X9402Y26089D01*
D02*
G37*
G36*
X6352Y25674D02*
X6432D01*
Y25630D01*
X6352D01*
Y25674D01*
D02*
G37*
G36*
X5466D02*
X5546D01*
Y25630D01*
X5466D01*
Y25674D01*
D02*
G37*
G36*
X10044D02*
X10089D01*
Y25595D01*
X10044D01*
Y25674D01*
D02*
G37*
G36*
X6482D02*
X6562D01*
Y25630D01*
X6482D01*
Y25674D01*
D02*
G37*
G36*
X13098Y25760D02*
X13118Y25751D01*
X13137Y25737D01*
X13151Y25719D01*
X13159Y25699D01*
X13098D01*
Y25760D01*
D02*
G37*
G36*
X13048D02*
Y25699D01*
X12988D01*
X12996Y25719D01*
X13010Y25737D01*
X13029Y25751D01*
X13048Y25760D01*
D02*
G37*
G36*
X12730Y25681D02*
X12795D01*
Y25636D01*
X12730D01*
Y25681D01*
D02*
G37*
G36*
X12615D02*
X12680D01*
Y25636D01*
X12615D01*
Y25681D01*
D02*
G37*
G36*
X5923Y24760D02*
X6071D01*
X6070Y24751D01*
X6060Y24718D01*
X6044Y24687D01*
X6022Y24661D01*
X5996Y24639D01*
X5965Y24623D01*
X5932Y24613D01*
X5923Y24612D01*
Y24760D01*
D02*
G37*
G36*
X5725D02*
X5873D01*
Y24612D01*
X5864Y24613D01*
X5831Y24623D01*
X5800Y24639D01*
X5774Y24661D01*
X5752Y24687D01*
X5735Y24718D01*
X5725Y24751D01*
X5725Y24760D01*
D02*
G37*
G36*
X6463D02*
X6611D01*
X6610Y24751D01*
X6600Y24718D01*
X6584Y24687D01*
X6562Y24661D01*
X6536Y24639D01*
X6505Y24623D01*
X6472Y24613D01*
X6463Y24612D01*
Y24760D01*
D02*
G37*
G36*
X6265D02*
X6413D01*
Y24612D01*
X6404Y24613D01*
X6371Y24623D01*
X6340Y24639D01*
X6314Y24661D01*
X6292Y24687D01*
X6275Y24718D01*
X6265Y24751D01*
X6265Y24760D01*
D02*
G37*
G36*
X8463Y24958D02*
X8472Y24958D01*
X8505Y24948D01*
X8536Y24931D01*
X8562Y24909D01*
X8584Y24883D01*
X8600Y24852D01*
X8610Y24819D01*
X8611Y24810D01*
X8463D01*
Y24958D01*
D02*
G37*
G36*
X8413D02*
Y24810D01*
X8265D01*
X8265Y24819D01*
X8275Y24852D01*
X8292Y24883D01*
X8314Y24909D01*
X8340Y24931D01*
X8371Y24948D01*
X8404Y24958D01*
X8413Y24958D01*
D02*
G37*
G36*
X5463Y24760D02*
X5611D01*
X5610Y24751D01*
X5600Y24718D01*
X5584Y24687D01*
X5562Y24661D01*
X5536Y24639D01*
X5505Y24623D01*
X5472Y24613D01*
X5463Y24612D01*
Y24760D01*
D02*
G37*
G36*
X5265D02*
X5413D01*
Y24612D01*
X5404Y24613D01*
X5371Y24623D01*
X5340Y24639D01*
X5314Y24661D01*
X5292Y24687D01*
X5275Y24718D01*
X5265Y24751D01*
X5265Y24760D01*
D02*
G37*
G36*
X7955D02*
X8103D01*
X8102Y24751D01*
X8092Y24718D01*
X8076Y24687D01*
X8054Y24661D01*
X8028Y24639D01*
X7997Y24623D01*
X7964Y24613D01*
X7955Y24612D01*
Y24760D01*
D02*
G37*
G36*
X7757D02*
X7905D01*
Y24612D01*
X7896Y24613D01*
X7863Y24623D01*
X7832Y24639D01*
X7806Y24661D01*
X7784Y24687D01*
X7767Y24718D01*
X7757Y24751D01*
X7757Y24760D01*
D02*
G37*
G36*
X8463D02*
X8611D01*
X8610Y24751D01*
X8600Y24718D01*
X8584Y24687D01*
X8562Y24661D01*
X8536Y24639D01*
X8505Y24623D01*
X8472Y24613D01*
X8463Y24612D01*
Y24760D01*
D02*
G37*
G36*
X8265D02*
X8413D01*
Y24612D01*
X8404Y24613D01*
X8371Y24623D01*
X8340Y24639D01*
X8314Y24661D01*
X8292Y24687D01*
X8275Y24718D01*
X8265Y24751D01*
X8265Y24760D01*
D02*
G37*
G36*
X6963D02*
X7111D01*
X7110Y24751D01*
X7100Y24718D01*
X7084Y24687D01*
X7062Y24661D01*
X7036Y24639D01*
X7005Y24623D01*
X6972Y24613D01*
X6963Y24612D01*
Y24760D01*
D02*
G37*
G36*
X6765D02*
X6913D01*
Y24612D01*
X6904Y24613D01*
X6871Y24623D01*
X6840Y24639D01*
X6814Y24661D01*
X6792Y24687D01*
X6775Y24718D01*
X6765Y24751D01*
X6765Y24760D01*
D02*
G37*
G36*
X7447D02*
X7595D01*
X7594Y24751D01*
X7584Y24718D01*
X7568Y24687D01*
X7546Y24661D01*
X7520Y24639D01*
X7489Y24623D01*
X7456Y24613D01*
X7447Y24612D01*
Y24760D01*
D02*
G37*
G36*
X7249D02*
X7397D01*
Y24612D01*
X7388Y24613D01*
X7355Y24623D01*
X7324Y24639D01*
X7298Y24661D01*
X7276Y24687D01*
X7259Y24718D01*
X7249Y24751D01*
X7249Y24760D01*
D02*
G37*
G36*
X5463Y24958D02*
X5472Y24958D01*
X5505Y24948D01*
X5536Y24931D01*
X5562Y24909D01*
X5584Y24883D01*
X5600Y24852D01*
X5610Y24819D01*
X5611Y24810D01*
X5463D01*
Y24958D01*
D02*
G37*
G36*
X5413D02*
Y24810D01*
X5265D01*
X5265Y24819D01*
X5275Y24852D01*
X5292Y24883D01*
X5314Y24909D01*
X5340Y24931D01*
X5371Y24948D01*
X5404Y24958D01*
X5413Y24958D01*
D02*
G37*
G36*
X5923D02*
X5932Y24958D01*
X5965Y24948D01*
X5996Y24931D01*
X6022Y24909D01*
X6044Y24883D01*
X6060Y24852D01*
X6070Y24819D01*
X6071Y24810D01*
X5923D01*
Y24958D01*
D02*
G37*
G36*
X5873D02*
Y24810D01*
X5725D01*
X5725Y24819D01*
X5735Y24852D01*
X5752Y24883D01*
X5774Y24909D01*
X5800Y24931D01*
X5831Y24948D01*
X5864Y24958D01*
X5873Y24958D01*
D02*
G37*
G36*
X9216Y25331D02*
X9251D01*
Y25271D01*
X9216D01*
Y25331D01*
D02*
G37*
G36*
X9682Y25441D02*
X9717D01*
Y25381D01*
X9682D01*
Y25441D01*
D02*
G37*
G36*
X9599Y25441D02*
Y25441D01*
X9632D01*
Y25356D01*
Y25271D01*
X9597D01*
X9597Y25271D01*
Y25271D01*
X9597D01*
X9590Y25271D01*
X9588Y25271D01*
X9588Y25271D01*
Y25271D01*
X9555D01*
Y25356D01*
Y25441D01*
X9588D01*
X9588Y25441D01*
Y25441D01*
X9590Y25441D01*
X9594Y25441D01*
X9597Y25441D01*
X9599Y25441D01*
X9599Y25441D01*
D02*
G37*
G36*
X9682Y25331D02*
X9717D01*
Y25271D01*
X9682D01*
Y25331D01*
D02*
G37*
G36*
X7447Y24958D02*
X7456Y24958D01*
X7489Y24948D01*
X7520Y24931D01*
X7546Y24909D01*
X7568Y24883D01*
X7584Y24852D01*
X7594Y24819D01*
X7595Y24810D01*
X7447D01*
Y24958D01*
D02*
G37*
G36*
X7397D02*
Y24810D01*
X7249D01*
X7249Y24819D01*
X7259Y24852D01*
X7276Y24883D01*
X7298Y24909D01*
X7324Y24931D01*
X7355Y24948D01*
X7388Y24958D01*
X7397Y24958D01*
D02*
G37*
G36*
X7955D02*
X7964Y24958D01*
X7997Y24948D01*
X8028Y24931D01*
X8054Y24909D01*
X8076Y24883D01*
X8092Y24852D01*
X8102Y24819D01*
X8103Y24810D01*
X7955D01*
Y24958D01*
D02*
G37*
G36*
X7905D02*
Y24810D01*
X7757D01*
X7757Y24819D01*
X7767Y24852D01*
X7784Y24883D01*
X7806Y24909D01*
X7832Y24931D01*
X7863Y24948D01*
X7896Y24958D01*
X7905Y24958D01*
D02*
G37*
G36*
X6463D02*
X6472Y24958D01*
X6505Y24948D01*
X6536Y24931D01*
X6562Y24909D01*
X6584Y24883D01*
X6600Y24852D01*
X6610Y24819D01*
X6611Y24810D01*
X6463D01*
Y24958D01*
D02*
G37*
G36*
X6413D02*
Y24810D01*
X6265D01*
X6265Y24819D01*
X6275Y24852D01*
X6292Y24883D01*
X6314Y24909D01*
X6340Y24931D01*
X6371Y24948D01*
X6404Y24958D01*
X6413Y24958D01*
D02*
G37*
G36*
X6963D02*
X6972Y24958D01*
X7005Y24948D01*
X7036Y24931D01*
X7062Y24909D01*
X7084Y24883D01*
X7100Y24852D01*
X7110Y24819D01*
X7111Y24810D01*
X6963D01*
Y24958D01*
D02*
G37*
G36*
X6913D02*
Y24810D01*
X6765D01*
X6765Y24819D01*
X6775Y24852D01*
X6792Y24883D01*
X6814Y24909D01*
X6840Y24931D01*
X6871Y24948D01*
X6904Y24958D01*
X6913Y24958D01*
D02*
G37*
%LPD*%
D10*
X13823Y10705D02*
X3823D01*
Y2705D02*
Y10705D01*
X13823Y2705D02*
X3823D01*
X13823D02*
Y10705D01*
Y19205D02*
X3823D01*
Y11205D02*
Y19205D01*
X13823Y11205D02*
X3823D01*
X13823D02*
Y19205D01*
Y27705D02*
X3823D01*
Y19705D02*
Y27705D01*
X13823Y19705D02*
X3823D01*
X13823D02*
Y27705D01*
X11994Y7277D02*
Y7341D01*
X12667Y7671D02*
X12324Y8014D01*
X12667Y5575D02*
Y7671D01*
X13251Y4991D02*
X12667Y5575D01*
X13315Y4991D02*
X13251D01*
X4129Y7175D02*
X4108D01*
X4209D02*
X4129D01*
X4285Y7252D02*
X4209Y7175D01*
X4285Y7252D02*
Y7366D01*
X4577Y7658D02*
X4285Y7366D01*
X4577Y7658D02*
Y7683D01*
X10622Y7887D02*
Y7995D01*
X10800Y7709D02*
X10622Y7887D01*
X10940Y7709D02*
X10800D01*
X10089Y9296D02*
X10051D01*
X12591Y8611D02*
X12397D01*
X13315Y8547D02*
X13251Y8611D01*
X10521Y8344D02*
X10381D01*
X4108Y7557D02*
Y7583D01*
Y7429D02*
Y7557D01*
X10978Y8357D02*
X10736D01*
X11150Y8855D02*
X10896D01*
X11245Y8950D02*
X11150Y8855D01*
X10894Y8858D02*
X10869D01*
X10896Y8855D02*
X10894Y8858D01*
X10978Y8547D02*
X10851D01*
X10825Y8572D01*
Y8814D01*
X10869Y8858D02*
X10825Y8814D01*
X4108Y7302D02*
X4006D01*
X3955Y7252D01*
Y4686D02*
Y7252D01*
X4412Y4229D02*
X3955Y4686D01*
X8019Y4229D02*
X4412D01*
X9187Y3061D02*
X8019Y4229D01*
X9886Y3061D02*
X9187D01*
X10787Y3962D02*
X9886Y3061D01*
X13353Y3962D02*
X10787D01*
X9657Y7836D02*
X9543D01*
X9467Y5194D02*
X9429D01*
X9556Y5690D02*
X9429D01*
X11435Y8950D02*
Y9194D01*
X11638Y8954D02*
X11438D01*
X5492Y7785D02*
X5438D01*
X9429Y5690D02*
X9301D01*
X9429Y5194D02*
X9301D01*
X9683Y6210D02*
X9682Y6210D01*
Y6172D02*
Y6210D01*
X12108Y8052D02*
Y8725D01*
Y8052D02*
X11994Y7938D01*
X12108Y8725D02*
X11943D01*
X12261D02*
X12108D01*
X11897Y7815D02*
X11618D01*
X11994Y7912D02*
X11897Y7815D01*
X11994Y7912D02*
Y7938D01*
X11270Y8750D02*
X10978D01*
X11308Y8789D02*
X11270Y8750D01*
X11931Y8789D02*
X11308D01*
X11943Y8801D02*
X11931Y8789D01*
X11943Y8801D02*
Y8878D01*
Y8725D02*
Y8801D01*
X12769Y4229D02*
X12261D01*
X11194Y5296D01*
X11651Y6210D02*
X11537D01*
X11740Y6299D02*
X11651Y6210D01*
X12172Y6299D02*
X11740D01*
X12261Y6210D02*
X12172Y6299D01*
X12261Y5537D02*
Y6210D01*
X13315Y4483D02*
X12261Y5537D01*
X12400Y5651D02*
Y6464D01*
X13315Y4737D02*
X12400Y5651D01*
X13088Y5958D02*
Y6515D01*
X12197Y8357D02*
Y8601D01*
X12387Y8357D02*
Y8601D01*
Y8851D02*
X12261Y8725D01*
X12197Y8851D02*
Y9106D01*
X4222Y7697D02*
X4108Y7583D01*
X11994Y8128D02*
X11828D01*
X11618Y7612D02*
X11588Y7582D01*
X11618Y7612D02*
Y7815D01*
X11397Y6210D02*
X11321Y6134D01*
X11537Y6210D02*
X11397D01*
X11333Y6337D02*
X11321Y6350D01*
X11537Y6337D02*
X11333D01*
X11815Y8140D02*
X11618D01*
Y8205D02*
Y8402D01*
X11359Y6845D02*
X11359Y6845D01*
X11537Y6845D02*
X11359D01*
X10858Y8211D02*
X10845Y8198D01*
X12959Y4229D02*
X12959Y4229D01*
X13315Y4229D02*
X12959D01*
X10978Y8331D02*
Y8357D01*
X11435Y8700D02*
X11410Y8675D01*
Y8039D02*
Y8675D01*
Y8039D02*
X11186Y7815D01*
X11023D01*
X10711Y8332D02*
Y8344D01*
X10826Y7900D02*
X10775D01*
X10936Y8010D02*
X10826Y7900D01*
X11023Y8010D02*
X10936D01*
X10940Y7582D02*
Y7760D01*
X10995Y7815D02*
X10940Y7760D01*
X11023Y7815D02*
X10995D01*
X10622Y7995D02*
Y8090D01*
Y7995D02*
X10475D01*
X10775D02*
X10622D01*
Y8090D02*
X10475D01*
X10775D02*
X10622D01*
X11023Y7880D02*
Y7945D01*
X11892Y6921D02*
Y7150D01*
X11994Y7252D02*
X11892Y7150D01*
X11994Y7252D02*
Y7277D01*
X12248Y7379D02*
X12183D01*
X12248Y6921D02*
Y7189D01*
X12400Y6464D02*
Y6732D01*
X11892Y6732D02*
X11550D01*
X11987Y6826D02*
X11892Y6732D01*
X12100Y6826D02*
X11987D01*
X12400D02*
X12100D01*
X12248Y6839D02*
Y6921D01*
X12100D01*
X12400D02*
X12248D01*
X11753Y5956D02*
X11537D01*
X11855Y5855D02*
X11753Y5956D01*
X11778Y6083D02*
X11537D01*
X11855Y6160D02*
X11778Y6083D01*
X11537Y5448D02*
Y5829D01*
X11664Y5448D02*
X10978D01*
X11537Y6972D02*
Y7277D01*
X10978D01*
X11664D02*
X11537D01*
X10587Y6845D02*
X10521D01*
X10587Y6972D02*
X10571D01*
X10216Y6959D02*
X10152D01*
X11994Y15777D02*
Y15841D01*
X12667Y16171D02*
X12324Y16514D01*
X12667Y14075D02*
Y16171D01*
X13251Y13491D02*
X12667Y14075D01*
X13315Y13491D02*
X13251D01*
X4129Y15676D02*
X4108D01*
X4209D02*
X4129D01*
X4285Y15752D02*
X4209Y15676D01*
X4285Y15752D02*
Y15866D01*
X4577Y16158D02*
X4285Y15866D01*
X4577Y16158D02*
Y16184D01*
X10622Y16387D02*
Y16495D01*
X10800Y16209D02*
X10622Y16387D01*
X10940Y16209D02*
X10800D01*
X10089Y17796D02*
X10051D01*
X12591Y17111D02*
X12397D01*
X13315Y17047D02*
X13251Y17111D01*
X10521Y16844D02*
X10381D01*
X4108Y16057D02*
Y16083D01*
Y15929D02*
Y16057D01*
X10978Y16857D02*
X10736D01*
X11150Y17355D02*
X10896D01*
X11245Y17450D02*
X11150Y17355D01*
X10894Y17358D02*
X10869D01*
X10896Y17355D02*
X10894Y17358D01*
X10978Y17047D02*
X10851D01*
X10825Y17073D01*
Y17314D01*
X10869Y17358D02*
X10825Y17314D01*
X4108Y15802D02*
X4006D01*
X3955Y15752D01*
Y13186D02*
Y15752D01*
X4412Y12729D02*
X3955Y13186D01*
X8019Y12729D02*
X4412D01*
X9187Y11561D02*
X8019Y12729D01*
X9886Y11561D02*
X9187D01*
X10787Y12462D02*
X9886Y11561D01*
X13353Y12462D02*
X10787D01*
X9657Y16336D02*
X9543D01*
X9467Y13694D02*
X9429D01*
X9556Y14190D02*
X9429D01*
X11435Y17450D02*
Y17694D01*
X11638Y17454D02*
X11438D01*
X5492Y16285D02*
X5438D01*
X9429Y14190D02*
X9301D01*
X9429Y13694D02*
X9301D01*
X9683Y14710D02*
X9682Y14710D01*
Y14672D02*
Y14710D01*
X12108Y16552D02*
Y17225D01*
Y16552D02*
X11994Y16438D01*
X12108Y17225D02*
X11943D01*
X12261D02*
X12108D01*
X11897Y16315D02*
X11618D01*
X11994Y16412D02*
X11897Y16315D01*
X11994Y16412D02*
Y16438D01*
X11270Y17250D02*
X10978D01*
X11308Y17289D02*
X11270Y17250D01*
X11931Y17289D02*
X11308D01*
X11943Y17301D02*
X11931Y17289D01*
X11943Y17301D02*
Y17378D01*
Y17225D02*
Y17301D01*
X12769Y12729D02*
X12261D01*
X11194Y13796D01*
X11651Y14710D02*
X11537D01*
X11740Y14799D02*
X11651Y14710D01*
X12172Y14799D02*
X11740D01*
X12261Y14710D02*
X12172Y14799D01*
X12261Y14037D02*
Y14710D01*
X13315Y12983D02*
X12261Y14037D01*
X12400Y14151D02*
Y14964D01*
X13315Y13237D02*
X12400Y14151D01*
X13088Y14458D02*
Y15015D01*
X12197Y16857D02*
Y17101D01*
X12387Y16857D02*
Y17101D01*
Y17351D02*
X12261Y17225D01*
X12197Y17351D02*
Y17606D01*
X4222Y16197D02*
X4108Y16083D01*
X11994Y16627D02*
X11828D01*
X11618Y16112D02*
X11588Y16082D01*
X11618Y16112D02*
Y16315D01*
X11397Y14710D02*
X11321Y14634D01*
X11537Y14710D02*
X11397D01*
X11333Y14837D02*
X11321Y14850D01*
X11537Y14837D02*
X11333D01*
X11815Y16640D02*
X11618D01*
Y16705D02*
Y16902D01*
X11359Y15345D02*
X11359Y15345D01*
X11537Y15345D02*
X11359D01*
X10858Y16711D02*
X10845Y16698D01*
X12959Y12729D02*
X12959Y12729D01*
X13315Y12729D02*
X12959D01*
X10978Y16831D02*
Y16857D01*
X11435Y17200D02*
X11410Y17175D01*
Y16539D02*
Y17175D01*
Y16539D02*
X11186Y16315D01*
X11023D01*
X10711Y16832D02*
Y16844D01*
X10826Y16400D02*
X10775D01*
X10936Y16510D02*
X10826Y16400D01*
X11023Y16510D02*
X10936D01*
X10940Y16082D02*
Y16260D01*
X10995Y16315D02*
X10940Y16260D01*
X11023Y16315D02*
X10995D01*
X10622Y16495D02*
Y16590D01*
Y16495D02*
X10475D01*
X10775D02*
X10622D01*
Y16590D02*
X10475D01*
X10775D02*
X10622D01*
X11023Y16380D02*
Y16445D01*
X11892Y15421D02*
Y15650D01*
X11994Y15752D02*
X11892Y15650D01*
X11994Y15752D02*
Y15777D01*
X12248Y15879D02*
X12183D01*
X12248Y15421D02*
Y15689D01*
X12400Y14964D02*
Y15232D01*
X11892Y15232D02*
X11550D01*
X11987Y15326D02*
X11892Y15232D01*
X12100Y15326D02*
X11987D01*
X12400D02*
X12100D01*
X12248Y15339D02*
Y15421D01*
X12100D01*
X12400D02*
X12248D01*
X11753Y14456D02*
X11537D01*
X11855Y14355D02*
X11753Y14456D01*
X11778Y14583D02*
X11537D01*
X11855Y14660D02*
X11778Y14583D01*
X11537Y13948D02*
Y14329D01*
X11664Y13948D02*
X10978D01*
X11537Y15472D02*
Y15777D01*
X10978D01*
X11664D02*
X11537D01*
X10587Y15345D02*
X10521D01*
X10587Y15472D02*
X10571D01*
X10216Y15459D02*
X10152D01*
X11994Y24277D02*
Y24341D01*
X12667Y24671D02*
X12324Y25014D01*
X12667Y22575D02*
Y24671D01*
X13251Y21991D02*
X12667Y22575D01*
X13315Y21991D02*
X13251D01*
X4129Y24176D02*
X4108D01*
X4209D02*
X4129D01*
X4285Y24252D02*
X4209Y24176D01*
X4285Y24252D02*
Y24366D01*
X4577Y24658D02*
X4285Y24366D01*
X4577Y24658D02*
Y24684D01*
X10622Y24887D02*
Y24995D01*
X10800Y24709D02*
X10622Y24887D01*
X10940Y24709D02*
X10800D01*
X10089Y26296D02*
X10051D01*
X12591Y25611D02*
X12397D01*
X13315Y25547D02*
X13251Y25611D01*
X10521Y25344D02*
X10381D01*
X4108Y24557D02*
Y24583D01*
Y24429D02*
Y24557D01*
X10978Y25357D02*
X10736D01*
X11150Y25855D02*
X10896D01*
X11245Y25950D02*
X11150Y25855D01*
X10894Y25858D02*
X10869D01*
X10896Y25855D02*
X10894Y25858D01*
X10978Y25547D02*
X10851D01*
X10825Y25573D01*
Y25814D01*
X10869Y25858D02*
X10825Y25814D01*
X4108Y24302D02*
X4006D01*
X3955Y24252D01*
Y21686D02*
Y24252D01*
X4412Y21229D02*
X3955Y21686D01*
X8019Y21229D02*
X4412D01*
X9187Y20061D02*
X8019Y21229D01*
X9886Y20061D02*
X9187D01*
X10787Y20962D02*
X9886Y20061D01*
X13353Y20962D02*
X10787D01*
X9657Y24836D02*
X9543D01*
X9467Y22194D02*
X9429D01*
X9556Y22690D02*
X9429D01*
X11435Y25950D02*
Y26194D01*
X11638Y25954D02*
X11438D01*
X5492Y24785D02*
X5438D01*
X9429Y22690D02*
X9301D01*
X9429Y22194D02*
X9301D01*
X9683Y23210D02*
X9682Y23210D01*
Y23172D02*
Y23210D01*
X12108Y25052D02*
Y25725D01*
Y25052D02*
X11994Y24938D01*
X12108Y25725D02*
X11943D01*
X12261D02*
X12108D01*
X11897Y24815D02*
X11618D01*
X11994Y24912D02*
X11897Y24815D01*
X11994Y24912D02*
Y24938D01*
X11270Y25750D02*
X10978D01*
X11308Y25789D02*
X11270Y25750D01*
X11931Y25789D02*
X11308D01*
X11943Y25801D02*
X11931Y25789D01*
X11943Y25801D02*
Y25878D01*
Y25725D02*
Y25801D01*
X12769Y21229D02*
X12261D01*
X11194Y22296D01*
X11651Y23210D02*
X11537D01*
X11740Y23299D02*
X11651Y23210D01*
X12172Y23299D02*
X11740D01*
X12261Y23210D02*
X12172Y23299D01*
X12261Y22537D02*
Y23210D01*
X13315Y21483D02*
X12261Y22537D01*
X12400Y22651D02*
Y23464D01*
X13315Y21737D02*
X12400Y22651D01*
X13088Y22958D02*
Y23515D01*
X12197Y25357D02*
Y25601D01*
X12387Y25357D02*
Y25601D01*
Y25851D02*
X12261Y25725D01*
X12197Y25851D02*
Y26106D01*
X4222Y24697D02*
X4108Y24583D01*
X11994Y25127D02*
X11828D01*
X11618Y24612D02*
X11588Y24582D01*
X11618Y24612D02*
Y24815D01*
X11397Y23210D02*
X11321Y23134D01*
X11537Y23210D02*
X11397D01*
X11333Y23337D02*
X11321Y23350D01*
X11537Y23337D02*
X11333D01*
X11815Y25140D02*
X11618D01*
Y25205D02*
Y25402D01*
X11359Y23845D02*
X11359Y23845D01*
X11537Y23845D02*
X11359D01*
X10858Y25211D02*
X10845Y25198D01*
X12959Y21229D02*
X12959Y21229D01*
X13315Y21229D02*
X12959D01*
X10978Y25331D02*
Y25357D01*
X11435Y25700D02*
X11410Y25675D01*
Y25039D02*
Y25675D01*
Y25039D02*
X11186Y24815D01*
X11023D01*
X10711Y25332D02*
Y25344D01*
X10826Y24900D02*
X10775D01*
X10936Y25010D02*
X10826Y24900D01*
X11023Y25010D02*
X10936D01*
X10940Y24582D02*
Y24760D01*
X10995Y24815D02*
X10940Y24760D01*
X11023Y24815D02*
X10995D01*
X10622Y24995D02*
Y25090D01*
Y24995D02*
X10475D01*
X10775D02*
X10622D01*
Y25090D02*
X10475D01*
X10775D02*
X10622D01*
X11023Y24880D02*
Y24945D01*
X11892Y23921D02*
Y24150D01*
X11994Y24252D02*
X11892Y24150D01*
X11994Y24252D02*
Y24277D01*
X12248Y24379D02*
X12183D01*
X12248Y23921D02*
Y24189D01*
X12400Y23464D02*
Y23732D01*
X11892Y23732D02*
X11550D01*
X11987Y23826D02*
X11892Y23732D01*
X12100Y23826D02*
X11987D01*
X12400D02*
X12100D01*
X12248Y23839D02*
Y23921D01*
X12100D01*
X12400D02*
X12248D01*
X11753Y22956D02*
X11537D01*
X11855Y22855D02*
X11753Y22956D01*
X11778Y23083D02*
X11537D01*
X11855Y23160D02*
X11778Y23083D01*
X11537Y22448D02*
Y22829D01*
X11664Y22448D02*
X10978D01*
X11537Y23972D02*
Y24277D01*
X10978D01*
X11664D02*
X11537D01*
X10587Y23845D02*
X10521D01*
X10587Y23972D02*
X10571D01*
X10216Y23959D02*
X10152D01*
D11*
X11232Y8446D02*
D03*
X11422D02*
D03*
X11232Y9207D02*
D03*
X11422D02*
D03*
X12400Y8344D02*
D03*
X12210D02*
D03*
X10521Y8344D02*
D03*
X10711D02*
D03*
X12045Y6160D02*
D03*
X11855D02*
D03*
X12045Y5855D02*
D03*
X11855D02*
D03*
X12959Y4229D02*
D03*
X12769D02*
D03*
X12400Y6464D02*
D03*
X12210D02*
D03*
X11232Y16946D02*
D03*
X11422D02*
D03*
X11232Y17707D02*
D03*
X11422D02*
D03*
X12400Y16844D02*
D03*
X12210D02*
D03*
X10521Y16844D02*
D03*
X10711D02*
D03*
X12045Y14660D02*
D03*
X11855D02*
D03*
X12045Y14355D02*
D03*
X11855D02*
D03*
X12959Y12729D02*
D03*
X12769D02*
D03*
X12400Y14964D02*
D03*
X12210D02*
D03*
X11232Y25446D02*
D03*
X11422D02*
D03*
X11232Y26208D02*
D03*
X11422D02*
D03*
X12400Y25344D02*
D03*
X12210D02*
D03*
X10521Y25344D02*
D03*
X10711D02*
D03*
X12045Y23160D02*
D03*
X11855D02*
D03*
X12045Y22855D02*
D03*
X11855D02*
D03*
X12959Y21229D02*
D03*
X12769D02*
D03*
X12400Y23464D02*
D03*
X12210D02*
D03*
D12*
X10978Y8750D02*
D03*
Y8940D02*
D03*
X4577Y7683D02*
D03*
Y7874D02*
D03*
X4222Y7887D02*
D03*
Y7697D02*
D03*
X12705Y8611D02*
D03*
Y8801D02*
D03*
X10978Y17250D02*
D03*
Y17440D02*
D03*
X4577Y16184D02*
D03*
Y16374D02*
D03*
X4222Y16387D02*
D03*
Y16197D02*
D03*
X12705Y17111D02*
D03*
Y17301D02*
D03*
X10978Y25750D02*
D03*
Y25940D02*
D03*
X4577Y24684D02*
D03*
Y24874D02*
D03*
X4222Y24887D02*
D03*
Y24697D02*
D03*
X12705Y25611D02*
D03*
Y25801D02*
D03*
D13*
X13085Y5956D02*
D03*
X13365D02*
D03*
X13085Y14456D02*
D03*
X13365D02*
D03*
X13085Y22956D02*
D03*
X13365D02*
D03*
D14*
X10424Y4483D02*
D03*
X10114D02*
D03*
X10424Y8700D02*
D03*
X10114D02*
D03*
X10424Y12983D02*
D03*
X10114D02*
D03*
X10424Y17199D02*
D03*
X10114D02*
D03*
X10424Y21483D02*
D03*
X10114D02*
D03*
X10424Y25699D02*
D03*
X10114D02*
D03*
D15*
X11340Y8950D02*
D03*
X11435Y8700D02*
D03*
X11245D02*
D03*
X11435Y8950D02*
D03*
X11245D02*
D03*
X12292Y8601D02*
D03*
X12197Y8851D02*
D03*
X12387D02*
D03*
X12197Y8601D02*
D03*
X12387D02*
D03*
X11340Y17450D02*
D03*
X11435Y17200D02*
D03*
X11245D02*
D03*
X11435Y17450D02*
D03*
X11245D02*
D03*
X12292Y17101D02*
D03*
X12197Y17351D02*
D03*
X12387D02*
D03*
X12197Y17101D02*
D03*
X12387D02*
D03*
X11340Y25950D02*
D03*
X11435Y25700D02*
D03*
X11245D02*
D03*
X11435Y25950D02*
D03*
X11245D02*
D03*
X12292Y25601D02*
D03*
X12197Y25851D02*
D03*
X12387D02*
D03*
X12197Y25601D02*
D03*
X12387D02*
D03*
D16*
X10978Y8547D02*
D03*
Y8357D02*
D03*
X11892Y6921D02*
D03*
Y6732D02*
D03*
X10216Y7633D02*
D03*
Y7823D02*
D03*
X10216Y6769D02*
D03*
Y6959D02*
D03*
X11994Y7938D02*
D03*
Y8128D02*
D03*
X10165Y5956D02*
D03*
Y5766D02*
D03*
X12248Y7379D02*
D03*
Y7189D02*
D03*
X10165Y5194D02*
D03*
Y5004D02*
D03*
X10978Y17047D02*
D03*
Y16857D02*
D03*
X11892Y15421D02*
D03*
Y15232D02*
D03*
X10216Y16133D02*
D03*
Y16323D02*
D03*
X10216Y15269D02*
D03*
Y15459D02*
D03*
X11994Y16438D02*
D03*
Y16627D02*
D03*
X10165Y14456D02*
D03*
Y14266D02*
D03*
X12248Y15879D02*
D03*
Y15689D02*
D03*
X10165Y13694D02*
D03*
Y13504D02*
D03*
X10978Y25547D02*
D03*
Y25357D02*
D03*
X11892Y23921D02*
D03*
Y23732D02*
D03*
X10216Y24633D02*
D03*
Y24823D02*
D03*
X10216Y23769D02*
D03*
Y23959D02*
D03*
X11994Y24938D02*
D03*
Y25127D02*
D03*
X10165Y22956D02*
D03*
Y22766D02*
D03*
X12248Y24379D02*
D03*
Y24189D02*
D03*
X10165Y22194D02*
D03*
Y22004D02*
D03*
D17*
X11588Y7582D02*
D03*
X11397D02*
D03*
X12197Y9106D02*
D03*
X12387D02*
D03*
X11130Y7582D02*
D03*
X10940D02*
D03*
X10064Y6414D02*
D03*
X10254D02*
D03*
X10978Y7277D02*
D03*
X10788D02*
D03*
X10978Y5448D02*
D03*
X10788D02*
D03*
X11588Y16082D02*
D03*
X11397D02*
D03*
X12197Y17606D02*
D03*
X12387D02*
D03*
X11130Y16082D02*
D03*
X10940D02*
D03*
X10064Y14913D02*
D03*
X10254D02*
D03*
X10978Y15777D02*
D03*
X10788D02*
D03*
X10978Y13948D02*
D03*
X10788D02*
D03*
X11588Y24582D02*
D03*
X11397D02*
D03*
X12197Y26106D02*
D03*
X12387D02*
D03*
X11130Y24582D02*
D03*
X10940D02*
D03*
X10064Y23413D02*
D03*
X10254D02*
D03*
X10978Y24277D02*
D03*
X10788D02*
D03*
X10978Y22448D02*
D03*
X10788D02*
D03*
D18*
X10475Y7900D02*
D03*
Y7995D02*
D03*
Y8090D02*
D03*
X10775Y7900D02*
D03*
Y7995D02*
D03*
Y8090D02*
D03*
X12100Y6732D02*
D03*
Y6826D02*
D03*
Y6921D02*
D03*
X12400Y6732D02*
D03*
Y6826D02*
D03*
Y6921D02*
D03*
X10475Y16400D02*
D03*
Y16495D02*
D03*
Y16590D02*
D03*
X10775Y16400D02*
D03*
Y16495D02*
D03*
Y16590D02*
D03*
X12100Y15232D02*
D03*
Y15326D02*
D03*
Y15421D02*
D03*
X12400Y15232D02*
D03*
Y15326D02*
D03*
Y15421D02*
D03*
X10475Y24900D02*
D03*
Y24995D02*
D03*
Y25090D02*
D03*
X10775Y24900D02*
D03*
Y24995D02*
D03*
Y25090D02*
D03*
X12100Y23732D02*
D03*
Y23826D02*
D03*
Y23921D02*
D03*
X12400Y23732D02*
D03*
Y23826D02*
D03*
Y23921D02*
D03*
D19*
X9403Y7836D02*
D03*
X9276Y7836D02*
D03*
X9657D02*
D03*
X9530Y7836D02*
D03*
X9657Y8356D02*
D03*
X9276D02*
D03*
X9403Y8356D02*
D03*
X9530D02*
D03*
X9403Y6820D02*
D03*
X9276Y6820D02*
D03*
X9657D02*
D03*
X9530Y6820D02*
D03*
X9657Y7340D02*
D03*
X9276D02*
D03*
X9403Y7340D02*
D03*
X9530D02*
D03*
X9556Y6210D02*
D03*
X9683Y6210D02*
D03*
X9301D02*
D03*
X9429Y6210D02*
D03*
X9301Y5690D02*
D03*
X9683D02*
D03*
X9556Y5690D02*
D03*
X9429D02*
D03*
X9556Y5194D02*
D03*
X9683Y5194D02*
D03*
X9301D02*
D03*
X9429Y5194D02*
D03*
X9301Y4674D02*
D03*
X9683D02*
D03*
X9556Y4674D02*
D03*
X9429D02*
D03*
X9403Y16336D02*
D03*
X9276Y16336D02*
D03*
X9657D02*
D03*
X9530Y16336D02*
D03*
X9657Y16856D02*
D03*
X9276D02*
D03*
X9403Y16856D02*
D03*
X9530D02*
D03*
X9403Y15320D02*
D03*
X9276Y15320D02*
D03*
X9657D02*
D03*
X9530Y15320D02*
D03*
X9657Y15840D02*
D03*
X9276D02*
D03*
X9403Y15840D02*
D03*
X9530D02*
D03*
X9556Y14710D02*
D03*
X9683Y14710D02*
D03*
X9301D02*
D03*
X9429Y14710D02*
D03*
X9301Y14190D02*
D03*
X9683D02*
D03*
X9556Y14190D02*
D03*
X9429D02*
D03*
X9556Y13694D02*
D03*
X9683Y13694D02*
D03*
X9301D02*
D03*
X9429Y13694D02*
D03*
X9301Y13174D02*
D03*
X9683D02*
D03*
X9556Y13174D02*
D03*
X9429D02*
D03*
X9403Y24836D02*
D03*
X9276Y24836D02*
D03*
X9657D02*
D03*
X9530Y24836D02*
D03*
X9657Y25356D02*
D03*
X9276D02*
D03*
X9403Y25356D02*
D03*
X9530D02*
D03*
X9403Y23820D02*
D03*
X9276Y23820D02*
D03*
X9657D02*
D03*
X9530Y23820D02*
D03*
X9657Y24340D02*
D03*
X9276D02*
D03*
X9403Y24340D02*
D03*
X9530D02*
D03*
X9556Y23210D02*
D03*
X9683Y23210D02*
D03*
X9301D02*
D03*
X9429Y23210D02*
D03*
X9301Y22690D02*
D03*
X9683D02*
D03*
X9556Y22690D02*
D03*
X9429D02*
D03*
X9556Y22194D02*
D03*
X9683Y22194D02*
D03*
X9301D02*
D03*
X9429Y22194D02*
D03*
X9301Y21674D02*
D03*
X9683D02*
D03*
X9556Y21674D02*
D03*
X9429D02*
D03*
D20*
X11664Y7277D02*
D03*
X11994Y7277D02*
D03*
X11664Y5448D02*
D03*
X11994Y5448D02*
D03*
X11664Y15777D02*
D03*
X11994Y15777D02*
D03*
X11664Y13948D02*
D03*
X11994Y13948D02*
D03*
X11664Y24277D02*
D03*
X11994Y24277D02*
D03*
X11664Y22448D02*
D03*
X11994Y22448D02*
D03*
D21*
X6457Y9010D02*
D03*
Y8700D02*
D03*
X5441Y9010D02*
D03*
Y8700D02*
D03*
X6457Y17510D02*
D03*
Y17199D02*
D03*
X5441Y17510D02*
D03*
Y17199D02*
D03*
X6457Y26010D02*
D03*
Y25699D02*
D03*
X5441Y26010D02*
D03*
Y25699D02*
D03*
D22*
X13317Y7125D02*
D03*
X13088D02*
D03*
X12857D02*
D03*
X13317Y15625D02*
D03*
X13088D02*
D03*
X12857D02*
D03*
X13317Y24125D02*
D03*
X13088D02*
D03*
X12857D02*
D03*
D23*
X13088Y6515D02*
D03*
Y15015D02*
D03*
Y23515D02*
D03*
D24*
X11537Y6972D02*
D03*
Y6845D02*
D03*
Y6718D02*
D03*
Y6591D02*
D03*
Y6464D02*
D03*
Y6337D02*
D03*
Y6210D02*
D03*
Y6083D02*
D03*
Y5956D02*
D03*
Y5829D02*
D03*
X10587Y6972D02*
D03*
X10587Y6845D02*
D03*
Y6718D02*
D03*
Y6591D02*
D03*
Y6464D02*
D03*
X10587Y6337D02*
D03*
X10587Y6210D02*
D03*
Y6083D02*
D03*
Y5956D02*
D03*
Y5829D02*
D03*
X11537Y15472D02*
D03*
Y15345D02*
D03*
Y15218D02*
D03*
Y15091D02*
D03*
Y14964D02*
D03*
Y14837D02*
D03*
Y14710D02*
D03*
Y14583D02*
D03*
Y14456D02*
D03*
Y14329D02*
D03*
X10587Y15472D02*
D03*
X10587Y15345D02*
D03*
Y15218D02*
D03*
Y15091D02*
D03*
Y14964D02*
D03*
X10587Y14837D02*
D03*
X10587Y14710D02*
D03*
Y14583D02*
D03*
Y14456D02*
D03*
Y14329D02*
D03*
X11537Y23972D02*
D03*
Y23845D02*
D03*
Y23718D02*
D03*
Y23591D02*
D03*
Y23464D02*
D03*
Y23337D02*
D03*
Y23210D02*
D03*
Y23083D02*
D03*
Y22956D02*
D03*
Y22829D02*
D03*
X10587Y23972D02*
D03*
X10587Y23845D02*
D03*
Y23718D02*
D03*
Y23591D02*
D03*
Y23464D02*
D03*
X10587Y23337D02*
D03*
X10587Y23210D02*
D03*
Y23083D02*
D03*
Y22956D02*
D03*
Y22829D02*
D03*
D25*
X11023Y7815D02*
D03*
Y7880D02*
D03*
Y7945D02*
D03*
Y8010D02*
D03*
Y8075D02*
D03*
Y8140D02*
D03*
Y8205D02*
D03*
X11618Y7815D02*
D03*
Y7880D02*
D03*
Y7945D02*
D03*
Y8010D02*
D03*
Y8075D02*
D03*
Y8140D02*
D03*
Y8205D02*
D03*
X11023Y16315D02*
D03*
Y16380D02*
D03*
Y16445D02*
D03*
Y16510D02*
D03*
Y16575D02*
D03*
Y16640D02*
D03*
Y16705D02*
D03*
X11618Y16315D02*
D03*
Y16380D02*
D03*
Y16445D02*
D03*
Y16510D02*
D03*
Y16575D02*
D03*
Y16640D02*
D03*
Y16705D02*
D03*
X11023Y24815D02*
D03*
Y24880D02*
D03*
Y24945D02*
D03*
Y25010D02*
D03*
Y25075D02*
D03*
Y25140D02*
D03*
Y25205D02*
D03*
X11618Y24815D02*
D03*
Y24880D02*
D03*
Y24945D02*
D03*
Y25010D02*
D03*
Y25075D02*
D03*
Y25140D02*
D03*
Y25205D02*
D03*
D26*
X11943Y8878D02*
D03*
Y8598D02*
D03*
Y17378D02*
D03*
Y17098D02*
D03*
Y25878D02*
D03*
Y25598D02*
D03*
D27*
X4108Y7302D02*
D03*
Y7175D02*
D03*
X4108Y7048D02*
D03*
Y7429D02*
D03*
X4628Y7302D02*
D03*
X4628Y7429D02*
D03*
Y7048D02*
D03*
X4628Y7175D02*
D03*
X4108Y15802D02*
D03*
Y15676D02*
D03*
X4108Y15548D02*
D03*
Y15929D02*
D03*
X4628Y15802D02*
D03*
X4628Y15929D02*
D03*
Y15548D02*
D03*
X4628Y15676D02*
D03*
X4108Y24302D02*
D03*
Y24176D02*
D03*
X4108Y24048D02*
D03*
Y24429D02*
D03*
X4628Y24302D02*
D03*
X4628Y24429D02*
D03*
Y24048D02*
D03*
X4628Y24176D02*
D03*
D28*
X10883Y6687D02*
X10648Y6452D01*
X10883Y6687D02*
Y7398D01*
X10902Y7417D02*
X10883Y7398D01*
X11918Y7417D02*
X10902D01*
X11994Y7341D02*
X11918Y7417D01*
X11130Y6706D02*
Y7137D01*
X11372Y6464D02*
X11130Y6706D01*
X11537Y6464D02*
X11372D01*
X13085Y5283D02*
Y5956D01*
X13124Y5245D02*
X13085Y5283D01*
X13315Y5245D02*
X13124D01*
X11042Y8230D02*
X11023Y8210D01*
X11245Y8230D02*
X11042D01*
X10775Y7582D02*
X10749D01*
X10475Y7857D01*
Y7900D01*
X10877Y7392D02*
X10774D01*
X10546Y7620D01*
X10368Y8052D02*
X10203Y8217D01*
X10368Y7798D02*
Y8052D01*
X10546Y7620D02*
X10368Y7798D01*
X9276Y6820D02*
Y6883D01*
X9453Y7061D02*
X9276Y6883D01*
X10114Y7061D02*
X9453D01*
X10216Y6959D02*
X10114Y7061D01*
X10318Y5626D02*
X9568D01*
X10406Y5715D02*
X10318Y5626D01*
X10406Y5715D02*
Y5893D01*
X10470Y5956D02*
X10406Y5893D01*
X10587Y5956D02*
X10470D01*
X9873Y5004D02*
X9683Y5194D01*
X10165Y5004D02*
X9873D01*
X10088Y5766D02*
X9682Y6172D01*
X10165Y5766D02*
X10088D01*
X9276Y7836D02*
Y7950D01*
X9378Y8052D02*
X9276Y7950D01*
X9924Y8052D02*
X9378D01*
X10153Y7823D02*
X9924Y8052D01*
X10216Y7823D02*
X10153D01*
X10013Y7353D02*
X9670D01*
X10699Y6845D02*
X10587D01*
X10788Y6935D02*
X10699Y6845D01*
X10788Y6935D02*
Y7277D01*
Y5448D02*
Y5918D01*
X10749Y5956D01*
X10587D01*
X10521Y6845D02*
X10013Y7353D01*
X10587Y6414D02*
X10254D01*
X10587D02*
Y6464D01*
Y6337D02*
Y6414D01*
X10216Y7328D02*
Y7633D01*
X10571Y6972D02*
X10216Y7328D01*
X10587Y5616D02*
X10165Y5194D01*
X10587Y5616D02*
Y5829D01*
X10292Y6083D02*
X10165Y5956D01*
X10587Y6083D02*
X10292D01*
X10267Y6718D02*
X10216Y6769D01*
X10587Y6718D02*
X10267D01*
X10883Y15187D02*
X10648Y14952D01*
X10883Y15187D02*
Y15898D01*
X10902Y15917D02*
X10883Y15898D01*
X11918Y15917D02*
X10902D01*
X11994Y15841D02*
X11918Y15917D01*
X11130Y15206D02*
Y15637D01*
X11372Y14964D02*
X11130Y15206D01*
X11537Y14964D02*
X11372D01*
X13085Y13783D02*
Y14456D01*
X13124Y13745D02*
X13085Y13783D01*
X13315Y13745D02*
X13124D01*
X11042Y16730D02*
X11023Y16710D01*
X11245Y16730D02*
X11042D01*
X10775Y16082D02*
X10749D01*
X10475Y16357D01*
Y16400D01*
X10877Y15892D02*
X10774D01*
X10546Y16120D01*
X10368Y16552D02*
X10203Y16717D01*
X10368Y16298D02*
Y16552D01*
X10546Y16120D02*
X10368Y16298D01*
X9276Y15320D02*
Y15383D01*
X9453Y15561D02*
X9276Y15383D01*
X10114Y15561D02*
X9453D01*
X10216Y15459D02*
X10114Y15561D01*
X10318Y14126D02*
X9568D01*
X10406Y14215D02*
X10318Y14126D01*
X10406Y14215D02*
Y14393D01*
X10470Y14456D02*
X10406Y14393D01*
X10587Y14456D02*
X10470D01*
X9873Y13504D02*
X9683Y13694D01*
X10165Y13504D02*
X9873D01*
X10088Y14266D02*
X9682Y14672D01*
X10165Y14266D02*
X10088D01*
X9276Y16336D02*
Y16450D01*
X9378Y16552D02*
X9276Y16450D01*
X9924Y16552D02*
X9378D01*
X10153Y16323D02*
X9924Y16552D01*
X10216Y16323D02*
X10153D01*
X10013Y15853D02*
X9670D01*
X10699Y15345D02*
X10587D01*
X10788Y15435D02*
X10699Y15345D01*
X10788Y15435D02*
Y15777D01*
Y13948D02*
Y14418D01*
X10749Y14456D01*
X10587D01*
X10521Y15345D02*
X10013Y15853D01*
X10587Y14913D02*
X10254D01*
X10587D02*
Y14964D01*
Y14837D02*
Y14913D01*
X10216Y15828D02*
Y16133D01*
X10571Y15472D02*
X10216Y15828D01*
X10587Y14116D02*
X10165Y13694D01*
X10587Y14116D02*
Y14329D01*
X10292Y14583D02*
X10165Y14456D01*
X10587Y14583D02*
X10292D01*
X10267Y15218D02*
X10216Y15269D01*
X10587Y15218D02*
X10267D01*
X10883Y23687D02*
X10648Y23452D01*
X10883Y23687D02*
Y24398D01*
X10902Y24417D02*
X10883Y24398D01*
X11918Y24417D02*
X10902D01*
X11994Y24341D02*
X11918Y24417D01*
X11130Y23706D02*
Y24137D01*
X11372Y23464D02*
X11130Y23706D01*
X11537Y23464D02*
X11372D01*
X13085Y22283D02*
Y22956D01*
X13124Y22245D02*
X13085Y22283D01*
X13315Y22245D02*
X13124D01*
X11042Y25230D02*
X11023Y25210D01*
X11245Y25230D02*
X11042D01*
X10775Y24582D02*
X10749D01*
X10475Y24857D01*
Y24900D01*
X10877Y24392D02*
X10774D01*
X10546Y24620D01*
X10368Y25052D02*
X10203Y25217D01*
X10368Y24798D02*
Y25052D01*
X10546Y24620D02*
X10368Y24798D01*
X9276Y23820D02*
Y23883D01*
X9453Y24061D02*
X9276Y23883D01*
X10114Y24061D02*
X9453D01*
X10216Y23959D02*
X10114Y24061D01*
X10318Y22626D02*
X9568D01*
X10406Y22715D02*
X10318Y22626D01*
X10406Y22715D02*
Y22893D01*
X10470Y22956D02*
X10406Y22893D01*
X10587Y22956D02*
X10470D01*
X9873Y22004D02*
X9683Y22194D01*
X10165Y22004D02*
X9873D01*
X10088Y22766D02*
X9682Y23172D01*
X10165Y22766D02*
X10088D01*
X9276Y24836D02*
Y24950D01*
X9378Y25052D02*
X9276Y24950D01*
X9924Y25052D02*
X9378D01*
X10153Y24823D02*
X9924Y25052D01*
X10216Y24823D02*
X10153D01*
X10013Y24353D02*
X9670D01*
X10699Y23845D02*
X10587D01*
X10788Y23935D02*
X10699Y23845D01*
X10788Y23935D02*
Y24277D01*
Y22448D02*
Y22918D01*
X10749Y22956D01*
X10587D01*
X10521Y23845D02*
X10013Y24353D01*
X10587Y23413D02*
X10254D01*
X10587D02*
Y23464D01*
Y23337D02*
Y23413D01*
X10216Y24328D02*
Y24633D01*
X10571Y23972D02*
X10216Y24328D01*
X10587Y22616D02*
X10165Y22194D01*
X10587Y22616D02*
Y22829D01*
X10292Y23083D02*
X10165Y22956D01*
X10587Y23083D02*
X10292D01*
X10267Y23718D02*
X10216Y23769D01*
X10587Y23718D02*
X10267D01*
D29*
X9657Y6820D02*
X9467D01*
X9505Y6210D02*
X9301D01*
X9683Y4674D02*
X9301D01*
X8438Y7785D02*
Y8700D01*
X6457D01*
X7422Y7785D02*
Y8674D01*
X6457Y8700D02*
X5441D01*
X4628Y6718D02*
Y7099D01*
X9657Y8356D02*
X9276D01*
X5438Y7785D02*
Y8697D01*
X6438Y7785D02*
Y8681D01*
X9657Y15320D02*
X9467D01*
X9505Y14710D02*
X9301D01*
X9683Y13174D02*
X9301D01*
X8438Y16285D02*
Y17199D01*
X6457D01*
X7422Y16285D02*
Y17174D01*
X6457Y17199D02*
X5441D01*
X4628Y15218D02*
Y15599D01*
X9657Y16856D02*
X9276D01*
X5438Y16285D02*
Y17197D01*
X6438Y16285D02*
Y17181D01*
X9657Y23820D02*
X9467D01*
X9505Y23210D02*
X9301D01*
X9683Y21674D02*
X9301D01*
X8438Y24785D02*
Y25699D01*
X6457D01*
X7422Y24785D02*
Y25674D01*
X6457Y25699D02*
X5441D01*
X4628Y23718D02*
Y24099D01*
X9657Y25356D02*
X9276D01*
X5438Y24785D02*
Y25697D01*
X6438Y24785D02*
Y25681D01*
D30*
X12178Y5264D02*
X11994Y5448D01*
X12603Y8623D02*
X12591Y8611D01*
X13315Y8547D02*
X13238Y8623D01*
X13088Y6515D02*
Y7125D01*
X13362Y7169D02*
Y7836D01*
X13315Y7883D02*
Y8547D01*
X12178Y13764D02*
X11994Y13948D01*
X12603Y17123D02*
X12591Y17111D01*
X13315Y17047D02*
X13238Y17123D01*
X13088Y15015D02*
Y15625D01*
X13362Y15669D02*
Y16336D01*
X13315Y16383D02*
Y17047D01*
X12178Y22264D02*
X11994Y22448D01*
X12603Y25623D02*
X12591Y25611D01*
X13315Y25547D02*
X13238Y25623D01*
X13088Y23515D02*
Y24125D01*
X13362Y24169D02*
Y24836D01*
X13315Y24883D02*
Y25547D01*
D31*
X10648Y8471D02*
X10521Y8344D01*
X11207Y8471D02*
X10648D01*
X11232Y8446D02*
X11207Y8471D01*
X11182Y8140D02*
X11023D01*
X11232Y8090D02*
X11182Y8140D01*
X11232Y8026D02*
Y8090D01*
Y8446D02*
Y8687D01*
X10858Y8211D02*
Y8351D01*
Y8134D02*
Y8211D01*
X10917Y8075D02*
X10858Y8134D01*
X11023Y8075D02*
X10917D01*
X10648Y16971D02*
X10521Y16844D01*
X11207Y16971D02*
X10648D01*
X11232Y16946D02*
X11207Y16971D01*
X11182Y16640D02*
X11023D01*
X11232Y16590D02*
X11182Y16640D01*
X11232Y16526D02*
Y16590D01*
Y16946D02*
Y17187D01*
X10858Y16711D02*
Y16851D01*
Y16634D02*
Y16711D01*
X10917Y16575D02*
X10858Y16634D01*
X11023Y16575D02*
X10917D01*
X10648Y25471D02*
X10521Y25344D01*
X11207Y25471D02*
X10648D01*
X11232Y25446D02*
X11207Y25471D01*
X11182Y25140D02*
X11023D01*
X11232Y25090D02*
X11182Y25140D01*
X11232Y25026D02*
Y25090D01*
Y25446D02*
Y25687D01*
X10858Y25211D02*
Y25351D01*
Y25134D02*
Y25211D01*
X10917Y25075D02*
X10858Y25134D01*
X11023Y25075D02*
X10917D01*
D32*
X9911Y9474D02*
X9556Y9119D01*
X12718Y9474D02*
X9911D01*
X12985Y8801D02*
Y9207D01*
X12718Y9474D01*
X9911Y17974D02*
X9556Y17619D01*
X12718Y17974D02*
X9911D01*
X12985Y17301D02*
Y17707D01*
X12718Y17974D01*
X9911Y26474D02*
X9556Y26119D01*
X12718Y26474D02*
X9911D01*
X12985Y25801D02*
Y26208D01*
X12718Y26474D01*
D33*
X8583Y4648D02*
X4806D01*
X9139Y5204D02*
X8583Y4648D01*
X4323Y5131D02*
Y5829D01*
X4806Y4648D02*
X4323Y5131D01*
X8438Y5245D02*
Y6134D01*
X8641Y6337D02*
X8438Y6134D01*
X8641Y6337D02*
Y6705D01*
X8947Y7010D02*
X8641Y6705D01*
X9165Y7228D02*
X8947Y7010D01*
X9189Y7228D02*
X9165D01*
X7930Y7785D02*
X7422D01*
X5438D02*
X5170Y7517D01*
X5898Y7785D02*
X5492D01*
X4628Y6718D02*
X4323Y6414D01*
X5938Y5245D02*
X5438D01*
X6438D02*
X5938D01*
X6938D02*
X6438D01*
X7422D02*
X6938D01*
X7930D02*
X7422D01*
X8438D02*
X7930D01*
X6438Y7785D02*
X5898D01*
X6938D02*
X6438D01*
X7422D02*
X6938D01*
X8438D02*
X7930D01*
X8583Y13148D02*
X4806D01*
X9139Y13704D02*
X8583Y13148D01*
X4323Y13631D02*
Y14329D01*
X4806Y13148D02*
X4323Y13631D01*
X8438Y13745D02*
Y14634D01*
X8641Y14837D02*
X8438Y14634D01*
X8641Y14837D02*
Y15205D01*
X8947Y15510D02*
X8641Y15205D01*
X9165Y15728D02*
X8947Y15510D01*
X9189Y15728D02*
X9165D01*
X7930Y16285D02*
X7422D01*
X5438D02*
X5170Y16017D01*
X5898Y16285D02*
X5492D01*
X4628Y15218D02*
X4323Y14913D01*
X5938Y13745D02*
X5438D01*
X6438D02*
X5938D01*
X6938D02*
X6438D01*
X7422D02*
X6938D01*
X7930D02*
X7422D01*
X8438D02*
X7930D01*
X6438Y16285D02*
X5898D01*
X6938D02*
X6438D01*
X7422D02*
X6938D01*
X8438D02*
X7930D01*
X8583Y21648D02*
X4806D01*
X9139Y22204D02*
X8583Y21648D01*
X4323Y22131D02*
Y22829D01*
X4806Y21648D02*
X4323Y22131D01*
X8438Y22245D02*
Y23134D01*
X8641Y23337D02*
X8438Y23134D01*
X8641Y23337D02*
Y23705D01*
X8947Y24010D02*
X8641Y23705D01*
X9165Y24228D02*
X8947Y24010D01*
X9189Y24228D02*
X9165D01*
X7930Y24785D02*
X7422D01*
X5438D02*
X5170Y24517D01*
X5898Y24785D02*
X5492D01*
X4628Y23718D02*
X4323Y23413D01*
X5938Y22245D02*
X5438D01*
X6438D02*
X5938D01*
X6938D02*
X6438D01*
X7422D02*
X6938D01*
X7930D02*
X7422D01*
X8438D02*
X7930D01*
X6438Y24785D02*
X5898D01*
X6938D02*
X6438D01*
X7422D02*
X6938D01*
X8438D02*
X7930D01*
D34*
X9479Y7836D02*
X9411Y7768D01*
X9657Y7340D02*
X9403D01*
X9403Y7340D01*
X9543Y7340D02*
Y7836D01*
X9657Y7340D02*
X9543D01*
X9403D02*
Y7726D01*
X9411Y7734D02*
Y7768D01*
Y7734D02*
X9403Y7726D01*
X9403Y7340D02*
X9301D01*
X9189Y7228D01*
X9548Y5275D02*
X9467Y5194D01*
X9548Y5275D02*
Y5296D01*
X9556Y5304D02*
X9548Y5296D01*
X9556Y5304D02*
Y5690D01*
X9683D02*
X9556D01*
X9301Y5410D02*
Y5690D01*
X5082Y7429D02*
X4628D01*
X9429Y5194D02*
Y5690D01*
X9657Y7340D02*
Y7836D01*
X9479Y16336D02*
X9411Y16268D01*
X9657Y15840D02*
X9403D01*
X9403Y15840D01*
X9543Y15840D02*
Y16336D01*
X9657Y15840D02*
X9543D01*
X9403D02*
Y16226D01*
X9411Y16234D02*
Y16268D01*
Y16234D02*
X9403Y16226D01*
X9403Y15840D02*
X9301D01*
X9189Y15728D01*
X9548Y13775D02*
X9467Y13694D01*
X9548Y13775D02*
Y13796D01*
X9556Y13804D02*
X9548Y13796D01*
X9556Y13804D02*
Y14190D01*
X9683D02*
X9556D01*
X9301Y13910D02*
Y14190D01*
X5082Y15929D02*
X4628D01*
X9429Y13694D02*
Y14190D01*
X9657Y15840D02*
Y16336D01*
X9479Y24836D02*
X9411Y24768D01*
X9657Y24340D02*
X9403D01*
X9403Y24340D01*
X9543Y24340D02*
Y24836D01*
X9657Y24340D02*
X9543D01*
X9403D02*
Y24726D01*
X9411Y24734D02*
Y24768D01*
Y24734D02*
X9403Y24726D01*
X9403Y24340D02*
X9301D01*
X9189Y24228D01*
X9548Y22275D02*
X9467Y22194D01*
X9548Y22275D02*
Y22296D01*
X9556Y22304D02*
X9548Y22296D01*
X9556Y22304D02*
Y22690D01*
X9683D02*
X9556D01*
X9301Y22410D02*
Y22690D01*
X5082Y24429D02*
X4628D01*
X9429Y22194D02*
Y22690D01*
X9657Y24340D02*
Y24836D01*
D35*
X5136Y7302D02*
X4628D01*
X5136Y15802D02*
X4628D01*
X5136Y24302D02*
X4628D01*
D36*
X13315Y8547D02*
D03*
Y9055D02*
D03*
Y17047D02*
D03*
Y17555D02*
D03*
Y25547D02*
D03*
Y26055D02*
D03*
D37*
X9505Y9114D02*
D03*
Y9614D02*
D03*
X9556Y3967D02*
D03*
Y3467D02*
D03*
X13112Y7836D02*
D03*
X13362D02*
D03*
X9505Y17614D02*
D03*
Y18114D02*
D03*
X9556Y12467D02*
D03*
Y11967D02*
D03*
X13112Y16336D02*
D03*
X13362D02*
D03*
X9505Y26114D02*
D03*
Y26614D02*
D03*
X9556Y20967D02*
D03*
Y20467D02*
D03*
X13112Y24836D02*
D03*
X13362D02*
D03*
D38*
X4323Y6414D02*
D03*
Y5906D02*
D03*
X8438Y7785D02*
D03*
X7930D02*
D03*
X7422D02*
D03*
X6938D02*
D03*
X6438D02*
D03*
X5898D02*
D03*
X5438D02*
D03*
Y5245D02*
D03*
X5938D02*
D03*
X6438D02*
D03*
X6938D02*
D03*
X7422D02*
D03*
X7930D02*
D03*
X8438D02*
D03*
X4323Y14913D02*
D03*
Y14405D02*
D03*
X8438Y16285D02*
D03*
X7930D02*
D03*
X7422D02*
D03*
X6938D02*
D03*
X6438D02*
D03*
X5898D02*
D03*
X5438D02*
D03*
Y13745D02*
D03*
X5938D02*
D03*
X6438D02*
D03*
X6938D02*
D03*
X7422D02*
D03*
X7930D02*
D03*
X8438D02*
D03*
X4323Y23413D02*
D03*
Y22905D02*
D03*
X8438Y24785D02*
D03*
X7930D02*
D03*
X7422D02*
D03*
X6938D02*
D03*
X6438D02*
D03*
X5898D02*
D03*
X5438D02*
D03*
Y22245D02*
D03*
X5938D02*
D03*
X6438D02*
D03*
X6938D02*
D03*
X7422D02*
D03*
X7930D02*
D03*
X8438D02*
D03*
D39*
X13315Y4483D02*
D03*
Y4229D02*
D03*
Y4737D02*
D03*
Y4991D02*
D03*
Y5245D02*
D03*
Y5499D02*
D03*
Y12983D02*
D03*
Y12729D02*
D03*
Y13237D02*
D03*
Y13491D02*
D03*
Y13745D02*
D03*
Y13999D02*
D03*
Y21483D02*
D03*
Y21229D02*
D03*
Y21737D02*
D03*
Y21991D02*
D03*
Y22245D02*
D03*
Y22499D02*
D03*
D40*
Y3975D02*
D03*
Y12475D02*
D03*
Y20975D02*
D03*
D41*
X12616Y9119D02*
D03*
X11918D02*
D03*
X9251Y3213D02*
D03*
X9543D02*
D03*
X9822D02*
D03*
X10064Y3467D02*
D03*
X8997D02*
D03*
X9263D02*
D03*
X9822D02*
D03*
X4107Y6896D02*
D03*
X9886Y6299D02*
D03*
X9898Y6604D02*
D03*
X9721Y6515D02*
D03*
X9517D02*
D03*
X9314D02*
D03*
X9911Y6845D02*
D03*
X10648Y8674D02*
D03*
Y8928D02*
D03*
X10394D02*
D03*
Y9182D02*
D03*
X10648D02*
D03*
X10902D02*
D03*
X11918Y8357D02*
D03*
Y6515D02*
D03*
X10102Y4102D02*
D03*
X11245Y8230D02*
D03*
X11130Y7709D02*
D03*
X10775Y7582D02*
D03*
X12184Y5271D02*
D03*
X13073Y8674D02*
D03*
X12946Y8471D02*
D03*
X9873Y3874D02*
D03*
X10858Y8211D02*
D03*
X10089Y3874D02*
D03*
X10381Y8344D02*
D03*
X4108Y7557D02*
D03*
X11638Y8954D02*
D03*
X12324Y8014D02*
D03*
X11194Y5296D02*
D03*
X11321Y6134D02*
D03*
Y6350D02*
D03*
X11815Y8140D02*
D03*
X11613Y8433D02*
D03*
X11359Y6845D02*
D03*
X11130Y7137D02*
D03*
X11232Y8026D02*
D03*
X12616Y17619D02*
D03*
X11918D02*
D03*
X9251Y11713D02*
D03*
X9543D02*
D03*
X9822D02*
D03*
X10064Y11967D02*
D03*
X8997D02*
D03*
X9263D02*
D03*
X9822D02*
D03*
X4107Y15396D02*
D03*
X9886Y14799D02*
D03*
X9898Y15104D02*
D03*
X9721Y15015D02*
D03*
X9517D02*
D03*
X9314D02*
D03*
X9911Y15345D02*
D03*
X10648Y17174D02*
D03*
Y17428D02*
D03*
X10394D02*
D03*
Y17682D02*
D03*
X10648D02*
D03*
X10902D02*
D03*
X11918Y16857D02*
D03*
Y15015D02*
D03*
X10102Y12602D02*
D03*
X11245Y16730D02*
D03*
X11130Y16209D02*
D03*
X10775Y16082D02*
D03*
X12184Y13771D02*
D03*
X13073Y17174D02*
D03*
X12946Y16971D02*
D03*
X9873Y12374D02*
D03*
X10858Y16711D02*
D03*
X10089Y12374D02*
D03*
X10381Y16844D02*
D03*
X4108Y16057D02*
D03*
X11638Y17454D02*
D03*
X12324Y16514D02*
D03*
X11194Y13796D02*
D03*
X11321Y14634D02*
D03*
Y14850D02*
D03*
X11815Y16640D02*
D03*
X11613Y16933D02*
D03*
X11359Y15345D02*
D03*
X11130Y15637D02*
D03*
X11232Y16526D02*
D03*
X12616Y26119D02*
D03*
X11918D02*
D03*
X9251Y20213D02*
D03*
X9543D02*
D03*
X9822D02*
D03*
X10064Y20467D02*
D03*
X8997D02*
D03*
X9263D02*
D03*
X9822D02*
D03*
X4107Y23896D02*
D03*
X9886Y23299D02*
D03*
X9898Y23604D02*
D03*
X9721Y23515D02*
D03*
X9517D02*
D03*
X9314D02*
D03*
X9911Y23845D02*
D03*
X10648Y25674D02*
D03*
Y25928D02*
D03*
X10394D02*
D03*
Y26182D02*
D03*
X10648D02*
D03*
X10902D02*
D03*
X11918Y25357D02*
D03*
Y23515D02*
D03*
X10102Y21102D02*
D03*
X11245Y25230D02*
D03*
X11130Y24709D02*
D03*
X10775Y24582D02*
D03*
X12184Y22271D02*
D03*
X13073Y25674D02*
D03*
X12946Y25471D02*
D03*
X9873Y20874D02*
D03*
X10858Y25211D02*
D03*
X10089Y20874D02*
D03*
X10381Y25344D02*
D03*
X4108Y24557D02*
D03*
X11638Y25954D02*
D03*
X12324Y25014D02*
D03*
X11194Y22296D02*
D03*
X11321Y23134D02*
D03*
Y23350D02*
D03*
X11815Y25140D02*
D03*
X11613Y25433D02*
D03*
X11359Y23845D02*
D03*
X11130Y24137D02*
D03*
X11232Y25026D02*
D03*
D42*
X13323Y3205D02*
D03*
Y10205D02*
D03*
X4323D02*
D03*
Y3205D02*
D03*
X13323Y11705D02*
D03*
Y18705D02*
D03*
X4323D02*
D03*
Y11705D02*
D03*
X13323Y20205D02*
D03*
Y27205D02*
D03*
X4323D02*
D03*
Y20205D02*
D03*
M02*
