%FSLAX42Y42*%
%MOMM*%
G71*
G01*
G75*
%ADD10C,0.30*%
%ADD11R,0.70X1.30*%
%ADD12R,1.30X0.90*%
%ADD13R,1.20X1.00*%
%ADD14R,0.90X1.60*%
%ADD15R,0.60X0.80*%
%ADD16R,1.30X0.70*%
%ADD17R,0.90X1.30*%
%ADD18R,0.80X0.60*%
%ADD19R,0.70X1.20*%
%ADD20R,1.00X1.70*%
%ADD21R,1.60X0.90*%
%ADD22R,1.30X1.30*%
%ADD23R,3.60X1.30*%
%ADD24R,1.50X0.60*%
%ADD25R,1.00X0.40*%
%ADD26R,1.00X1.20*%
%ADD27R,1.20X0.70*%
%ADD28C,0.50*%
%ADD29C,2.00*%
%ADD30C,1.00*%
%ADD31C,0.25*%
%ADD32C,3.00*%
%ADD33C,5.00*%
%ADD34C,1.50*%
%ADD35C,1.30*%
%ADD36C,2.54*%
%ADD37C,1.60*%
%ADD38C,3.00*%
%ADD39C,1.50*%
%ADD40R,1.50X1.50*%
%ADD41C,1.27*%
%ADD42C,4.00*%
%ADD43R,0.90X1.50*%
%ADD44R,1.50X1.10*%
%ADD45R,1.40X1.20*%
%ADD46R,1.10X1.80*%
%ADD47R,0.80X1.00*%
%ADD48R,1.50X0.90*%
%ADD49R,1.10X1.50*%
%ADD50R,1.00X0.80*%
%ADD51R,0.90X1.40*%
%ADD52R,1.20X1.90*%
%ADD53R,1.80X1.10*%
%ADD54R,1.50X1.50*%
%ADD55R,3.80X1.50*%
%ADD56R,1.70X0.80*%
%ADD57R,1.20X0.60*%
%ADD58R,1.20X1.40*%
%ADD59R,1.40X0.90*%
%ADD60C,2.74*%
%ADD61C,1.80*%
%ADD62C,3.20*%
%ADD63C,1.70*%
%ADD64R,1.70X1.70*%
%ADD65C,1.47*%
%ADD66C,4.20*%
%ADD67C,0.17*%
D10*
X3823Y10705D02*
X13823D01*
Y2705D02*
Y10705D01*
X3823Y2705D02*
X13823D01*
X3823D02*
Y10705D01*
Y19205D02*
X13823D01*
Y11205D02*
Y19205D01*
X3823Y11205D02*
X13823D01*
X3823D02*
Y19205D01*
Y27705D02*
X13823D01*
Y19705D02*
Y27705D01*
X3823Y19705D02*
X13823D01*
X3823D02*
Y27705D01*
D67*
X4254Y8547D02*
X4407D01*
X4331Y8471D02*
Y8623D01*
X4254Y9055D02*
X4407D01*
X4331Y8979D02*
Y9131D01*
X8101Y9114D02*
X8181D01*
X8141Y9074D02*
Y9154D01*
X8101Y9614D02*
X8181D01*
X8141Y9574D02*
Y9654D01*
X13197Y6414D02*
X13447D01*
X13322Y6288D02*
Y6539D01*
X13197Y5906D02*
X13447D01*
X13322Y5781D02*
Y6031D01*
X4286Y4483D02*
X4376D01*
X4331Y4438D02*
Y4528D01*
X4286Y3975D02*
X4376D01*
X4331Y3930D02*
Y4020D01*
X4286Y4229D02*
X4376D01*
X4331Y4184D02*
Y4274D01*
X4286Y4737D02*
X4376D01*
X4331Y4692D02*
Y4782D01*
X4286Y4991D02*
X4376D01*
X4331Y4946D02*
Y5036D01*
X4286Y5245D02*
X4376D01*
X4331Y5200D02*
Y5290D01*
X4286Y5499D02*
X4376D01*
X4331Y5454D02*
Y5544D01*
X8050Y3967D02*
X8130D01*
X8090Y3927D02*
Y4007D01*
X8050Y3467D02*
X8130D01*
X8090Y3427D02*
Y3507D01*
X4494Y7836D02*
X4574D01*
X4534Y7796D02*
Y7876D01*
X4244Y7836D02*
X4324D01*
X4284Y7796D02*
Y7876D01*
X9118Y7785D02*
X9297D01*
X9207Y7695D02*
Y7875D01*
X9625Y7785D02*
X9806D01*
X9715Y7695D02*
Y7875D01*
X10133Y7785D02*
X10314D01*
X10224Y7695D02*
Y7875D01*
X10618Y7785D02*
X10797D01*
X10707Y7695D02*
Y7875D01*
X11118Y7785D02*
X11297D01*
X11207Y7695D02*
Y7875D01*
X11657Y7785D02*
X11838D01*
X11747Y7695D02*
Y7875D01*
X12118Y7785D02*
X12297D01*
X12207Y7695D02*
Y7875D01*
X12118Y5245D02*
X12297D01*
X12207Y5155D02*
Y5335D01*
X11618Y5245D02*
X11797D01*
X11707Y5155D02*
Y5335D01*
X11118Y5245D02*
X11297D01*
X11207Y5155D02*
Y5335D01*
X10618Y5245D02*
X10797D01*
X10707Y5155D02*
Y5335D01*
X10133Y5245D02*
X10314D01*
X10224Y5155D02*
Y5335D01*
X9625Y5245D02*
X9806D01*
X9715Y5155D02*
Y5335D01*
X9118Y5245D02*
X9297D01*
X9207Y5155D02*
Y5335D01*
X4994Y9119D02*
X5065D01*
X5029Y9083D02*
Y9154D01*
X5692Y9119D02*
X5763D01*
X5728Y9083D02*
Y9154D01*
X8359Y3213D02*
X8430D01*
X8395Y3178D02*
Y3249D01*
X8067Y3213D02*
X8138D01*
X8103Y3178D02*
Y3249D01*
X7788Y3213D02*
X7859D01*
X7823Y3178D02*
Y3249D01*
X7546Y3467D02*
X7617D01*
X7582Y3432D02*
Y3503D01*
X8613Y3467D02*
X8684D01*
X8649Y3432D02*
Y3503D01*
X8346Y3467D02*
X8418D01*
X8382Y3432D02*
Y3503D01*
X7788Y3467D02*
X7859D01*
X7823Y3432D02*
Y3503D01*
X13503Y6896D02*
X13574D01*
X13538Y6861D02*
Y6932D01*
X7724Y6299D02*
X7795D01*
X7760Y6264D02*
Y6335D01*
X7711Y6604D02*
X7783D01*
X7747Y6568D02*
Y6640D01*
X7889Y6515D02*
X7960D01*
X7925Y6480D02*
Y6551D01*
X8092Y6515D02*
X8164D01*
X8128Y6480D02*
Y6551D01*
X8296Y6515D02*
X8367D01*
X8331Y6480D02*
Y6551D01*
X7699Y6845D02*
X7770D01*
X7734Y6810D02*
Y6881D01*
X6962Y8674D02*
X7033D01*
X6998Y8639D02*
Y8710D01*
X6962Y8928D02*
X7033D01*
X6998Y8893D02*
Y8964D01*
X7216Y8928D02*
X7287D01*
X7252Y8893D02*
Y8964D01*
X7216Y9182D02*
X7287D01*
X7252Y9147D02*
Y9218D01*
X6962Y9182D02*
X7033D01*
X6998Y9147D02*
Y9218D01*
X6708Y9182D02*
X6779D01*
X6744Y9147D02*
Y9218D01*
X5692Y8357D02*
X5763D01*
X5728Y8321D02*
Y8392D01*
X5692Y6515D02*
X5763D01*
X5728Y6480D02*
Y6551D01*
X7508Y4102D02*
X7579D01*
X7544Y4067D02*
Y4138D01*
X6365Y8230D02*
X6436D01*
X6401Y8194D02*
Y8265D01*
X6480Y7709D02*
X6551D01*
X6515Y7673D02*
Y7744D01*
X6835Y7582D02*
X6906D01*
X6871Y7546D02*
Y7617D01*
X5425Y5271D02*
X5497D01*
X5461Y5235D02*
Y5306D01*
X4536Y8674D02*
X4608D01*
X4572Y8639D02*
Y8710D01*
X4663Y8471D02*
X4735D01*
X4699Y8435D02*
Y8506D01*
X7737Y3874D02*
X7808D01*
X7772Y3838D02*
Y3909D01*
X6752Y8211D02*
X6823D01*
X6787Y8176D02*
Y8247D01*
X7521Y3874D02*
X7592D01*
X7557Y3838D02*
Y3909D01*
X7229Y8344D02*
X7300D01*
X7264Y8308D02*
Y8379D01*
X13502Y7557D02*
X13573D01*
X13538Y7521D02*
Y7592D01*
X5972Y8954D02*
X6043D01*
X6007Y8918D02*
Y8989D01*
X5286Y8014D02*
X5357D01*
X5321Y7978D02*
Y8049D01*
X6416Y5296D02*
X6487D01*
X6452Y5260D02*
Y5331D01*
X6289Y6134D02*
X6360D01*
X6325Y6099D02*
Y6170D01*
X6289Y6350D02*
X6360D01*
X6325Y6314D02*
Y6386D01*
X5794Y8140D02*
X5865D01*
X5830Y8105D02*
Y8176D01*
X5997Y8433D02*
X6068D01*
X6033Y8397D02*
Y8468D01*
X6251Y6845D02*
X6322D01*
X6287Y6810D02*
Y6881D01*
X6480Y7137D02*
X6551D01*
X6515Y7102D02*
Y7173D01*
X6378Y8026D02*
X6449D01*
X6414Y7991D02*
Y8062D01*
X4163Y3205D02*
X4483D01*
X4323Y3045D02*
Y3365D01*
X4163Y10205D02*
X4483D01*
X4323Y10045D02*
Y10365D01*
X13163Y10205D02*
X13483D01*
X13323Y10045D02*
Y10365D01*
X13163Y3205D02*
X13483D01*
X13323Y3045D02*
Y3365D01*
X4254Y17047D02*
X4407D01*
X4331Y16971D02*
Y17123D01*
X4254Y17555D02*
X4407D01*
X4331Y17479D02*
Y17631D01*
X8101Y17614D02*
X8181D01*
X8141Y17574D02*
Y17654D01*
X8101Y18114D02*
X8181D01*
X8141Y18074D02*
Y18154D01*
X13197Y14913D02*
X13447D01*
X13322Y14788D02*
Y15038D01*
X13197Y14405D02*
X13447D01*
X13322Y14280D02*
Y14530D01*
X4286Y12983D02*
X4376D01*
X4331Y12938D02*
Y13028D01*
X4286Y12475D02*
X4376D01*
X4331Y12430D02*
Y12520D01*
X4286Y12729D02*
X4376D01*
X4331Y12684D02*
Y12774D01*
X4286Y13237D02*
X4376D01*
X4331Y13192D02*
Y13282D01*
X4286Y13491D02*
X4376D01*
X4331Y13446D02*
Y13536D01*
X4286Y13745D02*
X4376D01*
X4331Y13700D02*
Y13790D01*
X4286Y13999D02*
X4376D01*
X4331Y13954D02*
Y14044D01*
X8050Y12467D02*
X8130D01*
X8090Y12427D02*
Y12507D01*
X8050Y11967D02*
X8130D01*
X8090Y11927D02*
Y12007D01*
X4494Y16336D02*
X4574D01*
X4534Y16296D02*
Y16376D01*
X4244Y16336D02*
X4324D01*
X4284Y16296D02*
Y16376D01*
X9118Y16285D02*
X9297D01*
X9207Y16195D02*
Y16375D01*
X9625Y16285D02*
X9806D01*
X9715Y16195D02*
Y16375D01*
X10133Y16285D02*
X10314D01*
X10224Y16195D02*
Y16375D01*
X10618Y16285D02*
X10797D01*
X10707Y16195D02*
Y16375D01*
X11118Y16285D02*
X11297D01*
X11207Y16195D02*
Y16375D01*
X11657Y16285D02*
X11838D01*
X11747Y16195D02*
Y16375D01*
X12118Y16285D02*
X12297D01*
X12207Y16195D02*
Y16375D01*
X12118Y13745D02*
X12297D01*
X12207Y13655D02*
Y13835D01*
X11618Y13745D02*
X11797D01*
X11707Y13655D02*
Y13835D01*
X11118Y13745D02*
X11297D01*
X11207Y13655D02*
Y13835D01*
X10618Y13745D02*
X10797D01*
X10707Y13655D02*
Y13835D01*
X10133Y13745D02*
X10314D01*
X10224Y13655D02*
Y13835D01*
X9625Y13745D02*
X9806D01*
X9715Y13655D02*
Y13835D01*
X9118Y13745D02*
X9297D01*
X9207Y13655D02*
Y13835D01*
X4994Y17619D02*
X5065D01*
X5029Y17583D02*
Y17654D01*
X5692Y17619D02*
X5763D01*
X5728Y17583D02*
Y17654D01*
X8359Y11713D02*
X8430D01*
X8395Y11678D02*
Y11749D01*
X8067Y11713D02*
X8138D01*
X8103Y11678D02*
Y11749D01*
X7788Y11713D02*
X7859D01*
X7823Y11678D02*
Y11749D01*
X7546Y11967D02*
X7617D01*
X7582Y11932D02*
Y12003D01*
X8613Y11967D02*
X8684D01*
X8649Y11932D02*
Y12003D01*
X8346Y11967D02*
X8418D01*
X8382Y11932D02*
Y12003D01*
X7788Y11967D02*
X7859D01*
X7823Y11932D02*
Y12003D01*
X13503Y15396D02*
X13574D01*
X13538Y15361D02*
Y15432D01*
X7724Y14799D02*
X7795D01*
X7760Y14764D02*
Y14835D01*
X7711Y15104D02*
X7783D01*
X7747Y15068D02*
Y15140D01*
X7889Y15015D02*
X7960D01*
X7925Y14980D02*
Y15051D01*
X8092Y15015D02*
X8164D01*
X8128Y14980D02*
Y15051D01*
X8296Y15015D02*
X8367D01*
X8331Y14980D02*
Y15051D01*
X7699Y15345D02*
X7770D01*
X7734Y15310D02*
Y15381D01*
X6962Y17174D02*
X7033D01*
X6998Y17139D02*
Y17210D01*
X6962Y17428D02*
X7033D01*
X6998Y17393D02*
Y17464D01*
X7216Y17428D02*
X7287D01*
X7252Y17393D02*
Y17464D01*
X7216Y17682D02*
X7287D01*
X7252Y17647D02*
Y17718D01*
X6962Y17682D02*
X7033D01*
X6998Y17647D02*
Y17718D01*
X6708Y17682D02*
X6779D01*
X6744Y17647D02*
Y17718D01*
X5692Y16857D02*
X5763D01*
X5728Y16821D02*
Y16892D01*
X5692Y15015D02*
X5763D01*
X5728Y14980D02*
Y15051D01*
X7508Y12602D02*
X7579D01*
X7544Y12567D02*
Y12638D01*
X6365Y16730D02*
X6436D01*
X6401Y16694D02*
Y16765D01*
X6480Y16209D02*
X6551D01*
X6515Y16173D02*
Y16244D01*
X6835Y16082D02*
X6906D01*
X6871Y16046D02*
Y16117D01*
X5425Y13771D02*
X5497D01*
X5461Y13735D02*
Y13806D01*
X4536Y17174D02*
X4608D01*
X4572Y17139D02*
Y17210D01*
X4663Y16971D02*
X4735D01*
X4699Y16935D02*
Y17006D01*
X7737Y12374D02*
X7808D01*
X7772Y12338D02*
Y12409D01*
X6752Y16711D02*
X6823D01*
X6787Y16676D02*
Y16747D01*
X7521Y12374D02*
X7592D01*
X7557Y12338D02*
Y12409D01*
X7229Y16844D02*
X7300D01*
X7264Y16808D02*
Y16879D01*
X13502Y16057D02*
X13573D01*
X13538Y16021D02*
Y16092D01*
X5972Y17454D02*
X6043D01*
X6007Y17418D02*
Y17489D01*
X5286Y16514D02*
X5357D01*
X5321Y16478D02*
Y16549D01*
X6416Y13796D02*
X6487D01*
X6452Y13760D02*
Y13831D01*
X6289Y14634D02*
X6360D01*
X6325Y14599D02*
Y14670D01*
X6289Y14850D02*
X6360D01*
X6325Y14814D02*
Y14886D01*
X5794Y16640D02*
X5865D01*
X5830Y16605D02*
Y16676D01*
X5997Y16933D02*
X6068D01*
X6033Y16897D02*
Y16968D01*
X6251Y15345D02*
X6322D01*
X6287Y15310D02*
Y15381D01*
X6480Y15637D02*
X6551D01*
X6515Y15602D02*
Y15673D01*
X6378Y16526D02*
X6449D01*
X6414Y16491D02*
Y16562D01*
X4163Y11705D02*
X4483D01*
X4323Y11545D02*
Y11865D01*
X4163Y18705D02*
X4483D01*
X4323Y18545D02*
Y18865D01*
X13163Y18705D02*
X13483D01*
X13323Y18545D02*
Y18865D01*
X13163Y11705D02*
X13483D01*
X13323Y11545D02*
Y11865D01*
X4254Y25547D02*
X4407D01*
X4331Y25471D02*
Y25623D01*
X4254Y26055D02*
X4407D01*
X4331Y25979D02*
Y26131D01*
X8101Y26114D02*
X8181D01*
X8141Y26074D02*
Y26154D01*
X8101Y26614D02*
X8181D01*
X8141Y26574D02*
Y26654D01*
X13197Y23413D02*
X13447D01*
X13322Y23288D02*
Y23538D01*
X13197Y22905D02*
X13447D01*
X13322Y22780D02*
Y23030D01*
X4286Y21483D02*
X4376D01*
X4331Y21438D02*
Y21528D01*
X4286Y20975D02*
X4376D01*
X4331Y20930D02*
Y21020D01*
X4286Y21229D02*
X4376D01*
X4331Y21184D02*
Y21274D01*
X4286Y21737D02*
X4376D01*
X4331Y21692D02*
Y21782D01*
X4286Y21991D02*
X4376D01*
X4331Y21946D02*
Y22036D01*
X4286Y22245D02*
X4376D01*
X4331Y22200D02*
Y22290D01*
X4286Y22499D02*
X4376D01*
X4331Y22454D02*
Y22544D01*
X8050Y20967D02*
X8130D01*
X8090Y20927D02*
Y21007D01*
X8050Y20467D02*
X8130D01*
X8090Y20427D02*
Y20507D01*
X4494Y24836D02*
X4574D01*
X4534Y24796D02*
Y24876D01*
X4244Y24836D02*
X4324D01*
X4284Y24796D02*
Y24876D01*
X9118Y24785D02*
X9297D01*
X9207Y24695D02*
Y24875D01*
X9625Y24785D02*
X9806D01*
X9715Y24695D02*
Y24875D01*
X10133Y24785D02*
X10314D01*
X10224Y24695D02*
Y24875D01*
X10618Y24785D02*
X10797D01*
X10707Y24695D02*
Y24875D01*
X11118Y24785D02*
X11297D01*
X11207Y24695D02*
Y24875D01*
X11657Y24785D02*
X11838D01*
X11747Y24695D02*
Y24875D01*
X12118Y24785D02*
X12297D01*
X12207Y24695D02*
Y24875D01*
X12118Y22245D02*
X12297D01*
X12207Y22155D02*
Y22335D01*
X11618Y22245D02*
X11797D01*
X11707Y22155D02*
Y22335D01*
X11118Y22245D02*
X11297D01*
X11207Y22155D02*
Y22335D01*
X10618Y22245D02*
X10797D01*
X10707Y22155D02*
Y22335D01*
X10133Y22245D02*
X10314D01*
X10224Y22155D02*
Y22335D01*
X9625Y22245D02*
X9806D01*
X9715Y22155D02*
Y22335D01*
X9118Y22245D02*
X9297D01*
X9207Y22155D02*
Y22335D01*
X4994Y26119D02*
X5065D01*
X5029Y26083D02*
Y26154D01*
X5692Y26119D02*
X5763D01*
X5728Y26083D02*
Y26154D01*
X8359Y20213D02*
X8430D01*
X8395Y20178D02*
Y20249D01*
X8067Y20213D02*
X8138D01*
X8103Y20178D02*
Y20249D01*
X7788Y20213D02*
X7859D01*
X7823Y20178D02*
Y20249D01*
X7546Y20467D02*
X7617D01*
X7582Y20432D02*
Y20503D01*
X8613Y20467D02*
X8684D01*
X8649Y20432D02*
Y20503D01*
X8346Y20467D02*
X8418D01*
X8382Y20432D02*
Y20503D01*
X7788Y20467D02*
X7859D01*
X7823Y20432D02*
Y20503D01*
X13503Y23896D02*
X13574D01*
X13538Y23861D02*
Y23932D01*
X7724Y23299D02*
X7795D01*
X7760Y23264D02*
Y23335D01*
X7711Y23604D02*
X7783D01*
X7747Y23568D02*
Y23640D01*
X7889Y23515D02*
X7960D01*
X7925Y23480D02*
Y23551D01*
X8092Y23515D02*
X8164D01*
X8128Y23480D02*
Y23551D01*
X8296Y23515D02*
X8367D01*
X8331Y23480D02*
Y23551D01*
X7699Y23845D02*
X7770D01*
X7734Y23810D02*
Y23881D01*
X6962Y25674D02*
X7033D01*
X6998Y25639D02*
Y25710D01*
X6962Y25928D02*
X7033D01*
X6998Y25893D02*
Y25964D01*
X7216Y25928D02*
X7287D01*
X7252Y25893D02*
Y25964D01*
X7216Y26182D02*
X7287D01*
X7252Y26147D02*
Y26218D01*
X6962Y26182D02*
X7033D01*
X6998Y26147D02*
Y26218D01*
X6708Y26182D02*
X6779D01*
X6744Y26147D02*
Y26218D01*
X5692Y25357D02*
X5763D01*
X5728Y25321D02*
Y25392D01*
X5692Y23515D02*
X5763D01*
X5728Y23480D02*
Y23551D01*
X7508Y21102D02*
X7579D01*
X7544Y21067D02*
Y21138D01*
X6365Y25230D02*
X6436D01*
X6401Y25194D02*
Y25265D01*
X6480Y24709D02*
X6551D01*
X6515Y24673D02*
Y24744D01*
X6835Y24582D02*
X6906D01*
X6871Y24546D02*
Y24617D01*
X5425Y22271D02*
X5497D01*
X5461Y22235D02*
Y22306D01*
X4536Y25674D02*
X4608D01*
X4572Y25639D02*
Y25710D01*
X4663Y25471D02*
X4735D01*
X4699Y25435D02*
Y25506D01*
X7737Y20874D02*
X7808D01*
X7772Y20838D02*
Y20909D01*
X6752Y25211D02*
X6823D01*
X6787Y25176D02*
Y25247D01*
X7521Y20874D02*
X7592D01*
X7557Y20838D02*
Y20909D01*
X7229Y25344D02*
X7300D01*
X7264Y25308D02*
Y25379D01*
X13502Y24557D02*
X13573D01*
X13538Y24521D02*
Y24592D01*
X5972Y25954D02*
X6043D01*
X6007Y25918D02*
Y25989D01*
X5286Y25014D02*
X5357D01*
X5321Y24978D02*
Y25049D01*
X6416Y22296D02*
X6487D01*
X6452Y22260D02*
Y22331D01*
X6289Y23134D02*
X6360D01*
X6325Y23099D02*
Y23170D01*
X6289Y23350D02*
X6360D01*
X6325Y23314D02*
Y23386D01*
X5794Y25140D02*
X5865D01*
X5830Y25105D02*
Y25176D01*
X5997Y25433D02*
X6068D01*
X6033Y25397D02*
Y25468D01*
X6251Y23845D02*
X6322D01*
X6287Y23810D02*
Y23881D01*
X6480Y24137D02*
X6551D01*
X6515Y24102D02*
Y24173D01*
X6378Y25026D02*
X6449D01*
X6414Y24991D02*
Y25062D01*
X4163Y20205D02*
X4483D01*
X4323Y20045D02*
Y20365D01*
X4163Y27205D02*
X4483D01*
X4323Y27045D02*
Y27365D01*
X13163Y27205D02*
X13483D01*
X13323Y27045D02*
Y27365D01*
X13163Y20205D02*
X13483D01*
X13323Y20045D02*
Y20365D01*
M02*
