G04 Layer_Physical_Order=1*
G04 Layer_Color=255*
%FSLAX42Y42*%
%MOMM*%
G71*
G01*
G75*
%ADD10R,1.60X0.90*%
%ADD11R,0.40X1.50*%
%ADD12R,0.90X1.60*%
%ADD13O,1.45X0.30*%
%ADD14O,0.30X1.45*%
%ADD15R,1.00X1.20*%
%ADD16R,0.80X0.80*%
%ADD17R,0.60X0.70*%
%ADD18R,0.60X0.90*%
%ADD19R,0.70X1.20*%
%ADD20R,1.25X1.60*%
%ADD21R,1.80X1.00*%
%ADD22R,1.20X1.00*%
%ADD23R,0.80X0.80*%
%ADD24R,0.90X0.60*%
%ADD25C,0.50*%
%ADD26C,0.30*%
%ADD27C,0.40*%
%ADD28C,0.25*%
G04:AMPARAMS|DCode=29|XSize=1.6mm|YSize=1.6mm|CornerRadius=0.4mm|HoleSize=0mm|Usage=FLASHONLY|Rotation=0.000|XOffset=0mm|YOffset=0mm|HoleType=Round|Shape=RoundedRectangle|*
%AMROUNDEDRECTD29*
21,1,1.60,0.80,0,0,0.0*
21,1,0.80,1.60,0,0,0.0*
1,1,0.80,0.40,-0.40*
1,1,0.80,-0.40,-0.40*
1,1,0.80,-0.40,0.40*
1,1,0.80,0.40,0.40*
%
%ADD29ROUNDEDRECTD29*%
%ADD30C,1.50*%
%ADD31C,1.70*%
%ADD32C,2.00*%
%ADD33C,1.60*%
%ADD34C,2.50*%
%ADD35C,2.17*%
%ADD36R,1.60X1.60*%
G04:AMPARAMS|DCode=37|XSize=1.6mm|YSize=1.6mm|CornerRadius=0.4mm|HoleSize=0mm|Usage=FLASHONLY|Rotation=270.000|XOffset=0mm|YOffset=0mm|HoleType=Round|Shape=RoundedRectangle|*
%AMROUNDEDRECTD37*
21,1,1.60,0.80,0,0,270.0*
21,1,0.80,1.60,0,0,270.0*
1,1,0.80,-0.40,-0.40*
1,1,0.80,-0.40,0.40*
1,1,0.80,0.40,0.40*
1,1,0.80,0.40,-0.40*
%
%ADD37ROUNDEDRECTD37*%
%ADD38C,4.00*%
%ADD39C,1.25*%
G36*
X11364Y4164D02*
X11383Y4149D01*
X11387Y4148D01*
Y4113D01*
X11375D01*
X11357Y4110D01*
X11343Y4100D01*
X11333Y4085D01*
X11329Y4067D01*
X11333Y4050D01*
X11338Y4042D01*
X11333Y4035D01*
X11329Y4017D01*
X11333Y4000D01*
X11338Y3992D01*
X11333Y3985D01*
X11329Y3967D01*
X11333Y3950D01*
X11338Y3942D01*
X11333Y3935D01*
X11329Y3917D01*
X11333Y3900D01*
X11343Y3885D01*
X11348Y3882D01*
Y3853D01*
X11343Y3850D01*
X11333Y3835D01*
X11329Y3817D01*
X11333Y3800D01*
X11338Y3792D01*
X11333Y3785D01*
X11329Y3767D01*
X11333Y3750D01*
X11338Y3742D01*
X11333Y3735D01*
X11329Y3717D01*
X11333Y3700D01*
X11338Y3692D01*
X11333Y3685D01*
X11329Y3667D01*
X11333Y3650D01*
X11338Y3642D01*
X11333Y3635D01*
X11329Y3617D01*
X11333Y3600D01*
X11338Y3592D01*
X11333Y3585D01*
X11329Y3567D01*
X11333Y3550D01*
X11338Y3542D01*
X11333Y3535D01*
X11329Y3517D01*
X11333Y3500D01*
X11343Y3485D01*
X11346Y3483D01*
X11352Y3454D01*
X11351Y3451D01*
X11346Y3445D01*
X11337Y3445D01*
X11321Y3455D01*
X11317Y3460D01*
X11303Y3470D01*
X11285Y3473D01*
X11267Y3470D01*
X11253Y3460D01*
X11249Y3455D01*
X11221D01*
X11217Y3460D01*
X11203Y3470D01*
X11185Y3473D01*
X11167Y3470D01*
X11160Y3465D01*
X11153Y3470D01*
X11135Y3473D01*
X11117Y3470D01*
X11110Y3465D01*
X11103Y3470D01*
X11085Y3473D01*
X11067Y3470D01*
X11060Y3465D01*
X11053Y3470D01*
X11035Y3473D01*
X11017Y3470D01*
X11010Y3465D01*
X11003Y3470D01*
X10985Y3473D01*
X10967Y3470D01*
X10960Y3465D01*
X10953Y3470D01*
X10935Y3473D01*
X10917Y3470D01*
X10910Y3465D01*
X10903Y3470D01*
X10885Y3473D01*
X10867Y3470D01*
X10860Y3465D01*
X10853Y3470D01*
X10835Y3473D01*
X10817Y3470D01*
X10810Y3465D01*
X10803Y3470D01*
X10785Y3473D01*
X10767Y3470D01*
X10760Y3465D01*
X10753Y3470D01*
X10735Y3473D01*
X10717Y3470D01*
X10703Y3460D01*
X10693Y3445D01*
X10689Y3428D01*
Y3400D01*
X10610D01*
Y3472D01*
X10645D01*
X10663Y3475D01*
X10677Y3485D01*
X10687Y3500D01*
X10691Y3517D01*
X10687Y3535D01*
X10677Y3550D01*
X10672Y3553D01*
Y3582D01*
X10677Y3585D01*
X10687Y3600D01*
X10691Y3617D01*
X10687Y3635D01*
X10682Y3642D01*
X10687Y3650D01*
X10691Y3667D01*
X10687Y3685D01*
X10682Y3692D01*
X10687Y3700D01*
X10691Y3717D01*
X10687Y3735D01*
X10682Y3742D01*
X10687Y3750D01*
X10691Y3767D01*
X10687Y3785D01*
X10682Y3792D01*
X10687Y3800D01*
X10691Y3817D01*
X10687Y3835D01*
X10682Y3842D01*
X10687Y3850D01*
X10691Y3867D01*
X10687Y3885D01*
X10682Y3892D01*
X10687Y3900D01*
X10691Y3917D01*
X10687Y3935D01*
X10682Y3942D01*
X10687Y3950D01*
X10691Y3967D01*
X10687Y3985D01*
X10682Y3992D01*
X10687Y4000D01*
X10691Y4017D01*
X10687Y4035D01*
X10682Y4042D01*
X10687Y4050D01*
X10691Y4067D01*
X10687Y4085D01*
X10677Y4100D01*
X10663Y4110D01*
X10645Y4113D01*
X10638D01*
X10638Y4114D01*
X10632Y4138D01*
X10646Y4149D01*
X10661Y4168D01*
X10661Y4169D01*
X10689D01*
Y4158D01*
X10693Y4140D01*
X10703Y4125D01*
X10717Y4115D01*
X10735Y4112D01*
X10753Y4115D01*
X10767Y4125D01*
X10771Y4130D01*
X10799D01*
X10803Y4125D01*
X10817Y4115D01*
X10835Y4112D01*
X10853Y4115D01*
X10860Y4120D01*
X10867Y4115D01*
X10885Y4112D01*
X10903Y4115D01*
X10910Y4120D01*
X10917Y4115D01*
X10935Y4112D01*
X10953Y4115D01*
X10960Y4120D01*
X10967Y4115D01*
X10985Y4112D01*
X11003Y4115D01*
X11010Y4120D01*
X11017Y4115D01*
X11035Y4112D01*
X11053Y4115D01*
X11060Y4120D01*
X11067Y4115D01*
X11085Y4112D01*
X11103Y4115D01*
X11110Y4120D01*
X11117Y4115D01*
X11135Y4112D01*
X11153Y4115D01*
X11160Y4120D01*
X11167Y4115D01*
X11185Y4112D01*
X11203Y4115D01*
X11210Y4120D01*
X11217Y4115D01*
X11235Y4112D01*
X11253Y4115D01*
X11260Y4120D01*
X11267Y4115D01*
X11285Y4112D01*
X11303Y4115D01*
X11317Y4125D01*
X11327Y4140D01*
X11331Y4158D01*
Y4170D01*
X11359D01*
X11364Y4164D01*
D02*
G37*
D10*
X10400Y1750D02*
D03*
Y2040D02*
D03*
D11*
X9820Y3565D02*
D03*
X9755D02*
D03*
X9690D02*
D03*
X9625D02*
D03*
X9560D02*
D03*
X9495D02*
D03*
X9430D02*
D03*
X9365D02*
D03*
X9820Y2915D02*
D03*
X9755D02*
D03*
X9690D02*
D03*
X9625D02*
D03*
X9560D02*
D03*
X9495D02*
D03*
X9430D02*
D03*
X9365D02*
D03*
D12*
X11950Y5140D02*
D03*
X12240Y5140D02*
D03*
X11890Y4530D02*
D03*
X12180D02*
D03*
D13*
X11432Y3517D02*
D03*
Y3567D02*
D03*
Y3617D02*
D03*
Y3667D02*
D03*
Y3717D02*
D03*
Y3767D02*
D03*
Y3817D02*
D03*
Y3867D02*
D03*
Y3917D02*
D03*
Y3967D02*
D03*
Y4017D02*
D03*
Y4067D02*
D03*
X10588D02*
D03*
Y4017D02*
D03*
Y3967D02*
D03*
Y3917D02*
D03*
Y3867D02*
D03*
Y3817D02*
D03*
Y3767D02*
D03*
Y3717D02*
D03*
Y3667D02*
D03*
Y3617D02*
D03*
Y3567D02*
D03*
Y3517D02*
D03*
D14*
X11285Y4215D02*
D03*
X11235D02*
D03*
X11185D02*
D03*
X11135D02*
D03*
X11085D02*
D03*
X11035D02*
D03*
X10985D02*
D03*
X10935D02*
D03*
X10885D02*
D03*
X10835D02*
D03*
X10785D02*
D03*
X10735D02*
D03*
Y3370D02*
D03*
X10785D02*
D03*
X10835D02*
D03*
X10885D02*
D03*
X10935D02*
D03*
X10985D02*
D03*
X11035D02*
D03*
X11085D02*
D03*
X11135D02*
D03*
X11185D02*
D03*
X11235D02*
D03*
X11285D02*
D03*
D15*
X12630Y5210D02*
D03*
Y4930D02*
D03*
D16*
X12440Y4590D02*
D03*
Y4745D02*
D03*
X11390Y3060D02*
D03*
Y3215D02*
D03*
X9980Y3410D02*
D03*
Y3565D02*
D03*
X9220Y3245D02*
D03*
Y3400D02*
D03*
X11600Y3080D02*
D03*
Y2925D02*
D03*
X11680Y4195D02*
D03*
Y4040D02*
D03*
X10420Y3195D02*
D03*
Y3350D02*
D03*
D17*
X11980Y2880D02*
D03*
X11790D02*
D03*
X11885Y3080D02*
D03*
D18*
X12440Y4130D02*
D03*
X12590D02*
D03*
X1610Y4000D02*
D03*
X1760D02*
D03*
X1610Y3500D02*
D03*
X1760D02*
D03*
X1610Y3000D02*
D03*
X1760D02*
D03*
X11790Y2710D02*
D03*
X11940D02*
D03*
X11900Y3960D02*
D03*
X12050D02*
D03*
D19*
X13171Y4440D02*
D03*
X13044D02*
D03*
X12917D02*
D03*
X12790D02*
D03*
X13171Y3920D02*
D03*
X13044D02*
D03*
X12917D02*
D03*
X12790D02*
D03*
D20*
X12060Y3455D02*
D03*
Y3725D02*
D03*
X11840D02*
D03*
Y3455D02*
D03*
D21*
X12280Y3065D02*
D03*
Y3315D02*
D03*
D22*
X12170Y4300D02*
D03*
X11890D02*
D03*
D23*
X12625Y3300D02*
D03*
X12470D02*
D03*
Y3080D02*
D03*
X12625D02*
D03*
X12405Y3460D02*
D03*
X12250D02*
D03*
X12245Y3740D02*
D03*
X12400D02*
D03*
X9945Y2920D02*
D03*
X10100D02*
D03*
X9475Y3800D02*
D03*
X9630D02*
D03*
X9790D02*
D03*
X9945D02*
D03*
X10235Y4220D02*
D03*
X10390D02*
D03*
X12055Y4125D02*
D03*
X11900D02*
D03*
D24*
X12440Y4290D02*
D03*
Y4440D02*
D03*
X11390Y4600D02*
D03*
Y4750D02*
D03*
X11560Y4600D02*
D03*
Y4750D02*
D03*
X11050Y4750D02*
D03*
Y4600D02*
D03*
X10710Y4750D02*
D03*
Y4600D02*
D03*
X11220D02*
D03*
Y4750D02*
D03*
X10880Y4600D02*
D03*
Y4750D02*
D03*
X11080Y3070D02*
D03*
Y2920D02*
D03*
X12160Y2880D02*
D03*
Y2730D02*
D03*
D25*
X10414Y2064D02*
Y2286D01*
X9710Y1360D02*
X10414Y2064D01*
X1470Y1360D02*
X9710D01*
X10400Y500D02*
Y1750D01*
X10100Y4240D02*
X10215D01*
X10235Y4220D01*
X11950Y3590D02*
X12260D01*
X12060Y3600D02*
Y3725D01*
X11840Y3480D02*
X11950Y3590D01*
X12060Y2730D02*
X12160D01*
X12240Y5140D02*
X12420Y4960D01*
Y4930D02*
X12620D01*
X12640Y4700D02*
Y4910D01*
X12420Y4930D02*
Y4960D01*
X12790Y4440D02*
Y4550D01*
X12640Y4700D02*
X12790Y4550D01*
X1550Y3000D02*
X1610D01*
X1190Y2640D02*
X1550Y3000D01*
X1190Y1640D02*
Y2640D01*
Y1640D02*
X1470Y1360D01*
X10414Y2040D02*
X12600D01*
X13140Y2580D01*
X13190D01*
X9220Y3120D02*
Y3245D01*
X12625Y3080D02*
X12750D01*
X12625Y3300D02*
X12750D01*
X11840Y3455D02*
Y3480D01*
X12405Y3460D02*
X12520D01*
Y3720D02*
X12540D01*
X12405D02*
X12520D01*
X10420Y3080D02*
Y3195D01*
Y3060D02*
Y3080D01*
X10100Y2920D02*
X10220D01*
X9945D02*
Y3005D01*
Y2920D02*
X9950Y2925D01*
X11390Y2950D02*
X11415Y2925D01*
X11390Y2950D02*
Y3060D01*
X11680Y4195D02*
Y4320D01*
X11560Y4750D02*
Y4850D01*
X11220Y4750D02*
Y4850D01*
X10880Y4750D02*
Y4860D01*
X11480Y5340D02*
X11850D01*
X11384Y5244D02*
X11480Y5340D01*
X11384Y5150D02*
Y5244D01*
X11950Y5140D02*
Y5240D01*
X11850Y5340D02*
X11950Y5240D01*
X9945Y3800D02*
X10100D01*
X11790Y2880D02*
Y2940D01*
X11730Y3000D02*
X11790Y2940D01*
X11480Y3050D02*
X11530Y3000D01*
X11480Y3050D02*
Y3130D01*
X11395Y3215D02*
X11480Y3130D01*
X11390Y3215D02*
X11395D01*
X11390D02*
Y3360D01*
X11790Y2710D02*
X11790Y2710D01*
Y2880D01*
X12050Y3960D02*
X12160D01*
X12180Y4530D02*
X12190Y4540D01*
X12300D01*
Y4550D01*
X11380Y3370D02*
X11390Y3360D01*
X10395Y4215D02*
X10580D01*
X1610Y3500D02*
Y4000D01*
Y3000D02*
Y3500D01*
X10420Y3350D02*
Y3460D01*
X10390Y4220D02*
X10395Y4215D01*
X11415Y2925D02*
X11600D01*
D26*
X11620Y4450D02*
X11720Y4550D01*
X11280Y4450D02*
X11620D01*
X11185Y4355D02*
X11280Y4450D01*
X11900Y4050D02*
Y4125D01*
X12109Y4050D02*
X12119Y4060D01*
X11900Y4050D02*
X12109D01*
X12119Y4060D02*
X12360D01*
X12700Y3720D01*
X11135Y3285D02*
X11280Y3140D01*
Y2540D02*
Y3140D01*
X11026Y2286D02*
X11280Y2540D01*
X10970Y3150D02*
X11035Y3215D01*
X10970Y2520D02*
Y3150D01*
Y2520D02*
X11010Y2480D01*
X10920Y3171D02*
X10985Y3236D01*
X10920Y2560D02*
Y3171D01*
X10855Y2495D02*
X10920Y2560D01*
X10870Y2890D02*
Y3191D01*
X10530Y2550D02*
X10870Y2890D01*
X10820Y2946D02*
Y3212D01*
X10160Y2286D02*
X10820Y2946D01*
X10870Y3191D02*
X10935Y3256D01*
X10820Y3212D02*
X10835Y3227D01*
X10710Y3170D02*
X10735Y3195D01*
X10710Y3150D02*
Y3170D01*
X10735Y3195D02*
Y3370D01*
X10785Y4105D02*
Y4215D01*
X11338Y3867D02*
X11432D01*
X11235Y3370D02*
Y3475D01*
X10588Y3567D02*
X10697D01*
X11080Y2800D02*
Y2920D01*
X12140Y4290D02*
X12160Y4270D01*
Y4125D02*
Y4270D01*
X12245Y4125D02*
X12280Y4160D01*
X12055Y4125D02*
X12245D01*
X12630Y5210D02*
Y5340D01*
X12140Y4290D02*
X12170Y4280D01*
X12620Y4930D02*
X12640Y4910D01*
X13171Y4440D02*
X13300D01*
X13213Y3343D02*
X13400Y3530D01*
X13190Y3620D02*
Y3740D01*
X13310Y3860D01*
X13400Y3530D02*
Y4120D01*
X13270Y4250D02*
X13400Y4120D01*
X13090Y4250D02*
X13270D01*
X13044Y4296D02*
X13090Y4250D01*
X13310Y3860D02*
Y4090D01*
X13230Y4170D02*
X13310Y4090D01*
X12980Y4170D02*
X13230D01*
X12917Y4233D02*
X12980Y4170D01*
X12917Y4233D02*
Y4440D01*
X13044Y4296D02*
Y4440D01*
X13180Y3929D02*
Y4040D01*
X13130Y4090D02*
X13180Y4040D01*
X12944Y4090D02*
X13130D01*
X13171Y4440D02*
X13180Y4431D01*
X13171Y3920D02*
X13180Y3929D01*
X12917Y4063D02*
X12944Y4090D01*
X12917Y3920D02*
Y4063D01*
X13044Y3804D02*
Y3920D01*
X13010Y3770D02*
X13044Y3804D01*
X12820Y3770D02*
X13010D01*
X12790Y3800D02*
X12820Y3770D01*
X12790Y3800D02*
Y3920D01*
X12630D02*
X12790D01*
X12440Y4110D02*
X12630Y3920D01*
X12440Y4110D02*
Y4130D01*
X12590D02*
Y4220D01*
X12700Y3520D02*
Y3720D01*
Y3520D02*
X13510Y2710D01*
Y1670D02*
Y2710D01*
X10922Y2286D02*
X11026D01*
X10825Y2495D02*
X10855D01*
X10800Y2470D02*
X10825Y2495D01*
X10990Y2460D02*
X11010Y2480D01*
X9660Y2720D02*
X9690Y2750D01*
X9660Y2720D02*
X9680D01*
X9625Y2825D02*
Y2915D01*
X9515Y2715D02*
X9625Y2825D01*
X9380Y2715D02*
X9515D01*
X10530Y2430D02*
Y2550D01*
X13404Y1564D02*
X13510Y1670D01*
X13190Y1564D02*
X13404D01*
X4030Y3150D02*
Y3720D01*
X4530Y4220D01*
X9720D01*
X9660Y3230D02*
X10120D01*
X9560Y3130D02*
X9660Y3230D01*
X9560Y2915D02*
Y3130D01*
X9620Y3290D02*
X10080D01*
X9495Y3165D02*
X9620Y3290D01*
X9495Y2915D02*
Y3165D01*
X10120Y3230D02*
X10220Y3330D01*
X10080Y3290D02*
X10150Y3360D01*
X10220Y3330D02*
Y3585D01*
X10150Y3360D02*
Y3630D01*
X11080Y3070D02*
X11170D01*
X11080Y3070D02*
X11080Y3070D01*
X11290Y4360D02*
X11510D01*
X11235Y4305D02*
X11290Y4360D01*
X11510D02*
X11520Y4350D01*
X10558Y4960D02*
X11010D01*
X10368Y5150D02*
X10558Y4960D01*
X11050Y4750D02*
Y4920D01*
X11010Y4960D02*
X11050Y4920D01*
X11390Y4750D02*
Y4910D01*
X11290Y5010D02*
X11390Y4910D01*
X10762Y5010D02*
X11290D01*
X10622Y5150D02*
X10762Y5010D01*
X10443Y4067D02*
X10588D01*
X10380Y4130D02*
X10443Y4067D01*
X6040Y4130D02*
X10380D01*
X10393Y4017D02*
X10588D01*
X10350Y4060D02*
X10393Y4017D01*
X7140Y4060D02*
X10350D01*
X10352Y3967D02*
X10588D01*
X10330Y3990D02*
X10352Y3967D01*
X7270Y3990D02*
X10330D01*
X5620Y2540D02*
X7140Y4060D01*
X10588Y3967D02*
X10588Y3967D01*
X5730Y2450D02*
X7270Y3990D01*
X5660Y3750D02*
X6040Y4130D01*
X5660Y3150D02*
Y3750D01*
X9720Y4220D02*
X9850Y4350D01*
X9690Y2750D02*
Y2915D01*
X9495Y3465D02*
Y3565D01*
X9420Y3390D02*
X9495Y3465D01*
X9220Y3390D02*
X9420D01*
X9740Y3410D02*
X9980D01*
X9690Y3460D02*
X9740Y3410D01*
X9690Y3460D02*
Y3565D01*
X9980D02*
X9980Y3565D01*
X9820Y3565D02*
X9980D01*
X9790Y3730D02*
Y3800D01*
X9755Y3695D02*
X9790Y3730D01*
X9755Y3565D02*
Y3695D01*
X9475Y3800D02*
X9560Y3715D01*
Y3565D02*
Y3715D01*
X9625Y3795D02*
X9630Y3800D01*
X9625Y3565D02*
Y3795D01*
X10150Y3630D02*
X10338Y3817D01*
X10220Y3585D02*
X10403Y3767D01*
X9850Y4350D02*
X10780D01*
X5875Y2375D02*
X7418Y3917D01*
X10338Y3817D02*
X10588D01*
X5660Y3150D02*
X5900D01*
X4600D02*
X5660D01*
X4030D02*
X4325D01*
X3025D02*
X4030D01*
X3390Y4420D02*
X10790D01*
X2550Y3580D02*
X3390Y4420D01*
X2550Y3325D02*
Y3580D01*
X4460Y2450D02*
X5730D01*
X5875Y2225D02*
Y2375D01*
X4575Y2225D02*
X5875D01*
X3000D02*
X4300D01*
X1425D02*
X2725D01*
X11980Y2880D02*
X12160D01*
X11530Y3000D02*
X11730D01*
X11885Y2765D02*
X11940Y2710D01*
X11885Y2765D02*
Y3080D01*
X11885Y3080D02*
X11885Y3080D01*
X11600Y3080D02*
X11885D01*
X12455Y3315D02*
X12470Y3300D01*
X12280Y3315D02*
X12455D01*
Y3065D02*
X12470Y3080D01*
X12280Y3065D02*
X12455D01*
X12155Y3190D02*
X12280Y3065D01*
X11680Y3190D02*
X12155D01*
X12205Y3240D02*
X12280Y3315D01*
X11720Y3240D02*
X12205D01*
X11432Y3517D02*
X11493D01*
X11520Y3490D01*
Y3230D02*
Y3490D01*
Y3230D02*
X11600Y3150D01*
Y3080D02*
Y3150D01*
X11570Y3300D02*
X11680Y3190D01*
X11570Y3300D02*
Y3580D01*
X11630Y3330D02*
X11720Y3240D01*
X11630Y3330D02*
Y3620D01*
X11900Y3960D02*
Y4042D01*
X12440Y4130D02*
X12440Y4130D01*
Y4290D01*
Y4440D02*
Y4590D01*
X11720Y4550D02*
Y4640D01*
X11825Y4745D01*
X12440D01*
X10580Y4215D02*
X10735D01*
X11890Y4300D02*
Y4530D01*
X11780Y4190D02*
X11890Y4300D01*
X11780Y4140D02*
Y4190D01*
X11680Y4040D02*
X11780Y4140D01*
X11680Y3960D02*
Y4040D01*
X11638Y3917D02*
X11680Y3960D01*
X11432Y3917D02*
X11638D01*
X11885Y4140D02*
X11900Y4125D01*
X11800Y3960D02*
X11900D01*
X11657Y3817D02*
X11800Y3960D01*
X11432Y3817D02*
X11657D01*
X10420Y3617D02*
X10588D01*
X11285Y3370D02*
X11380D01*
X1760Y3000D02*
X1975D01*
X1760Y3500D02*
X1975D01*
X1760Y4000D02*
X1975D01*
X2880Y4470D02*
X10821D01*
X2440Y4030D02*
X2880Y4470D01*
X2440Y3715D02*
Y4030D01*
X2225Y3000D02*
X2550Y3325D01*
X2225Y3500D02*
X2440Y3715D01*
X2225Y4000D02*
X2270D01*
X2790Y4520D01*
X10790Y4420D02*
X10885Y4325D01*
Y4215D02*
Y4325D01*
X10780Y4350D02*
X10835Y4295D01*
X2960Y2540D02*
X5620D01*
X3025Y3150D02*
Y3215D01*
X2725Y2225D02*
Y2305D01*
X2960Y2540D01*
X4300Y2225D02*
Y2290D01*
X4460Y2450D01*
X7418Y3917D02*
X10588D01*
X10821Y4470D02*
X10935Y4356D01*
X2790Y4520D02*
X10870D01*
X10985Y4405D01*
Y4215D02*
Y4405D01*
X10880Y4600D02*
X11035Y4445D01*
Y4215D02*
Y4445D01*
X10935Y4215D02*
Y4356D01*
X10835Y4215D02*
Y4295D01*
X11430Y4230D02*
X11432Y4228D01*
Y4067D02*
Y4228D01*
X10114Y4866D02*
Y5150D01*
Y4866D02*
X10230Y4750D01*
X10710D01*
X10420Y3460D02*
X10478Y3517D01*
X10588D01*
X10403Y3767D02*
X10588D01*
X11135Y3285D02*
Y3370D01*
X10835Y3227D02*
Y3370D01*
X10935Y3256D02*
Y3370D01*
X10985Y3236D02*
Y3370D01*
X11035Y3215D02*
Y3370D01*
X11080Y3070D02*
X11085Y3075D01*
Y3370D01*
X12250Y3720D02*
Y3790D01*
X12180Y3860D02*
X12250Y3790D01*
X11870Y3860D02*
X12180D01*
X11840Y3830D02*
X11870Y3860D01*
X11840Y3725D02*
Y3830D01*
X12060Y3455D02*
X12065Y3460D01*
X12250D01*
X11797Y3767D02*
X11840Y3725D01*
X11432Y3767D02*
X11797D01*
X12060Y3360D02*
Y3455D01*
X12020Y3320D02*
X12060Y3360D01*
X11740Y3320D02*
X12020D01*
X11700Y3360D02*
X11740Y3320D01*
X11700Y3360D02*
Y3630D01*
X11612Y3717D02*
X11700Y3630D01*
X11432Y3717D02*
X11612D01*
X11582Y3667D02*
X11630Y3620D01*
X11432Y3667D02*
X11582D01*
X11532Y3617D02*
X11570Y3580D01*
X11432Y3617D02*
X11532D01*
X11235Y4215D02*
Y4305D01*
X11185Y4215D02*
Y4355D01*
X11390Y4600D02*
X11560D01*
X11390Y4530D02*
Y4600D01*
X11360Y4500D02*
X11390Y4530D01*
X11220Y4500D02*
X11360D01*
X11135Y4415D02*
X11220Y4500D01*
X11135Y4215D02*
Y4415D01*
X11085Y4215D02*
Y4600D01*
X11220D01*
X10710D02*
X10880D01*
D27*
X9820Y2915D02*
X9945D01*
X9755D02*
Y3060D01*
D28*
X1751Y400D02*
X1700Y451D01*
Y502D01*
X1751Y552D01*
X1929Y502D02*
X1852D01*
X1827Y476D01*
Y425D01*
X1852Y400D01*
X1929D01*
X1979D02*
X2030Y451D01*
Y502D01*
X1979Y552D01*
X2259D02*
Y400D01*
Y451D01*
X2360Y552D01*
X2284Y476D01*
X2360Y400D01*
X2436Y502D02*
X2487D01*
X2513Y476D01*
Y400D01*
X2436D01*
X2411Y425D01*
X2436Y451D01*
X2513D01*
X2589Y527D02*
Y502D01*
X2563D01*
X2614D01*
X2589D01*
Y425D01*
X2614Y400D01*
X2690Y502D02*
X2792D01*
X2690Y400D01*
X2792D01*
X2995Y527D02*
X3020Y552D01*
X3071D01*
X3097Y527D01*
Y425D01*
X3071Y400D01*
X3020D01*
X2995Y425D01*
Y527D01*
X3147Y400D02*
X3198D01*
X3173D01*
Y552D01*
X3147Y527D01*
X3274Y400D02*
Y425D01*
X3300D01*
Y400D01*
X3274D01*
X3401D02*
X3452D01*
X3427D01*
Y552D01*
X3401Y527D01*
X3630Y400D02*
X3528D01*
X3630Y502D01*
Y527D01*
X3604Y552D01*
X3554D01*
X3528Y527D01*
X3681Y400D02*
Y425D01*
X3706D01*
Y400D01*
X3681D01*
X3909D02*
X3808D01*
X3909Y502D01*
Y527D01*
X3884Y552D01*
X3833D01*
X3808Y527D01*
X3960D02*
X3985Y552D01*
X4036D01*
X4061Y527D01*
Y425D01*
X4036Y400D01*
X3985D01*
X3960Y425D01*
Y527D01*
X4112Y400D02*
X4163D01*
X4138D01*
Y552D01*
X4112Y527D01*
X4239Y552D02*
X4341D01*
Y527D01*
X4239Y425D01*
Y400D01*
X1802Y827D02*
X1776Y852D01*
X1725D01*
X1700Y827D01*
Y725D01*
X1725Y700D01*
X1776D01*
X1802Y725D01*
X1878Y700D02*
X1929D01*
X1954Y725D01*
Y776D01*
X1929Y802D01*
X1878D01*
X1852Y776D01*
Y725D01*
X1878Y700D01*
X2005D02*
Y802D01*
X2081D01*
X2106Y776D01*
Y700D01*
X2182Y827D02*
Y802D01*
X2157D01*
X2208D01*
X2182D01*
Y725D01*
X2208Y700D01*
X2284Y802D02*
Y700D01*
Y751D01*
X2309Y776D01*
X2335Y802D01*
X2360D01*
X2462Y700D02*
X2513D01*
X2538Y725D01*
Y776D01*
X2513Y802D01*
X2462D01*
X2436Y776D01*
Y725D01*
X2462Y700D01*
X2589D02*
X2639D01*
X2614D01*
Y852D01*
X2589D01*
X2868Y802D02*
Y725D01*
X2893Y700D01*
X2970D01*
Y802D01*
X3020Y700D02*
Y802D01*
X3097D01*
X3122Y776D01*
Y700D01*
X3173D02*
X3224D01*
X3198D01*
Y802D01*
X3173D01*
X3325Y827D02*
Y802D01*
X3300D01*
X3350D01*
X3325D01*
Y725D01*
X3350Y700D01*
X3579Y802D02*
X3630Y700D01*
X3681Y802D01*
X3808Y700D02*
X3757D01*
X3731Y725D01*
Y776D01*
X3757Y802D01*
X3808D01*
X3833Y776D01*
Y751D01*
X3731D01*
X3884Y802D02*
Y700D01*
Y751D01*
X3909Y776D01*
X3934Y802D01*
X3960D01*
X4036Y700D02*
Y725D01*
X4061D01*
Y700D01*
X4036D01*
X4417D02*
X4315D01*
X4417Y802D01*
Y827D01*
X4392Y852D01*
X4341D01*
X4315Y827D01*
X4468Y700D02*
Y725D01*
X4493D01*
Y700D01*
X4468D01*
X4595Y827D02*
X4620Y852D01*
X4671D01*
X4696Y827D01*
Y725D01*
X4671Y700D01*
X4620D01*
X4595Y725D01*
Y827D01*
X4747D02*
X4772Y852D01*
X4823D01*
X4849Y827D01*
Y725D01*
X4823Y700D01*
X4772D01*
X4747Y725D01*
Y827D01*
X1802Y1127D02*
X1776Y1152D01*
X1725D01*
X1700Y1127D01*
Y1025D01*
X1725Y1000D01*
X1776D01*
X1802Y1025D01*
X1954Y1127D02*
X1929Y1152D01*
X1878D01*
X1852Y1127D01*
Y1025D01*
X1878Y1000D01*
X1929D01*
X1954Y1025D01*
Y1076D01*
X1903D01*
X2005D02*
X2106D01*
X2233Y1000D02*
Y1152D01*
X2157Y1076D01*
X2259D01*
X2309Y1127D02*
X2335Y1152D01*
X2386D01*
X2411Y1127D01*
Y1025D01*
X2386Y1000D01*
X2335D01*
X2309Y1025D01*
Y1127D01*
X2462D02*
X2487Y1152D01*
X2538D01*
X2563Y1127D01*
Y1025D01*
X2538Y1000D01*
X2487D01*
X2462Y1025D01*
Y1127D01*
X2614D02*
X2639Y1152D01*
X2690D01*
X2716Y1127D01*
Y1025D01*
X2690Y1000D01*
X2639D01*
X2614Y1025D01*
Y1127D01*
X2919Y1000D02*
Y1152D01*
X2995D01*
X3020Y1127D01*
Y1076D01*
X2995Y1051D01*
X2919D01*
X3071Y1152D02*
Y1000D01*
X3122Y1051D01*
X3173Y1000D01*
Y1152D01*
X3224Y1000D02*
Y1152D01*
X3274Y1102D01*
X3325Y1152D01*
Y1000D01*
X3630Y1102D02*
X3554D01*
X3528Y1076D01*
Y1025D01*
X3554Y1000D01*
X3630D01*
X3681Y1102D02*
Y1025D01*
X3706Y1000D01*
X3782D01*
Y1102D01*
X3833D02*
Y1000D01*
Y1051D01*
X3858Y1076D01*
X3884Y1102D01*
X3909D01*
X3985D02*
Y1000D01*
Y1051D01*
X4011Y1076D01*
X4036Y1102D01*
X4061D01*
X4214Y1000D02*
X4163D01*
X4138Y1025D01*
Y1076D01*
X4163Y1102D01*
X4214D01*
X4239Y1076D01*
Y1051D01*
X4138D01*
X4290Y1000D02*
Y1102D01*
X4366D01*
X4392Y1076D01*
Y1000D01*
X4468Y1127D02*
Y1102D01*
X4442D01*
X4493D01*
X4468D01*
Y1025D01*
X4493Y1000D01*
X4722D02*
X4798D01*
X4823Y1025D01*
X4798Y1051D01*
X4747D01*
X4722Y1076D01*
X4747Y1102D01*
X4823D01*
X4899Y1000D02*
X4950D01*
X4976Y1025D01*
Y1076D01*
X4950Y1102D01*
X4899D01*
X4874Y1076D01*
Y1025D01*
X4899Y1000D01*
X5026Y1102D02*
Y1025D01*
X5052Y1000D01*
X5128D01*
Y1102D01*
X5179D02*
Y1000D01*
Y1051D01*
X5204Y1076D01*
X5229Y1102D01*
X5255D01*
X5433D02*
X5356D01*
X5331Y1076D01*
Y1025D01*
X5356Y1000D01*
X5433D01*
X5560D02*
X5509D01*
X5483Y1025D01*
Y1076D01*
X5509Y1102D01*
X5560D01*
X5585Y1076D01*
Y1051D01*
X5483D01*
D29*
X10400Y500D02*
D03*
X9398Y2286D02*
D03*
X10114Y5150D02*
D03*
X9246Y5140D02*
D03*
D30*
X10654Y500D02*
D03*
D31*
X2225Y4000D02*
D03*
X1975D02*
D03*
X2225Y3000D02*
D03*
X1975D02*
D03*
X2225Y3500D02*
D03*
X1975D02*
D03*
D32*
X5875Y1725D02*
D03*
Y2225D02*
D03*
X4575D02*
D03*
Y1725D02*
D03*
X3025Y3650D02*
D03*
Y3150D02*
D03*
X4325D02*
D03*
Y3650D02*
D03*
X4300Y1725D02*
D03*
Y2225D02*
D03*
X3000D02*
D03*
Y1725D02*
D03*
X2725D02*
D03*
Y2225D02*
D03*
X1425D02*
D03*
Y1725D02*
D03*
X4600Y3650D02*
D03*
Y3150D02*
D03*
X5900D02*
D03*
Y3650D02*
D03*
D33*
X9652Y2286D02*
D03*
X9906D02*
D03*
X10160D02*
D03*
X10414D02*
D03*
X10668D02*
D03*
X10922D02*
D03*
X11638Y5150D02*
D03*
X11384D02*
D03*
X11130D02*
D03*
X10876D02*
D03*
X10368D02*
D03*
X10622D02*
D03*
X9500Y5140D02*
D03*
X9754D02*
D03*
X13190Y2326D02*
D03*
Y2072D02*
D03*
Y1818D02*
D03*
Y1564D02*
D03*
Y1310D02*
D03*
Y3366D02*
D03*
D34*
X7370Y3590D02*
D03*
D35*
Y1590D02*
D03*
D36*
X13190Y2580D02*
D03*
D37*
Y3620D02*
D03*
D38*
X800Y800D02*
D03*
Y4800D02*
D03*
X13200D02*
D03*
Y800D02*
D03*
D39*
X10100Y4240D02*
D03*
X12260Y3590D02*
D03*
X10710Y3150D02*
D03*
X10840Y3950D02*
D03*
X11180Y3620D02*
D03*
Y3950D02*
D03*
X10840Y3610D02*
D03*
X11080Y2800D02*
D03*
X12630Y5340D02*
D03*
X12280Y4160D02*
D03*
X12060Y2730D02*
D03*
X12420Y4930D02*
D03*
X13300Y4440D02*
D03*
X12917Y4063D02*
D03*
X12590Y4240D02*
D03*
X10800Y2470D02*
D03*
X10990Y2460D02*
D03*
X9680Y2720D02*
D03*
X10530Y2430D02*
D03*
X9220Y3120D02*
D03*
X12750Y3080D02*
D03*
Y3300D02*
D03*
X12520Y3460D02*
D03*
Y3720D02*
D03*
X10420Y3080D02*
D03*
X10220Y2920D02*
D03*
X9950Y3030D02*
D03*
X9755Y3060D02*
D03*
X11430Y2920D02*
D03*
X11170Y3070D02*
D03*
X11680Y4320D02*
D03*
X11520Y4350D02*
D03*
X11560Y4850D02*
D03*
X11220D02*
D03*
X10880Y4860D02*
D03*
X9380Y2715D02*
D03*
X10100Y3800D02*
D03*
X12160Y3960D02*
D03*
X12300Y4540D02*
D03*
X10420Y3617D02*
D03*
X11390Y3360D02*
D03*
X10580Y4215D02*
D03*
X11430Y4230D02*
D03*
X10420Y3460D02*
D03*
M02*
