M48
;Layer_Color=9474304
;FILE_FORMAT=4:2
METRIC,LZ
;TYPE=PLATED
T1F00S00C0.50
T2F00S00C0.70
T3F00S00C0.80
T4F00S00C1.10
T5F00S00C1.18
T6F00S00C1.30
T7F00S00C1.50
T8F00S00C3.20
%
T01
X00938Y002715
X00968Y00272
X009755Y00306
X00995Y00303
X01022Y00292
X01042Y00308
X01071Y00315
X01042Y00346
Y003617
X0101Y0038
Y00424
X01058Y004215
X01053Y00243
X00922Y00312
X01117Y00307
X01108Y0028
X01099Y00246
X0108Y00247
X01143Y00292
X01139Y00336
X01118Y00362
Y00395
X01084
Y00361
X01143Y00423
X01228Y00416
X01216Y00396
X01226Y00359
X01252Y00346
Y00372
X01259Y00424
X012917Y004063
X01275Y0033
Y00308
X01206Y00273
X01168Y00432
X01152Y00435
X01156Y00485
X01122
X01088Y00486
X01242Y00493
X0123Y00454
X0133Y00444
X01263Y00534
T02
X0104Y0005
X010654
X010668Y002286
X010414
X01016
X009906
X009652
X009398
X010922
T03
X01319Y00131
Y001564
Y001818
Y002072
Y002326
Y00258
Y003366
Y00362
X011638Y00515
X011384
X01113
X010876
X010622
X010368
X010114
X009754Y00514
X0095
X009246
T04
X001975Y003
X002225
Y0035
X001975
Y004
X002225
T05
X00737Y00159
T06
X001425Y001725
Y002225
X002725
Y001725
X003
Y002225
X003025Y00315
Y00365
X004325
X0046
Y00315
X004325
X0043Y002225
X004575
Y001725
X0043
X005875
Y002225
X0059Y00315
Y00365
T07
X00737Y00359
T08
X0008Y0008
X0132
Y0048
X0008
M30
