G04 Layer_Physical_Order=2*
G04 Layer_Color=16711680*
%FSLAX42Y42*%
%MOMM*%
G71*
G01*
G75*
%ADD25C,0.50*%
%ADD26C,0.30*%
G04:AMPARAMS|DCode=29|XSize=1.6mm|YSize=1.6mm|CornerRadius=0.4mm|HoleSize=0mm|Usage=FLASHONLY|Rotation=0.000|XOffset=0mm|YOffset=0mm|HoleType=Round|Shape=RoundedRectangle|*
%AMROUNDEDRECTD29*
21,1,1.60,0.80,0,0,0.0*
21,1,0.80,1.60,0,0,0.0*
1,1,0.80,0.40,-0.40*
1,1,0.80,-0.40,-0.40*
1,1,0.80,-0.40,0.40*
1,1,0.80,0.40,0.40*
%
%ADD29ROUNDEDRECTD29*%
%ADD30C,1.50*%
%ADD31C,1.70*%
%ADD32C,2.00*%
%ADD33C,1.60*%
%ADD34C,2.50*%
%ADD35C,2.17*%
%ADD36R,1.60X1.60*%
G04:AMPARAMS|DCode=37|XSize=1.6mm|YSize=1.6mm|CornerRadius=0.4mm|HoleSize=0mm|Usage=FLASHONLY|Rotation=270.000|XOffset=0mm|YOffset=0mm|HoleType=Round|Shape=RoundedRectangle|*
%AMROUNDEDRECTD37*
21,1,1.60,0.80,0,0,270.0*
21,1,0.80,1.60,0,0,270.0*
1,1,0.80,-0.40,-0.40*
1,1,0.80,-0.40,0.40*
1,1,0.80,0.40,0.40*
1,1,0.80,0.40,-0.40*
%
%ADD37ROUNDEDRECTD37*%
%ADD38C,4.00*%
%ADD39C,1.25*%
G36*
X13956Y44D02*
X8044D01*
Y1200D01*
X8040Y1217D01*
X8031Y1231D01*
X8017Y1240D01*
X8000Y1244D01*
X6000D01*
X5983Y1240D01*
X5969Y1231D01*
X5960Y1217D01*
X5956Y1200D01*
Y44D01*
X44D01*
Y5456D01*
X13956D01*
Y44D01*
D02*
G37*
%LPC*%
G36*
X11651Y5255D02*
Y5163D01*
X11743D01*
X11741Y5178D01*
X11730Y5203D01*
X11713Y5225D01*
X11691Y5242D01*
X11666Y5253D01*
X11651Y5255D01*
D02*
G37*
G36*
X11625D02*
X11610Y5253D01*
X11585Y5242D01*
X11563Y5225D01*
X11546Y5203D01*
X11535Y5178D01*
X11533Y5163D01*
X11625D01*
Y5255D01*
D02*
G37*
G36*
X9286Y5246D02*
X9259D01*
Y5153D01*
X9352D01*
Y5180D01*
X9350Y5197D01*
X9343Y5213D01*
X9333Y5227D01*
X9319Y5237D01*
X9303Y5244D01*
X9286Y5246D01*
D02*
G37*
G36*
X9233D02*
X9206D01*
X9189Y5244D01*
X9173Y5237D01*
X9159Y5227D01*
X9149Y5213D01*
X9142Y5197D01*
X9140Y5180D01*
Y5153D01*
X9233D01*
Y5246D01*
D02*
G37*
G36*
X11130Y5261D02*
X11101Y5257D01*
X11075Y5246D01*
X11052Y5228D01*
X11034Y5205D01*
X11023Y5179D01*
X11019Y5150D01*
X11023Y5121D01*
X11034Y5095D01*
X11041Y5085D01*
X11022Y5069D01*
X10979Y5112D01*
X10983Y5121D01*
X10987Y5150D01*
X10983Y5179D01*
X10972Y5205D01*
X10954Y5228D01*
X10931Y5246D01*
X10905Y5257D01*
X10876Y5261D01*
X10847Y5257D01*
X10821Y5246D01*
X10798Y5228D01*
X10780Y5205D01*
X10769Y5179D01*
X10765Y5150D01*
X10769Y5121D01*
X10780Y5095D01*
X10798Y5072D01*
X10821Y5054D01*
X10847Y5043D01*
X10876Y5039D01*
X10905Y5043D01*
X10914Y5047D01*
X11014Y4947D01*
Y4600D01*
X11018Y4582D01*
X11028Y4568D01*
X11340Y4255D01*
X11340Y4254D01*
X11337Y4230D01*
X11340Y4206D01*
X11346Y4191D01*
X11334Y4166D01*
X10687D01*
X10670Y4191D01*
X10670Y4191D01*
X10673Y4215D01*
X10670Y4239D01*
X10661Y4262D01*
X10646Y4281D01*
X10627Y4296D01*
X10604Y4305D01*
X10580Y4308D01*
X10556Y4305D01*
X10533Y4296D01*
X10514Y4281D01*
X10499Y4262D01*
X10490Y4239D01*
X10487Y4215D01*
X10490Y4191D01*
X10490Y4191D01*
X10473Y4166D01*
X10410D01*
X10389Y4162D01*
X10370Y4150D01*
X10112Y3892D01*
X10100Y3893D01*
X10076Y3890D01*
X10053Y3881D01*
X10034Y3866D01*
X10019Y3847D01*
X10010Y3824D01*
X10007Y3800D01*
X10010Y3776D01*
X10019Y3753D01*
X10034Y3734D01*
X10044Y3726D01*
Y3203D01*
X9962Y3122D01*
X9950Y3123D01*
X9926Y3120D01*
X9903Y3111D01*
X9884Y3096D01*
X9869Y3077D01*
X9860Y3054D01*
X9857Y3030D01*
X9860Y3006D01*
X9869Y2983D01*
X9884Y2964D01*
X9903Y2949D01*
X9926Y2940D01*
X9950Y2937D01*
X9974Y2940D01*
X9997Y2949D01*
X10016Y2964D01*
X10031Y2983D01*
X10040Y3006D01*
X10043Y3030D01*
X10042Y3042D01*
X10140Y3140D01*
X10152Y3159D01*
X10156Y3180D01*
Y3726D01*
X10166Y3734D01*
X10181Y3753D01*
X10190Y3776D01*
X10193Y3800D01*
X10192Y3812D01*
X10433Y4054D01*
X11334D01*
Y3516D01*
X10494D01*
X10486Y3526D01*
X10486Y3526D01*
Y3541D01*
X10489Y3555D01*
X10501Y3571D01*
X10510Y3593D01*
X10513Y3617D01*
X10510Y3642D01*
X10501Y3664D01*
X10486Y3683D01*
X10467Y3698D01*
X10444Y3708D01*
X10420Y3711D01*
X10396Y3708D01*
X10373Y3698D01*
X10354Y3683D01*
X10339Y3664D01*
X10330Y3642D01*
X10327Y3617D01*
X10327Y3612D01*
X10268Y3552D01*
X10258Y3538D01*
X10254Y3520D01*
Y3400D01*
X10258Y3382D01*
X10268Y3368D01*
X10358Y3278D01*
X10372Y3268D01*
X10390Y3264D01*
X10681D01*
X10686Y3240D01*
X10663Y3231D01*
X10644Y3216D01*
X10629Y3197D01*
X10620Y3174D01*
X10617Y3150D01*
X10620Y3126D01*
X10629Y3103D01*
X10644Y3084D01*
X10663Y3069D01*
X10686Y3060D01*
X10710Y3057D01*
X10734Y3060D01*
X10757Y3069D01*
X10773Y3082D01*
X10988Y2868D01*
X11002Y2858D01*
X11020Y2854D01*
X11270D01*
X11288Y2858D01*
X11302Y2868D01*
X11419Y2984D01*
X12351D01*
X12684Y2651D01*
Y2100D01*
X12688Y2082D01*
X12698Y2068D01*
X12980Y1786D01*
X12994Y1776D01*
X13012Y1772D01*
X13090D01*
X13094Y1763D01*
X13112Y1740D01*
X13135Y1722D01*
X13161Y1711D01*
X13190Y1707D01*
X13219Y1711D01*
X13245Y1722D01*
X13268Y1740D01*
X13286Y1763D01*
X13297Y1789D01*
X13301Y1818D01*
X13297Y1847D01*
X13286Y1873D01*
X13268Y1896D01*
X13245Y1914D01*
X13219Y1925D01*
X13190Y1929D01*
X13161Y1925D01*
X13135Y1914D01*
X13112Y1896D01*
X13094Y1873D01*
X13090Y1864D01*
X13031D01*
X12776Y2119D01*
Y2214D01*
X12801Y2224D01*
X12986Y2040D01*
X13000Y2030D01*
X13018Y2026D01*
X13090D01*
X13094Y2017D01*
X13112Y1994D01*
X13135Y1976D01*
X13161Y1965D01*
X13190Y1961D01*
X13219Y1965D01*
X13245Y1976D01*
X13268Y1994D01*
X13286Y2017D01*
X13297Y2043D01*
X13301Y2072D01*
X13297Y2101D01*
X13286Y2127D01*
X13268Y2150D01*
X13245Y2168D01*
X13219Y2179D01*
X13190Y2183D01*
X13161Y2179D01*
X13135Y2168D01*
X13112Y2150D01*
X13094Y2127D01*
X13090Y2118D01*
X13037D01*
X12856Y2299D01*
Y2407D01*
X12879Y2416D01*
X13002Y2294D01*
X13016Y2284D01*
X13034Y2280D01*
X13090D01*
X13094Y2271D01*
X13112Y2248D01*
X13135Y2230D01*
X13161Y2219D01*
X13190Y2215D01*
X13219Y2219D01*
X13245Y2230D01*
X13268Y2248D01*
X13286Y2271D01*
X13297Y2297D01*
X13301Y2326D01*
X13297Y2355D01*
X13286Y2381D01*
X13268Y2404D01*
X13245Y2422D01*
X13219Y2433D01*
X13190Y2437D01*
X13161Y2433D01*
X13135Y2422D01*
X13112Y2404D01*
X13094Y2381D01*
X13090Y2372D01*
X13053D01*
X12926Y2499D01*
Y2780D01*
X12922Y2798D01*
X12912Y2812D01*
X12522Y3202D01*
X12508Y3212D01*
X12490Y3216D01*
X11280D01*
X11262Y3212D01*
X11248Y3202D01*
X11202Y3157D01*
X11194Y3160D01*
X11170Y3163D01*
X11146Y3160D01*
X11123Y3151D01*
X11104Y3136D01*
X11089Y3117D01*
X11080Y3094D01*
X11079Y3091D01*
X11053Y3082D01*
X10792Y3342D01*
X10778Y3352D01*
X10760Y3356D01*
X10476D01*
X10469Y3374D01*
X10469Y3381D01*
X10486Y3394D01*
X10494Y3404D01*
X11285D01*
X11299Y3379D01*
X11297Y3360D01*
X11300Y3336D01*
X11309Y3313D01*
X11324Y3294D01*
X11343Y3279D01*
X11366Y3270D01*
X11390Y3267D01*
X11414Y3270D01*
X11437Y3279D01*
X11456Y3294D01*
X11471Y3313D01*
X11480Y3336D01*
X11483Y3360D01*
X11480Y3384D01*
X11471Y3407D01*
X11456Y3426D01*
X11446Y3434D01*
Y3460D01*
Y4054D01*
X12044D01*
Y4020D01*
X12048Y3999D01*
X12060Y3980D01*
X12068Y3972D01*
X12067Y3960D01*
X12070Y3936D01*
X12079Y3913D01*
X12094Y3894D01*
X12113Y3879D01*
X12136Y3870D01*
X12160Y3867D01*
X12184Y3870D01*
X12207Y3879D01*
X12226Y3894D01*
X12234Y3904D01*
X12417D01*
X12994Y3327D01*
Y2720D01*
X12998Y2699D01*
X13010Y2680D01*
X13080Y2611D01*
Y2470D01*
X13300D01*
Y2690D01*
X13159D01*
X13106Y2743D01*
Y3260D01*
X13131Y3273D01*
X13135Y3270D01*
X13161Y3259D01*
X13190Y3255D01*
X13219Y3259D01*
X13245Y3270D01*
X13268Y3288D01*
X13286Y3311D01*
X13297Y3337D01*
X13301Y3366D01*
X13297Y3395D01*
X13286Y3421D01*
X13268Y3444D01*
X13245Y3462D01*
X13219Y3473D01*
X13190Y3477D01*
X13161Y3473D01*
X13135Y3462D01*
X13112Y3444D01*
X13094Y3421D01*
X13092Y3417D01*
X13067Y3412D01*
X12480Y4000D01*
X12461Y4012D01*
X12440Y4016D01*
X12234D01*
X12226Y4026D01*
X12207Y4041D01*
X12184Y4050D01*
X12160Y4053D01*
X12156Y4057D01*
Y4147D01*
X12340Y4330D01*
X12352Y4349D01*
X12356Y4370D01*
Y4466D01*
X12366Y4474D01*
X12381Y4493D01*
X12390Y4516D01*
X12393Y4540D01*
X12390Y4564D01*
X12381Y4587D01*
X12366Y4606D01*
X12356Y4614D01*
Y4687D01*
X12460Y4790D01*
X12472Y4809D01*
X12476Y4830D01*
Y4856D01*
X12486Y4864D01*
X12501Y4883D01*
X12510Y4906D01*
X12513Y4930D01*
X12510Y4954D01*
X12501Y4977D01*
X12486Y4996D01*
X12467Y5011D01*
X12444Y5020D01*
X12420Y5023D01*
X12396Y5020D01*
X12373Y5011D01*
X12354Y4996D01*
X12339Y4977D01*
X12330Y4954D01*
X12327Y4930D01*
X12330Y4906D01*
X12339Y4883D01*
X12354Y4864D01*
X12348Y4837D01*
X12260Y4750D01*
X12248Y4731D01*
X12244Y4710D01*
Y4614D01*
X12234Y4606D01*
X12219Y4587D01*
X12210Y4564D01*
X12207Y4540D01*
X12210Y4516D01*
X12219Y4493D01*
X12234Y4474D01*
X12244Y4466D01*
Y4393D01*
X12060Y4210D01*
X12048Y4191D01*
X12044Y4170D01*
Y4166D01*
X11526D01*
X11514Y4191D01*
X11520Y4206D01*
X11523Y4230D01*
X11523Y4234D01*
X11520Y4254D01*
X11543Y4260D01*
X11544Y4260D01*
X11567Y4269D01*
X11586Y4284D01*
X11601Y4303D01*
X11610Y4326D01*
X11613Y4350D01*
X11610Y4374D01*
X11601Y4397D01*
X11586Y4416D01*
X11567Y4431D01*
X11544Y4440D01*
X11533Y4442D01*
X11176Y4799D01*
Y4802D01*
X11172Y4820D01*
X11168Y4826D01*
Y5047D01*
X11185Y5054D01*
X11208Y5072D01*
X11226Y5095D01*
X11237Y5121D01*
X11241Y5150D01*
X11237Y5179D01*
X11226Y5205D01*
X11208Y5228D01*
X11185Y5246D01*
X11159Y5257D01*
X11130Y5261D01*
D02*
G37*
G36*
X9754Y5251D02*
X9725Y5247D01*
X9699Y5236D01*
X9676Y5218D01*
X9658Y5195D01*
X9647Y5169D01*
X9643Y5140D01*
X9647Y5111D01*
X9651Y5102D01*
X9608Y5059D01*
X9589Y5075D01*
X9596Y5085D01*
X9607Y5111D01*
X9611Y5140D01*
X9607Y5169D01*
X9596Y5195D01*
X9578Y5218D01*
X9555Y5236D01*
X9529Y5247D01*
X9500Y5251D01*
X9471Y5247D01*
X9445Y5236D01*
X9422Y5218D01*
X9404Y5195D01*
X9393Y5169D01*
X9389Y5140D01*
X9393Y5111D01*
X9404Y5085D01*
X9422Y5062D01*
X9445Y5044D01*
X9454Y5040D01*
Y2854D01*
X9405Y2805D01*
X9404Y2805D01*
X9380Y2808D01*
X9356Y2805D01*
X9333Y2796D01*
X9314Y2781D01*
X9299Y2762D01*
X9290Y2739D01*
X9287Y2715D01*
X9290Y2691D01*
X9299Y2668D01*
X9314Y2649D01*
X9333Y2634D01*
X9356Y2625D01*
X9380Y2622D01*
X9404Y2625D01*
X9427Y2634D01*
X9446Y2649D01*
X9461Y2668D01*
X9470Y2691D01*
X9473Y2715D01*
X9470Y2739D01*
X9470Y2740D01*
X9512Y2782D01*
X9520Y2782D01*
X9542Y2776D01*
X9548Y2768D01*
X9588Y2727D01*
X9587Y2720D01*
X9590Y2696D01*
X9599Y2673D01*
X9614Y2654D01*
X9633Y2639D01*
X9641Y2636D01*
X9647Y2607D01*
X9567Y2526D01*
X8513D01*
X7512Y3527D01*
X7514Y3530D01*
X7523Y3560D01*
X7526Y3590D01*
X7523Y3620D01*
X7514Y3650D01*
X7500Y3677D01*
X7480Y3700D01*
X7457Y3720D01*
X7430Y3734D01*
X7400Y3743D01*
X7370Y3746D01*
X7340Y3743D01*
X7310Y3734D01*
X7283Y3720D01*
X7260Y3700D01*
X7240Y3677D01*
X7226Y3650D01*
X7217Y3620D01*
X7214Y3590D01*
X7217Y3560D01*
X7226Y3530D01*
X7240Y3503D01*
X7260Y3480D01*
X7283Y3460D01*
X7310Y3446D01*
X7340Y3437D01*
X7370Y3434D01*
X7400Y3437D01*
X7430Y3446D01*
X7433Y3448D01*
X8450Y2430D01*
X8469Y2418D01*
X8490Y2414D01*
X9322D01*
X9327Y2389D01*
X9323Y2387D01*
X9308Y2376D01*
X9297Y2361D01*
X9290Y2344D01*
X9287Y2326D01*
Y2246D01*
X9290Y2228D01*
X9297Y2211D01*
X9308Y2196D01*
X9323Y2185D01*
X9340Y2178D01*
X9358Y2175D01*
X9438D01*
X9456Y2178D01*
X9473Y2185D01*
X9488Y2196D01*
X9499Y2211D01*
X9506Y2228D01*
X9509Y2246D01*
Y2318D01*
X9524Y2335D01*
X9530Y2339D01*
X9545Y2315D01*
X9541Y2286D01*
X9545Y2257D01*
X9556Y2231D01*
X9574Y2208D01*
X9597Y2190D01*
X9623Y2179D01*
X9652Y2175D01*
X9681Y2179D01*
X9707Y2190D01*
X9730Y2208D01*
X9748Y2231D01*
X9759Y2257D01*
X9763Y2286D01*
X9759Y2315D01*
X9748Y2341D01*
X9747Y2342D01*
X9887Y2482D01*
X10003D01*
X10004Y2480D01*
X10012Y2457D01*
X9944Y2389D01*
X9935Y2393D01*
X9906Y2397D01*
X9877Y2393D01*
X9851Y2382D01*
X9828Y2364D01*
X9810Y2341D01*
X9799Y2315D01*
X9795Y2286D01*
X9799Y2257D01*
X9810Y2231D01*
X9828Y2208D01*
X9851Y2190D01*
X9877Y2179D01*
X9906Y2175D01*
X9935Y2179D01*
X9961Y2190D01*
X9984Y2208D01*
X10002Y2231D01*
X10013Y2257D01*
X10017Y2286D01*
X10013Y2315D01*
X10009Y2324D01*
X10052Y2367D01*
X10071Y2351D01*
X10064Y2341D01*
X10053Y2315D01*
X10049Y2286D01*
X10053Y2257D01*
X10064Y2231D01*
X10082Y2208D01*
X10105Y2190D01*
X10131Y2179D01*
X10160Y2175D01*
X10189Y2179D01*
X10215Y2190D01*
X10238Y2208D01*
X10256Y2231D01*
X10267Y2257D01*
X10271Y2286D01*
X10267Y2315D01*
X10256Y2341D01*
X10243Y2359D01*
X10248Y2377D01*
X10254Y2384D01*
X10320D01*
X10326Y2377D01*
X10331Y2359D01*
X10318Y2341D01*
X10307Y2315D01*
X10303Y2286D01*
X10307Y2257D01*
X10318Y2231D01*
X10336Y2208D01*
X10359Y2190D01*
X10385Y2179D01*
X10414Y2175D01*
X10443Y2179D01*
X10469Y2190D01*
X10492Y2208D01*
X10510Y2231D01*
X10521Y2257D01*
X10525Y2286D01*
X10523Y2304D01*
X10540Y2327D01*
X10544Y2328D01*
X10550Y2324D01*
X10564Y2305D01*
X10563Y2299D01*
X10655D01*
Y2391D01*
X10640Y2389D01*
X10640Y2388D01*
X10624Y2402D01*
X10620Y2407D01*
X10623Y2430D01*
X10620Y2454D01*
X10619Y2457D01*
X10636Y2482D01*
X10683D01*
X10707Y2470D01*
X10710Y2446D01*
X10719Y2423D01*
X10734Y2404D01*
X10753Y2389D01*
X10776Y2380D01*
X10800Y2377D01*
X10824Y2380D01*
X10824Y2380D01*
X10840Y2359D01*
X10826Y2341D01*
X10815Y2315D01*
X10811Y2286D01*
X10815Y2257D01*
X10826Y2231D01*
X10844Y2208D01*
X10867Y2190D01*
X10893Y2179D01*
X10922Y2175D01*
X10951Y2179D01*
X10977Y2190D01*
X11000Y2208D01*
X11018Y2231D01*
X11029Y2257D01*
X11033Y2286D01*
X11029Y2315D01*
X11018Y2341D01*
X11015Y2345D01*
X11015Y2350D01*
X11025Y2374D01*
X11037Y2379D01*
X11056Y2394D01*
X11071Y2413D01*
X11080Y2436D01*
X11083Y2460D01*
X11080Y2484D01*
X11071Y2507D01*
X11056Y2526D01*
X11037Y2541D01*
X11014Y2550D01*
X11003Y2552D01*
X10946Y2609D01*
X10956Y2634D01*
X12030D01*
X12050Y2638D01*
X12060Y2637D01*
X12084Y2640D01*
X12107Y2649D01*
X12126Y2664D01*
X12141Y2683D01*
X12150Y2706D01*
X12153Y2730D01*
X12150Y2754D01*
X12141Y2777D01*
X12126Y2796D01*
X12107Y2811D01*
X12084Y2820D01*
X12060Y2823D01*
X12036Y2820D01*
X12013Y2811D01*
X11994Y2796D01*
X11979Y2777D01*
X11970Y2754D01*
X11969Y2746D01*
X9810D01*
X9795Y2743D01*
X9786Y2744D01*
X9765Y2756D01*
X9761Y2767D01*
X9746Y2786D01*
X9727Y2801D01*
X9704Y2810D01*
X9680Y2813D01*
X9656Y2810D01*
X9645Y2806D01*
X9626Y2822D01*
Y4947D01*
X9716Y5037D01*
X9725Y5033D01*
X9754Y5029D01*
X9783Y5033D01*
X9809Y5044D01*
X9832Y5062D01*
X9850Y5085D01*
X9861Y5111D01*
X9865Y5140D01*
X9861Y5169D01*
X9850Y5195D01*
X9832Y5218D01*
X9809Y5236D01*
X9783Y5247D01*
X9754Y5251D01*
D02*
G37*
G36*
X11743Y5137D02*
X11651D01*
Y5045D01*
X11666Y5047D01*
X11691Y5058D01*
X11713Y5075D01*
X11730Y5097D01*
X11741Y5122D01*
X11743Y5137D01*
D02*
G37*
G36*
X11625D02*
X11533D01*
X11535Y5122D01*
X11546Y5097D01*
X11563Y5075D01*
X11585Y5058D01*
X11610Y5047D01*
X11625Y5045D01*
Y5137D01*
D02*
G37*
G36*
X10154Y5261D02*
X10074D01*
X10056Y5258D01*
X10039Y5251D01*
X10024Y5240D01*
X10013Y5225D01*
X10006Y5208D01*
X10003Y5190D01*
Y5110D01*
X10006Y5092D01*
X10013Y5075D01*
X10024Y5060D01*
X10039Y5049D01*
X10056Y5042D01*
X10074Y5039D01*
X10154D01*
X10172Y5042D01*
X10189Y5049D01*
X10204Y5060D01*
X10215Y5075D01*
X10222Y5092D01*
X10225Y5110D01*
Y5190D01*
X10222Y5208D01*
X10215Y5225D01*
X10204Y5240D01*
X10189Y5251D01*
X10172Y5258D01*
X10154Y5261D01*
D02*
G37*
G36*
X11384Y5261D02*
X11355Y5257D01*
X11329Y5246D01*
X11306Y5228D01*
X11288Y5205D01*
X11277Y5179D01*
X11273Y5150D01*
X11277Y5121D01*
X11288Y5095D01*
X11306Y5072D01*
X11329Y5054D01*
X11355Y5043D01*
X11384Y5039D01*
X11413Y5043D01*
X11439Y5054D01*
X11462Y5072D01*
X11480Y5095D01*
X11491Y5121D01*
X11495Y5150D01*
X11491Y5179D01*
X11480Y5205D01*
X11462Y5228D01*
X11439Y5246D01*
X11413Y5257D01*
X11384Y5261D01*
D02*
G37*
G36*
X10622D02*
X10593Y5257D01*
X10567Y5246D01*
X10544Y5228D01*
X10526Y5205D01*
X10515Y5179D01*
X10511Y5150D01*
X10515Y5121D01*
X10526Y5095D01*
X10544Y5072D01*
X10567Y5054D01*
X10593Y5043D01*
X10622Y5039D01*
X10651Y5043D01*
X10677Y5054D01*
X10700Y5072D01*
X10718Y5095D01*
X10729Y5121D01*
X10733Y5150D01*
X10729Y5179D01*
X10718Y5205D01*
X10700Y5228D01*
X10677Y5246D01*
X10651Y5257D01*
X10622Y5261D01*
D02*
G37*
G36*
X10368D02*
X10339Y5257D01*
X10313Y5246D01*
X10290Y5228D01*
X10272Y5205D01*
X10261Y5179D01*
X10257Y5150D01*
X10261Y5121D01*
X10272Y5095D01*
X10290Y5072D01*
X10313Y5054D01*
X10339Y5043D01*
X10368Y5039D01*
X10397Y5043D01*
X10423Y5054D01*
X10446Y5072D01*
X10464Y5095D01*
X10475Y5121D01*
X10479Y5150D01*
X10475Y5179D01*
X10464Y5205D01*
X10446Y5228D01*
X10423Y5246D01*
X10397Y5257D01*
X10368Y5261D01*
D02*
G37*
G36*
X9352Y5127D02*
X9259D01*
Y5034D01*
X9286D01*
X9303Y5036D01*
X9319Y5043D01*
X9333Y5053D01*
X9343Y5067D01*
X9350Y5083D01*
X9352Y5100D01*
Y5127D01*
D02*
G37*
G36*
X9233D02*
X9140D01*
Y5100D01*
X9142Y5083D01*
X9149Y5067D01*
X9159Y5053D01*
X9173Y5043D01*
X9189Y5036D01*
X9206Y5034D01*
X9233D01*
Y5127D01*
D02*
G37*
G36*
X13213Y5025D02*
Y4813D01*
X13425D01*
X13422Y4844D01*
X13409Y4887D01*
X13388Y4926D01*
X13360Y4960D01*
X13326Y4988D01*
X13287Y5009D01*
X13244Y5022D01*
X13213Y5025D01*
D02*
G37*
G36*
X13187D02*
X13156Y5022D01*
X13113Y5009D01*
X13074Y4988D01*
X13040Y4960D01*
X13012Y4926D01*
X12991Y4887D01*
X12978Y4844D01*
X12975Y4813D01*
X13187D01*
Y5025D01*
D02*
G37*
G36*
X813D02*
Y4813D01*
X1025D01*
X1022Y4844D01*
X1009Y4887D01*
X988Y4926D01*
X960Y4960D01*
X926Y4988D01*
X887Y5009D01*
X844Y5022D01*
X813Y5025D01*
D02*
G37*
G36*
X787D02*
X756Y5022D01*
X713Y5009D01*
X674Y4988D01*
X640Y4960D01*
X612Y4926D01*
X591Y4887D01*
X578Y4844D01*
X575Y4813D01*
X787D01*
Y5025D01*
D02*
G37*
G36*
X13425Y4787D02*
X13213D01*
Y4575D01*
X13244Y4578D01*
X13287Y4591D01*
X13326Y4612D01*
X13360Y4640D01*
X13388Y4674D01*
X13409Y4713D01*
X13422Y4756D01*
X13425Y4787D01*
D02*
G37*
G36*
X13187D02*
X12975D01*
X12978Y4756D01*
X12991Y4713D01*
X13012Y4674D01*
X13040Y4640D01*
X13074Y4612D01*
X13113Y4591D01*
X13156Y4578D01*
X13187Y4575D01*
Y4787D01*
D02*
G37*
G36*
X1025D02*
X813D01*
Y4575D01*
X844Y4578D01*
X887Y4591D01*
X926Y4612D01*
X960Y4640D01*
X988Y4674D01*
X1009Y4713D01*
X1022Y4756D01*
X1025Y4787D01*
D02*
G37*
G36*
X787D02*
X575D01*
X578Y4756D01*
X591Y4713D01*
X612Y4674D01*
X640Y4640D01*
X674Y4612D01*
X713Y4591D01*
X756Y4578D01*
X787Y4575D01*
Y4787D01*
D02*
G37*
G36*
X2225Y4116D02*
X2195Y4112D01*
X2167Y4100D01*
X2143Y4082D01*
X2125Y4058D01*
X2113Y4030D01*
X2113Y4027D01*
X2087D01*
X2087Y4030D01*
X2075Y4058D01*
X2057Y4082D01*
X2033Y4100D01*
X2005Y4112D01*
X1975Y4116D01*
X1945Y4112D01*
X1917Y4100D01*
X1893Y4082D01*
X1875Y4058D01*
X1863Y4030D01*
X1859Y4000D01*
X1863Y3970D01*
X1875Y3942D01*
X1893Y3918D01*
X1917Y3900D01*
X1945Y3888D01*
X1975Y3884D01*
X2005Y3888D01*
X2033Y3900D01*
X2057Y3918D01*
X2075Y3942D01*
X2087Y3970D01*
X2087Y3973D01*
X2113D01*
X2113Y3970D01*
X2125Y3942D01*
X2143Y3918D01*
X2167Y3900D01*
X2195Y3888D01*
X2225Y3884D01*
X2255Y3888D01*
X2283Y3900D01*
X2307Y3918D01*
X2325Y3942D01*
X2337Y3970D01*
X2341Y4000D01*
X2337Y4030D01*
X2325Y4058D01*
X2307Y4082D01*
X2283Y4100D01*
X2255Y4112D01*
X2225Y4116D01*
D02*
G37*
G36*
X5913Y3775D02*
Y3663D01*
X6025D01*
X6022Y3683D01*
X6010Y3713D01*
X5989Y3739D01*
X5963Y3760D01*
X5933Y3772D01*
X5913Y3775D01*
D02*
G37*
G36*
X5887D02*
X5867Y3772D01*
X5837Y3760D01*
X5811Y3739D01*
X5790Y3713D01*
X5778Y3683D01*
X5775Y3663D01*
X5887D01*
Y3775D01*
D02*
G37*
G36*
X4613D02*
Y3663D01*
X4725D01*
X4722Y3683D01*
X4710Y3713D01*
X4689Y3739D01*
X4663Y3760D01*
X4633Y3772D01*
X4613Y3775D01*
D02*
G37*
G36*
X4312D02*
X4292Y3772D01*
X4262Y3760D01*
X4236Y3739D01*
X4215Y3713D01*
X4203Y3683D01*
X4200Y3663D01*
X4312D01*
Y3775D01*
D02*
G37*
G36*
X3038D02*
Y3663D01*
X3150D01*
X3147Y3683D01*
X3135Y3713D01*
X3114Y3739D01*
X3088Y3760D01*
X3058Y3772D01*
X3038Y3775D01*
D02*
G37*
G36*
X3012D02*
X2992Y3772D01*
X2962Y3760D01*
X2936Y3739D01*
X2915Y3713D01*
X2903Y3683D01*
X2900Y3663D01*
X3012D01*
Y3775D01*
D02*
G37*
G36*
X4587D02*
X4567Y3772D01*
X4537Y3760D01*
X4511Y3739D01*
X4490Y3713D01*
X4478Y3683D01*
X4475Y3663D01*
X4475Y3662D01*
X4450D01*
X4450Y3663D01*
X4447Y3683D01*
X4435Y3713D01*
X4414Y3739D01*
X4388Y3760D01*
X4358Y3772D01*
X4338Y3775D01*
Y3650D01*
Y3525D01*
X4358Y3528D01*
X4388Y3540D01*
X4414Y3561D01*
X4435Y3587D01*
X4447Y3617D01*
X4450Y3637D01*
X4450Y3638D01*
X4475D01*
X4475Y3637D01*
X4478Y3617D01*
X4490Y3587D01*
X4511Y3561D01*
X4537Y3540D01*
X4567Y3528D01*
X4587Y3525D01*
Y3650D01*
Y3775D01*
D02*
G37*
G36*
X2225Y3616D02*
X2195Y3612D01*
X2167Y3600D01*
X2143Y3582D01*
X2125Y3558D01*
X2113Y3530D01*
X2113Y3527D01*
X2087D01*
X2087Y3530D01*
X2075Y3558D01*
X2057Y3582D01*
X2033Y3600D01*
X2005Y3612D01*
X1975Y3616D01*
X1945Y3612D01*
X1917Y3600D01*
X1893Y3582D01*
X1875Y3558D01*
X1863Y3530D01*
X1859Y3500D01*
X1863Y3470D01*
X1875Y3442D01*
X1893Y3418D01*
X1917Y3400D01*
X1945Y3388D01*
X1975Y3384D01*
X2005Y3388D01*
X2033Y3400D01*
X2057Y3418D01*
X2075Y3442D01*
X2087Y3470D01*
X2087Y3473D01*
X2113D01*
X2113Y3470D01*
X2125Y3442D01*
X2143Y3418D01*
X2167Y3400D01*
X2195Y3388D01*
X2225Y3384D01*
X2255Y3388D01*
X2283Y3400D01*
X2307Y3418D01*
X2325Y3442D01*
X2337Y3470D01*
X2341Y3500D01*
X2337Y3530D01*
X2325Y3558D01*
X2307Y3582D01*
X2283Y3600D01*
X2255Y3612D01*
X2225Y3616D01*
D02*
G37*
G36*
X3150Y3637D02*
X3038D01*
Y3525D01*
X3058Y3528D01*
X3088Y3540D01*
X3114Y3561D01*
X3135Y3587D01*
X3147Y3617D01*
X3150Y3637D01*
D02*
G37*
G36*
X3012D02*
X2900D01*
X2903Y3617D01*
X2915Y3587D01*
X2936Y3561D01*
X2962Y3540D01*
X2992Y3528D01*
X3012Y3525D01*
Y3637D01*
D02*
G37*
G36*
X6025D02*
X5913D01*
Y3525D01*
X5933Y3528D01*
X5963Y3540D01*
X5989Y3561D01*
X6010Y3587D01*
X6022Y3617D01*
X6025Y3637D01*
D02*
G37*
G36*
X5887D02*
X5775D01*
X5778Y3617D01*
X5790Y3587D01*
X5811Y3561D01*
X5837Y3540D01*
X5867Y3528D01*
X5887Y3525D01*
Y3637D01*
D02*
G37*
G36*
X4725D02*
X4613D01*
Y3525D01*
X4633Y3528D01*
X4663Y3540D01*
X4689Y3561D01*
X4710Y3587D01*
X4722Y3617D01*
X4725Y3637D01*
D02*
G37*
G36*
X4312D02*
X4200D01*
X4203Y3617D01*
X4215Y3587D01*
X4236Y3561D01*
X4262Y3540D01*
X4292Y3528D01*
X4312Y3525D01*
Y3637D01*
D02*
G37*
G36*
X13230Y3731D02*
X13150D01*
X13132Y3728D01*
X13115Y3721D01*
X13100Y3710D01*
X13089Y3695D01*
X13082Y3678D01*
X13079Y3660D01*
Y3580D01*
X13082Y3562D01*
X13089Y3545D01*
X13100Y3530D01*
X13115Y3519D01*
X13132Y3512D01*
X13150Y3509D01*
X13230D01*
X13248Y3512D01*
X13265Y3519D01*
X13280Y3530D01*
X13291Y3545D01*
X13298Y3562D01*
X13301Y3580D01*
Y3660D01*
X13298Y3678D01*
X13291Y3695D01*
X13280Y3710D01*
X13265Y3721D01*
X13248Y3728D01*
X13230Y3731D01*
D02*
G37*
G36*
X4600Y3281D02*
X4566Y3277D01*
X4534Y3264D01*
X4507Y3243D01*
X4486Y3216D01*
X4475Y3189D01*
X4468Y3187D01*
X4457D01*
X4450Y3189D01*
X4439Y3216D01*
X4418Y3243D01*
X4391Y3264D01*
X4359Y3277D01*
X4325Y3281D01*
X4291Y3277D01*
X4259Y3264D01*
X4232Y3243D01*
X4211Y3216D01*
X4198Y3184D01*
X4194Y3150D01*
X4198Y3116D01*
X4211Y3084D01*
X4232Y3057D01*
X4259Y3036D01*
X4291Y3023D01*
X4325Y3019D01*
X4359Y3023D01*
X4391Y3036D01*
X4418Y3057D01*
X4439Y3084D01*
X4450Y3111D01*
X4457Y3113D01*
X4468D01*
X4475Y3111D01*
X4486Y3084D01*
X4507Y3057D01*
X4534Y3036D01*
X4566Y3023D01*
X4600Y3019D01*
X4634Y3023D01*
X4666Y3036D01*
X4693Y3057D01*
X4714Y3084D01*
X4727Y3116D01*
X4731Y3150D01*
X4727Y3184D01*
X4714Y3216D01*
X4693Y3243D01*
X4666Y3264D01*
X4634Y3277D01*
X4600Y3281D01*
D02*
G37*
G36*
X2225Y3116D02*
X2195Y3112D01*
X2167Y3100D01*
X2143Y3082D01*
X2125Y3058D01*
X2113Y3030D01*
X2113Y3027D01*
X2087D01*
X2087Y3030D01*
X2075Y3058D01*
X2057Y3082D01*
X2033Y3100D01*
X2005Y3112D01*
X1975Y3116D01*
X1945Y3112D01*
X1917Y3100D01*
X1893Y3082D01*
X1875Y3058D01*
X1863Y3030D01*
X1859Y3000D01*
X1863Y2970D01*
X1875Y2942D01*
X1893Y2918D01*
X1917Y2900D01*
X1945Y2888D01*
X1975Y2884D01*
X2005Y2888D01*
X2033Y2900D01*
X2057Y2918D01*
X2075Y2942D01*
X2087Y2970D01*
X2087Y2973D01*
X2113D01*
X2113Y2970D01*
X2125Y2942D01*
X2143Y2918D01*
X2167Y2900D01*
X2195Y2888D01*
X2225Y2884D01*
X2255Y2888D01*
X2283Y2900D01*
X2307Y2918D01*
X2325Y2942D01*
X2337Y2970D01*
X2341Y3000D01*
X2337Y3030D01*
X2325Y3058D01*
X2307Y3082D01*
X2283Y3100D01*
X2255Y3112D01*
X2225Y3116D01*
D02*
G37*
G36*
X5900Y3281D02*
X5866Y3277D01*
X5834Y3264D01*
X5807Y3243D01*
X5786Y3216D01*
X5773Y3184D01*
X5769Y3150D01*
X5773Y3116D01*
X5786Y3084D01*
X5807Y3057D01*
X5834Y3036D01*
X5866Y3023D01*
X5900Y3019D01*
X5934Y3023D01*
X5966Y3036D01*
X5993Y3057D01*
X6014Y3084D01*
X6027Y3116D01*
X6031Y3150D01*
X6027Y3184D01*
X6014Y3216D01*
X5993Y3243D01*
X5966Y3264D01*
X5934Y3277D01*
X5900Y3281D01*
D02*
G37*
G36*
X3025D02*
X2991Y3277D01*
X2959Y3264D01*
X2932Y3243D01*
X2911Y3216D01*
X2898Y3184D01*
X2894Y3150D01*
X2898Y3116D01*
X2911Y3084D01*
X2932Y3057D01*
X2959Y3036D01*
X2991Y3023D01*
X3025Y3019D01*
X3059Y3023D01*
X3091Y3036D01*
X3118Y3057D01*
X3139Y3084D01*
X3152Y3116D01*
X3156Y3150D01*
X3152Y3184D01*
X3139Y3216D01*
X3118Y3243D01*
X3091Y3264D01*
X3059Y3277D01*
X3025Y3281D01*
D02*
G37*
G36*
X10681Y2391D02*
Y2299D01*
X10773D01*
X10771Y2314D01*
X10760Y2339D01*
X10743Y2361D01*
X10721Y2378D01*
X10696Y2389D01*
X10681Y2391D01*
D02*
G37*
G36*
X4575Y2356D02*
X4541Y2352D01*
X4509Y2339D01*
X4482Y2318D01*
X4461Y2291D01*
X4450Y2264D01*
X4443Y2262D01*
X4432D01*
X4425Y2264D01*
X4414Y2291D01*
X4393Y2318D01*
X4366Y2339D01*
X4334Y2352D01*
X4300Y2356D01*
X4266Y2352D01*
X4234Y2339D01*
X4207Y2318D01*
X4186Y2291D01*
X4173Y2259D01*
X4169Y2225D01*
X4173Y2191D01*
X4186Y2159D01*
X4207Y2132D01*
X4234Y2111D01*
X4266Y2098D01*
X4300Y2094D01*
X4334Y2098D01*
X4366Y2111D01*
X4393Y2132D01*
X4414Y2159D01*
X4425Y2186D01*
X4432Y2188D01*
X4443D01*
X4450Y2186D01*
X4461Y2159D01*
X4482Y2132D01*
X4509Y2111D01*
X4541Y2098D01*
X4575Y2094D01*
X4609Y2098D01*
X4641Y2111D01*
X4668Y2132D01*
X4689Y2159D01*
X4702Y2191D01*
X4706Y2225D01*
X4702Y2259D01*
X4689Y2291D01*
X4668Y2318D01*
X4641Y2339D01*
X4609Y2352D01*
X4575Y2356D01*
D02*
G37*
G36*
X3000D02*
X2966Y2352D01*
X2934Y2339D01*
X2907Y2318D01*
X2886Y2291D01*
X2875Y2264D01*
X2868Y2262D01*
X2857D01*
X2850Y2264D01*
X2839Y2291D01*
X2818Y2318D01*
X2791Y2339D01*
X2759Y2352D01*
X2725Y2356D01*
X2691Y2352D01*
X2659Y2339D01*
X2632Y2318D01*
X2611Y2291D01*
X2598Y2259D01*
X2594Y2225D01*
X2598Y2191D01*
X2611Y2159D01*
X2632Y2132D01*
X2659Y2111D01*
X2691Y2098D01*
X2725Y2094D01*
X2759Y2098D01*
X2791Y2111D01*
X2818Y2132D01*
X2839Y2159D01*
X2850Y2186D01*
X2857Y2188D01*
X2868D01*
X2875Y2186D01*
X2886Y2159D01*
X2907Y2132D01*
X2934Y2111D01*
X2966Y2098D01*
X3000Y2094D01*
X3034Y2098D01*
X3066Y2111D01*
X3093Y2132D01*
X3114Y2159D01*
X3127Y2191D01*
X3131Y2225D01*
X3127Y2259D01*
X3114Y2291D01*
X3093Y2318D01*
X3066Y2339D01*
X3034Y2352D01*
X3000Y2356D01*
D02*
G37*
G36*
X10773Y2273D02*
X10681D01*
Y2181D01*
X10696Y2183D01*
X10721Y2194D01*
X10743Y2211D01*
X10760Y2233D01*
X10771Y2258D01*
X10773Y2273D01*
D02*
G37*
G36*
X10655D02*
X10563D01*
X10565Y2258D01*
X10576Y2233D01*
X10593Y2211D01*
X10615Y2194D01*
X10640Y2183D01*
X10655Y2181D01*
Y2273D01*
D02*
G37*
G36*
X5875Y2356D02*
X5841Y2352D01*
X5809Y2339D01*
X5782Y2318D01*
X5761Y2291D01*
X5748Y2259D01*
X5744Y2225D01*
X5748Y2191D01*
X5761Y2159D01*
X5782Y2132D01*
X5809Y2111D01*
X5841Y2098D01*
X5875Y2094D01*
X5909Y2098D01*
X5941Y2111D01*
X5968Y2132D01*
X5989Y2159D01*
X6002Y2191D01*
X6006Y2225D01*
X6002Y2259D01*
X5989Y2291D01*
X5968Y2318D01*
X5941Y2339D01*
X5909Y2352D01*
X5875Y2356D01*
D02*
G37*
G36*
X1425D02*
X1391Y2352D01*
X1359Y2339D01*
X1332Y2318D01*
X1311Y2291D01*
X1298Y2259D01*
X1294Y2225D01*
X1298Y2191D01*
X1311Y2159D01*
X1332Y2132D01*
X1359Y2111D01*
X1391Y2098D01*
X1425Y2094D01*
X1459Y2098D01*
X1491Y2111D01*
X1518Y2132D01*
X1539Y2159D01*
X1552Y2191D01*
X1556Y2225D01*
X1552Y2259D01*
X1539Y2291D01*
X1518Y2318D01*
X1491Y2339D01*
X1459Y2352D01*
X1425Y2356D01*
D02*
G37*
G36*
X4588Y1850D02*
Y1738D01*
X4700D01*
X4697Y1758D01*
X4685Y1788D01*
X4664Y1814D01*
X4638Y1835D01*
X4608Y1847D01*
X4588Y1850D01*
D02*
G37*
G36*
X1438D02*
Y1738D01*
X1550D01*
X1547Y1758D01*
X1535Y1788D01*
X1514Y1814D01*
X1488Y1835D01*
X1458Y1847D01*
X1438Y1850D01*
D02*
G37*
G36*
X3013D02*
Y1738D01*
X3125D01*
X3122Y1758D01*
X3110Y1788D01*
X3089Y1814D01*
X3063Y1835D01*
X3033Y1847D01*
X3013Y1850D01*
D02*
G37*
G36*
X5888Y1850D02*
Y1738D01*
X6000D01*
X5997Y1758D01*
X5985Y1788D01*
X5964Y1814D01*
X5938Y1835D01*
X5908Y1847D01*
X5888Y1850D01*
D02*
G37*
G36*
X5862Y1850D02*
X5842Y1847D01*
X5812Y1835D01*
X5786Y1814D01*
X5765Y1788D01*
X5753Y1758D01*
X5750Y1738D01*
X5862D01*
Y1850D01*
D02*
G37*
G36*
X1412D02*
X1392Y1847D01*
X1362Y1835D01*
X1336Y1814D01*
X1315Y1788D01*
X1303Y1758D01*
X1300Y1738D01*
X1412D01*
Y1850D01*
D02*
G37*
G36*
X2712D02*
X2692Y1847D01*
X2662Y1835D01*
X2636Y1814D01*
X2615Y1788D01*
X2603Y1758D01*
X2600Y1738D01*
X2712D01*
Y1850D01*
D02*
G37*
G36*
X4287Y1850D02*
X4267Y1847D01*
X4237Y1835D01*
X4211Y1814D01*
X4190Y1788D01*
X4178Y1758D01*
X4175Y1738D01*
X4287D01*
Y1850D01*
D02*
G37*
G36*
X4562Y1850D02*
X4542Y1847D01*
X4512Y1835D01*
X4486Y1814D01*
X4465Y1788D01*
X4453Y1758D01*
X4450Y1738D01*
X4450Y1737D01*
X4425D01*
X4425Y1738D01*
X4422Y1758D01*
X4410Y1788D01*
X4389Y1814D01*
X4363Y1835D01*
X4333Y1847D01*
X4313Y1850D01*
Y1725D01*
Y1600D01*
X4333Y1603D01*
X4363Y1615D01*
X4389Y1636D01*
X4410Y1662D01*
X4422Y1692D01*
X4425Y1712D01*
X4425Y1713D01*
X4450D01*
X4450Y1712D01*
X4453Y1692D01*
X4465Y1662D01*
X4486Y1636D01*
X4512Y1615D01*
X4542Y1603D01*
X4562Y1600D01*
Y1725D01*
Y1850D01*
D02*
G37*
G36*
X7383Y1723D02*
Y1603D01*
X7503D01*
X7500Y1625D01*
X7487Y1658D01*
X7465Y1685D01*
X7438Y1707D01*
X7405Y1720D01*
X7383Y1723D01*
D02*
G37*
G36*
X7357D02*
X7335Y1720D01*
X7302Y1707D01*
X7275Y1685D01*
X7253Y1658D01*
X7240Y1625D01*
X7237Y1603D01*
X7357D01*
Y1723D01*
D02*
G37*
G36*
X4700Y1712D02*
X4588D01*
Y1600D01*
X4608Y1603D01*
X4638Y1615D01*
X4664Y1636D01*
X4685Y1662D01*
X4697Y1692D01*
X4700Y1712D01*
D02*
G37*
G36*
X5862D02*
X5750D01*
X5753Y1692D01*
X5765Y1662D01*
X5786Y1636D01*
X5812Y1615D01*
X5842Y1603D01*
X5862Y1600D01*
Y1712D01*
D02*
G37*
G36*
X3125D02*
X3013D01*
Y1600D01*
X3033Y1603D01*
X3063Y1615D01*
X3089Y1636D01*
X3110Y1662D01*
X3122Y1692D01*
X3125Y1712D01*
D02*
G37*
G36*
X1550D02*
X1438D01*
Y1600D01*
X1458Y1603D01*
X1488Y1615D01*
X1514Y1636D01*
X1535Y1662D01*
X1547Y1692D01*
X1550Y1712D01*
D02*
G37*
G36*
X2738Y1850D02*
Y1725D01*
Y1600D01*
X2758Y1603D01*
X2788Y1615D01*
X2814Y1636D01*
X2835Y1662D01*
X2847Y1692D01*
X2850Y1712D01*
X2850Y1713D01*
X2875D01*
X2875Y1712D01*
X2878Y1692D01*
X2890Y1662D01*
X2911Y1636D01*
X2937Y1615D01*
X2967Y1603D01*
X2987Y1600D01*
Y1725D01*
Y1850D01*
X2967Y1847D01*
X2937Y1835D01*
X2911Y1814D01*
X2890Y1788D01*
X2878Y1758D01*
X2875Y1738D01*
X2875Y1737D01*
X2850D01*
X2850Y1738D01*
X2847Y1758D01*
X2835Y1788D01*
X2814Y1814D01*
X2788Y1835D01*
X2758Y1847D01*
X2738Y1850D01*
D02*
G37*
G36*
X2712Y1712D02*
X2600D01*
X2603Y1692D01*
X2615Y1662D01*
X2636Y1636D01*
X2662Y1615D01*
X2692Y1603D01*
X2712Y1600D01*
Y1712D01*
D02*
G37*
G36*
X1412D02*
X1300D01*
X1303Y1692D01*
X1315Y1662D01*
X1336Y1636D01*
X1362Y1615D01*
X1392Y1603D01*
X1412Y1600D01*
Y1712D01*
D02*
G37*
G36*
X6000D02*
X5888D01*
Y1600D01*
X5908Y1603D01*
X5938Y1615D01*
X5964Y1636D01*
X5985Y1662D01*
X5997Y1692D01*
X6000Y1712D01*
D02*
G37*
G36*
X4287D02*
X4175D01*
X4178Y1692D01*
X4190Y1662D01*
X4211Y1636D01*
X4237Y1615D01*
X4267Y1603D01*
X4287Y1600D01*
Y1712D01*
D02*
G37*
G36*
X7357Y1577D02*
X7237D01*
X7240Y1555D01*
X7253Y1522D01*
X7275Y1495D01*
X7302Y1473D01*
X7335Y1460D01*
X7357Y1457D01*
Y1577D01*
D02*
G37*
G36*
X7503D02*
X7383D01*
Y1457D01*
X7405Y1460D01*
X7438Y1473D01*
X7465Y1495D01*
X7487Y1522D01*
X7500Y1555D01*
X7503Y1577D01*
D02*
G37*
G36*
X13190Y1675D02*
X13161Y1671D01*
X13135Y1660D01*
X13112Y1642D01*
X13094Y1619D01*
X13083Y1593D01*
X13079Y1564D01*
X13083Y1535D01*
X13094Y1509D01*
X13112Y1486D01*
X13135Y1468D01*
X13161Y1457D01*
X13190Y1453D01*
X13219Y1457D01*
X13245Y1468D01*
X13268Y1486D01*
X13286Y1509D01*
X13297Y1535D01*
X13301Y1564D01*
X13297Y1593D01*
X13286Y1619D01*
X13268Y1642D01*
X13245Y1660D01*
X13219Y1671D01*
X13190Y1675D01*
D02*
G37*
G36*
X13203Y1415D02*
Y1323D01*
X13295D01*
X13293Y1338D01*
X13282Y1363D01*
X13265Y1385D01*
X13243Y1402D01*
X13218Y1413D01*
X13203Y1415D01*
D02*
G37*
G36*
X13177Y1415D02*
X13162Y1413D01*
X13137Y1402D01*
X13115Y1385D01*
X13098Y1363D01*
X13087Y1338D01*
X13085Y1323D01*
X13177D01*
Y1415D01*
D02*
G37*
G36*
X13295Y1297D02*
X13203D01*
Y1205D01*
X13218Y1207D01*
X13243Y1218D01*
X13265Y1235D01*
X13282Y1257D01*
X13293Y1282D01*
X13295Y1297D01*
D02*
G37*
G36*
X13177D02*
X13085D01*
X13087Y1282D01*
X13098Y1257D01*
X13115Y1235D01*
X13137Y1218D01*
X13162Y1207D01*
X13177Y1205D01*
Y1297D01*
D02*
G37*
G36*
X13213Y1025D02*
Y813D01*
X13425D01*
X13422Y844D01*
X13409Y887D01*
X13388Y926D01*
X13360Y960D01*
X13326Y988D01*
X13287Y1009D01*
X13244Y1022D01*
X13213Y1025D01*
D02*
G37*
G36*
X13187D02*
X13156Y1022D01*
X13113Y1009D01*
X13074Y988D01*
X13040Y960D01*
X13012Y926D01*
X12991Y887D01*
X12978Y844D01*
X12975Y813D01*
X13187D01*
Y1025D01*
D02*
G37*
G36*
X813D02*
Y813D01*
X1025D01*
X1022Y844D01*
X1009Y887D01*
X988Y926D01*
X960Y960D01*
X926Y988D01*
X887Y1009D01*
X844Y1022D01*
X813Y1025D01*
D02*
G37*
G36*
X787D02*
X756Y1022D01*
X713Y1009D01*
X674Y988D01*
X640Y960D01*
X612Y926D01*
X591Y887D01*
X578Y844D01*
X575Y813D01*
X787D01*
Y1025D01*
D02*
G37*
G36*
X1025Y787D02*
X813D01*
Y575D01*
X844Y578D01*
X887Y591D01*
X926Y612D01*
X960Y640D01*
X988Y674D01*
X1009Y713D01*
X1022Y756D01*
X1025Y787D01*
D02*
G37*
G36*
X787D02*
X575D01*
X578Y756D01*
X591Y713D01*
X612Y674D01*
X640Y640D01*
X674Y612D01*
X713Y591D01*
X756Y578D01*
X787Y575D01*
Y787D01*
D02*
G37*
G36*
X13425D02*
X13213D01*
Y575D01*
X13244Y578D01*
X13287Y591D01*
X13326Y612D01*
X13360Y640D01*
X13388Y674D01*
X13409Y713D01*
X13422Y756D01*
X13425Y787D01*
D02*
G37*
G36*
X13187D02*
X12975D01*
X12978Y756D01*
X12991Y713D01*
X13012Y674D01*
X13040Y640D01*
X13074Y612D01*
X13113Y591D01*
X13156Y578D01*
X13187Y575D01*
Y787D01*
D02*
G37*
G36*
X10667Y600D02*
Y513D01*
X10754D01*
X10752Y526D01*
X10742Y551D01*
X10726Y572D01*
X10705Y588D01*
X10680Y598D01*
X10667Y600D01*
D02*
G37*
G36*
X10641D02*
X10628Y598D01*
X10603Y588D01*
X10582Y572D01*
X10566Y551D01*
X10556Y526D01*
X10554Y513D01*
X10641D01*
Y600D01*
D02*
G37*
G36*
X10754Y487D02*
X10667D01*
Y400D01*
X10680Y402D01*
X10705Y412D01*
X10726Y428D01*
X10742Y449D01*
X10752Y474D01*
X10754Y487D01*
D02*
G37*
G36*
X10641D02*
X10554D01*
X10556Y474D01*
X10566Y449D01*
X10582Y428D01*
X10603Y412D01*
X10628Y402D01*
X10641Y400D01*
Y487D01*
D02*
G37*
G36*
X10440Y611D02*
X10360D01*
X10342Y608D01*
X10325Y601D01*
X10310Y590D01*
X10299Y575D01*
X10292Y558D01*
X10289Y540D01*
Y460D01*
X10292Y442D01*
X10299Y425D01*
X10310Y410D01*
X10325Y399D01*
X10342Y392D01*
X10360Y389D01*
X10440D01*
X10458Y392D01*
X10475Y399D01*
X10490Y410D01*
X10501Y425D01*
X10508Y442D01*
X10511Y460D01*
Y540D01*
X10508Y558D01*
X10501Y575D01*
X10490Y590D01*
X10475Y601D01*
X10458Y608D01*
X10440Y611D01*
D02*
G37*
%LPD*%
D25*
X9590Y2470D02*
X9810Y2690D01*
X8490Y2470D02*
X9590D01*
X9810Y2690D02*
X12030D01*
X12440Y3960D02*
X13050Y3350D01*
Y2720D02*
Y3350D01*
Y2720D02*
X13190Y2580D01*
X12030Y2690D02*
X12060Y2720D01*
Y2730D01*
X12420Y4830D02*
Y4930D01*
X7370Y3590D02*
X8490Y2470D01*
X12160Y3960D02*
X12440D01*
X9950Y3030D02*
X10100Y3180D01*
Y3800D01*
X10580Y4110D02*
X11390D01*
X10410D02*
X10580D01*
Y4215D01*
X10100Y3800D02*
X10410Y4110D01*
X10545Y4215D02*
X10580D01*
X12100Y4020D02*
X12160Y3960D01*
X12100Y4020D02*
Y4170D01*
X12300Y4370D01*
X11390Y4110D02*
X12100D01*
X12300Y4370D02*
Y4540D01*
Y4710D01*
X12420Y4830D01*
X11390Y3460D02*
Y4110D01*
Y3360D02*
Y3460D01*
X10420D02*
X11390D01*
D26*
X9400Y2300D02*
X9500Y2400D01*
X9609D01*
X9809Y2600D01*
X10890D01*
X11122Y5142D02*
X11130Y5150D01*
X11122Y4810D02*
Y5142D01*
Y4810D02*
X11130Y4802D01*
Y4780D02*
Y4802D01*
Y4780D02*
X11520Y4390D01*
X12370Y3030D02*
X12730Y2670D01*
X11400Y3030D02*
X12370D01*
X11270Y2900D02*
X11400Y3030D01*
X10710Y3150D02*
X10770D01*
X11020Y2900D01*
X10890Y2600D02*
X11010Y2480D01*
X10722Y2527D02*
X10790Y2460D01*
X9652Y2312D02*
X9868Y2527D01*
X10722D01*
X10990Y2460D02*
X11010Y2480D01*
X9660Y2720D02*
X9680D01*
X9580Y2800D02*
X9660Y2720D01*
X9580Y4966D02*
X9754Y5140D01*
X9580Y2800D02*
Y4966D01*
X9906Y2286D02*
X10050Y2430D01*
X10530D01*
X11020Y2900D02*
X11270D01*
X11100Y2970D02*
X11230D01*
X10760Y3310D02*
X11100Y2970D01*
X11350Y3090D02*
X12460D01*
X11230Y2970D02*
X11350Y3090D01*
X11170Y3070D02*
X11180D01*
X11280Y3170D01*
X12460Y3090D02*
X12810Y2740D01*
X12490Y3170D02*
X12880Y2780D01*
X11280Y3170D02*
X12490D01*
X11520Y4350D02*
Y4390D01*
X10876Y5150D02*
X11060Y4966D01*
Y4600D02*
Y4966D01*
Y4600D02*
X11430Y4230D01*
X9500Y2835D02*
Y5140D01*
X9380Y2715D02*
X9500Y2835D01*
X13012Y1818D02*
X13190D01*
X12730Y2100D02*
X13012Y1818D01*
X12730Y2100D02*
Y2670D01*
X13018Y2072D02*
X13190D01*
X12810Y2280D02*
X13018Y2072D01*
X12810Y2280D02*
Y2740D01*
X12880Y2480D02*
Y2780D01*
X10390Y3310D02*
X10760D01*
X10397Y3617D02*
X10420D01*
X10300Y3520D02*
X10397Y3617D01*
X10300Y3400D02*
Y3520D01*
Y3400D02*
X10390Y3310D01*
X13034Y2326D02*
X13190D01*
X12880Y2480D02*
X13034Y2326D01*
X9652Y2286D02*
Y2312D01*
D29*
X10400Y500D02*
D03*
X9398Y2286D02*
D03*
X10114Y5150D02*
D03*
X9246Y5140D02*
D03*
D30*
X10654Y500D02*
D03*
D31*
X2225Y4000D02*
D03*
X1975D02*
D03*
X2225Y3000D02*
D03*
X1975D02*
D03*
X2225Y3500D02*
D03*
X1975D02*
D03*
D32*
X5875Y1725D02*
D03*
Y2225D02*
D03*
X4575D02*
D03*
Y1725D02*
D03*
X3025Y3650D02*
D03*
Y3150D02*
D03*
X4325D02*
D03*
Y3650D02*
D03*
X4300Y1725D02*
D03*
Y2225D02*
D03*
X3000D02*
D03*
Y1725D02*
D03*
X2725D02*
D03*
Y2225D02*
D03*
X1425D02*
D03*
Y1725D02*
D03*
X4600Y3650D02*
D03*
Y3150D02*
D03*
X5900D02*
D03*
Y3650D02*
D03*
D33*
X9652Y2286D02*
D03*
X9906D02*
D03*
X10160D02*
D03*
X10414D02*
D03*
X10668D02*
D03*
X10922D02*
D03*
X11638Y5150D02*
D03*
X11384D02*
D03*
X11130D02*
D03*
X10876D02*
D03*
X10368D02*
D03*
X10622D02*
D03*
X9500Y5140D02*
D03*
X9754D02*
D03*
X13190Y2326D02*
D03*
Y2072D02*
D03*
Y1818D02*
D03*
Y1564D02*
D03*
Y1310D02*
D03*
Y3366D02*
D03*
D34*
X7370Y3590D02*
D03*
D35*
Y1590D02*
D03*
D36*
X13190Y2580D02*
D03*
D37*
Y3620D02*
D03*
D38*
X800Y800D02*
D03*
Y4800D02*
D03*
X13200D02*
D03*
Y800D02*
D03*
D39*
X10100Y4240D02*
D03*
X12260Y3590D02*
D03*
X10710Y3150D02*
D03*
X10840Y3950D02*
D03*
X11180Y3620D02*
D03*
Y3950D02*
D03*
X10840Y3610D02*
D03*
X11080Y2800D02*
D03*
X12630Y5340D02*
D03*
X12280Y4160D02*
D03*
X12060Y2730D02*
D03*
X12420Y4930D02*
D03*
X13300Y4440D02*
D03*
X12917Y4063D02*
D03*
X12590Y4240D02*
D03*
X10800Y2470D02*
D03*
X10990Y2460D02*
D03*
X9680Y2720D02*
D03*
X10530Y2430D02*
D03*
X9220Y3120D02*
D03*
X12750Y3080D02*
D03*
Y3300D02*
D03*
X12520Y3460D02*
D03*
Y3720D02*
D03*
X10420Y3080D02*
D03*
X10220Y2920D02*
D03*
X9950Y3030D02*
D03*
X9755Y3060D02*
D03*
X11430Y2920D02*
D03*
X11170Y3070D02*
D03*
X11680Y4320D02*
D03*
X11520Y4350D02*
D03*
X11560Y4850D02*
D03*
X11220D02*
D03*
X10880Y4860D02*
D03*
X9380Y2715D02*
D03*
X10100Y3800D02*
D03*
X12160Y3960D02*
D03*
X12300Y4540D02*
D03*
X10420Y3617D02*
D03*
X11390Y3360D02*
D03*
X10580Y4215D02*
D03*
X11430Y4230D02*
D03*
X10420Y3460D02*
D03*
M02*
