%FSLAX42Y42*%
%MOMM*%
G71*
G01*
G75*
%ADD10C,0.30*%
%ADD11R,0.40X1.60*%
%ADD12R,1.60X0.40*%
%ADD13R,1.30X0.70*%
%ADD14R,1.30X0.90*%
%ADD15R,0.70X1.30*%
%ADD16R,0.90X1.30*%
%ADD17R,1.40X0.70*%
%ADD18R,0.90X1.60*%
%ADD19C,0.50*%
%ADD20C,1.50*%
%ADD21R,1.50X1.50*%
%ADD22C,2.00*%
%ADD23C,1.70*%
%ADD24R,1.52X1.52*%
%ADD25C,1.52*%
%ADD26C,1.00*%
%ADD27R,0.60X1.80*%
%ADD28R,1.80X0.60*%
%ADD29R,1.50X0.90*%
%ADD30R,1.50X1.10*%
%ADD31R,0.90X1.50*%
%ADD32R,1.10X1.50*%
%ADD33R,1.60X0.90*%
%ADD34R,1.10X1.80*%
%ADD35R,1.70X1.70*%
%ADD36C,2.20*%
%ADD37C,1.90*%
%ADD38R,1.72X1.72*%
%ADD39C,1.72*%
%ADD40C,1.20*%
%ADD41C,0.17*%
D10*
X2438Y7802D02*
X9938D01*
Y3302D02*
Y7802D01*
X2438Y3302D02*
X9938D01*
X2438D02*
Y7802D01*
X10138D02*
X17638D01*
Y3302D02*
Y7802D01*
X10138Y3302D02*
X17638D01*
X10138D02*
Y7802D01*
X2438Y12502D02*
X9938D01*
Y8002D02*
Y12502D01*
X2438Y8002D02*
X9938D01*
X2438D02*
Y12502D01*
X10138D02*
X17638D01*
Y8002D02*
Y12502D01*
X10138Y8002D02*
X17638D01*
X10138D02*
Y12502D01*
X2438Y17202D02*
X9938D01*
Y12702D02*
Y17202D01*
X2438Y12702D02*
X9938D01*
X2438D02*
Y17202D01*
X10138D02*
X17638D01*
Y12702D02*
Y17202D01*
X10138Y12702D02*
X17638D01*
X10138D02*
Y17202D01*
X2438Y21902D02*
X9938D01*
Y17402D02*
Y21902D01*
X2438Y17402D02*
X9938D01*
X2438D02*
Y21902D01*
X10138D02*
X17638D01*
Y17402D02*
Y21902D01*
X10138Y17402D02*
X17638D01*
X10138D02*
Y21902D01*
D41*
X4222Y7569D02*
X4312D01*
X4267Y7524D02*
Y7614D01*
X3968Y7569D02*
X4058D01*
X4013Y7524D02*
Y7614D01*
X3714Y7569D02*
X3804D01*
X3759Y7524D02*
Y7614D01*
X2647Y7569D02*
X2737D01*
X2692Y7524D02*
Y7614D01*
X2901Y7569D02*
X2991D01*
X2946Y7524D02*
Y7614D01*
X3155Y7569D02*
X3245D01*
X3200Y7524D02*
Y7614D01*
X3409Y7569D02*
X3499D01*
X3454Y7524D02*
Y7614D01*
X3155Y7214D02*
X3245D01*
X3200Y7169D02*
Y7259D01*
X2647Y7214D02*
X2737D01*
X2692Y7169D02*
Y7259D01*
X2901Y7214D02*
X2991D01*
X2946Y7169D02*
Y7259D01*
X3409Y7214D02*
X3499D01*
X3454Y7169D02*
Y7259D01*
X3663Y7214D02*
X3753D01*
X3708Y7169D02*
Y7259D01*
X3917Y7214D02*
X4007D01*
X3962Y7169D02*
Y7259D01*
X4171Y7214D02*
X4261D01*
X4216Y7169D02*
Y7259D01*
X3298Y4928D02*
X3408D01*
X3353Y4873D02*
Y4983D01*
X3298Y4178D02*
X3408D01*
X3353Y4123D02*
Y4233D01*
X2798Y4178D02*
X2908D01*
X2853Y4123D02*
Y4233D01*
X2798Y4928D02*
X2908D01*
X2853Y4873D02*
Y4983D01*
X4314Y4928D02*
X4424D01*
X4369Y4873D02*
Y4983D01*
X4314Y4178D02*
X4424D01*
X4369Y4123D02*
Y4233D01*
X3814Y4178D02*
X3924D01*
X3869Y4123D02*
Y4233D01*
X3814Y4928D02*
X3924D01*
X3869Y4873D02*
Y4983D01*
X3298Y6096D02*
X3408D01*
X3353Y6041D02*
Y6151D01*
X3298Y5346D02*
X3408D01*
X3353Y5291D02*
Y5401D01*
X2798Y5346D02*
X2908D01*
X2853Y5291D02*
Y5401D01*
X2798Y6096D02*
X2908D01*
X2853Y6041D02*
Y6151D01*
X4314Y6096D02*
X4424D01*
X4369Y6041D02*
Y6151D01*
X4314Y5346D02*
X4424D01*
X4369Y5291D02*
Y5401D01*
X3814Y5346D02*
X3924D01*
X3869Y5291D02*
Y5401D01*
X3814Y6096D02*
X3924D01*
X3869Y6041D02*
Y6151D01*
X4060Y6631D02*
X4170D01*
X4115Y6576D02*
Y6686D01*
X4060Y6881D02*
X4170D01*
X4115Y6826D02*
Y6936D01*
X3501Y6631D02*
X3611D01*
X3556Y6576D02*
Y6686D01*
X3501Y6881D02*
X3611D01*
X3556Y6826D02*
Y6936D01*
X2891Y6631D02*
X3001D01*
X2946Y6576D02*
Y6686D01*
X2891Y6881D02*
X3001D01*
X2946Y6826D02*
Y6936D01*
X6299Y5080D02*
X6401D01*
X6350Y5029D02*
Y5131D01*
X6553Y5080D02*
X6655D01*
X6604Y5029D02*
Y5131D01*
X6807Y5080D02*
X6909D01*
X6858Y5029D02*
Y5131D01*
X7061Y5080D02*
X7163D01*
X7112Y5029D02*
Y5131D01*
X7315Y5080D02*
X7417D01*
X7366Y5029D02*
Y5131D01*
X7569Y5080D02*
X7671D01*
X7620Y5029D02*
Y5131D01*
X7823Y5080D02*
X7925D01*
X7874Y5029D02*
Y5131D01*
X7513Y6927D02*
X7563D01*
X7538Y6902D02*
Y6952D01*
X9688Y5152D02*
X9888D01*
X9788Y5052D02*
Y5252D01*
X2488Y5152D02*
X2688D01*
X2588Y5052D02*
Y5252D01*
X7290Y6960D02*
X7340D01*
X7315Y6935D02*
Y6985D01*
X5919Y7468D02*
X5969D01*
X5944Y7443D02*
Y7493D01*
X5004Y7112D02*
X5054D01*
X5029Y7087D02*
Y7137D01*
X5004Y7315D02*
X5054D01*
X5029Y7290D02*
Y7340D01*
X7493Y6350D02*
X7543D01*
X7518Y6325D02*
Y6375D01*
X7595Y6553D02*
X7645D01*
X7620Y6528D02*
Y6578D01*
X3175Y5690D02*
X3225D01*
X3200Y5665D02*
Y5715D01*
X3683Y5639D02*
X3733D01*
X3708Y5614D02*
Y5664D01*
X6071Y6858D02*
X6121D01*
X6096Y6833D02*
Y6883D01*
X5974Y6710D02*
X6024D01*
X5999Y6685D02*
Y6735D01*
X6173Y6604D02*
X6223D01*
X6198Y6579D02*
Y6629D01*
X4547Y6452D02*
X4597D01*
X4572Y6427D02*
Y6477D01*
X6173Y6299D02*
X6223D01*
X6198Y6274D02*
Y6324D01*
X6173Y6452D02*
X6223D01*
X6198Y6427D02*
Y6477D01*
X4141Y5436D02*
X4191D01*
X4166Y5411D02*
Y5461D01*
X3582Y5436D02*
X3632D01*
X3607Y5411D02*
Y5461D01*
X3074Y4420D02*
X3124D01*
X3099Y4395D02*
Y4445D01*
X7900Y6502D02*
X7950D01*
X7925Y6477D02*
Y6527D01*
X7900Y7163D02*
X7950D01*
X7925Y7138D02*
Y7188D01*
X2769Y7010D02*
X2819D01*
X2794Y6985D02*
Y7035D01*
X11922Y7569D02*
X12012D01*
X11967Y7524D02*
Y7614D01*
X11668Y7569D02*
X11758D01*
X11713Y7524D02*
Y7614D01*
X11414Y7569D02*
X11504D01*
X11459Y7524D02*
Y7614D01*
X10347Y7569D02*
X10437D01*
X10392Y7524D02*
Y7614D01*
X10601Y7569D02*
X10691D01*
X10646Y7524D02*
Y7614D01*
X10855Y7569D02*
X10945D01*
X10900Y7524D02*
Y7614D01*
X11109Y7569D02*
X11199D01*
X11154Y7524D02*
Y7614D01*
X10855Y7214D02*
X10945D01*
X10900Y7169D02*
Y7259D01*
X10347Y7214D02*
X10437D01*
X10392Y7169D02*
Y7259D01*
X10601Y7214D02*
X10691D01*
X10646Y7169D02*
Y7259D01*
X11109Y7214D02*
X11199D01*
X11154Y7169D02*
Y7259D01*
X11363Y7214D02*
X11453D01*
X11408Y7169D02*
Y7259D01*
X11617Y7214D02*
X11707D01*
X11662Y7169D02*
Y7259D01*
X11871Y7214D02*
X11961D01*
X11916Y7169D02*
Y7259D01*
X10998Y4928D02*
X11108D01*
X11053Y4873D02*
Y4983D01*
X10998Y4178D02*
X11108D01*
X11053Y4123D02*
Y4233D01*
X10498Y4178D02*
X10608D01*
X10553Y4123D02*
Y4233D01*
X10498Y4928D02*
X10608D01*
X10553Y4873D02*
Y4983D01*
X12014Y4928D02*
X12124D01*
X12069Y4873D02*
Y4983D01*
X12014Y4178D02*
X12124D01*
X12069Y4123D02*
Y4233D01*
X11514Y4178D02*
X11624D01*
X11569Y4123D02*
Y4233D01*
X11514Y4928D02*
X11624D01*
X11569Y4873D02*
Y4983D01*
X10998Y6096D02*
X11108D01*
X11053Y6041D02*
Y6151D01*
X10998Y5346D02*
X11108D01*
X11053Y5291D02*
Y5401D01*
X10498Y5346D02*
X10608D01*
X10553Y5291D02*
Y5401D01*
X10498Y6096D02*
X10608D01*
X10553Y6041D02*
Y6151D01*
X12014Y6096D02*
X12124D01*
X12069Y6041D02*
Y6151D01*
X12014Y5346D02*
X12124D01*
X12069Y5291D02*
Y5401D01*
X11514Y5346D02*
X11624D01*
X11569Y5291D02*
Y5401D01*
X11514Y6096D02*
X11624D01*
X11569Y6041D02*
Y6151D01*
X11760Y6631D02*
X11870D01*
X11815Y6576D02*
Y6686D01*
X11760Y6881D02*
X11870D01*
X11815Y6826D02*
Y6936D01*
X11201Y6631D02*
X11311D01*
X11256Y6576D02*
Y6686D01*
X11201Y6881D02*
X11311D01*
X11256Y6826D02*
Y6936D01*
X10591Y6631D02*
X10701D01*
X10646Y6576D02*
Y6686D01*
X10591Y6881D02*
X10701D01*
X10646Y6826D02*
Y6936D01*
X13999Y5080D02*
X14101D01*
X14050Y5029D02*
Y5131D01*
X14253Y5080D02*
X14355D01*
X14304Y5029D02*
Y5131D01*
X14507Y5080D02*
X14609D01*
X14558Y5029D02*
Y5131D01*
X14761Y5080D02*
X14863D01*
X14812Y5029D02*
Y5131D01*
X15015Y5080D02*
X15117D01*
X15066Y5029D02*
Y5131D01*
X15269Y5080D02*
X15371D01*
X15320Y5029D02*
Y5131D01*
X15523Y5080D02*
X15625D01*
X15574Y5029D02*
Y5131D01*
X15213Y6927D02*
X15263D01*
X15238Y6902D02*
Y6952D01*
X17388Y5152D02*
X17588D01*
X17488Y5052D02*
Y5252D01*
X10188Y5152D02*
X10388D01*
X10288Y5052D02*
Y5252D01*
X14990Y6960D02*
X15040D01*
X15015Y6935D02*
Y6985D01*
X13619Y7468D02*
X13669D01*
X13644Y7443D02*
Y7493D01*
X12704Y7112D02*
X12754D01*
X12729Y7087D02*
Y7137D01*
X12704Y7315D02*
X12754D01*
X12729Y7290D02*
Y7340D01*
X15193Y6350D02*
X15243D01*
X15218Y6325D02*
Y6375D01*
X15295Y6553D02*
X15345D01*
X15320Y6528D02*
Y6578D01*
X10875Y5690D02*
X10925D01*
X10900Y5665D02*
Y5715D01*
X11383Y5639D02*
X11433D01*
X11408Y5614D02*
Y5664D01*
X13771Y6858D02*
X13821D01*
X13796Y6833D02*
Y6883D01*
X13674Y6710D02*
X13724D01*
X13699Y6685D02*
Y6735D01*
X13873Y6604D02*
X13923D01*
X13898Y6579D02*
Y6629D01*
X12247Y6452D02*
X12297D01*
X12272Y6427D02*
Y6477D01*
X13873Y6299D02*
X13923D01*
X13898Y6274D02*
Y6324D01*
X13873Y6452D02*
X13923D01*
X13898Y6427D02*
Y6477D01*
X11841Y5436D02*
X11891D01*
X11866Y5411D02*
Y5461D01*
X11282Y5436D02*
X11332D01*
X11307Y5411D02*
Y5461D01*
X10774Y4420D02*
X10824D01*
X10799Y4395D02*
Y4445D01*
X15600Y6502D02*
X15650D01*
X15625Y6477D02*
Y6527D01*
X15600Y7163D02*
X15650D01*
X15625Y7138D02*
Y7188D01*
X10469Y7010D02*
X10519D01*
X10494Y6985D02*
Y7035D01*
X4222Y12269D02*
X4312D01*
X4267Y12224D02*
Y12314D01*
X3968Y12269D02*
X4058D01*
X4013Y12224D02*
Y12314D01*
X3714Y12269D02*
X3804D01*
X3759Y12224D02*
Y12314D01*
X2647Y12269D02*
X2737D01*
X2692Y12224D02*
Y12314D01*
X2901Y12269D02*
X2991D01*
X2946Y12224D02*
Y12314D01*
X3155Y12269D02*
X3245D01*
X3200Y12224D02*
Y12314D01*
X3409Y12269D02*
X3499D01*
X3454Y12224D02*
Y12314D01*
X3155Y11914D02*
X3245D01*
X3200Y11869D02*
Y11959D01*
X2647Y11914D02*
X2737D01*
X2692Y11869D02*
Y11959D01*
X2901Y11914D02*
X2991D01*
X2946Y11869D02*
Y11959D01*
X3409Y11914D02*
X3499D01*
X3454Y11869D02*
Y11959D01*
X3663Y11914D02*
X3753D01*
X3708Y11869D02*
Y11959D01*
X3917Y11914D02*
X4007D01*
X3962Y11869D02*
Y11959D01*
X4171Y11914D02*
X4261D01*
X4216Y11869D02*
Y11959D01*
X3298Y9628D02*
X3408D01*
X3353Y9573D02*
Y9683D01*
X3298Y8878D02*
X3408D01*
X3353Y8823D02*
Y8933D01*
X2798Y8878D02*
X2908D01*
X2853Y8823D02*
Y8933D01*
X2798Y9628D02*
X2908D01*
X2853Y9573D02*
Y9683D01*
X4314Y9628D02*
X4424D01*
X4369Y9573D02*
Y9683D01*
X4314Y8878D02*
X4424D01*
X4369Y8823D02*
Y8933D01*
X3814Y8878D02*
X3924D01*
X3869Y8823D02*
Y8933D01*
X3814Y9628D02*
X3924D01*
X3869Y9573D02*
Y9683D01*
X3298Y10796D02*
X3408D01*
X3353Y10741D02*
Y10851D01*
X3298Y10046D02*
X3408D01*
X3353Y9991D02*
Y10101D01*
X2798Y10046D02*
X2908D01*
X2853Y9991D02*
Y10101D01*
X2798Y10796D02*
X2908D01*
X2853Y10741D02*
Y10851D01*
X4314Y10796D02*
X4424D01*
X4369Y10741D02*
Y10851D01*
X4314Y10046D02*
X4424D01*
X4369Y9991D02*
Y10101D01*
X3814Y10046D02*
X3924D01*
X3869Y9991D02*
Y10101D01*
X3814Y10796D02*
X3924D01*
X3869Y10741D02*
Y10851D01*
X4060Y11331D02*
X4170D01*
X4115Y11276D02*
Y11386D01*
X4060Y11581D02*
X4170D01*
X4115Y11526D02*
Y11636D01*
X3501Y11331D02*
X3611D01*
X3556Y11276D02*
Y11386D01*
X3501Y11581D02*
X3611D01*
X3556Y11526D02*
Y11636D01*
X2891Y11331D02*
X3001D01*
X2946Y11276D02*
Y11386D01*
X2891Y11581D02*
X3001D01*
X2946Y11526D02*
Y11636D01*
X6299Y9780D02*
X6401D01*
X6350Y9729D02*
Y9831D01*
X6553Y9780D02*
X6655D01*
X6604Y9729D02*
Y9831D01*
X6807Y9780D02*
X6909D01*
X6858Y9729D02*
Y9831D01*
X7061Y9780D02*
X7163D01*
X7112Y9729D02*
Y9831D01*
X7315Y9780D02*
X7417D01*
X7366Y9729D02*
Y9831D01*
X7569Y9780D02*
X7671D01*
X7620Y9729D02*
Y9831D01*
X7823Y9780D02*
X7925D01*
X7874Y9729D02*
Y9831D01*
X7513Y11627D02*
X7563D01*
X7538Y11602D02*
Y11652D01*
X9688Y9852D02*
X9888D01*
X9788Y9752D02*
Y9952D01*
X2488Y9852D02*
X2688D01*
X2588Y9752D02*
Y9952D01*
X7290Y11660D02*
X7340D01*
X7315Y11635D02*
Y11685D01*
X5919Y12168D02*
X5969D01*
X5944Y12143D02*
Y12193D01*
X5004Y11812D02*
X5054D01*
X5029Y11787D02*
Y11837D01*
X5004Y12015D02*
X5054D01*
X5029Y11990D02*
Y12040D01*
X7493Y11050D02*
X7543D01*
X7518Y11025D02*
Y11075D01*
X7595Y11253D02*
X7645D01*
X7620Y11228D02*
Y11278D01*
X3175Y10390D02*
X3225D01*
X3200Y10365D02*
Y10415D01*
X3683Y10339D02*
X3733D01*
X3708Y10314D02*
Y10364D01*
X6071Y11558D02*
X6121D01*
X6096Y11533D02*
Y11583D01*
X5974Y11410D02*
X6024D01*
X5999Y11385D02*
Y11435D01*
X6173Y11304D02*
X6223D01*
X6198Y11279D02*
Y11329D01*
X4547Y11152D02*
X4597D01*
X4572Y11127D02*
Y11177D01*
X6173Y10999D02*
X6223D01*
X6198Y10974D02*
Y11024D01*
X6173Y11152D02*
X6223D01*
X6198Y11127D02*
Y11177D01*
X4141Y10136D02*
X4191D01*
X4166Y10111D02*
Y10161D01*
X3582Y10136D02*
X3632D01*
X3607Y10111D02*
Y10161D01*
X3074Y9120D02*
X3124D01*
X3099Y9095D02*
Y9145D01*
X7900Y11202D02*
X7950D01*
X7925Y11177D02*
Y11227D01*
X7900Y11863D02*
X7950D01*
X7925Y11838D02*
Y11888D01*
X2769Y11710D02*
X2819D01*
X2794Y11685D02*
Y11735D01*
X11922Y12269D02*
X12012D01*
X11967Y12224D02*
Y12314D01*
X11668Y12269D02*
X11758D01*
X11713Y12224D02*
Y12314D01*
X11414Y12269D02*
X11504D01*
X11459Y12224D02*
Y12314D01*
X10347Y12269D02*
X10437D01*
X10392Y12224D02*
Y12314D01*
X10601Y12269D02*
X10691D01*
X10646Y12224D02*
Y12314D01*
X10855Y12269D02*
X10945D01*
X10900Y12224D02*
Y12314D01*
X11109Y12269D02*
X11199D01*
X11154Y12224D02*
Y12314D01*
X10855Y11914D02*
X10945D01*
X10900Y11869D02*
Y11959D01*
X10347Y11914D02*
X10437D01*
X10392Y11869D02*
Y11959D01*
X10601Y11914D02*
X10691D01*
X10646Y11869D02*
Y11959D01*
X11109Y11914D02*
X11199D01*
X11154Y11869D02*
Y11959D01*
X11363Y11914D02*
X11453D01*
X11408Y11869D02*
Y11959D01*
X11617Y11914D02*
X11707D01*
X11662Y11869D02*
Y11959D01*
X11871Y11914D02*
X11961D01*
X11916Y11869D02*
Y11959D01*
X10998Y9628D02*
X11108D01*
X11053Y9573D02*
Y9683D01*
X10998Y8878D02*
X11108D01*
X11053Y8823D02*
Y8933D01*
X10498Y8878D02*
X10608D01*
X10553Y8823D02*
Y8933D01*
X10498Y9628D02*
X10608D01*
X10553Y9573D02*
Y9683D01*
X12014Y9628D02*
X12124D01*
X12069Y9573D02*
Y9683D01*
X12014Y8878D02*
X12124D01*
X12069Y8823D02*
Y8933D01*
X11514Y8878D02*
X11624D01*
X11569Y8823D02*
Y8933D01*
X11514Y9628D02*
X11624D01*
X11569Y9573D02*
Y9683D01*
X10998Y10796D02*
X11108D01*
X11053Y10741D02*
Y10851D01*
X10998Y10046D02*
X11108D01*
X11053Y9991D02*
Y10101D01*
X10498Y10046D02*
X10608D01*
X10553Y9991D02*
Y10101D01*
X10498Y10796D02*
X10608D01*
X10553Y10741D02*
Y10851D01*
X12014Y10796D02*
X12124D01*
X12069Y10741D02*
Y10851D01*
X12014Y10046D02*
X12124D01*
X12069Y9991D02*
Y10101D01*
X11514Y10046D02*
X11624D01*
X11569Y9991D02*
Y10101D01*
X11514Y10796D02*
X11624D01*
X11569Y10741D02*
Y10851D01*
X11760Y11331D02*
X11870D01*
X11815Y11276D02*
Y11386D01*
X11760Y11581D02*
X11870D01*
X11815Y11526D02*
Y11636D01*
X11201Y11331D02*
X11311D01*
X11256Y11276D02*
Y11386D01*
X11201Y11581D02*
X11311D01*
X11256Y11526D02*
Y11636D01*
X10591Y11331D02*
X10701D01*
X10646Y11276D02*
Y11386D01*
X10591Y11581D02*
X10701D01*
X10646Y11526D02*
Y11636D01*
X13999Y9780D02*
X14101D01*
X14050Y9729D02*
Y9831D01*
X14253Y9780D02*
X14355D01*
X14304Y9729D02*
Y9831D01*
X14507Y9780D02*
X14609D01*
X14558Y9729D02*
Y9831D01*
X14761Y9780D02*
X14863D01*
X14812Y9729D02*
Y9831D01*
X15015Y9780D02*
X15117D01*
X15066Y9729D02*
Y9831D01*
X15269Y9780D02*
X15371D01*
X15320Y9729D02*
Y9831D01*
X15523Y9780D02*
X15625D01*
X15574Y9729D02*
Y9831D01*
X15213Y11627D02*
X15263D01*
X15238Y11602D02*
Y11652D01*
X17388Y9852D02*
X17588D01*
X17488Y9752D02*
Y9952D01*
X10188Y9852D02*
X10388D01*
X10288Y9752D02*
Y9952D01*
X14990Y11660D02*
X15040D01*
X15015Y11635D02*
Y11685D01*
X13619Y12168D02*
X13669D01*
X13644Y12143D02*
Y12193D01*
X12704Y11812D02*
X12754D01*
X12729Y11787D02*
Y11837D01*
X12704Y12015D02*
X12754D01*
X12729Y11990D02*
Y12040D01*
X15193Y11050D02*
X15243D01*
X15218Y11025D02*
Y11075D01*
X15295Y11253D02*
X15345D01*
X15320Y11228D02*
Y11278D01*
X10875Y10390D02*
X10925D01*
X10900Y10365D02*
Y10415D01*
X11383Y10339D02*
X11433D01*
X11408Y10314D02*
Y10364D01*
X13771Y11558D02*
X13821D01*
X13796Y11533D02*
Y11583D01*
X13674Y11410D02*
X13724D01*
X13699Y11385D02*
Y11435D01*
X13873Y11304D02*
X13923D01*
X13898Y11279D02*
Y11329D01*
X12247Y11152D02*
X12297D01*
X12272Y11127D02*
Y11177D01*
X13873Y10999D02*
X13923D01*
X13898Y10974D02*
Y11024D01*
X13873Y11152D02*
X13923D01*
X13898Y11127D02*
Y11177D01*
X11841Y10136D02*
X11891D01*
X11866Y10111D02*
Y10161D01*
X11282Y10136D02*
X11332D01*
X11307Y10111D02*
Y10161D01*
X10774Y9120D02*
X10824D01*
X10799Y9095D02*
Y9145D01*
X15600Y11202D02*
X15650D01*
X15625Y11177D02*
Y11227D01*
X15600Y11863D02*
X15650D01*
X15625Y11838D02*
Y11888D01*
X10469Y11710D02*
X10519D01*
X10494Y11685D02*
Y11735D01*
X4222Y16969D02*
X4312D01*
X4267Y16924D02*
Y17014D01*
X3968Y16969D02*
X4058D01*
X4013Y16924D02*
Y17014D01*
X3714Y16969D02*
X3804D01*
X3759Y16924D02*
Y17014D01*
X2647Y16969D02*
X2737D01*
X2692Y16924D02*
Y17014D01*
X2901Y16969D02*
X2991D01*
X2946Y16924D02*
Y17014D01*
X3155Y16969D02*
X3245D01*
X3200Y16924D02*
Y17014D01*
X3409Y16969D02*
X3499D01*
X3454Y16924D02*
Y17014D01*
X3155Y16614D02*
X3245D01*
X3200Y16569D02*
Y16659D01*
X2647Y16614D02*
X2737D01*
X2692Y16569D02*
Y16659D01*
X2901Y16614D02*
X2991D01*
X2946Y16569D02*
Y16659D01*
X3409Y16614D02*
X3499D01*
X3454Y16569D02*
Y16659D01*
X3663Y16614D02*
X3753D01*
X3708Y16569D02*
Y16659D01*
X3917Y16614D02*
X4007D01*
X3962Y16569D02*
Y16659D01*
X4171Y16614D02*
X4261D01*
X4216Y16569D02*
Y16659D01*
X3298Y14328D02*
X3408D01*
X3353Y14273D02*
Y14383D01*
X3298Y13578D02*
X3408D01*
X3353Y13523D02*
Y13633D01*
X2798Y13578D02*
X2908D01*
X2853Y13523D02*
Y13633D01*
X2798Y14328D02*
X2908D01*
X2853Y14273D02*
Y14383D01*
X4314Y14328D02*
X4424D01*
X4369Y14273D02*
Y14383D01*
X4314Y13578D02*
X4424D01*
X4369Y13523D02*
Y13633D01*
X3814Y13578D02*
X3924D01*
X3869Y13523D02*
Y13633D01*
X3814Y14328D02*
X3924D01*
X3869Y14273D02*
Y14383D01*
X3298Y15496D02*
X3408D01*
X3353Y15441D02*
Y15551D01*
X3298Y14746D02*
X3408D01*
X3353Y14691D02*
Y14801D01*
X2798Y14746D02*
X2908D01*
X2853Y14691D02*
Y14801D01*
X2798Y15496D02*
X2908D01*
X2853Y15441D02*
Y15551D01*
X4314Y15496D02*
X4424D01*
X4369Y15441D02*
Y15551D01*
X4314Y14746D02*
X4424D01*
X4369Y14691D02*
Y14801D01*
X3814Y14746D02*
X3924D01*
X3869Y14691D02*
Y14801D01*
X3814Y15496D02*
X3924D01*
X3869Y15441D02*
Y15551D01*
X4060Y16031D02*
X4170D01*
X4115Y15976D02*
Y16086D01*
X4060Y16281D02*
X4170D01*
X4115Y16226D02*
Y16336D01*
X3501Y16031D02*
X3611D01*
X3556Y15976D02*
Y16086D01*
X3501Y16281D02*
X3611D01*
X3556Y16226D02*
Y16336D01*
X2891Y16031D02*
X3001D01*
X2946Y15976D02*
Y16086D01*
X2891Y16281D02*
X3001D01*
X2946Y16226D02*
Y16336D01*
X6299Y14480D02*
X6401D01*
X6350Y14429D02*
Y14531D01*
X6553Y14480D02*
X6655D01*
X6604Y14429D02*
Y14531D01*
X6807Y14480D02*
X6909D01*
X6858Y14429D02*
Y14531D01*
X7061Y14480D02*
X7163D01*
X7112Y14429D02*
Y14531D01*
X7315Y14480D02*
X7417D01*
X7366Y14429D02*
Y14531D01*
X7569Y14480D02*
X7671D01*
X7620Y14429D02*
Y14531D01*
X7823Y14480D02*
X7925D01*
X7874Y14429D02*
Y14531D01*
X7513Y16327D02*
X7563D01*
X7538Y16302D02*
Y16352D01*
X9688Y14552D02*
X9888D01*
X9788Y14452D02*
Y14652D01*
X2488Y14552D02*
X2688D01*
X2588Y14452D02*
Y14652D01*
X7290Y16360D02*
X7340D01*
X7315Y16335D02*
Y16385D01*
X5919Y16868D02*
X5969D01*
X5944Y16843D02*
Y16893D01*
X5004Y16512D02*
X5054D01*
X5029Y16487D02*
Y16537D01*
X5004Y16715D02*
X5054D01*
X5029Y16690D02*
Y16740D01*
X7493Y15750D02*
X7543D01*
X7518Y15725D02*
Y15775D01*
X7595Y15953D02*
X7645D01*
X7620Y15928D02*
Y15978D01*
X3175Y15090D02*
X3225D01*
X3200Y15065D02*
Y15115D01*
X3683Y15039D02*
X3733D01*
X3708Y15014D02*
Y15064D01*
X6071Y16258D02*
X6121D01*
X6096Y16233D02*
Y16283D01*
X5974Y16110D02*
X6024D01*
X5999Y16085D02*
Y16135D01*
X6173Y16004D02*
X6223D01*
X6198Y15979D02*
Y16029D01*
X4547Y15852D02*
X4597D01*
X4572Y15827D02*
Y15877D01*
X6173Y15699D02*
X6223D01*
X6198Y15674D02*
Y15724D01*
X6173Y15852D02*
X6223D01*
X6198Y15827D02*
Y15877D01*
X4141Y14836D02*
X4191D01*
X4166Y14811D02*
Y14861D01*
X3582Y14836D02*
X3632D01*
X3607Y14811D02*
Y14861D01*
X3074Y13820D02*
X3124D01*
X3099Y13795D02*
Y13845D01*
X7900Y15902D02*
X7950D01*
X7925Y15877D02*
Y15927D01*
X7900Y16563D02*
X7950D01*
X7925Y16538D02*
Y16588D01*
X2769Y16410D02*
X2819D01*
X2794Y16385D02*
Y16435D01*
X11922Y16969D02*
X12012D01*
X11967Y16924D02*
Y17014D01*
X11668Y16969D02*
X11758D01*
X11713Y16924D02*
Y17014D01*
X11414Y16969D02*
X11504D01*
X11459Y16924D02*
Y17014D01*
X10347Y16969D02*
X10437D01*
X10392Y16924D02*
Y17014D01*
X10601Y16969D02*
X10691D01*
X10646Y16924D02*
Y17014D01*
X10855Y16969D02*
X10945D01*
X10900Y16924D02*
Y17014D01*
X11109Y16969D02*
X11199D01*
X11154Y16924D02*
Y17014D01*
X10855Y16614D02*
X10945D01*
X10900Y16569D02*
Y16659D01*
X10347Y16614D02*
X10437D01*
X10392Y16569D02*
Y16659D01*
X10601Y16614D02*
X10691D01*
X10646Y16569D02*
Y16659D01*
X11109Y16614D02*
X11199D01*
X11154Y16569D02*
Y16659D01*
X11363Y16614D02*
X11453D01*
X11408Y16569D02*
Y16659D01*
X11617Y16614D02*
X11707D01*
X11662Y16569D02*
Y16659D01*
X11871Y16614D02*
X11961D01*
X11916Y16569D02*
Y16659D01*
X10998Y14328D02*
X11108D01*
X11053Y14273D02*
Y14383D01*
X10998Y13578D02*
X11108D01*
X11053Y13523D02*
Y13633D01*
X10498Y13578D02*
X10608D01*
X10553Y13523D02*
Y13633D01*
X10498Y14328D02*
X10608D01*
X10553Y14273D02*
Y14383D01*
X12014Y14328D02*
X12124D01*
X12069Y14273D02*
Y14383D01*
X12014Y13578D02*
X12124D01*
X12069Y13523D02*
Y13633D01*
X11514Y13578D02*
X11624D01*
X11569Y13523D02*
Y13633D01*
X11514Y14328D02*
X11624D01*
X11569Y14273D02*
Y14383D01*
X10998Y15496D02*
X11108D01*
X11053Y15441D02*
Y15551D01*
X10998Y14746D02*
X11108D01*
X11053Y14691D02*
Y14801D01*
X10498Y14746D02*
X10608D01*
X10553Y14691D02*
Y14801D01*
X10498Y15496D02*
X10608D01*
X10553Y15441D02*
Y15551D01*
X12014Y15496D02*
X12124D01*
X12069Y15441D02*
Y15551D01*
X12014Y14746D02*
X12124D01*
X12069Y14691D02*
Y14801D01*
X11514Y14746D02*
X11624D01*
X11569Y14691D02*
Y14801D01*
X11514Y15496D02*
X11624D01*
X11569Y15441D02*
Y15551D01*
X11760Y16031D02*
X11870D01*
X11815Y15976D02*
Y16086D01*
X11760Y16281D02*
X11870D01*
X11815Y16226D02*
Y16336D01*
X11201Y16031D02*
X11311D01*
X11256Y15976D02*
Y16086D01*
X11201Y16281D02*
X11311D01*
X11256Y16226D02*
Y16336D01*
X10591Y16031D02*
X10701D01*
X10646Y15976D02*
Y16086D01*
X10591Y16281D02*
X10701D01*
X10646Y16226D02*
Y16336D01*
X13999Y14480D02*
X14101D01*
X14050Y14429D02*
Y14531D01*
X14253Y14480D02*
X14355D01*
X14304Y14429D02*
Y14531D01*
X14507Y14480D02*
X14609D01*
X14558Y14429D02*
Y14531D01*
X14761Y14480D02*
X14863D01*
X14812Y14429D02*
Y14531D01*
X15015Y14480D02*
X15117D01*
X15066Y14429D02*
Y14531D01*
X15269Y14480D02*
X15371D01*
X15320Y14429D02*
Y14531D01*
X15523Y14480D02*
X15625D01*
X15574Y14429D02*
Y14531D01*
X15213Y16327D02*
X15263D01*
X15238Y16302D02*
Y16352D01*
X17388Y14552D02*
X17588D01*
X17488Y14452D02*
Y14652D01*
X10188Y14552D02*
X10388D01*
X10288Y14452D02*
Y14652D01*
X14990Y16360D02*
X15040D01*
X15015Y16335D02*
Y16385D01*
X13619Y16868D02*
X13669D01*
X13644Y16843D02*
Y16893D01*
X12704Y16512D02*
X12754D01*
X12729Y16487D02*
Y16537D01*
X12704Y16715D02*
X12754D01*
X12729Y16690D02*
Y16740D01*
X15193Y15750D02*
X15243D01*
X15218Y15725D02*
Y15775D01*
X15295Y15953D02*
X15345D01*
X15320Y15928D02*
Y15978D01*
X10875Y15090D02*
X10925D01*
X10900Y15065D02*
Y15115D01*
X11383Y15039D02*
X11433D01*
X11408Y15014D02*
Y15064D01*
X13771Y16258D02*
X13821D01*
X13796Y16233D02*
Y16283D01*
X13674Y16110D02*
X13724D01*
X13699Y16085D02*
Y16135D01*
X13873Y16004D02*
X13923D01*
X13898Y15979D02*
Y16029D01*
X12247Y15852D02*
X12297D01*
X12272Y15827D02*
Y15877D01*
X13873Y15699D02*
X13923D01*
X13898Y15674D02*
Y15724D01*
X13873Y15852D02*
X13923D01*
X13898Y15827D02*
Y15877D01*
X11841Y14836D02*
X11891D01*
X11866Y14811D02*
Y14861D01*
X11282Y14836D02*
X11332D01*
X11307Y14811D02*
Y14861D01*
X10774Y13820D02*
X10824D01*
X10799Y13795D02*
Y13845D01*
X15600Y15902D02*
X15650D01*
X15625Y15877D02*
Y15927D01*
X15600Y16563D02*
X15650D01*
X15625Y16538D02*
Y16588D01*
X10469Y16410D02*
X10519D01*
X10494Y16385D02*
Y16435D01*
X4222Y21669D02*
X4312D01*
X4267Y21624D02*
Y21714D01*
X3968Y21669D02*
X4058D01*
X4013Y21624D02*
Y21714D01*
X3714Y21669D02*
X3804D01*
X3759Y21624D02*
Y21714D01*
X2647Y21669D02*
X2737D01*
X2692Y21624D02*
Y21714D01*
X2901Y21669D02*
X2991D01*
X2946Y21624D02*
Y21714D01*
X3155Y21669D02*
X3245D01*
X3200Y21624D02*
Y21714D01*
X3409Y21669D02*
X3499D01*
X3454Y21624D02*
Y21714D01*
X3155Y21314D02*
X3245D01*
X3200Y21269D02*
Y21359D01*
X2647Y21314D02*
X2737D01*
X2692Y21269D02*
Y21359D01*
X2901Y21314D02*
X2991D01*
X2946Y21269D02*
Y21359D01*
X3409Y21314D02*
X3499D01*
X3454Y21269D02*
Y21359D01*
X3663Y21314D02*
X3753D01*
X3708Y21269D02*
Y21359D01*
X3917Y21314D02*
X4007D01*
X3962Y21269D02*
Y21359D01*
X4171Y21314D02*
X4261D01*
X4216Y21269D02*
Y21359D01*
X3298Y19028D02*
X3408D01*
X3353Y18973D02*
Y19083D01*
X3298Y18278D02*
X3408D01*
X3353Y18223D02*
Y18333D01*
X2798Y18278D02*
X2908D01*
X2853Y18223D02*
Y18333D01*
X2798Y19028D02*
X2908D01*
X2853Y18973D02*
Y19083D01*
X4314Y19028D02*
X4424D01*
X4369Y18973D02*
Y19083D01*
X4314Y18278D02*
X4424D01*
X4369Y18223D02*
Y18333D01*
X3814Y18278D02*
X3924D01*
X3869Y18223D02*
Y18333D01*
X3814Y19028D02*
X3924D01*
X3869Y18973D02*
Y19083D01*
X3298Y20196D02*
X3408D01*
X3353Y20141D02*
Y20251D01*
X3298Y19446D02*
X3408D01*
X3353Y19391D02*
Y19501D01*
X2798Y19446D02*
X2908D01*
X2853Y19391D02*
Y19501D01*
X2798Y20196D02*
X2908D01*
X2853Y20141D02*
Y20251D01*
X4314Y20196D02*
X4424D01*
X4369Y20141D02*
Y20251D01*
X4314Y19446D02*
X4424D01*
X4369Y19391D02*
Y19501D01*
X3814Y19446D02*
X3924D01*
X3869Y19391D02*
Y19501D01*
X3814Y20196D02*
X3924D01*
X3869Y20141D02*
Y20251D01*
X4060Y20731D02*
X4170D01*
X4115Y20676D02*
Y20786D01*
X4060Y20981D02*
X4170D01*
X4115Y20926D02*
Y21036D01*
X3501Y20731D02*
X3611D01*
X3556Y20676D02*
Y20786D01*
X3501Y20981D02*
X3611D01*
X3556Y20926D02*
Y21036D01*
X2891Y20731D02*
X3001D01*
X2946Y20676D02*
Y20786D01*
X2891Y20981D02*
X3001D01*
X2946Y20926D02*
Y21036D01*
X6299Y19180D02*
X6401D01*
X6350Y19129D02*
Y19231D01*
X6553Y19180D02*
X6655D01*
X6604Y19129D02*
Y19231D01*
X6807Y19180D02*
X6909D01*
X6858Y19129D02*
Y19231D01*
X7061Y19180D02*
X7163D01*
X7112Y19129D02*
Y19231D01*
X7315Y19180D02*
X7417D01*
X7366Y19129D02*
Y19231D01*
X7569Y19180D02*
X7671D01*
X7620Y19129D02*
Y19231D01*
X7823Y19180D02*
X7925D01*
X7874Y19129D02*
Y19231D01*
X7513Y21027D02*
X7563D01*
X7538Y21002D02*
Y21052D01*
X9688Y19252D02*
X9888D01*
X9788Y19152D02*
Y19352D01*
X2488Y19252D02*
X2688D01*
X2588Y19152D02*
Y19352D01*
X7290Y21060D02*
X7340D01*
X7315Y21035D02*
Y21085D01*
X5919Y21568D02*
X5969D01*
X5944Y21543D02*
Y21593D01*
X5004Y21212D02*
X5054D01*
X5029Y21187D02*
Y21237D01*
X5004Y21415D02*
X5054D01*
X5029Y21390D02*
Y21440D01*
X7493Y20450D02*
X7543D01*
X7518Y20425D02*
Y20475D01*
X7595Y20653D02*
X7645D01*
X7620Y20628D02*
Y20678D01*
X3175Y19790D02*
X3225D01*
X3200Y19765D02*
Y19815D01*
X3683Y19739D02*
X3733D01*
X3708Y19714D02*
Y19764D01*
X6071Y20958D02*
X6121D01*
X6096Y20933D02*
Y20983D01*
X5974Y20810D02*
X6024D01*
X5999Y20785D02*
Y20835D01*
X6173Y20704D02*
X6223D01*
X6198Y20679D02*
Y20729D01*
X4547Y20552D02*
X4597D01*
X4572Y20527D02*
Y20577D01*
X6173Y20399D02*
X6223D01*
X6198Y20374D02*
Y20424D01*
X6173Y20552D02*
X6223D01*
X6198Y20527D02*
Y20577D01*
X4141Y19536D02*
X4191D01*
X4166Y19511D02*
Y19561D01*
X3582Y19536D02*
X3632D01*
X3607Y19511D02*
Y19561D01*
X3074Y18520D02*
X3124D01*
X3099Y18495D02*
Y18545D01*
X7900Y20602D02*
X7950D01*
X7925Y20577D02*
Y20627D01*
X7900Y21263D02*
X7950D01*
X7925Y21238D02*
Y21288D01*
X2769Y21110D02*
X2819D01*
X2794Y21085D02*
Y21135D01*
X11922Y21669D02*
X12012D01*
X11967Y21624D02*
Y21714D01*
X11668Y21669D02*
X11758D01*
X11713Y21624D02*
Y21714D01*
X11414Y21669D02*
X11504D01*
X11459Y21624D02*
Y21714D01*
X10347Y21669D02*
X10437D01*
X10392Y21624D02*
Y21714D01*
X10601Y21669D02*
X10691D01*
X10646Y21624D02*
Y21714D01*
X10855Y21669D02*
X10945D01*
X10900Y21624D02*
Y21714D01*
X11109Y21669D02*
X11199D01*
X11154Y21624D02*
Y21714D01*
X10855Y21314D02*
X10945D01*
X10900Y21269D02*
Y21359D01*
X10347Y21314D02*
X10437D01*
X10392Y21269D02*
Y21359D01*
X10601Y21314D02*
X10691D01*
X10646Y21269D02*
Y21359D01*
X11109Y21314D02*
X11199D01*
X11154Y21269D02*
Y21359D01*
X11363Y21314D02*
X11453D01*
X11408Y21269D02*
Y21359D01*
X11617Y21314D02*
X11707D01*
X11662Y21269D02*
Y21359D01*
X11871Y21314D02*
X11961D01*
X11916Y21269D02*
Y21359D01*
X10998Y19028D02*
X11108D01*
X11053Y18973D02*
Y19083D01*
X10998Y18278D02*
X11108D01*
X11053Y18223D02*
Y18333D01*
X10498Y18278D02*
X10608D01*
X10553Y18223D02*
Y18333D01*
X10498Y19028D02*
X10608D01*
X10553Y18973D02*
Y19083D01*
X12014Y19028D02*
X12124D01*
X12069Y18973D02*
Y19083D01*
X12014Y18278D02*
X12124D01*
X12069Y18223D02*
Y18333D01*
X11514Y18278D02*
X11624D01*
X11569Y18223D02*
Y18333D01*
X11514Y19028D02*
X11624D01*
X11569Y18973D02*
Y19083D01*
X10998Y20196D02*
X11108D01*
X11053Y20141D02*
Y20251D01*
X10998Y19446D02*
X11108D01*
X11053Y19391D02*
Y19501D01*
X10498Y19446D02*
X10608D01*
X10553Y19391D02*
Y19501D01*
X10498Y20196D02*
X10608D01*
X10553Y20141D02*
Y20251D01*
X12014Y20196D02*
X12124D01*
X12069Y20141D02*
Y20251D01*
X12014Y19446D02*
X12124D01*
X12069Y19391D02*
Y19501D01*
X11514Y19446D02*
X11624D01*
X11569Y19391D02*
Y19501D01*
X11514Y20196D02*
X11624D01*
X11569Y20141D02*
Y20251D01*
X11760Y20731D02*
X11870D01*
X11815Y20676D02*
Y20786D01*
X11760Y20981D02*
X11870D01*
X11815Y20926D02*
Y21036D01*
X11201Y20731D02*
X11311D01*
X11256Y20676D02*
Y20786D01*
X11201Y20981D02*
X11311D01*
X11256Y20926D02*
Y21036D01*
X10591Y20731D02*
X10701D01*
X10646Y20676D02*
Y20786D01*
X10591Y20981D02*
X10701D01*
X10646Y20926D02*
Y21036D01*
X13999Y19180D02*
X14101D01*
X14050Y19129D02*
Y19231D01*
X14253Y19180D02*
X14355D01*
X14304Y19129D02*
Y19231D01*
X14507Y19180D02*
X14609D01*
X14558Y19129D02*
Y19231D01*
X14761Y19180D02*
X14863D01*
X14812Y19129D02*
Y19231D01*
X15015Y19180D02*
X15117D01*
X15066Y19129D02*
Y19231D01*
X15269Y19180D02*
X15371D01*
X15320Y19129D02*
Y19231D01*
X15523Y19180D02*
X15625D01*
X15574Y19129D02*
Y19231D01*
X15213Y21027D02*
X15263D01*
X15238Y21002D02*
Y21052D01*
X17388Y19252D02*
X17588D01*
X17488Y19152D02*
Y19352D01*
X10188Y19252D02*
X10388D01*
X10288Y19152D02*
Y19352D01*
X14990Y21060D02*
X15040D01*
X15015Y21035D02*
Y21085D01*
X13619Y21568D02*
X13669D01*
X13644Y21543D02*
Y21593D01*
X12704Y21212D02*
X12754D01*
X12729Y21187D02*
Y21237D01*
X12704Y21415D02*
X12754D01*
X12729Y21390D02*
Y21440D01*
X15193Y20450D02*
X15243D01*
X15218Y20425D02*
Y20475D01*
X15295Y20653D02*
X15345D01*
X15320Y20628D02*
Y20678D01*
X10875Y19790D02*
X10925D01*
X10900Y19765D02*
Y19815D01*
X11383Y19739D02*
X11433D01*
X11408Y19714D02*
Y19764D01*
X13771Y20958D02*
X13821D01*
X13796Y20933D02*
Y20983D01*
X13674Y20810D02*
X13724D01*
X13699Y20785D02*
Y20835D01*
X13873Y20704D02*
X13923D01*
X13898Y20679D02*
Y20729D01*
X12247Y20552D02*
X12297D01*
X12272Y20527D02*
Y20577D01*
X13873Y20399D02*
X13923D01*
X13898Y20374D02*
Y20424D01*
X13873Y20552D02*
X13923D01*
X13898Y20527D02*
Y20577D01*
X11841Y19536D02*
X11891D01*
X11866Y19511D02*
Y19561D01*
X11282Y19536D02*
X11332D01*
X11307Y19511D02*
Y19561D01*
X10774Y18520D02*
X10824D01*
X10799Y18495D02*
Y18545D01*
X15600Y20602D02*
X15650D01*
X15625Y20577D02*
Y20627D01*
X15600Y21263D02*
X15650D01*
X15625Y21238D02*
Y21288D01*
X10469Y21110D02*
X10519D01*
X10494Y21085D02*
Y21135D01*
M02*
