%FSLAX42Y42*%
%MOMM*%
G71*
G01*
G75*
G04 Layer_Color=2752767*
%ADD10C,0.20*%
%ADD11R,0.40X1.60*%
%ADD12R,1.60X0.40*%
%ADD13R,0.70X1.30*%
%ADD14R,1.30X0.70*%
%ADD15R,0.90X1.30*%
%ADD16R,1.30X0.90*%
%ADD17R,1.40X0.70*%
%ADD18R,1.60X0.90*%
%ADD19C,0.30*%
%ADD20C,0.50*%
%ADD21C,4.00*%
%ADD22C,1.70*%
%ADD23C,2.00*%
%ADD24C,1.52*%
%ADD25R,1.52X1.52*%
%ADD26R,1.50X1.50*%
%ADD27C,1.50*%
%ADD28C,1.27*%
%ADD29C,0.17*%
D10*
X2061Y9670D02*
X18061D01*
Y3170D02*
Y9670D01*
X2061Y3170D02*
X18061D01*
X2061D02*
Y9670D01*
Y16170D02*
X18061D01*
Y9670D02*
Y16170D01*
X2061Y9670D02*
X18061D01*
X2061D02*
Y16170D01*
Y22670D02*
X18061D01*
Y16170D02*
Y22670D01*
X2061Y16170D02*
X18061D01*
X2061D02*
Y22670D01*
X10010Y4419D02*
Y4521D01*
X10111D01*
Y4419D01*
X10010D01*
Y6619D02*
Y6721D01*
X10111D01*
Y6619D01*
X10010D01*
X16210Y4419D02*
Y4521D01*
X16312D01*
Y4419D01*
X16210D01*
Y6619D02*
Y6721D01*
X16312D01*
Y6619D01*
X16210D01*
X3810D02*
Y6721D01*
X3912D01*
Y6619D01*
X3810D01*
Y4419D02*
Y4521D01*
X3912D01*
Y4419D01*
X3810D01*
D29*
X5087Y7170D02*
G03*
X5087Y7170I-51J0D01*
G01*
X5337D02*
G03*
X5337Y7170I-51J0D01*
G01*
X5087Y6670D02*
G03*
X5087Y6670I-51J0D01*
G01*
X5337D02*
G03*
X5337Y6670I-51J0D01*
G01*
X5087Y7670D02*
G03*
X5087Y7670I-51J0D01*
G01*
X5337D02*
G03*
X5337Y7670I-51J0D01*
G01*
X8961Y7269D02*
X8910Y7371D01*
X9011D01*
X8961Y7269D01*
Y6769D02*
X8910Y6871D01*
X9011D01*
X8961Y6769D01*
X7661D02*
X7610Y6871D01*
X7711D01*
X7661Y6769D01*
Y7269D02*
X7610Y7371D01*
X7711D01*
X7661Y7269D01*
X4486Y5344D02*
X4435Y5446D01*
X4537D01*
X4486Y5344D01*
Y5844D02*
X4435Y5946D01*
X4537D01*
X4486Y5844D01*
X5786D02*
X5735Y5946D01*
X5837D01*
X5786Y5844D01*
Y5344D02*
X5735Y5446D01*
X5837D01*
X5786Y5344D01*
X6061D02*
X6010Y5446D01*
X6112D01*
X6061Y5344D01*
Y5844D02*
X6010Y5946D01*
X6112D01*
X6061Y5844D01*
X7361D02*
X7310Y5946D01*
X7411D01*
X7361Y5844D01*
Y5344D02*
X7310Y5446D01*
X7411D01*
X7361Y5344D01*
X7636D02*
X7585Y5446D01*
X7686D01*
X7636Y5344D01*
Y5844D02*
X7585Y5946D01*
X7686D01*
X7636Y5844D01*
X8936D02*
X8885Y5946D01*
X8986D01*
X8936Y5844D01*
Y5344D02*
X8885Y5446D01*
X8986D01*
X8936Y5344D01*
X7386Y7269D02*
X7335Y7371D01*
X7436D01*
X7386Y7269D01*
Y6769D02*
X7335Y6871D01*
X7436D01*
X7386Y6769D01*
X6086D02*
X6035Y6871D01*
X6137D01*
X6086Y6769D01*
Y7269D02*
X6035Y7371D01*
X6137D01*
X6086Y7269D01*
X13983Y5906D02*
X14008Y5931D01*
X14034D01*
X14008Y5956D01*
X14034Y5982D01*
X14008D01*
X13983Y6007D01*
X13957Y5982D01*
X13932D01*
X13957Y5956D01*
X13932Y5931D01*
X13957D01*
X13983Y5906D01*
X13729D02*
X13754Y5931D01*
X13779D01*
X13754Y5956D01*
X13779Y5982D01*
X13754D01*
X13729Y6007D01*
X13703Y5982D01*
X13678D01*
X13703Y5956D01*
X13678Y5931D01*
X13703D01*
X13729Y5906D01*
X13475D02*
X13500Y5931D01*
X13526D01*
X13500Y5956D01*
X13526Y5982D01*
X13500D01*
X13475Y6007D01*
X13449Y5982D01*
X13424D01*
X13449Y5956D01*
X13424Y5931D01*
X13449D01*
X13475Y5906D01*
X13221D02*
X13246Y5931D01*
X13271D01*
X13246Y5956D01*
X13271Y5982D01*
X13246D01*
X13221Y6007D01*
X13195Y5982D01*
X13170D01*
X13195Y5956D01*
X13170Y5931D01*
X13195D01*
X13221Y5906D01*
X12967D02*
X12992Y5931D01*
X13018D01*
X12992Y5956D01*
X13018Y5982D01*
X12992D01*
X12967Y6007D01*
X12941Y5982D01*
X12916D01*
X12941Y5956D01*
X12916Y5931D01*
X12941D01*
X12967Y5906D01*
X12713D02*
X12738Y5931D01*
X12764D01*
X12738Y5956D01*
X12764Y5982D01*
X12738D01*
X12713Y6007D01*
X12687Y5982D01*
X12662D01*
X12687Y5956D01*
X12662Y5931D01*
X12687D01*
X12713Y5906D01*
X12459D02*
X12484Y5931D01*
X12510D01*
X12484Y5956D01*
X12510Y5982D01*
X12484D01*
X12459Y6007D01*
X12433Y5982D01*
X12408D01*
X12433Y5956D01*
X12408Y5931D01*
X12433D01*
X12459Y5906D01*
X6085Y8469D02*
X6110Y8520D01*
X6085Y8571D01*
X6136Y8546D01*
X6187Y8571D01*
X6161Y8520D01*
X6187Y8469D01*
X6136Y8495D01*
X6085Y8469D01*
X6339D02*
X6364Y8520D01*
X6339Y8571D01*
X6390Y8546D01*
X6440Y8571D01*
X6415Y8520D01*
X6440Y8469D01*
X6390Y8495D01*
X6339Y8469D01*
X6593D02*
X6618Y8520D01*
X6593Y8571D01*
X6644Y8546D01*
X6694Y8571D01*
X6669Y8520D01*
X6694Y8469D01*
X6644Y8495D01*
X6593Y8469D01*
X6847D02*
X6872Y8520D01*
X6847Y8571D01*
X6898Y8546D01*
X6949Y8571D01*
X6923Y8520D01*
X6949Y8469D01*
X6898Y8495D01*
X6847Y8469D01*
X9918D02*
X9943Y8520D01*
X9918Y8571D01*
X9969Y8546D01*
X10019Y8571D01*
X9994Y8520D01*
X10019Y8469D01*
X9969Y8495D01*
X9918Y8469D01*
X9664D02*
X9689Y8520D01*
X9664Y8571D01*
X9715Y8546D01*
X9765Y8571D01*
X9740Y8520D01*
X9765Y8469D01*
X9715Y8495D01*
X9664Y8469D01*
X9410D02*
X9435Y8520D01*
X9410Y8571D01*
X9461Y8546D01*
X9511Y8571D01*
X9486Y8520D01*
X9511Y8469D01*
X9461Y8495D01*
X9410Y8469D01*
X7793D02*
X7818Y8520D01*
X7793Y8571D01*
X7844Y8546D01*
X7894Y8571D01*
X7869Y8520D01*
X7894Y8469D01*
X7844Y8495D01*
X7793Y8469D01*
X7285D02*
X7310Y8520D01*
X7285Y8571D01*
X7336Y8546D01*
X7386Y8571D01*
X7361Y8520D01*
X7386Y8469D01*
X7336Y8495D01*
X7285Y8469D01*
X7539D02*
X7564Y8520D01*
X7539Y8571D01*
X7590Y8546D01*
X7640Y8571D01*
X7615Y8520D01*
X7640Y8469D01*
X7590Y8495D01*
X7539Y8469D01*
X8047D02*
X8072Y8520D01*
X8047Y8571D01*
X8098Y8546D01*
X8149Y8571D01*
X8123Y8520D01*
X8149Y8469D01*
X8098Y8495D01*
X8047Y8469D01*
X8301D02*
X8326Y8520D01*
X8301Y8571D01*
X8352Y8546D01*
X8403Y8571D01*
X8377Y8520D01*
X8403Y8469D01*
X8352Y8495D01*
X8301Y8469D01*
X8555D02*
X8580Y8520D01*
X8555Y8571D01*
X8606Y8546D01*
X8657Y8571D01*
X8631Y8520D01*
X8657Y8469D01*
X8606Y8495D01*
X8555Y8469D01*
X8809D02*
X8834Y8520D01*
X8809Y8571D01*
X8860Y8546D01*
X8911Y8571D01*
X8885Y8520D01*
X8911Y8469D01*
X8860Y8495D01*
X8809Y8469D01*
X12310Y8570D02*
Y8544D01*
X12361D01*
Y8570D01*
X12386D01*
Y8621D01*
X12361D01*
Y8646D01*
X12310D01*
Y8621D01*
X12285D01*
Y8570D01*
X12310D01*
X13610Y8120D02*
Y8094D01*
X13661D01*
Y8120D01*
X13687D01*
Y8171D01*
X13661D01*
Y8196D01*
X13610D01*
Y8171D01*
X13585D01*
Y8120D01*
X13610D01*
X13379D02*
Y8094D01*
X13429D01*
Y8120D01*
X13455D01*
Y8171D01*
X13429D01*
Y8196D01*
X13379D01*
Y8171D01*
X13353D01*
Y8120D01*
X13379D01*
X14548Y8082D02*
Y8057D01*
X14599D01*
Y8082D01*
X14624D01*
Y8133D01*
X14599D01*
Y8159D01*
X14548D01*
Y8133D01*
X14522D01*
Y8082D01*
X14548D01*
X14648Y8257D02*
Y8232D01*
X14699D01*
Y8257D01*
X14724D01*
Y8308D01*
X14699D01*
Y8334D01*
X14648D01*
Y8308D01*
X14622D01*
Y8257D01*
X14648D01*
X13910Y7570D02*
Y7544D01*
X13961D01*
Y7570D01*
X13987D01*
Y7621D01*
X13961D01*
Y7646D01*
X13910D01*
Y7621D01*
X13885D01*
Y7570D01*
X13910D01*
X13898Y7770D02*
Y7744D01*
X13949D01*
Y7770D01*
X13974D01*
Y7821D01*
X13949D01*
Y7846D01*
X13898D01*
Y7821D01*
X13872D01*
Y7770D01*
X13898D01*
X13748Y7895D02*
Y7869D01*
X13799D01*
Y7895D01*
X13824D01*
Y7946D01*
X13799D01*
Y7971D01*
X13748D01*
Y7946D01*
X13722D01*
Y7895D01*
X13748D01*
X11810Y6995D02*
Y6969D01*
X11861D01*
Y6995D01*
X11886D01*
Y7046D01*
X11861D01*
Y7071D01*
X11810D01*
Y7046D01*
X11785D01*
Y6995D01*
X11810D01*
X12035Y7870D02*
Y7844D01*
X12086D01*
Y7870D01*
X12111D01*
Y7921D01*
X12086D01*
Y7946D01*
X12035D01*
Y7921D01*
X12010D01*
Y7870D01*
X12035D01*
X6110D02*
Y7844D01*
X6161D01*
Y7870D01*
X6187D01*
Y7921D01*
X6161D01*
Y7946D01*
X6110D01*
Y7921D01*
X6085D01*
Y7870D01*
X6110D01*
X10260Y6995D02*
Y6969D01*
X10311D01*
Y6995D01*
X10336D01*
Y7046D01*
X10311D01*
Y7071D01*
X10260D01*
Y7046D01*
X10235D01*
Y6995D01*
X10260D01*
X8335Y7295D02*
Y7269D01*
X8386D01*
Y7295D01*
X8411D01*
Y7346D01*
X8386D01*
Y7371D01*
X8335D01*
Y7346D01*
X8310D01*
Y7295D01*
X8335D01*
X8072Y7308D02*
Y7282D01*
X8123D01*
Y7308D01*
X8149D01*
Y7359D01*
X8123D01*
Y7384D01*
X8072D01*
Y7359D01*
X8047D01*
Y7308D01*
X8072D01*
X11635Y6770D02*
Y6744D01*
X11686D01*
Y6770D01*
X11711D01*
Y6821D01*
X11686D01*
Y6846D01*
X11635D01*
Y6821D01*
X11610D01*
Y6770D01*
X11635D01*
X10360Y7195D02*
Y7169D01*
X10411D01*
Y7195D01*
X10436D01*
Y7246D01*
X10411D01*
Y7271D01*
X10360D01*
Y7246D01*
X10335D01*
Y7195D01*
X10360D01*
X7818Y7445D02*
Y7419D01*
X7869D01*
Y7445D01*
X7894D01*
Y7496D01*
X7869D01*
Y7521D01*
X7818D01*
Y7496D01*
X7793D01*
Y7445D01*
X7818D01*
X11585Y6995D02*
Y6969D01*
X11636D01*
Y6995D01*
X11661D01*
Y7046D01*
X11636D01*
Y7071D01*
X11585D01*
Y7046D01*
X11560D01*
Y6995D01*
X11585D01*
X7060Y7320D02*
Y7294D01*
X7111D01*
Y7320D01*
X7136D01*
Y7371D01*
X7111D01*
Y7396D01*
X7060D01*
Y7371D01*
X7035D01*
Y7320D01*
X7060D01*
X6835D02*
Y7294D01*
X6886D01*
Y7320D01*
X6911D01*
Y7371D01*
X6886D01*
Y7396D01*
X6835D01*
Y7371D01*
X6810D01*
Y7320D01*
X6835D01*
X14260Y6620D02*
Y6594D01*
X14311D01*
Y6620D01*
X14337D01*
Y6671D01*
X14311D01*
Y6696D01*
X14260D01*
Y6671D01*
X14235D01*
Y6620D01*
X14260D01*
X14085Y7995D02*
Y7969D01*
X14136D01*
Y7995D01*
X14162D01*
Y8046D01*
X14136D01*
Y8071D01*
X14085D01*
Y8046D01*
X14060D01*
Y7995D01*
X14085D01*
X10010Y10919D02*
Y11021D01*
X10111D01*
Y10919D01*
X10010D01*
Y13120D02*
Y13221D01*
X10111D01*
Y13120D01*
X10010D01*
X16210Y10919D02*
Y11021D01*
X16312D01*
Y10919D01*
X16210D01*
Y13120D02*
Y13221D01*
X16312D01*
Y13120D01*
X16210D01*
X3810D02*
Y13221D01*
X3912D01*
Y13120D01*
X3810D01*
Y10919D02*
Y11021D01*
X3912D01*
Y10919D01*
X3810D01*
X5087Y13670D02*
G03*
X5087Y13670I-51J0D01*
G01*
X5337D02*
G03*
X5337Y13670I-51J0D01*
G01*
X5087Y13170D02*
G03*
X5087Y13170I-51J0D01*
G01*
X5337D02*
G03*
X5337Y13170I-51J0D01*
G01*
X5087Y14170D02*
G03*
X5087Y14170I-51J0D01*
G01*
X5337D02*
G03*
X5337Y14170I-51J0D01*
G01*
X8961Y13770D02*
X8910Y13871D01*
X9011D01*
X8961Y13770D01*
Y13270D02*
X8910Y13371D01*
X9011D01*
X8961Y13270D01*
X7661D02*
X7610Y13371D01*
X7711D01*
X7661Y13270D01*
Y13770D02*
X7610Y13871D01*
X7711D01*
X7661Y13770D01*
X4486Y11844D02*
X4435Y11946D01*
X4537D01*
X4486Y11844D01*
Y12344D02*
X4435Y12446D01*
X4537D01*
X4486Y12344D01*
X5786D02*
X5735Y12446D01*
X5837D01*
X5786Y12344D01*
Y11844D02*
X5735Y11946D01*
X5837D01*
X5786Y11844D01*
X6061D02*
X6010Y11946D01*
X6112D01*
X6061Y11844D01*
Y12344D02*
X6010Y12446D01*
X6112D01*
X6061Y12344D01*
X7361D02*
X7310Y12446D01*
X7411D01*
X7361Y12344D01*
Y11844D02*
X7310Y11946D01*
X7411D01*
X7361Y11844D01*
X7636D02*
X7585Y11946D01*
X7686D01*
X7636Y11844D01*
Y12344D02*
X7585Y12446D01*
X7686D01*
X7636Y12344D01*
X8936D02*
X8885Y12446D01*
X8986D01*
X8936Y12344D01*
Y11844D02*
X8885Y11946D01*
X8986D01*
X8936Y11844D01*
X7386Y13770D02*
X7335Y13871D01*
X7436D01*
X7386Y13770D01*
Y13270D02*
X7335Y13371D01*
X7436D01*
X7386Y13270D01*
X6086D02*
X6035Y13371D01*
X6137D01*
X6086Y13270D01*
Y13770D02*
X6035Y13871D01*
X6137D01*
X6086Y13770D01*
X13983Y12406D02*
X14008Y12431D01*
X14034D01*
X14008Y12456D01*
X14034Y12482D01*
X14008D01*
X13983Y12507D01*
X13957Y12482D01*
X13932D01*
X13957Y12456D01*
X13932Y12431D01*
X13957D01*
X13983Y12406D01*
X13729D02*
X13754Y12431D01*
X13779D01*
X13754Y12456D01*
X13779Y12482D01*
X13754D01*
X13729Y12507D01*
X13703Y12482D01*
X13678D01*
X13703Y12456D01*
X13678Y12431D01*
X13703D01*
X13729Y12406D01*
X13475D02*
X13500Y12431D01*
X13526D01*
X13500Y12456D01*
X13526Y12482D01*
X13500D01*
X13475Y12507D01*
X13449Y12482D01*
X13424D01*
X13449Y12456D01*
X13424Y12431D01*
X13449D01*
X13475Y12406D01*
X13221D02*
X13246Y12431D01*
X13271D01*
X13246Y12456D01*
X13271Y12482D01*
X13246D01*
X13221Y12507D01*
X13195Y12482D01*
X13170D01*
X13195Y12456D01*
X13170Y12431D01*
X13195D01*
X13221Y12406D01*
X12967D02*
X12992Y12431D01*
X13018D01*
X12992Y12456D01*
X13018Y12482D01*
X12992D01*
X12967Y12507D01*
X12941Y12482D01*
X12916D01*
X12941Y12456D01*
X12916Y12431D01*
X12941D01*
X12967Y12406D01*
X12713D02*
X12738Y12431D01*
X12764D01*
X12738Y12456D01*
X12764Y12482D01*
X12738D01*
X12713Y12507D01*
X12687Y12482D01*
X12662D01*
X12687Y12456D01*
X12662Y12431D01*
X12687D01*
X12713Y12406D01*
X12459D02*
X12484Y12431D01*
X12510D01*
X12484Y12456D01*
X12510Y12482D01*
X12484D01*
X12459Y12507D01*
X12433Y12482D01*
X12408D01*
X12433Y12456D01*
X12408Y12431D01*
X12433D01*
X12459Y12406D01*
X6085Y14970D02*
X6110Y15020D01*
X6085Y15071D01*
X6136Y15046D01*
X6187Y15071D01*
X6161Y15020D01*
X6187Y14970D01*
X6136Y14995D01*
X6085Y14970D01*
X6339D02*
X6364Y15020D01*
X6339Y15071D01*
X6390Y15046D01*
X6440Y15071D01*
X6415Y15020D01*
X6440Y14970D01*
X6390Y14995D01*
X6339Y14970D01*
X6593D02*
X6618Y15020D01*
X6593Y15071D01*
X6644Y15046D01*
X6694Y15071D01*
X6669Y15020D01*
X6694Y14970D01*
X6644Y14995D01*
X6593Y14970D01*
X6847D02*
X6872Y15020D01*
X6847Y15071D01*
X6898Y15046D01*
X6949Y15071D01*
X6923Y15020D01*
X6949Y14970D01*
X6898Y14995D01*
X6847Y14970D01*
X9918D02*
X9943Y15020D01*
X9918Y15071D01*
X9969Y15046D01*
X10019Y15071D01*
X9994Y15020D01*
X10019Y14970D01*
X9969Y14995D01*
X9918Y14970D01*
X9664D02*
X9689Y15020D01*
X9664Y15071D01*
X9715Y15046D01*
X9765Y15071D01*
X9740Y15020D01*
X9765Y14970D01*
X9715Y14995D01*
X9664Y14970D01*
X9410D02*
X9435Y15020D01*
X9410Y15071D01*
X9461Y15046D01*
X9511Y15071D01*
X9486Y15020D01*
X9511Y14970D01*
X9461Y14995D01*
X9410Y14970D01*
X7793D02*
X7818Y15020D01*
X7793Y15071D01*
X7844Y15046D01*
X7894Y15071D01*
X7869Y15020D01*
X7894Y14970D01*
X7844Y14995D01*
X7793Y14970D01*
X7285D02*
X7310Y15020D01*
X7285Y15071D01*
X7336Y15046D01*
X7386Y15071D01*
X7361Y15020D01*
X7386Y14970D01*
X7336Y14995D01*
X7285Y14970D01*
X7539D02*
X7564Y15020D01*
X7539Y15071D01*
X7590Y15046D01*
X7640Y15071D01*
X7615Y15020D01*
X7640Y14970D01*
X7590Y14995D01*
X7539Y14970D01*
X8047D02*
X8072Y15020D01*
X8047Y15071D01*
X8098Y15046D01*
X8149Y15071D01*
X8123Y15020D01*
X8149Y14970D01*
X8098Y14995D01*
X8047Y14970D01*
X8301D02*
X8326Y15020D01*
X8301Y15071D01*
X8352Y15046D01*
X8403Y15071D01*
X8377Y15020D01*
X8403Y14970D01*
X8352Y14995D01*
X8301Y14970D01*
X8555D02*
X8580Y15020D01*
X8555Y15071D01*
X8606Y15046D01*
X8657Y15071D01*
X8631Y15020D01*
X8657Y14970D01*
X8606Y14995D01*
X8555Y14970D01*
X8809D02*
X8834Y15020D01*
X8809Y15071D01*
X8860Y15046D01*
X8911Y15071D01*
X8885Y15020D01*
X8911Y14970D01*
X8860Y14995D01*
X8809Y14970D01*
X12310Y15070D02*
Y15045D01*
X12361D01*
Y15070D01*
X12386D01*
Y15121D01*
X12361D01*
Y15146D01*
X12310D01*
Y15121D01*
X12285D01*
Y15070D01*
X12310D01*
X13610Y14620D02*
Y14595D01*
X13661D01*
Y14620D01*
X13687D01*
Y14671D01*
X13661D01*
Y14696D01*
X13610D01*
Y14671D01*
X13585D01*
Y14620D01*
X13610D01*
X13379D02*
Y14595D01*
X13429D01*
Y14620D01*
X13455D01*
Y14671D01*
X13429D01*
Y14696D01*
X13379D01*
Y14671D01*
X13353D01*
Y14620D01*
X13379D01*
X14548Y14582D02*
Y14557D01*
X14599D01*
Y14582D01*
X14624D01*
Y14633D01*
X14599D01*
Y14659D01*
X14548D01*
Y14633D01*
X14522D01*
Y14582D01*
X14548D01*
X14648Y14757D02*
Y14732D01*
X14699D01*
Y14757D01*
X14724D01*
Y14808D01*
X14699D01*
Y14834D01*
X14648D01*
Y14808D01*
X14622D01*
Y14757D01*
X14648D01*
X13910Y14070D02*
Y14045D01*
X13961D01*
Y14070D01*
X13987D01*
Y14121D01*
X13961D01*
Y14146D01*
X13910D01*
Y14121D01*
X13885D01*
Y14070D01*
X13910D01*
X13898Y14270D02*
Y14245D01*
X13949D01*
Y14270D01*
X13974D01*
Y14321D01*
X13949D01*
Y14346D01*
X13898D01*
Y14321D01*
X13872D01*
Y14270D01*
X13898D01*
X13748Y14395D02*
Y14370D01*
X13799D01*
Y14395D01*
X13824D01*
Y14446D01*
X13799D01*
Y14471D01*
X13748D01*
Y14446D01*
X13722D01*
Y14395D01*
X13748D01*
X11810Y13495D02*
Y13470D01*
X11861D01*
Y13495D01*
X11886D01*
Y13546D01*
X11861D01*
Y13571D01*
X11810D01*
Y13546D01*
X11785D01*
Y13495D01*
X11810D01*
X12035Y14370D02*
Y14345D01*
X12086D01*
Y14370D01*
X12111D01*
Y14421D01*
X12086D01*
Y14446D01*
X12035D01*
Y14421D01*
X12010D01*
Y14370D01*
X12035D01*
X6110D02*
Y14345D01*
X6161D01*
Y14370D01*
X6187D01*
Y14421D01*
X6161D01*
Y14446D01*
X6110D01*
Y14421D01*
X6085D01*
Y14370D01*
X6110D01*
X10260Y13495D02*
Y13470D01*
X10311D01*
Y13495D01*
X10336D01*
Y13546D01*
X10311D01*
Y13571D01*
X10260D01*
Y13546D01*
X10235D01*
Y13495D01*
X10260D01*
X8335Y13795D02*
Y13770D01*
X8386D01*
Y13795D01*
X8411D01*
Y13846D01*
X8386D01*
Y13871D01*
X8335D01*
Y13846D01*
X8310D01*
Y13795D01*
X8335D01*
X8072Y13808D02*
Y13782D01*
X8123D01*
Y13808D01*
X8149D01*
Y13859D01*
X8123D01*
Y13884D01*
X8072D01*
Y13859D01*
X8047D01*
Y13808D01*
X8072D01*
X11635Y13270D02*
Y13245D01*
X11686D01*
Y13270D01*
X11711D01*
Y13321D01*
X11686D01*
Y13346D01*
X11635D01*
Y13321D01*
X11610D01*
Y13270D01*
X11635D01*
X10360Y13695D02*
Y13670D01*
X10411D01*
Y13695D01*
X10436D01*
Y13746D01*
X10411D01*
Y13771D01*
X10360D01*
Y13746D01*
X10335D01*
Y13695D01*
X10360D01*
X7818Y13945D02*
Y13920D01*
X7869D01*
Y13945D01*
X7894D01*
Y13996D01*
X7869D01*
Y14021D01*
X7818D01*
Y13996D01*
X7793D01*
Y13945D01*
X7818D01*
X11585Y13495D02*
Y13470D01*
X11636D01*
Y13495D01*
X11661D01*
Y13546D01*
X11636D01*
Y13571D01*
X11585D01*
Y13546D01*
X11560D01*
Y13495D01*
X11585D01*
X7060Y13820D02*
Y13795D01*
X7111D01*
Y13820D01*
X7136D01*
Y13871D01*
X7111D01*
Y13896D01*
X7060D01*
Y13871D01*
X7035D01*
Y13820D01*
X7060D01*
X6835D02*
Y13795D01*
X6886D01*
Y13820D01*
X6911D01*
Y13871D01*
X6886D01*
Y13896D01*
X6835D01*
Y13871D01*
X6810D01*
Y13820D01*
X6835D01*
X14260Y13120D02*
Y13095D01*
X14311D01*
Y13120D01*
X14337D01*
Y13171D01*
X14311D01*
Y13196D01*
X14260D01*
Y13171D01*
X14235D01*
Y13120D01*
X14260D01*
X14085Y14495D02*
Y14470D01*
X14136D01*
Y14495D01*
X14162D01*
Y14546D01*
X14136D01*
Y14571D01*
X14085D01*
Y14546D01*
X14060D01*
Y14495D01*
X14085D01*
X10010Y17420D02*
Y17521D01*
X10111D01*
Y17420D01*
X10010D01*
Y19620D02*
Y19721D01*
X10111D01*
Y19620D01*
X10010D01*
X16210Y17420D02*
Y17521D01*
X16312D01*
Y17420D01*
X16210D01*
Y19620D02*
Y19721D01*
X16312D01*
Y19620D01*
X16210D01*
X3810D02*
Y19721D01*
X3912D01*
Y19620D01*
X3810D01*
Y17420D02*
Y17521D01*
X3912D01*
Y17420D01*
X3810D01*
X5087Y20170D02*
G03*
X5087Y20170I-51J0D01*
G01*
X5337D02*
G03*
X5337Y20170I-51J0D01*
G01*
X5087Y19670D02*
G03*
X5087Y19670I-51J0D01*
G01*
X5337D02*
G03*
X5337Y19670I-51J0D01*
G01*
X5087Y20670D02*
G03*
X5087Y20670I-51J0D01*
G01*
X5337D02*
G03*
X5337Y20670I-51J0D01*
G01*
X8961Y20270D02*
X8910Y20371D01*
X9011D01*
X8961Y20270D01*
Y19770D02*
X8910Y19871D01*
X9011D01*
X8961Y19770D01*
X7661D02*
X7610Y19871D01*
X7711D01*
X7661Y19770D01*
Y20270D02*
X7610Y20371D01*
X7711D01*
X7661Y20270D01*
X4486Y18345D02*
X4435Y18446D01*
X4537D01*
X4486Y18345D01*
Y18845D02*
X4435Y18946D01*
X4537D01*
X4486Y18845D01*
X5786D02*
X5735Y18946D01*
X5837D01*
X5786Y18845D01*
Y18345D02*
X5735Y18446D01*
X5837D01*
X5786Y18345D01*
X6061D02*
X6010Y18446D01*
X6112D01*
X6061Y18345D01*
Y18845D02*
X6010Y18946D01*
X6112D01*
X6061Y18845D01*
X7361D02*
X7310Y18946D01*
X7411D01*
X7361Y18845D01*
Y18345D02*
X7310Y18446D01*
X7411D01*
X7361Y18345D01*
X7636D02*
X7585Y18446D01*
X7686D01*
X7636Y18345D01*
Y18845D02*
X7585Y18946D01*
X7686D01*
X7636Y18845D01*
X8936D02*
X8885Y18946D01*
X8986D01*
X8936Y18845D01*
Y18345D02*
X8885Y18446D01*
X8986D01*
X8936Y18345D01*
X7386Y20270D02*
X7335Y20371D01*
X7436D01*
X7386Y20270D01*
Y19770D02*
X7335Y19871D01*
X7436D01*
X7386Y19770D01*
X6086D02*
X6035Y19871D01*
X6137D01*
X6086Y19770D01*
Y20270D02*
X6035Y20371D01*
X6137D01*
X6086Y20270D01*
X13983Y18905D02*
X14008Y18931D01*
X14034D01*
X14008Y18956D01*
X14034Y18982D01*
X14008D01*
X13983Y19007D01*
X13957Y18982D01*
X13932D01*
X13957Y18956D01*
X13932Y18931D01*
X13957D01*
X13983Y18905D01*
X13729D02*
X13754Y18931D01*
X13779D01*
X13754Y18956D01*
X13779Y18982D01*
X13754D01*
X13729Y19007D01*
X13703Y18982D01*
X13678D01*
X13703Y18956D01*
X13678Y18931D01*
X13703D01*
X13729Y18905D01*
X13475D02*
X13500Y18931D01*
X13526D01*
X13500Y18956D01*
X13526Y18982D01*
X13500D01*
X13475Y19007D01*
X13449Y18982D01*
X13424D01*
X13449Y18956D01*
X13424Y18931D01*
X13449D01*
X13475Y18905D01*
X13221D02*
X13246Y18931D01*
X13271D01*
X13246Y18956D01*
X13271Y18982D01*
X13246D01*
X13221Y19007D01*
X13195Y18982D01*
X13170D01*
X13195Y18956D01*
X13170Y18931D01*
X13195D01*
X13221Y18905D01*
X12967D02*
X12992Y18931D01*
X13018D01*
X12992Y18956D01*
X13018Y18982D01*
X12992D01*
X12967Y19007D01*
X12941Y18982D01*
X12916D01*
X12941Y18956D01*
X12916Y18931D01*
X12941D01*
X12967Y18905D01*
X12713D02*
X12738Y18931D01*
X12764D01*
X12738Y18956D01*
X12764Y18982D01*
X12738D01*
X12713Y19007D01*
X12687Y18982D01*
X12662D01*
X12687Y18956D01*
X12662Y18931D01*
X12687D01*
X12713Y18905D01*
X12459D02*
X12484Y18931D01*
X12510D01*
X12484Y18956D01*
X12510Y18982D01*
X12484D01*
X12459Y19007D01*
X12433Y18982D01*
X12408D01*
X12433Y18956D01*
X12408Y18931D01*
X12433D01*
X12459Y18905D01*
X6085Y21470D02*
X6110Y21520D01*
X6085Y21571D01*
X6136Y21546D01*
X6187Y21571D01*
X6161Y21520D01*
X6187Y21470D01*
X6136Y21495D01*
X6085Y21470D01*
X6339D02*
X6364Y21520D01*
X6339Y21571D01*
X6390Y21546D01*
X6440Y21571D01*
X6415Y21520D01*
X6440Y21470D01*
X6390Y21495D01*
X6339Y21470D01*
X6593D02*
X6618Y21520D01*
X6593Y21571D01*
X6644Y21546D01*
X6694Y21571D01*
X6669Y21520D01*
X6694Y21470D01*
X6644Y21495D01*
X6593Y21470D01*
X6847D02*
X6872Y21520D01*
X6847Y21571D01*
X6898Y21546D01*
X6949Y21571D01*
X6923Y21520D01*
X6949Y21470D01*
X6898Y21495D01*
X6847Y21470D01*
X9918D02*
X9943Y21520D01*
X9918Y21571D01*
X9969Y21546D01*
X10019Y21571D01*
X9994Y21520D01*
X10019Y21470D01*
X9969Y21495D01*
X9918Y21470D01*
X9664D02*
X9689Y21520D01*
X9664Y21571D01*
X9715Y21546D01*
X9765Y21571D01*
X9740Y21520D01*
X9765Y21470D01*
X9715Y21495D01*
X9664Y21470D01*
X9410D02*
X9435Y21520D01*
X9410Y21571D01*
X9461Y21546D01*
X9511Y21571D01*
X9486Y21520D01*
X9511Y21470D01*
X9461Y21495D01*
X9410Y21470D01*
X7793D02*
X7818Y21520D01*
X7793Y21571D01*
X7844Y21546D01*
X7894Y21571D01*
X7869Y21520D01*
X7894Y21470D01*
X7844Y21495D01*
X7793Y21470D01*
X7285D02*
X7310Y21520D01*
X7285Y21571D01*
X7336Y21546D01*
X7386Y21571D01*
X7361Y21520D01*
X7386Y21470D01*
X7336Y21495D01*
X7285Y21470D01*
X7539D02*
X7564Y21520D01*
X7539Y21571D01*
X7590Y21546D01*
X7640Y21571D01*
X7615Y21520D01*
X7640Y21470D01*
X7590Y21495D01*
X7539Y21470D01*
X8047D02*
X8072Y21520D01*
X8047Y21571D01*
X8098Y21546D01*
X8149Y21571D01*
X8123Y21520D01*
X8149Y21470D01*
X8098Y21495D01*
X8047Y21470D01*
X8301D02*
X8326Y21520D01*
X8301Y21571D01*
X8352Y21546D01*
X8403Y21571D01*
X8377Y21520D01*
X8403Y21470D01*
X8352Y21495D01*
X8301Y21470D01*
X8555D02*
X8580Y21520D01*
X8555Y21571D01*
X8606Y21546D01*
X8657Y21571D01*
X8631Y21520D01*
X8657Y21470D01*
X8606Y21495D01*
X8555Y21470D01*
X8809D02*
X8834Y21520D01*
X8809Y21571D01*
X8860Y21546D01*
X8911Y21571D01*
X8885Y21520D01*
X8911Y21470D01*
X8860Y21495D01*
X8809Y21470D01*
X12310Y21570D02*
Y21545D01*
X12361D01*
Y21570D01*
X12386D01*
Y21621D01*
X12361D01*
Y21646D01*
X12310D01*
Y21621D01*
X12285D01*
Y21570D01*
X12310D01*
X13610Y21120D02*
Y21095D01*
X13661D01*
Y21120D01*
X13687D01*
Y21171D01*
X13661D01*
Y21196D01*
X13610D01*
Y21171D01*
X13585D01*
Y21120D01*
X13610D01*
X13379D02*
Y21095D01*
X13429D01*
Y21120D01*
X13455D01*
Y21171D01*
X13429D01*
Y21196D01*
X13379D01*
Y21171D01*
X13353D01*
Y21120D01*
X13379D01*
X14548Y21082D02*
Y21057D01*
X14599D01*
Y21082D01*
X14624D01*
Y21133D01*
X14599D01*
Y21159D01*
X14548D01*
Y21133D01*
X14522D01*
Y21082D01*
X14548D01*
X14648Y21257D02*
Y21232D01*
X14699D01*
Y21257D01*
X14724D01*
Y21308D01*
X14699D01*
Y21334D01*
X14648D01*
Y21308D01*
X14622D01*
Y21257D01*
X14648D01*
X13910Y20570D02*
Y20545D01*
X13961D01*
Y20570D01*
X13987D01*
Y20621D01*
X13961D01*
Y20646D01*
X13910D01*
Y20621D01*
X13885D01*
Y20570D01*
X13910D01*
X13898Y20770D02*
Y20745D01*
X13949D01*
Y20770D01*
X13974D01*
Y20821D01*
X13949D01*
Y20846D01*
X13898D01*
Y20821D01*
X13872D01*
Y20770D01*
X13898D01*
X13748Y20895D02*
Y20870D01*
X13799D01*
Y20895D01*
X13824D01*
Y20946D01*
X13799D01*
Y20971D01*
X13748D01*
Y20946D01*
X13722D01*
Y20895D01*
X13748D01*
X11810Y19995D02*
Y19970D01*
X11861D01*
Y19995D01*
X11886D01*
Y20046D01*
X11861D01*
Y20071D01*
X11810D01*
Y20046D01*
X11785D01*
Y19995D01*
X11810D01*
X12035Y20870D02*
Y20845D01*
X12086D01*
Y20870D01*
X12111D01*
Y20921D01*
X12086D01*
Y20946D01*
X12035D01*
Y20921D01*
X12010D01*
Y20870D01*
X12035D01*
X6110D02*
Y20845D01*
X6161D01*
Y20870D01*
X6187D01*
Y20921D01*
X6161D01*
Y20946D01*
X6110D01*
Y20921D01*
X6085D01*
Y20870D01*
X6110D01*
X10260Y19995D02*
Y19970D01*
X10311D01*
Y19995D01*
X10336D01*
Y20046D01*
X10311D01*
Y20071D01*
X10260D01*
Y20046D01*
X10235D01*
Y19995D01*
X10260D01*
X8335Y20295D02*
Y20270D01*
X8386D01*
Y20295D01*
X8411D01*
Y20346D01*
X8386D01*
Y20371D01*
X8335D01*
Y20346D01*
X8310D01*
Y20295D01*
X8335D01*
X8072Y20308D02*
Y20282D01*
X8123D01*
Y20308D01*
X8149D01*
Y20359D01*
X8123D01*
Y20384D01*
X8072D01*
Y20359D01*
X8047D01*
Y20308D01*
X8072D01*
X11635Y19770D02*
Y19745D01*
X11686D01*
Y19770D01*
X11711D01*
Y19821D01*
X11686D01*
Y19846D01*
X11635D01*
Y19821D01*
X11610D01*
Y19770D01*
X11635D01*
X10360Y20195D02*
Y20170D01*
X10411D01*
Y20195D01*
X10436D01*
Y20246D01*
X10411D01*
Y20271D01*
X10360D01*
Y20246D01*
X10335D01*
Y20195D01*
X10360D01*
X7818Y20445D02*
Y20420D01*
X7869D01*
Y20445D01*
X7894D01*
Y20496D01*
X7869D01*
Y20521D01*
X7818D01*
Y20496D01*
X7793D01*
Y20445D01*
X7818D01*
X11585Y19995D02*
Y19970D01*
X11636D01*
Y19995D01*
X11661D01*
Y20046D01*
X11636D01*
Y20071D01*
X11585D01*
Y20046D01*
X11560D01*
Y19995D01*
X11585D01*
X7060Y20320D02*
Y20295D01*
X7111D01*
Y20320D01*
X7136D01*
Y20371D01*
X7111D01*
Y20396D01*
X7060D01*
Y20371D01*
X7035D01*
Y20320D01*
X7060D01*
X6835D02*
Y20295D01*
X6886D01*
Y20320D01*
X6911D01*
Y20371D01*
X6886D01*
Y20396D01*
X6835D01*
Y20371D01*
X6810D01*
Y20320D01*
X6835D01*
X14260Y19620D02*
Y19595D01*
X14311D01*
Y19620D01*
X14337D01*
Y19671D01*
X14311D01*
Y19696D01*
X14260D01*
Y19671D01*
X14235D01*
Y19620D01*
X14260D01*
X14085Y20995D02*
Y20970D01*
X14136D01*
Y20995D01*
X14162D01*
Y21046D01*
X14136D01*
Y21071D01*
X14085D01*
Y21046D01*
X14060D01*
Y20995D01*
X14085D01*
M02*
