%FSLAX42Y42*%
%MOMM*%
G71*
G01*
G75*
%ADD10C,0.15*%
%ADD11C,0.25*%
%ADD12C,0.30*%
%ADD13C,0.12*%
%ADD14C,0.20*%
%ADD15C,0.13*%
%ADD16C,0.17*%
D14*
X-1000Y-500D02*
Y6000D01*
Y-500D02*
X15000D01*
Y6000D01*
X-1000D02*
X15000D01*
D15*
X5754Y4850D02*
X5844D01*
X5799Y4805D02*
Y4895D01*
X5500Y4850D02*
X5590D01*
X5545Y4805D02*
Y4895D01*
X5246Y4850D02*
X5336D01*
X5291Y4805D02*
Y4895D01*
X4992Y4850D02*
X5082D01*
X5037Y4805D02*
Y4895D01*
X4484Y4850D02*
X4574D01*
X4529Y4805D02*
Y4895D01*
X4230Y4850D02*
X4320D01*
X4275Y4805D02*
Y4895D01*
X4738Y4850D02*
X4828D01*
X4783Y4805D02*
Y4895D01*
X6355Y4850D02*
X6445D01*
X6400Y4805D02*
Y4895D01*
X6609Y4850D02*
X6699D01*
X6654Y4805D02*
Y4895D01*
X6863Y4850D02*
X6953D01*
X6908Y4805D02*
Y4895D01*
X3792Y4850D02*
X3882D01*
X3837Y4805D02*
Y4895D01*
X3538Y4850D02*
X3628D01*
X3583Y4805D02*
Y4895D01*
X3284Y4850D02*
X3374D01*
X3329Y4805D02*
Y4895D01*
X3030Y4850D02*
X3120D01*
X3075Y4805D02*
Y4895D01*
X9347Y2286D02*
X9449D01*
X9398Y2235D02*
Y2337D01*
X9601Y2286D02*
X9703D01*
X9652Y2235D02*
Y2337D01*
X9855Y2286D02*
X9957D01*
X9906Y2235D02*
Y2337D01*
X10109Y2286D02*
X10211D01*
X10160Y2235D02*
Y2337D01*
X10363Y2286D02*
X10465D01*
X10414Y2235D02*
Y2337D01*
X10617Y2286D02*
X10719D01*
X10668Y2235D02*
Y2337D01*
X10871Y2286D02*
X10973D01*
X10922Y2235D02*
Y2337D01*
X2960Y3650D02*
X3090D01*
X3025Y3585D02*
Y3715D01*
X2960Y3150D02*
X3090D01*
X3025Y3085D02*
Y3215D01*
X4260Y3150D02*
X4390D01*
X4325Y3085D02*
Y3215D01*
X4260Y3650D02*
X4390D01*
X4325Y3585D02*
Y3715D01*
X5810Y1725D02*
X5940D01*
X5875Y1660D02*
Y1790D01*
X5810Y2225D02*
X5940D01*
X5875Y2160D02*
Y2290D01*
X4510Y2225D02*
X4640D01*
X4575Y2160D02*
Y2290D01*
X4510Y1725D02*
X4640D01*
X4575Y1660D02*
Y1790D01*
X4235Y1725D02*
X4365D01*
X4300Y1660D02*
Y1790D01*
X4235Y2225D02*
X4365D01*
X4300Y2160D02*
Y2290D01*
X2935Y2225D02*
X3065D01*
X3000Y2160D02*
Y2290D01*
X2935Y1725D02*
X3065D01*
X3000Y1660D02*
Y1790D01*
X2660Y1725D02*
X2790D01*
X2725Y1660D02*
Y1790D01*
X2660Y2225D02*
X2790D01*
X2725Y2160D02*
Y2290D01*
X1360Y2225D02*
X1490D01*
X1425Y2160D02*
Y2290D01*
X1360Y1725D02*
X1490D01*
X1425Y1660D02*
Y1790D01*
X4535Y3650D02*
X4665D01*
X4600Y3585D02*
Y3715D01*
X4535Y3150D02*
X4665D01*
X4600Y3085D02*
Y3215D01*
X5835Y3150D02*
X5965D01*
X5900Y3085D02*
Y3215D01*
X5835Y3650D02*
X5965D01*
X5900Y3585D02*
Y3715D01*
X2170Y4000D02*
X2280D01*
X2225Y3945D02*
Y4055D01*
X1920Y4000D02*
X2030D01*
X1975Y3945D02*
Y4055D01*
X2170Y3000D02*
X2280D01*
X2225Y2945D02*
Y3055D01*
X1920Y3000D02*
X2030D01*
X1975Y2945D02*
Y3055D01*
X2170Y3500D02*
X2280D01*
X2225Y3445D02*
Y3555D01*
X1920Y3500D02*
X2030D01*
X1975Y3445D02*
Y3555D01*
X640Y800D02*
X960D01*
X800Y640D02*
Y960D01*
X640Y3000D02*
X960D01*
X800Y2840D02*
Y3160D01*
X13040Y3000D02*
X13360D01*
X13200Y2840D02*
Y3160D01*
X13040Y800D02*
X13360D01*
X13200Y640D02*
Y960D01*
X6840Y3000D02*
X7160D01*
X7000Y2840D02*
Y3160D01*
X6840Y800D02*
X7160D01*
X7000Y640D02*
Y960D01*
X11014Y4350D02*
X11086D01*
X11050Y4314D02*
Y4386D01*
X11189Y2975D02*
X11261D01*
X11225Y2939D02*
Y3011D01*
X3764Y3675D02*
X3836D01*
X3800Y3639D02*
Y3711D01*
X3989Y3675D02*
X4061D01*
X4025Y3639D02*
Y3711D01*
X8514Y3350D02*
X8586D01*
X8550Y3314D02*
Y3386D01*
X4747Y3800D02*
X4819D01*
X4783Y3764D02*
Y3836D01*
X7289Y3550D02*
X7361D01*
X7325Y3514D02*
Y3586D01*
X8564Y3125D02*
X8636D01*
X8600Y3089D02*
Y3161D01*
X5001Y3663D02*
X5073D01*
X5037Y3627D02*
Y3699D01*
X5264Y3650D02*
X5336D01*
X5300Y3614D02*
Y3686D01*
X7189Y3350D02*
X7261D01*
X7225Y3314D02*
Y3386D01*
X3039Y4225D02*
X3111D01*
X3075Y4189D02*
Y4261D01*
X8964Y4225D02*
X9036D01*
X9000Y4189D02*
Y4261D01*
X8739Y3350D02*
X8811D01*
X8775Y3314D02*
Y3386D01*
X10677Y4250D02*
X10748D01*
X10712Y4214D02*
Y4286D01*
X10827Y4125D02*
X10898D01*
X10862Y4089D02*
Y4161D01*
X10839Y3925D02*
X10911D01*
X10875Y3889D02*
Y3961D01*
X11577Y4612D02*
X11648D01*
X11612Y4577D02*
Y4648D01*
X11477Y4438D02*
X11548D01*
X11512Y4402D02*
Y4473D01*
X10308Y4475D02*
X10379D01*
X10343Y4439D02*
Y4511D01*
X10539Y4475D02*
X10611D01*
X10575Y4439D02*
Y4511D01*
X9239Y4925D02*
X9311D01*
X9275Y4889D02*
Y4961D01*
M02*
