%FSLAX42Y42*%
%MOMM*%
G71*
G01*
G75*
G04 Layer_Physical_Order=2*
G04 Layer_Color=16711680*
%ADD10C,0.20*%
%ADD11R,0.40X1.60*%
%ADD12R,1.60X0.40*%
%ADD13R,0.70X1.30*%
%ADD14R,1.30X0.70*%
%ADD15R,0.90X1.30*%
%ADD16R,1.30X0.90*%
%ADD17R,1.40X0.70*%
%ADD18R,1.60X0.90*%
%ADD19C,0.30*%
%ADD20C,0.50*%
%ADD21C,4.00*%
%ADD22C,1.70*%
%ADD23C,2.00*%
%ADD24C,1.52*%
%ADD25R,1.52X1.52*%
%ADD26R,1.50X1.50*%
%ADD27C,1.50*%
%ADD28C,1.27*%
D10*
X2061Y9670D02*
X18061D01*
Y3170D02*
Y9670D01*
X2061Y3170D02*
X18061D01*
X2061D02*
Y9670D01*
Y16170D02*
X18061D01*
Y9670D02*
Y16170D01*
X2061Y9670D02*
X18061D01*
X2061D02*
Y16170D01*
Y22670D02*
X18061D01*
Y16170D02*
Y22670D01*
X2061Y16170D02*
X18061D01*
X2061D02*
Y22670D01*
D19*
X6036Y7595D02*
X13936D01*
X5286Y6845D02*
X6036Y7595D01*
X5286Y6670D02*
Y6845D01*
X7198Y8220D02*
X13329D01*
X6898Y8520D02*
X7198Y8220D01*
X13329D02*
X13404Y8145D01*
X14386Y8295D02*
X14573Y8108D01*
X9940Y8295D02*
X14386D01*
X9715Y8520D02*
X9940Y8295D01*
X14536Y8420D02*
X14673Y8283D01*
X10069Y8420D02*
X14536D01*
X9969Y8520D02*
X10069Y8420D01*
X5286Y7170D02*
Y7270D01*
X5711Y7695D01*
X13823D01*
X13923Y7795D01*
X5286Y7670D02*
X5636Y8020D01*
X12911D01*
X13136Y7795D01*
X13648D01*
X13773Y7920D01*
X6390Y8466D02*
Y8520D01*
Y8466D02*
X6711Y8145D01*
X13161D01*
X13286Y8020D01*
X13561D01*
X13636Y8095D01*
Y8145D01*
X8636Y7020D02*
X10286D01*
X8361Y7295D02*
X8636Y7020D01*
X8098Y7008D02*
Y7333D01*
Y7008D02*
X8761Y6345D01*
X11211D01*
X11661Y6795D01*
X7844Y7470D02*
X7869Y7495D01*
X10111D02*
X10386Y7220D01*
X7869Y7495D02*
X10111D01*
X7086Y6670D02*
Y7345D01*
Y6670D02*
X7586Y6170D01*
X11236D01*
X11786Y6720D01*
Y6845D01*
X11611Y7020D02*
X11786Y6845D01*
X11611Y7020D02*
X11611D01*
X6861Y6570D02*
Y7345D01*
Y6570D02*
X7386Y6045D01*
X11336D01*
X11861Y6571D01*
Y6995D01*
X11836Y7020D02*
X11861Y6995D01*
X6036Y14095D02*
X13936D01*
X5286Y13345D02*
X6036Y14095D01*
X5286Y13170D02*
Y13345D01*
X7198Y14720D02*
X13329D01*
X6898Y15020D02*
X7198Y14720D01*
X13329D02*
X13404Y14645D01*
X14386Y14795D02*
X14573Y14608D01*
X9940Y14795D02*
X14386D01*
X9715Y15020D02*
X9940Y14795D01*
X14536Y14920D02*
X14673Y14783D01*
X10069Y14920D02*
X14536D01*
X9969Y15020D02*
X10069Y14920D01*
X5286Y13670D02*
Y13770D01*
X5711Y14195D01*
X13823D01*
X13923Y14295D01*
X5286Y14170D02*
X5636Y14520D01*
X12911D01*
X13136Y14295D01*
X13648D01*
X13773Y14420D01*
X6390Y14966D02*
Y15020D01*
Y14966D02*
X6711Y14645D01*
X13161D01*
X13286Y14520D01*
X13561D01*
X13636Y14595D01*
Y14645D01*
X8636Y13520D02*
X10286D01*
X8361Y13795D02*
X8636Y13520D01*
X8098Y13508D02*
Y13833D01*
Y13508D02*
X8761Y12845D01*
X11211D01*
X11661Y13295D01*
X7844Y13970D02*
X7869Y13995D01*
X10111D02*
X10386Y13720D01*
X7869Y13995D02*
X10111D01*
X7086Y13170D02*
Y13845D01*
Y13170D02*
X7586Y12670D01*
X11236D01*
X11786Y13220D01*
Y13345D01*
X11611Y13520D02*
X11786Y13345D01*
X11611Y13520D02*
X11611D01*
X6861Y13070D02*
Y13845D01*
Y13070D02*
X7386Y12545D01*
X11336D01*
X11861Y13071D01*
Y13495D01*
X11836Y13520D02*
X11861Y13495D01*
X6036Y20595D02*
X13936D01*
X5286Y19845D02*
X6036Y20595D01*
X5286Y19670D02*
Y19845D01*
X7198Y21220D02*
X13329D01*
X6898Y21520D02*
X7198Y21220D01*
X13329D02*
X13404Y21145D01*
X14386Y21295D02*
X14573Y21108D01*
X9940Y21295D02*
X14386D01*
X9715Y21520D02*
X9940Y21295D01*
X14536Y21420D02*
X14673Y21283D01*
X10069Y21420D02*
X14536D01*
X9969Y21520D02*
X10069Y21420D01*
X5286Y20170D02*
Y20270D01*
X5711Y20695D01*
X13823D01*
X13923Y20795D01*
X5286Y20670D02*
X5636Y21020D01*
X12911D01*
X13136Y20795D01*
X13648D01*
X13773Y20920D01*
X6390Y21466D02*
Y21520D01*
Y21466D02*
X6711Y21145D01*
X13161D01*
X13286Y21020D01*
X13561D01*
X13636Y21095D01*
Y21145D01*
X8636Y20020D02*
X10286D01*
X8361Y20295D02*
X8636Y20020D01*
X8098Y20008D02*
Y20333D01*
Y20008D02*
X8761Y19345D01*
X11211D01*
X11661Y19795D01*
X7844Y20470D02*
X7869Y20495D01*
X10111D02*
X10386Y20220D01*
X7869Y20495D02*
X10111D01*
X7086Y19670D02*
Y20345D01*
Y19670D02*
X7586Y19170D01*
X11236D01*
X11786Y19720D01*
Y19845D01*
X11611Y20020D02*
X11786Y19845D01*
X11611Y20020D02*
X11611D01*
X6861Y19570D02*
Y20345D01*
Y19570D02*
X7386Y19045D01*
X11336D01*
X11861Y19571D01*
Y19995D01*
X11836Y20020D02*
X11861Y19995D01*
D20*
X6136Y7895D02*
X12061D01*
X8606Y8520D02*
Y8565D01*
X8761Y8720D01*
X12211D01*
X12336Y8595D01*
X14111Y6820D02*
Y8020D01*
Y6820D02*
X14286Y6645D01*
X6136Y14395D02*
X12061D01*
X8606Y15020D02*
Y15065D01*
X8761Y15220D01*
X12211D01*
X12336Y15095D01*
X14111Y13320D02*
Y14520D01*
Y13320D02*
X14286Y13145D01*
X6136Y20895D02*
X12061D01*
X8606Y21520D02*
Y21565D01*
X8761Y21720D01*
X12211D01*
X12336Y21595D01*
X14111Y19820D02*
Y21020D01*
Y19820D02*
X14286Y19645D01*
D21*
X10061Y4470D02*
D03*
Y6670D02*
D03*
X16261Y4470D02*
D03*
Y6670D02*
D03*
X3861D02*
D03*
Y4470D02*
D03*
X10061Y10970D02*
D03*
Y13170D02*
D03*
X16261Y10970D02*
D03*
Y13170D02*
D03*
X3861D02*
D03*
Y10970D02*
D03*
X10061Y17470D02*
D03*
Y19670D02*
D03*
X16261Y17470D02*
D03*
Y19670D02*
D03*
X3861D02*
D03*
Y17470D02*
D03*
D22*
X5036Y7170D02*
D03*
X5286D02*
D03*
X5036Y6670D02*
D03*
X5286D02*
D03*
X5036Y7670D02*
D03*
X5286D02*
D03*
X5036Y13670D02*
D03*
X5286D02*
D03*
X5036Y13170D02*
D03*
X5286D02*
D03*
X5036Y14170D02*
D03*
X5286D02*
D03*
X5036Y20170D02*
D03*
X5286D02*
D03*
X5036Y19670D02*
D03*
X5286D02*
D03*
X5036Y20670D02*
D03*
X5286D02*
D03*
D23*
X8961Y7320D02*
D03*
Y6820D02*
D03*
X7661D02*
D03*
Y7320D02*
D03*
X4486Y5395D02*
D03*
Y5895D02*
D03*
X5786D02*
D03*
Y5395D02*
D03*
X6061D02*
D03*
Y5895D02*
D03*
X7361D02*
D03*
Y5395D02*
D03*
X7636D02*
D03*
Y5895D02*
D03*
X8936D02*
D03*
Y5395D02*
D03*
X7386Y7320D02*
D03*
Y6820D02*
D03*
X6086D02*
D03*
Y7320D02*
D03*
X8961Y13820D02*
D03*
Y13320D02*
D03*
X7661D02*
D03*
Y13820D02*
D03*
X4486Y11895D02*
D03*
Y12395D02*
D03*
X5786D02*
D03*
Y11895D02*
D03*
X6061D02*
D03*
Y12395D02*
D03*
X7361D02*
D03*
Y11895D02*
D03*
X7636D02*
D03*
Y12395D02*
D03*
X8936D02*
D03*
Y11895D02*
D03*
X7386Y13820D02*
D03*
Y13320D02*
D03*
X6086D02*
D03*
Y13820D02*
D03*
X8961Y20320D02*
D03*
Y19820D02*
D03*
X7661D02*
D03*
Y20320D02*
D03*
X4486Y18395D02*
D03*
Y18895D02*
D03*
X5786D02*
D03*
Y18395D02*
D03*
X6061D02*
D03*
Y18895D02*
D03*
X7361D02*
D03*
Y18395D02*
D03*
X7636D02*
D03*
Y18895D02*
D03*
X8936D02*
D03*
Y18395D02*
D03*
X7386Y20320D02*
D03*
Y19820D02*
D03*
X6086D02*
D03*
Y20320D02*
D03*
D24*
X13983Y5956D02*
D03*
X13729D02*
D03*
X13475D02*
D03*
X13221D02*
D03*
X12967D02*
D03*
X12713D02*
D03*
X13983Y12456D02*
D03*
X13729D02*
D03*
X13475D02*
D03*
X13221D02*
D03*
X12967D02*
D03*
X12713D02*
D03*
X13983Y18956D02*
D03*
X13729D02*
D03*
X13475D02*
D03*
X13221D02*
D03*
X12967D02*
D03*
X12713D02*
D03*
D25*
X12459Y5956D02*
D03*
Y12456D02*
D03*
Y18956D02*
D03*
D26*
X6136Y8520D02*
D03*
X9461D02*
D03*
X7336D02*
D03*
X6136Y15020D02*
D03*
X9461D02*
D03*
X7336D02*
D03*
X6136Y21520D02*
D03*
X9461D02*
D03*
X7336D02*
D03*
D27*
X6390Y8520D02*
D03*
X6644D02*
D03*
X6898D02*
D03*
X9969D02*
D03*
X9715D02*
D03*
X7844D02*
D03*
X7590D02*
D03*
X8098D02*
D03*
X8352D02*
D03*
X8606D02*
D03*
X8860D02*
D03*
X6390Y15020D02*
D03*
X6644D02*
D03*
X6898D02*
D03*
X9969D02*
D03*
X9715D02*
D03*
X7844D02*
D03*
X7590D02*
D03*
X8098D02*
D03*
X8352D02*
D03*
X8606D02*
D03*
X8860D02*
D03*
X6390Y21520D02*
D03*
X6644D02*
D03*
X6898D02*
D03*
X9969D02*
D03*
X9715D02*
D03*
X7844D02*
D03*
X7590D02*
D03*
X8098D02*
D03*
X8352D02*
D03*
X8606D02*
D03*
X8860D02*
D03*
D28*
X12336Y8595D02*
D03*
X13636Y8145D02*
D03*
X13404D02*
D03*
X14573Y8108D02*
D03*
X14673Y8283D02*
D03*
X13936Y7595D02*
D03*
X13923Y7795D02*
D03*
X13773Y7920D02*
D03*
X11836Y7020D02*
D03*
X12061Y7895D02*
D03*
X6136D02*
D03*
X10286Y7020D02*
D03*
X8361Y7320D02*
D03*
X8098Y7333D02*
D03*
X11661Y6795D02*
D03*
X10386Y7220D02*
D03*
X7844Y7470D02*
D03*
X11611Y7020D02*
D03*
X7086Y7345D02*
D03*
X6861D02*
D03*
X14286Y6645D02*
D03*
X14111Y8020D02*
D03*
X12336Y15095D02*
D03*
X13636Y14645D02*
D03*
X13404D02*
D03*
X14573Y14608D02*
D03*
X14673Y14783D02*
D03*
X13936Y14095D02*
D03*
X13923Y14295D02*
D03*
X13773Y14420D02*
D03*
X11836Y13520D02*
D03*
X12061Y14395D02*
D03*
X6136D02*
D03*
X10286Y13520D02*
D03*
X8361Y13820D02*
D03*
X8098Y13833D02*
D03*
X11661Y13295D02*
D03*
X10386Y13720D02*
D03*
X7844Y13970D02*
D03*
X11611Y13520D02*
D03*
X7086Y13845D02*
D03*
X6861D02*
D03*
X14286Y13145D02*
D03*
X14111Y14520D02*
D03*
X12336Y21595D02*
D03*
X13636Y21145D02*
D03*
X13404D02*
D03*
X14573Y21108D02*
D03*
X14673Y21283D02*
D03*
X13936Y20595D02*
D03*
X13923Y20795D02*
D03*
X13773Y20920D02*
D03*
X11836Y20020D02*
D03*
X12061Y20895D02*
D03*
X6136D02*
D03*
X10286Y20020D02*
D03*
X8361Y20320D02*
D03*
X8098Y20333D02*
D03*
X11661Y19795D02*
D03*
X10386Y20220D02*
D03*
X7844Y20470D02*
D03*
X11611Y20020D02*
D03*
X7086Y20345D02*
D03*
X6861D02*
D03*
X14286Y19645D02*
D03*
X14111Y21020D02*
D03*
M02*
