%FSLAX42Y42*%
%MOMM*%
G71*
G01*
G75*
G04 Layer_Color=16711935*
%ADD10C,0.30*%
%ADD11R,0.40X1.60*%
%ADD12R,1.60X0.40*%
%ADD13R,1.30X0.70*%
%ADD14R,1.30X0.90*%
%ADD15R,0.70X1.30*%
%ADD16R,0.90X1.30*%
%ADD17R,1.40X0.70*%
%ADD18R,0.90X1.60*%
%ADD19C,0.50*%
%ADD20C,1.50*%
%ADD21R,1.50X1.50*%
%ADD22C,2.00*%
%ADD23C,1.70*%
%ADD24R,1.52X1.52*%
%ADD25C,1.52*%
%ADD26C,1.00*%
%ADD27R,0.60X1.80*%
%ADD28R,1.80X0.60*%
%ADD29R,1.50X0.90*%
%ADD30R,1.50X1.10*%
%ADD31R,0.90X1.50*%
%ADD32R,1.10X1.50*%
%ADD33R,1.60X0.90*%
%ADD34R,1.10X1.80*%
%ADD35R,1.70X1.70*%
%ADD36C,2.20*%
%ADD37C,1.90*%
%ADD38R,1.72X1.72*%
%ADD39C,1.72*%
%ADD40C,1.20*%
D10*
X2438Y7802D02*
X9938D01*
Y3302D02*
Y7802D01*
X2438Y3302D02*
X9938D01*
X2438D02*
Y7802D01*
X10138D02*
X17638D01*
Y3302D02*
Y7802D01*
X10138Y3302D02*
X17638D01*
X10138D02*
Y7802D01*
X2438Y12502D02*
X9938D01*
Y8002D02*
Y12502D01*
X2438Y8002D02*
X9938D01*
X2438D02*
Y12502D01*
X10138D02*
X17638D01*
Y8002D02*
Y12502D01*
X10138Y8002D02*
X17638D01*
X10138D02*
Y12502D01*
X2438Y17202D02*
X9938D01*
Y12702D02*
Y17202D01*
X2438Y12702D02*
X9938D01*
X2438D02*
Y17202D01*
X10138D02*
X17638D01*
Y12702D02*
Y17202D01*
X10138Y12702D02*
X17638D01*
X10138D02*
Y17202D01*
X2438Y21902D02*
X9938D01*
Y17402D02*
Y21902D01*
X2438Y17402D02*
X9938D01*
X2438D02*
Y21902D01*
X10138D02*
X17638D01*
Y17402D02*
Y21902D01*
X10138Y17402D02*
X17638D01*
X10138D02*
Y21902D01*
D23*
X4267Y7569D02*
D03*
X4013D02*
D03*
X2946D02*
D03*
X3200D02*
D03*
X3454D02*
D03*
X3200Y7214D02*
D03*
X2946D02*
D03*
X3454D02*
D03*
X3708D02*
D03*
X3962D02*
D03*
X4216D02*
D03*
X11967Y7569D02*
D03*
X11713D02*
D03*
X10646D02*
D03*
X10900D02*
D03*
X11154D02*
D03*
X10900Y7214D02*
D03*
X10646D02*
D03*
X11154D02*
D03*
X11408D02*
D03*
X11662D02*
D03*
X11916D02*
D03*
X4267Y12269D02*
D03*
X4013D02*
D03*
X2946D02*
D03*
X3200D02*
D03*
X3454D02*
D03*
X3200Y11914D02*
D03*
X2946D02*
D03*
X3454D02*
D03*
X3708D02*
D03*
X3962D02*
D03*
X4216D02*
D03*
X11967Y12269D02*
D03*
X11713D02*
D03*
X10646D02*
D03*
X10900D02*
D03*
X11154D02*
D03*
X10900Y11914D02*
D03*
X10646D02*
D03*
X11154D02*
D03*
X11408D02*
D03*
X11662D02*
D03*
X11916D02*
D03*
X4267Y16969D02*
D03*
X4013D02*
D03*
X2946D02*
D03*
X3200D02*
D03*
X3454D02*
D03*
X3200Y16614D02*
D03*
X2946D02*
D03*
X3454D02*
D03*
X3708D02*
D03*
X3962D02*
D03*
X4216D02*
D03*
X11967Y16969D02*
D03*
X11713D02*
D03*
X10646D02*
D03*
X10900D02*
D03*
X11154D02*
D03*
X10900Y16614D02*
D03*
X10646D02*
D03*
X11154D02*
D03*
X11408D02*
D03*
X11662D02*
D03*
X11916D02*
D03*
X4267Y21669D02*
D03*
X4013D02*
D03*
X2946D02*
D03*
X3200D02*
D03*
X3454D02*
D03*
X3200Y21314D02*
D03*
X2946D02*
D03*
X3454D02*
D03*
X3708D02*
D03*
X3962D02*
D03*
X4216D02*
D03*
X11967Y21669D02*
D03*
X11713D02*
D03*
X10646D02*
D03*
X10900D02*
D03*
X11154D02*
D03*
X10900Y21314D02*
D03*
X10646D02*
D03*
X11154D02*
D03*
X11408D02*
D03*
X11662D02*
D03*
X11916D02*
D03*
D35*
X3759Y7569D02*
D03*
X2692D02*
D03*
Y7214D02*
D03*
X11459Y7569D02*
D03*
X10392D02*
D03*
Y7214D02*
D03*
X3759Y12269D02*
D03*
X2692D02*
D03*
Y11914D02*
D03*
X11459Y12269D02*
D03*
X10392D02*
D03*
Y11914D02*
D03*
X3759Y16969D02*
D03*
X2692D02*
D03*
Y16614D02*
D03*
X11459Y16969D02*
D03*
X10392D02*
D03*
Y16614D02*
D03*
X3759Y21669D02*
D03*
X2692D02*
D03*
Y21314D02*
D03*
X11459Y21669D02*
D03*
X10392D02*
D03*
Y21314D02*
D03*
D36*
X3353Y4928D02*
D03*
Y4178D02*
D03*
X2853D02*
D03*
Y4928D02*
D03*
X4369D02*
D03*
Y4178D02*
D03*
X3869D02*
D03*
Y4928D02*
D03*
X3353Y6096D02*
D03*
Y5346D02*
D03*
X2853D02*
D03*
Y6096D02*
D03*
X4369D02*
D03*
Y5346D02*
D03*
X3869D02*
D03*
Y6096D02*
D03*
X9788Y5152D02*
D03*
X2588D02*
D03*
X11053Y4928D02*
D03*
Y4178D02*
D03*
X10553D02*
D03*
Y4928D02*
D03*
X12069D02*
D03*
Y4178D02*
D03*
X11569D02*
D03*
Y4928D02*
D03*
X11053Y6096D02*
D03*
Y5346D02*
D03*
X10553D02*
D03*
Y6096D02*
D03*
X12069D02*
D03*
Y5346D02*
D03*
X11569D02*
D03*
Y6096D02*
D03*
X17488Y5152D02*
D03*
X10288D02*
D03*
X3353Y9628D02*
D03*
Y8878D02*
D03*
X2853D02*
D03*
Y9628D02*
D03*
X4369D02*
D03*
Y8878D02*
D03*
X3869D02*
D03*
Y9628D02*
D03*
X3353Y10796D02*
D03*
Y10046D02*
D03*
X2853D02*
D03*
Y10796D02*
D03*
X4369D02*
D03*
Y10046D02*
D03*
X3869D02*
D03*
Y10796D02*
D03*
X9788Y9852D02*
D03*
X2588D02*
D03*
X11053Y9628D02*
D03*
Y8878D02*
D03*
X10553D02*
D03*
Y9628D02*
D03*
X12069D02*
D03*
Y8878D02*
D03*
X11569D02*
D03*
Y9628D02*
D03*
X11053Y10796D02*
D03*
Y10046D02*
D03*
X10553D02*
D03*
Y10796D02*
D03*
X12069D02*
D03*
Y10046D02*
D03*
X11569D02*
D03*
Y10796D02*
D03*
X17488Y9852D02*
D03*
X10288D02*
D03*
X3353Y14328D02*
D03*
Y13578D02*
D03*
X2853D02*
D03*
Y14328D02*
D03*
X4369D02*
D03*
Y13578D02*
D03*
X3869D02*
D03*
Y14328D02*
D03*
X3353Y15496D02*
D03*
Y14746D02*
D03*
X2853D02*
D03*
Y15496D02*
D03*
X4369D02*
D03*
Y14746D02*
D03*
X3869D02*
D03*
Y15496D02*
D03*
X9788Y14552D02*
D03*
X2588D02*
D03*
X11053Y14328D02*
D03*
Y13578D02*
D03*
X10553D02*
D03*
Y14328D02*
D03*
X12069D02*
D03*
Y13578D02*
D03*
X11569D02*
D03*
Y14328D02*
D03*
X11053Y15496D02*
D03*
Y14746D02*
D03*
X10553D02*
D03*
Y15496D02*
D03*
X12069D02*
D03*
Y14746D02*
D03*
X11569D02*
D03*
Y15496D02*
D03*
X17488Y14552D02*
D03*
X10288D02*
D03*
X3353Y19028D02*
D03*
Y18278D02*
D03*
X2853D02*
D03*
Y19028D02*
D03*
X4369D02*
D03*
Y18278D02*
D03*
X3869D02*
D03*
Y19028D02*
D03*
X3353Y20196D02*
D03*
Y19446D02*
D03*
X2853D02*
D03*
Y20196D02*
D03*
X4369D02*
D03*
Y19446D02*
D03*
X3869D02*
D03*
Y20196D02*
D03*
X9788Y19252D02*
D03*
X2588D02*
D03*
X11053Y19028D02*
D03*
Y18278D02*
D03*
X10553D02*
D03*
Y19028D02*
D03*
X12069D02*
D03*
Y18278D02*
D03*
X11569D02*
D03*
Y19028D02*
D03*
X11053Y20196D02*
D03*
Y19446D02*
D03*
X10553D02*
D03*
Y20196D02*
D03*
X12069D02*
D03*
Y19446D02*
D03*
X11569D02*
D03*
Y20196D02*
D03*
X17488Y19252D02*
D03*
X10288D02*
D03*
D37*
X4115Y6631D02*
D03*
Y6881D02*
D03*
X3556Y6631D02*
D03*
Y6881D02*
D03*
X2946Y6631D02*
D03*
Y6881D02*
D03*
X11815Y6631D02*
D03*
Y6881D02*
D03*
X11256Y6631D02*
D03*
Y6881D02*
D03*
X10646Y6631D02*
D03*
Y6881D02*
D03*
X4115Y11331D02*
D03*
Y11581D02*
D03*
X3556Y11331D02*
D03*
Y11581D02*
D03*
X2946Y11331D02*
D03*
Y11581D02*
D03*
X11815Y11331D02*
D03*
Y11581D02*
D03*
X11256Y11331D02*
D03*
Y11581D02*
D03*
X10646Y11331D02*
D03*
Y11581D02*
D03*
X4115Y16031D02*
D03*
Y16281D02*
D03*
X3556Y16031D02*
D03*
Y16281D02*
D03*
X2946Y16031D02*
D03*
Y16281D02*
D03*
X11815Y16031D02*
D03*
Y16281D02*
D03*
X11256Y16031D02*
D03*
Y16281D02*
D03*
X10646Y16031D02*
D03*
Y16281D02*
D03*
X4115Y20731D02*
D03*
Y20981D02*
D03*
X3556Y20731D02*
D03*
Y20981D02*
D03*
X2946Y20731D02*
D03*
Y20981D02*
D03*
X11815Y20731D02*
D03*
Y20981D02*
D03*
X11256Y20731D02*
D03*
Y20981D02*
D03*
X10646Y20731D02*
D03*
Y20981D02*
D03*
D38*
X6350Y5080D02*
D03*
X14050D02*
D03*
X6350Y9780D02*
D03*
X14050D02*
D03*
X6350Y14480D02*
D03*
X14050D02*
D03*
X6350Y19180D02*
D03*
X14050D02*
D03*
D39*
X6604Y5080D02*
D03*
X6858D02*
D03*
X7112D02*
D03*
X7366D02*
D03*
X7620D02*
D03*
X7874D02*
D03*
X14304D02*
D03*
X14558D02*
D03*
X14812D02*
D03*
X15066D02*
D03*
X15320D02*
D03*
X15574D02*
D03*
X6604Y9780D02*
D03*
X6858D02*
D03*
X7112D02*
D03*
X7366D02*
D03*
X7620D02*
D03*
X7874D02*
D03*
X14304D02*
D03*
X14558D02*
D03*
X14812D02*
D03*
X15066D02*
D03*
X15320D02*
D03*
X15574D02*
D03*
X6604Y14480D02*
D03*
X6858D02*
D03*
X7112D02*
D03*
X7366D02*
D03*
X7620D02*
D03*
X7874D02*
D03*
X14304D02*
D03*
X14558D02*
D03*
X14812D02*
D03*
X15066D02*
D03*
X15320D02*
D03*
X15574D02*
D03*
X6604Y19180D02*
D03*
X6858D02*
D03*
X7112D02*
D03*
X7366D02*
D03*
X7620D02*
D03*
X7874D02*
D03*
X14304D02*
D03*
X14558D02*
D03*
X14812D02*
D03*
X15066D02*
D03*
X15320D02*
D03*
X15574D02*
D03*
D40*
X7538Y6927D02*
D03*
X7315Y6960D02*
D03*
X5944Y7468D02*
D03*
X5029Y7112D02*
D03*
Y7315D02*
D03*
X7518Y6350D02*
D03*
X7620Y6553D02*
D03*
X3200Y5690D02*
D03*
X3708Y5639D02*
D03*
X6096Y6858D02*
D03*
X5999Y6710D02*
D03*
X6198Y6604D02*
D03*
X4572Y6452D02*
D03*
X6198Y6299D02*
D03*
Y6452D02*
D03*
X3607Y5436D02*
D03*
X3099Y4420D02*
D03*
X7925Y6502D02*
D03*
Y7163D02*
D03*
X2794Y7010D02*
D03*
X15238Y6927D02*
D03*
X15015Y6960D02*
D03*
X13644Y7468D02*
D03*
X12729Y7112D02*
D03*
Y7315D02*
D03*
X15218Y6350D02*
D03*
X15320Y6553D02*
D03*
X10900Y5690D02*
D03*
X11408Y5639D02*
D03*
X13796Y6858D02*
D03*
X13699Y6710D02*
D03*
X13898Y6604D02*
D03*
X12272Y6452D02*
D03*
X13898Y6299D02*
D03*
Y6452D02*
D03*
X11307Y5436D02*
D03*
X10799Y4420D02*
D03*
X15625Y6502D02*
D03*
Y7163D02*
D03*
X10494Y7010D02*
D03*
X7538Y11627D02*
D03*
X7315Y11660D02*
D03*
X5944Y12168D02*
D03*
X5029Y11812D02*
D03*
Y12015D02*
D03*
X7518Y11050D02*
D03*
X7620Y11253D02*
D03*
X3200Y10390D02*
D03*
X3708Y10339D02*
D03*
X6096Y11558D02*
D03*
X5999Y11410D02*
D03*
X6198Y11304D02*
D03*
X4572Y11152D02*
D03*
X6198Y10999D02*
D03*
Y11152D02*
D03*
X3607Y10136D02*
D03*
X3099Y9120D02*
D03*
X7925Y11202D02*
D03*
Y11863D02*
D03*
X2794Y11710D02*
D03*
X15238Y11627D02*
D03*
X15015Y11660D02*
D03*
X13644Y12168D02*
D03*
X12729Y11812D02*
D03*
Y12015D02*
D03*
X15218Y11050D02*
D03*
X15320Y11253D02*
D03*
X10900Y10390D02*
D03*
X11408Y10339D02*
D03*
X13796Y11558D02*
D03*
X13699Y11410D02*
D03*
X13898Y11304D02*
D03*
X12272Y11152D02*
D03*
X13898Y10999D02*
D03*
Y11152D02*
D03*
X11307Y10136D02*
D03*
X10799Y9120D02*
D03*
X15625Y11202D02*
D03*
Y11863D02*
D03*
X10494Y11710D02*
D03*
X7538Y16327D02*
D03*
X7315Y16360D02*
D03*
X5944Y16868D02*
D03*
X5029Y16512D02*
D03*
Y16715D02*
D03*
X7518Y15750D02*
D03*
X7620Y15953D02*
D03*
X3200Y15090D02*
D03*
X3708Y15039D02*
D03*
X6096Y16258D02*
D03*
X5999Y16110D02*
D03*
X6198Y16004D02*
D03*
X4572Y15852D02*
D03*
X6198Y15699D02*
D03*
Y15852D02*
D03*
X3607Y14836D02*
D03*
X3099Y13820D02*
D03*
X7925Y15902D02*
D03*
Y16563D02*
D03*
X2794Y16410D02*
D03*
X15238Y16327D02*
D03*
X15015Y16360D02*
D03*
X13644Y16868D02*
D03*
X12729Y16512D02*
D03*
Y16715D02*
D03*
X15218Y15750D02*
D03*
X15320Y15953D02*
D03*
X10900Y15090D02*
D03*
X11408Y15039D02*
D03*
X13796Y16258D02*
D03*
X13699Y16110D02*
D03*
X13898Y16004D02*
D03*
X12272Y15852D02*
D03*
X13898Y15699D02*
D03*
Y15852D02*
D03*
X11307Y14836D02*
D03*
X10799Y13820D02*
D03*
X15625Y15902D02*
D03*
Y16563D02*
D03*
X10494Y16410D02*
D03*
X7538Y21027D02*
D03*
X7315Y21060D02*
D03*
X5944Y21568D02*
D03*
X5029Y21212D02*
D03*
Y21415D02*
D03*
X7518Y20450D02*
D03*
X7620Y20653D02*
D03*
X3200Y19790D02*
D03*
X3708Y19739D02*
D03*
X6096Y20958D02*
D03*
X5999Y20810D02*
D03*
X6198Y20704D02*
D03*
X4572Y20552D02*
D03*
X6198Y20399D02*
D03*
Y20552D02*
D03*
X3607Y19536D02*
D03*
X3099Y18520D02*
D03*
X7925Y20602D02*
D03*
Y21263D02*
D03*
X2794Y21110D02*
D03*
X15238Y21027D02*
D03*
X15015Y21060D02*
D03*
X13644Y21568D02*
D03*
X12729Y21212D02*
D03*
Y21415D02*
D03*
X15218Y20450D02*
D03*
X15320Y20653D02*
D03*
X10900Y19790D02*
D03*
X11408Y19739D02*
D03*
X13796Y20958D02*
D03*
X13699Y20810D02*
D03*
X13898Y20704D02*
D03*
X12272Y20552D02*
D03*
X13898Y20399D02*
D03*
Y20552D02*
D03*
X11307Y19536D02*
D03*
X10799Y18520D02*
D03*
X15625Y20602D02*
D03*
Y21263D02*
D03*
X10494Y21110D02*
D03*
M02*
