%FSLAX42Y42*%
%MOMM*%
G71*
G01*
G75*
G04 Layer_Color=8388736*
%ADD10C,0.30*%
%ADD11R,0.40X1.60*%
%ADD12R,1.60X0.40*%
%ADD13R,1.30X0.70*%
%ADD14R,1.30X0.90*%
%ADD15R,0.70X1.30*%
%ADD16R,0.90X1.30*%
%ADD17R,1.40X0.70*%
%ADD18R,0.90X1.60*%
%ADD19C,0.50*%
%ADD20C,1.50*%
%ADD21R,1.50X1.50*%
%ADD22C,2.00*%
%ADD23C,1.70*%
%ADD24R,1.52X1.52*%
%ADD25C,1.52*%
%ADD26C,1.00*%
%ADD27R,0.60X1.80*%
%ADD28R,1.80X0.60*%
%ADD29R,1.50X0.90*%
%ADD30R,1.50X1.10*%
%ADD31R,0.90X1.50*%
%ADD32R,1.10X1.50*%
%ADD33R,1.60X0.90*%
%ADD34R,1.10X1.80*%
%ADD35R,1.70X1.70*%
%ADD36C,2.20*%
%ADD37C,1.90*%
%ADD38R,1.72X1.72*%
%ADD39C,1.72*%
%ADD40C,1.20*%
D10*
X17638Y7802D02*
X10138D01*
Y3302D02*
Y7802D01*
X17638Y3302D02*
X10138D01*
X17638D02*
Y7802D01*
X9938D02*
X2438D01*
Y3302D02*
Y7802D01*
X9938Y3302D02*
X2438D01*
X9938D02*
Y7802D01*
X17638Y12502D02*
X10138D01*
Y8002D02*
Y12502D01*
X17638Y8002D02*
X10138D01*
X17638D02*
Y12502D01*
X9938D02*
X2438D01*
Y8002D02*
Y12502D01*
X9938Y8002D02*
X2438D01*
X9938D02*
Y12502D01*
X17638Y17202D02*
X10138D01*
Y12702D02*
Y17202D01*
X17638Y12702D02*
X10138D01*
X17638D02*
Y17202D01*
X9938D02*
X2438D01*
Y12702D02*
Y17202D01*
X9938Y12702D02*
X2438D01*
X9938D02*
Y17202D01*
X17638Y21902D02*
X10138D01*
Y17402D02*
Y21902D01*
X17638Y17402D02*
X10138D01*
X17638D02*
Y21902D01*
X9938D02*
X2438D01*
Y17402D02*
Y21902D01*
X9938Y17402D02*
X2438D01*
X9938D02*
Y21902D01*
D23*
X15810Y7569D02*
D03*
X16064D02*
D03*
X17130D02*
D03*
X16876D02*
D03*
X16622D02*
D03*
X16876Y7214D02*
D03*
X17130D02*
D03*
X16622D02*
D03*
X16368D02*
D03*
X16114D02*
D03*
X15860D02*
D03*
X8110Y7569D02*
D03*
X8364D02*
D03*
X9430D02*
D03*
X9176D02*
D03*
X8922D02*
D03*
X9176Y7214D02*
D03*
X9430D02*
D03*
X8922D02*
D03*
X8668D02*
D03*
X8414D02*
D03*
X8160D02*
D03*
X15810Y12269D02*
D03*
X16064D02*
D03*
X17130D02*
D03*
X16876D02*
D03*
X16622D02*
D03*
X16876Y11914D02*
D03*
X17130D02*
D03*
X16622D02*
D03*
X16368D02*
D03*
X16114D02*
D03*
X15860D02*
D03*
X8110Y12269D02*
D03*
X8364D02*
D03*
X9430D02*
D03*
X9176D02*
D03*
X8922D02*
D03*
X9176Y11914D02*
D03*
X9430D02*
D03*
X8922D02*
D03*
X8668D02*
D03*
X8414D02*
D03*
X8160D02*
D03*
X15810Y16969D02*
D03*
X16064D02*
D03*
X17130D02*
D03*
X16876D02*
D03*
X16622D02*
D03*
X16876Y16614D02*
D03*
X17130D02*
D03*
X16622D02*
D03*
X16368D02*
D03*
X16114D02*
D03*
X15860D02*
D03*
X8110Y16969D02*
D03*
X8364D02*
D03*
X9430D02*
D03*
X9176D02*
D03*
X8922D02*
D03*
X9176Y16614D02*
D03*
X9430D02*
D03*
X8922D02*
D03*
X8668D02*
D03*
X8414D02*
D03*
X8160D02*
D03*
X15810Y21669D02*
D03*
X16064D02*
D03*
X17130D02*
D03*
X16876D02*
D03*
X16622D02*
D03*
X16876Y21314D02*
D03*
X17130D02*
D03*
X16622D02*
D03*
X16368D02*
D03*
X16114D02*
D03*
X15860D02*
D03*
X8110Y21669D02*
D03*
X8364D02*
D03*
X9430D02*
D03*
X9176D02*
D03*
X8922D02*
D03*
X9176Y21314D02*
D03*
X9430D02*
D03*
X8922D02*
D03*
X8668D02*
D03*
X8414D02*
D03*
X8160D02*
D03*
D27*
X12934Y6930D02*
D03*
X13014D02*
D03*
X13094D02*
D03*
X13174D02*
D03*
X13254D02*
D03*
X13334D02*
D03*
X13414D02*
D03*
X13494D02*
D03*
Y6070D02*
D03*
X13414D02*
D03*
X13334D02*
D03*
X13254D02*
D03*
X13174D02*
D03*
X13094D02*
D03*
X13014D02*
D03*
X12934D02*
D03*
X5234Y6930D02*
D03*
X5314D02*
D03*
X5394D02*
D03*
X5474D02*
D03*
X5554D02*
D03*
X5634D02*
D03*
X5714D02*
D03*
X5794D02*
D03*
Y6070D02*
D03*
X5714D02*
D03*
X5634D02*
D03*
X5554D02*
D03*
X5474D02*
D03*
X5394D02*
D03*
X5314D02*
D03*
X5234D02*
D03*
X12934Y11630D02*
D03*
X13014D02*
D03*
X13094D02*
D03*
X13174D02*
D03*
X13254D02*
D03*
X13334D02*
D03*
X13414D02*
D03*
X13494D02*
D03*
Y10770D02*
D03*
X13414D02*
D03*
X13334D02*
D03*
X13254D02*
D03*
X13174D02*
D03*
X13094D02*
D03*
X13014D02*
D03*
X12934D02*
D03*
X5234Y11630D02*
D03*
X5314D02*
D03*
X5394D02*
D03*
X5474D02*
D03*
X5554D02*
D03*
X5634D02*
D03*
X5714D02*
D03*
X5794D02*
D03*
Y10770D02*
D03*
X5714D02*
D03*
X5634D02*
D03*
X5554D02*
D03*
X5474D02*
D03*
X5394D02*
D03*
X5314D02*
D03*
X5234D02*
D03*
X12934Y16330D02*
D03*
X13014D02*
D03*
X13094D02*
D03*
X13174D02*
D03*
X13254D02*
D03*
X13334D02*
D03*
X13414D02*
D03*
X13494D02*
D03*
Y15470D02*
D03*
X13414D02*
D03*
X13334D02*
D03*
X13254D02*
D03*
X13174D02*
D03*
X13094D02*
D03*
X13014D02*
D03*
X12934D02*
D03*
X5234Y16330D02*
D03*
X5314D02*
D03*
X5394D02*
D03*
X5474D02*
D03*
X5554D02*
D03*
X5634D02*
D03*
X5714D02*
D03*
X5794D02*
D03*
Y15470D02*
D03*
X5714D02*
D03*
X5634D02*
D03*
X5554D02*
D03*
X5474D02*
D03*
X5394D02*
D03*
X5314D02*
D03*
X5234D02*
D03*
X12934Y21030D02*
D03*
X13014D02*
D03*
X13094D02*
D03*
X13174D02*
D03*
X13254D02*
D03*
X13334D02*
D03*
X13414D02*
D03*
X13494D02*
D03*
Y20170D02*
D03*
X13414D02*
D03*
X13334D02*
D03*
X13254D02*
D03*
X13174D02*
D03*
X13094D02*
D03*
X13014D02*
D03*
X12934D02*
D03*
X5234Y21030D02*
D03*
X5314D02*
D03*
X5394D02*
D03*
X5474D02*
D03*
X5554D02*
D03*
X5634D02*
D03*
X5714D02*
D03*
X5794D02*
D03*
Y20170D02*
D03*
X5714D02*
D03*
X5634D02*
D03*
X5554D02*
D03*
X5474D02*
D03*
X5394D02*
D03*
X5314D02*
D03*
X5234D02*
D03*
D28*
X13644Y6230D02*
D03*
Y6310D02*
D03*
Y6390D02*
D03*
Y6470D02*
D03*
Y6550D02*
D03*
Y6630D02*
D03*
Y6710D02*
D03*
Y6790D02*
D03*
X12784Y6230D02*
D03*
Y6310D02*
D03*
Y6390D02*
D03*
Y6470D02*
D03*
Y6550D02*
D03*
Y6630D02*
D03*
Y6710D02*
D03*
Y6790D02*
D03*
X5944Y6230D02*
D03*
Y6310D02*
D03*
Y6390D02*
D03*
Y6470D02*
D03*
Y6550D02*
D03*
Y6630D02*
D03*
Y6710D02*
D03*
Y6790D02*
D03*
X5084Y6230D02*
D03*
Y6310D02*
D03*
Y6390D02*
D03*
Y6470D02*
D03*
Y6550D02*
D03*
Y6630D02*
D03*
Y6710D02*
D03*
Y6790D02*
D03*
X13644Y10930D02*
D03*
Y11010D02*
D03*
Y11090D02*
D03*
Y11170D02*
D03*
Y11250D02*
D03*
Y11330D02*
D03*
Y11410D02*
D03*
Y11490D02*
D03*
X12784Y10930D02*
D03*
Y11010D02*
D03*
Y11090D02*
D03*
Y11170D02*
D03*
Y11250D02*
D03*
Y11330D02*
D03*
Y11410D02*
D03*
Y11490D02*
D03*
X5944Y10930D02*
D03*
Y11010D02*
D03*
Y11090D02*
D03*
Y11170D02*
D03*
Y11250D02*
D03*
Y11330D02*
D03*
Y11410D02*
D03*
Y11490D02*
D03*
X5084Y10930D02*
D03*
Y11010D02*
D03*
Y11090D02*
D03*
Y11170D02*
D03*
Y11250D02*
D03*
Y11330D02*
D03*
Y11410D02*
D03*
Y11490D02*
D03*
X13644Y15630D02*
D03*
Y15710D02*
D03*
Y15790D02*
D03*
Y15870D02*
D03*
Y15950D02*
D03*
Y16030D02*
D03*
Y16110D02*
D03*
Y16190D02*
D03*
X12784Y15630D02*
D03*
Y15710D02*
D03*
Y15790D02*
D03*
Y15870D02*
D03*
Y15950D02*
D03*
Y16030D02*
D03*
Y16110D02*
D03*
Y16190D02*
D03*
X5944Y15630D02*
D03*
Y15710D02*
D03*
Y15790D02*
D03*
Y15870D02*
D03*
Y15950D02*
D03*
Y16030D02*
D03*
Y16110D02*
D03*
Y16190D02*
D03*
X5084Y15630D02*
D03*
Y15710D02*
D03*
Y15790D02*
D03*
Y15870D02*
D03*
Y15950D02*
D03*
Y16030D02*
D03*
Y16110D02*
D03*
Y16190D02*
D03*
X13644Y20330D02*
D03*
Y20410D02*
D03*
Y20490D02*
D03*
Y20570D02*
D03*
Y20650D02*
D03*
Y20730D02*
D03*
Y20810D02*
D03*
Y20890D02*
D03*
X12784Y20330D02*
D03*
Y20410D02*
D03*
Y20490D02*
D03*
Y20570D02*
D03*
Y20650D02*
D03*
Y20730D02*
D03*
Y20810D02*
D03*
Y20890D02*
D03*
X5944Y20330D02*
D03*
Y20410D02*
D03*
Y20490D02*
D03*
Y20570D02*
D03*
Y20650D02*
D03*
Y20730D02*
D03*
Y20810D02*
D03*
Y20890D02*
D03*
X5084Y20330D02*
D03*
Y20410D02*
D03*
Y20490D02*
D03*
Y20570D02*
D03*
Y20650D02*
D03*
Y20730D02*
D03*
Y20810D02*
D03*
Y20890D02*
D03*
D29*
X12538Y7252D02*
D03*
Y7062D02*
D03*
X12711Y5537D02*
D03*
Y5347D02*
D03*
X12965Y5537D02*
D03*
Y5347D02*
D03*
X13219Y5537D02*
D03*
Y5347D02*
D03*
X13473Y5537D02*
D03*
Y5347D02*
D03*
X13727Y5537D02*
D03*
Y5347D02*
D03*
X4838Y7252D02*
D03*
Y7062D02*
D03*
X5011Y5537D02*
D03*
Y5347D02*
D03*
X5265Y5537D02*
D03*
Y5347D02*
D03*
X5519Y5537D02*
D03*
Y5347D02*
D03*
X5773Y5537D02*
D03*
Y5347D02*
D03*
X6027Y5537D02*
D03*
Y5347D02*
D03*
X12538Y11952D02*
D03*
Y11762D02*
D03*
X12711Y10237D02*
D03*
Y10047D02*
D03*
X12965Y10237D02*
D03*
Y10047D02*
D03*
X13219Y10237D02*
D03*
Y10047D02*
D03*
X13473Y10237D02*
D03*
Y10047D02*
D03*
X13727Y10237D02*
D03*
Y10047D02*
D03*
X4838Y11952D02*
D03*
Y11762D02*
D03*
X5011Y10237D02*
D03*
Y10047D02*
D03*
X5265Y10237D02*
D03*
Y10047D02*
D03*
X5519Y10237D02*
D03*
Y10047D02*
D03*
X5773Y10237D02*
D03*
Y10047D02*
D03*
X6027Y10237D02*
D03*
Y10047D02*
D03*
X12538Y16652D02*
D03*
Y16462D02*
D03*
X12711Y14937D02*
D03*
Y14747D02*
D03*
X12965Y14937D02*
D03*
Y14747D02*
D03*
X13219Y14937D02*
D03*
Y14747D02*
D03*
X13473Y14937D02*
D03*
Y14747D02*
D03*
X13727Y14937D02*
D03*
Y14747D02*
D03*
X4838Y16652D02*
D03*
Y16462D02*
D03*
X5011Y14937D02*
D03*
Y14747D02*
D03*
X5265Y14937D02*
D03*
Y14747D02*
D03*
X5519Y14937D02*
D03*
Y14747D02*
D03*
X5773Y14937D02*
D03*
Y14747D02*
D03*
X6027Y14937D02*
D03*
Y14747D02*
D03*
X12538Y21352D02*
D03*
Y21162D02*
D03*
X12711Y19637D02*
D03*
Y19447D02*
D03*
X12965Y19637D02*
D03*
Y19447D02*
D03*
X13219Y19637D02*
D03*
Y19447D02*
D03*
X13473Y19637D02*
D03*
Y19447D02*
D03*
X13727Y19637D02*
D03*
Y19447D02*
D03*
X4838Y21352D02*
D03*
Y21162D02*
D03*
X5011Y19637D02*
D03*
Y19447D02*
D03*
X5265Y19637D02*
D03*
Y19447D02*
D03*
X5519Y19637D02*
D03*
Y19447D02*
D03*
X5773Y19637D02*
D03*
Y19447D02*
D03*
X6027Y19637D02*
D03*
Y19447D02*
D03*
D30*
X13879Y7214D02*
D03*
Y7024D02*
D03*
X14489Y7010D02*
D03*
Y7200D02*
D03*
X6179Y7214D02*
D03*
Y7024D02*
D03*
X6789Y7010D02*
D03*
Y7200D02*
D03*
X13879Y11914D02*
D03*
Y11724D02*
D03*
X14489Y11710D02*
D03*
Y11900D02*
D03*
X6179Y11914D02*
D03*
Y11724D02*
D03*
X6789Y11710D02*
D03*
Y11900D02*
D03*
X13879Y16614D02*
D03*
Y16424D02*
D03*
X14489Y16410D02*
D03*
Y16600D02*
D03*
X6179Y16614D02*
D03*
Y16424D02*
D03*
X6789Y16410D02*
D03*
Y16600D02*
D03*
X13879Y21314D02*
D03*
Y21124D02*
D03*
X14489Y21110D02*
D03*
Y21300D02*
D03*
X6179Y21314D02*
D03*
Y21124D02*
D03*
X6789Y21110D02*
D03*
Y21300D02*
D03*
D31*
X14336Y6045D02*
D03*
X14146D02*
D03*
X14184Y6452D02*
D03*
X14374D02*
D03*
X15962Y6401D02*
D03*
X15772D02*
D03*
X16521D02*
D03*
X16331D02*
D03*
X17130D02*
D03*
X16940D02*
D03*
X6636Y6045D02*
D03*
X6446D02*
D03*
X6484Y6452D02*
D03*
X6674D02*
D03*
X8262Y6401D02*
D03*
X8072D02*
D03*
X8821D02*
D03*
X8631D02*
D03*
X9430D02*
D03*
X9240D02*
D03*
X14336Y10745D02*
D03*
X14146D02*
D03*
X14184Y11152D02*
D03*
X14374D02*
D03*
X15962Y11101D02*
D03*
X15772D02*
D03*
X16521D02*
D03*
X16331D02*
D03*
X17130D02*
D03*
X16940D02*
D03*
X6636Y10745D02*
D03*
X6446D02*
D03*
X6484Y11152D02*
D03*
X6674D02*
D03*
X8262Y11101D02*
D03*
X8072D02*
D03*
X8821D02*
D03*
X8631D02*
D03*
X9430D02*
D03*
X9240D02*
D03*
X14336Y15445D02*
D03*
X14146D02*
D03*
X14184Y15852D02*
D03*
X14374D02*
D03*
X15962Y15801D02*
D03*
X15772D02*
D03*
X16521D02*
D03*
X16331D02*
D03*
X17130D02*
D03*
X16940D02*
D03*
X6636Y15445D02*
D03*
X6446D02*
D03*
X6484Y15852D02*
D03*
X6674D02*
D03*
X8262Y15801D02*
D03*
X8072D02*
D03*
X8821D02*
D03*
X8631D02*
D03*
X9430D02*
D03*
X9240D02*
D03*
X14336Y20145D02*
D03*
X14146D02*
D03*
X14184Y20552D02*
D03*
X14374D02*
D03*
X15962Y20501D02*
D03*
X15772D02*
D03*
X16521D02*
D03*
X16331D02*
D03*
X17130D02*
D03*
X16940D02*
D03*
X6636Y20145D02*
D03*
X6446D02*
D03*
X6484Y20552D02*
D03*
X6674D02*
D03*
X8262Y20501D02*
D03*
X8072D02*
D03*
X8821D02*
D03*
X8631D02*
D03*
X9430D02*
D03*
X9240D02*
D03*
D32*
X15098Y6401D02*
D03*
X15288D02*
D03*
X14641D02*
D03*
X14831D02*
D03*
X14489Y7417D02*
D03*
X14299D02*
D03*
X14286Y6756D02*
D03*
X14476D02*
D03*
X7398Y6401D02*
D03*
X7588D02*
D03*
X6941D02*
D03*
X7131D02*
D03*
X6789Y7417D02*
D03*
X6599D02*
D03*
X6586Y6756D02*
D03*
X6776D02*
D03*
X15098Y11101D02*
D03*
X15288D02*
D03*
X14641D02*
D03*
X14831D02*
D03*
X14489Y12117D02*
D03*
X14299D02*
D03*
X14286Y11456D02*
D03*
X14476D02*
D03*
X7398Y11101D02*
D03*
X7588D02*
D03*
X6941D02*
D03*
X7131D02*
D03*
X6789Y12117D02*
D03*
X6599D02*
D03*
X6586Y11456D02*
D03*
X6776D02*
D03*
X15098Y15801D02*
D03*
X15288D02*
D03*
X14641D02*
D03*
X14831D02*
D03*
X14489Y16817D02*
D03*
X14299D02*
D03*
X14286Y16156D02*
D03*
X14476D02*
D03*
X7398Y15801D02*
D03*
X7588D02*
D03*
X6941D02*
D03*
X7131D02*
D03*
X6789Y16817D02*
D03*
X6599D02*
D03*
X6586Y16156D02*
D03*
X6776D02*
D03*
X15098Y20501D02*
D03*
X15288D02*
D03*
X14641D02*
D03*
X14831D02*
D03*
X14489Y21517D02*
D03*
X14299D02*
D03*
X14286Y20856D02*
D03*
X14476D02*
D03*
X7398Y20501D02*
D03*
X7588D02*
D03*
X6941D02*
D03*
X7131D02*
D03*
X6789Y21517D02*
D03*
X6599D02*
D03*
X6586Y20856D02*
D03*
X6776D02*
D03*
D33*
X14743Y6655D02*
D03*
X14743Y7036D02*
D03*
X15263Y7290D02*
D03*
Y7544D02*
D03*
X15263Y7417D02*
D03*
X14743Y7544D02*
D03*
Y7417D02*
D03*
Y7290D02*
D03*
Y6909D02*
D03*
Y7163D02*
D03*
X15263Y6782D02*
D03*
X15263Y7036D02*
D03*
X14743Y6782D02*
D03*
X15263Y6909D02*
D03*
X15263Y7163D02*
D03*
X15263Y6655D02*
D03*
X7043D02*
D03*
X7043Y7036D02*
D03*
X7563Y7290D02*
D03*
Y7544D02*
D03*
X7563Y7417D02*
D03*
X7043Y7544D02*
D03*
Y7417D02*
D03*
Y7290D02*
D03*
Y6909D02*
D03*
Y7163D02*
D03*
X7563Y6782D02*
D03*
X7563Y7036D02*
D03*
X7043Y6782D02*
D03*
X7563Y6909D02*
D03*
X7563Y7163D02*
D03*
X7563Y6655D02*
D03*
X14743Y11355D02*
D03*
X14743Y11736D02*
D03*
X15263Y11990D02*
D03*
Y12244D02*
D03*
X15263Y12117D02*
D03*
X14743Y12244D02*
D03*
Y12117D02*
D03*
Y11990D02*
D03*
Y11609D02*
D03*
Y11863D02*
D03*
X15263Y11482D02*
D03*
X15263Y11736D02*
D03*
X14743Y11482D02*
D03*
X15263Y11609D02*
D03*
X15263Y11863D02*
D03*
X15263Y11355D02*
D03*
X7043D02*
D03*
X7043Y11736D02*
D03*
X7563Y11990D02*
D03*
Y12244D02*
D03*
X7563Y12117D02*
D03*
X7043Y12244D02*
D03*
Y12117D02*
D03*
Y11990D02*
D03*
Y11609D02*
D03*
Y11863D02*
D03*
X7563Y11482D02*
D03*
X7563Y11736D02*
D03*
X7043Y11482D02*
D03*
X7563Y11609D02*
D03*
X7563Y11863D02*
D03*
X7563Y11355D02*
D03*
X14743Y16055D02*
D03*
X14743Y16436D02*
D03*
X15263Y16690D02*
D03*
Y16944D02*
D03*
X15263Y16817D02*
D03*
X14743Y16944D02*
D03*
Y16817D02*
D03*
Y16690D02*
D03*
Y16309D02*
D03*
Y16563D02*
D03*
X15263Y16182D02*
D03*
X15263Y16436D02*
D03*
X14743Y16182D02*
D03*
X15263Y16309D02*
D03*
X15263Y16563D02*
D03*
X15263Y16055D02*
D03*
X7043D02*
D03*
X7043Y16436D02*
D03*
X7563Y16690D02*
D03*
Y16944D02*
D03*
X7563Y16817D02*
D03*
X7043Y16944D02*
D03*
Y16817D02*
D03*
Y16690D02*
D03*
Y16309D02*
D03*
Y16563D02*
D03*
X7563Y16182D02*
D03*
X7563Y16436D02*
D03*
X7043Y16182D02*
D03*
X7563Y16309D02*
D03*
X7563Y16563D02*
D03*
X7563Y16055D02*
D03*
X14743Y20755D02*
D03*
X14743Y21136D02*
D03*
X15263Y21390D02*
D03*
Y21644D02*
D03*
X15263Y21517D02*
D03*
X14743Y21644D02*
D03*
Y21517D02*
D03*
Y21390D02*
D03*
Y21009D02*
D03*
Y21263D02*
D03*
X15263Y20882D02*
D03*
X15263Y21136D02*
D03*
X14743Y20882D02*
D03*
X15263Y21009D02*
D03*
X15263Y21263D02*
D03*
X15263Y20755D02*
D03*
X7043D02*
D03*
X7043Y21136D02*
D03*
X7563Y21390D02*
D03*
Y21644D02*
D03*
X7563Y21517D02*
D03*
X7043Y21644D02*
D03*
Y21517D02*
D03*
Y21390D02*
D03*
Y21009D02*
D03*
Y21263D02*
D03*
X7563Y20882D02*
D03*
X7563Y21136D02*
D03*
X7043Y20882D02*
D03*
X7563Y21009D02*
D03*
X7563Y21263D02*
D03*
X7563Y20755D02*
D03*
D34*
X13640Y7468D02*
D03*
X13930Y7468D02*
D03*
X5940Y7468D02*
D03*
X6230Y7468D02*
D03*
X13640Y12168D02*
D03*
X13930Y12168D02*
D03*
X5940Y12168D02*
D03*
X6230Y12168D02*
D03*
X13640Y16868D02*
D03*
X13930Y16868D02*
D03*
X5940Y16868D02*
D03*
X6230Y16868D02*
D03*
X13640Y21568D02*
D03*
X13930Y21568D02*
D03*
X5940Y21568D02*
D03*
X6230Y21568D02*
D03*
D35*
X16318Y7569D02*
D03*
X17384D02*
D03*
Y7214D02*
D03*
X8618Y7569D02*
D03*
X9684D02*
D03*
Y7214D02*
D03*
X16318Y12269D02*
D03*
X17384D02*
D03*
Y11914D02*
D03*
X8618Y12269D02*
D03*
X9684D02*
D03*
Y11914D02*
D03*
X16318Y16969D02*
D03*
X17384D02*
D03*
Y16614D02*
D03*
X8618Y16969D02*
D03*
X9684D02*
D03*
Y16614D02*
D03*
X16318Y21669D02*
D03*
X17384D02*
D03*
Y21314D02*
D03*
X8618Y21669D02*
D03*
X9684D02*
D03*
Y21314D02*
D03*
D36*
X16724Y4928D02*
D03*
Y4178D02*
D03*
X17224D02*
D03*
Y4928D02*
D03*
X15708D02*
D03*
Y4178D02*
D03*
X16208D02*
D03*
Y4928D02*
D03*
X16724Y6096D02*
D03*
Y5346D02*
D03*
X17224D02*
D03*
Y6096D02*
D03*
X15708D02*
D03*
Y5346D02*
D03*
X16208D02*
D03*
Y6096D02*
D03*
X10288Y5152D02*
D03*
X17488D02*
D03*
X9024Y4928D02*
D03*
Y4178D02*
D03*
X9524D02*
D03*
Y4928D02*
D03*
X8008D02*
D03*
Y4178D02*
D03*
X8508D02*
D03*
Y4928D02*
D03*
X9024Y6096D02*
D03*
Y5346D02*
D03*
X9524D02*
D03*
Y6096D02*
D03*
X8008D02*
D03*
Y5346D02*
D03*
X8508D02*
D03*
Y6096D02*
D03*
X2588Y5152D02*
D03*
X9788D02*
D03*
X16724Y9628D02*
D03*
Y8878D02*
D03*
X17224D02*
D03*
Y9628D02*
D03*
X15708D02*
D03*
Y8878D02*
D03*
X16208D02*
D03*
Y9628D02*
D03*
X16724Y10796D02*
D03*
Y10046D02*
D03*
X17224D02*
D03*
Y10796D02*
D03*
X15708D02*
D03*
Y10046D02*
D03*
X16208D02*
D03*
Y10796D02*
D03*
X10288Y9852D02*
D03*
X17488D02*
D03*
X9024Y9628D02*
D03*
Y8878D02*
D03*
X9524D02*
D03*
Y9628D02*
D03*
X8008D02*
D03*
Y8878D02*
D03*
X8508D02*
D03*
Y9628D02*
D03*
X9024Y10796D02*
D03*
Y10046D02*
D03*
X9524D02*
D03*
Y10796D02*
D03*
X8008D02*
D03*
Y10046D02*
D03*
X8508D02*
D03*
Y10796D02*
D03*
X2588Y9852D02*
D03*
X9788D02*
D03*
X16724Y14328D02*
D03*
Y13578D02*
D03*
X17224D02*
D03*
Y14328D02*
D03*
X15708D02*
D03*
Y13578D02*
D03*
X16208D02*
D03*
Y14328D02*
D03*
X16724Y15496D02*
D03*
Y14746D02*
D03*
X17224D02*
D03*
Y15496D02*
D03*
X15708D02*
D03*
Y14746D02*
D03*
X16208D02*
D03*
Y15496D02*
D03*
X10288Y14552D02*
D03*
X17488D02*
D03*
X9024Y14328D02*
D03*
Y13578D02*
D03*
X9524D02*
D03*
Y14328D02*
D03*
X8008D02*
D03*
Y13578D02*
D03*
X8508D02*
D03*
Y14328D02*
D03*
X9024Y15496D02*
D03*
Y14746D02*
D03*
X9524D02*
D03*
Y15496D02*
D03*
X8008D02*
D03*
Y14746D02*
D03*
X8508D02*
D03*
Y15496D02*
D03*
X2588Y14552D02*
D03*
X9788D02*
D03*
X16724Y19028D02*
D03*
Y18278D02*
D03*
X17224D02*
D03*
Y19028D02*
D03*
X15708D02*
D03*
Y18278D02*
D03*
X16208D02*
D03*
Y19028D02*
D03*
X16724Y20196D02*
D03*
Y19446D02*
D03*
X17224D02*
D03*
Y20196D02*
D03*
X15708D02*
D03*
Y19446D02*
D03*
X16208D02*
D03*
Y20196D02*
D03*
X10288Y19252D02*
D03*
X17488D02*
D03*
X9024Y19028D02*
D03*
Y18278D02*
D03*
X9524D02*
D03*
Y19028D02*
D03*
X8008D02*
D03*
Y18278D02*
D03*
X8508D02*
D03*
Y19028D02*
D03*
X9024Y20196D02*
D03*
Y19446D02*
D03*
X9524D02*
D03*
Y20196D02*
D03*
X8008D02*
D03*
Y19446D02*
D03*
X8508D02*
D03*
Y20196D02*
D03*
X2588Y19252D02*
D03*
X9788D02*
D03*
D37*
X15962Y6631D02*
D03*
Y6881D02*
D03*
X16521Y6631D02*
D03*
Y6881D02*
D03*
X17130Y6631D02*
D03*
Y6881D02*
D03*
X8262Y6631D02*
D03*
Y6881D02*
D03*
X8821Y6631D02*
D03*
Y6881D02*
D03*
X9430Y6631D02*
D03*
Y6881D02*
D03*
X15962Y11331D02*
D03*
Y11581D02*
D03*
X16521Y11331D02*
D03*
Y11581D02*
D03*
X17130Y11331D02*
D03*
Y11581D02*
D03*
X8262Y11331D02*
D03*
Y11581D02*
D03*
X8821Y11331D02*
D03*
Y11581D02*
D03*
X9430Y11331D02*
D03*
Y11581D02*
D03*
X15962Y16031D02*
D03*
Y16281D02*
D03*
X16521Y16031D02*
D03*
Y16281D02*
D03*
X17130Y16031D02*
D03*
Y16281D02*
D03*
X8262Y16031D02*
D03*
Y16281D02*
D03*
X8821Y16031D02*
D03*
Y16281D02*
D03*
X9430Y16031D02*
D03*
Y16281D02*
D03*
X15962Y20731D02*
D03*
Y20981D02*
D03*
X16521Y20731D02*
D03*
Y20981D02*
D03*
X17130Y20731D02*
D03*
Y20981D02*
D03*
X8262Y20731D02*
D03*
Y20981D02*
D03*
X8821Y20731D02*
D03*
Y20981D02*
D03*
X9430Y20731D02*
D03*
Y20981D02*
D03*
D38*
X13727Y5080D02*
D03*
X6027D02*
D03*
X13727Y9780D02*
D03*
X6027D02*
D03*
X13727Y14480D02*
D03*
X6027D02*
D03*
X13727Y19180D02*
D03*
X6027D02*
D03*
D39*
X13473Y5080D02*
D03*
X13219D02*
D03*
X12965D02*
D03*
X12711D02*
D03*
X12457D02*
D03*
X12203D02*
D03*
X5773D02*
D03*
X5519D02*
D03*
X5265D02*
D03*
X5011D02*
D03*
X4757D02*
D03*
X4503D02*
D03*
X13473Y9780D02*
D03*
X13219D02*
D03*
X12965D02*
D03*
X12711D02*
D03*
X12457D02*
D03*
X12203D02*
D03*
X5773D02*
D03*
X5519D02*
D03*
X5265D02*
D03*
X5011D02*
D03*
X4757D02*
D03*
X4503D02*
D03*
X13473Y14480D02*
D03*
X13219D02*
D03*
X12965D02*
D03*
X12711D02*
D03*
X12457D02*
D03*
X12203D02*
D03*
X5773D02*
D03*
X5519D02*
D03*
X5265D02*
D03*
X5011D02*
D03*
X4757D02*
D03*
X4503D02*
D03*
X13473Y19180D02*
D03*
X13219D02*
D03*
X12965D02*
D03*
X12711D02*
D03*
X12457D02*
D03*
X12203D02*
D03*
X5773D02*
D03*
X5519D02*
D03*
X5265D02*
D03*
X5011D02*
D03*
X4757D02*
D03*
X4503D02*
D03*
D40*
X12538Y6927D02*
D03*
X12762Y6960D02*
D03*
X14133Y7468D02*
D03*
X15048Y7112D02*
D03*
Y7315D02*
D03*
X12558Y6350D02*
D03*
X12457Y6553D02*
D03*
X16876Y5690D02*
D03*
X16368Y5639D02*
D03*
X13981Y6858D02*
D03*
X14078Y6710D02*
D03*
X13879Y6604D02*
D03*
X15505Y6452D02*
D03*
X13879Y6299D02*
D03*
Y6452D02*
D03*
X15911Y5436D02*
D03*
X16470D02*
D03*
X16978Y4420D02*
D03*
X12152Y6502D02*
D03*
Y7163D02*
D03*
X17283Y7010D02*
D03*
X4838Y6927D02*
D03*
X5062Y6960D02*
D03*
X6433Y7468D02*
D03*
X7348Y7112D02*
D03*
Y7315D02*
D03*
X4858Y6350D02*
D03*
X4757Y6553D02*
D03*
X9176Y5690D02*
D03*
X8668Y5639D02*
D03*
X6281Y6858D02*
D03*
X6378Y6710D02*
D03*
X6179Y6604D02*
D03*
X7805Y6452D02*
D03*
X6179Y6299D02*
D03*
Y6452D02*
D03*
X8211Y5436D02*
D03*
X8770D02*
D03*
X9278Y4420D02*
D03*
X4452Y6502D02*
D03*
Y7163D02*
D03*
X9583Y7010D02*
D03*
X12538Y11627D02*
D03*
X12762Y11660D02*
D03*
X14133Y12168D02*
D03*
X15048Y11812D02*
D03*
Y12015D02*
D03*
X12558Y11050D02*
D03*
X12457Y11253D02*
D03*
X16876Y10390D02*
D03*
X16368Y10339D02*
D03*
X13981Y11558D02*
D03*
X14078Y11410D02*
D03*
X13879Y11304D02*
D03*
X15505Y11152D02*
D03*
X13879Y10999D02*
D03*
Y11152D02*
D03*
X15911Y10136D02*
D03*
X16470D02*
D03*
X16978Y9120D02*
D03*
X12152Y11202D02*
D03*
Y11863D02*
D03*
X17283Y11710D02*
D03*
X4838Y11627D02*
D03*
X5062Y11660D02*
D03*
X6433Y12168D02*
D03*
X7348Y11812D02*
D03*
Y12015D02*
D03*
X4858Y11050D02*
D03*
X4757Y11253D02*
D03*
X9176Y10390D02*
D03*
X8668Y10339D02*
D03*
X6281Y11558D02*
D03*
X6378Y11410D02*
D03*
X6179Y11304D02*
D03*
X7805Y11152D02*
D03*
X6179Y10999D02*
D03*
Y11152D02*
D03*
X8211Y10136D02*
D03*
X8770D02*
D03*
X9278Y9120D02*
D03*
X4452Y11202D02*
D03*
Y11863D02*
D03*
X9583Y11710D02*
D03*
X12538Y16327D02*
D03*
X12762Y16360D02*
D03*
X14133Y16868D02*
D03*
X15048Y16512D02*
D03*
Y16715D02*
D03*
X12558Y15750D02*
D03*
X12457Y15953D02*
D03*
X16876Y15090D02*
D03*
X16368Y15039D02*
D03*
X13981Y16258D02*
D03*
X14078Y16110D02*
D03*
X13879Y16004D02*
D03*
X15505Y15852D02*
D03*
X13879Y15699D02*
D03*
Y15852D02*
D03*
X15911Y14836D02*
D03*
X16470D02*
D03*
X16978Y13820D02*
D03*
X12152Y15902D02*
D03*
Y16563D02*
D03*
X17283Y16410D02*
D03*
X4838Y16327D02*
D03*
X5062Y16360D02*
D03*
X6433Y16868D02*
D03*
X7348Y16512D02*
D03*
Y16715D02*
D03*
X4858Y15750D02*
D03*
X4757Y15953D02*
D03*
X9176Y15090D02*
D03*
X8668Y15039D02*
D03*
X6281Y16258D02*
D03*
X6378Y16110D02*
D03*
X6179Y16004D02*
D03*
X7805Y15852D02*
D03*
X6179Y15699D02*
D03*
Y15852D02*
D03*
X8211Y14836D02*
D03*
X8770D02*
D03*
X9278Y13820D02*
D03*
X4452Y15902D02*
D03*
Y16563D02*
D03*
X9583Y16410D02*
D03*
X12538Y21027D02*
D03*
X12762Y21060D02*
D03*
X14133Y21568D02*
D03*
X15048Y21212D02*
D03*
Y21415D02*
D03*
X12558Y20450D02*
D03*
X12457Y20653D02*
D03*
X16876Y19790D02*
D03*
X16368Y19739D02*
D03*
X13981Y20958D02*
D03*
X14078Y20810D02*
D03*
X13879Y20704D02*
D03*
X15505Y20552D02*
D03*
X13879Y20399D02*
D03*
Y20552D02*
D03*
X15911Y19536D02*
D03*
X16470D02*
D03*
X16978Y18520D02*
D03*
X12152Y20602D02*
D03*
Y21263D02*
D03*
X17283Y21110D02*
D03*
X4838Y21027D02*
D03*
X5062Y21060D02*
D03*
X6433Y21568D02*
D03*
X7348Y21212D02*
D03*
Y21415D02*
D03*
X4858Y20450D02*
D03*
X4757Y20653D02*
D03*
X9176Y19790D02*
D03*
X8668Y19739D02*
D03*
X6281Y20958D02*
D03*
X6378Y20810D02*
D03*
X6179Y20704D02*
D03*
X7805Y20552D02*
D03*
X6179Y20399D02*
D03*
Y20552D02*
D03*
X8211Y19536D02*
D03*
X8770D02*
D03*
X9278Y18520D02*
D03*
X4452Y20602D02*
D03*
Y21263D02*
D03*
X9583Y21110D02*
D03*
M02*
