%FSLAX42Y42*%
%MOMM*%
G71*
G01*
G75*
G04 Layer_Physical_Order=1*
G04 Layer_Color=255*
%ADD10C,0.20*%
%ADD11R,0.40X1.60*%
%ADD12R,1.60X0.40*%
%ADD13R,0.70X1.30*%
%ADD14R,1.30X0.70*%
%ADD15R,0.90X1.30*%
%ADD16R,1.30X0.90*%
%ADD17R,1.40X0.70*%
%ADD18R,1.60X0.90*%
%ADD19C,0.30*%
%ADD20C,0.50*%
%ADD21C,4.00*%
%ADD22C,1.70*%
%ADD23C,2.00*%
%ADD24C,1.52*%
%ADD25R,1.52X1.52*%
%ADD26R,1.50X1.50*%
%ADD27C,1.50*%
%ADD28C,1.27*%
G36*
X3117Y3726D02*
X17005D01*
Y9114D01*
X3117D01*
Y3726D01*
D02*
G37*
%LPC*%
G36*
X6380Y6072D02*
Y5969D01*
X6277D01*
X6279Y5987D01*
X6291Y6015D01*
X6310Y6039D01*
X6334Y6058D01*
X6362Y6070D01*
X6380Y6072D01*
D02*
G37*
G36*
X6405D02*
X6423Y6070D01*
X6451Y6058D01*
X6476Y6039D01*
X6494Y6015D01*
X6506Y5987D01*
X6508Y5969D01*
X6405D01*
Y6072D01*
D02*
G37*
G36*
X6277Y5944D02*
X6380D01*
Y5841D01*
X6362Y5843D01*
X6334Y5855D01*
X6310Y5873D01*
X6291Y5898D01*
X6279Y5926D01*
X6277Y5944D01*
D02*
G37*
G36*
X16021Y6658D02*
X16248D01*
Y6430D01*
X16214Y6434D01*
X16168Y6447D01*
X16127Y6470D01*
X16090Y6500D01*
X16060Y6536D01*
X16038Y6578D01*
X16024Y6623D01*
X16021Y6658D01*
D02*
G37*
G36*
X16273D02*
X16501D01*
X16497Y6623D01*
X16484Y6578D01*
X16461Y6536D01*
X16431Y6500D01*
X16395Y6470D01*
X16353Y6447D01*
X16308Y6434D01*
X16273Y6430D01*
Y6658D01*
D02*
G37*
G36*
X5658Y7222D02*
X5878D01*
Y7160D01*
Y7033D01*
X5834D01*
Y6943D01*
X6013D01*
X6030Y6941D01*
X6032Y6940D01*
X6141D01*
Y6770D01*
X5931D01*
Y6812D01*
X5901D01*
Y6725D01*
X5910Y6719D01*
X5926Y6697D01*
X5937Y6672D01*
X5940Y6645D01*
X5937Y6618D01*
X5926Y6593D01*
X5910Y6571D01*
X5901Y6565D01*
Y5897D01*
X6000Y5798D01*
X6396D01*
X6430Y5833D01*
X6423Y5843D01*
X6423Y5843D01*
X6405Y5841D01*
Y5944D01*
X6508D01*
X6506Y5926D01*
X6506Y5926D01*
X6516Y5919D01*
X6532Y5935D01*
X6529Y5956D01*
X6533Y5987D01*
X6545Y6015D01*
X6564Y6039D01*
X6588Y6058D01*
X6616Y6070D01*
X6647Y6074D01*
X6677Y6070D01*
X6698Y6061D01*
X6705Y6071D01*
X6602Y6174D01*
X6566D01*
Y6155D01*
X6356D01*
Y6305D01*
X6566D01*
Y6286D01*
X6626D01*
X6647Y6282D01*
X6665Y6270D01*
X6719Y6216D01*
X6731Y6221D01*
Y6305D01*
X6941D01*
Y6250D01*
X7122Y6068D01*
X7124Y6070D01*
X7155Y6074D01*
X7185Y6070D01*
X7213Y6058D01*
X7238Y6039D01*
X7256Y6015D01*
X7268Y5987D01*
X7272Y5956D01*
X7268Y5926D01*
X7256Y5898D01*
X7238Y5873D01*
X7213Y5855D01*
X7185Y5843D01*
X7155Y5839D01*
X7124Y5843D01*
X7096Y5855D01*
X7072Y5873D01*
X7053Y5898D01*
X7041Y5926D01*
X7037Y5956D01*
X7041Y5987D01*
X7043Y5989D01*
X7015Y6017D01*
X7004Y6010D01*
X7014Y5987D01*
X7018Y5956D01*
X7014Y5926D01*
X7002Y5898D01*
X6984Y5873D01*
X6959Y5855D01*
X6931Y5843D01*
X6901Y5839D01*
X6870Y5843D01*
X6842Y5855D01*
X6818Y5873D01*
X6799Y5898D01*
X6787Y5926D01*
X6783Y5956D01*
X6787Y5987D01*
X6788Y5988D01*
X6762Y6015D01*
X6751Y6008D01*
X6760Y5987D01*
X6764Y5956D01*
X6760Y5926D01*
X6748Y5898D01*
X6730Y5873D01*
X6705Y5855D01*
X6677Y5843D01*
X6647Y5839D01*
X6625Y5842D01*
X6470Y5686D01*
X6456Y5676D01*
X6450Y5674D01*
X6440Y5669D01*
X6423Y5667D01*
X5973D01*
X5956Y5669D01*
X5950Y5672D01*
X5940Y5676D01*
X5927Y5686D01*
X5789Y5824D01*
X5779Y5838D01*
X5776Y5845D01*
X5772Y5853D01*
X5770Y5870D01*
Y6565D01*
X5762Y6571D01*
X5745Y6593D01*
X5735Y6618D01*
X5731Y6645D01*
X5735Y6672D01*
X5745Y6697D01*
X5762Y6719D01*
X5770Y6725D01*
Y6753D01*
X5663D01*
Y6963D01*
X5703D01*
Y7033D01*
X5658D01*
Y7160D01*
Y7222D01*
D02*
G37*
G36*
X7481Y6305D02*
X7691D01*
Y6155D01*
X7667D01*
Y6072D01*
X7779D01*
Y5840D01*
X7546D01*
Y6072D01*
X7555D01*
Y6155D01*
X7481D01*
Y6305D01*
D02*
G37*
G36*
X14073Y5535D02*
X14097Y5532D01*
X14131Y5518D01*
X14161Y5495D01*
X14183Y5466D01*
X14192Y5445D01*
X14205D01*
X14213Y5466D01*
X14236Y5495D01*
X14265Y5518D01*
X14299Y5532D01*
X14323Y5535D01*
Y5395D01*
Y5256D01*
X14299Y5259D01*
X14265Y5273D01*
X14236Y5295D01*
X14213Y5325D01*
X14205Y5346D01*
X14192D01*
X14183Y5325D01*
X14161Y5295D01*
X14131Y5273D01*
X14097Y5259D01*
X14073Y5256D01*
Y5395D01*
Y5535D01*
D02*
G37*
G36*
X11173D02*
Y5408D01*
X11046D01*
X11049Y5432D01*
X11063Y5466D01*
X11086Y5495D01*
X11115Y5518D01*
X11149Y5532D01*
X11173Y5535D01*
D02*
G37*
G36*
X11198D02*
X11222Y5532D01*
X11256Y5518D01*
X11286Y5495D01*
X11308Y5466D01*
X11322Y5432D01*
X11325Y5408D01*
X11198D01*
Y5535D01*
D02*
G37*
G36*
X5981Y6305D02*
X6191D01*
Y6155D01*
X6142D01*
Y6073D01*
X6169Y6070D01*
X6197Y6058D01*
X6222Y6039D01*
X6240Y6015D01*
X6252Y5987D01*
X6256Y5956D01*
X6252Y5926D01*
X6240Y5898D01*
X6222Y5873D01*
X6197Y5855D01*
X6169Y5843D01*
X6139Y5839D01*
X6108Y5843D01*
X6080Y5855D01*
X6056Y5873D01*
X6037Y5898D01*
X6025Y5926D01*
X6021Y5956D01*
X6025Y5987D01*
X6031Y6001D01*
X6030Y6009D01*
Y6155D01*
X5981D01*
Y6305D01*
D02*
G37*
G36*
X7106D02*
X7316D01*
Y6205D01*
X7448Y6072D01*
X7454Y6063D01*
X7467Y6058D01*
X7492Y6039D01*
X7510Y6015D01*
X7522Y5987D01*
X7526Y5956D01*
X7522Y5926D01*
X7510Y5898D01*
X7492Y5873D01*
X7467Y5855D01*
X7439Y5843D01*
X7409Y5839D01*
X7378Y5843D01*
X7350Y5855D01*
X7326Y5873D01*
X7307Y5898D01*
X7295Y5926D01*
X7291Y5956D01*
X7295Y5987D01*
X7307Y6015D01*
X7324Y6037D01*
X7206Y6155D01*
X7106D01*
Y6305D01*
D02*
G37*
G36*
X12498Y5535D02*
X12522Y5532D01*
X12556Y5518D01*
X12586Y5495D01*
X12608Y5466D01*
X12617Y5445D01*
X12630D01*
X12638Y5466D01*
X12661Y5495D01*
X12690Y5518D01*
X12724Y5532D01*
X12748Y5535D01*
Y5395D01*
Y5256D01*
X12724Y5259D01*
X12690Y5273D01*
X12661Y5295D01*
X12638Y5325D01*
X12630Y5346D01*
X12617D01*
X12608Y5325D01*
X12586Y5295D01*
X12556Y5273D01*
X12522Y5259D01*
X12498Y5256D01*
Y5395D01*
Y5535D01*
D02*
G37*
G36*
X3848Y6910D02*
Y6683D01*
X3621D01*
X3624Y6717D01*
X3638Y6763D01*
X3660Y6804D01*
X3690Y6841D01*
X3727Y6871D01*
X3768Y6893D01*
X3814Y6907D01*
X3848Y6910D01*
D02*
G37*
G36*
X3873D02*
X3908Y6907D01*
X3953Y6893D01*
X3995Y6871D01*
X4031Y6841D01*
X4061Y6804D01*
X4084Y6763D01*
X4097Y6717D01*
X4101Y6683D01*
X3873D01*
Y6910D01*
D02*
G37*
G36*
X10048D02*
Y6683D01*
X9821D01*
X9824Y6717D01*
X9838Y6763D01*
X9860Y6804D01*
X9890Y6841D01*
X9927Y6871D01*
X9968Y6893D01*
X10014Y6907D01*
X10048Y6910D01*
D02*
G37*
G36*
X7731Y7008D02*
X7823D01*
Y6945D01*
X7731D01*
Y7008D01*
D02*
G37*
G36*
X7848D02*
X7941D01*
Y6945D01*
X7848D01*
Y7008D01*
D02*
G37*
G36*
X14836Y6796D02*
X14868Y6792D01*
X14899Y6779D01*
X14925Y6759D01*
X14945Y6733D01*
X14954Y6710D01*
X14967D01*
X14977Y6733D01*
X14997Y6759D01*
X15023Y6779D01*
X15053Y6792D01*
X15086Y6796D01*
X15118Y6792D01*
X15149Y6779D01*
X15175Y6759D01*
X15195Y6733D01*
X15198Y6726D01*
X15286D01*
Y6775D01*
X15436D01*
Y6565D01*
X15286D01*
Y6614D01*
X15198D01*
X15195Y6607D01*
X15175Y6581D01*
X15149Y6561D01*
X15118Y6549D01*
X15086Y6544D01*
X15053Y6549D01*
X15023Y6561D01*
X14997Y6581D01*
X14977Y6607D01*
X14967Y6630D01*
X14954D01*
X14945Y6607D01*
X14925Y6581D01*
X14899Y6561D01*
X14868Y6549D01*
X14836Y6544D01*
X14803Y6549D01*
X14773Y6561D01*
X14747Y6581D01*
X14727Y6607D01*
X14714Y6638D01*
X14710Y6670D01*
X14714Y6703D01*
X14727Y6733D01*
X14747Y6759D01*
X14773Y6779D01*
X14803Y6792D01*
X14836Y6796D01*
D02*
G37*
G36*
X10073Y6910D02*
X10108Y6907D01*
X10153Y6893D01*
X10195Y6871D01*
X10231Y6841D01*
X10261Y6804D01*
X10284Y6763D01*
X10297Y6717D01*
X10301Y6683D01*
X10073D01*
Y6910D01*
D02*
G37*
G36*
X3873Y6658D02*
X4101D01*
X4097Y6623D01*
X4084Y6578D01*
X4061Y6536D01*
X4031Y6500D01*
X3995Y6470D01*
X3953Y6447D01*
X3908Y6434D01*
X3873Y6430D01*
Y6658D01*
D02*
G37*
G36*
X9821D02*
X10048D01*
Y6430D01*
X10014Y6434D01*
X9968Y6447D01*
X9927Y6470D01*
X9890Y6500D01*
X9860Y6536D01*
X9838Y6578D01*
X9824Y6623D01*
X9821Y6658D01*
D02*
G37*
G36*
X10073D02*
X10301D01*
X10297Y6623D01*
X10284Y6578D01*
X10261Y6536D01*
X10231Y6500D01*
X10195Y6470D01*
X10153Y6447D01*
X10108Y6434D01*
X10073Y6430D01*
Y6658D01*
D02*
G37*
G36*
X16248Y6910D02*
Y6683D01*
X16021D01*
X16024Y6717D01*
X16038Y6763D01*
X16060Y6804D01*
X16090Y6841D01*
X16127Y6871D01*
X16168Y6893D01*
X16214Y6907D01*
X16248Y6910D01*
D02*
G37*
G36*
X16273D02*
X16308Y6907D01*
X16353Y6893D01*
X16395Y6871D01*
X16431Y6841D01*
X16461Y6804D01*
X16484Y6763D01*
X16497Y6717D01*
X16501Y6683D01*
X16273D01*
Y6910D01*
D02*
G37*
G36*
X3621Y6658D02*
X3848D01*
Y6430D01*
X3814Y6434D01*
X3768Y6447D01*
X3727Y6470D01*
X3690Y6500D01*
X3660Y6536D01*
X3638Y6578D01*
X3624Y6623D01*
X3621Y6658D01*
D02*
G37*
G36*
X10048Y4710D02*
Y4483D01*
X9821D01*
X9824Y4517D01*
X9838Y4563D01*
X9860Y4604D01*
X9890Y4641D01*
X9927Y4671D01*
X9968Y4693D01*
X10014Y4707D01*
X10048Y4710D01*
D02*
G37*
G36*
X10073D02*
X10108Y4707D01*
X10153Y4693D01*
X10195Y4671D01*
X10231Y4641D01*
X10261Y4604D01*
X10284Y4563D01*
X10297Y4517D01*
X10301Y4483D01*
X10073D01*
Y4710D01*
D02*
G37*
G36*
X16248D02*
Y4483D01*
X16021D01*
X16024Y4517D01*
X16038Y4563D01*
X16060Y4604D01*
X16090Y4641D01*
X16127Y4671D01*
X16168Y4693D01*
X16214Y4707D01*
X16248Y4710D01*
D02*
G37*
G36*
X15648Y5383D02*
X15775D01*
X15772Y5359D01*
X15758Y5325D01*
X15736Y5295D01*
X15706Y5273D01*
X15672Y5259D01*
X15648Y5256D01*
Y5383D01*
D02*
G37*
G36*
X3848Y4710D02*
Y4483D01*
X3621D01*
X3624Y4517D01*
X3638Y4563D01*
X3660Y4604D01*
X3690Y4641D01*
X3727Y4671D01*
X3768Y4693D01*
X3814Y4707D01*
X3848Y4710D01*
D02*
G37*
G36*
X3873D02*
X3908Y4707D01*
X3953Y4693D01*
X3995Y4671D01*
X4031Y4641D01*
X4061Y4604D01*
X4084Y4563D01*
X4097Y4517D01*
X4101Y4483D01*
X3873D01*
Y4710D01*
D02*
G37*
G36*
X16273D02*
X16308Y4707D01*
X16353Y4693D01*
X16395Y4671D01*
X16431Y4641D01*
X16461Y4604D01*
X16484Y4563D01*
X16497Y4517D01*
X16501Y4483D01*
X16273D01*
Y4710D01*
D02*
G37*
G36*
X10073Y4458D02*
X10301D01*
X10297Y4423D01*
X10284Y4378D01*
X10261Y4336D01*
X10231Y4300D01*
X10195Y4270D01*
X10153Y4247D01*
X10108Y4234D01*
X10073Y4230D01*
Y4458D01*
D02*
G37*
G36*
X16021D02*
X16248D01*
Y4230D01*
X16214Y4234D01*
X16168Y4247D01*
X16127Y4270D01*
X16090Y4300D01*
X16060Y4336D01*
X16038Y4378D01*
X16024Y4423D01*
X16021Y4458D01*
D02*
G37*
G36*
X16273D02*
X16501D01*
X16497Y4423D01*
X16484Y4378D01*
X16461Y4336D01*
X16431Y4300D01*
X16395Y4270D01*
X16353Y4247D01*
X16308Y4234D01*
X16273Y4230D01*
Y4458D01*
D02*
G37*
G36*
X3621D02*
X3848D01*
Y4230D01*
X3814Y4234D01*
X3768Y4247D01*
X3727Y4270D01*
X3690Y4300D01*
X3660Y4336D01*
X3638Y4378D01*
X3624Y4423D01*
X3621Y4458D01*
D02*
G37*
G36*
X3873D02*
X4101D01*
X4097Y4423D01*
X4084Y4378D01*
X4061Y4336D01*
X4031Y4300D01*
X3995Y4270D01*
X3953Y4247D01*
X3908Y4234D01*
X3873Y4230D01*
Y4458D01*
D02*
G37*
G36*
X9821D02*
X10048D01*
Y4230D01*
X10014Y4234D01*
X9968Y4247D01*
X9927Y4270D01*
X9890Y4300D01*
X9860Y4336D01*
X9838Y4378D01*
X9824Y4423D01*
X9821Y4458D01*
D02*
G37*
G36*
X14348Y5535D02*
X14372Y5532D01*
X14406Y5518D01*
X14436Y5495D01*
X14458Y5466D01*
X14472Y5432D01*
X14475Y5408D01*
X14348D01*
Y5535D01*
D02*
G37*
G36*
X15623D02*
Y5408D01*
X15496D01*
X15499Y5432D01*
X15513Y5466D01*
X15536Y5495D01*
X15565Y5518D01*
X15599Y5532D01*
X15623Y5535D01*
D02*
G37*
G36*
X15648D02*
X15672Y5532D01*
X15706Y5518D01*
X15736Y5495D01*
X15758Y5466D01*
X15772Y5432D01*
X15775Y5408D01*
X15648D01*
Y5535D01*
D02*
G37*
G36*
X12473D02*
Y5408D01*
X12346D01*
X12349Y5432D01*
X12363Y5466D01*
X12386Y5495D01*
X12415Y5518D01*
X12449Y5532D01*
X12473Y5535D01*
D02*
G37*
G36*
X12773D02*
X12797Y5532D01*
X12831Y5518D01*
X12861Y5495D01*
X12883Y5466D01*
X12897Y5432D01*
X12900Y5408D01*
X12773D01*
Y5535D01*
D02*
G37*
G36*
X14048D02*
Y5408D01*
X13921D01*
X13924Y5432D01*
X13938Y5466D01*
X13961Y5495D01*
X13990Y5518D01*
X14024Y5532D01*
X14048Y5535D01*
D02*
G37*
G36*
X11046Y5383D02*
X11173D01*
Y5256D01*
X11149Y5259D01*
X11115Y5273D01*
X11086Y5295D01*
X11063Y5325D01*
X11049Y5359D01*
X11046Y5383D01*
D02*
G37*
G36*
X13921D02*
X14048D01*
Y5256D01*
X14024Y5259D01*
X13990Y5273D01*
X13961Y5295D01*
X13938Y5325D01*
X13924Y5359D01*
X13921Y5383D01*
D02*
G37*
G36*
X14348D02*
X14475D01*
X14472Y5359D01*
X14458Y5325D01*
X14436Y5295D01*
X14406Y5273D01*
X14372Y5259D01*
X14348Y5256D01*
Y5383D01*
D02*
G37*
G36*
X15496D02*
X15623D01*
Y5256D01*
X15599Y5259D01*
X15565Y5273D01*
X15536Y5295D01*
X15513Y5325D01*
X15499Y5359D01*
X15496Y5383D01*
D02*
G37*
G36*
X11198D02*
X11325D01*
X11322Y5359D01*
X11308Y5325D01*
X11286Y5295D01*
X11256Y5273D01*
X11222Y5259D01*
X11198Y5256D01*
Y5383D01*
D02*
G37*
G36*
X12346D02*
X12473D01*
Y5256D01*
X12449Y5259D01*
X12415Y5273D01*
X12386Y5295D01*
X12363Y5325D01*
X12349Y5359D01*
X12346Y5383D01*
D02*
G37*
G36*
X12773D02*
X12900D01*
X12897Y5359D01*
X12883Y5325D01*
X12861Y5295D01*
X12831Y5273D01*
X12797Y5259D01*
X12773Y5256D01*
Y5383D01*
D02*
G37*
G36*
X13732Y8636D02*
X13762Y8632D01*
X13790Y8621D01*
X13814Y8602D01*
X13832Y8578D01*
X13844Y8550D01*
X13848Y8520D01*
X13844Y8490D01*
X13832Y8462D01*
X13814Y8438D01*
X13790Y8420D01*
X13762Y8408D01*
X13732Y8404D01*
X13702Y8408D01*
X13674Y8420D01*
X13650Y8438D01*
X13631Y8462D01*
X13620Y8490D01*
X13616Y8520D01*
X13620Y8550D01*
X13631Y8578D01*
X13650Y8602D01*
X13674Y8621D01*
X13702Y8632D01*
X13732Y8636D01*
D02*
G37*
G36*
X7376Y8400D02*
X7448D01*
Y8308D01*
X7376D01*
Y8400D01*
D02*
G37*
G36*
X7473D02*
X7546D01*
Y8308D01*
X7473D01*
Y8400D01*
D02*
G37*
G36*
X10407Y8636D02*
X10437Y8632D01*
X10465Y8621D01*
X10489Y8602D01*
X10507Y8578D01*
X10519Y8550D01*
X10523Y8520D01*
X10519Y8490D01*
X10507Y8462D01*
X10489Y8438D01*
X10465Y8420D01*
X10437Y8408D01*
X10407Y8404D01*
X10377Y8408D01*
X10349Y8420D01*
X10325Y8438D01*
X10306Y8462D01*
X10295Y8490D01*
X10291Y8520D01*
X10295Y8550D01*
X10306Y8578D01*
X10325Y8602D01*
X10349Y8621D01*
X10377Y8632D01*
X10407Y8636D01*
D02*
G37*
G36*
X11516D02*
X11546Y8632D01*
X11574Y8621D01*
X11598Y8602D01*
X11616Y8578D01*
X11628Y8550D01*
X11632Y8520D01*
X11628Y8490D01*
X11616Y8462D01*
X11598Y8438D01*
X11574Y8420D01*
X11546Y8408D01*
X11516Y8404D01*
X11486Y8408D01*
X11458Y8420D01*
X11434Y8438D01*
X11415Y8462D01*
X11404Y8490D01*
X11400Y8520D01*
X11404Y8550D01*
X11415Y8578D01*
X11434Y8602D01*
X11458Y8621D01*
X11486Y8632D01*
X11516Y8636D01*
D02*
G37*
G36*
X13224D02*
X13254Y8632D01*
X13282Y8621D01*
X13306Y8602D01*
X13324Y8578D01*
X13336Y8550D01*
X13340Y8520D01*
X13336Y8490D01*
X13324Y8462D01*
X13306Y8438D01*
X13282Y8420D01*
X13254Y8408D01*
X13224Y8404D01*
X13194Y8408D01*
X13166Y8420D01*
X13142Y8438D01*
X13123Y8462D01*
X13112Y8490D01*
X13108Y8520D01*
X13112Y8550D01*
X13123Y8578D01*
X13142Y8602D01*
X13166Y8621D01*
X13194Y8632D01*
X13224Y8636D01*
D02*
G37*
G36*
X7376Y8283D02*
X7448D01*
Y8190D01*
X7376D01*
Y8283D01*
D02*
G37*
G36*
X7786Y8700D02*
X7813Y8696D01*
X7838Y8686D01*
X7860Y8669D01*
X7876Y8647D01*
X7887Y8622D01*
X7890Y8595D01*
X7887Y8568D01*
X7876Y8543D01*
X7860Y8521D01*
X7851Y8515D01*
Y8255D01*
X7906D01*
Y8085D01*
X7666D01*
Y8255D01*
X7720D01*
Y8515D01*
X7712Y8521D01*
X7695Y8543D01*
X7685Y8568D01*
X7681Y8595D01*
X7685Y8622D01*
X7695Y8647D01*
X7712Y8669D01*
X7734Y8686D01*
X7759Y8696D01*
X7786Y8700D01*
D02*
G37*
G36*
X4843Y8135D02*
X4935D01*
Y8063D01*
X4843D01*
Y8135D01*
D02*
G37*
G36*
X4961D02*
X5053D01*
Y8063D01*
X4961D01*
Y8135D01*
D02*
G37*
G36*
X7473Y8283D02*
X7546D01*
Y8190D01*
X7473D01*
Y8283D01*
D02*
G37*
G36*
X4843Y8233D02*
X4935D01*
Y8161D01*
X4843D01*
Y8233D01*
D02*
G37*
G36*
X4961D02*
X5053D01*
Y8161D01*
X4961D01*
Y8233D01*
D02*
G37*
G36*
X11274Y8635D02*
X11292Y8632D01*
X11320Y8621D01*
X11344Y8602D01*
X11362Y8578D01*
X11374Y8550D01*
X11376Y8533D01*
X11274D01*
Y8635D01*
D02*
G37*
G36*
X13465D02*
Y8533D01*
X13363D01*
X13366Y8550D01*
X13377Y8578D01*
X13396Y8602D01*
X13420Y8621D01*
X13448Y8632D01*
X13465Y8635D01*
D02*
G37*
G36*
X13490D02*
X13508Y8632D01*
X13536Y8621D01*
X13560Y8602D01*
X13578Y8578D01*
X13590Y8550D01*
X13592Y8533D01*
X13490D01*
Y8635D01*
D02*
G37*
G36*
X10546Y8635D02*
X10648D01*
Y8533D01*
X10546D01*
Y8635D01*
D02*
G37*
G36*
X10673D02*
X10776D01*
Y8533D01*
X10673D01*
Y8635D01*
D02*
G37*
G36*
X11249Y8635D02*
Y8533D01*
X11147D01*
X11150Y8550D01*
X11161Y8578D01*
X11180Y8602D01*
X11204Y8621D01*
X11232Y8632D01*
X11249Y8635D01*
D02*
G37*
G36*
X11147Y8508D02*
X11249D01*
Y8406D01*
X11232Y8408D01*
X11204Y8420D01*
X11180Y8438D01*
X11161Y8462D01*
X11150Y8490D01*
X11147Y8508D01*
D02*
G37*
G36*
X10546D02*
X10648D01*
Y8405D01*
X10546D01*
Y8508D01*
D02*
G37*
G36*
X10673D02*
X10776D01*
Y8405D01*
X10673D01*
Y8508D01*
D02*
G37*
G36*
X10153Y8636D02*
X10183Y8632D01*
X10211Y8621D01*
X10235Y8602D01*
X10253Y8578D01*
X10265Y8550D01*
X10269Y8520D01*
X10265Y8490D01*
X10253Y8462D01*
X10235Y8438D01*
X10211Y8420D01*
X10183Y8408D01*
X10153Y8404D01*
X10123Y8408D01*
X10095Y8420D01*
X10071Y8438D01*
X10052Y8462D01*
X10041Y8490D01*
X10037Y8520D01*
X10041Y8550D01*
X10052Y8578D01*
X10071Y8602D01*
X10095Y8621D01*
X10123Y8632D01*
X10153Y8636D01*
D02*
G37*
G36*
X11274Y8508D02*
X11376D01*
X11374Y8490D01*
X11362Y8462D01*
X11344Y8438D01*
X11320Y8420D01*
X11292Y8408D01*
X11274Y8406D01*
Y8508D01*
D02*
G37*
G36*
X13363D02*
X13465D01*
Y8406D01*
X13448Y8408D01*
X13420Y8420D01*
X13396Y8438D01*
X13377Y8462D01*
X13366Y8490D01*
X13363Y8508D01*
D02*
G37*
G36*
X13490D02*
X13592D01*
X13590Y8490D01*
X13578Y8462D01*
X13560Y8438D01*
X13536Y8420D01*
X13508Y8408D01*
X13490Y8406D01*
Y8508D01*
D02*
G37*
G36*
X6586Y8661D02*
X6811D01*
X6828Y8659D01*
X6834Y8656D01*
X6843Y8652D01*
X6857Y8642D01*
X6957Y8542D01*
X6967Y8528D01*
X6970Y8522D01*
X6974Y8512D01*
X6976Y8495D01*
Y8400D01*
X6986D01*
Y8361D01*
X7186D01*
Y8400D01*
X7356D01*
Y8190D01*
X7336D01*
Y8028D01*
X7338D01*
Y7946D01*
X7666D01*
Y7965D01*
X7906D01*
Y7946D01*
X7970D01*
X7970Y7947D01*
X7987Y7969D01*
X8009Y7986D01*
X8034Y7996D01*
X8061Y8000D01*
X8088Y7996D01*
X8113Y7986D01*
X8135Y7969D01*
X8151Y7947D01*
X8162Y7922D01*
X8165Y7895D01*
X8162Y7868D01*
X8151Y7843D01*
X8145Y7836D01*
X8151Y7824D01*
X10100D01*
X10122Y7820D01*
X10140Y7808D01*
X10834Y7114D01*
X13798D01*
X13820Y7110D01*
X13838Y7097D01*
X13985Y6951D01*
X13999Y6957D01*
X14036Y6962D01*
X14072Y6957D01*
X14106Y6943D01*
X14136Y6920D01*
X14158Y6891D01*
X14172Y6857D01*
X14177Y6820D01*
X14172Y6784D01*
X14158Y6750D01*
X14136Y6720D01*
X14106Y6698D01*
X14072Y6684D01*
X14036Y6679D01*
X13999Y6684D01*
X13965Y6698D01*
X13936Y6720D01*
X13913Y6750D01*
X13899Y6784D01*
X13894Y6820D01*
X13899Y6857D01*
X13905Y6871D01*
X13775Y7002D01*
X12792D01*
Y6949D01*
X12806Y6943D01*
X12836Y6920D01*
X12858Y6891D01*
X12872Y6857D01*
X12877Y6820D01*
X12872Y6784D01*
X12858Y6750D01*
X12836Y6720D01*
X12806Y6698D01*
X12772Y6684D01*
X12736Y6679D01*
X12699Y6684D01*
X12665Y6698D01*
X12636Y6720D01*
X12613Y6750D01*
X12605Y6771D01*
X12592D01*
X12583Y6750D01*
X12561Y6720D01*
X12531Y6698D01*
X12497Y6684D01*
X12461Y6679D01*
X12424Y6684D01*
X12410Y6690D01*
X12288Y6568D01*
X12288D01*
X12288Y6568D01*
X12288D01*
X12288Y6568D01*
Y6568D01*
X12288Y6568D01*
Y6568D01*
X12281Y6564D01*
X12285Y6551D01*
X13773D01*
X13795Y6547D01*
X13813Y6535D01*
X14314Y6034D01*
X14336Y6037D01*
X14372Y6032D01*
X14406Y6018D01*
X14436Y5995D01*
X14458Y5966D01*
X14464Y5951D01*
X15507D01*
X15513Y5966D01*
X15536Y5995D01*
X15565Y6018D01*
X15599Y6032D01*
X15636Y6037D01*
X15672Y6032D01*
X15706Y6018D01*
X15736Y5995D01*
X15758Y5966D01*
X15772Y5932D01*
X15777Y5895D01*
X15772Y5859D01*
X15758Y5825D01*
X15736Y5795D01*
X15706Y5773D01*
X15672Y5759D01*
X15636Y5754D01*
X15599Y5759D01*
X15565Y5773D01*
X15536Y5795D01*
X15513Y5825D01*
X15507Y5839D01*
X14464D01*
X14458Y5825D01*
X14436Y5795D01*
X14406Y5773D01*
X14372Y5759D01*
X14336Y5754D01*
X14299Y5759D01*
X14265Y5773D01*
X14236Y5795D01*
X14213Y5825D01*
X14205Y5846D01*
X14192D01*
X14183Y5825D01*
X14161Y5795D01*
X14131Y5773D01*
X14097Y5759D01*
X14061Y5754D01*
X14024Y5759D01*
X13990Y5773D01*
X13961Y5795D01*
X13938Y5825D01*
X13932Y5839D01*
X12889D01*
X12883Y5825D01*
X12861Y5795D01*
X12831Y5773D01*
X12797Y5759D01*
X12761Y5754D01*
X12724Y5759D01*
X12690Y5773D01*
X12661Y5795D01*
X12638Y5825D01*
X12630Y5846D01*
X12617D01*
X12608Y5825D01*
X12586Y5795D01*
X12556Y5773D01*
X12522Y5759D01*
X12486Y5754D01*
X12449Y5759D01*
X12415Y5773D01*
X12386Y5795D01*
X12363Y5825D01*
X12357Y5839D01*
X11314D01*
X11308Y5825D01*
X11286Y5795D01*
X11256Y5773D01*
X11222Y5759D01*
X11186Y5754D01*
X11149Y5759D01*
X11115Y5773D01*
X11086Y5795D01*
X11063Y5825D01*
X11049Y5859D01*
X11044Y5895D01*
X11049Y5932D01*
X11063Y5966D01*
X11086Y5995D01*
X11115Y6018D01*
X11130Y6024D01*
Y6072D01*
X9809Y7392D01*
X8235D01*
X8230Y7380D01*
X8489Y7122D01*
X8511Y7125D01*
X8538Y7121D01*
X8563Y7111D01*
X8585Y7094D01*
X8601Y7072D01*
X8612Y7047D01*
X8615Y7020D01*
X8612Y6993D01*
X8601Y6968D01*
X8585Y6946D01*
X8563Y6930D01*
X8538Y6919D01*
X8511Y6916D01*
X8484Y6919D01*
X8459Y6930D01*
X8437Y6946D01*
X8420Y6968D01*
X8410Y6993D01*
X8406Y7020D01*
X8409Y7042D01*
X8397Y7055D01*
X8386Y7048D01*
X8387Y7047D01*
X8390Y7020D01*
X8387Y6993D01*
X8376Y6968D01*
X8360Y6946D01*
X8338Y6930D01*
X8313Y6919D01*
X8286Y6916D01*
X8259Y6919D01*
X8234Y6930D01*
X8212Y6946D01*
X8203Y6958D01*
X8191Y6954D01*
Y6945D01*
X7981D01*
Y7095D01*
X8191D01*
Y7086D01*
X8203Y7082D01*
X8212Y7094D01*
X8234Y7111D01*
X8259Y7121D01*
X8286Y7125D01*
X8313Y7121D01*
X8313Y7121D01*
X8320Y7132D01*
X8202Y7249D01*
X8191Y7244D01*
Y7135D01*
X7981D01*
Y7154D01*
X7941D01*
Y7135D01*
X7731D01*
Y7154D01*
X7547D01*
Y7148D01*
X7338D01*
Y7023D01*
X7509Y6851D01*
X8373D01*
X8387Y6869D01*
X8409Y6886D01*
X8434Y6896D01*
X8461Y6900D01*
X8488Y6896D01*
X8513Y6886D01*
X8535Y6869D01*
X8551Y6847D01*
X8562Y6822D01*
X8565Y6795D01*
X8562Y6768D01*
X8551Y6743D01*
X8547Y6738D01*
X8553Y6726D01*
X9162D01*
X9634Y7198D01*
X9631Y7220D01*
X9635Y7247D01*
X9645Y7272D01*
X9662Y7294D01*
X9684Y7311D01*
X9709Y7321D01*
X9736Y7325D01*
X9763Y7321D01*
X9788Y7311D01*
X9810Y7294D01*
X9826Y7272D01*
X9837Y7247D01*
X9840Y7220D01*
X9837Y7193D01*
X9826Y7168D01*
X9810Y7146D01*
X9788Y7130D01*
X9763Y7119D01*
X9736Y7116D01*
X9714Y7119D01*
X9225Y6631D01*
X9207Y6618D01*
X9186Y6614D01*
X7513D01*
X7512Y6612D01*
X7519Y6601D01*
X9337D01*
X9734Y6998D01*
X9731Y7020D01*
X9735Y7047D01*
X9745Y7072D01*
X9762Y7094D01*
X9784Y7111D01*
X9809Y7121D01*
X9836Y7125D01*
X9863Y7121D01*
X9888Y7111D01*
X9910Y7094D01*
X9926Y7072D01*
X9937Y7047D01*
X9940Y7020D01*
X9937Y6993D01*
X9926Y6968D01*
X9910Y6946D01*
X9888Y6930D01*
X9863Y6919D01*
X9836Y6916D01*
X9814Y6919D01*
X9400Y6506D01*
X9382Y6493D01*
X9361Y6489D01*
X7691D01*
Y6345D01*
X7481D01*
Y6374D01*
X7471Y6381D01*
X7025Y6826D01*
X7014Y6822D01*
Y6734D01*
X7250Y6497D01*
X7252Y6495D01*
X7316D01*
Y6345D01*
X7106D01*
Y6483D01*
X6945Y6644D01*
X6934Y6639D01*
Y6495D01*
X6941D01*
Y6345D01*
X6731D01*
Y6495D01*
X6821D01*
Y6648D01*
X6810Y6652D01*
X6566Y6408D01*
Y6345D01*
X6356D01*
Y6494D01*
X6355Y6495D01*
D01*
X6350Y6497D01*
X6342D01*
X6250Y6406D01*
X6250D01*
X6250Y6406D01*
X6250Y6406D01*
Y6406D01*
X6232Y6393D01*
X6211Y6389D01*
X6191D01*
Y6345D01*
X5981D01*
Y6495D01*
X6062D01*
X6064Y6497D01*
X6086Y6501D01*
X6187D01*
X6657Y6971D01*
Y7148D01*
X6447D01*
Y7228D01*
Y7308D01*
Y7312D01*
X6075D01*
X6054Y7316D01*
X6036Y7329D01*
X6036Y7329D01*
X6036Y7329D01*
X5890Y7474D01*
X5878Y7469D01*
Y7437D01*
X5878D01*
Y7287D01*
Y7248D01*
X5658D01*
Y7287D01*
Y7306D01*
X5519D01*
X5498Y7310D01*
X5480Y7322D01*
X5396Y7406D01*
X5384Y7424D01*
X5380Y7445D01*
Y8070D01*
Y8205D01*
X5374Y8209D01*
X5358Y8231D01*
X5347Y8256D01*
X5344Y8283D01*
X5347Y8310D01*
X5358Y8335D01*
X5374Y8357D01*
X5396Y8373D01*
X5421Y8384D01*
X5448Y8387D01*
X5475Y8384D01*
X5500Y8373D01*
X5522Y8357D01*
X5539Y8335D01*
X5549Y8310D01*
X5553Y8283D01*
X5549Y8256D01*
X5539Y8231D01*
X5532Y8222D01*
X5538Y8211D01*
X5548Y8212D01*
X5575Y8209D01*
X5600Y8198D01*
X5622Y8182D01*
X5639Y8160D01*
X5649Y8135D01*
X5653Y8108D01*
X5649Y8081D01*
X5652Y8075D01*
X5658Y8072D01*
D01*
D01*
X5658Y8072D01*
D01*
X5658D01*
Y8072D01*
X5878D01*
Y7922D01*
X5878D01*
Y7818D01*
X5878D01*
Y7799D01*
X5888D01*
X5910Y7795D01*
X5928Y7782D01*
X6078Y7633D01*
X6090Y7635D01*
X6095Y7647D01*
X6112Y7669D01*
X6134Y7686D01*
X6159Y7696D01*
X6159Y7699D01*
X6146Y7705D01*
X6124Y7721D01*
X6108Y7743D01*
X6097Y7768D01*
X6094Y7795D01*
X6097Y7822D01*
X6108Y7847D01*
X6124Y7869D01*
X6146Y7886D01*
X6171Y7896D01*
X6198Y7900D01*
X6225Y7896D01*
X6237Y7891D01*
X6247Y7899D01*
X6244Y7920D01*
X6247Y7947D01*
X6258Y7972D01*
X6274Y7994D01*
X6296Y8011D01*
X6321Y8021D01*
X6348Y8025D01*
X6375Y8021D01*
X6400Y8011D01*
X6422Y7994D01*
X6439Y7972D01*
X6449Y7947D01*
X6453Y7920D01*
X6449Y7893D01*
X6439Y7868D01*
X6422Y7846D01*
X6404Y7833D01*
Y7794D01*
X6436Y7762D01*
X6447Y7767D01*
Y7828D01*
X6511D01*
Y8015D01*
X6486Y8041D01*
X6486Y8041D01*
X6459Y8044D01*
X6434Y8055D01*
X6412Y8071D01*
X6395Y8093D01*
X6385Y8118D01*
X6381Y8145D01*
X6385Y8172D01*
X6395Y8197D01*
X6412Y8219D01*
X6434Y8236D01*
X6459Y8246D01*
X6486Y8250D01*
X6513Y8246D01*
X6538Y8236D01*
X6560Y8219D01*
X6576Y8197D01*
X6587Y8172D01*
X6590Y8145D01*
X6587Y8118D01*
X6581Y8104D01*
X6607Y8078D01*
X6619Y8060D01*
X6624Y8039D01*
Y7828D01*
X6657D01*
Y8028D01*
X6661D01*
Y8058D01*
X6644Y8071D01*
X6627Y8093D01*
X6617Y8118D01*
X6613Y8145D01*
X6617Y8172D01*
X6627Y8197D01*
X6644Y8219D01*
X6646Y8221D01*
Y8400D01*
X6796D01*
Y8213D01*
X6808Y8197D01*
X6818Y8172D01*
X6822Y8145D01*
X6818Y8118D01*
X6808Y8093D01*
X6791Y8071D01*
X6774Y8058D01*
Y8028D01*
X7185D01*
Y7908D01*
Y7788D01*
X6687D01*
Y7708D01*
Y7628D01*
Y7548D01*
Y7468D01*
Y7388D01*
Y7308D01*
Y7228D01*
Y7168D01*
X7307D01*
Y7228D01*
Y7308D01*
Y7388D01*
Y7468D01*
Y7548D01*
Y7628D01*
Y7708D01*
Y7788D01*
X7210D01*
Y7891D01*
X7207Y7898D01*
X7206Y7908D01*
D01*
X7205Y7915D01*
Y8028D01*
X7205D01*
Y8190D01*
X7186D01*
Y8230D01*
X6986D01*
Y8190D01*
X6836D01*
Y8400D01*
X6845D01*
Y8468D01*
X6784Y8530D01*
X6613D01*
X6114Y8031D01*
X6115Y8020D01*
X6112Y7993D01*
X6101Y7968D01*
X6085Y7946D01*
X6063Y7930D01*
X6038Y7919D01*
X6011Y7916D01*
X5984Y7919D01*
X5959Y7930D01*
X5937Y7946D01*
X5920Y7968D01*
X5910Y7993D01*
X5906Y8020D01*
X5910Y8047D01*
X5920Y8072D01*
X5937Y8094D01*
X5959Y8111D01*
X5984Y8121D01*
X6011Y8125D01*
X6021Y8123D01*
X6539Y8642D01*
X6553Y8652D01*
X6562Y8656D01*
X6569Y8659D01*
X6586Y8661D01*
D02*
G37*
G36*
X12321Y7308D02*
X12448D01*
Y7181D01*
X12424Y7184D01*
X12390Y7198D01*
X12361Y7220D01*
X12338Y7250D01*
X12324Y7284D01*
X12321Y7308D01*
D02*
G37*
G36*
X12748D02*
X12875D01*
X12872Y7284D01*
X12858Y7250D01*
X12836Y7220D01*
X12806Y7198D01*
X12772Y7184D01*
X12748Y7181D01*
Y7308D01*
D02*
G37*
G36*
X13896D02*
X14023D01*
Y7181D01*
X13999Y7184D01*
X13965Y7198D01*
X13936Y7220D01*
X13913Y7250D01*
X13899Y7284D01*
X13896Y7308D01*
D02*
G37*
G36*
X14836Y7296D02*
X14868Y7292D01*
X14899Y7279D01*
X14925Y7259D01*
X14945Y7233D01*
X14954Y7210D01*
X14967D01*
X14977Y7233D01*
X14997Y7259D01*
X15023Y7279D01*
X15053Y7292D01*
X15086Y7296D01*
X15118Y7292D01*
X15149Y7279D01*
X15175Y7259D01*
X15195Y7233D01*
X15198Y7226D01*
X15286D01*
Y7275D01*
X15436D01*
Y7065D01*
X15286D01*
Y7114D01*
X15198D01*
X15195Y7107D01*
X15175Y7081D01*
X15149Y7061D01*
X15118Y7049D01*
X15086Y7044D01*
X15053Y7049D01*
X15023Y7061D01*
X14997Y7081D01*
X14977Y7107D01*
X14967Y7130D01*
X14954D01*
X14945Y7107D01*
X14925Y7081D01*
X14899Y7061D01*
X14868Y7049D01*
X14836Y7044D01*
X14803Y7049D01*
X14773Y7061D01*
X14747Y7081D01*
X14727Y7107D01*
X14714Y7138D01*
X14710Y7170D01*
X14714Y7203D01*
X14727Y7233D01*
X14747Y7259D01*
X14773Y7279D01*
X14803Y7292D01*
X14836Y7296D01*
D02*
G37*
G36*
X11021Y7308D02*
X11148D01*
Y7181D01*
X11124Y7184D01*
X11090Y7198D01*
X11061Y7220D01*
X11038Y7250D01*
X11024Y7284D01*
X11021Y7308D01*
D02*
G37*
G36*
X11173D02*
X11300D01*
X11297Y7284D01*
X11283Y7250D01*
X11261Y7220D01*
X11231Y7198D01*
X11197Y7184D01*
X11173Y7181D01*
Y7308D01*
D02*
G37*
G36*
X14048D02*
X14175D01*
X14172Y7284D01*
X14158Y7250D01*
X14136Y7220D01*
X14106Y7198D01*
X14072Y7184D01*
X14048Y7181D01*
Y7308D01*
D02*
G37*
G36*
X7848Y7095D02*
X7941D01*
Y7033D01*
X7848D01*
Y7095D01*
D02*
G37*
G36*
X5931Y7033D02*
X6023D01*
Y6960D01*
X5931D01*
Y7033D01*
D02*
G37*
G36*
X6048D02*
X6141D01*
Y6960D01*
X6048D01*
Y7033D01*
D02*
G37*
G36*
X5931Y7130D02*
X6023D01*
Y7058D01*
X5931D01*
Y7130D01*
D02*
G37*
G36*
X6048D02*
X6141D01*
Y7058D01*
X6048D01*
Y7130D01*
D02*
G37*
G36*
X7731Y7095D02*
X7823D01*
Y7033D01*
X7731D01*
Y7095D01*
D02*
G37*
G36*
X12278Y8636D02*
X12308Y8632D01*
X12336Y8621D01*
X12360Y8602D01*
X12378Y8578D01*
X12390Y8550D01*
X12394Y8520D01*
X12390Y8490D01*
X12378Y8462D01*
X12360Y8438D01*
X12336Y8420D01*
X12334Y8419D01*
Y7558D01*
X12352Y7544D01*
X12368Y7522D01*
X12379Y7497D01*
X12382Y7470D01*
X12380Y7456D01*
X12390Y7443D01*
X12424Y7457D01*
X12448Y7460D01*
Y7333D01*
X12321D01*
X12324Y7357D01*
X12328Y7366D01*
X12317Y7373D01*
X12299Y7360D01*
X12278Y7356D01*
X12256Y7360D01*
X12238Y7373D01*
X12236Y7375D01*
X12226Y7380D01*
X12204Y7396D01*
X12187Y7418D01*
X12177Y7443D01*
X12173Y7470D01*
X12177Y7497D01*
X12187Y7522D01*
X12204Y7544D01*
X12222Y7558D01*
Y8419D01*
X12220Y8420D01*
X12196Y8438D01*
X12177Y8462D01*
X12166Y8490D01*
X12162Y8520D01*
X12166Y8550D01*
X12177Y8578D01*
X12196Y8602D01*
X12220Y8621D01*
X12248Y8632D01*
X12278Y8636D01*
D02*
G37*
G36*
X12473Y7460D02*
X12497Y7457D01*
X12531Y7443D01*
X12561Y7420D01*
X12583Y7391D01*
X12592Y7370D01*
X12605D01*
X12613Y7391D01*
X12636Y7420D01*
X12665Y7443D01*
X12699Y7457D01*
X12723Y7460D01*
Y7320D01*
Y7181D01*
X12699Y7184D01*
X12665Y7198D01*
X12636Y7220D01*
X12613Y7250D01*
X12605Y7271D01*
X12592D01*
X12583Y7250D01*
X12561Y7220D01*
X12531Y7198D01*
X12497Y7184D01*
X12473Y7181D01*
Y7320D01*
Y7460D01*
D02*
G37*
G36*
X11148D02*
Y7333D01*
X11021D01*
X11024Y7357D01*
X11038Y7391D01*
X11061Y7420D01*
X11090Y7443D01*
X11124Y7457D01*
X11148Y7460D01*
D02*
G37*
G36*
X12532Y8636D02*
X12562Y8632D01*
X12590Y8621D01*
X12614Y8602D01*
X12632Y8578D01*
X12644Y8550D01*
X12648Y8520D01*
X12644Y8490D01*
X12632Y8462D01*
X12614Y8438D01*
X12590Y8420D01*
X12588Y8419D01*
Y7898D01*
X13036Y7450D01*
X13036Y7450D01*
X13063Y7446D01*
X13088Y7436D01*
X13110Y7419D01*
X13126Y7397D01*
X13137Y7372D01*
X13140Y7345D01*
X13137Y7318D01*
X13126Y7293D01*
X13110Y7271D01*
X13088Y7255D01*
X13063Y7244D01*
X13036Y7241D01*
X13009Y7244D01*
X12984Y7255D01*
X12962Y7271D01*
X12945Y7293D01*
X12935Y7318D01*
X12931Y7345D01*
X12935Y7372D01*
X12941Y7386D01*
X12492Y7835D01*
X12492Y7835D01*
X12492Y7835D01*
X12480Y7853D01*
X12476Y7874D01*
Y8419D01*
X12474Y8420D01*
X12450Y8438D01*
X12431Y8462D01*
X12420Y8490D01*
X12416Y8520D01*
X12420Y8550D01*
X12431Y8578D01*
X12450Y8602D01*
X12474Y8621D01*
X12502Y8632D01*
X12532Y8636D01*
D02*
G37*
G36*
X13871Y8635D02*
X14101D01*
Y8405D01*
X14051D01*
Y7975D01*
X14060Y7969D01*
X14076Y7947D01*
X14077Y7946D01*
X15401D01*
X15418Y7944D01*
X15433Y7937D01*
X15447Y7927D01*
X15598Y7775D01*
X15626D01*
Y7725D01*
X15626Y7720D01*
X15626Y7716D01*
Y7565D01*
X15616D01*
Y7275D01*
X15626D01*
Y7065D01*
X15616D01*
Y6775D01*
X15626D01*
Y6565D01*
X15476D01*
Y6775D01*
X15485D01*
Y7065D01*
X15476D01*
Y7275D01*
X15485D01*
Y7565D01*
X15476D01*
Y7713D01*
X15447Y7741D01*
X15436Y7736D01*
Y7565D01*
X15286D01*
Y7614D01*
X15198D01*
X15195Y7607D01*
X15175Y7581D01*
X15149Y7561D01*
X15118Y7549D01*
X15086Y7544D01*
X15053Y7549D01*
X15023Y7561D01*
X14997Y7581D01*
X14977Y7607D01*
X14967Y7630D01*
X14954D01*
X14945Y7607D01*
X14925Y7581D01*
X14899Y7561D01*
X14868Y7549D01*
X14836Y7544D01*
X14803Y7549D01*
X14773Y7561D01*
X14747Y7581D01*
X14727Y7607D01*
X14714Y7638D01*
X14710Y7670D01*
X14714Y7703D01*
X14727Y7733D01*
X14747Y7759D01*
X14773Y7779D01*
X14803Y7792D01*
X14836Y7796D01*
X14868Y7792D01*
X14899Y7779D01*
X14925Y7759D01*
X14945Y7733D01*
X14954Y7710D01*
X14967D01*
X14977Y7733D01*
X14997Y7759D01*
X15023Y7779D01*
X15053Y7792D01*
X15086Y7796D01*
X15118Y7792D01*
X15149Y7779D01*
X15175Y7759D01*
X15195Y7733D01*
X15198Y7726D01*
X15286D01*
Y7775D01*
X15396D01*
X15401Y7787D01*
X15374Y7815D01*
X14051D01*
X14038Y7805D01*
X14013Y7794D01*
X13986Y7791D01*
X13959Y7794D01*
X13934Y7805D01*
X13912Y7821D01*
X13895Y7843D01*
X13885Y7868D01*
X13881Y7895D01*
X13885Y7922D01*
X13895Y7947D01*
X13912Y7969D01*
X13920Y7975D01*
Y8405D01*
X13871D01*
Y8635D01*
D02*
G37*
G36*
X5138Y8072D02*
X5358D01*
Y7922D01*
Y7795D01*
Y7668D01*
Y7564D01*
X5358D01*
Y7414D01*
X5358D01*
Y7310D01*
Y7291D01*
X5421D01*
X5443Y7287D01*
X5461Y7274D01*
X5598Y7137D01*
X5610Y7119D01*
X5614Y7098D01*
Y6963D01*
X5643D01*
Y6753D01*
X5473D01*
Y6963D01*
X5502D01*
Y7075D01*
X5398Y7179D01*
X5358D01*
Y7160D01*
Y7033D01*
X5138D01*
Y7052D01*
X5053D01*
Y7023D01*
X4843D01*
Y7193D01*
X5053D01*
Y7164D01*
X5138D01*
Y7287D01*
Y7306D01*
X5053D01*
Y7213D01*
X4843D01*
Y7383D01*
X4954D01*
X4973Y7401D01*
X4991Y7414D01*
X5012Y7418D01*
X5138D01*
Y7433D01*
X4992D01*
X4971Y7437D01*
X4955Y7448D01*
X4843D01*
Y7618D01*
X5053D01*
Y7545D01*
X5138D01*
Y7568D01*
X5126Y7576D01*
X5126Y7576D01*
X5126Y7576D01*
X5061Y7641D01*
X5053Y7638D01*
Y7638D01*
X5053Y7638D01*
X4843D01*
Y7808D01*
X5002D01*
X5007Y7820D01*
X4954Y7873D01*
X4843D01*
Y8043D01*
X5053D01*
Y7932D01*
X5126Y7859D01*
X5138Y7864D01*
Y7922D01*
Y8072D01*
D02*
G37*
G36*
X11173Y7460D02*
X11197Y7457D01*
X11231Y7443D01*
X11261Y7420D01*
X11283Y7391D01*
X11297Y7357D01*
X11300Y7333D01*
X11173D01*
Y7460D01*
D02*
G37*
G36*
X12671Y8635D02*
X12901D01*
Y8485D01*
X13300Y8085D01*
X13313Y8067D01*
X13317Y8045D01*
Y7433D01*
X13335Y7419D01*
X13351Y7397D01*
X13362Y7372D01*
X13365Y7345D01*
X13362Y7318D01*
X13351Y7293D01*
X13335Y7271D01*
X13313Y7255D01*
X13288Y7244D01*
X13261Y7241D01*
X13234Y7244D01*
X13209Y7255D01*
X13187Y7271D01*
X13170Y7293D01*
X13160Y7318D01*
X13156Y7345D01*
X13160Y7372D01*
X13170Y7397D01*
X13187Y7419D01*
X13205Y7433D01*
Y8022D01*
X12821Y8405D01*
X12671D01*
Y8635D01*
D02*
G37*
G36*
X12024Y8636D02*
X12054Y8632D01*
X12082Y8621D01*
X12106Y8602D01*
X12124Y8578D01*
X12136Y8550D01*
X12140Y8520D01*
X12136Y8490D01*
X12124Y8462D01*
X12106Y8438D01*
X12082Y8420D01*
X12080Y8419D01*
Y7421D01*
X12098Y7407D01*
X12114Y7385D01*
X12125Y7360D01*
X12128Y7333D01*
X12125Y7306D01*
X12114Y7281D01*
X12098Y7259D01*
X12076Y7243D01*
X12051Y7232D01*
X12024Y7229D01*
X11997Y7232D01*
X11972Y7243D01*
X11950Y7259D01*
X11933Y7281D01*
X11923Y7306D01*
X11919Y7333D01*
X11923Y7360D01*
X11933Y7385D01*
X11950Y7407D01*
X11968Y7421D01*
Y8419D01*
X11966Y8420D01*
X11942Y8438D01*
X11923Y8462D01*
X11912Y8490D01*
X11908Y8520D01*
X11912Y8550D01*
X11923Y8578D01*
X11942Y8602D01*
X11966Y8621D01*
X11994Y8632D01*
X12024Y8636D01*
D02*
G37*
G36*
X11770D02*
X11800Y8632D01*
X11828Y8621D01*
X11852Y8602D01*
X11870Y8578D01*
X11882Y8550D01*
X11886Y8520D01*
X11882Y8490D01*
X11870Y8462D01*
X11852Y8438D01*
X11828Y8420D01*
X11826Y8419D01*
Y7401D01*
X11835Y7394D01*
X11851Y7372D01*
X11862Y7347D01*
X11865Y7320D01*
X11862Y7293D01*
X11851Y7268D01*
X11835Y7246D01*
X11813Y7230D01*
X11788Y7219D01*
X11761Y7216D01*
X11734Y7219D01*
X11709Y7230D01*
X11687Y7246D01*
X11670Y7268D01*
X11660Y7293D01*
X11656Y7320D01*
X11660Y7347D01*
X11670Y7372D01*
X11687Y7394D01*
X11709Y7411D01*
X11714Y7413D01*
Y8419D01*
X11712Y8420D01*
X11688Y8438D01*
X11669Y8462D01*
X11658Y8490D01*
X11654Y8520D01*
X11658Y8550D01*
X11669Y8578D01*
X11688Y8602D01*
X11712Y8621D01*
X11740Y8632D01*
X11770Y8636D01*
D02*
G37*
G36*
X12748Y7460D02*
X12772Y7457D01*
X12806Y7443D01*
X12836Y7420D01*
X12858Y7391D01*
X12872Y7357D01*
X12875Y7333D01*
X12748D01*
Y7460D01*
D02*
G37*
G36*
X14023D02*
Y7333D01*
X13896D01*
X13899Y7357D01*
X13913Y7391D01*
X13936Y7420D01*
X13965Y7443D01*
X13999Y7457D01*
X14023Y7460D01*
D02*
G37*
G36*
X14048D02*
X14072Y7457D01*
X14106Y7443D01*
X14136Y7420D01*
X14158Y7391D01*
X14172Y7357D01*
X14175Y7333D01*
X14048D01*
Y7460D01*
D02*
G37*
%LPD*%
G36*
X3117Y10226D02*
X17005D01*
Y15614D01*
X3117D01*
Y10226D01*
D02*
G37*
%LPC*%
G36*
X6380Y12572D02*
Y12469D01*
X6277D01*
X6279Y12487D01*
X6291Y12515D01*
X6310Y12539D01*
X6334Y12558D01*
X6362Y12570D01*
X6380Y12572D01*
D02*
G37*
G36*
X6405D02*
X6423Y12570D01*
X6451Y12558D01*
X6476Y12539D01*
X6494Y12515D01*
X6506Y12487D01*
X6508Y12469D01*
X6405D01*
Y12572D01*
D02*
G37*
G36*
X6277Y12444D02*
X6380D01*
Y12341D01*
X6362Y12343D01*
X6334Y12355D01*
X6310Y12373D01*
X6291Y12398D01*
X6279Y12426D01*
X6277Y12444D01*
D02*
G37*
G36*
X16021Y13158D02*
X16248D01*
Y12930D01*
X16214Y12934D01*
X16168Y12947D01*
X16127Y12970D01*
X16090Y13000D01*
X16060Y13036D01*
X16038Y13078D01*
X16024Y13123D01*
X16021Y13158D01*
D02*
G37*
G36*
X16273D02*
X16501D01*
X16497Y13123D01*
X16484Y13078D01*
X16461Y13036D01*
X16431Y13000D01*
X16395Y12970D01*
X16353Y12947D01*
X16308Y12934D01*
X16273Y12930D01*
Y13158D01*
D02*
G37*
G36*
X5658Y13722D02*
X5878D01*
Y13660D01*
Y13533D01*
X5834D01*
Y13443D01*
X6013D01*
X6030Y13441D01*
X6032Y13440D01*
X6141D01*
Y13270D01*
X5931D01*
Y13312D01*
X5901D01*
Y13225D01*
X5910Y13219D01*
X5926Y13197D01*
X5937Y13172D01*
X5940Y13145D01*
X5937Y13118D01*
X5926Y13093D01*
X5910Y13071D01*
X5901Y13065D01*
Y12397D01*
X6000Y12298D01*
X6396D01*
X6430Y12333D01*
X6423Y12343D01*
X6423Y12343D01*
X6405Y12341D01*
Y12444D01*
X6508D01*
X6506Y12426D01*
X6506Y12426D01*
X6516Y12419D01*
X6532Y12435D01*
X6529Y12456D01*
X6533Y12487D01*
X6545Y12515D01*
X6564Y12539D01*
X6588Y12558D01*
X6616Y12570D01*
X6647Y12574D01*
X6677Y12570D01*
X6698Y12561D01*
X6705Y12571D01*
X6602Y12674D01*
X6566D01*
Y12655D01*
X6356D01*
Y12805D01*
X6566D01*
Y12786D01*
X6626D01*
X6647Y12782D01*
X6665Y12770D01*
X6719Y12716D01*
X6731Y12721D01*
Y12805D01*
X6941D01*
Y12750D01*
X7122Y12568D01*
X7124Y12570D01*
X7155Y12574D01*
X7185Y12570D01*
X7213Y12558D01*
X7238Y12539D01*
X7256Y12515D01*
X7268Y12487D01*
X7272Y12456D01*
X7268Y12426D01*
X7256Y12398D01*
X7238Y12373D01*
X7213Y12355D01*
X7185Y12343D01*
X7155Y12339D01*
X7124Y12343D01*
X7096Y12355D01*
X7072Y12373D01*
X7053Y12398D01*
X7041Y12426D01*
X7037Y12456D01*
X7041Y12487D01*
X7043Y12489D01*
X7015Y12517D01*
X7004Y12510D01*
X7014Y12487D01*
X7018Y12456D01*
X7014Y12426D01*
X7002Y12398D01*
X6984Y12373D01*
X6959Y12355D01*
X6931Y12343D01*
X6901Y12339D01*
X6870Y12343D01*
X6842Y12355D01*
X6818Y12373D01*
X6799Y12398D01*
X6787Y12426D01*
X6783Y12456D01*
X6787Y12487D01*
X6788Y12488D01*
X6762Y12515D01*
X6751Y12508D01*
X6760Y12487D01*
X6764Y12456D01*
X6760Y12426D01*
X6748Y12398D01*
X6730Y12373D01*
X6705Y12355D01*
X6677Y12343D01*
X6647Y12339D01*
X6625Y12342D01*
X6470Y12186D01*
X6456Y12176D01*
X6450Y12174D01*
X6440Y12169D01*
X6423Y12167D01*
X5973D01*
X5956Y12169D01*
X5950Y12172D01*
X5940Y12176D01*
X5927Y12186D01*
X5789Y12324D01*
X5779Y12338D01*
X5776Y12345D01*
X5772Y12353D01*
X5770Y12370D01*
Y13065D01*
X5762Y13071D01*
X5745Y13093D01*
X5735Y13118D01*
X5731Y13145D01*
X5735Y13172D01*
X5745Y13197D01*
X5762Y13219D01*
X5770Y13225D01*
Y13253D01*
X5663D01*
Y13463D01*
X5703D01*
Y13533D01*
X5658D01*
Y13660D01*
Y13722D01*
D02*
G37*
G36*
X7481Y12805D02*
X7691D01*
Y12655D01*
X7667D01*
Y12572D01*
X7779D01*
Y12340D01*
X7546D01*
Y12572D01*
X7555D01*
Y12655D01*
X7481D01*
Y12805D01*
D02*
G37*
G36*
X14073Y12035D02*
X14097Y12032D01*
X14131Y12018D01*
X14161Y11995D01*
X14183Y11966D01*
X14192Y11945D01*
X14205D01*
X14213Y11966D01*
X14236Y11995D01*
X14265Y12018D01*
X14299Y12032D01*
X14323Y12035D01*
Y11895D01*
Y11756D01*
X14299Y11759D01*
X14265Y11773D01*
X14236Y11795D01*
X14213Y11825D01*
X14205Y11846D01*
X14192D01*
X14183Y11825D01*
X14161Y11795D01*
X14131Y11773D01*
X14097Y11759D01*
X14073Y11756D01*
Y11895D01*
Y12035D01*
D02*
G37*
G36*
X11173D02*
Y11908D01*
X11046D01*
X11049Y11932D01*
X11063Y11966D01*
X11086Y11995D01*
X11115Y12018D01*
X11149Y12032D01*
X11173Y12035D01*
D02*
G37*
G36*
X11198D02*
X11222Y12032D01*
X11256Y12018D01*
X11286Y11995D01*
X11308Y11966D01*
X11322Y11932D01*
X11325Y11908D01*
X11198D01*
Y12035D01*
D02*
G37*
G36*
X5981Y12805D02*
X6191D01*
Y12655D01*
X6142D01*
Y12573D01*
X6169Y12570D01*
X6197Y12558D01*
X6222Y12539D01*
X6240Y12515D01*
X6252Y12487D01*
X6256Y12456D01*
X6252Y12426D01*
X6240Y12398D01*
X6222Y12373D01*
X6197Y12355D01*
X6169Y12343D01*
X6139Y12339D01*
X6108Y12343D01*
X6080Y12355D01*
X6056Y12373D01*
X6037Y12398D01*
X6025Y12426D01*
X6021Y12456D01*
X6025Y12487D01*
X6031Y12501D01*
X6030Y12509D01*
Y12655D01*
X5981D01*
Y12805D01*
D02*
G37*
G36*
X7106D02*
X7316D01*
Y12705D01*
X7448Y12572D01*
X7454Y12563D01*
X7467Y12558D01*
X7492Y12539D01*
X7510Y12515D01*
X7522Y12487D01*
X7526Y12456D01*
X7522Y12426D01*
X7510Y12398D01*
X7492Y12373D01*
X7467Y12355D01*
X7439Y12343D01*
X7409Y12339D01*
X7378Y12343D01*
X7350Y12355D01*
X7326Y12373D01*
X7307Y12398D01*
X7295Y12426D01*
X7291Y12456D01*
X7295Y12487D01*
X7307Y12515D01*
X7324Y12537D01*
X7206Y12655D01*
X7106D01*
Y12805D01*
D02*
G37*
G36*
X12498Y12035D02*
X12522Y12032D01*
X12556Y12018D01*
X12586Y11995D01*
X12608Y11966D01*
X12617Y11945D01*
X12630D01*
X12638Y11966D01*
X12661Y11995D01*
X12690Y12018D01*
X12724Y12032D01*
X12748Y12035D01*
Y11895D01*
Y11756D01*
X12724Y11759D01*
X12690Y11773D01*
X12661Y11795D01*
X12638Y11825D01*
X12630Y11846D01*
X12617D01*
X12608Y11825D01*
X12586Y11795D01*
X12556Y11773D01*
X12522Y11759D01*
X12498Y11756D01*
Y11895D01*
Y12035D01*
D02*
G37*
G36*
X3848Y13410D02*
Y13183D01*
X3621D01*
X3624Y13217D01*
X3638Y13263D01*
X3660Y13304D01*
X3690Y13341D01*
X3727Y13371D01*
X3768Y13393D01*
X3814Y13407D01*
X3848Y13410D01*
D02*
G37*
G36*
X3873D02*
X3908Y13407D01*
X3953Y13393D01*
X3995Y13371D01*
X4031Y13341D01*
X4061Y13304D01*
X4084Y13263D01*
X4097Y13217D01*
X4101Y13183D01*
X3873D01*
Y13410D01*
D02*
G37*
G36*
X10048D02*
Y13183D01*
X9821D01*
X9824Y13217D01*
X9838Y13263D01*
X9860Y13304D01*
X9890Y13341D01*
X9927Y13371D01*
X9968Y13393D01*
X10014Y13407D01*
X10048Y13410D01*
D02*
G37*
G36*
X7731Y13508D02*
X7823D01*
Y13445D01*
X7731D01*
Y13508D01*
D02*
G37*
G36*
X7848D02*
X7941D01*
Y13445D01*
X7848D01*
Y13508D01*
D02*
G37*
G36*
X14836Y13296D02*
X14868Y13292D01*
X14899Y13279D01*
X14925Y13259D01*
X14945Y13233D01*
X14954Y13210D01*
X14967D01*
X14977Y13233D01*
X14997Y13259D01*
X15023Y13279D01*
X15053Y13292D01*
X15086Y13296D01*
X15118Y13292D01*
X15149Y13279D01*
X15175Y13259D01*
X15195Y13233D01*
X15198Y13226D01*
X15286D01*
Y13275D01*
X15436D01*
Y13065D01*
X15286D01*
Y13114D01*
X15198D01*
X15195Y13107D01*
X15175Y13081D01*
X15149Y13061D01*
X15118Y13049D01*
X15086Y13044D01*
X15053Y13049D01*
X15023Y13061D01*
X14997Y13081D01*
X14977Y13107D01*
X14967Y13130D01*
X14954D01*
X14945Y13107D01*
X14925Y13081D01*
X14899Y13061D01*
X14868Y13049D01*
X14836Y13044D01*
X14803Y13049D01*
X14773Y13061D01*
X14747Y13081D01*
X14727Y13107D01*
X14714Y13138D01*
X14710Y13170D01*
X14714Y13203D01*
X14727Y13233D01*
X14747Y13259D01*
X14773Y13279D01*
X14803Y13292D01*
X14836Y13296D01*
D02*
G37*
G36*
X10073Y13410D02*
X10108Y13407D01*
X10153Y13393D01*
X10195Y13371D01*
X10231Y13341D01*
X10261Y13304D01*
X10284Y13263D01*
X10297Y13217D01*
X10301Y13183D01*
X10073D01*
Y13410D01*
D02*
G37*
G36*
X3873Y13158D02*
X4101D01*
X4097Y13123D01*
X4084Y13078D01*
X4061Y13036D01*
X4031Y13000D01*
X3995Y12970D01*
X3953Y12947D01*
X3908Y12934D01*
X3873Y12930D01*
Y13158D01*
D02*
G37*
G36*
X9821D02*
X10048D01*
Y12930D01*
X10014Y12934D01*
X9968Y12947D01*
X9927Y12970D01*
X9890Y13000D01*
X9860Y13036D01*
X9838Y13078D01*
X9824Y13123D01*
X9821Y13158D01*
D02*
G37*
G36*
X10073D02*
X10301D01*
X10297Y13123D01*
X10284Y13078D01*
X10261Y13036D01*
X10231Y13000D01*
X10195Y12970D01*
X10153Y12947D01*
X10108Y12934D01*
X10073Y12930D01*
Y13158D01*
D02*
G37*
G36*
X16248Y13410D02*
Y13183D01*
X16021D01*
X16024Y13217D01*
X16038Y13263D01*
X16060Y13304D01*
X16090Y13341D01*
X16127Y13371D01*
X16168Y13393D01*
X16214Y13407D01*
X16248Y13410D01*
D02*
G37*
G36*
X16273D02*
X16308Y13407D01*
X16353Y13393D01*
X16395Y13371D01*
X16431Y13341D01*
X16461Y13304D01*
X16484Y13263D01*
X16497Y13217D01*
X16501Y13183D01*
X16273D01*
Y13410D01*
D02*
G37*
G36*
X3621Y13158D02*
X3848D01*
Y12930D01*
X3814Y12934D01*
X3768Y12947D01*
X3727Y12970D01*
X3690Y13000D01*
X3660Y13036D01*
X3638Y13078D01*
X3624Y13123D01*
X3621Y13158D01*
D02*
G37*
G36*
X10048Y11210D02*
Y10983D01*
X9821D01*
X9824Y11017D01*
X9838Y11063D01*
X9860Y11104D01*
X9890Y11141D01*
X9927Y11171D01*
X9968Y11193D01*
X10014Y11207D01*
X10048Y11210D01*
D02*
G37*
G36*
X10073D02*
X10108Y11207D01*
X10153Y11193D01*
X10195Y11171D01*
X10231Y11141D01*
X10261Y11104D01*
X10284Y11063D01*
X10297Y11017D01*
X10301Y10983D01*
X10073D01*
Y11210D01*
D02*
G37*
G36*
X16248D02*
Y10983D01*
X16021D01*
X16024Y11017D01*
X16038Y11063D01*
X16060Y11104D01*
X16090Y11141D01*
X16127Y11171D01*
X16168Y11193D01*
X16214Y11207D01*
X16248Y11210D01*
D02*
G37*
G36*
X15648Y11883D02*
X15775D01*
X15772Y11859D01*
X15758Y11825D01*
X15736Y11795D01*
X15706Y11773D01*
X15672Y11759D01*
X15648Y11756D01*
Y11883D01*
D02*
G37*
G36*
X3848Y11210D02*
Y10983D01*
X3621D01*
X3624Y11017D01*
X3638Y11063D01*
X3660Y11104D01*
X3690Y11141D01*
X3727Y11171D01*
X3768Y11193D01*
X3814Y11207D01*
X3848Y11210D01*
D02*
G37*
G36*
X3873D02*
X3908Y11207D01*
X3953Y11193D01*
X3995Y11171D01*
X4031Y11141D01*
X4061Y11104D01*
X4084Y11063D01*
X4097Y11017D01*
X4101Y10983D01*
X3873D01*
Y11210D01*
D02*
G37*
G36*
X16273D02*
X16308Y11207D01*
X16353Y11193D01*
X16395Y11171D01*
X16431Y11141D01*
X16461Y11104D01*
X16484Y11063D01*
X16497Y11017D01*
X16501Y10983D01*
X16273D01*
Y11210D01*
D02*
G37*
G36*
X10073Y10958D02*
X10301D01*
X10297Y10923D01*
X10284Y10878D01*
X10261Y10836D01*
X10231Y10800D01*
X10195Y10770D01*
X10153Y10747D01*
X10108Y10734D01*
X10073Y10730D01*
Y10958D01*
D02*
G37*
G36*
X16021D02*
X16248D01*
Y10730D01*
X16214Y10734D01*
X16168Y10747D01*
X16127Y10770D01*
X16090Y10800D01*
X16060Y10836D01*
X16038Y10878D01*
X16024Y10923D01*
X16021Y10958D01*
D02*
G37*
G36*
X16273D02*
X16501D01*
X16497Y10923D01*
X16484Y10878D01*
X16461Y10836D01*
X16431Y10800D01*
X16395Y10770D01*
X16353Y10747D01*
X16308Y10734D01*
X16273Y10730D01*
Y10958D01*
D02*
G37*
G36*
X3621D02*
X3848D01*
Y10730D01*
X3814Y10734D01*
X3768Y10747D01*
X3727Y10770D01*
X3690Y10800D01*
X3660Y10836D01*
X3638Y10878D01*
X3624Y10923D01*
X3621Y10958D01*
D02*
G37*
G36*
X3873D02*
X4101D01*
X4097Y10923D01*
X4084Y10878D01*
X4061Y10836D01*
X4031Y10800D01*
X3995Y10770D01*
X3953Y10747D01*
X3908Y10734D01*
X3873Y10730D01*
Y10958D01*
D02*
G37*
G36*
X9821D02*
X10048D01*
Y10730D01*
X10014Y10734D01*
X9968Y10747D01*
X9927Y10770D01*
X9890Y10800D01*
X9860Y10836D01*
X9838Y10878D01*
X9824Y10923D01*
X9821Y10958D01*
D02*
G37*
G36*
X14348Y12035D02*
X14372Y12032D01*
X14406Y12018D01*
X14436Y11995D01*
X14458Y11966D01*
X14472Y11932D01*
X14475Y11908D01*
X14348D01*
Y12035D01*
D02*
G37*
G36*
X15623D02*
Y11908D01*
X15496D01*
X15499Y11932D01*
X15513Y11966D01*
X15536Y11995D01*
X15565Y12018D01*
X15599Y12032D01*
X15623Y12035D01*
D02*
G37*
G36*
X15648D02*
X15672Y12032D01*
X15706Y12018D01*
X15736Y11995D01*
X15758Y11966D01*
X15772Y11932D01*
X15775Y11908D01*
X15648D01*
Y12035D01*
D02*
G37*
G36*
X12473D02*
Y11908D01*
X12346D01*
X12349Y11932D01*
X12363Y11966D01*
X12386Y11995D01*
X12415Y12018D01*
X12449Y12032D01*
X12473Y12035D01*
D02*
G37*
G36*
X12773D02*
X12797Y12032D01*
X12831Y12018D01*
X12861Y11995D01*
X12883Y11966D01*
X12897Y11932D01*
X12900Y11908D01*
X12773D01*
Y12035D01*
D02*
G37*
G36*
X14048D02*
Y11908D01*
X13921D01*
X13924Y11932D01*
X13938Y11966D01*
X13961Y11995D01*
X13990Y12018D01*
X14024Y12032D01*
X14048Y12035D01*
D02*
G37*
G36*
X11046Y11883D02*
X11173D01*
Y11756D01*
X11149Y11759D01*
X11115Y11773D01*
X11086Y11795D01*
X11063Y11825D01*
X11049Y11859D01*
X11046Y11883D01*
D02*
G37*
G36*
X13921D02*
X14048D01*
Y11756D01*
X14024Y11759D01*
X13990Y11773D01*
X13961Y11795D01*
X13938Y11825D01*
X13924Y11859D01*
X13921Y11883D01*
D02*
G37*
G36*
X14348D02*
X14475D01*
X14472Y11859D01*
X14458Y11825D01*
X14436Y11795D01*
X14406Y11773D01*
X14372Y11759D01*
X14348Y11756D01*
Y11883D01*
D02*
G37*
G36*
X15496D02*
X15623D01*
Y11756D01*
X15599Y11759D01*
X15565Y11773D01*
X15536Y11795D01*
X15513Y11825D01*
X15499Y11859D01*
X15496Y11883D01*
D02*
G37*
G36*
X11198D02*
X11325D01*
X11322Y11859D01*
X11308Y11825D01*
X11286Y11795D01*
X11256Y11773D01*
X11222Y11759D01*
X11198Y11756D01*
Y11883D01*
D02*
G37*
G36*
X12346D02*
X12473D01*
Y11756D01*
X12449Y11759D01*
X12415Y11773D01*
X12386Y11795D01*
X12363Y11825D01*
X12349Y11859D01*
X12346Y11883D01*
D02*
G37*
G36*
X12773D02*
X12900D01*
X12897Y11859D01*
X12883Y11825D01*
X12861Y11795D01*
X12831Y11773D01*
X12797Y11759D01*
X12773Y11756D01*
Y11883D01*
D02*
G37*
G36*
X13732Y15136D02*
X13762Y15132D01*
X13790Y15121D01*
X13814Y15102D01*
X13832Y15078D01*
X13844Y15050D01*
X13848Y15020D01*
X13844Y14990D01*
X13832Y14962D01*
X13814Y14938D01*
X13790Y14920D01*
X13762Y14908D01*
X13732Y14904D01*
X13702Y14908D01*
X13674Y14920D01*
X13650Y14938D01*
X13631Y14962D01*
X13620Y14990D01*
X13616Y15020D01*
X13620Y15050D01*
X13631Y15078D01*
X13650Y15102D01*
X13674Y15121D01*
X13702Y15132D01*
X13732Y15136D01*
D02*
G37*
G36*
X7376Y14900D02*
X7448D01*
Y14808D01*
X7376D01*
Y14900D01*
D02*
G37*
G36*
X7473D02*
X7546D01*
Y14808D01*
X7473D01*
Y14900D01*
D02*
G37*
G36*
X10407Y15136D02*
X10437Y15132D01*
X10465Y15121D01*
X10489Y15102D01*
X10507Y15078D01*
X10519Y15050D01*
X10523Y15020D01*
X10519Y14990D01*
X10507Y14962D01*
X10489Y14938D01*
X10465Y14920D01*
X10437Y14908D01*
X10407Y14904D01*
X10377Y14908D01*
X10349Y14920D01*
X10325Y14938D01*
X10306Y14962D01*
X10295Y14990D01*
X10291Y15020D01*
X10295Y15050D01*
X10306Y15078D01*
X10325Y15102D01*
X10349Y15121D01*
X10377Y15132D01*
X10407Y15136D01*
D02*
G37*
G36*
X11516D02*
X11546Y15132D01*
X11574Y15121D01*
X11598Y15102D01*
X11616Y15078D01*
X11628Y15050D01*
X11632Y15020D01*
X11628Y14990D01*
X11616Y14962D01*
X11598Y14938D01*
X11574Y14920D01*
X11546Y14908D01*
X11516Y14904D01*
X11486Y14908D01*
X11458Y14920D01*
X11434Y14938D01*
X11415Y14962D01*
X11404Y14990D01*
X11400Y15020D01*
X11404Y15050D01*
X11415Y15078D01*
X11434Y15102D01*
X11458Y15121D01*
X11486Y15132D01*
X11516Y15136D01*
D02*
G37*
G36*
X13224D02*
X13254Y15132D01*
X13282Y15121D01*
X13306Y15102D01*
X13324Y15078D01*
X13336Y15050D01*
X13340Y15020D01*
X13336Y14990D01*
X13324Y14962D01*
X13306Y14938D01*
X13282Y14920D01*
X13254Y14908D01*
X13224Y14904D01*
X13194Y14908D01*
X13166Y14920D01*
X13142Y14938D01*
X13123Y14962D01*
X13112Y14990D01*
X13108Y15020D01*
X13112Y15050D01*
X13123Y15078D01*
X13142Y15102D01*
X13166Y15121D01*
X13194Y15132D01*
X13224Y15136D01*
D02*
G37*
G36*
X7376Y14783D02*
X7448D01*
Y14690D01*
X7376D01*
Y14783D01*
D02*
G37*
G36*
X7786Y15200D02*
X7813Y15196D01*
X7838Y15186D01*
X7860Y15169D01*
X7876Y15147D01*
X7887Y15122D01*
X7890Y15095D01*
X7887Y15068D01*
X7876Y15043D01*
X7860Y15021D01*
X7851Y15015D01*
Y14755D01*
X7906D01*
Y14585D01*
X7666D01*
Y14755D01*
X7720D01*
Y15015D01*
X7712Y15021D01*
X7695Y15043D01*
X7685Y15068D01*
X7681Y15095D01*
X7685Y15122D01*
X7695Y15147D01*
X7712Y15169D01*
X7734Y15186D01*
X7759Y15196D01*
X7786Y15200D01*
D02*
G37*
G36*
X4843Y14635D02*
X4935D01*
Y14563D01*
X4843D01*
Y14635D01*
D02*
G37*
G36*
X4961D02*
X5053D01*
Y14563D01*
X4961D01*
Y14635D01*
D02*
G37*
G36*
X7473Y14783D02*
X7546D01*
Y14690D01*
X7473D01*
Y14783D01*
D02*
G37*
G36*
X4843Y14733D02*
X4935D01*
Y14660D01*
X4843D01*
Y14733D01*
D02*
G37*
G36*
X4961D02*
X5053D01*
Y14660D01*
X4961D01*
Y14733D01*
D02*
G37*
G36*
X11274Y15135D02*
X11292Y15132D01*
X11320Y15121D01*
X11344Y15102D01*
X11362Y15078D01*
X11374Y15050D01*
X11376Y15033D01*
X11274D01*
Y15135D01*
D02*
G37*
G36*
X13465D02*
Y15033D01*
X13363D01*
X13366Y15050D01*
X13377Y15078D01*
X13396Y15102D01*
X13420Y15121D01*
X13448Y15132D01*
X13465Y15135D01*
D02*
G37*
G36*
X13490D02*
X13508Y15132D01*
X13536Y15121D01*
X13560Y15102D01*
X13578Y15078D01*
X13590Y15050D01*
X13592Y15033D01*
X13490D01*
Y15135D01*
D02*
G37*
G36*
X10546Y15135D02*
X10648D01*
Y15033D01*
X10546D01*
Y15135D01*
D02*
G37*
G36*
X10673D02*
X10776D01*
Y15033D01*
X10673D01*
Y15135D01*
D02*
G37*
G36*
X11249Y15135D02*
Y15033D01*
X11147D01*
X11150Y15050D01*
X11161Y15078D01*
X11180Y15102D01*
X11204Y15121D01*
X11232Y15132D01*
X11249Y15135D01*
D02*
G37*
G36*
X11147Y15008D02*
X11249D01*
Y14906D01*
X11232Y14908D01*
X11204Y14920D01*
X11180Y14938D01*
X11161Y14962D01*
X11150Y14990D01*
X11147Y15008D01*
D02*
G37*
G36*
X10546D02*
X10648D01*
Y14905D01*
X10546D01*
Y15008D01*
D02*
G37*
G36*
X10673D02*
X10776D01*
Y14905D01*
X10673D01*
Y15008D01*
D02*
G37*
G36*
X10153Y15136D02*
X10183Y15132D01*
X10211Y15121D01*
X10235Y15102D01*
X10253Y15078D01*
X10265Y15050D01*
X10269Y15020D01*
X10265Y14990D01*
X10253Y14962D01*
X10235Y14938D01*
X10211Y14920D01*
X10183Y14908D01*
X10153Y14904D01*
X10123Y14908D01*
X10095Y14920D01*
X10071Y14938D01*
X10052Y14962D01*
X10041Y14990D01*
X10037Y15020D01*
X10041Y15050D01*
X10052Y15078D01*
X10071Y15102D01*
X10095Y15121D01*
X10123Y15132D01*
X10153Y15136D01*
D02*
G37*
G36*
X11274Y15008D02*
X11376D01*
X11374Y14990D01*
X11362Y14962D01*
X11344Y14938D01*
X11320Y14920D01*
X11292Y14908D01*
X11274Y14906D01*
Y15008D01*
D02*
G37*
G36*
X13363D02*
X13465D01*
Y14906D01*
X13448Y14908D01*
X13420Y14920D01*
X13396Y14938D01*
X13377Y14962D01*
X13366Y14990D01*
X13363Y15008D01*
D02*
G37*
G36*
X13490D02*
X13592D01*
X13590Y14990D01*
X13578Y14962D01*
X13560Y14938D01*
X13536Y14920D01*
X13508Y14908D01*
X13490Y14906D01*
Y15008D01*
D02*
G37*
G36*
X6586Y15161D02*
X6811D01*
X6828Y15159D01*
X6834Y15156D01*
X6843Y15152D01*
X6857Y15142D01*
X6957Y15042D01*
X6967Y15028D01*
X6970Y15022D01*
X6974Y15012D01*
X6976Y14995D01*
Y14900D01*
X6986D01*
Y14861D01*
X7186D01*
Y14900D01*
X7356D01*
Y14690D01*
X7336D01*
Y14528D01*
X7338D01*
Y14446D01*
X7666D01*
Y14465D01*
X7906D01*
Y14446D01*
X7970D01*
X7970Y14447D01*
X7987Y14469D01*
X8009Y14486D01*
X8034Y14496D01*
X8061Y14500D01*
X8088Y14496D01*
X8113Y14486D01*
X8135Y14469D01*
X8151Y14447D01*
X8162Y14422D01*
X8165Y14395D01*
X8162Y14368D01*
X8151Y14343D01*
X8145Y14336D01*
X8151Y14324D01*
X10100D01*
X10122Y14320D01*
X10140Y14308D01*
X10834Y13614D01*
X13798D01*
X13820Y13610D01*
X13838Y13597D01*
X13985Y13451D01*
X13999Y13457D01*
X14036Y13462D01*
X14072Y13457D01*
X14106Y13443D01*
X14136Y13420D01*
X14158Y13391D01*
X14172Y13357D01*
X14177Y13320D01*
X14172Y13284D01*
X14158Y13250D01*
X14136Y13220D01*
X14106Y13198D01*
X14072Y13184D01*
X14036Y13179D01*
X13999Y13184D01*
X13965Y13198D01*
X13936Y13220D01*
X13913Y13250D01*
X13899Y13284D01*
X13894Y13320D01*
X13899Y13357D01*
X13905Y13371D01*
X13775Y13502D01*
X12792D01*
Y13449D01*
X12806Y13443D01*
X12836Y13420D01*
X12858Y13391D01*
X12872Y13357D01*
X12877Y13320D01*
X12872Y13284D01*
X12858Y13250D01*
X12836Y13220D01*
X12806Y13198D01*
X12772Y13184D01*
X12736Y13179D01*
X12699Y13184D01*
X12665Y13198D01*
X12636Y13220D01*
X12613Y13250D01*
X12605Y13271D01*
X12592D01*
X12583Y13250D01*
X12561Y13220D01*
X12531Y13198D01*
X12497Y13184D01*
X12461Y13179D01*
X12424Y13184D01*
X12410Y13190D01*
X12288Y13068D01*
X12288D01*
X12288Y13068D01*
X12288D01*
X12288Y13068D01*
Y13068D01*
X12288Y13068D01*
Y13068D01*
X12281Y13064D01*
X12285Y13051D01*
X13773D01*
X13795Y13047D01*
X13813Y13035D01*
X14314Y12534D01*
X14336Y12537D01*
X14372Y12532D01*
X14406Y12518D01*
X14436Y12495D01*
X14458Y12466D01*
X14464Y12451D01*
X15507D01*
X15513Y12466D01*
X15536Y12495D01*
X15565Y12518D01*
X15599Y12532D01*
X15636Y12537D01*
X15672Y12532D01*
X15706Y12518D01*
X15736Y12495D01*
X15758Y12466D01*
X15772Y12432D01*
X15777Y12395D01*
X15772Y12359D01*
X15758Y12325D01*
X15736Y12295D01*
X15706Y12273D01*
X15672Y12259D01*
X15636Y12254D01*
X15599Y12259D01*
X15565Y12273D01*
X15536Y12295D01*
X15513Y12325D01*
X15507Y12339D01*
X14464D01*
X14458Y12325D01*
X14436Y12295D01*
X14406Y12273D01*
X14372Y12259D01*
X14336Y12254D01*
X14299Y12259D01*
X14265Y12273D01*
X14236Y12295D01*
X14213Y12325D01*
X14205Y12346D01*
X14192D01*
X14183Y12325D01*
X14161Y12295D01*
X14131Y12273D01*
X14097Y12259D01*
X14061Y12254D01*
X14024Y12259D01*
X13990Y12273D01*
X13961Y12295D01*
X13938Y12325D01*
X13932Y12339D01*
X12889D01*
X12883Y12325D01*
X12861Y12295D01*
X12831Y12273D01*
X12797Y12259D01*
X12761Y12254D01*
X12724Y12259D01*
X12690Y12273D01*
X12661Y12295D01*
X12638Y12325D01*
X12630Y12346D01*
X12617D01*
X12608Y12325D01*
X12586Y12295D01*
X12556Y12273D01*
X12522Y12259D01*
X12486Y12254D01*
X12449Y12259D01*
X12415Y12273D01*
X12386Y12295D01*
X12363Y12325D01*
X12357Y12339D01*
X11314D01*
X11308Y12325D01*
X11286Y12295D01*
X11256Y12273D01*
X11222Y12259D01*
X11186Y12254D01*
X11149Y12259D01*
X11115Y12273D01*
X11086Y12295D01*
X11063Y12325D01*
X11049Y12359D01*
X11044Y12395D01*
X11049Y12432D01*
X11063Y12466D01*
X11086Y12495D01*
X11115Y12518D01*
X11130Y12524D01*
Y12572D01*
X9809Y13892D01*
X8235D01*
X8230Y13880D01*
X8489Y13622D01*
X8511Y13625D01*
X8538Y13621D01*
X8563Y13611D01*
X8585Y13594D01*
X8601Y13572D01*
X8612Y13547D01*
X8615Y13520D01*
X8612Y13493D01*
X8601Y13468D01*
X8585Y13446D01*
X8563Y13430D01*
X8538Y13419D01*
X8511Y13416D01*
X8484Y13419D01*
X8459Y13430D01*
X8437Y13446D01*
X8420Y13468D01*
X8410Y13493D01*
X8406Y13520D01*
X8409Y13542D01*
X8397Y13555D01*
X8386Y13548D01*
X8387Y13547D01*
X8390Y13520D01*
X8387Y13493D01*
X8376Y13468D01*
X8360Y13446D01*
X8338Y13430D01*
X8313Y13419D01*
X8286Y13416D01*
X8259Y13419D01*
X8234Y13430D01*
X8212Y13446D01*
X8203Y13458D01*
X8191Y13454D01*
Y13445D01*
X7981D01*
Y13595D01*
X8191D01*
Y13586D01*
X8203Y13582D01*
X8212Y13594D01*
X8234Y13611D01*
X8259Y13621D01*
X8286Y13625D01*
X8313Y13621D01*
X8313Y13621D01*
X8320Y13632D01*
X8202Y13749D01*
X8191Y13744D01*
Y13635D01*
X7981D01*
Y13654D01*
X7941D01*
Y13635D01*
X7731D01*
Y13654D01*
X7547D01*
Y13648D01*
X7338D01*
Y13523D01*
X7509Y13351D01*
X8373D01*
X8387Y13369D01*
X8409Y13386D01*
X8434Y13396D01*
X8461Y13400D01*
X8488Y13396D01*
X8513Y13386D01*
X8535Y13369D01*
X8551Y13347D01*
X8562Y13322D01*
X8565Y13295D01*
X8562Y13268D01*
X8551Y13243D01*
X8547Y13238D01*
X8553Y13226D01*
X9162D01*
X9634Y13698D01*
X9631Y13720D01*
X9635Y13747D01*
X9645Y13772D01*
X9662Y13794D01*
X9684Y13811D01*
X9709Y13821D01*
X9736Y13825D01*
X9763Y13821D01*
X9788Y13811D01*
X9810Y13794D01*
X9826Y13772D01*
X9837Y13747D01*
X9840Y13720D01*
X9837Y13693D01*
X9826Y13668D01*
X9810Y13646D01*
X9788Y13630D01*
X9763Y13619D01*
X9736Y13616D01*
X9714Y13619D01*
X9225Y13131D01*
X9207Y13118D01*
X9186Y13114D01*
X7513D01*
X7512Y13112D01*
X7519Y13101D01*
X9337D01*
X9734Y13498D01*
X9731Y13520D01*
X9735Y13547D01*
X9745Y13572D01*
X9762Y13594D01*
X9784Y13611D01*
X9809Y13621D01*
X9836Y13625D01*
X9863Y13621D01*
X9888Y13611D01*
X9910Y13594D01*
X9926Y13572D01*
X9937Y13547D01*
X9940Y13520D01*
X9937Y13493D01*
X9926Y13468D01*
X9910Y13446D01*
X9888Y13430D01*
X9863Y13419D01*
X9836Y13416D01*
X9814Y13419D01*
X9400Y13006D01*
X9382Y12993D01*
X9361Y12989D01*
X7691D01*
Y12845D01*
X7481D01*
Y12874D01*
X7471Y12881D01*
X7025Y13326D01*
X7014Y13322D01*
Y13234D01*
X7250Y12997D01*
X7252Y12995D01*
X7316D01*
Y12845D01*
X7106D01*
Y12983D01*
X6945Y13144D01*
X6934Y13139D01*
Y12995D01*
X6941D01*
Y12845D01*
X6731D01*
Y12995D01*
X6821D01*
Y13148D01*
X6810Y13152D01*
X6566Y12908D01*
Y12845D01*
X6356D01*
Y12994D01*
X6355Y12995D01*
D01*
X6350Y12997D01*
X6342D01*
X6250Y12906D01*
X6250Y12906D01*
X6250Y12906D01*
X6250Y12906D01*
Y12906D01*
X6232Y12893D01*
X6211Y12889D01*
X6191D01*
Y12845D01*
X5981D01*
Y12995D01*
X6062D01*
X6064Y12997D01*
X6086Y13001D01*
X6187D01*
X6657Y13471D01*
Y13648D01*
X6447D01*
Y13728D01*
Y13808D01*
Y13812D01*
X6075D01*
X6054Y13816D01*
X6036Y13829D01*
X6036Y13829D01*
X6036Y13829D01*
X5890Y13974D01*
X5878Y13969D01*
Y13937D01*
X5878D01*
Y13787D01*
Y13748D01*
X5658D01*
Y13787D01*
Y13806D01*
X5519D01*
X5498Y13810D01*
X5480Y13822D01*
X5396Y13906D01*
X5384Y13924D01*
X5380Y13945D01*
Y14570D01*
Y14705D01*
X5374Y14709D01*
X5358Y14731D01*
X5347Y14756D01*
X5344Y14783D01*
X5347Y14810D01*
X5358Y14835D01*
X5374Y14857D01*
X5396Y14873D01*
X5421Y14884D01*
X5448Y14887D01*
X5475Y14884D01*
X5500Y14873D01*
X5522Y14857D01*
X5539Y14835D01*
X5549Y14810D01*
X5553Y14783D01*
X5549Y14756D01*
X5539Y14731D01*
X5532Y14722D01*
X5538Y14711D01*
X5548Y14712D01*
X5575Y14709D01*
X5600Y14698D01*
X5622Y14682D01*
X5639Y14660D01*
X5649Y14635D01*
X5653Y14608D01*
X5649Y14581D01*
X5652Y14575D01*
X5658Y14572D01*
D01*
D01*
X5658Y14572D01*
D01*
X5658D01*
Y14572D01*
X5878D01*
Y14422D01*
X5878D01*
Y14318D01*
X5878D01*
Y14299D01*
X5888D01*
X5910Y14295D01*
X5928Y14282D01*
X6078Y14133D01*
X6090Y14135D01*
X6095Y14147D01*
X6112Y14169D01*
X6134Y14186D01*
X6159Y14196D01*
X6159Y14199D01*
X6146Y14205D01*
X6124Y14221D01*
X6108Y14243D01*
X6097Y14268D01*
X6094Y14295D01*
X6097Y14322D01*
X6108Y14347D01*
X6124Y14369D01*
X6146Y14386D01*
X6171Y14396D01*
X6198Y14400D01*
X6225Y14396D01*
X6237Y14391D01*
X6247Y14399D01*
X6244Y14420D01*
X6247Y14447D01*
X6258Y14472D01*
X6274Y14494D01*
X6296Y14511D01*
X6321Y14521D01*
X6348Y14525D01*
X6375Y14521D01*
X6400Y14511D01*
X6422Y14494D01*
X6439Y14472D01*
X6449Y14447D01*
X6453Y14420D01*
X6449Y14393D01*
X6439Y14368D01*
X6422Y14346D01*
X6404Y14333D01*
Y14294D01*
X6436Y14262D01*
X6447Y14267D01*
Y14328D01*
X6511D01*
Y14515D01*
X6486Y14541D01*
X6486Y14541D01*
X6459Y14544D01*
X6434Y14555D01*
X6412Y14571D01*
X6395Y14593D01*
X6385Y14618D01*
X6381Y14645D01*
X6385Y14672D01*
X6395Y14697D01*
X6412Y14719D01*
X6434Y14736D01*
X6459Y14746D01*
X6486Y14750D01*
X6513Y14746D01*
X6538Y14736D01*
X6560Y14719D01*
X6576Y14697D01*
X6587Y14672D01*
X6590Y14645D01*
X6587Y14618D01*
X6581Y14604D01*
X6607Y14578D01*
X6619Y14560D01*
X6624Y14538D01*
Y14328D01*
X6657D01*
Y14528D01*
X6661D01*
Y14558D01*
X6644Y14571D01*
X6627Y14593D01*
X6617Y14618D01*
X6613Y14645D01*
X6617Y14672D01*
X6627Y14697D01*
X6644Y14719D01*
X6646Y14721D01*
Y14900D01*
X6796D01*
Y14713D01*
X6808Y14697D01*
X6818Y14672D01*
X6822Y14645D01*
X6818Y14618D01*
X6808Y14593D01*
X6791Y14571D01*
X6774Y14558D01*
Y14528D01*
X7185D01*
Y14408D01*
Y14288D01*
X6687D01*
Y14208D01*
Y14128D01*
Y14048D01*
Y13968D01*
Y13888D01*
Y13808D01*
Y13728D01*
Y13668D01*
X7307D01*
Y13728D01*
Y13808D01*
Y13888D01*
Y13968D01*
Y14048D01*
Y14128D01*
Y14208D01*
Y14288D01*
X7210D01*
Y14391D01*
X7207Y14398D01*
X7206Y14408D01*
D01*
X7205Y14415D01*
Y14528D01*
X7205D01*
Y14690D01*
X7186D01*
Y14730D01*
X6986D01*
Y14690D01*
X6836D01*
Y14900D01*
X6845D01*
Y14968D01*
X6784Y15030D01*
X6613D01*
X6114Y14531D01*
X6115Y14520D01*
X6112Y14493D01*
X6101Y14468D01*
X6085Y14446D01*
X6063Y14430D01*
X6038Y14419D01*
X6011Y14416D01*
X5984Y14419D01*
X5959Y14430D01*
X5937Y14446D01*
X5920Y14468D01*
X5910Y14493D01*
X5906Y14520D01*
X5910Y14547D01*
X5920Y14572D01*
X5937Y14594D01*
X5959Y14611D01*
X5984Y14621D01*
X6011Y14625D01*
X6021Y14623D01*
X6539Y15142D01*
X6553Y15152D01*
X6562Y15156D01*
X6569Y15159D01*
X6586Y15161D01*
D02*
G37*
G36*
X12321Y13808D02*
X12448D01*
Y13681D01*
X12424Y13684D01*
X12390Y13698D01*
X12361Y13720D01*
X12338Y13750D01*
X12324Y13784D01*
X12321Y13808D01*
D02*
G37*
G36*
X12748D02*
X12875D01*
X12872Y13784D01*
X12858Y13750D01*
X12836Y13720D01*
X12806Y13698D01*
X12772Y13684D01*
X12748Y13681D01*
Y13808D01*
D02*
G37*
G36*
X13896D02*
X14023D01*
Y13681D01*
X13999Y13684D01*
X13965Y13698D01*
X13936Y13720D01*
X13913Y13750D01*
X13899Y13784D01*
X13896Y13808D01*
D02*
G37*
G36*
X14836Y13796D02*
X14868Y13792D01*
X14899Y13779D01*
X14925Y13759D01*
X14945Y13733D01*
X14954Y13710D01*
X14967D01*
X14977Y13733D01*
X14997Y13759D01*
X15023Y13779D01*
X15053Y13792D01*
X15086Y13796D01*
X15118Y13792D01*
X15149Y13779D01*
X15175Y13759D01*
X15195Y13733D01*
X15198Y13726D01*
X15286D01*
Y13775D01*
X15436D01*
Y13565D01*
X15286D01*
Y13614D01*
X15198D01*
X15195Y13607D01*
X15175Y13581D01*
X15149Y13561D01*
X15118Y13549D01*
X15086Y13544D01*
X15053Y13549D01*
X15023Y13561D01*
X14997Y13581D01*
X14977Y13607D01*
X14967Y13630D01*
X14954D01*
X14945Y13607D01*
X14925Y13581D01*
X14899Y13561D01*
X14868Y13549D01*
X14836Y13544D01*
X14803Y13549D01*
X14773Y13561D01*
X14747Y13581D01*
X14727Y13607D01*
X14714Y13638D01*
X14710Y13670D01*
X14714Y13703D01*
X14727Y13733D01*
X14747Y13759D01*
X14773Y13779D01*
X14803Y13792D01*
X14836Y13796D01*
D02*
G37*
G36*
X11021Y13808D02*
X11148D01*
Y13681D01*
X11124Y13684D01*
X11090Y13698D01*
X11061Y13720D01*
X11038Y13750D01*
X11024Y13784D01*
X11021Y13808D01*
D02*
G37*
G36*
X11173D02*
X11300D01*
X11297Y13784D01*
X11283Y13750D01*
X11261Y13720D01*
X11231Y13698D01*
X11197Y13684D01*
X11173Y13681D01*
Y13808D01*
D02*
G37*
G36*
X14048D02*
X14175D01*
X14172Y13784D01*
X14158Y13750D01*
X14136Y13720D01*
X14106Y13698D01*
X14072Y13684D01*
X14048Y13681D01*
Y13808D01*
D02*
G37*
G36*
X7848Y13595D02*
X7941D01*
Y13533D01*
X7848D01*
Y13595D01*
D02*
G37*
G36*
X5931Y13533D02*
X6023D01*
Y13460D01*
X5931D01*
Y13533D01*
D02*
G37*
G36*
X6048D02*
X6141D01*
Y13460D01*
X6048D01*
Y13533D01*
D02*
G37*
G36*
X5931Y13630D02*
X6023D01*
Y13558D01*
X5931D01*
Y13630D01*
D02*
G37*
G36*
X6048D02*
X6141D01*
Y13558D01*
X6048D01*
Y13630D01*
D02*
G37*
G36*
X7731Y13595D02*
X7823D01*
Y13533D01*
X7731D01*
Y13595D01*
D02*
G37*
G36*
X12278Y15136D02*
X12308Y15132D01*
X12336Y15121D01*
X12360Y15102D01*
X12378Y15078D01*
X12390Y15050D01*
X12394Y15020D01*
X12390Y14990D01*
X12378Y14962D01*
X12360Y14938D01*
X12336Y14920D01*
X12334Y14919D01*
Y14058D01*
X12352Y14044D01*
X12368Y14022D01*
X12379Y13997D01*
X12382Y13970D01*
X12380Y13956D01*
X12390Y13943D01*
X12424Y13957D01*
X12448Y13960D01*
Y13833D01*
X12321D01*
X12324Y13857D01*
X12328Y13866D01*
X12317Y13873D01*
X12299Y13860D01*
X12278Y13856D01*
X12256Y13860D01*
X12238Y13873D01*
X12236Y13875D01*
X12226Y13880D01*
X12204Y13896D01*
X12187Y13918D01*
X12177Y13943D01*
X12173Y13970D01*
X12177Y13997D01*
X12187Y14022D01*
X12204Y14044D01*
X12222Y14058D01*
Y14919D01*
X12220Y14920D01*
X12196Y14938D01*
X12177Y14962D01*
X12166Y14990D01*
X12162Y15020D01*
X12166Y15050D01*
X12177Y15078D01*
X12196Y15102D01*
X12220Y15121D01*
X12248Y15132D01*
X12278Y15136D01*
D02*
G37*
G36*
X12473Y13960D02*
X12497Y13957D01*
X12531Y13943D01*
X12561Y13920D01*
X12583Y13891D01*
X12592Y13870D01*
X12605D01*
X12613Y13891D01*
X12636Y13920D01*
X12665Y13943D01*
X12699Y13957D01*
X12723Y13960D01*
Y13820D01*
Y13681D01*
X12699Y13684D01*
X12665Y13698D01*
X12636Y13720D01*
X12613Y13750D01*
X12605Y13771D01*
X12592D01*
X12583Y13750D01*
X12561Y13720D01*
X12531Y13698D01*
X12497Y13684D01*
X12473Y13681D01*
Y13820D01*
Y13960D01*
D02*
G37*
G36*
X11148D02*
Y13833D01*
X11021D01*
X11024Y13857D01*
X11038Y13891D01*
X11061Y13920D01*
X11090Y13943D01*
X11124Y13957D01*
X11148Y13960D01*
D02*
G37*
G36*
X12532Y15136D02*
X12562Y15132D01*
X12590Y15121D01*
X12614Y15102D01*
X12632Y15078D01*
X12644Y15050D01*
X12648Y15020D01*
X12644Y14990D01*
X12632Y14962D01*
X12614Y14938D01*
X12590Y14920D01*
X12588Y14919D01*
Y14398D01*
X13036Y13950D01*
X13036Y13950D01*
X13063Y13946D01*
X13088Y13936D01*
X13110Y13919D01*
X13126Y13897D01*
X13137Y13872D01*
X13140Y13845D01*
X13137Y13818D01*
X13126Y13793D01*
X13110Y13771D01*
X13088Y13755D01*
X13063Y13744D01*
X13036Y13741D01*
X13009Y13744D01*
X12984Y13755D01*
X12962Y13771D01*
X12945Y13793D01*
X12935Y13818D01*
X12931Y13845D01*
X12935Y13872D01*
X12941Y13886D01*
X12492Y14335D01*
X12492Y14335D01*
X12492Y14335D01*
X12480Y14353D01*
X12476Y14374D01*
Y14919D01*
X12474Y14920D01*
X12450Y14938D01*
X12431Y14962D01*
X12420Y14990D01*
X12416Y15020D01*
X12420Y15050D01*
X12431Y15078D01*
X12450Y15102D01*
X12474Y15121D01*
X12502Y15132D01*
X12532Y15136D01*
D02*
G37*
G36*
X13871Y15135D02*
X14101D01*
Y14905D01*
X14051D01*
Y14475D01*
X14060Y14469D01*
X14076Y14447D01*
X14077Y14446D01*
X15401D01*
X15418Y14444D01*
X15433Y14437D01*
X15447Y14427D01*
X15598Y14275D01*
X15626D01*
Y14225D01*
X15626Y14220D01*
X15626Y14216D01*
Y14065D01*
X15616D01*
Y13775D01*
X15626D01*
Y13565D01*
X15616D01*
Y13275D01*
X15626D01*
Y13065D01*
X15476D01*
Y13275D01*
X15485D01*
Y13565D01*
X15476D01*
Y13775D01*
X15485D01*
Y14065D01*
X15476D01*
Y14213D01*
X15447Y14241D01*
X15436Y14236D01*
Y14065D01*
X15286D01*
Y14114D01*
X15198D01*
X15195Y14107D01*
X15175Y14081D01*
X15149Y14061D01*
X15118Y14049D01*
X15086Y14044D01*
X15053Y14049D01*
X15023Y14061D01*
X14997Y14081D01*
X14977Y14107D01*
X14967Y14130D01*
X14954D01*
X14945Y14107D01*
X14925Y14081D01*
X14899Y14061D01*
X14868Y14049D01*
X14836Y14044D01*
X14803Y14049D01*
X14773Y14061D01*
X14747Y14081D01*
X14727Y14107D01*
X14714Y14138D01*
X14710Y14170D01*
X14714Y14203D01*
X14727Y14233D01*
X14747Y14259D01*
X14773Y14279D01*
X14803Y14292D01*
X14836Y14296D01*
X14868Y14292D01*
X14899Y14279D01*
X14925Y14259D01*
X14945Y14233D01*
X14954Y14210D01*
X14967D01*
X14977Y14233D01*
X14997Y14259D01*
X15023Y14279D01*
X15053Y14292D01*
X15086Y14296D01*
X15118Y14292D01*
X15149Y14279D01*
X15175Y14259D01*
X15195Y14233D01*
X15198Y14226D01*
X15286D01*
Y14275D01*
X15396D01*
X15401Y14287D01*
X15374Y14315D01*
X14051D01*
X14038Y14305D01*
X14013Y14294D01*
X13986Y14291D01*
X13959Y14294D01*
X13934Y14305D01*
X13912Y14321D01*
X13895Y14343D01*
X13885Y14368D01*
X13881Y14395D01*
X13885Y14422D01*
X13895Y14447D01*
X13912Y14469D01*
X13920Y14475D01*
Y14905D01*
X13871D01*
Y15135D01*
D02*
G37*
G36*
X5138Y14572D02*
X5358D01*
Y14422D01*
Y14295D01*
Y14168D01*
Y14064D01*
X5358D01*
Y13914D01*
X5358D01*
Y13810D01*
Y13791D01*
X5421D01*
X5443Y13787D01*
X5461Y13774D01*
X5598Y13637D01*
X5610Y13619D01*
X5614Y13598D01*
Y13463D01*
X5643D01*
Y13253D01*
X5473D01*
Y13463D01*
X5502D01*
Y13575D01*
X5398Y13679D01*
X5358D01*
Y13660D01*
Y13533D01*
X5138D01*
Y13552D01*
X5053D01*
Y13523D01*
X4843D01*
Y13693D01*
X5053D01*
Y13664D01*
X5138D01*
Y13787D01*
Y13806D01*
X5053D01*
Y13713D01*
X4843D01*
Y13883D01*
X4954D01*
X4973Y13901D01*
X4991Y13914D01*
X5012Y13918D01*
X5138D01*
Y13933D01*
X4992D01*
X4971Y13937D01*
X4955Y13948D01*
X4843D01*
Y14118D01*
X5053D01*
Y14045D01*
X5138D01*
Y14068D01*
X5126Y14076D01*
X5126Y14076D01*
X5126Y14076D01*
X5061Y14141D01*
X5053Y14138D01*
Y14138D01*
X5053Y14138D01*
X4843D01*
Y14308D01*
X5002D01*
X5007Y14320D01*
X4954Y14373D01*
X4843D01*
Y14543D01*
X5053D01*
Y14432D01*
X5126Y14359D01*
X5138Y14364D01*
Y14422D01*
Y14572D01*
D02*
G37*
G36*
X11173Y13960D02*
X11197Y13957D01*
X11231Y13943D01*
X11261Y13920D01*
X11283Y13891D01*
X11297Y13857D01*
X11300Y13833D01*
X11173D01*
Y13960D01*
D02*
G37*
G36*
X12671Y15135D02*
X12901D01*
Y14985D01*
X13300Y14585D01*
X13313Y14567D01*
X13317Y14545D01*
Y13933D01*
X13335Y13919D01*
X13351Y13897D01*
X13362Y13872D01*
X13365Y13845D01*
X13362Y13818D01*
X13351Y13793D01*
X13335Y13771D01*
X13313Y13755D01*
X13288Y13744D01*
X13261Y13741D01*
X13234Y13744D01*
X13209Y13755D01*
X13187Y13771D01*
X13170Y13793D01*
X13160Y13818D01*
X13156Y13845D01*
X13160Y13872D01*
X13170Y13897D01*
X13187Y13919D01*
X13205Y13933D01*
Y14522D01*
X12821Y14905D01*
X12671D01*
Y15135D01*
D02*
G37*
G36*
X12024Y15136D02*
X12054Y15132D01*
X12082Y15121D01*
X12106Y15102D01*
X12124Y15078D01*
X12136Y15050D01*
X12140Y15020D01*
X12136Y14990D01*
X12124Y14962D01*
X12106Y14938D01*
X12082Y14920D01*
X12080Y14919D01*
Y13921D01*
X12098Y13907D01*
X12114Y13885D01*
X12125Y13860D01*
X12128Y13833D01*
X12125Y13806D01*
X12114Y13781D01*
X12098Y13759D01*
X12076Y13743D01*
X12051Y13732D01*
X12024Y13729D01*
X11997Y13732D01*
X11972Y13743D01*
X11950Y13759D01*
X11933Y13781D01*
X11923Y13806D01*
X11919Y13833D01*
X11923Y13860D01*
X11933Y13885D01*
X11950Y13907D01*
X11968Y13921D01*
Y14919D01*
X11966Y14920D01*
X11942Y14938D01*
X11923Y14962D01*
X11912Y14990D01*
X11908Y15020D01*
X11912Y15050D01*
X11923Y15078D01*
X11942Y15102D01*
X11966Y15121D01*
X11994Y15132D01*
X12024Y15136D01*
D02*
G37*
G36*
X11770D02*
X11800Y15132D01*
X11828Y15121D01*
X11852Y15102D01*
X11870Y15078D01*
X11882Y15050D01*
X11886Y15020D01*
X11882Y14990D01*
X11870Y14962D01*
X11852Y14938D01*
X11828Y14920D01*
X11826Y14919D01*
Y13901D01*
X11835Y13894D01*
X11851Y13872D01*
X11862Y13847D01*
X11865Y13820D01*
X11862Y13793D01*
X11851Y13768D01*
X11835Y13746D01*
X11813Y13730D01*
X11788Y13719D01*
X11761Y13716D01*
X11734Y13719D01*
X11709Y13730D01*
X11687Y13746D01*
X11670Y13768D01*
X11660Y13793D01*
X11656Y13820D01*
X11660Y13847D01*
X11670Y13872D01*
X11687Y13894D01*
X11709Y13911D01*
X11714Y13913D01*
Y14919D01*
X11712Y14920D01*
X11688Y14938D01*
X11669Y14962D01*
X11658Y14990D01*
X11654Y15020D01*
X11658Y15050D01*
X11669Y15078D01*
X11688Y15102D01*
X11712Y15121D01*
X11740Y15132D01*
X11770Y15136D01*
D02*
G37*
G36*
X12748Y13960D02*
X12772Y13957D01*
X12806Y13943D01*
X12836Y13920D01*
X12858Y13891D01*
X12872Y13857D01*
X12875Y13833D01*
X12748D01*
Y13960D01*
D02*
G37*
G36*
X14023D02*
Y13833D01*
X13896D01*
X13899Y13857D01*
X13913Y13891D01*
X13936Y13920D01*
X13965Y13943D01*
X13999Y13957D01*
X14023Y13960D01*
D02*
G37*
G36*
X14048D02*
X14072Y13957D01*
X14106Y13943D01*
X14136Y13920D01*
X14158Y13891D01*
X14172Y13857D01*
X14175Y13833D01*
X14048D01*
Y13960D01*
D02*
G37*
%LPD*%
G36*
X3117Y16726D02*
X17005D01*
Y22114D01*
X3117D01*
Y16726D01*
D02*
G37*
%LPC*%
G36*
X6380Y19072D02*
Y18969D01*
X6277D01*
X6279Y18987D01*
X6291Y19015D01*
X6310Y19039D01*
X6334Y19058D01*
X6362Y19070D01*
X6380Y19072D01*
D02*
G37*
G36*
X6405D02*
X6423Y19070D01*
X6451Y19058D01*
X6476Y19039D01*
X6494Y19015D01*
X6506Y18987D01*
X6508Y18969D01*
X6405D01*
Y19072D01*
D02*
G37*
G36*
X6277Y18944D02*
X6380D01*
Y18841D01*
X6362Y18843D01*
X6334Y18855D01*
X6310Y18873D01*
X6291Y18898D01*
X6279Y18926D01*
X6277Y18944D01*
D02*
G37*
G36*
X16021Y19658D02*
X16248D01*
Y19430D01*
X16214Y19434D01*
X16168Y19447D01*
X16127Y19470D01*
X16090Y19500D01*
X16060Y19536D01*
X16038Y19578D01*
X16024Y19623D01*
X16021Y19658D01*
D02*
G37*
G36*
X16273D02*
X16501D01*
X16497Y19623D01*
X16484Y19578D01*
X16461Y19536D01*
X16431Y19500D01*
X16395Y19470D01*
X16353Y19447D01*
X16308Y19434D01*
X16273Y19430D01*
Y19658D01*
D02*
G37*
G36*
X5658Y20222D02*
X5878D01*
Y20160D01*
Y20033D01*
X5834D01*
Y19943D01*
X6013D01*
X6030Y19941D01*
X6032Y19940D01*
X6141D01*
Y19770D01*
X5931D01*
Y19812D01*
X5901D01*
Y19725D01*
X5910Y19719D01*
X5926Y19697D01*
X5937Y19672D01*
X5940Y19645D01*
X5937Y19618D01*
X5926Y19593D01*
X5910Y19571D01*
X5901Y19565D01*
Y18897D01*
X6000Y18798D01*
X6396D01*
X6430Y18833D01*
X6423Y18843D01*
X6423Y18843D01*
X6405Y18841D01*
Y18944D01*
X6508D01*
X6506Y18926D01*
X6506Y18926D01*
X6516Y18919D01*
X6532Y18935D01*
X6529Y18956D01*
X6533Y18987D01*
X6545Y19015D01*
X6564Y19039D01*
X6588Y19058D01*
X6616Y19070D01*
X6647Y19074D01*
X6677Y19070D01*
X6698Y19061D01*
X6705Y19071D01*
X6602Y19174D01*
X6566D01*
Y19155D01*
X6356D01*
Y19305D01*
X6566D01*
Y19286D01*
X6626D01*
X6647Y19282D01*
X6665Y19270D01*
X6719Y19216D01*
X6731Y19221D01*
Y19305D01*
X6941D01*
Y19250D01*
X7122Y19068D01*
X7124Y19070D01*
X7155Y19074D01*
X7185Y19070D01*
X7213Y19058D01*
X7238Y19039D01*
X7256Y19015D01*
X7268Y18987D01*
X7272Y18956D01*
X7268Y18926D01*
X7256Y18898D01*
X7238Y18873D01*
X7213Y18855D01*
X7185Y18843D01*
X7155Y18839D01*
X7124Y18843D01*
X7096Y18855D01*
X7072Y18873D01*
X7053Y18898D01*
X7041Y18926D01*
X7037Y18956D01*
X7041Y18987D01*
X7043Y18989D01*
X7015Y19017D01*
X7004Y19010D01*
X7014Y18987D01*
X7018Y18956D01*
X7014Y18926D01*
X7002Y18898D01*
X6984Y18873D01*
X6959Y18855D01*
X6931Y18843D01*
X6901Y18839D01*
X6870Y18843D01*
X6842Y18855D01*
X6818Y18873D01*
X6799Y18898D01*
X6787Y18926D01*
X6783Y18956D01*
X6787Y18987D01*
X6788Y18988D01*
X6762Y19015D01*
X6751Y19008D01*
X6760Y18987D01*
X6764Y18956D01*
X6760Y18926D01*
X6748Y18898D01*
X6730Y18873D01*
X6705Y18855D01*
X6677Y18843D01*
X6647Y18839D01*
X6625Y18842D01*
X6470Y18686D01*
X6456Y18676D01*
X6450Y18674D01*
X6440Y18669D01*
X6423Y18667D01*
X5973D01*
X5956Y18669D01*
X5950Y18672D01*
X5940Y18676D01*
X5927Y18686D01*
X5789Y18824D01*
X5779Y18838D01*
X5776Y18845D01*
X5772Y18853D01*
X5770Y18870D01*
Y19565D01*
X5762Y19571D01*
X5745Y19593D01*
X5735Y19618D01*
X5731Y19645D01*
X5735Y19672D01*
X5745Y19697D01*
X5762Y19719D01*
X5770Y19725D01*
Y19753D01*
X5663D01*
Y19963D01*
X5703D01*
Y20033D01*
X5658D01*
Y20160D01*
Y20222D01*
D02*
G37*
G36*
X7481Y19305D02*
X7691D01*
Y19155D01*
X7667D01*
Y19073D01*
X7779D01*
Y18840D01*
X7546D01*
Y19073D01*
X7555D01*
Y19155D01*
X7481D01*
Y19305D01*
D02*
G37*
G36*
X14073Y18535D02*
X14097Y18532D01*
X14131Y18518D01*
X14161Y18495D01*
X14183Y18466D01*
X14192Y18445D01*
X14205D01*
X14213Y18466D01*
X14236Y18495D01*
X14265Y18518D01*
X14299Y18532D01*
X14323Y18535D01*
Y18395D01*
Y18256D01*
X14299Y18259D01*
X14265Y18273D01*
X14236Y18295D01*
X14213Y18325D01*
X14205Y18346D01*
X14192D01*
X14183Y18325D01*
X14161Y18295D01*
X14131Y18273D01*
X14097Y18259D01*
X14073Y18256D01*
Y18395D01*
Y18535D01*
D02*
G37*
G36*
X11173D02*
Y18408D01*
X11046D01*
X11049Y18432D01*
X11063Y18466D01*
X11086Y18495D01*
X11115Y18518D01*
X11149Y18532D01*
X11173Y18535D01*
D02*
G37*
G36*
X11198D02*
X11222Y18532D01*
X11256Y18518D01*
X11286Y18495D01*
X11308Y18466D01*
X11322Y18432D01*
X11325Y18408D01*
X11198D01*
Y18535D01*
D02*
G37*
G36*
X5981Y19305D02*
X6191D01*
Y19155D01*
X6142D01*
Y19073D01*
X6169Y19070D01*
X6197Y19058D01*
X6222Y19039D01*
X6240Y19015D01*
X6252Y18987D01*
X6256Y18956D01*
X6252Y18926D01*
X6240Y18898D01*
X6222Y18873D01*
X6197Y18855D01*
X6169Y18843D01*
X6139Y18839D01*
X6108Y18843D01*
X6080Y18855D01*
X6056Y18873D01*
X6037Y18898D01*
X6025Y18926D01*
X6021Y18956D01*
X6025Y18987D01*
X6031Y19001D01*
X6030Y19009D01*
Y19155D01*
X5981D01*
Y19305D01*
D02*
G37*
G36*
X7106D02*
X7316D01*
Y19205D01*
X7448Y19072D01*
X7454Y19063D01*
X7467Y19058D01*
X7492Y19039D01*
X7510Y19015D01*
X7522Y18987D01*
X7526Y18956D01*
X7522Y18926D01*
X7510Y18898D01*
X7492Y18873D01*
X7467Y18855D01*
X7439Y18843D01*
X7409Y18839D01*
X7378Y18843D01*
X7350Y18855D01*
X7326Y18873D01*
X7307Y18898D01*
X7295Y18926D01*
X7291Y18956D01*
X7295Y18987D01*
X7307Y19015D01*
X7324Y19037D01*
X7206Y19155D01*
X7106D01*
Y19305D01*
D02*
G37*
G36*
X12498Y18535D02*
X12522Y18532D01*
X12556Y18518D01*
X12586Y18495D01*
X12608Y18466D01*
X12617Y18445D01*
X12630D01*
X12638Y18466D01*
X12661Y18495D01*
X12690Y18518D01*
X12724Y18532D01*
X12748Y18535D01*
Y18395D01*
Y18256D01*
X12724Y18259D01*
X12690Y18273D01*
X12661Y18295D01*
X12638Y18325D01*
X12630Y18346D01*
X12617D01*
X12608Y18325D01*
X12586Y18295D01*
X12556Y18273D01*
X12522Y18259D01*
X12498Y18256D01*
Y18395D01*
Y18535D01*
D02*
G37*
G36*
X3848Y19910D02*
Y19683D01*
X3621D01*
X3624Y19717D01*
X3638Y19763D01*
X3660Y19804D01*
X3690Y19841D01*
X3727Y19871D01*
X3768Y19893D01*
X3814Y19907D01*
X3848Y19910D01*
D02*
G37*
G36*
X3873D02*
X3908Y19907D01*
X3953Y19893D01*
X3995Y19871D01*
X4031Y19841D01*
X4061Y19804D01*
X4084Y19763D01*
X4097Y19717D01*
X4101Y19683D01*
X3873D01*
Y19910D01*
D02*
G37*
G36*
X10048D02*
Y19683D01*
X9821D01*
X9824Y19717D01*
X9838Y19763D01*
X9860Y19804D01*
X9890Y19841D01*
X9927Y19871D01*
X9968Y19893D01*
X10014Y19907D01*
X10048Y19910D01*
D02*
G37*
G36*
X7731Y20008D02*
X7823D01*
Y19945D01*
X7731D01*
Y20008D01*
D02*
G37*
G36*
X7848D02*
X7941D01*
Y19945D01*
X7848D01*
Y20008D01*
D02*
G37*
G36*
X14836Y19796D02*
X14868Y19792D01*
X14899Y19779D01*
X14925Y19759D01*
X14945Y19733D01*
X14954Y19710D01*
X14967D01*
X14977Y19733D01*
X14997Y19759D01*
X15023Y19779D01*
X15053Y19792D01*
X15086Y19796D01*
X15118Y19792D01*
X15149Y19779D01*
X15175Y19759D01*
X15195Y19733D01*
X15198Y19726D01*
X15286D01*
Y19775D01*
X15436D01*
Y19565D01*
X15286D01*
Y19614D01*
X15198D01*
X15195Y19607D01*
X15175Y19581D01*
X15149Y19561D01*
X15118Y19549D01*
X15086Y19544D01*
X15053Y19549D01*
X15023Y19561D01*
X14997Y19581D01*
X14977Y19607D01*
X14967Y19630D01*
X14954D01*
X14945Y19607D01*
X14925Y19581D01*
X14899Y19561D01*
X14868Y19549D01*
X14836Y19544D01*
X14803Y19549D01*
X14773Y19561D01*
X14747Y19581D01*
X14727Y19607D01*
X14714Y19638D01*
X14710Y19670D01*
X14714Y19703D01*
X14727Y19733D01*
X14747Y19759D01*
X14773Y19779D01*
X14803Y19792D01*
X14836Y19796D01*
D02*
G37*
G36*
X10073Y19910D02*
X10108Y19907D01*
X10153Y19893D01*
X10195Y19871D01*
X10231Y19841D01*
X10261Y19804D01*
X10284Y19763D01*
X10297Y19717D01*
X10301Y19683D01*
X10073D01*
Y19910D01*
D02*
G37*
G36*
X3873Y19658D02*
X4101D01*
X4097Y19623D01*
X4084Y19578D01*
X4061Y19536D01*
X4031Y19500D01*
X3995Y19470D01*
X3953Y19447D01*
X3908Y19434D01*
X3873Y19430D01*
Y19658D01*
D02*
G37*
G36*
X9821D02*
X10048D01*
Y19430D01*
X10014Y19434D01*
X9968Y19447D01*
X9927Y19470D01*
X9890Y19500D01*
X9860Y19536D01*
X9838Y19578D01*
X9824Y19623D01*
X9821Y19658D01*
D02*
G37*
G36*
X10073D02*
X10301D01*
X10297Y19623D01*
X10284Y19578D01*
X10261Y19536D01*
X10231Y19500D01*
X10195Y19470D01*
X10153Y19447D01*
X10108Y19434D01*
X10073Y19430D01*
Y19658D01*
D02*
G37*
G36*
X16248Y19910D02*
Y19683D01*
X16021D01*
X16024Y19717D01*
X16038Y19763D01*
X16060Y19804D01*
X16090Y19841D01*
X16127Y19871D01*
X16168Y19893D01*
X16214Y19907D01*
X16248Y19910D01*
D02*
G37*
G36*
X16273D02*
X16308Y19907D01*
X16353Y19893D01*
X16395Y19871D01*
X16431Y19841D01*
X16461Y19804D01*
X16484Y19763D01*
X16497Y19717D01*
X16501Y19683D01*
X16273D01*
Y19910D01*
D02*
G37*
G36*
X3621Y19658D02*
X3848D01*
Y19430D01*
X3814Y19434D01*
X3768Y19447D01*
X3727Y19470D01*
X3690Y19500D01*
X3660Y19536D01*
X3638Y19578D01*
X3624Y19623D01*
X3621Y19658D01*
D02*
G37*
G36*
X10048Y17710D02*
Y17483D01*
X9821D01*
X9824Y17517D01*
X9838Y17563D01*
X9860Y17604D01*
X9890Y17641D01*
X9927Y17671D01*
X9968Y17693D01*
X10014Y17707D01*
X10048Y17710D01*
D02*
G37*
G36*
X10073D02*
X10108Y17707D01*
X10153Y17693D01*
X10195Y17671D01*
X10231Y17641D01*
X10261Y17604D01*
X10284Y17563D01*
X10297Y17517D01*
X10301Y17483D01*
X10073D01*
Y17710D01*
D02*
G37*
G36*
X16248D02*
Y17483D01*
X16021D01*
X16024Y17517D01*
X16038Y17563D01*
X16060Y17604D01*
X16090Y17641D01*
X16127Y17671D01*
X16168Y17693D01*
X16214Y17707D01*
X16248Y17710D01*
D02*
G37*
G36*
X15648Y18383D02*
X15775D01*
X15772Y18359D01*
X15758Y18325D01*
X15736Y18295D01*
X15706Y18273D01*
X15672Y18259D01*
X15648Y18256D01*
Y18383D01*
D02*
G37*
G36*
X3848Y17710D02*
Y17483D01*
X3621D01*
X3624Y17517D01*
X3638Y17563D01*
X3660Y17604D01*
X3690Y17641D01*
X3727Y17671D01*
X3768Y17693D01*
X3814Y17707D01*
X3848Y17710D01*
D02*
G37*
G36*
X3873D02*
X3908Y17707D01*
X3953Y17693D01*
X3995Y17671D01*
X4031Y17641D01*
X4061Y17604D01*
X4084Y17563D01*
X4097Y17517D01*
X4101Y17483D01*
X3873D01*
Y17710D01*
D02*
G37*
G36*
X16273D02*
X16308Y17707D01*
X16353Y17693D01*
X16395Y17671D01*
X16431Y17641D01*
X16461Y17604D01*
X16484Y17563D01*
X16497Y17517D01*
X16501Y17483D01*
X16273D01*
Y17710D01*
D02*
G37*
G36*
X10073Y17458D02*
X10301D01*
X10297Y17423D01*
X10284Y17378D01*
X10261Y17336D01*
X10231Y17300D01*
X10195Y17270D01*
X10153Y17247D01*
X10108Y17234D01*
X10073Y17230D01*
Y17458D01*
D02*
G37*
G36*
X16021D02*
X16248D01*
Y17230D01*
X16214Y17234D01*
X16168Y17247D01*
X16127Y17270D01*
X16090Y17300D01*
X16060Y17336D01*
X16038Y17378D01*
X16024Y17423D01*
X16021Y17458D01*
D02*
G37*
G36*
X16273D02*
X16501D01*
X16497Y17423D01*
X16484Y17378D01*
X16461Y17336D01*
X16431Y17300D01*
X16395Y17270D01*
X16353Y17247D01*
X16308Y17234D01*
X16273Y17230D01*
Y17458D01*
D02*
G37*
G36*
X3621D02*
X3848D01*
Y17230D01*
X3814Y17234D01*
X3768Y17247D01*
X3727Y17270D01*
X3690Y17300D01*
X3660Y17336D01*
X3638Y17378D01*
X3624Y17423D01*
X3621Y17458D01*
D02*
G37*
G36*
X3873D02*
X4101D01*
X4097Y17423D01*
X4084Y17378D01*
X4061Y17336D01*
X4031Y17300D01*
X3995Y17270D01*
X3953Y17247D01*
X3908Y17234D01*
X3873Y17230D01*
Y17458D01*
D02*
G37*
G36*
X9821D02*
X10048D01*
Y17230D01*
X10014Y17234D01*
X9968Y17247D01*
X9927Y17270D01*
X9890Y17300D01*
X9860Y17336D01*
X9838Y17378D01*
X9824Y17423D01*
X9821Y17458D01*
D02*
G37*
G36*
X14348Y18535D02*
X14372Y18532D01*
X14406Y18518D01*
X14436Y18495D01*
X14458Y18466D01*
X14472Y18432D01*
X14475Y18408D01*
X14348D01*
Y18535D01*
D02*
G37*
G36*
X15623D02*
Y18408D01*
X15496D01*
X15499Y18432D01*
X15513Y18466D01*
X15536Y18495D01*
X15565Y18518D01*
X15599Y18532D01*
X15623Y18535D01*
D02*
G37*
G36*
X15648D02*
X15672Y18532D01*
X15706Y18518D01*
X15736Y18495D01*
X15758Y18466D01*
X15772Y18432D01*
X15775Y18408D01*
X15648D01*
Y18535D01*
D02*
G37*
G36*
X12473D02*
Y18408D01*
X12346D01*
X12349Y18432D01*
X12363Y18466D01*
X12386Y18495D01*
X12415Y18518D01*
X12449Y18532D01*
X12473Y18535D01*
D02*
G37*
G36*
X12773D02*
X12797Y18532D01*
X12831Y18518D01*
X12861Y18495D01*
X12883Y18466D01*
X12897Y18432D01*
X12900Y18408D01*
X12773D01*
Y18535D01*
D02*
G37*
G36*
X14048D02*
Y18408D01*
X13921D01*
X13924Y18432D01*
X13938Y18466D01*
X13961Y18495D01*
X13990Y18518D01*
X14024Y18532D01*
X14048Y18535D01*
D02*
G37*
G36*
X11046Y18383D02*
X11173D01*
Y18256D01*
X11149Y18259D01*
X11115Y18273D01*
X11086Y18295D01*
X11063Y18325D01*
X11049Y18359D01*
X11046Y18383D01*
D02*
G37*
G36*
X13921D02*
X14048D01*
Y18256D01*
X14024Y18259D01*
X13990Y18273D01*
X13961Y18295D01*
X13938Y18325D01*
X13924Y18359D01*
X13921Y18383D01*
D02*
G37*
G36*
X14348D02*
X14475D01*
X14472Y18359D01*
X14458Y18325D01*
X14436Y18295D01*
X14406Y18273D01*
X14372Y18259D01*
X14348Y18256D01*
Y18383D01*
D02*
G37*
G36*
X15496D02*
X15623D01*
Y18256D01*
X15599Y18259D01*
X15565Y18273D01*
X15536Y18295D01*
X15513Y18325D01*
X15499Y18359D01*
X15496Y18383D01*
D02*
G37*
G36*
X11198D02*
X11325D01*
X11322Y18359D01*
X11308Y18325D01*
X11286Y18295D01*
X11256Y18273D01*
X11222Y18259D01*
X11198Y18256D01*
Y18383D01*
D02*
G37*
G36*
X12346D02*
X12473D01*
Y18256D01*
X12449Y18259D01*
X12415Y18273D01*
X12386Y18295D01*
X12363Y18325D01*
X12349Y18359D01*
X12346Y18383D01*
D02*
G37*
G36*
X12773D02*
X12900D01*
X12897Y18359D01*
X12883Y18325D01*
X12861Y18295D01*
X12831Y18273D01*
X12797Y18259D01*
X12773Y18256D01*
Y18383D01*
D02*
G37*
G36*
X13732Y21636D02*
X13762Y21632D01*
X13790Y21621D01*
X13814Y21602D01*
X13832Y21578D01*
X13844Y21550D01*
X13848Y21520D01*
X13844Y21490D01*
X13832Y21462D01*
X13814Y21438D01*
X13790Y21420D01*
X13762Y21408D01*
X13732Y21404D01*
X13702Y21408D01*
X13674Y21420D01*
X13650Y21438D01*
X13631Y21462D01*
X13620Y21490D01*
X13616Y21520D01*
X13620Y21550D01*
X13631Y21578D01*
X13650Y21602D01*
X13674Y21621D01*
X13702Y21632D01*
X13732Y21636D01*
D02*
G37*
G36*
X7376Y21400D02*
X7448D01*
Y21308D01*
X7376D01*
Y21400D01*
D02*
G37*
G36*
X7473D02*
X7546D01*
Y21308D01*
X7473D01*
Y21400D01*
D02*
G37*
G36*
X10407Y21636D02*
X10437Y21632D01*
X10465Y21621D01*
X10489Y21602D01*
X10507Y21578D01*
X10519Y21550D01*
X10523Y21520D01*
X10519Y21490D01*
X10507Y21462D01*
X10489Y21438D01*
X10465Y21420D01*
X10437Y21408D01*
X10407Y21404D01*
X10377Y21408D01*
X10349Y21420D01*
X10325Y21438D01*
X10306Y21462D01*
X10295Y21490D01*
X10291Y21520D01*
X10295Y21550D01*
X10306Y21578D01*
X10325Y21602D01*
X10349Y21621D01*
X10377Y21632D01*
X10407Y21636D01*
D02*
G37*
G36*
X11516D02*
X11546Y21632D01*
X11574Y21621D01*
X11598Y21602D01*
X11616Y21578D01*
X11628Y21550D01*
X11632Y21520D01*
X11628Y21490D01*
X11616Y21462D01*
X11598Y21438D01*
X11574Y21420D01*
X11546Y21408D01*
X11516Y21404D01*
X11486Y21408D01*
X11458Y21420D01*
X11434Y21438D01*
X11415Y21462D01*
X11404Y21490D01*
X11400Y21520D01*
X11404Y21550D01*
X11415Y21578D01*
X11434Y21602D01*
X11458Y21621D01*
X11486Y21632D01*
X11516Y21636D01*
D02*
G37*
G36*
X13224D02*
X13254Y21632D01*
X13282Y21621D01*
X13306Y21602D01*
X13324Y21578D01*
X13336Y21550D01*
X13340Y21520D01*
X13336Y21490D01*
X13324Y21462D01*
X13306Y21438D01*
X13282Y21420D01*
X13254Y21408D01*
X13224Y21404D01*
X13194Y21408D01*
X13166Y21420D01*
X13142Y21438D01*
X13123Y21462D01*
X13112Y21490D01*
X13108Y21520D01*
X13112Y21550D01*
X13123Y21578D01*
X13142Y21602D01*
X13166Y21621D01*
X13194Y21632D01*
X13224Y21636D01*
D02*
G37*
G36*
X7376Y21283D02*
X7448D01*
Y21190D01*
X7376D01*
Y21283D01*
D02*
G37*
G36*
X7786Y21700D02*
X7813Y21696D01*
X7838Y21686D01*
X7860Y21669D01*
X7876Y21647D01*
X7887Y21622D01*
X7890Y21595D01*
X7887Y21568D01*
X7876Y21543D01*
X7860Y21521D01*
X7851Y21515D01*
Y21255D01*
X7906D01*
Y21085D01*
X7666D01*
Y21255D01*
X7720D01*
Y21515D01*
X7712Y21521D01*
X7695Y21543D01*
X7685Y21568D01*
X7681Y21595D01*
X7685Y21622D01*
X7695Y21647D01*
X7712Y21669D01*
X7734Y21686D01*
X7759Y21696D01*
X7786Y21700D01*
D02*
G37*
G36*
X4843Y21135D02*
X4935D01*
Y21063D01*
X4843D01*
Y21135D01*
D02*
G37*
G36*
X4961D02*
X5053D01*
Y21063D01*
X4961D01*
Y21135D01*
D02*
G37*
G36*
X7473Y21283D02*
X7546D01*
Y21190D01*
X7473D01*
Y21283D01*
D02*
G37*
G36*
X4843Y21233D02*
X4935D01*
Y21160D01*
X4843D01*
Y21233D01*
D02*
G37*
G36*
X4961D02*
X5053D01*
Y21160D01*
X4961D01*
Y21233D01*
D02*
G37*
G36*
X11274Y21635D02*
X11292Y21632D01*
X11320Y21621D01*
X11344Y21602D01*
X11362Y21578D01*
X11374Y21550D01*
X11376Y21533D01*
X11274D01*
Y21635D01*
D02*
G37*
G36*
X13465D02*
Y21533D01*
X13363D01*
X13366Y21550D01*
X13377Y21578D01*
X13396Y21602D01*
X13420Y21621D01*
X13448Y21632D01*
X13465Y21635D01*
D02*
G37*
G36*
X13490D02*
X13508Y21632D01*
X13536Y21621D01*
X13560Y21602D01*
X13578Y21578D01*
X13590Y21550D01*
X13592Y21533D01*
X13490D01*
Y21635D01*
D02*
G37*
G36*
X10546Y21635D02*
X10648D01*
Y21533D01*
X10546D01*
Y21635D01*
D02*
G37*
G36*
X10673D02*
X10776D01*
Y21533D01*
X10673D01*
Y21635D01*
D02*
G37*
G36*
X11249Y21635D02*
Y21533D01*
X11147D01*
X11150Y21550D01*
X11161Y21578D01*
X11180Y21602D01*
X11204Y21621D01*
X11232Y21632D01*
X11249Y21635D01*
D02*
G37*
G36*
X11147Y21508D02*
X11249D01*
Y21406D01*
X11232Y21408D01*
X11204Y21420D01*
X11180Y21438D01*
X11161Y21462D01*
X11150Y21490D01*
X11147Y21508D01*
D02*
G37*
G36*
X10546D02*
X10648D01*
Y21405D01*
X10546D01*
Y21508D01*
D02*
G37*
G36*
X10673D02*
X10776D01*
Y21405D01*
X10673D01*
Y21508D01*
D02*
G37*
G36*
X10153Y21636D02*
X10183Y21632D01*
X10211Y21621D01*
X10235Y21602D01*
X10253Y21578D01*
X10265Y21550D01*
X10269Y21520D01*
X10265Y21490D01*
X10253Y21462D01*
X10235Y21438D01*
X10211Y21420D01*
X10183Y21408D01*
X10153Y21404D01*
X10123Y21408D01*
X10095Y21420D01*
X10071Y21438D01*
X10052Y21462D01*
X10041Y21490D01*
X10037Y21520D01*
X10041Y21550D01*
X10052Y21578D01*
X10071Y21602D01*
X10095Y21621D01*
X10123Y21632D01*
X10153Y21636D01*
D02*
G37*
G36*
X11274Y21508D02*
X11376D01*
X11374Y21490D01*
X11362Y21462D01*
X11344Y21438D01*
X11320Y21420D01*
X11292Y21408D01*
X11274Y21406D01*
Y21508D01*
D02*
G37*
G36*
X13363D02*
X13465D01*
Y21406D01*
X13448Y21408D01*
X13420Y21420D01*
X13396Y21438D01*
X13377Y21462D01*
X13366Y21490D01*
X13363Y21508D01*
D02*
G37*
G36*
X13490D02*
X13592D01*
X13590Y21490D01*
X13578Y21462D01*
X13560Y21438D01*
X13536Y21420D01*
X13508Y21408D01*
X13490Y21406D01*
Y21508D01*
D02*
G37*
G36*
X6586Y21661D02*
X6811D01*
X6828Y21659D01*
X6834Y21656D01*
X6843Y21652D01*
X6857Y21642D01*
X6957Y21542D01*
X6967Y21528D01*
X6970Y21522D01*
X6974Y21512D01*
X6976Y21495D01*
Y21400D01*
X6986D01*
Y21361D01*
X7186D01*
Y21400D01*
X7356D01*
Y21190D01*
X7336D01*
Y21028D01*
X7338D01*
Y20946D01*
X7666D01*
Y20965D01*
X7906D01*
Y20946D01*
X7970D01*
X7970Y20947D01*
X7987Y20969D01*
X8009Y20986D01*
X8034Y20996D01*
X8061Y21000D01*
X8088Y20996D01*
X8113Y20986D01*
X8135Y20969D01*
X8151Y20947D01*
X8162Y20922D01*
X8165Y20895D01*
X8162Y20868D01*
X8151Y20843D01*
X8145Y20836D01*
X8151Y20824D01*
X10100D01*
X10122Y20820D01*
X10140Y20808D01*
X10834Y20114D01*
X13798D01*
X13820Y20110D01*
X13838Y20097D01*
X13985Y19951D01*
X13999Y19957D01*
X14036Y19962D01*
X14072Y19957D01*
X14106Y19943D01*
X14136Y19920D01*
X14158Y19891D01*
X14172Y19857D01*
X14177Y19820D01*
X14172Y19784D01*
X14158Y19750D01*
X14136Y19720D01*
X14106Y19698D01*
X14072Y19684D01*
X14036Y19679D01*
X13999Y19684D01*
X13965Y19698D01*
X13936Y19720D01*
X13913Y19750D01*
X13899Y19784D01*
X13894Y19820D01*
X13899Y19857D01*
X13905Y19871D01*
X13775Y20002D01*
X12792D01*
Y19949D01*
X12806Y19943D01*
X12836Y19920D01*
X12858Y19891D01*
X12872Y19857D01*
X12877Y19820D01*
X12872Y19784D01*
X12858Y19750D01*
X12836Y19720D01*
X12806Y19698D01*
X12772Y19684D01*
X12736Y19679D01*
X12699Y19684D01*
X12665Y19698D01*
X12636Y19720D01*
X12613Y19750D01*
X12605Y19771D01*
X12592D01*
X12583Y19750D01*
X12561Y19720D01*
X12531Y19698D01*
X12497Y19684D01*
X12461Y19679D01*
X12424Y19684D01*
X12410Y19690D01*
X12288Y19568D01*
X12288D01*
X12288Y19568D01*
X12288D01*
X12288Y19568D01*
Y19568D01*
X12288Y19568D01*
Y19568D01*
X12281Y19564D01*
X12285Y19551D01*
X13773D01*
X13795Y19547D01*
X13813Y19535D01*
X14314Y19034D01*
X14336Y19037D01*
X14372Y19032D01*
X14406Y19018D01*
X14436Y18995D01*
X14458Y18966D01*
X14464Y18951D01*
X15507D01*
X15513Y18966D01*
X15536Y18995D01*
X15565Y19018D01*
X15599Y19032D01*
X15636Y19037D01*
X15672Y19032D01*
X15706Y19018D01*
X15736Y18995D01*
X15758Y18966D01*
X15772Y18932D01*
X15777Y18895D01*
X15772Y18859D01*
X15758Y18825D01*
X15736Y18795D01*
X15706Y18773D01*
X15672Y18759D01*
X15636Y18754D01*
X15599Y18759D01*
X15565Y18773D01*
X15536Y18795D01*
X15513Y18825D01*
X15507Y18839D01*
X14464D01*
X14458Y18825D01*
X14436Y18795D01*
X14406Y18773D01*
X14372Y18759D01*
X14336Y18754D01*
X14299Y18759D01*
X14265Y18773D01*
X14236Y18795D01*
X14213Y18825D01*
X14205Y18846D01*
X14192D01*
X14183Y18825D01*
X14161Y18795D01*
X14131Y18773D01*
X14097Y18759D01*
X14061Y18754D01*
X14024Y18759D01*
X13990Y18773D01*
X13961Y18795D01*
X13938Y18825D01*
X13932Y18839D01*
X12889D01*
X12883Y18825D01*
X12861Y18795D01*
X12831Y18773D01*
X12797Y18759D01*
X12761Y18754D01*
X12724Y18759D01*
X12690Y18773D01*
X12661Y18795D01*
X12638Y18825D01*
X12630Y18846D01*
X12617D01*
X12608Y18825D01*
X12586Y18795D01*
X12556Y18773D01*
X12522Y18759D01*
X12486Y18754D01*
X12449Y18759D01*
X12415Y18773D01*
X12386Y18795D01*
X12363Y18825D01*
X12357Y18839D01*
X11314D01*
X11308Y18825D01*
X11286Y18795D01*
X11256Y18773D01*
X11222Y18759D01*
X11186Y18754D01*
X11149Y18759D01*
X11115Y18773D01*
X11086Y18795D01*
X11063Y18825D01*
X11049Y18859D01*
X11044Y18895D01*
X11049Y18932D01*
X11063Y18966D01*
X11086Y18995D01*
X11115Y19018D01*
X11130Y19024D01*
Y19072D01*
X9809Y20392D01*
X8235D01*
X8230Y20380D01*
X8489Y20122D01*
X8511Y20125D01*
X8538Y20121D01*
X8563Y20111D01*
X8585Y20094D01*
X8601Y20072D01*
X8612Y20047D01*
X8615Y20020D01*
X8612Y19993D01*
X8601Y19968D01*
X8585Y19946D01*
X8563Y19930D01*
X8538Y19919D01*
X8511Y19916D01*
X8484Y19919D01*
X8459Y19930D01*
X8437Y19946D01*
X8420Y19968D01*
X8410Y19993D01*
X8406Y20020D01*
X8409Y20042D01*
X8397Y20055D01*
X8386Y20048D01*
X8387Y20047D01*
X8390Y20020D01*
X8387Y19993D01*
X8376Y19968D01*
X8360Y19946D01*
X8338Y19930D01*
X8313Y19919D01*
X8286Y19916D01*
X8259Y19919D01*
X8234Y19930D01*
X8212Y19946D01*
X8203Y19958D01*
X8191Y19954D01*
Y19945D01*
X7981D01*
Y20095D01*
X8191D01*
Y20086D01*
X8203Y20082D01*
X8212Y20094D01*
X8234Y20111D01*
X8259Y20121D01*
X8286Y20125D01*
X8313Y20121D01*
X8313Y20121D01*
X8320Y20132D01*
X8202Y20249D01*
X8191Y20244D01*
Y20135D01*
X7981D01*
Y20154D01*
X7941D01*
Y20135D01*
X7731D01*
Y20154D01*
X7547D01*
Y20148D01*
X7338D01*
Y20023D01*
X7509Y19851D01*
X8373D01*
X8387Y19869D01*
X8409Y19886D01*
X8434Y19896D01*
X8461Y19900D01*
X8488Y19896D01*
X8513Y19886D01*
X8535Y19869D01*
X8551Y19847D01*
X8562Y19822D01*
X8565Y19795D01*
X8562Y19768D01*
X8551Y19743D01*
X8547Y19738D01*
X8553Y19726D01*
X9162D01*
X9634Y20198D01*
X9631Y20220D01*
X9635Y20247D01*
X9645Y20272D01*
X9662Y20294D01*
X9684Y20311D01*
X9709Y20321D01*
X9736Y20325D01*
X9763Y20321D01*
X9788Y20311D01*
X9810Y20294D01*
X9826Y20272D01*
X9837Y20247D01*
X9840Y20220D01*
X9837Y20193D01*
X9826Y20168D01*
X9810Y20146D01*
X9788Y20130D01*
X9763Y20119D01*
X9736Y20116D01*
X9714Y20119D01*
X9225Y19631D01*
X9207Y19618D01*
X9186Y19614D01*
X7513D01*
X7512Y19612D01*
X7519Y19601D01*
X9337D01*
X9734Y19998D01*
X9731Y20020D01*
X9735Y20047D01*
X9745Y20072D01*
X9762Y20094D01*
X9784Y20111D01*
X9809Y20121D01*
X9836Y20125D01*
X9863Y20121D01*
X9888Y20111D01*
X9910Y20094D01*
X9926Y20072D01*
X9937Y20047D01*
X9940Y20020D01*
X9937Y19993D01*
X9926Y19968D01*
X9910Y19946D01*
X9888Y19930D01*
X9863Y19919D01*
X9836Y19916D01*
X9814Y19919D01*
X9400Y19506D01*
X9382Y19493D01*
X9361Y19489D01*
X7691D01*
Y19345D01*
X7481D01*
Y19374D01*
X7471Y19381D01*
X7025Y19826D01*
X7014Y19822D01*
Y19734D01*
X7250Y19497D01*
X7252Y19495D01*
X7316D01*
Y19345D01*
X7106D01*
Y19483D01*
X6945Y19644D01*
X6934Y19639D01*
Y19495D01*
X6941D01*
Y19345D01*
X6731D01*
Y19495D01*
X6821D01*
Y19648D01*
X6810Y19652D01*
X6566Y19408D01*
Y19345D01*
X6356D01*
Y19494D01*
X6355Y19495D01*
D01*
X6350Y19497D01*
X6342D01*
X6250Y19406D01*
X6250D01*
X6250Y19406D01*
X6250Y19406D01*
Y19406D01*
X6232Y19393D01*
X6211Y19389D01*
X6191D01*
Y19345D01*
X5981D01*
Y19495D01*
X6062D01*
X6064Y19497D01*
X6086Y19501D01*
X6187D01*
X6657Y19971D01*
Y20148D01*
X6447D01*
Y20228D01*
Y20308D01*
Y20312D01*
X6075D01*
X6054Y20316D01*
X6036Y20329D01*
X6036Y20329D01*
X6036Y20329D01*
X5890Y20474D01*
X5878Y20469D01*
Y20437D01*
X5878D01*
Y20287D01*
Y20248D01*
X5658D01*
Y20287D01*
Y20306D01*
X5519D01*
X5498Y20310D01*
X5480Y20322D01*
X5396Y20406D01*
X5384Y20424D01*
X5380Y20445D01*
Y21070D01*
Y21205D01*
X5374Y21209D01*
X5358Y21231D01*
X5347Y21256D01*
X5344Y21283D01*
X5347Y21310D01*
X5358Y21335D01*
X5374Y21357D01*
X5396Y21373D01*
X5421Y21384D01*
X5448Y21387D01*
X5475Y21384D01*
X5500Y21373D01*
X5522Y21357D01*
X5539Y21335D01*
X5549Y21310D01*
X5553Y21283D01*
X5549Y21256D01*
X5539Y21231D01*
X5532Y21222D01*
X5538Y21211D01*
X5548Y21212D01*
X5575Y21209D01*
X5600Y21198D01*
X5622Y21182D01*
X5639Y21160D01*
X5649Y21135D01*
X5653Y21108D01*
X5649Y21081D01*
X5652Y21075D01*
X5658Y21072D01*
D01*
D01*
X5658Y21072D01*
D01*
X5658D01*
Y21072D01*
X5878D01*
Y20922D01*
X5878D01*
Y20818D01*
X5878D01*
Y20799D01*
X5888D01*
X5910Y20795D01*
X5928Y20782D01*
X6078Y20633D01*
X6090Y20635D01*
X6095Y20647D01*
X6112Y20669D01*
X6134Y20686D01*
X6159Y20696D01*
X6159Y20699D01*
X6146Y20705D01*
X6124Y20721D01*
X6108Y20743D01*
X6097Y20768D01*
X6094Y20795D01*
X6097Y20822D01*
X6108Y20847D01*
X6124Y20869D01*
X6146Y20886D01*
X6171Y20896D01*
X6198Y20900D01*
X6225Y20896D01*
X6237Y20891D01*
X6247Y20899D01*
X6244Y20920D01*
X6247Y20947D01*
X6258Y20972D01*
X6274Y20994D01*
X6296Y21011D01*
X6321Y21021D01*
X6348Y21025D01*
X6375Y21021D01*
X6400Y21011D01*
X6422Y20994D01*
X6439Y20972D01*
X6449Y20947D01*
X6453Y20920D01*
X6449Y20893D01*
X6439Y20868D01*
X6422Y20846D01*
X6404Y20833D01*
Y20794D01*
X6436Y20762D01*
X6447Y20767D01*
Y20828D01*
X6511D01*
Y21015D01*
X6486Y21041D01*
X6486Y21041D01*
X6459Y21044D01*
X6434Y21055D01*
X6412Y21071D01*
X6395Y21093D01*
X6385Y21118D01*
X6381Y21145D01*
X6385Y21172D01*
X6395Y21197D01*
X6412Y21219D01*
X6434Y21236D01*
X6459Y21246D01*
X6486Y21250D01*
X6513Y21246D01*
X6538Y21236D01*
X6560Y21219D01*
X6576Y21197D01*
X6587Y21172D01*
X6590Y21145D01*
X6587Y21118D01*
X6581Y21104D01*
X6607Y21078D01*
X6619Y21060D01*
X6624Y21038D01*
Y20828D01*
X6657D01*
Y21028D01*
X6661D01*
Y21058D01*
X6644Y21071D01*
X6627Y21093D01*
X6617Y21118D01*
X6613Y21145D01*
X6617Y21172D01*
X6627Y21197D01*
X6644Y21219D01*
X6646Y21221D01*
Y21400D01*
X6796D01*
Y21213D01*
X6808Y21197D01*
X6818Y21172D01*
X6822Y21145D01*
X6818Y21118D01*
X6808Y21093D01*
X6791Y21071D01*
X6774Y21058D01*
Y21028D01*
X7185D01*
Y20908D01*
Y20788D01*
X6687D01*
Y20708D01*
Y20628D01*
Y20548D01*
Y20468D01*
Y20388D01*
Y20308D01*
Y20228D01*
Y20168D01*
X7307D01*
Y20228D01*
Y20308D01*
Y20388D01*
Y20468D01*
Y20548D01*
Y20628D01*
Y20708D01*
Y20788D01*
X7210D01*
Y20891D01*
X7207Y20898D01*
X7206Y20908D01*
D01*
X7205Y20915D01*
Y21028D01*
X7205D01*
Y21190D01*
X7186D01*
Y21230D01*
X6986D01*
Y21190D01*
X6836D01*
Y21400D01*
X6845D01*
Y21468D01*
X6784Y21530D01*
X6613D01*
X6114Y21031D01*
X6115Y21020D01*
X6112Y20993D01*
X6101Y20968D01*
X6085Y20946D01*
X6063Y20930D01*
X6038Y20919D01*
X6011Y20916D01*
X5984Y20919D01*
X5959Y20930D01*
X5937Y20946D01*
X5920Y20968D01*
X5910Y20993D01*
X5906Y21020D01*
X5910Y21047D01*
X5920Y21072D01*
X5937Y21094D01*
X5959Y21111D01*
X5984Y21121D01*
X6011Y21125D01*
X6021Y21123D01*
X6539Y21642D01*
X6553Y21652D01*
X6562Y21656D01*
X6569Y21659D01*
X6586Y21661D01*
D02*
G37*
G36*
X12321Y20308D02*
X12448D01*
Y20181D01*
X12424Y20184D01*
X12390Y20198D01*
X12361Y20220D01*
X12338Y20250D01*
X12324Y20284D01*
X12321Y20308D01*
D02*
G37*
G36*
X12748D02*
X12875D01*
X12872Y20284D01*
X12858Y20250D01*
X12836Y20220D01*
X12806Y20198D01*
X12772Y20184D01*
X12748Y20181D01*
Y20308D01*
D02*
G37*
G36*
X13896D02*
X14023D01*
Y20181D01*
X13999Y20184D01*
X13965Y20198D01*
X13936Y20220D01*
X13913Y20250D01*
X13899Y20284D01*
X13896Y20308D01*
D02*
G37*
G36*
X14836Y20296D02*
X14868Y20292D01*
X14899Y20279D01*
X14925Y20259D01*
X14945Y20233D01*
X14954Y20210D01*
X14967D01*
X14977Y20233D01*
X14997Y20259D01*
X15023Y20279D01*
X15053Y20292D01*
X15086Y20296D01*
X15118Y20292D01*
X15149Y20279D01*
X15175Y20259D01*
X15195Y20233D01*
X15198Y20226D01*
X15286D01*
Y20275D01*
X15436D01*
Y20065D01*
X15286D01*
Y20114D01*
X15198D01*
X15195Y20107D01*
X15175Y20081D01*
X15149Y20061D01*
X15118Y20049D01*
X15086Y20044D01*
X15053Y20049D01*
X15023Y20061D01*
X14997Y20081D01*
X14977Y20107D01*
X14967Y20130D01*
X14954D01*
X14945Y20107D01*
X14925Y20081D01*
X14899Y20061D01*
X14868Y20049D01*
X14836Y20044D01*
X14803Y20049D01*
X14773Y20061D01*
X14747Y20081D01*
X14727Y20107D01*
X14714Y20138D01*
X14710Y20170D01*
X14714Y20203D01*
X14727Y20233D01*
X14747Y20259D01*
X14773Y20279D01*
X14803Y20292D01*
X14836Y20296D01*
D02*
G37*
G36*
X11021Y20308D02*
X11148D01*
Y20181D01*
X11124Y20184D01*
X11090Y20198D01*
X11061Y20220D01*
X11038Y20250D01*
X11024Y20284D01*
X11021Y20308D01*
D02*
G37*
G36*
X11173D02*
X11300D01*
X11297Y20284D01*
X11283Y20250D01*
X11261Y20220D01*
X11231Y20198D01*
X11197Y20184D01*
X11173Y20181D01*
Y20308D01*
D02*
G37*
G36*
X14048D02*
X14175D01*
X14172Y20284D01*
X14158Y20250D01*
X14136Y20220D01*
X14106Y20198D01*
X14072Y20184D01*
X14048Y20181D01*
Y20308D01*
D02*
G37*
G36*
X7848Y20095D02*
X7941D01*
Y20033D01*
X7848D01*
Y20095D01*
D02*
G37*
G36*
X5931Y20033D02*
X6023D01*
Y19960D01*
X5931D01*
Y20033D01*
D02*
G37*
G36*
X6048D02*
X6141D01*
Y19960D01*
X6048D01*
Y20033D01*
D02*
G37*
G36*
X5931Y20130D02*
X6023D01*
Y20058D01*
X5931D01*
Y20130D01*
D02*
G37*
G36*
X6048D02*
X6141D01*
Y20058D01*
X6048D01*
Y20130D01*
D02*
G37*
G36*
X7731Y20095D02*
X7823D01*
Y20033D01*
X7731D01*
Y20095D01*
D02*
G37*
G36*
X12278Y21636D02*
X12308Y21632D01*
X12336Y21621D01*
X12360Y21602D01*
X12378Y21578D01*
X12390Y21550D01*
X12394Y21520D01*
X12390Y21490D01*
X12378Y21462D01*
X12360Y21438D01*
X12336Y21420D01*
X12334Y21419D01*
Y20558D01*
X12352Y20544D01*
X12368Y20522D01*
X12379Y20497D01*
X12382Y20470D01*
X12380Y20456D01*
X12390Y20443D01*
X12424Y20457D01*
X12448Y20460D01*
Y20333D01*
X12321D01*
X12324Y20357D01*
X12328Y20366D01*
X12317Y20373D01*
X12299Y20360D01*
X12278Y20356D01*
X12256Y20360D01*
X12238Y20373D01*
X12236Y20375D01*
X12226Y20380D01*
X12204Y20396D01*
X12187Y20418D01*
X12177Y20443D01*
X12173Y20470D01*
X12177Y20497D01*
X12187Y20522D01*
X12204Y20544D01*
X12222Y20558D01*
Y21419D01*
X12220Y21420D01*
X12196Y21438D01*
X12177Y21462D01*
X12166Y21490D01*
X12162Y21520D01*
X12166Y21550D01*
X12177Y21578D01*
X12196Y21602D01*
X12220Y21621D01*
X12248Y21632D01*
X12278Y21636D01*
D02*
G37*
G36*
X12473Y20460D02*
X12497Y20457D01*
X12531Y20443D01*
X12561Y20420D01*
X12583Y20391D01*
X12592Y20370D01*
X12605D01*
X12613Y20391D01*
X12636Y20420D01*
X12665Y20443D01*
X12699Y20457D01*
X12723Y20460D01*
Y20320D01*
Y20181D01*
X12699Y20184D01*
X12665Y20198D01*
X12636Y20220D01*
X12613Y20250D01*
X12605Y20271D01*
X12592D01*
X12583Y20250D01*
X12561Y20220D01*
X12531Y20198D01*
X12497Y20184D01*
X12473Y20181D01*
Y20320D01*
Y20460D01*
D02*
G37*
G36*
X11148D02*
Y20333D01*
X11021D01*
X11024Y20357D01*
X11038Y20391D01*
X11061Y20420D01*
X11090Y20443D01*
X11124Y20457D01*
X11148Y20460D01*
D02*
G37*
G36*
X12532Y21636D02*
X12562Y21632D01*
X12590Y21621D01*
X12614Y21602D01*
X12632Y21578D01*
X12644Y21550D01*
X12648Y21520D01*
X12644Y21490D01*
X12632Y21462D01*
X12614Y21438D01*
X12590Y21420D01*
X12588Y21419D01*
Y20898D01*
X13036Y20450D01*
X13036Y20450D01*
X13063Y20446D01*
X13088Y20436D01*
X13110Y20419D01*
X13126Y20397D01*
X13137Y20372D01*
X13140Y20345D01*
X13137Y20318D01*
X13126Y20293D01*
X13110Y20271D01*
X13088Y20255D01*
X13063Y20244D01*
X13036Y20241D01*
X13009Y20244D01*
X12984Y20255D01*
X12962Y20271D01*
X12945Y20293D01*
X12935Y20318D01*
X12931Y20345D01*
X12935Y20372D01*
X12941Y20386D01*
X12492Y20835D01*
X12492Y20835D01*
X12492Y20835D01*
X12480Y20853D01*
X12476Y20874D01*
Y21419D01*
X12474Y21420D01*
X12450Y21438D01*
X12431Y21462D01*
X12420Y21490D01*
X12416Y21520D01*
X12420Y21550D01*
X12431Y21578D01*
X12450Y21602D01*
X12474Y21621D01*
X12502Y21632D01*
X12532Y21636D01*
D02*
G37*
G36*
X13871Y21635D02*
X14101D01*
Y21405D01*
X14051D01*
Y20975D01*
X14060Y20969D01*
X14076Y20947D01*
X14077Y20946D01*
X15401D01*
X15418Y20944D01*
X15433Y20937D01*
X15447Y20927D01*
X15598Y20775D01*
X15626D01*
Y20725D01*
X15626Y20720D01*
X15626Y20716D01*
Y20565D01*
X15616D01*
Y20275D01*
X15626D01*
Y20065D01*
X15616D01*
Y19775D01*
X15626D01*
Y19565D01*
X15476D01*
Y19775D01*
X15485D01*
Y20065D01*
X15476D01*
Y20275D01*
X15485D01*
Y20565D01*
X15476D01*
Y20713D01*
X15447Y20741D01*
X15436Y20736D01*
Y20565D01*
X15286D01*
Y20614D01*
X15198D01*
X15195Y20607D01*
X15175Y20581D01*
X15149Y20561D01*
X15118Y20549D01*
X15086Y20544D01*
X15053Y20549D01*
X15023Y20561D01*
X14997Y20581D01*
X14977Y20607D01*
X14967Y20630D01*
X14954D01*
X14945Y20607D01*
X14925Y20581D01*
X14899Y20561D01*
X14868Y20549D01*
X14836Y20544D01*
X14803Y20549D01*
X14773Y20561D01*
X14747Y20581D01*
X14727Y20607D01*
X14714Y20638D01*
X14710Y20670D01*
X14714Y20703D01*
X14727Y20733D01*
X14747Y20759D01*
X14773Y20779D01*
X14803Y20792D01*
X14836Y20796D01*
X14868Y20792D01*
X14899Y20779D01*
X14925Y20759D01*
X14945Y20733D01*
X14954Y20710D01*
X14967D01*
X14977Y20733D01*
X14997Y20759D01*
X15023Y20779D01*
X15053Y20792D01*
X15086Y20796D01*
X15118Y20792D01*
X15149Y20779D01*
X15175Y20759D01*
X15195Y20733D01*
X15198Y20726D01*
X15286D01*
Y20775D01*
X15396D01*
X15401Y20787D01*
X15374Y20815D01*
X14051D01*
X14038Y20805D01*
X14013Y20794D01*
X13986Y20791D01*
X13959Y20794D01*
X13934Y20805D01*
X13912Y20821D01*
X13895Y20843D01*
X13885Y20868D01*
X13881Y20895D01*
X13885Y20922D01*
X13895Y20947D01*
X13912Y20969D01*
X13920Y20975D01*
Y21405D01*
X13871D01*
Y21635D01*
D02*
G37*
G36*
X5138Y21072D02*
X5358D01*
Y20922D01*
Y20795D01*
Y20668D01*
Y20564D01*
X5358D01*
Y20414D01*
X5358D01*
Y20310D01*
Y20291D01*
X5421D01*
X5443Y20287D01*
X5461Y20274D01*
X5598Y20137D01*
X5610Y20119D01*
X5614Y20098D01*
Y19963D01*
X5643D01*
Y19753D01*
X5473D01*
Y19963D01*
X5502D01*
Y20075D01*
X5398Y20179D01*
X5358D01*
Y20160D01*
Y20033D01*
X5138D01*
Y20052D01*
X5053D01*
Y20023D01*
X4843D01*
Y20193D01*
X5053D01*
Y20164D01*
X5138D01*
Y20287D01*
Y20306D01*
X5053D01*
Y20213D01*
X4843D01*
Y20383D01*
X4954D01*
X4973Y20401D01*
X4991Y20414D01*
X5012Y20418D01*
X5138D01*
Y20433D01*
X4992D01*
X4971Y20437D01*
X4955Y20448D01*
X4843D01*
Y20618D01*
X5053D01*
Y20545D01*
X5138D01*
Y20568D01*
X5126Y20576D01*
X5126Y20576D01*
X5126Y20576D01*
X5061Y20641D01*
X5053Y20638D01*
Y20638D01*
X5053Y20638D01*
X4843D01*
Y20808D01*
X5002D01*
X5007Y20820D01*
X4954Y20873D01*
X4843D01*
Y21043D01*
X5053D01*
Y20932D01*
X5126Y20859D01*
X5138Y20864D01*
Y20922D01*
Y21072D01*
D02*
G37*
G36*
X11173Y20460D02*
X11197Y20457D01*
X11231Y20443D01*
X11261Y20420D01*
X11283Y20391D01*
X11297Y20357D01*
X11300Y20333D01*
X11173D01*
Y20460D01*
D02*
G37*
G36*
X12671Y21635D02*
X12901D01*
Y21485D01*
X13300Y21085D01*
X13313Y21067D01*
X13317Y21045D01*
Y20433D01*
X13335Y20419D01*
X13351Y20397D01*
X13362Y20372D01*
X13365Y20345D01*
X13362Y20318D01*
X13351Y20293D01*
X13335Y20271D01*
X13313Y20255D01*
X13288Y20244D01*
X13261Y20241D01*
X13234Y20244D01*
X13209Y20255D01*
X13187Y20271D01*
X13170Y20293D01*
X13160Y20318D01*
X13156Y20345D01*
X13160Y20372D01*
X13170Y20397D01*
X13187Y20419D01*
X13205Y20433D01*
Y21022D01*
X12821Y21405D01*
X12671D01*
Y21635D01*
D02*
G37*
G36*
X12024Y21636D02*
X12054Y21632D01*
X12082Y21621D01*
X12106Y21602D01*
X12124Y21578D01*
X12136Y21550D01*
X12140Y21520D01*
X12136Y21490D01*
X12124Y21462D01*
X12106Y21438D01*
X12082Y21420D01*
X12080Y21419D01*
Y20421D01*
X12098Y20407D01*
X12114Y20385D01*
X12125Y20360D01*
X12128Y20333D01*
X12125Y20306D01*
X12114Y20281D01*
X12098Y20259D01*
X12076Y20243D01*
X12051Y20232D01*
X12024Y20229D01*
X11997Y20232D01*
X11972Y20243D01*
X11950Y20259D01*
X11933Y20281D01*
X11923Y20306D01*
X11919Y20333D01*
X11923Y20360D01*
X11933Y20385D01*
X11950Y20407D01*
X11968Y20421D01*
Y21419D01*
X11966Y21420D01*
X11942Y21438D01*
X11923Y21462D01*
X11912Y21490D01*
X11908Y21520D01*
X11912Y21550D01*
X11923Y21578D01*
X11942Y21602D01*
X11966Y21621D01*
X11994Y21632D01*
X12024Y21636D01*
D02*
G37*
G36*
X11770D02*
X11800Y21632D01*
X11828Y21621D01*
X11852Y21602D01*
X11870Y21578D01*
X11882Y21550D01*
X11886Y21520D01*
X11882Y21490D01*
X11870Y21462D01*
X11852Y21438D01*
X11828Y21420D01*
X11826Y21419D01*
Y20401D01*
X11835Y20394D01*
X11851Y20372D01*
X11862Y20347D01*
X11865Y20320D01*
X11862Y20293D01*
X11851Y20268D01*
X11835Y20246D01*
X11813Y20230D01*
X11788Y20219D01*
X11761Y20216D01*
X11734Y20219D01*
X11709Y20230D01*
X11687Y20246D01*
X11670Y20268D01*
X11660Y20293D01*
X11656Y20320D01*
X11660Y20347D01*
X11670Y20372D01*
X11687Y20394D01*
X11709Y20411D01*
X11714Y20413D01*
Y21419D01*
X11712Y21420D01*
X11688Y21438D01*
X11669Y21462D01*
X11658Y21490D01*
X11654Y21520D01*
X11658Y21550D01*
X11669Y21578D01*
X11688Y21602D01*
X11712Y21621D01*
X11740Y21632D01*
X11770Y21636D01*
D02*
G37*
G36*
X12748Y20460D02*
X12772Y20457D01*
X12806Y20443D01*
X12836Y20420D01*
X12858Y20391D01*
X12872Y20357D01*
X12875Y20333D01*
X12748D01*
Y20460D01*
D02*
G37*
G36*
X14023D02*
Y20333D01*
X13896D01*
X13899Y20357D01*
X13913Y20391D01*
X13936Y20420D01*
X13965Y20443D01*
X13999Y20457D01*
X14023Y20460D01*
D02*
G37*
G36*
X14048D02*
X14072Y20457D01*
X14106Y20443D01*
X14136Y20420D01*
X14158Y20391D01*
X14172Y20357D01*
X14175Y20333D01*
X14048D01*
Y20460D01*
D02*
G37*
%LPD*%
D10*
X18061Y9670D02*
X2061D01*
Y3170D02*
Y9670D01*
X18061Y3170D02*
X2061D01*
X18061D02*
Y9670D01*
Y16170D02*
X2061D01*
Y9670D02*
Y16170D01*
X18061Y9670D02*
X2061D01*
X18061D02*
Y16170D01*
Y22670D02*
X2061D01*
Y16170D02*
Y22670D01*
X18061Y16170D02*
X2061D01*
X18061D02*
Y22670D01*
D11*
X6718Y7048D02*
D03*
X6797D02*
D03*
X6878D02*
D03*
X6957D02*
D03*
X7038D02*
D03*
X7118D02*
D03*
X7197D02*
D03*
X7278D02*
D03*
Y7908D02*
D03*
X7197D02*
D03*
X7118D02*
D03*
X7038D02*
D03*
X6957D02*
D03*
X6878D02*
D03*
X6797D02*
D03*
X6718D02*
D03*
Y13548D02*
D03*
X6797D02*
D03*
X6878D02*
D03*
X6957D02*
D03*
X7038D02*
D03*
X7118D02*
D03*
X7197D02*
D03*
X7278D02*
D03*
Y14408D02*
D03*
X7197D02*
D03*
X7118D02*
D03*
X7038D02*
D03*
X6957D02*
D03*
X6878D02*
D03*
X6797D02*
D03*
X6718D02*
D03*
Y20048D02*
D03*
X6797D02*
D03*
X6878D02*
D03*
X6957D02*
D03*
X7038D02*
D03*
X7118D02*
D03*
X7197D02*
D03*
X7278D02*
D03*
Y20908D02*
D03*
X7197D02*
D03*
X7118D02*
D03*
X7038D02*
D03*
X6957D02*
D03*
X6878D02*
D03*
X6797D02*
D03*
X6718D02*
D03*
D12*
X6568Y7768D02*
D03*
Y7688D02*
D03*
Y7608D02*
D03*
Y7528D02*
D03*
Y7448D02*
D03*
Y7368D02*
D03*
Y7288D02*
D03*
Y7208D02*
D03*
X7428Y7768D02*
D03*
Y7688D02*
D03*
Y7608D02*
D03*
Y7528D02*
D03*
Y7448D02*
D03*
Y7368D02*
D03*
Y7288D02*
D03*
Y7208D02*
D03*
X6568Y14268D02*
D03*
Y14188D02*
D03*
Y14108D02*
D03*
Y14028D02*
D03*
Y13948D02*
D03*
Y13868D02*
D03*
Y13788D02*
D03*
Y13708D02*
D03*
X7428Y14268D02*
D03*
Y14188D02*
D03*
Y14108D02*
D03*
Y14028D02*
D03*
Y13948D02*
D03*
Y13868D02*
D03*
Y13788D02*
D03*
Y13708D02*
D03*
X6568Y20768D02*
D03*
Y20688D02*
D03*
Y20608D02*
D03*
Y20528D02*
D03*
Y20448D02*
D03*
Y20368D02*
D03*
Y20288D02*
D03*
Y20208D02*
D03*
X7428Y20768D02*
D03*
Y20688D02*
D03*
Y20608D02*
D03*
Y20528D02*
D03*
Y20448D02*
D03*
Y20368D02*
D03*
Y20288D02*
D03*
Y20208D02*
D03*
D13*
X6911Y8295D02*
D03*
X6721D02*
D03*
X15361Y6670D02*
D03*
X15551D02*
D03*
X15361Y7170D02*
D03*
X15551D02*
D03*
X15361Y7670D02*
D03*
X15551D02*
D03*
X6911Y14795D02*
D03*
X6721D02*
D03*
X15361Y13170D02*
D03*
X15551D02*
D03*
X15361Y13670D02*
D03*
X15551D02*
D03*
X15361Y14170D02*
D03*
X15551D02*
D03*
X6911Y21295D02*
D03*
X6721D02*
D03*
X15361Y19670D02*
D03*
X15551D02*
D03*
X15361Y20170D02*
D03*
X15551D02*
D03*
X15361Y20670D02*
D03*
X15551D02*
D03*
D14*
X6086Y6420D02*
D03*
Y6230D02*
D03*
X6461Y6420D02*
D03*
Y6230D02*
D03*
X6836Y6420D02*
D03*
Y6230D02*
D03*
X7211Y6420D02*
D03*
Y6230D02*
D03*
X7586Y6420D02*
D03*
Y6230D02*
D03*
X8086Y7020D02*
D03*
Y7210D02*
D03*
X7836D02*
D03*
Y7020D02*
D03*
X6086Y12920D02*
D03*
Y12730D02*
D03*
X6461Y12920D02*
D03*
Y12730D02*
D03*
X6836Y12920D02*
D03*
Y12730D02*
D03*
X7211Y12920D02*
D03*
Y12730D02*
D03*
X7586Y12920D02*
D03*
Y12730D02*
D03*
X8086Y13520D02*
D03*
Y13710D02*
D03*
X7836D02*
D03*
Y13520D02*
D03*
X6086Y19420D02*
D03*
Y19230D02*
D03*
X6461Y19420D02*
D03*
Y19230D02*
D03*
X6836Y19420D02*
D03*
Y19230D02*
D03*
X7211Y19420D02*
D03*
Y19230D02*
D03*
X7586Y19420D02*
D03*
Y19230D02*
D03*
X8086Y20020D02*
D03*
Y20210D02*
D03*
X7836D02*
D03*
Y20020D02*
D03*
D15*
X7461Y8295D02*
D03*
X7271D02*
D03*
X5748Y6858D02*
D03*
X5558D02*
D03*
X7461Y14795D02*
D03*
X7271D02*
D03*
X5748Y13358D02*
D03*
X5558D02*
D03*
X7461Y21295D02*
D03*
X7271D02*
D03*
X5748Y19858D02*
D03*
X5558D02*
D03*
D16*
X6036Y7045D02*
D03*
Y6855D02*
D03*
X4948Y7108D02*
D03*
Y7298D02*
D03*
Y7533D02*
D03*
Y7723D02*
D03*
Y7958D02*
D03*
Y8148D02*
D03*
X6036Y13545D02*
D03*
Y13355D02*
D03*
X4948Y13608D02*
D03*
Y13798D02*
D03*
Y14033D02*
D03*
Y14223D02*
D03*
Y14458D02*
D03*
Y14648D02*
D03*
X6036Y20045D02*
D03*
Y19855D02*
D03*
X4948Y20108D02*
D03*
Y20298D02*
D03*
Y20533D02*
D03*
Y20723D02*
D03*
Y20958D02*
D03*
Y21148D02*
D03*
D17*
X5248Y7108D02*
D03*
X5248Y7489D02*
D03*
X5768Y7743D02*
D03*
Y7997D02*
D03*
X5768Y7870D02*
D03*
X5248Y7997D02*
D03*
Y7870D02*
D03*
Y7743D02*
D03*
Y7362D02*
D03*
Y7616D02*
D03*
X5768Y7235D02*
D03*
X5768Y7489D02*
D03*
X5248Y7235D02*
D03*
X5768Y7362D02*
D03*
X5768Y7616D02*
D03*
X5768Y7108D02*
D03*
X5248Y13608D02*
D03*
X5248Y13989D02*
D03*
X5768Y14243D02*
D03*
Y14497D02*
D03*
X5768Y14370D02*
D03*
X5248Y14497D02*
D03*
Y14370D02*
D03*
Y14243D02*
D03*
Y13862D02*
D03*
Y14116D02*
D03*
X5768Y13735D02*
D03*
X5768Y13989D02*
D03*
X5248Y13735D02*
D03*
X5768Y13862D02*
D03*
X5768Y14116D02*
D03*
X5768Y13608D02*
D03*
X5248Y20108D02*
D03*
X5248Y20489D02*
D03*
X5768Y20743D02*
D03*
Y20997D02*
D03*
X5768Y20870D02*
D03*
X5248Y20997D02*
D03*
Y20870D02*
D03*
Y20743D02*
D03*
Y20362D02*
D03*
Y20616D02*
D03*
X5768Y20235D02*
D03*
X5768Y20489D02*
D03*
X5248Y20235D02*
D03*
X5768Y20362D02*
D03*
X5768Y20616D02*
D03*
X5768Y20108D02*
D03*
D18*
X7786Y7880D02*
D03*
X7786Y8170D02*
D03*
X7786Y14380D02*
D03*
X7786Y14670D02*
D03*
X7786Y20880D02*
D03*
X7786Y21170D02*
D03*
D19*
X9833Y7448D02*
X7428D01*
X11186Y6095D02*
X9833Y7448D01*
X11186Y5895D02*
Y6095D01*
X9903Y7528D02*
X7428D01*
X11098Y6333D02*
X9903Y7528D01*
X12323Y6333D02*
X11098D01*
X12761Y5895D02*
X12323Y6333D01*
X9973Y7608D02*
X7428D01*
X10273Y7308D02*
X9973Y7608D01*
X11086Y6495D02*
X10273Y7308D01*
X13773Y6495D02*
X11086D01*
X14336Y5933D02*
X13773Y6495D01*
X14336Y5895D02*
Y5933D01*
X9936Y7688D02*
X7428D01*
X10018D02*
X9936D01*
X11098Y6608D02*
X10018Y7688D01*
X11161Y6608D02*
X11098D01*
X6718Y8145D02*
Y8292D01*
Y7908D02*
Y8145D01*
X6568Y7768D02*
Y8039D01*
X15361Y6670D02*
X15086D01*
Y7170D02*
X15086Y7170D01*
X15361Y7170D02*
X15086D01*
X7278Y7016D02*
Y7048D01*
X7611Y6205D02*
X7586Y6230D01*
X7611Y6008D02*
Y6205D01*
X7663Y5956D02*
X7611Y6008D01*
X6139Y5956D02*
X6086Y6009D01*
Y6230D01*
X6901Y5956D02*
X6900D01*
X6626Y6230D01*
X6461D01*
X7155Y5956D02*
X6881Y6230D01*
X6836D01*
X7409Y5956D02*
Y6032D01*
X7211Y6230D01*
X7438Y7358D02*
X7428Y7368D01*
X8286Y7020D02*
X8086D01*
X5768Y7489D02*
X5667D01*
X5548Y7608D01*
Y8108D01*
X5436Y8070D02*
Y8258D01*
Y8070D02*
Y8095D01*
Y7445D02*
Y8070D01*
X5519Y7362D02*
X5436Y7445D01*
X5768Y7362D02*
X5519D01*
X8086Y7210D02*
X7430D01*
X7428Y7208D01*
X6721Y8295D02*
X6718Y8292D01*
X5558Y6858D02*
Y7098D01*
X5421Y7235D01*
X5248D01*
X5163Y7743D02*
X4948Y7958D01*
X5248Y7743D02*
X5163D01*
X5058Y7723D02*
X4948D01*
X5165Y7616D02*
X5058Y7723D01*
X5248Y7616D02*
X5165D01*
X5248Y7489D02*
X4992D01*
X4948Y7108D02*
X4948Y7108D01*
X5248Y7108D02*
X4948D01*
X5012Y7362D02*
X4948Y7298D01*
X5248Y7362D02*
X5012D01*
X6211Y6445D02*
X6086D01*
X6718Y6952D02*
X6211Y6445D01*
X6718Y6952D02*
Y7048D01*
X6498Y6420D02*
X6461D01*
X6797Y6720D02*
X6498Y6420D01*
X6797Y6720D02*
Y7048D01*
X6957Y6711D02*
Y7048D01*
X7211Y6458D02*
X6957Y6711D01*
X7211Y6420D02*
Y6458D01*
X6878Y6462D02*
X6836Y6420D01*
X6878Y6462D02*
Y7048D01*
X12461Y6820D02*
X12248Y6608D01*
X14036Y6820D02*
X13798Y7058D01*
X12736D01*
X10811D01*
X12736Y6820D02*
Y7058D01*
X12248Y6608D02*
X11161D01*
Y6820D01*
X15636Y5895D02*
X14336D01*
X14061D02*
X12761D01*
X12486D02*
X11186D01*
X15361Y7670D02*
X15086D01*
X15086Y7670D01*
X6568Y7688D02*
X6430D01*
X6348Y7770D01*
X6568Y7608D02*
X6385D01*
X6568Y7368D02*
X6075D01*
X5811Y7633D01*
X5785D01*
X5768Y7616D01*
X6568Y7448D02*
X6183D01*
X5888Y7743D01*
X5768D01*
X6568Y7528D02*
X6240D01*
X6198Y7570D01*
X6385Y7608D02*
X6198Y7795D01*
X6348Y7770D02*
Y7895D01*
X7586Y6420D02*
X7511D01*
X7038Y6893D01*
Y7048D01*
X7486Y6545D02*
X7118Y6914D01*
Y7048D01*
X7197Y6933D02*
Y7048D01*
X7461Y6670D02*
X7197Y6933D01*
X9186Y6670D02*
X7461D01*
X9361Y6545D02*
X7486D01*
X8461Y6795D02*
X7486D01*
X7278Y7004D01*
Y7048D01*
X6568Y8039D02*
X6461Y8145D01*
X11770Y7311D02*
Y8520D01*
X9836Y7020D02*
X9361Y6545D01*
X12024Y7333D02*
Y8520D01*
X9736Y7220D02*
X9186Y6670D01*
X12278Y7412D02*
Y7470D01*
Y8520D01*
X10811Y7058D02*
X10100Y7768D01*
X7428D01*
X8163Y7368D02*
X7428D01*
X8511Y7020D02*
X8163Y7368D01*
X13036Y7345D02*
Y7370D01*
X12532Y7874D01*
Y8520D01*
X13261Y8045D02*
X12786Y8520D01*
X13261Y7345D02*
Y8045D01*
X9833Y13948D02*
X7428D01*
X11186Y12595D02*
X9833Y13948D01*
X11186Y12395D02*
Y12595D01*
X9903Y14028D02*
X7428D01*
X11098Y12833D02*
X9903Y14028D01*
X12323Y12833D02*
X11098D01*
X12761Y12395D02*
X12323Y12833D01*
X9973Y14108D02*
X7428D01*
X10273Y13808D02*
X9973Y14108D01*
X11086Y12995D02*
X10273Y13808D01*
X13773Y12995D02*
X11086D01*
X14336Y12433D02*
X13773Y12995D01*
X14336Y12395D02*
Y12433D01*
X9936Y14188D02*
X7428D01*
X10018D02*
X9936D01*
X11098Y13108D02*
X10018Y14188D01*
X11161Y13108D02*
X11098D01*
X6718Y14645D02*
Y14792D01*
Y14408D02*
Y14645D01*
X6568Y14268D02*
Y14538D01*
X15361Y13170D02*
X15086D01*
Y13670D02*
X15086Y13670D01*
X15361Y13670D02*
X15086D01*
X7278Y13516D02*
Y13548D01*
X7611Y12705D02*
X7586Y12730D01*
X7611Y12508D02*
Y12705D01*
X7663Y12456D02*
X7611Y12508D01*
X6139Y12456D02*
X6086Y12509D01*
Y12730D01*
X6901Y12456D02*
X6900D01*
X6626Y12730D01*
X6461D01*
X7155Y12456D02*
X6881Y12730D01*
X6836D01*
X7409Y12456D02*
Y12532D01*
X7211Y12730D01*
X7438Y13858D02*
X7428Y13868D01*
X8286Y13520D02*
X8086D01*
X5768Y13989D02*
X5667D01*
X5548Y14108D01*
Y14608D01*
X5436Y14570D02*
Y14758D01*
Y14570D02*
Y14595D01*
Y13945D02*
Y14570D01*
X5519Y13862D02*
X5436Y13945D01*
X5768Y13862D02*
X5519D01*
X8086Y13710D02*
X7430D01*
X7428Y13708D01*
X6721Y14795D02*
X6718Y14792D01*
X5558Y13358D02*
Y13598D01*
X5421Y13735D01*
X5248D01*
X5163Y14243D02*
X4948Y14458D01*
X5248Y14243D02*
X5163D01*
X5058Y14223D02*
X4948D01*
X5165Y14116D02*
X5058Y14223D01*
X5248Y14116D02*
X5165D01*
X5248Y13989D02*
X4992D01*
X4948Y13608D02*
X4948Y13608D01*
X5248Y13608D02*
X4948D01*
X5012Y13862D02*
X4948Y13798D01*
X5248Y13862D02*
X5012D01*
X6211Y12945D02*
X6086D01*
X6718Y13452D02*
X6211Y12945D01*
X6718Y13452D02*
Y13548D01*
X6498Y12920D02*
X6461D01*
X6797Y13220D02*
X6498Y12920D01*
X6797Y13220D02*
Y13548D01*
X6957Y13211D02*
Y13548D01*
X7211Y12958D02*
X6957Y13211D01*
X7211Y12920D02*
Y12958D01*
X6878Y12962D02*
X6836Y12920D01*
X6878Y12962D02*
Y13548D01*
X12461Y13320D02*
X12248Y13108D01*
X14036Y13320D02*
X13798Y13558D01*
X12736D01*
X10811D01*
X12736Y13320D02*
Y13558D01*
X12248Y13108D02*
X11161D01*
Y13320D01*
X15636Y12395D02*
X14336D01*
X14061D02*
X12761D01*
X12486D02*
X11186D01*
X15361Y14170D02*
X15086D01*
X15086Y14170D01*
X6568Y14188D02*
X6430D01*
X6348Y14270D01*
X6568Y14108D02*
X6385D01*
X6568Y13868D02*
X6075D01*
X5811Y14133D01*
X5785D01*
X5768Y14116D01*
X6568Y13948D02*
X6183D01*
X5888Y14243D01*
X5768D01*
X6568Y14028D02*
X6240D01*
X6198Y14070D01*
X6385Y14108D02*
X6198Y14295D01*
X6348Y14270D02*
Y14395D01*
X7586Y12920D02*
X7511D01*
X7038Y13393D01*
Y13548D01*
X7486Y13045D02*
X7118Y13413D01*
Y13548D01*
X7197Y13434D02*
Y13548D01*
X7461Y13170D02*
X7197Y13434D01*
X9186Y13170D02*
X7461D01*
X9361Y13045D02*
X7486D01*
X8461Y13295D02*
X7486D01*
X7278Y13504D01*
Y13548D01*
X6568Y14538D02*
X6461Y14645D01*
X11770Y13811D02*
Y15020D01*
X9836Y13520D02*
X9361Y13045D01*
X12024Y13833D02*
Y15020D01*
X9736Y13720D02*
X9186Y13170D01*
X12278Y13912D02*
Y13970D01*
Y15020D01*
X10811Y13558D02*
X10100Y14268D01*
X7428D01*
X8163Y13868D02*
X7428D01*
X8511Y13520D02*
X8163Y13868D01*
X13036Y13845D02*
Y13870D01*
X12532Y14374D01*
Y15020D01*
X13261Y14545D02*
X12786Y15020D01*
X13261Y13845D02*
Y14545D01*
X9833Y20448D02*
X7428D01*
X11186Y19095D02*
X9833Y20448D01*
X11186Y18895D02*
Y19095D01*
X9903Y20528D02*
X7428D01*
X11098Y19333D02*
X9903Y20528D01*
X12323Y19333D02*
X11098D01*
X12761Y18895D02*
X12323Y19333D01*
X9973Y20608D02*
X7428D01*
X10273Y20308D02*
X9973Y20608D01*
X11086Y19495D02*
X10273Y20308D01*
X13773Y19495D02*
X11086D01*
X14336Y18933D02*
X13773Y19495D01*
X14336Y18895D02*
Y18933D01*
X9936Y20688D02*
X7428D01*
X10018D02*
X9936D01*
X11098Y19608D02*
X10018Y20688D01*
X11161Y19608D02*
X11098D01*
X6718Y21145D02*
Y21292D01*
Y20908D02*
Y21145D01*
X6568Y20768D02*
Y21038D01*
X15361Y19670D02*
X15086D01*
Y20170D02*
X15086Y20170D01*
X15361Y20170D02*
X15086D01*
X7278Y20016D02*
Y20048D01*
X7611Y19205D02*
X7586Y19230D01*
X7611Y19008D02*
Y19205D01*
X7663Y18956D02*
X7611Y19008D01*
X6139Y18956D02*
X6086Y19009D01*
Y19230D01*
X6901Y18956D02*
X6900D01*
X6626Y19230D01*
X6461D01*
X7155Y18956D02*
X6881Y19230D01*
X6836D01*
X7409Y18956D02*
Y19032D01*
X7211Y19230D01*
X7438Y20358D02*
X7428Y20368D01*
X8286Y20020D02*
X8086D01*
X5768Y20489D02*
X5667D01*
X5548Y20608D01*
Y21108D01*
X5436Y21070D02*
Y21258D01*
Y21070D02*
Y21095D01*
Y20445D02*
Y21070D01*
X5519Y20362D02*
X5436Y20445D01*
X5768Y20362D02*
X5519D01*
X8086Y20210D02*
X7430D01*
X7428Y20208D01*
X6721Y21295D02*
X6718Y21292D01*
X5558Y19858D02*
Y20098D01*
X5421Y20235D01*
X5248D01*
X5163Y20743D02*
X4948Y20958D01*
X5248Y20743D02*
X5163D01*
X5058Y20723D02*
X4948D01*
X5165Y20616D02*
X5058Y20723D01*
X5248Y20616D02*
X5165D01*
X5248Y20489D02*
X4992D01*
X4948Y20108D02*
X4948Y20108D01*
X5248Y20108D02*
X4948D01*
X5012Y20362D02*
X4948Y20298D01*
X5248Y20362D02*
X5012D01*
X6211Y19445D02*
X6086D01*
X6718Y19952D02*
X6211Y19445D01*
X6718Y19952D02*
Y20048D01*
X6498Y19420D02*
X6461D01*
X6797Y19720D02*
X6498Y19420D01*
X6797Y19720D02*
Y20048D01*
X6957Y19711D02*
Y20048D01*
X7211Y19458D02*
X6957Y19711D01*
X7211Y19420D02*
Y19458D01*
X6878Y19462D02*
X6836Y19420D01*
X6878Y19462D02*
Y20048D01*
X12461Y19820D02*
X12248Y19608D01*
X14036Y19820D02*
X13798Y20058D01*
X12736D01*
X10811D01*
X12736Y19820D02*
Y20058D01*
X12248Y19608D02*
X11161D01*
Y19820D01*
X15636Y18895D02*
X14336D01*
X14061D02*
X12761D01*
X12486D02*
X11186D01*
X15361Y20670D02*
X15086D01*
X15086Y20670D01*
X6568Y20688D02*
X6430D01*
X6348Y20770D01*
X6568Y20608D02*
X6385D01*
X6568Y20368D02*
X6075D01*
X5811Y20633D01*
X5785D01*
X5768Y20616D01*
X6568Y20448D02*
X6183D01*
X5888Y20743D01*
X5768D01*
X6568Y20528D02*
X6240D01*
X6198Y20570D01*
X6385Y20608D02*
X6198Y20795D01*
X6348Y20770D02*
Y20895D01*
X7586Y19420D02*
X7511D01*
X7038Y19893D01*
Y20048D01*
X7486Y19545D02*
X7118Y19913D01*
Y20048D01*
X7197Y19934D02*
Y20048D01*
X7461Y19670D02*
X7197Y19934D01*
X9186Y19670D02*
X7461D01*
X9361Y19545D02*
X7486D01*
X8461Y19795D02*
X7486D01*
X7278Y20004D01*
Y20048D01*
X6568Y21038D02*
X6461Y21145D01*
X11770Y20311D02*
Y21520D01*
X9836Y20020D02*
X9361Y19545D01*
X12024Y20333D02*
Y21520D01*
X9736Y20220D02*
X9186Y19670D01*
X12278Y20412D02*
Y20470D01*
Y21520D01*
X10811Y20058D02*
X10100Y20768D01*
X7428D01*
X8163Y20368D02*
X7428D01*
X8511Y20020D02*
X8163Y20368D01*
X13036Y20345D02*
Y20370D01*
X12532Y20874D01*
Y21520D01*
X13261Y21045D02*
X12786Y21520D01*
X13261Y20345D02*
Y21045D01*
D20*
X6586Y8595D02*
X6011Y8020D01*
X6811Y8595D02*
X6586D01*
X6911Y8495D02*
X6811Y8595D01*
X6911Y8295D02*
Y8495D01*
X7786Y8595D02*
X7786Y8595D01*
X7786Y8170D02*
Y8595D01*
X5973Y5733D02*
X5836Y5870D01*
X6423Y5733D02*
X5973D01*
X6647Y5956D02*
X6423Y5733D01*
X6013Y6878D02*
X5768D01*
X7271Y8295D02*
X7271Y8295D01*
X6911D01*
X7278Y7908D02*
X7271Y7915D01*
Y8295D01*
X7786Y7880D02*
X7306D01*
X6036Y6855D02*
X6013Y6878D01*
X5768D02*
Y7108D01*
X15551Y6670D02*
Y7170D01*
Y7670D01*
X13986Y7880D02*
Y8520D01*
X15401Y7880D02*
X13986D01*
X15561Y7720D02*
X15401Y7880D01*
X8046D02*
X7786D01*
X8061Y7895D02*
X8046Y7880D01*
X5836Y5870D02*
Y6645D01*
Y6878D01*
X6586Y15095D02*
X6011Y14520D01*
X6811Y15095D02*
X6586D01*
X6911Y14995D02*
X6811Y15095D01*
X6911Y14795D02*
Y14995D01*
X7786Y15095D02*
X7786Y15095D01*
X7786Y14670D02*
Y15095D01*
X5973Y12233D02*
X5836Y12370D01*
X6423Y12233D02*
X5973D01*
X6647Y12456D02*
X6423Y12233D01*
X6013Y13378D02*
X5768D01*
X7271Y14795D02*
X7271Y14795D01*
X6911D01*
X7278Y14408D02*
X7271Y14415D01*
Y14795D01*
X7786Y14380D02*
X7306D01*
X6036Y13355D02*
X6013Y13378D01*
X5768D02*
Y13608D01*
X15551Y13170D02*
Y13670D01*
Y14170D01*
X13986Y14380D02*
Y15020D01*
X15401Y14380D02*
X13986D01*
X15561Y14220D02*
X15401Y14380D01*
X8046D02*
X7786D01*
X8061Y14395D02*
X8046Y14380D01*
X5836Y12370D02*
Y13145D01*
Y13378D01*
X6586Y21595D02*
X6011Y21020D01*
X6811Y21595D02*
X6586D01*
X6911Y21495D02*
X6811Y21595D01*
X6911Y21295D02*
Y21495D01*
X7786Y21595D02*
X7786Y21595D01*
X7786Y21170D02*
Y21595D01*
X5973Y18733D02*
X5836Y18870D01*
X6423Y18733D02*
X5973D01*
X6647Y18956D02*
X6423Y18733D01*
X6013Y19878D02*
X5768D01*
X7271Y21295D02*
X7271Y21295D01*
X6911D01*
X7278Y20908D02*
X7271Y20915D01*
Y21295D01*
X7786Y20880D02*
X7306D01*
X6036Y19855D02*
X6013Y19878D01*
X5768D02*
Y20108D01*
X15551Y19670D02*
Y20170D01*
Y20670D01*
X13986Y20880D02*
Y21520D01*
X15401Y20880D02*
X13986D01*
X15561Y20720D02*
X15401Y20880D01*
X8046D02*
X7786D01*
X8061Y20895D02*
X8046Y20880D01*
X5836Y18870D02*
Y19645D01*
Y19878D01*
D21*
X10061Y4470D02*
D03*
Y6670D02*
D03*
X3861Y4470D02*
D03*
Y6670D02*
D03*
X16261D02*
D03*
Y4470D02*
D03*
X10061Y10970D02*
D03*
Y13170D02*
D03*
X3861Y10970D02*
D03*
Y13170D02*
D03*
X16261D02*
D03*
Y10970D02*
D03*
X10061Y17470D02*
D03*
Y19670D02*
D03*
X3861Y17470D02*
D03*
Y19670D02*
D03*
X16261D02*
D03*
Y17470D02*
D03*
D22*
X15086Y7170D02*
D03*
X14836D02*
D03*
X15086Y6670D02*
D03*
X14836D02*
D03*
X15086Y7670D02*
D03*
X14836D02*
D03*
X15086Y13670D02*
D03*
X14836D02*
D03*
X15086Y13170D02*
D03*
X14836D02*
D03*
X15086Y14170D02*
D03*
X14836D02*
D03*
X15086Y20170D02*
D03*
X14836D02*
D03*
X15086Y19670D02*
D03*
X14836D02*
D03*
X15086Y20670D02*
D03*
X14836D02*
D03*
D23*
X11161Y7320D02*
D03*
Y6820D02*
D03*
X12461D02*
D03*
Y7320D02*
D03*
X15636Y5395D02*
D03*
Y5895D02*
D03*
X14336D02*
D03*
Y5395D02*
D03*
X14061D02*
D03*
Y5895D02*
D03*
X12761D02*
D03*
Y5395D02*
D03*
X12486D02*
D03*
Y5895D02*
D03*
X11186D02*
D03*
Y5395D02*
D03*
X12736Y7320D02*
D03*
Y6820D02*
D03*
X14036D02*
D03*
Y7320D02*
D03*
X11161Y13820D02*
D03*
Y13320D02*
D03*
X12461D02*
D03*
Y13820D02*
D03*
X15636Y11895D02*
D03*
Y12395D02*
D03*
X14336D02*
D03*
Y11895D02*
D03*
X14061D02*
D03*
Y12395D02*
D03*
X12761D02*
D03*
Y11895D02*
D03*
X12486D02*
D03*
Y12395D02*
D03*
X11186D02*
D03*
Y11895D02*
D03*
X12736Y13820D02*
D03*
Y13320D02*
D03*
X14036D02*
D03*
Y13820D02*
D03*
X11161Y20320D02*
D03*
Y19820D02*
D03*
X12461D02*
D03*
Y20320D02*
D03*
X15636Y18395D02*
D03*
Y18895D02*
D03*
X14336D02*
D03*
Y18395D02*
D03*
X14061D02*
D03*
Y18895D02*
D03*
X12761D02*
D03*
Y18395D02*
D03*
X12486D02*
D03*
Y18895D02*
D03*
X11186D02*
D03*
Y18395D02*
D03*
X12736Y20320D02*
D03*
Y19820D02*
D03*
X14036D02*
D03*
Y20320D02*
D03*
D24*
X6139Y5956D02*
D03*
X6393D02*
D03*
X6647D02*
D03*
X6901D02*
D03*
X7155D02*
D03*
X7409D02*
D03*
X6139Y12456D02*
D03*
X6393D02*
D03*
X6647D02*
D03*
X6901D02*
D03*
X7155D02*
D03*
X7409D02*
D03*
X6139Y18956D02*
D03*
X6393D02*
D03*
X6647D02*
D03*
X6901D02*
D03*
X7155D02*
D03*
X7409D02*
D03*
D25*
X7663Y5956D02*
D03*
Y12456D02*
D03*
Y18956D02*
D03*
D26*
X13986Y8520D02*
D03*
X10661D02*
D03*
X12786D02*
D03*
X13986Y15020D02*
D03*
X10661D02*
D03*
X12786D02*
D03*
X13986Y21520D02*
D03*
X10661D02*
D03*
X12786D02*
D03*
D27*
X13732Y8520D02*
D03*
X13478D02*
D03*
X13224D02*
D03*
X10153D02*
D03*
X10407D02*
D03*
X12278D02*
D03*
X12532D02*
D03*
X12024D02*
D03*
X11770D02*
D03*
X11516D02*
D03*
X11262D02*
D03*
X13732Y15020D02*
D03*
X13478D02*
D03*
X13224D02*
D03*
X10153D02*
D03*
X10407D02*
D03*
X12278D02*
D03*
X12532D02*
D03*
X12024D02*
D03*
X11770D02*
D03*
X11516D02*
D03*
X11262D02*
D03*
X13732Y21520D02*
D03*
X13478D02*
D03*
X13224D02*
D03*
X10153D02*
D03*
X10407D02*
D03*
X12278D02*
D03*
X12532D02*
D03*
X12024D02*
D03*
X11770D02*
D03*
X11516D02*
D03*
X11262D02*
D03*
D28*
X7786Y8595D02*
D03*
X6486Y8145D02*
D03*
X6718D02*
D03*
X5548Y8108D02*
D03*
X5448Y8283D02*
D03*
X6186Y7595D02*
D03*
X6198Y7795D02*
D03*
X6348Y7920D02*
D03*
X8286Y7020D02*
D03*
X8061Y7895D02*
D03*
X13986D02*
D03*
X9836Y7020D02*
D03*
X11761Y7320D02*
D03*
X12024Y7333D02*
D03*
X8461Y6795D02*
D03*
X9736Y7220D02*
D03*
X12278Y7470D02*
D03*
X8511Y7020D02*
D03*
X13036Y7345D02*
D03*
X13261D02*
D03*
X5836Y6645D02*
D03*
X6011Y8020D02*
D03*
X7786Y15095D02*
D03*
X6486Y14645D02*
D03*
X6718D02*
D03*
X5548Y14608D02*
D03*
X5448Y14783D02*
D03*
X6186Y14095D02*
D03*
X6198Y14295D02*
D03*
X6348Y14420D02*
D03*
X8286Y13520D02*
D03*
X8061Y14395D02*
D03*
X13986D02*
D03*
X9836Y13520D02*
D03*
X11761Y13820D02*
D03*
X12024Y13833D02*
D03*
X8461Y13295D02*
D03*
X9736Y13720D02*
D03*
X12278Y13970D02*
D03*
X8511Y13520D02*
D03*
X13036Y13845D02*
D03*
X13261D02*
D03*
X5836Y13145D02*
D03*
X6011Y14520D02*
D03*
X7786Y21595D02*
D03*
X6486Y21145D02*
D03*
X6718D02*
D03*
X5548Y21108D02*
D03*
X5448Y21283D02*
D03*
X6186Y20595D02*
D03*
X6198Y20795D02*
D03*
X6348Y20920D02*
D03*
X8286Y20020D02*
D03*
X8061Y20895D02*
D03*
X13986D02*
D03*
X9836Y20020D02*
D03*
X11761Y20320D02*
D03*
X12024Y20333D02*
D03*
X8461Y19795D02*
D03*
X9736Y20220D02*
D03*
X12278Y20470D02*
D03*
X8511Y20020D02*
D03*
X13036Y20345D02*
D03*
X13261D02*
D03*
X5836Y19645D02*
D03*
X6011Y21020D02*
D03*
M02*
