%FSLAX42Y42*%
%MOMM*%
G71*
G01*
G75*
G04 Layer_Color=65535*
%ADD10C,0.15*%
%ADD11C,0.30*%
%ADD12C,0.20*%
%ADD13C,0.12*%
%ADD14R,0.85X2.30*%
D10*
X9423Y4788D02*
G03*
X9487Y4788I32J0D01*
G01*
X901Y5131D02*
G03*
X901Y5131I-315J0D01*
G01*
X4767Y1012D02*
G03*
X4767Y1012I-500J0D01*
G01*
X1549Y4296D02*
G03*
X1596Y4296I24J0D01*
G01*
X4585Y2261D02*
G03*
X4585Y2197I0J-32D01*
G01*
X2519Y5078D02*
G03*
X2486Y5078I-16J0D01*
G01*
X2660Y5126D02*
G03*
X2660Y5126I-29J0D01*
G01*
X2729Y4331D02*
G03*
X2793Y4331I32J0D01*
G01*
X4585Y3277D02*
G03*
X4585Y3213I0J-32D01*
G01*
X4102Y4343D02*
G03*
X4102Y4407I0J32D01*
G01*
Y5359D02*
G03*
X4102Y5423I0J32D01*
G01*
X3175Y5465D02*
G03*
X3222Y5465I24J0D01*
G01*
X4818Y6659D02*
G03*
X4818Y6659I-500J0D01*
G01*
X1023Y6171D02*
X1118D01*
X1023Y5831D02*
Y6171D01*
Y5831D02*
X1213Y5831D01*
Y6171D01*
X1118Y6171D02*
X1213D01*
X9338Y4788D02*
X9338Y4280D01*
X9571D01*
X9571Y4788D02*
X9571Y4280D01*
X9487Y4788D02*
X9571D01*
X9338D02*
X9423Y4788D01*
X410Y5306D02*
X512D01*
X461Y5255D02*
Y5357D01*
X1800Y5803D02*
X1880Y5803D01*
X1800Y5803D02*
Y6236D01*
X1826Y6263D01*
X1933D01*
X1960Y6236D01*
X1960Y5803D01*
X1880Y5803D02*
X1960Y5803D01*
X9601Y5257D02*
X9696D01*
Y4917D02*
Y5257D01*
X9506Y4917D02*
X9696Y4917D01*
X9506Y4917D02*
Y5257D01*
X9601D01*
X4213Y1426D02*
X4315D01*
X4264Y1375D02*
Y1477D01*
X8272Y5919D02*
X8382Y5919D01*
X8272Y5919D02*
X8272Y6379D01*
X8492D01*
Y5919D02*
Y6379D01*
X8382Y5919D02*
X8492D01*
X1749Y2743D02*
Y2858D01*
X2239D01*
X2239Y2628D02*
X2239Y2858D01*
X1749Y2628D02*
X2239D01*
X1749D02*
X1749Y2743D01*
X1596Y4296D02*
X1682D01*
X1462D02*
X1549D01*
X1462Y3946D02*
Y4296D01*
Y3946D02*
X1682D01*
Y4296D01*
X4585Y2346D02*
X4585Y2261D01*
X4585Y2113D02*
Y2197D01*
X4077Y2113D02*
X4585Y2113D01*
X4077Y2113D02*
Y2346D01*
X4585Y2346D01*
X3658Y2554D02*
X3753Y2554D01*
Y2234D02*
X3753Y2554D01*
X3563Y2234D02*
X3753Y2234D01*
X3563Y2554D02*
X3563Y2234D01*
X3563Y2554D02*
X3658Y2554D01*
X2684Y5078D02*
Y5530D01*
X2321D02*
X2684D01*
X2321Y5078D02*
Y5530D01*
Y5078D02*
X2486D01*
X2519D02*
X2684D01*
X2444Y3061D02*
Y4331D01*
Y3061D02*
X3077D01*
Y4331D01*
X2793D02*
X3077D01*
X2444D02*
X2729D01*
X1085Y3715D02*
Y4515D01*
X385Y3715D02*
X1085D01*
X385D02*
Y4515D01*
X1085D01*
X1376Y5831D02*
X1686D01*
X1376D02*
Y6211D01*
X1686D01*
Y5831D02*
Y6211D01*
X1357Y3759D02*
X1357Y3854D01*
X1357Y3854D02*
X1677Y3854D01*
X1677Y3664D01*
X1357Y3664D02*
X1677Y3664D01*
X1357Y3759D02*
X1357Y3664D01*
X1575Y4739D02*
X1670Y4739D01*
Y4419D02*
X1670Y4739D01*
X1480Y4419D02*
X1670Y4419D01*
X1480Y4739D02*
X1480Y4419D01*
X1480Y4739D02*
X1575Y4739D01*
X799Y1524D02*
X799Y1619D01*
X799Y1619D02*
X1119Y1619D01*
X1119Y1429D01*
X799Y1429D02*
X1119Y1429D01*
X799Y1524D02*
X799Y1429D01*
X1713Y3150D02*
X1713Y3245D01*
X1713Y3245D02*
X2033Y3245D01*
X2033Y3055D01*
X1713Y3055D02*
X2033Y3055D01*
X1713Y3150D02*
X1713Y3055D01*
X1713Y3454D02*
X1713Y3549D01*
X1713Y3549D02*
X2033Y3549D01*
X2033Y3359D01*
X1713Y3359D02*
X2033Y3359D01*
X1713Y3454D02*
X1713Y3359D01*
X2770Y2743D02*
Y2838D01*
X2770D02*
X3110D01*
X3110Y2648D02*
X3110Y2838D01*
X2770Y2648D02*
X3110D01*
X2770D02*
Y2743D01*
X4585Y3362D02*
X4585Y3277D01*
X4585Y3129D02*
Y3213D01*
X4077Y3129D02*
X4585Y3129D01*
X4077Y3129D02*
Y3362D01*
X4585Y3362D01*
X3658Y3316D02*
X3753Y3316D01*
Y2996D02*
X3753Y3316D01*
X3563Y2996D02*
X3753Y2996D01*
X3563Y3316D02*
X3563Y2996D01*
X3563Y3316D02*
X3658Y3316D01*
X1734Y5167D02*
X1829Y5167D01*
X1734Y5167D02*
X1734Y5487D01*
X1924Y5487D01*
X1924Y5167D01*
X1829Y5167D02*
X1924Y5167D01*
X3367Y5544D02*
X3367Y5639D01*
X3047Y5544D02*
X3367Y5544D01*
X3047Y5734D02*
X3047Y5544D01*
X3047Y5734D02*
X3367Y5734D01*
X3367Y5639D01*
X3512Y3999D02*
X3607Y3999D01*
X3512Y3999D02*
X3512Y4319D01*
X3702Y4319D01*
X3702Y3999D01*
X3607Y3999D02*
X3702Y3999D01*
X4102Y4343D02*
X4102Y4258D01*
Y4407D02*
Y4491D01*
X4610Y4491D01*
Y4258D02*
Y4491D01*
X4102Y4258D02*
X4610Y4258D01*
X7256Y5919D02*
X7366Y5919D01*
X7256Y5919D02*
X7256Y6379D01*
X7476D01*
Y5919D02*
Y6379D01*
X7366Y5919D02*
X7476D01*
X1749Y4572D02*
Y4687D01*
X2239D01*
X2239Y4457D02*
X2239Y4687D01*
X1749Y4457D02*
X2239D01*
X1749D02*
X1749Y4572D01*
X3512Y4863D02*
X3607Y4863D01*
X3512Y4863D02*
X3512Y5183D01*
X3702Y5183D01*
X3702Y4863D01*
X3607Y4863D02*
X3702Y4863D01*
X4102Y5359D02*
X4102Y5274D01*
Y5423D02*
Y5507D01*
X4610Y5507D01*
Y5274D02*
Y5507D01*
X4102Y5274D02*
X4610Y5274D01*
X2770Y4572D02*
Y4667D01*
X2770D02*
X3110D01*
X3110Y4477D02*
X3110Y4667D01*
X2770Y4477D02*
X3110D01*
X2770D02*
Y4572D01*
X1930Y4281D02*
X2025Y4281D01*
Y3961D02*
X2025Y4281D01*
X1835Y3961D02*
X2025Y3961D01*
X1835Y4281D02*
X1835Y3961D01*
X1835Y4281D02*
X1930Y4281D01*
X9151Y4903D02*
X9246D01*
X9151Y4903D02*
Y5243D01*
X9341Y5243D01*
Y4903D02*
Y5243D01*
X9246Y4903D02*
X9341D01*
X3834Y3613D02*
Y3708D01*
X3494Y3613D02*
X3834D01*
X3494D02*
X3494Y3803D01*
X3834D01*
Y3708D02*
Y3803D01*
X2617Y4877D02*
Y4972D01*
X2617D02*
X2957D01*
X2957Y4782D02*
X2957Y4972D01*
X2617Y4782D02*
X2957D01*
X2617D02*
Y4877D01*
X3222Y5465D02*
X3308D01*
X3088D02*
X3175D01*
X3088Y5115D02*
Y5465D01*
Y5115D02*
X3308D01*
Y5465D01*
X1701Y6306D02*
Y6401D01*
X1361Y6306D02*
X1701D01*
X1361D02*
X1361Y6496D01*
X1701D01*
Y6401D02*
Y6496D01*
X1357Y5639D02*
X1357Y5734D01*
X1357Y5734D02*
X1677Y5734D01*
X1677Y5544D01*
X1357Y5544D02*
X1677Y5544D01*
X1357Y5639D02*
X1357Y5544D01*
X2160Y4877D02*
Y4972D01*
X2160D02*
X2500D01*
X2500Y4782D02*
X2500Y4972D01*
X2160Y4782D02*
X2500D01*
X2160D02*
Y4877D01*
X2656Y6407D02*
X2656Y6502D01*
X2336Y6407D02*
X2656Y6407D01*
X2336Y6597D02*
X2336Y6407D01*
X2336Y6597D02*
X2656Y6597D01*
X2656Y6502D01*
X2845Y5907D02*
X2940Y5907D01*
Y5587D02*
X2940Y5907D01*
X2750Y5587D02*
X2940Y5587D01*
X2750Y5907D02*
X2750Y5587D01*
X2750Y5907D02*
X2845Y5907D01*
X2328Y6310D02*
X2638D01*
Y5930D02*
Y6310D01*
X2328Y5930D02*
X2638D01*
X2328D02*
Y6310D01*
X3783Y5994D02*
X3783Y5884D01*
X3323Y5884D02*
X3783Y5884D01*
X3323Y5884D02*
Y6104D01*
X3783D01*
Y5994D02*
Y6104D01*
Y1778D02*
X3783Y1668D01*
X3323Y1668D02*
X3783Y1668D01*
X3323Y1668D02*
Y1888D01*
X3783D01*
Y1778D02*
Y1888D01*
X367Y3251D02*
X367Y3331D01*
X801D01*
X827Y3305D01*
Y3198D02*
Y3305D01*
X801Y3171D02*
X827Y3198D01*
X367Y3171D02*
X801Y3171D01*
X367Y3251D02*
X367Y3171D01*
X4270Y6245D02*
X4372D01*
X4321Y6194D02*
Y6296D01*
X2750Y5970D02*
X2845D01*
X2750Y5970D02*
Y6310D01*
X2940Y6310D01*
Y5970D02*
Y6310D01*
X2845Y5970D02*
X2940D01*
X2656Y5645D02*
X2656Y5740D01*
X2336Y5645D02*
X2656Y5645D01*
X2336Y5835D02*
X2336Y5645D01*
X2336Y5835D02*
X2656Y5835D01*
X2656Y5740D01*
D11*
X4826Y1994D02*
X8979D01*
Y5588D01*
X8954Y5613D02*
X8979Y5588D01*
X4826Y5613D02*
X8954D01*
X4826Y1994D02*
Y5613D01*
X9881Y2946D02*
Y3962D01*
X9119Y2946D02*
X9881D01*
X9119D02*
Y3962D01*
X9881D01*
X127Y5588D02*
Y6604D01*
X889D01*
Y5588D02*
Y6604D01*
X127Y5588D02*
X889D01*
D12*
X381Y1143D02*
Y2921D01*
Y1143D02*
X635D01*
Y2921D01*
X381D02*
X635D01*
X-1000Y-500D02*
Y8500D01*
Y-500D02*
X11000D01*
Y8500D01*
X-1000D02*
X11000D01*
D13*
X9406Y4563D02*
Y4513D01*
X9416Y4503D01*
X9436D01*
X9446Y4513D01*
Y4563D01*
X9506D02*
X9486Y4553D01*
X9466Y4533D01*
Y4513D01*
X9476Y4503D01*
X9496D01*
X9506Y4513D01*
Y4523D01*
X9496Y4533D01*
X9466D01*
X1575Y6011D02*
Y6061D01*
X1565Y6071D01*
X1545D01*
X1535Y6061D01*
Y6011D01*
X1475D02*
X1515D01*
Y6041D01*
X1495Y6031D01*
X1485D01*
X1475Y6041D01*
Y6061D01*
X1485Y6071D01*
X1505D01*
X1515Y6061D01*
X686Y4144D02*
Y4094D01*
X696Y4084D01*
X716D01*
X726Y4094D01*
Y4144D01*
X776Y4084D02*
Y4144D01*
X746Y4114D01*
X786D01*
X2710Y3725D02*
Y3675D01*
X2720Y3665D01*
X2740D01*
X2750Y3675D01*
Y3725D01*
X2770Y3715D02*
X2780Y3725D01*
X2800D01*
X2810Y3715D01*
Y3705D01*
X2800Y3695D01*
X2790D01*
X2800D01*
X2810Y3685D01*
Y3675D01*
X2800Y3665D01*
X2780D01*
X2770Y3675D01*
X2433Y6151D02*
Y6101D01*
X2443Y6091D01*
X2463D01*
X2473Y6101D01*
Y6151D01*
X2533Y6091D02*
X2493D01*
X2533Y6131D01*
Y6141D01*
X2523Y6151D01*
X2503D01*
X2493Y6141D01*
X2461Y5333D02*
Y5283D01*
X2471Y5273D01*
X2491D01*
X2501Y5283D01*
Y5333D01*
X2521Y5273D02*
X2541D01*
X2531D01*
Y5333D01*
X2521Y5323D01*
X3581Y2365D02*
Y2425D01*
X3611D01*
X3621Y2415D01*
Y2395D01*
X3611Y2385D01*
X3581D01*
X3601D02*
X3621Y2365D01*
X3641D02*
X3661D01*
X3651D01*
Y2425D01*
X3641Y2415D01*
X3731Y2425D02*
X3711Y2415D01*
X3691Y2395D01*
Y2375D01*
X3701Y2365D01*
X3721D01*
X3731Y2375D01*
Y2385D01*
X3721Y2395D01*
X3691D01*
X3581Y3127D02*
Y3187D01*
X3611D01*
X3621Y3177D01*
Y3157D01*
X3611Y3147D01*
X3581D01*
X3601D02*
X3621Y3127D01*
X3641D02*
X3661D01*
X3651D01*
Y3187D01*
X3641Y3177D01*
X3731Y3187D02*
X3691D01*
Y3157D01*
X3711Y3167D01*
X3721D01*
X3731Y3157D01*
Y3137D01*
X3721Y3127D01*
X3701D01*
X3691Y3137D01*
X3531Y4130D02*
Y4190D01*
X3561D01*
X3571Y4180D01*
Y4160D01*
X3561Y4150D01*
X3531D01*
X3551D02*
X3571Y4130D01*
X3591D02*
X3611D01*
X3601D01*
Y4190D01*
X3591Y4180D01*
X3671Y4130D02*
Y4190D01*
X3641Y4160D01*
X3681D01*
X3531Y4994D02*
Y5054D01*
X3561D01*
X3571Y5044D01*
Y5024D01*
X3561Y5014D01*
X3531D01*
X3551D02*
X3571Y4994D01*
X3591D02*
X3611D01*
X3601D01*
Y5054D01*
X3591Y5044D01*
X3641D02*
X3651Y5054D01*
X3671D01*
X3681Y5044D01*
Y5034D01*
X3671Y5024D01*
X3661D01*
X3671D01*
X3681Y5014D01*
Y5004D01*
X3671Y4994D01*
X3651D01*
X3641Y5004D01*
X1499Y4549D02*
Y4609D01*
X1529D01*
X1539Y4599D01*
Y4579D01*
X1529Y4569D01*
X1499D01*
X1519D02*
X1539Y4549D01*
X1559D02*
X1579D01*
X1569D01*
Y4609D01*
X1559Y4599D01*
X1649Y4549D02*
X1609D01*
X1649Y4589D01*
Y4599D01*
X1639Y4609D01*
X1619D01*
X1609Y4599D01*
X1453Y5608D02*
Y5668D01*
X1483D01*
X1493Y5658D01*
Y5638D01*
X1483Y5628D01*
X1453D01*
X1473D02*
X1493Y5608D01*
X1513D02*
X1533D01*
X1523D01*
Y5668D01*
X1513Y5658D01*
X1563Y5608D02*
X1583D01*
X1573D01*
Y5668D01*
X1563Y5658D01*
X1443Y3729D02*
Y3789D01*
X1473D01*
X1483Y3779D01*
Y3759D01*
X1473Y3749D01*
X1443D01*
X1463D02*
X1483Y3729D01*
X1503D02*
X1523D01*
X1513D01*
Y3789D01*
X1503Y3779D01*
X1553D02*
X1563Y3789D01*
X1583D01*
X1593Y3779D01*
Y3739D01*
X1583Y3729D01*
X1563D01*
X1553Y3739D01*
Y3779D01*
X1824Y3119D02*
Y3179D01*
X1854D01*
X1864Y3169D01*
Y3149D01*
X1854Y3139D01*
X1824D01*
X1844D02*
X1864Y3119D01*
X1884Y3129D02*
X1894Y3119D01*
X1914D01*
X1924Y3129D01*
Y3169D01*
X1914Y3179D01*
X1894D01*
X1884Y3169D01*
Y3159D01*
X1894Y3149D01*
X1924D01*
X1880Y4092D02*
Y4152D01*
X1910D01*
X1920Y4142D01*
Y4122D01*
X1910Y4112D01*
X1880D01*
X1900D02*
X1920Y4092D01*
X1940Y4142D02*
X1950Y4152D01*
X1970D01*
X1980Y4142D01*
Y4132D01*
X1970Y4122D01*
X1980Y4112D01*
Y4102D01*
X1970Y4092D01*
X1950D01*
X1940Y4102D01*
Y4112D01*
X1950Y4122D01*
X1940Y4132D01*
Y4142D01*
X1950Y4122D02*
X1970D01*
X1824Y3424D02*
Y3484D01*
X1854D01*
X1864Y3474D01*
Y3454D01*
X1854Y3444D01*
X1824D01*
X1844D02*
X1864Y3424D01*
X1884Y3484D02*
X1924D01*
Y3474D01*
X1884Y3434D01*
Y3424D01*
X2794Y5718D02*
Y5778D01*
X2824D01*
X2834Y5768D01*
Y5748D01*
X2824Y5738D01*
X2794D01*
X2814D02*
X2834Y5718D01*
X2894Y5778D02*
X2874Y5768D01*
X2854Y5748D01*
Y5728D01*
X2864Y5718D01*
X2884D01*
X2894Y5728D01*
Y5738D01*
X2884Y5748D01*
X2854D01*
X909Y1494D02*
Y1554D01*
X939D01*
X949Y1544D01*
Y1524D01*
X939Y1514D01*
X909D01*
X929D02*
X949Y1494D01*
X1009Y1554D02*
X969D01*
Y1524D01*
X989Y1534D01*
X999D01*
X1009Y1524D01*
Y1504D01*
X999Y1494D01*
X979D01*
X969Y1504D01*
X1778Y5298D02*
Y5358D01*
X1808D01*
X1818Y5348D01*
Y5328D01*
X1808Y5318D01*
X1778D01*
X1798D02*
X1818Y5298D01*
X1868D02*
Y5358D01*
X1838Y5328D01*
X1878D01*
X3157Y5608D02*
Y5668D01*
X3187D01*
X3197Y5658D01*
Y5638D01*
X3187Y5628D01*
X3157D01*
X3177D02*
X3197Y5608D01*
X3217Y5658D02*
X3227Y5668D01*
X3247D01*
X3257Y5658D01*
Y5648D01*
X3247Y5638D01*
X3237D01*
X3247D01*
X3257Y5628D01*
Y5618D01*
X3247Y5608D01*
X3227D01*
X3217Y5618D01*
X2446Y5710D02*
Y5770D01*
X2476D01*
X2486Y5760D01*
Y5740D01*
X2476Y5730D01*
X2446D01*
X2466D02*
X2486Y5710D01*
X2546D02*
X2506D01*
X2546Y5750D01*
Y5760D01*
X2536Y5770D01*
X2516D01*
X2506Y5760D01*
X2456Y6472D02*
Y6532D01*
X2486D01*
X2496Y6522D01*
Y6502D01*
X2486Y6492D01*
X2456D01*
X2476D02*
X2496Y6472D01*
X2516D02*
X2536D01*
X2526D01*
Y6532D01*
X2516Y6522D01*
X4320Y2210D02*
Y2250D01*
X4310Y2260D01*
X4290D01*
X4280Y2250D01*
Y2210D01*
X4290Y2200D01*
X4310D01*
X4300Y2220D02*
X4320Y2200D01*
X4310D02*
X4320Y2210D01*
X4380Y2260D02*
X4360Y2250D01*
X4340Y2230D01*
Y2210D01*
X4350Y2200D01*
X4370D01*
X4380Y2210D01*
Y2220D01*
X4370Y2230D01*
X4340D01*
X4320Y3226D02*
Y3266D01*
X4310Y3276D01*
X4290D01*
X4280Y3266D01*
Y3226D01*
X4290Y3216D01*
X4310D01*
X4300Y3236D02*
X4320Y3216D01*
X4310D02*
X4320Y3226D01*
X4380Y3276D02*
X4340D01*
Y3246D01*
X4360Y3256D01*
X4370D01*
X4380Y3246D01*
Y3226D01*
X4370Y3216D01*
X4350D01*
X4340Y3226D01*
X4345Y4356D02*
Y4396D01*
X4335Y4406D01*
X4315D01*
X4305Y4396D01*
Y4356D01*
X4315Y4346D01*
X4335D01*
X4325Y4366D02*
X4345Y4346D01*
X4335D02*
X4345Y4356D01*
X4395Y4346D02*
Y4406D01*
X4365Y4376D01*
X4405D01*
X4345Y5372D02*
Y5412D01*
X4335Y5422D01*
X4315D01*
X4305Y5412D01*
Y5372D01*
X4315Y5362D01*
X4335D01*
X4325Y5382D02*
X4345Y5362D01*
X4335D02*
X4345Y5372D01*
X4365Y5412D02*
X4375Y5422D01*
X4395D01*
X4405Y5412D01*
Y5402D01*
X4395Y5392D01*
X4385D01*
X4395D01*
X4405Y5382D01*
Y5372D01*
X4395Y5362D01*
X4375D01*
X4365Y5372D01*
X1561Y4102D02*
Y4142D01*
X1551Y4152D01*
X1531D01*
X1521Y4142D01*
Y4102D01*
X1531Y4092D01*
X1551D01*
X1541Y4112D02*
X1561Y4092D01*
X1551D02*
X1561Y4102D01*
X1621Y4092D02*
X1581D01*
X1621Y4132D01*
Y4142D01*
X1611Y4152D01*
X1591D01*
X1581Y4142D01*
X3197Y5270D02*
Y5310D01*
X3187Y5320D01*
X3167D01*
X3157Y5310D01*
Y5270D01*
X3167Y5260D01*
X3187D01*
X3177Y5280D02*
X3197Y5260D01*
X3187D02*
X3197Y5270D01*
X3217Y5260D02*
X3237D01*
X3227D01*
Y5320D01*
X3217Y5310D01*
X6744Y3933D02*
Y3874D01*
X6784D01*
X6804D02*
X6824D01*
X6814D01*
Y3933D01*
X6804Y3923D01*
X9461Y3484D02*
X9441D01*
X9451D01*
Y3434D01*
X9441Y3424D01*
X9431D01*
X9421Y3434D01*
X9481Y3424D02*
Y3484D01*
X9511D01*
X9521Y3474D01*
Y3454D01*
X9511Y3444D01*
X9481D01*
X9541Y3474D02*
X9551Y3484D01*
X9571D01*
X9581Y3474D01*
Y3464D01*
X9571Y3454D01*
X9561D01*
X9571D01*
X9581Y3444D01*
Y3434D01*
X9571Y3424D01*
X9551D01*
X9541Y3434D01*
X469Y6126D02*
X449D01*
X459D01*
Y6076D01*
X449Y6066D01*
X439D01*
X429Y6076D01*
X489Y6066D02*
Y6126D01*
X519D01*
X529Y6116D01*
Y6096D01*
X519Y6086D01*
X489D01*
X589Y6066D02*
X549D01*
X589Y6106D01*
Y6116D01*
X579Y6126D01*
X559D01*
X549Y6116D01*
X477Y2062D02*
X457D01*
X467D01*
Y2012D01*
X457Y2002D01*
X447D01*
X437Y2012D01*
X497Y2002D02*
Y2062D01*
X527D01*
X537Y2052D01*
Y2032D01*
X527Y2022D01*
X497D01*
X557Y2002D02*
X577D01*
X567D01*
Y2062D01*
X557Y2052D01*
X1943Y2773D02*
Y2713D01*
X1973D01*
X1983Y2723D01*
Y2763D01*
X1973Y2773D01*
X1943D01*
X2043Y2713D02*
X2003D01*
X2043Y2753D01*
Y2763D01*
X2033Y2773D01*
X2013D01*
X2003Y2763D01*
X1953Y4602D02*
Y4542D01*
X1983D01*
X1993Y4552D01*
Y4592D01*
X1983Y4602D01*
X1953D01*
X2013Y4542D02*
X2033D01*
X2023D01*
Y4602D01*
X2013Y4592D01*
X8346Y6169D02*
X8336Y6179D01*
X8316D01*
X8306Y6169D01*
Y6129D01*
X8316Y6119D01*
X8336D01*
X8346Y6129D01*
X8366Y6119D02*
X8386D01*
X8376D01*
Y6179D01*
X8366Y6169D01*
X8416Y6129D02*
X8426Y6119D01*
X8446D01*
X8456Y6129D01*
Y6169D01*
X8446Y6179D01*
X8426D01*
X8416Y6169D01*
Y6159D01*
X8426Y6149D01*
X8456D01*
X4231Y1033D02*
X4221Y1043D01*
X4201D01*
X4191Y1033D01*
Y993D01*
X4201Y983D01*
X4221D01*
X4231Y993D01*
X4251Y983D02*
X4271D01*
X4261D01*
Y1043D01*
X4251Y1033D01*
X4301D02*
X4311Y1043D01*
X4331D01*
X4341Y1033D01*
Y1023D01*
X4331Y1013D01*
X4341Y1003D01*
Y993D01*
X4331Y983D01*
X4311D01*
X4301Y993D01*
Y1003D01*
X4311Y1013D01*
X4301Y1023D01*
Y1033D01*
X4311Y1013D02*
X4331D01*
X7330Y6169D02*
X7320Y6179D01*
X7300D01*
X7290Y6169D01*
Y6129D01*
X7300Y6119D01*
X7320D01*
X7330Y6129D01*
X7350Y6119D02*
X7370D01*
X7360D01*
Y6179D01*
X7350Y6169D01*
X7400Y6179D02*
X7440D01*
Y6169D01*
X7400Y6129D01*
Y6119D01*
X9565Y5107D02*
X9555Y5117D01*
X9535D01*
X9525Y5107D01*
Y5067D01*
X9535Y5057D01*
X9555D01*
X9565Y5067D01*
X9585Y5057D02*
X9605D01*
X9595D01*
Y5117D01*
X9585Y5107D01*
X9675Y5117D02*
X9655Y5107D01*
X9635Y5087D01*
Y5067D01*
X9645Y5057D01*
X9665D01*
X9675Y5067D01*
Y5077D01*
X9665Y5087D01*
X9635D01*
X4282Y6679D02*
X4272Y6689D01*
X4252D01*
X4242Y6679D01*
Y6639D01*
X4252Y6629D01*
X4272D01*
X4282Y6639D01*
X4302Y6629D02*
X4322D01*
X4312D01*
Y6689D01*
X4302Y6679D01*
X4392Y6689D02*
X4352D01*
Y6659D01*
X4372Y6669D01*
X4382D01*
X4392Y6659D01*
Y6639D01*
X4382Y6629D01*
X4362D01*
X4352Y6639D01*
X9209Y5094D02*
X9199Y5104D01*
X9179D01*
X9169Y5094D01*
Y5054D01*
X9179Y5044D01*
X9199D01*
X9209Y5054D01*
X9229Y5044D02*
X9249D01*
X9239D01*
Y5104D01*
X9229Y5094D01*
X9309Y5044D02*
Y5104D01*
X9279Y5074D01*
X9319D01*
X3517Y1798D02*
X3507Y1808D01*
X3487D01*
X3477Y1798D01*
Y1758D01*
X3487Y1748D01*
X3507D01*
X3517Y1758D01*
X3537Y1748D02*
X3557D01*
X3547D01*
Y1808D01*
X3537Y1798D01*
X3587D02*
X3597Y1808D01*
X3617D01*
X3627Y1798D01*
Y1788D01*
X3617Y1778D01*
X3607D01*
X3617D01*
X3627Y1768D01*
Y1758D01*
X3617Y1748D01*
X3597D01*
X3587Y1758D01*
X3517Y6014D02*
X3507Y6024D01*
X3487D01*
X3477Y6014D01*
Y5974D01*
X3487Y5964D01*
X3507D01*
X3517Y5974D01*
X3537Y5964D02*
X3557D01*
X3547D01*
Y6024D01*
X3537Y6014D01*
X3627Y5964D02*
X3587D01*
X3627Y6004D01*
Y6014D01*
X3617Y6024D01*
X3597D01*
X3587Y6014D01*
X1854Y6052D02*
X1844Y6062D01*
X1824D01*
X1814Y6052D01*
Y6012D01*
X1824Y6002D01*
X1844D01*
X1854Y6012D01*
X1874Y6002D02*
X1894D01*
X1884D01*
Y6062D01*
X1874Y6052D01*
X1924Y6002D02*
X1944D01*
X1934D01*
Y6062D01*
X1924Y6052D01*
X563Y3271D02*
X553Y3281D01*
X533D01*
X523Y3271D01*
Y3231D01*
X533Y3221D01*
X553D01*
X563Y3231D01*
X583Y3221D02*
X603D01*
X593D01*
Y3281D01*
X583Y3271D01*
X633D02*
X643Y3281D01*
X663D01*
X673Y3271D01*
Y3231D01*
X663Y3221D01*
X643D01*
X633Y3231D01*
Y3271D01*
X1521Y6420D02*
X1511Y6430D01*
X1491D01*
X1481Y6420D01*
Y6380D01*
X1491Y6370D01*
X1511D01*
X1521Y6380D01*
X1541D02*
X1551Y6370D01*
X1571D01*
X1581Y6380D01*
Y6420D01*
X1571Y6430D01*
X1551D01*
X1541Y6420D01*
Y6410D01*
X1551Y6400D01*
X1581D01*
X2931Y2763D02*
X2921Y2773D01*
X2901D01*
X2891Y2763D01*
Y2723D01*
X2901Y2713D01*
X2921D01*
X2931Y2723D01*
X2951Y2763D02*
X2960Y2773D01*
X2980D01*
X2990Y2763D01*
Y2753D01*
X2980Y2743D01*
X2990Y2733D01*
Y2723D01*
X2980Y2713D01*
X2960D01*
X2951Y2723D01*
Y2733D01*
X2960Y2743D01*
X2951Y2753D01*
Y2763D01*
X2960Y2743D02*
X2980D01*
X2931Y4592D02*
X2921Y4602D01*
X2901D01*
X2891Y4592D01*
Y4552D01*
X2901Y4542D01*
X2921D01*
X2931Y4552D01*
X2951Y4602D02*
X2990D01*
Y4592D01*
X2951Y4552D01*
Y4542D01*
X1107Y6022D02*
X1097Y6032D01*
X1077D01*
X1067Y6022D01*
Y5982D01*
X1077Y5972D01*
X1097D01*
X1107Y5982D01*
X1167Y6032D02*
X1147Y6022D01*
X1127Y6002D01*
Y5982D01*
X1137Y5972D01*
X1157D01*
X1167Y5982D01*
Y5992D01*
X1157Y6002D01*
X1127D01*
X3654Y3728D02*
X3644Y3738D01*
X3624D01*
X3614Y3728D01*
Y3688D01*
X3624Y3678D01*
X3644D01*
X3654Y3688D01*
X3714Y3738D02*
X3674D01*
Y3708D01*
X3694Y3718D01*
X3704D01*
X3714Y3708D01*
Y3688D01*
X3704Y3678D01*
X3684D01*
X3674Y3688D01*
X2321Y4896D02*
X2311Y4906D01*
X2291D01*
X2281Y4896D01*
Y4856D01*
X2291Y4846D01*
X2311D01*
X2321Y4856D01*
X2341Y4896D02*
X2351Y4906D01*
X2371D01*
X2381Y4896D01*
Y4886D01*
X2371Y4876D01*
X2361D01*
X2371D01*
X2381Y4866D01*
Y4856D01*
X2371Y4846D01*
X2351D01*
X2341Y4856D01*
X2834Y6161D02*
X2824Y6171D01*
X2804D01*
X2794Y6161D01*
Y6121D01*
X2804Y6111D01*
X2824D01*
X2834Y6121D01*
X2894Y6111D02*
X2854D01*
X2894Y6151D01*
Y6161D01*
X2884Y6171D01*
X2864D01*
X2854Y6161D01*
X2788Y4896D02*
X2778Y4906D01*
X2758D01*
X2748Y4896D01*
Y4856D01*
X2758Y4846D01*
X2778D01*
X2788Y4856D01*
X2808Y4846D02*
X2828D01*
X2818D01*
Y4906D01*
X2808Y4896D01*
D14*
X2161Y2743D02*
D03*
Y4572D02*
D03*
M02*
