%FSLAX42Y42*%
%MOMM*%
G71*
G01*
G75*
G04 Layer_Color=2752767*
%ADD10C,0.15*%
%ADD11C,0.30*%
%ADD12C,0.20*%
%ADD13C,0.12*%
%ADD14R,0.85X2.30*%
%ADD15C,0.13*%
%ADD16C,0.17*%
D12*
X-1000Y-500D02*
Y8500D01*
Y-500D02*
X11000D01*
Y8500D01*
X-1000D02*
X11000D01*
D15*
X5334Y2489D02*
Y2591D01*
X5436D01*
Y2489D01*
X5334D01*
X5842D02*
Y2591D01*
X5944D01*
Y2489D01*
X5842D01*
X6350D02*
Y2591D01*
X6452D01*
Y2489D01*
X6350D01*
X6834D02*
Y2591D01*
X6936D01*
Y2489D01*
X6834D01*
X7334D02*
Y2591D01*
X7436D01*
Y2489D01*
X7334D01*
X7834D02*
Y2591D01*
X7936D01*
Y2489D01*
X7834D01*
X8334D02*
Y2591D01*
X8436D01*
Y2489D01*
X8334D01*
Y5029D02*
Y5131D01*
X8436D01*
Y5029D01*
X8334D01*
X7874D02*
Y5131D01*
X7976D01*
Y5029D01*
X7874D01*
X7334D02*
Y5131D01*
X7436D01*
Y5029D01*
X7334D01*
X6834D02*
Y5131D01*
X6936D01*
Y5029D01*
X6834D01*
X6350D02*
Y5131D01*
X6452D01*
Y5029D01*
X6350D01*
X5842D02*
Y5131D01*
X5944D01*
Y5029D01*
X5842D01*
X5334D02*
Y5131D01*
X5436D01*
Y5029D01*
X5334D01*
X508Y2743D02*
X457Y2845D01*
X559D01*
X508Y2743D01*
Y2489D02*
X457Y2591D01*
X559D01*
X508Y2489D01*
Y2235D02*
X457Y2337D01*
X559D01*
X508Y2235D01*
Y1981D02*
X457Y2083D01*
X559D01*
X508Y1981D01*
Y1473D02*
X457Y1575D01*
X559D01*
X508Y1473D01*
Y1219D02*
X457Y1321D01*
X559D01*
X508Y1219D01*
Y1727D02*
X457Y1829D01*
X559D01*
X508Y1727D01*
X9500Y3150D02*
X9525Y3175D01*
X9550D01*
X9525Y3200D01*
X9550Y3226D01*
X9525D01*
X9500Y3251D01*
X9474Y3226D01*
X9449D01*
X9474Y3200D01*
X9449Y3175D01*
X9474D01*
X9500Y3150D01*
Y3658D02*
X9525Y3683D01*
X9550D01*
X9525Y3708D01*
X9550Y3734D01*
X9525D01*
X9500Y3759D01*
X9474Y3734D01*
X9449D01*
X9474Y3708D01*
X9449Y3683D01*
X9474D01*
X9500Y3658D01*
X457Y6299D02*
X483Y6350D01*
X457Y6401D01*
X508Y6375D01*
X559Y6401D01*
X533Y6350D01*
X559Y6299D01*
X508Y6325D01*
X457Y6299D01*
Y5791D02*
X483Y5842D01*
X457Y5893D01*
X508Y5867D01*
X559Y5893D01*
X533Y5842D01*
X559Y5791D01*
X508Y5817D01*
X457Y5791D01*
X9475Y475D02*
Y449D01*
X9525D01*
Y475D01*
X9551D01*
Y525D01*
X9525D01*
Y551D01*
X9475D01*
Y525D01*
X9449D01*
Y475D01*
X9475D01*
Y7475D02*
Y7449D01*
X9525D01*
Y7475D01*
X9551D01*
Y7525D01*
X9525D01*
Y7551D01*
X9475D01*
Y7525D01*
X9449D01*
Y7475D01*
X9475D01*
X475D02*
Y7449D01*
X525D01*
Y7475D01*
X551D01*
Y7525D01*
X525D01*
Y7551D01*
X475D01*
Y7525D01*
X449D01*
Y7475D01*
X475D01*
Y475D02*
Y449D01*
X525D01*
Y475D01*
X551D01*
Y525D01*
X525D01*
Y551D01*
X475D01*
Y525D01*
X449D01*
Y475D01*
X475D01*
X2540Y5271D02*
X2565D01*
X2591Y5296D01*
X2616Y5271D01*
X2642D01*
Y5296D01*
X2616Y5321D01*
X2642Y5347D01*
Y5372D01*
X2616D01*
X2591Y5347D01*
X2565Y5372D01*
X2540D01*
Y5347D01*
X2565Y5321D01*
X2540Y5296D01*
Y5271D01*
X2642Y4381D02*
X2667D01*
X2692Y4407D01*
X2718Y4381D01*
X2743D01*
Y4407D01*
X2718Y4432D01*
X2743Y4458D01*
Y4483D01*
X2718D01*
X2692Y4458D01*
X2667Y4483D01*
X2642D01*
Y4458D01*
X2667Y4432D01*
X2642Y4407D01*
Y4381D01*
X2413Y4089D02*
X2438D01*
X2464Y4115D01*
X2489Y4089D01*
X2515D01*
Y4115D01*
X2489Y4140D01*
X2515Y4166D01*
Y4191D01*
X2489D01*
X2464Y4166D01*
X2438Y4191D01*
X2413D01*
Y4166D01*
X2438Y4140D01*
X2413Y4115D01*
Y4089D01*
X2159Y5677D02*
X2184D01*
X2210Y5702D01*
X2235Y5677D01*
X2261D01*
Y5702D01*
X2235Y5728D01*
X2261Y5753D01*
Y5778D01*
X2235D01*
X2210Y5753D01*
X2184Y5778D01*
X2159D01*
Y5753D01*
X2184Y5728D01*
X2159Y5702D01*
Y5677D01*
X1956Y5384D02*
X1982D01*
X2007Y5410D01*
X2033Y5384D01*
X2058D01*
Y5410D01*
X2033Y5435D01*
X2058Y5460D01*
Y5486D01*
X2033D01*
X2007Y5460D01*
X1982Y5486D01*
X1956D01*
Y5460D01*
X1982Y5435D01*
X1956Y5410D01*
Y5384D01*
X2451Y3594D02*
X2476D01*
X2502Y3619D01*
X2527Y3594D01*
X2553D01*
Y3619D01*
X2527Y3645D01*
X2553Y3670D01*
Y3696D01*
X2527D01*
X2502Y3670D01*
X2476Y3696D01*
X2451D01*
Y3670D01*
X2476Y3645D01*
X2451Y3619D01*
Y3594D01*
Y3378D02*
X2476D01*
X2502Y3404D01*
X2527Y3378D01*
X2553D01*
Y3404D01*
X2527Y3429D01*
X2553Y3454D01*
Y3480D01*
X2527D01*
X2502Y3454D01*
X2476Y3480D01*
X2451D01*
Y3454D01*
X2476Y3429D01*
X2451Y3404D01*
Y3378D01*
X2578Y2540D02*
X2603D01*
X2629Y2565D01*
X2654Y2540D01*
X2680D01*
Y2565D01*
X2654Y2591D01*
X2680Y2616D01*
Y2642D01*
X2654D01*
X2629Y2616D01*
X2603Y2642D01*
X2578D01*
Y2616D01*
X2603Y2591D01*
X2578Y2565D01*
Y2540D01*
X1448Y5258D02*
X1473D01*
X1499Y5283D01*
X1524Y5258D01*
X1549D01*
Y5283D01*
X1524Y5309D01*
X1549Y5334D01*
Y5359D01*
X1524D01*
X1499Y5334D01*
X1473Y5359D01*
X1448D01*
Y5334D01*
X1473Y5309D01*
X1448Y5283D01*
Y5258D01*
X2134Y6198D02*
X2159D01*
X2184Y6223D01*
X2210Y6198D01*
X2235D01*
Y6223D01*
X2210Y6248D01*
X2235Y6274D01*
Y6299D01*
X2210D01*
X2184Y6274D01*
X2159Y6299D01*
X2134D01*
Y6274D01*
X2159Y6248D01*
X2134Y6223D01*
Y6198D01*
X9664Y4801D02*
X9689D01*
X9715Y4826D01*
X9740Y4801D01*
X9766D01*
Y4826D01*
X9740Y4851D01*
X9766Y4877D01*
Y4902D01*
X9740D01*
X9715Y4877D01*
X9689Y4902D01*
X9664D01*
Y4877D01*
X9689Y4851D01*
X9664Y4826D01*
Y4801D01*
X3391Y5588D02*
X3416D01*
X3442Y5613D01*
X3467Y5588D01*
X3492D01*
Y5613D01*
X3467Y5639D01*
X3492Y5664D01*
Y5690D01*
X3467D01*
X3442Y5664D01*
X3416Y5690D01*
X3391D01*
Y5664D01*
X3416Y5639D01*
X3391Y5613D01*
Y5588D01*
X3683Y1118D02*
X3708D01*
X3734Y1143D01*
X3759Y1118D01*
X3785D01*
Y1143D01*
X3759Y1168D01*
X3785Y1194D01*
Y1219D01*
X3759D01*
X3734Y1194D01*
X3708Y1219D01*
X3683D01*
Y1194D01*
X3708Y1168D01*
X3683Y1143D01*
Y1118D01*
X2914Y5455D02*
X2939D01*
X2965Y5481D01*
X2990Y5455D01*
X3016D01*
Y5481D01*
X2990Y5506D01*
X3016Y5532D01*
Y5557D01*
X2990D01*
X2965Y5532D01*
X2939Y5557D01*
X2914D01*
Y5532D01*
X2939Y5506D01*
X2914Y5481D01*
Y5455D01*
X3899Y1118D02*
X3924D01*
X3950Y1143D01*
X3975Y1118D01*
X4001D01*
Y1143D01*
X3975Y1168D01*
X4001Y1194D01*
Y1219D01*
X3975D01*
X3950Y1194D01*
X3924Y1219D01*
X3899D01*
Y1194D01*
X3924Y1168D01*
X3899Y1143D01*
Y1118D01*
X826Y5715D02*
X851D01*
X876Y5740D01*
X902Y5715D01*
X927D01*
Y5740D01*
X902Y5766D01*
X927Y5791D01*
Y5817D01*
X902D01*
X876Y5791D01*
X851Y5817D01*
X826D01*
Y5791D01*
X851Y5766D01*
X826Y5740D01*
Y5715D01*
X699Y5918D02*
X724D01*
X749Y5944D01*
X775Y5918D01*
X800D01*
Y5944D01*
X775Y5969D01*
X800Y5994D01*
Y6020D01*
X775D01*
X749Y5994D01*
X724Y6020D01*
X699D01*
Y5994D01*
X724Y5969D01*
X699Y5944D01*
Y5918D01*
X1588Y2515D02*
X1613D01*
X1638Y2540D01*
X1664Y2515D01*
X1689D01*
Y2540D01*
X1664Y2565D01*
X1689Y2591D01*
Y2616D01*
X1664D01*
X1638Y2591D01*
X1613Y2616D01*
X1588D01*
Y2591D01*
X1613Y2565D01*
X1588Y2540D01*
Y2515D01*
X2997Y4826D02*
X3023D01*
X3048Y4851D01*
X3073Y4826D01*
X3099D01*
Y4851D01*
X3073Y4877D01*
X3099Y4902D01*
Y4928D01*
X3073D01*
X3048Y4902D01*
X3023Y4928D01*
X2997D01*
Y4902D01*
X3023Y4877D01*
X2997Y4851D01*
Y4826D01*
X2642Y4953D02*
X2667D01*
X2692Y4978D01*
X2718Y4953D01*
X2743D01*
Y4978D01*
X2718Y5004D01*
X2743Y5029D01*
Y5055D01*
X2718D01*
X2692Y5029D01*
X2667Y5055D01*
X2642D01*
Y5029D01*
X2667Y5004D01*
X2642Y4978D01*
Y4953D01*
X2527Y5474D02*
X2553D01*
X2578Y5499D01*
X2603Y5474D01*
X2629D01*
Y5499D01*
X2603Y5524D01*
X2629Y5550D01*
Y5575D01*
X2603D01*
X2578Y5550D01*
X2553Y5575D01*
X2527D01*
Y5550D01*
X2553Y5524D01*
X2527Y5499D01*
Y5474D01*
X3670Y1346D02*
X3696D01*
X3721Y1372D01*
X3747Y1346D01*
X3772D01*
Y1372D01*
X3747Y1397D01*
X3772Y1422D01*
Y1448D01*
X3747D01*
X3721Y1422D01*
X3696Y1448D01*
X3670D01*
Y1422D01*
X3696Y1397D01*
X3670Y1372D01*
Y1346D01*
X1854Y3759D02*
X1880D01*
X1905Y3785D01*
X1930Y3759D01*
X1956D01*
Y3785D01*
X1930Y3810D01*
X1956Y3835D01*
Y3861D01*
X1930D01*
X1905Y3835D01*
X1880Y3861D01*
X1854D01*
Y3835D01*
X1880Y3810D01*
X1854Y3785D01*
Y3759D01*
Y5601D02*
X1880D01*
X1905Y5626D01*
X1930Y5601D01*
X1956D01*
Y5626D01*
X1930Y5651D01*
X1956Y5677D01*
Y5702D01*
X1930D01*
X1905Y5677D01*
X1880Y5702D01*
X1854D01*
Y5677D01*
X1880Y5651D01*
X1854Y5626D01*
Y5601D01*
X2870Y6426D02*
X2896D01*
X2921Y6452D01*
X2946Y6426D01*
X2972D01*
Y6452D01*
X2946Y6477D01*
X2972Y6502D01*
Y6528D01*
X2946D01*
X2921Y6502D01*
X2896Y6528D01*
X2870D01*
Y6502D01*
X2896Y6477D01*
X2870Y6452D01*
Y6426D01*
X3124D02*
X3150D01*
X3175Y6452D01*
X3200Y6426D01*
X3226D01*
Y6452D01*
X3200Y6477D01*
X3226Y6502D01*
Y6528D01*
X3200D01*
X3175Y6502D01*
X3150Y6528D01*
X3124D01*
Y6502D01*
X3150Y6477D01*
X3124Y6452D01*
Y6426D01*
X3378D02*
X3404D01*
X3429Y6452D01*
X3454Y6426D01*
X3480D01*
Y6452D01*
X3454Y6477D01*
X3480Y6502D01*
Y6528D01*
X3454D01*
X3429Y6502D01*
X3404Y6528D01*
X3378D01*
Y6502D01*
X3404Y6477D01*
X3378Y6452D01*
Y6426D01*
Y6172D02*
X3404D01*
X3429Y6198D01*
X3454Y6172D01*
X3480D01*
Y6198D01*
X3454Y6223D01*
X3480Y6248D01*
Y6274D01*
X3454D01*
X3429Y6248D01*
X3404Y6274D01*
X3378D01*
Y6248D01*
X3404Y6223D01*
X3378Y6198D01*
Y6172D01*
X3124D02*
X3150D01*
X3175Y6198D01*
X3200Y6172D01*
X3226D01*
Y6198D01*
X3200Y6223D01*
X3226Y6248D01*
Y6274D01*
X3200D01*
X3175Y6248D01*
X3150Y6274D01*
X3124D01*
Y6248D01*
X3150Y6223D01*
X3124Y6198D01*
Y6172D01*
Y5918D02*
X3150D01*
X3175Y5944D01*
X3200Y5918D01*
X3226D01*
Y5944D01*
X3200Y5969D01*
X3226Y5994D01*
Y6020D01*
X3200D01*
X3175Y5994D01*
X3150Y6020D01*
X3124D01*
Y5994D01*
X3150Y5969D01*
X3124Y5944D01*
Y5918D01*
X3861Y4089D02*
X3886D01*
X3912Y4115D01*
X3937Y4089D01*
X3962D01*
Y4115D01*
X3937Y4140D01*
X3962Y4166D01*
Y4191D01*
X3937D01*
X3912Y4166D01*
X3886Y4191D01*
X3861D01*
Y4166D01*
X3886Y4140D01*
X3861Y4115D01*
Y4089D01*
X4458Y3759D02*
X4483D01*
X4508Y3785D01*
X4534Y3759D01*
X4559D01*
Y3785D01*
X4534Y3810D01*
X4559Y3835D01*
Y3861D01*
X4534D01*
X4508Y3835D01*
X4483Y3861D01*
X4458D01*
Y3835D01*
X4483Y3810D01*
X4458Y3785D01*
Y3759D01*
X4254D02*
X4280D01*
X4305Y3785D01*
X4331Y3759D01*
X4356D01*
Y3785D01*
X4331Y3810D01*
X4356Y3835D01*
Y3861D01*
X4331D01*
X4305Y3835D01*
X4280Y3861D01*
X4254D01*
Y3835D01*
X4280Y3810D01*
X4254Y3785D01*
Y3759D01*
X4051D02*
X4077D01*
X4102Y3785D01*
X4128Y3759D01*
X4153D01*
Y3785D01*
X4128Y3810D01*
X4153Y3835D01*
Y3861D01*
X4128D01*
X4102Y3835D01*
X4077Y3861D01*
X4051D01*
Y3835D01*
X4077Y3810D01*
X4051Y3785D01*
Y3759D01*
X3874Y3848D02*
X3899D01*
X3924Y3874D01*
X3950Y3848D01*
X3975D01*
Y3874D01*
X3950Y3899D01*
X3975Y3924D01*
Y3950D01*
X3950D01*
X3924Y3924D01*
X3899Y3950D01*
X3874D01*
Y3924D01*
X3899Y3899D01*
X3874Y3874D01*
Y3848D01*
X3886Y3543D02*
X3912D01*
X3937Y3569D01*
X3962Y3543D01*
X3988D01*
Y3569D01*
X3962Y3594D01*
X3988Y3619D01*
Y3645D01*
X3962D01*
X3937Y3619D01*
X3912Y3645D01*
X3886D01*
Y3619D01*
X3912Y3594D01*
X3886Y3569D01*
Y3543D01*
X9665Y4140D02*
X9690D01*
X9715Y4166D01*
X9741Y4140D01*
X9766D01*
Y4166D01*
X9741Y4191D01*
X9766Y4216D01*
Y4242D01*
X9741D01*
X9715Y4216D01*
X9690Y4242D01*
X9665D01*
Y4216D01*
X9690Y4191D01*
X9665Y4166D01*
Y4140D01*
X3950Y711D02*
X3975D01*
X4001Y737D01*
X4026Y711D01*
X4051D01*
Y737D01*
X4026Y762D01*
X4051Y787D01*
Y813D01*
X4026D01*
X4001Y787D01*
X3975Y813D01*
X3950D01*
Y787D01*
X3975Y762D01*
X3950Y737D01*
Y711D01*
X4508D02*
X4534D01*
X4559Y737D01*
X4585Y711D01*
X4610D01*
Y737D01*
X4585Y762D01*
X4610Y787D01*
Y813D01*
X4585D01*
X4559Y787D01*
X4534Y813D01*
X4508D01*
Y787D01*
X4534Y762D01*
X4508Y737D01*
Y711D01*
X4775D02*
X4801D01*
X4826Y737D01*
X4851Y711D01*
X4877D01*
Y737D01*
X4851Y762D01*
X4877Y787D01*
Y813D01*
X4851D01*
X4826Y787D01*
X4801Y813D01*
X4775D01*
Y787D01*
X4801Y762D01*
X4775Y737D01*
Y711D01*
X3708D02*
X3734D01*
X3759Y737D01*
X3785Y711D01*
X3810D01*
Y737D01*
X3785Y762D01*
X3810Y787D01*
Y813D01*
X3785D01*
X3759Y787D01*
X3734Y813D01*
X3708D01*
Y787D01*
X3734Y762D01*
X3708Y737D01*
Y711D01*
X3950Y457D02*
X3975D01*
X4001Y483D01*
X4026Y457D01*
X4051D01*
Y483D01*
X4026Y508D01*
X4051Y533D01*
Y559D01*
X4026D01*
X4001Y533D01*
X3975Y559D01*
X3950D01*
Y533D01*
X3975Y508D01*
X3950Y483D01*
Y457D01*
X4229D02*
X4254D01*
X4280Y483D01*
X4305Y457D01*
X4331D01*
Y483D01*
X4305Y508D01*
X4331Y533D01*
Y559D01*
X4305D01*
X4280Y533D01*
X4254Y559D01*
X4229D01*
Y533D01*
X4254Y508D01*
X4229Y483D01*
Y457D01*
X4521D02*
X4547D01*
X4572Y483D01*
X4597Y457D01*
X4623D01*
Y483D01*
X4597Y508D01*
X4623Y533D01*
Y559D01*
X4597D01*
X4572Y533D01*
X4547Y559D01*
X4521D01*
Y533D01*
X4547Y508D01*
X4521Y483D01*
Y457D01*
X1854Y6363D02*
X1880D01*
X1905Y6388D01*
X1930Y6363D01*
X1956D01*
Y6388D01*
X1930Y6414D01*
X1956Y6439D01*
Y6464D01*
X1930D01*
X1905Y6439D01*
X1880Y6464D01*
X1854D01*
Y6439D01*
X1880Y6414D01*
X1854Y6388D01*
Y6363D01*
X1156D02*
X1181D01*
X1206Y6388D01*
X1232Y6363D01*
X1257D01*
Y6388D01*
X1232Y6414D01*
X1257Y6439D01*
Y6464D01*
X1232D01*
X1206Y6439D01*
X1181Y6464D01*
X1156D01*
Y6439D01*
X1181Y6414D01*
X1156Y6388D01*
Y6363D01*
D16*
X512Y5131D02*
G03*
X512Y5131I-51J0D01*
G01*
X762D02*
G03*
X762Y5131I-51J0D01*
G01*
X4318Y762D02*
G03*
X4318Y762I-51J0D01*
G01*
Y1262D02*
G03*
X4318Y1262I-51J0D01*
G01*
X4369Y6909D02*
G03*
X4369Y6909I-51J0D01*
G01*
Y6409D02*
G03*
X4369Y6409I-51J0D01*
G01*
M02*
