%FSLAX42Y42*%
%MOMM*%
G71*
G01*
G75*
%ADD10C,0.15*%
%ADD11C,0.30*%
%ADD12C,0.20*%
%ADD13C,0.12*%
%ADD14R,0.85X2.30*%
%ADD15C,0.13*%
%ADD16C,0.17*%
D12*
X-1000Y-500D02*
Y8500D01*
Y-500D02*
X11000D01*
Y8500D01*
X-1000D02*
X11000D01*
D15*
X5295Y2540D02*
X5475D01*
X5385Y2450D02*
Y2630D01*
X5803Y2540D02*
X5983D01*
X5893Y2450D02*
Y2630D01*
X6311Y2540D02*
X6491D01*
X6401Y2450D02*
Y2630D01*
X6795Y2540D02*
X6975D01*
X6885Y2450D02*
Y2630D01*
X7295Y2540D02*
X7475D01*
X7385Y2450D02*
Y2630D01*
X7795Y2540D02*
X7975D01*
X7885Y2450D02*
Y2630D01*
X8295Y2540D02*
X8475D01*
X8385Y2450D02*
Y2630D01*
X8295Y5080D02*
X8475D01*
X8385Y4990D02*
Y5170D01*
X7835Y5080D02*
X8015D01*
X7925Y4990D02*
Y5170D01*
X7295Y5080D02*
X7475D01*
X7385Y4990D02*
Y5170D01*
X6795Y5080D02*
X6975D01*
X6885Y4990D02*
Y5170D01*
X6311Y5080D02*
X6491D01*
X6401Y4990D02*
Y5170D01*
X5803Y5080D02*
X5983D01*
X5893Y4990D02*
Y5170D01*
X5295Y5080D02*
X5475D01*
X5385Y4990D02*
Y5170D01*
X421Y5131D02*
X501D01*
X461Y5091D02*
Y5171D01*
X671Y5131D02*
X751D01*
X711Y5091D02*
Y5171D01*
X4227Y762D02*
X4307D01*
X4267Y722D02*
Y802D01*
X4227Y1262D02*
X4307D01*
X4267Y1222D02*
Y1302D01*
X463Y2794D02*
X553D01*
X508Y2749D02*
Y2839D01*
X463Y2540D02*
X553D01*
X508Y2495D02*
Y2585D01*
X463Y2286D02*
X553D01*
X508Y2241D02*
Y2331D01*
X463Y2032D02*
X553D01*
X508Y1987D02*
Y2077D01*
X463Y1524D02*
X553D01*
X508Y1479D02*
Y1569D01*
X463Y1270D02*
X553D01*
X508Y1225D02*
Y1315D01*
X463Y1778D02*
X553D01*
X508Y1733D02*
Y1823D01*
X9375Y3200D02*
X9625D01*
X9500Y3075D02*
Y3325D01*
X9375Y3708D02*
X9625D01*
X9500Y3583D02*
Y3833D01*
X4278Y6909D02*
X4358D01*
X4318Y6869D02*
Y6949D01*
X4278Y6409D02*
X4358D01*
X4318Y6369D02*
Y6449D01*
X432Y6350D02*
X584D01*
X508Y6274D02*
Y6426D01*
X432Y5842D02*
X584D01*
X508Y5766D02*
Y5918D01*
X9340Y500D02*
X9660D01*
X9500Y340D02*
Y660D01*
X9340Y7500D02*
X9660D01*
X9500Y7340D02*
Y7660D01*
X340Y7500D02*
X660D01*
X500Y7340D02*
Y7660D01*
X340Y500D02*
X660D01*
X500Y340D02*
Y660D01*
X2555Y5321D02*
X2626D01*
X2591Y5286D02*
Y5357D01*
X2657Y4432D02*
X2728D01*
X2692Y4397D02*
Y4468D01*
X2428Y4140D02*
X2499D01*
X2464Y4105D02*
Y4176D01*
X2174Y5728D02*
X2245D01*
X2210Y5692D02*
Y5763D01*
X1972Y5435D02*
X2043D01*
X2007Y5399D02*
Y5471D01*
X2466Y3645D02*
X2537D01*
X2502Y3609D02*
Y3680D01*
X2466Y3429D02*
X2537D01*
X2502Y3393D02*
Y3465D01*
X2593Y2591D02*
X2664D01*
X2629Y2555D02*
Y2626D01*
X1463Y5309D02*
X1534D01*
X1499Y5273D02*
Y5344D01*
X2149Y6248D02*
X2220D01*
X2184Y6213D02*
Y6284D01*
X9679Y4851D02*
X9750D01*
X9715Y4816D02*
Y4887D01*
X3406Y5639D02*
X3477D01*
X3442Y5603D02*
Y5674D01*
X3698Y1168D02*
X3769D01*
X3734Y1133D02*
Y1204D01*
X2929Y5506D02*
X3000D01*
X2965Y5471D02*
Y5542D01*
X3914Y1168D02*
X3985D01*
X3950Y1133D02*
Y1204D01*
X841Y5766D02*
X912D01*
X876Y5730D02*
Y5801D01*
X714Y5969D02*
X785D01*
X749Y5933D02*
Y6005D01*
X1603Y2565D02*
X1674D01*
X1638Y2530D02*
Y2601D01*
X3012Y4877D02*
X3084D01*
X3048Y4841D02*
Y4912D01*
X2657Y5004D02*
X2728D01*
X2692Y4968D02*
Y5039D01*
X2543Y5524D02*
X2614D01*
X2578Y5489D02*
Y5560D01*
X3686Y1397D02*
X3757D01*
X3721Y1361D02*
Y1433D01*
X1869Y3810D02*
X1941D01*
X1905Y3774D02*
Y3846D01*
X1869Y5651D02*
X1941D01*
X1905Y5616D02*
Y5687D01*
X2885Y6477D02*
X2957D01*
X2921Y6441D02*
Y6513D01*
X3139Y6477D02*
X3211D01*
X3175Y6441D02*
Y6513D01*
X3393Y6477D02*
X3465D01*
X3429Y6441D02*
Y6513D01*
X3393Y6223D02*
X3465D01*
X3429Y6187D02*
Y6259D01*
X3139Y6223D02*
X3211D01*
X3175Y6187D02*
Y6259D01*
X3139Y5969D02*
X3211D01*
X3175Y5933D02*
Y6005D01*
X3876Y4140D02*
X3947D01*
X3912Y4105D02*
Y4176D01*
X4473Y3810D02*
X4544D01*
X4508Y3774D02*
Y3846D01*
X4270Y3810D02*
X4341D01*
X4305Y3774D02*
Y3846D01*
X4067Y3810D02*
X4138D01*
X4102Y3774D02*
Y3846D01*
X3889Y3899D02*
X3960D01*
X3924Y3863D02*
Y3934D01*
X3901Y3594D02*
X3973D01*
X3937Y3559D02*
Y3630D01*
X9680Y4191D02*
X9751D01*
X9715Y4155D02*
Y4227D01*
X3965Y762D02*
X4036D01*
X4001Y726D02*
Y798D01*
X4524Y762D02*
X4595D01*
X4559Y726D02*
Y798D01*
X4790Y762D02*
X4862D01*
X4826Y726D02*
Y798D01*
X3724Y762D02*
X3795D01*
X3759Y726D02*
Y798D01*
X3965Y508D02*
X4036D01*
X4001Y472D02*
Y544D01*
X4244Y508D02*
X4315D01*
X4280Y472D02*
Y544D01*
X4536Y508D02*
X4608D01*
X4572Y472D02*
Y544D01*
X1869Y6414D02*
X1941D01*
X1905Y6378D02*
Y6449D01*
X1171Y6414D02*
X1242D01*
X1206Y6378D02*
Y6449D01*
M02*
