%FSLAX42Y42*%
%MOMM*%
G71*
G01*
G75*
%ADD10C,0.20*%
%ADD11R,0.70X1.30*%
%ADD12R,1.30X0.90*%
%ADD13R,1.20X1.00*%
%ADD14R,0.90X1.60*%
%ADD15R,0.60X0.80*%
%ADD16R,1.30X0.70*%
%ADD17R,0.90X1.30*%
%ADD18R,0.80X0.60*%
%ADD19R,0.70X1.20*%
%ADD20R,1.00X1.70*%
%ADD21R,1.60X0.90*%
%ADD22R,1.30X1.30*%
%ADD23R,3.60X1.30*%
%ADD24R,1.50X0.60*%
%ADD25R,1.00X0.40*%
%ADD26R,1.00X1.20*%
%ADD27R,1.20X0.70*%
%ADD28C,0.50*%
%ADD29C,0.30*%
%ADD30C,2.00*%
%ADD31C,1.00*%
%ADD32C,0.25*%
%ADD33C,3.00*%
%ADD34C,5.00*%
%ADD35C,1.50*%
%ADD36C,1.30*%
%ADD37C,2.54*%
%ADD38C,1.60*%
%ADD39C,3.00*%
%ADD40C,1.50*%
%ADD41R,1.50X1.50*%
%ADD42C,1.27*%
%ADD43C,4.00*%
%ADD44C,0.17*%
D10*
X2048Y11243D02*
X14048D01*
Y2243D02*
Y11243D01*
X2048Y2243D02*
X14048D01*
X2048D02*
Y11243D01*
Y20243D02*
X14048D01*
Y11243D02*
Y20243D01*
X2048Y11243D02*
X14048D01*
X2048D02*
Y20243D01*
Y29243D02*
X14048D01*
Y20243D02*
Y29243D01*
X2048Y20243D02*
X14048D01*
X2048D02*
Y29243D01*
D44*
X3480Y8585D02*
X3632D01*
X3556Y8509D02*
Y8661D01*
X3480Y9093D02*
X3632D01*
X3556Y9017D02*
Y9169D01*
X7326Y9152D02*
X7406D01*
X7366Y9112D02*
Y9192D01*
X7326Y9652D02*
X7406D01*
X7366Y9612D02*
Y9692D01*
X12423Y6452D02*
X12673D01*
X12548Y6327D02*
Y6577D01*
X12423Y5944D02*
X12673D01*
X12548Y5819D02*
Y6069D01*
X3511Y4521D02*
X3601D01*
X3556Y4476D02*
Y4566D01*
X3511Y4013D02*
X3601D01*
X3556Y3968D02*
Y4058D01*
X3511Y4267D02*
X3601D01*
X3556Y4222D02*
Y4312D01*
X3511Y4775D02*
X3601D01*
X3556Y4730D02*
Y4820D01*
X3511Y5029D02*
X3601D01*
X3556Y4984D02*
Y5074D01*
X3511Y5283D02*
X3601D01*
X3556Y5238D02*
Y5328D01*
X3511Y5537D02*
X3601D01*
X3556Y5492D02*
Y5582D01*
X7275Y4005D02*
X7355D01*
X7315Y3965D02*
Y4045D01*
X7275Y3505D02*
X7355D01*
X7315Y3465D02*
Y3545D01*
X3719Y7874D02*
X3799D01*
X3759Y7834D02*
Y7914D01*
X3469Y7874D02*
X3549D01*
X3509Y7834D02*
Y7914D01*
X8343Y7823D02*
X8523D01*
X8433Y7733D02*
Y7913D01*
X8851Y7823D02*
X9031D01*
X8941Y7733D02*
Y7913D01*
X9359Y7823D02*
X9539D01*
X9449Y7733D02*
Y7913D01*
X9843Y7823D02*
X10023D01*
X9933Y7733D02*
Y7913D01*
X10343Y7823D02*
X10523D01*
X10433Y7733D02*
Y7913D01*
X10883Y7823D02*
X11063D01*
X10973Y7733D02*
Y7913D01*
X11343Y7823D02*
X11523D01*
X11433Y7733D02*
Y7913D01*
X11343Y5283D02*
X11523D01*
X11433Y5193D02*
Y5373D01*
X10843Y5283D02*
X11023D01*
X10933Y5193D02*
Y5373D01*
X10343Y5283D02*
X10523D01*
X10433Y5193D02*
Y5373D01*
X9843Y5283D02*
X10023D01*
X9933Y5193D02*
Y5373D01*
X9359Y5283D02*
X9539D01*
X9449Y5193D02*
Y5373D01*
X8851Y5283D02*
X9031D01*
X8941Y5193D02*
Y5373D01*
X8343Y5283D02*
X8523D01*
X8433Y5193D02*
Y5373D01*
X4219Y9157D02*
X4290D01*
X4254Y9121D02*
Y9192D01*
X4917Y9157D02*
X4989D01*
X4953Y9121D02*
Y9192D01*
X7584Y3251D02*
X7656D01*
X7620Y3216D02*
Y3287D01*
X7292Y3251D02*
X7363D01*
X7328Y3216D02*
Y3287D01*
X7013Y3251D02*
X7084D01*
X7049Y3216D02*
Y3287D01*
X6772Y3505D02*
X6843D01*
X6807Y3470D02*
Y3541D01*
X7838Y3505D02*
X7910D01*
X7874Y3470D02*
Y3541D01*
X7572Y3505D02*
X7643D01*
X7607Y3470D02*
Y3541D01*
X7013Y3505D02*
X7084D01*
X7049Y3470D02*
Y3541D01*
X12728Y6934D02*
X12799D01*
X12764Y6899D02*
Y6970D01*
X6949Y6337D02*
X7021D01*
X6985Y6302D02*
Y6373D01*
X6937Y6642D02*
X7008D01*
X6972Y6607D02*
Y6678D01*
X7115Y6553D02*
X7186D01*
X7150Y6518D02*
Y6589D01*
X7318Y6553D02*
X7389D01*
X7353Y6518D02*
Y6589D01*
X7521Y6553D02*
X7592D01*
X7557Y6518D02*
Y6589D01*
X6924Y6883D02*
X6995D01*
X6960Y6848D02*
Y6919D01*
X6187Y8712D02*
X6259D01*
X6223Y8677D02*
Y8748D01*
X6187Y8966D02*
X6259D01*
X6223Y8931D02*
Y9002D01*
X6441Y8966D02*
X6513D01*
X6477Y8931D02*
Y9002D01*
X6441Y9220D02*
X6513D01*
X6477Y9185D02*
Y9256D01*
X6187Y9220D02*
X6259D01*
X6223Y9185D02*
Y9256D01*
X5933Y9220D02*
X6005D01*
X5969Y9185D02*
Y9256D01*
X4917Y8395D02*
X4989D01*
X4953Y8359D02*
Y8430D01*
X4917Y6553D02*
X4989D01*
X4953Y6518D02*
Y6589D01*
X6734Y4140D02*
X6805D01*
X6769Y4105D02*
Y4176D01*
X5591Y8268D02*
X5662D01*
X5626Y8232D02*
Y8303D01*
X5705Y7747D02*
X5776D01*
X5740Y7711D02*
Y7783D01*
X6060Y7620D02*
X6132D01*
X6096Y7584D02*
Y7656D01*
X4651Y5309D02*
X4722D01*
X4686Y5273D02*
Y5344D01*
X3762Y8712D02*
X3833D01*
X3797Y8677D02*
Y8748D01*
X3889Y8509D02*
X3960D01*
X3924Y8473D02*
Y8545D01*
X6962Y3912D02*
X7033D01*
X6998Y3876D02*
Y3947D01*
X5977Y8249D02*
X6048D01*
X6013Y8214D02*
Y8285D01*
X6746Y3912D02*
X6817D01*
X6782Y3876D02*
Y3947D01*
X6454Y8382D02*
X6525D01*
X6490Y8346D02*
Y8418D01*
X12727Y7595D02*
X12798D01*
X12763Y7559D02*
Y7630D01*
X5197Y8992D02*
X5268D01*
X5232Y8956D02*
Y9027D01*
X4511Y8052D02*
X4582D01*
X4547Y8016D02*
Y8087D01*
X5641Y5334D02*
X5712D01*
X5677Y5298D02*
Y5370D01*
X5514Y6172D02*
X5585D01*
X5550Y6137D02*
Y6208D01*
X5514Y6388D02*
X5585D01*
X5550Y6353D02*
Y6424D01*
X5020Y8178D02*
X5091D01*
X5055Y8143D02*
Y8214D01*
X5222Y8471D02*
X5293D01*
X5258Y8435D02*
Y8506D01*
X5476Y6883D02*
X5547D01*
X5512Y6848D02*
Y6919D01*
X5705Y7175D02*
X5776D01*
X5740Y7140D02*
Y7211D01*
X5603Y8064D02*
X5674D01*
X5639Y8029D02*
Y8100D01*
X3388Y3243D02*
X3708D01*
X3548Y3083D02*
Y3403D01*
X3388Y10243D02*
X3708D01*
X3548Y10083D02*
Y10403D01*
X12388Y10243D02*
X12708D01*
X12548Y10083D02*
Y10403D01*
X12388Y3243D02*
X12708D01*
X12548Y3083D02*
Y3403D01*
X3480Y17585D02*
X3632D01*
X3556Y17509D02*
Y17661D01*
X3480Y18093D02*
X3632D01*
X3556Y18017D02*
Y18169D01*
X7326Y18152D02*
X7406D01*
X7366Y18112D02*
Y18192D01*
X7326Y18652D02*
X7406D01*
X7366Y18612D02*
Y18692D01*
X12423Y15452D02*
X12673D01*
X12548Y15327D02*
Y15577D01*
X12423Y14944D02*
X12673D01*
X12548Y14819D02*
Y15069D01*
X3511Y13521D02*
X3601D01*
X3556Y13476D02*
Y13566D01*
X3511Y13013D02*
X3601D01*
X3556Y12968D02*
Y13058D01*
X3511Y13267D02*
X3601D01*
X3556Y13222D02*
Y13312D01*
X3511Y13775D02*
X3601D01*
X3556Y13730D02*
Y13820D01*
X3511Y14029D02*
X3601D01*
X3556Y13984D02*
Y14074D01*
X3511Y14283D02*
X3601D01*
X3556Y14238D02*
Y14328D01*
X3511Y14537D02*
X3601D01*
X3556Y14492D02*
Y14582D01*
X7275Y13005D02*
X7355D01*
X7315Y12965D02*
Y13045D01*
X7275Y12505D02*
X7355D01*
X7315Y12465D02*
Y12545D01*
X3719Y16874D02*
X3799D01*
X3759Y16834D02*
Y16914D01*
X3469Y16874D02*
X3549D01*
X3509Y16834D02*
Y16914D01*
X8343Y16823D02*
X8523D01*
X8433Y16733D02*
Y16913D01*
X8851Y16823D02*
X9031D01*
X8941Y16733D02*
Y16913D01*
X9359Y16823D02*
X9539D01*
X9449Y16733D02*
Y16913D01*
X9843Y16823D02*
X10023D01*
X9933Y16733D02*
Y16913D01*
X10343Y16823D02*
X10523D01*
X10433Y16733D02*
Y16913D01*
X10883Y16823D02*
X11063D01*
X10973Y16733D02*
Y16913D01*
X11343Y16823D02*
X11523D01*
X11433Y16733D02*
Y16913D01*
X11343Y14283D02*
X11523D01*
X11433Y14193D02*
Y14373D01*
X10843Y14283D02*
X11023D01*
X10933Y14193D02*
Y14373D01*
X10343Y14283D02*
X10523D01*
X10433Y14193D02*
Y14373D01*
X9843Y14283D02*
X10023D01*
X9933Y14193D02*
Y14373D01*
X9359Y14283D02*
X9539D01*
X9449Y14193D02*
Y14373D01*
X8851Y14283D02*
X9031D01*
X8941Y14193D02*
Y14373D01*
X8343Y14283D02*
X8523D01*
X8433Y14193D02*
Y14373D01*
X4219Y18157D02*
X4290D01*
X4254Y18121D02*
Y18192D01*
X4917Y18157D02*
X4989D01*
X4953Y18121D02*
Y18192D01*
X7584Y12251D02*
X7656D01*
X7620Y12216D02*
Y12287D01*
X7292Y12251D02*
X7363D01*
X7328Y12216D02*
Y12287D01*
X7013Y12251D02*
X7084D01*
X7049Y12216D02*
Y12287D01*
X6772Y12505D02*
X6843D01*
X6807Y12470D02*
Y12541D01*
X7838Y12505D02*
X7910D01*
X7874Y12470D02*
Y12541D01*
X7572Y12505D02*
X7643D01*
X7607Y12470D02*
Y12541D01*
X7013Y12505D02*
X7084D01*
X7049Y12470D02*
Y12541D01*
X12728Y15934D02*
X12799D01*
X12764Y15899D02*
Y15970D01*
X6949Y15337D02*
X7021D01*
X6985Y15302D02*
Y15373D01*
X6937Y15642D02*
X7008D01*
X6972Y15607D02*
Y15678D01*
X7115Y15553D02*
X7186D01*
X7150Y15518D02*
Y15589D01*
X7318Y15553D02*
X7389D01*
X7353Y15518D02*
Y15589D01*
X7521Y15553D02*
X7592D01*
X7557Y15518D02*
Y15589D01*
X6924Y15883D02*
X6995D01*
X6960Y15848D02*
Y15919D01*
X6187Y17712D02*
X6259D01*
X6223Y17677D02*
Y17748D01*
X6187Y17966D02*
X6259D01*
X6223Y17931D02*
Y18002D01*
X6441Y17966D02*
X6513D01*
X6477Y17931D02*
Y18002D01*
X6441Y18220D02*
X6513D01*
X6477Y18185D02*
Y18256D01*
X6187Y18220D02*
X6259D01*
X6223Y18185D02*
Y18256D01*
X5933Y18220D02*
X6005D01*
X5969Y18185D02*
Y18256D01*
X4917Y17395D02*
X4989D01*
X4953Y17359D02*
Y17430D01*
X4917Y15553D02*
X4989D01*
X4953Y15518D02*
Y15589D01*
X6734Y13140D02*
X6805D01*
X6769Y13105D02*
Y13176D01*
X5591Y17268D02*
X5662D01*
X5626Y17232D02*
Y17303D01*
X5705Y16747D02*
X5776D01*
X5740Y16711D02*
Y16783D01*
X6060Y16620D02*
X6132D01*
X6096Y16584D02*
Y16656D01*
X4651Y14309D02*
X4722D01*
X4686Y14273D02*
Y14344D01*
X3762Y17712D02*
X3833D01*
X3797Y17677D02*
Y17748D01*
X3889Y17509D02*
X3960D01*
X3924Y17473D02*
Y17545D01*
X6962Y12912D02*
X7033D01*
X6998Y12876D02*
Y12947D01*
X5977Y17249D02*
X6048D01*
X6013Y17214D02*
Y17285D01*
X6746Y12912D02*
X6817D01*
X6782Y12876D02*
Y12947D01*
X6454Y17382D02*
X6525D01*
X6490Y17346D02*
Y17418D01*
X12727Y16595D02*
X12798D01*
X12763Y16559D02*
Y16630D01*
X5197Y17992D02*
X5268D01*
X5232Y17956D02*
Y18027D01*
X4511Y17052D02*
X4582D01*
X4547Y17016D02*
Y17087D01*
X5641Y14334D02*
X5712D01*
X5677Y14298D02*
Y14370D01*
X5514Y15172D02*
X5585D01*
X5550Y15137D02*
Y15208D01*
X5514Y15388D02*
X5585D01*
X5550Y15353D02*
Y15424D01*
X5020Y17178D02*
X5091D01*
X5055Y17143D02*
Y17214D01*
X5222Y17471D02*
X5293D01*
X5258Y17435D02*
Y17506D01*
X5476Y15883D02*
X5547D01*
X5512Y15848D02*
Y15919D01*
X5705Y16176D02*
X5776D01*
X5740Y16140D02*
Y16211D01*
X5603Y17065D02*
X5674D01*
X5639Y17029D02*
Y17100D01*
X3388Y12243D02*
X3708D01*
X3548Y12083D02*
Y12403D01*
X3388Y19243D02*
X3708D01*
X3548Y19083D02*
Y19403D01*
X12388Y19243D02*
X12708D01*
X12548Y19083D02*
Y19403D01*
X12388Y12243D02*
X12708D01*
X12548Y12083D02*
Y12403D01*
X3480Y26585D02*
X3632D01*
X3556Y26509D02*
Y26661D01*
X3480Y27093D02*
X3632D01*
X3556Y27017D02*
Y27169D01*
X7326Y27152D02*
X7406D01*
X7366Y27112D02*
Y27192D01*
X7326Y27652D02*
X7406D01*
X7366Y27612D02*
Y27692D01*
X12423Y24452D02*
X12673D01*
X12548Y24327D02*
Y24577D01*
X12423Y23944D02*
X12673D01*
X12548Y23819D02*
Y24069D01*
X3511Y22521D02*
X3601D01*
X3556Y22476D02*
Y22566D01*
X3511Y22013D02*
X3601D01*
X3556Y21968D02*
Y22058D01*
X3511Y22267D02*
X3601D01*
X3556Y22222D02*
Y22312D01*
X3511Y22775D02*
X3601D01*
X3556Y22730D02*
Y22820D01*
X3511Y23029D02*
X3601D01*
X3556Y22984D02*
Y23074D01*
X3511Y23283D02*
X3601D01*
X3556Y23238D02*
Y23328D01*
X3511Y23537D02*
X3601D01*
X3556Y23492D02*
Y23582D01*
X7275Y22005D02*
X7355D01*
X7315Y21965D02*
Y22045D01*
X7275Y21505D02*
X7355D01*
X7315Y21465D02*
Y21545D01*
X3719Y25874D02*
X3799D01*
X3759Y25834D02*
Y25914D01*
X3469Y25874D02*
X3549D01*
X3509Y25834D02*
Y25914D01*
X8343Y25823D02*
X8523D01*
X8433Y25733D02*
Y25913D01*
X8851Y25823D02*
X9031D01*
X8941Y25733D02*
Y25913D01*
X9359Y25823D02*
X9539D01*
X9449Y25733D02*
Y25913D01*
X9843Y25823D02*
X10023D01*
X9933Y25733D02*
Y25913D01*
X10343Y25823D02*
X10523D01*
X10433Y25733D02*
Y25913D01*
X10883Y25823D02*
X11063D01*
X10973Y25733D02*
Y25913D01*
X11343Y25823D02*
X11523D01*
X11433Y25733D02*
Y25913D01*
X11343Y23283D02*
X11523D01*
X11433Y23193D02*
Y23373D01*
X10843Y23283D02*
X11023D01*
X10933Y23193D02*
Y23373D01*
X10343Y23283D02*
X10523D01*
X10433Y23193D02*
Y23373D01*
X9843Y23283D02*
X10023D01*
X9933Y23193D02*
Y23373D01*
X9359Y23283D02*
X9539D01*
X9449Y23193D02*
Y23373D01*
X8851Y23283D02*
X9031D01*
X8941Y23193D02*
Y23373D01*
X8343Y23283D02*
X8523D01*
X8433Y23193D02*
Y23373D01*
X4219Y27157D02*
X4290D01*
X4254Y27121D02*
Y27192D01*
X4917Y27157D02*
X4989D01*
X4953Y27121D02*
Y27192D01*
X7584Y21251D02*
X7656D01*
X7620Y21216D02*
Y21287D01*
X7292Y21251D02*
X7363D01*
X7328Y21216D02*
Y21287D01*
X7013Y21251D02*
X7084D01*
X7049Y21216D02*
Y21287D01*
X6772Y21505D02*
X6843D01*
X6807Y21470D02*
Y21541D01*
X7838Y21505D02*
X7910D01*
X7874Y21470D02*
Y21541D01*
X7572Y21505D02*
X7643D01*
X7607Y21470D02*
Y21541D01*
X7013Y21505D02*
X7084D01*
X7049Y21470D02*
Y21541D01*
X12728Y24934D02*
X12799D01*
X12764Y24899D02*
Y24970D01*
X6949Y24337D02*
X7021D01*
X6985Y24302D02*
Y24373D01*
X6937Y24642D02*
X7008D01*
X6972Y24607D02*
Y24678D01*
X7115Y24553D02*
X7186D01*
X7150Y24518D02*
Y24589D01*
X7318Y24553D02*
X7389D01*
X7353Y24518D02*
Y24589D01*
X7521Y24553D02*
X7592D01*
X7557Y24518D02*
Y24589D01*
X6924Y24883D02*
X6995D01*
X6960Y24848D02*
Y24919D01*
X6187Y26712D02*
X6259D01*
X6223Y26677D02*
Y26748D01*
X6187Y26966D02*
X6259D01*
X6223Y26931D02*
Y27002D01*
X6441Y26966D02*
X6513D01*
X6477Y26931D02*
Y27002D01*
X6441Y27220D02*
X6513D01*
X6477Y27185D02*
Y27256D01*
X6187Y27220D02*
X6259D01*
X6223Y27185D02*
Y27256D01*
X5933Y27220D02*
X6005D01*
X5969Y27185D02*
Y27256D01*
X4917Y26395D02*
X4989D01*
X4953Y26359D02*
Y26430D01*
X4917Y24553D02*
X4989D01*
X4953Y24518D02*
Y24589D01*
X6734Y22140D02*
X6805D01*
X6769Y22105D02*
Y22176D01*
X5591Y26268D02*
X5662D01*
X5626Y26232D02*
Y26303D01*
X5705Y25747D02*
X5776D01*
X5740Y25711D02*
Y25783D01*
X6060Y25620D02*
X6132D01*
X6096Y25584D02*
Y25656D01*
X4651Y23309D02*
X4722D01*
X4686Y23273D02*
Y23344D01*
X3762Y26712D02*
X3833D01*
X3797Y26677D02*
Y26748D01*
X3889Y26509D02*
X3960D01*
X3924Y26473D02*
Y26545D01*
X6962Y21912D02*
X7033D01*
X6998Y21876D02*
Y21947D01*
X5977Y26249D02*
X6048D01*
X6013Y26214D02*
Y26285D01*
X6746Y21912D02*
X6817D01*
X6782Y21876D02*
Y21947D01*
X6454Y26382D02*
X6525D01*
X6490Y26346D02*
Y26418D01*
X12727Y25595D02*
X12798D01*
X12763Y25559D02*
Y25630D01*
X5197Y26992D02*
X5268D01*
X5232Y26956D02*
Y27027D01*
X4511Y26052D02*
X4582D01*
X4547Y26016D02*
Y26087D01*
X5641Y23334D02*
X5712D01*
X5677Y23298D02*
Y23370D01*
X5514Y24172D02*
X5585D01*
X5550Y24137D02*
Y24208D01*
X5514Y24388D02*
X5585D01*
X5550Y24353D02*
Y24424D01*
X5020Y26178D02*
X5091D01*
X5055Y26143D02*
Y26214D01*
X5222Y26471D02*
X5293D01*
X5258Y26435D02*
Y26506D01*
X5476Y24883D02*
X5547D01*
X5512Y24848D02*
Y24919D01*
X5705Y25176D02*
X5776D01*
X5740Y25140D02*
Y25211D01*
X5603Y26064D02*
X5674D01*
X5639Y26029D02*
Y26100D01*
X3388Y21243D02*
X3708D01*
X3548Y21083D02*
Y21403D01*
X3388Y28243D02*
X3708D01*
X3548Y28083D02*
Y28403D01*
X12388Y28243D02*
X12708D01*
X12548Y28083D02*
Y28403D01*
X12388Y21243D02*
X12708D01*
X12548Y21083D02*
Y21403D01*
M02*
